%TF.GenerationSoftware,KiCad,Pcbnew,8.0.8*%
%TF.CreationDate,2025-02-18T09:35:38+01:00*%
%TF.ProjectId,Robot,526f626f-742e-46b6-9963-61645f706362,rev?*%
%TF.SameCoordinates,Original*%
%TF.FileFunction,Copper,L1,Top*%
%TF.FilePolarity,Positive*%
%FSLAX46Y46*%
G04 Gerber Fmt 4.6, Leading zero omitted, Abs format (unit mm)*
G04 Created by KiCad (PCBNEW 8.0.8) date 2025-02-18 09:35:38*
%MOMM*%
%LPD*%
G01*
G04 APERTURE LIST*
G04 Aperture macros list*
%AMRoundRect*
0 Rectangle with rounded corners*
0 $1 Rounding radius*
0 $2 $3 $4 $5 $6 $7 $8 $9 X,Y pos of 4 corners*
0 Add a 4 corners polygon primitive as box body*
4,1,4,$2,$3,$4,$5,$6,$7,$8,$9,$2,$3,0*
0 Add four circle primitives for the rounded corners*
1,1,$1+$1,$2,$3*
1,1,$1+$1,$4,$5*
1,1,$1+$1,$6,$7*
1,1,$1+$1,$8,$9*
0 Add four rect primitives between the rounded corners*
20,1,$1+$1,$2,$3,$4,$5,0*
20,1,$1+$1,$4,$5,$6,$7,0*
20,1,$1+$1,$6,$7,$8,$9,0*
20,1,$1+$1,$8,$9,$2,$3,0*%
G04 Aperture macros list end*
%TA.AperFunction,ComponentPad*%
%ADD10R,1.600000X1.600000*%
%TD*%
%TA.AperFunction,ComponentPad*%
%ADD11O,1.600000X1.600000*%
%TD*%
%TA.AperFunction,ComponentPad*%
%ADD12RoundRect,0.250000X0.600000X0.750000X-0.600000X0.750000X-0.600000X-0.750000X0.600000X-0.750000X0*%
%TD*%
%TA.AperFunction,ComponentPad*%
%ADD13O,1.700000X2.000000*%
%TD*%
%TA.AperFunction,ComponentPad*%
%ADD14R,2.200000X2.200000*%
%TD*%
%TA.AperFunction,ComponentPad*%
%ADD15O,2.200000X2.200000*%
%TD*%
%TA.AperFunction,ComponentPad*%
%ADD16RoundRect,0.250000X-0.600000X-0.750000X0.600000X-0.750000X0.600000X0.750000X-0.600000X0.750000X0*%
%TD*%
%TA.AperFunction,ComponentPad*%
%ADD17RoundRect,0.250000X-0.750000X0.600000X-0.750000X-0.600000X0.750000X-0.600000X0.750000X0.600000X0*%
%TD*%
%TA.AperFunction,ComponentPad*%
%ADD18O,2.000000X1.700000*%
%TD*%
%TA.AperFunction,ComponentPad*%
%ADD19C,1.524000*%
%TD*%
%TA.AperFunction,SMDPad,CuDef*%
%ADD20R,6.000000X1.905000*%
%TD*%
%TA.AperFunction,ComponentPad*%
%ADD21O,2.200000X3.500000*%
%TD*%
%TA.AperFunction,ComponentPad*%
%ADD22R,1.500000X2.500000*%
%TD*%
%TA.AperFunction,ComponentPad*%
%ADD23O,1.500000X2.500000*%
%TD*%
%TA.AperFunction,ViaPad*%
%ADD24C,0.600000*%
%TD*%
%TA.AperFunction,Conductor*%
%ADD25C,0.800000*%
%TD*%
%TA.AperFunction,Conductor*%
%ADD26C,0.600000*%
%TD*%
%TA.AperFunction,Conductor*%
%ADD27C,1.000000*%
%TD*%
G04 APERTURE END LIST*
D10*
%TO.P,U2,1,EN1\u002C2*%
%TO.N,Net-(U1-GPIO2)*%
X79400000Y-145054314D03*
D11*
%TO.P,U2,2,1A*%
%TO.N,Net-(U1-GPIO1)*%
X81940000Y-145054314D03*
%TO.P,U2,3,1Y*%
%TO.N,Net-(J4-Pin_2)*%
X84480000Y-145054314D03*
%TO.P,U2,4,GND*%
%TO.N,GND*%
X87020000Y-145054314D03*
%TO.P,U2,5,GND*%
X89560000Y-145054314D03*
%TO.P,U2,6,2Y*%
%TO.N,Net-(J4-Pin_1)*%
X92100000Y-145054314D03*
%TO.P,U2,7,2A*%
%TO.N,Net-(U1-GPIO0)*%
X94640000Y-145054314D03*
%TO.P,U2,8,VCC2*%
%TO.N,Net-(SW1A-B)*%
X97180000Y-145054314D03*
%TO.P,U2,9,EN3\u002C4*%
%TO.N,Net-(U1-GPIO5)*%
X97180000Y-137434314D03*
%TO.P,U2,10,3A*%
%TO.N,Net-(U1-GPIO6)*%
X94640000Y-137434314D03*
%TO.P,U2,11,3Y*%
%TO.N,Net-(J3-Pin_2)*%
X92100000Y-137434314D03*
%TO.P,U2,12,GND*%
%TO.N,unconnected-(U2-GND-Pad12)*%
X89560000Y-137434314D03*
%TO.P,U2,13,GND*%
%TO.N,unconnected-(U2-GND-Pad13)*%
X87020000Y-137434314D03*
%TO.P,U2,14,4Y*%
%TO.N,Net-(J3-Pin_1)*%
X84480000Y-137434314D03*
%TO.P,U2,15,4A*%
%TO.N,Net-(U1-GPIO7)*%
X81940000Y-137434314D03*
%TO.P,U2,16,VCC1*%
%TO.N,Net-(D1-K)*%
X79400000Y-137434314D03*
%TD*%
D12*
%TO.P,J4,1,Pin_1*%
%TO.N,Net-(J4-Pin_1)*%
X84800000Y-149734314D03*
D13*
%TO.P,J4,2,Pin_2*%
%TO.N,Net-(J4-Pin_2)*%
X82300000Y-149734314D03*
%TD*%
D14*
%TO.P,D1,1,K*%
%TO.N,Net-(D1-K)*%
X109120000Y-135634314D03*
D15*
%TO.P,D1,2,A*%
%TO.N,Net-(D1-A)*%
X119280000Y-135634314D03*
%TD*%
D16*
%TO.P,J3,1,Pin_1*%
%TO.N,Net-(J3-Pin_1)*%
X90500000Y-133534314D03*
D13*
%TO.P,J3,2,Pin_2*%
%TO.N,Net-(J3-Pin_2)*%
X93000000Y-133534314D03*
%TD*%
D17*
%TO.P,J5,1,Pin_1*%
%TO.N,Net-(J5-Pin_1)*%
X128000000Y-143534314D03*
D18*
%TO.P,J5,2,Pin_2*%
%TO.N,GND*%
X128000000Y-146034314D03*
%TD*%
D17*
%TO.P,J2,1,Pin_1*%
%TO.N,Net-(J2-Pin_1)*%
X90600000Y-121334314D03*
D18*
%TO.P,J2,2,Pin_2*%
%TO.N,Net-(J2-Pin_2)*%
X90600000Y-123834314D03*
%TD*%
D19*
%TO.P,U4,1,+VIN*%
%TO.N,Net-(J5-Pin_1)*%
X122300000Y-140714314D03*
%TO.P,U4,2,GND*%
%TO.N,GND*%
X122300000Y-148334314D03*
%TO.P,U4,3,+VOUT*%
%TO.N,Net-(D1-A)*%
X109600000Y-140714314D03*
%TO.P,U4,4,GND*%
%TO.N,GND*%
X109600000Y-148334314D03*
%TD*%
D20*
%TO.P,U1,0,GPIO0*%
%TO.N,Net-(U1-GPIO0)*%
X111800000Y-124134314D03*
%TO.P,U1,1,GPIO1*%
%TO.N,Net-(U1-GPIO1)*%
X111800000Y-121594314D03*
%TO.P,U1,2,GPIO2*%
%TO.N,Net-(U1-GPIO2)*%
X111800000Y-119054314D03*
%TO.P,U1,3,GPIO3*%
%TO.N,unconnected-(U1-GPIO3-Pad3)*%
X111800000Y-116514314D03*
%TO.P,U1,3.3,3V3*%
%TO.N,Net-(U1-3V3)*%
X111800000Y-111434314D03*
%TO.P,U1,4,GPIO4*%
%TO.N,unconnected-(U1-GPIO4-Pad4)*%
X111800000Y-113974314D03*
%TO.P,U1,5,GPIO5*%
%TO.N,Net-(U1-GPIO5)*%
X96560000Y-106354314D03*
%TO.P,U1,5V,5V*%
%TO.N,Net-(D1-K)*%
X111800000Y-106354314D03*
%TO.P,U1,6,GPIO6*%
%TO.N,Net-(U1-GPIO6)*%
X96560000Y-108894314D03*
%TO.P,U1,7,GPIO7*%
%TO.N,Net-(U1-GPIO7)*%
X96560000Y-111434314D03*
%TO.P,U1,8,GPIO8*%
%TO.N,unconnected-(U1-GPIO8-Pad8)*%
X96560000Y-113974314D03*
%TO.P,U1,9,GPIO9*%
%TO.N,unconnected-(U1-GPIO9-Pad9)*%
X96560000Y-116514314D03*
%TO.P,U1,10,GPIO10*%
%TO.N,unconnected-(U1-GPIO10-Pad10)*%
X96560000Y-119054314D03*
%TO.P,U1,20,GPIO20*%
%TO.N,Net-(J2-Pin_1)*%
X96560000Y-121594314D03*
%TO.P,U1,21,GPIO21*%
%TO.N,Net-(J2-Pin_2)*%
X96560000Y-124134314D03*
%TO.P,U1,G,GND*%
%TO.N,GND*%
X111800000Y-108894314D03*
%TD*%
D21*
%TO.P,SW1,*%
%TO.N,*%
X104700000Y-149334314D03*
X96500000Y-149334314D03*
D22*
%TO.P,SW1,1,A*%
%TO.N,Net-(J5-Pin_1)*%
X102600000Y-149334314D03*
D23*
%TO.P,SW1,2,B*%
%TO.N,Net-(SW1A-B)*%
X100600000Y-149334314D03*
%TO.P,SW1,3,C*%
%TO.N,unconnected-(SW1A-C-Pad3)*%
X98600000Y-149334314D03*
%TD*%
D24*
%TO.N,GND*%
X107800000Y-108934314D03*
%TD*%
D25*
%TO.N,Net-(U1-GPIO7)*%
X85540000Y-133834314D02*
X87600000Y-133834314D01*
D26*
X96512500Y-112014314D02*
X94100000Y-112014314D01*
D25*
X100160000Y-111594314D02*
X100000000Y-111434314D01*
X100160000Y-125686814D02*
X100160000Y-111594314D01*
X100000000Y-111434314D02*
X96560000Y-111434314D01*
X87600000Y-133834314D02*
X95747500Y-125686814D01*
X95747500Y-125686814D02*
X100160000Y-125686814D01*
X81940000Y-137434314D02*
X85540000Y-133834314D01*
%TO.N,Net-(U1-GPIO2)*%
X103200000Y-140734314D02*
X83720000Y-140734314D01*
X108000000Y-119054314D02*
X103200000Y-123854314D01*
D26*
X109520000Y-118934314D02*
X109720000Y-118734314D01*
D25*
X103200000Y-123854314D02*
X103200000Y-140734314D01*
X111800000Y-119054314D02*
X108000000Y-119054314D01*
X83720000Y-140734314D02*
X79400000Y-145054314D01*
D26*
%TO.N,Net-(U1-GPIO1)*%
X109340000Y-122174314D02*
X109340000Y-122194314D01*
X109340000Y-122194314D02*
X109100000Y-122434314D01*
D25*
X84760000Y-142234314D02*
X104200000Y-142234314D01*
X104200000Y-142234314D02*
X104200000Y-126581814D01*
X81940000Y-145054314D02*
X84760000Y-142234314D01*
X104200000Y-126581814D02*
X109187500Y-121594314D01*
X109187500Y-121594314D02*
X111800000Y-121594314D01*
%TO.N,Net-(U1-GPIO0)*%
X94640000Y-145054314D02*
X96040000Y-143654314D01*
X105500000Y-142934314D02*
X105500000Y-130434314D01*
X105500000Y-130434314D02*
X111800000Y-124134314D01*
X96040000Y-143654314D02*
X104780000Y-143654314D01*
X104780000Y-143654314D02*
X105500000Y-142934314D01*
D26*
%TO.N,Net-(U1-GPIO5)*%
X94100000Y-106934314D02*
X97100000Y-106934314D01*
D25*
X97180000Y-137434314D02*
X102160000Y-132454314D01*
X102160000Y-108154314D02*
X100360000Y-106354314D01*
X102160000Y-132454314D02*
X102160000Y-108154314D01*
X100360000Y-106354314D02*
X96560000Y-106354314D01*
%TO.N,Net-(U1-GPIO6)*%
X100060000Y-108894314D02*
X96560000Y-108894314D01*
X101160000Y-130914314D02*
X101160000Y-109994314D01*
D26*
X94100000Y-109474314D02*
X96512500Y-109474314D01*
D25*
X101160000Y-109994314D02*
X100060000Y-108894314D01*
X94640000Y-137434314D02*
X101160000Y-130914314D01*
D27*
%TO.N,GND*%
X113060000Y-109474314D02*
X113100000Y-109434314D01*
D25*
X111800000Y-108894314D02*
X107840000Y-108894314D01*
X107840000Y-108894314D02*
X107800000Y-108934314D01*
X122300000Y-148234314D02*
X122400000Y-148334314D01*
%TO.N,Net-(J3-Pin_2)*%
X92100000Y-134434314D02*
X93000000Y-133534314D01*
X92100000Y-137434314D02*
X92100000Y-134434314D01*
D26*
%TO.N,Net-(J2-Pin_2)*%
X95970000Y-123804314D02*
X95980000Y-123814314D01*
D25*
X96560000Y-124134314D02*
X90900000Y-124134314D01*
D26*
X95150000Y-123804314D02*
X95160000Y-123814314D01*
D25*
X90900000Y-124134314D02*
X90600000Y-123834314D01*
D26*
%TO.N,Net-(J2-Pin_1)*%
X95150000Y-121264314D02*
X95160000Y-121274314D01*
X95970000Y-121264314D02*
X95980000Y-121274314D01*
D25*
X96560000Y-121594314D02*
X90860000Y-121594314D01*
X90860000Y-121594314D02*
X90600000Y-121334314D01*
X95920000Y-122234314D02*
X96560000Y-121594314D01*
%TO.N,Net-(J3-Pin_1)*%
X85880000Y-136034314D02*
X88000000Y-136034314D01*
X88000000Y-136034314D02*
X90500000Y-133534314D01*
X84480000Y-137434314D02*
X85880000Y-136034314D01*
D27*
%TO.N,Net-(J4-Pin_1)*%
X84800000Y-149734314D02*
X87420000Y-149734314D01*
X87420000Y-149734314D02*
X92100000Y-145054314D01*
D25*
%TO.N,Net-(D1-K)*%
X111800000Y-106354314D02*
X114520000Y-106354314D01*
D27*
X109340000Y-106934314D02*
X113600000Y-106934314D01*
D26*
X109620000Y-105934314D02*
X109720000Y-106034314D01*
D25*
X115800000Y-128034314D02*
X109120000Y-134714314D01*
X114520000Y-106354314D02*
X115800000Y-107634314D01*
X115800000Y-107634314D02*
X115800000Y-128034314D01*
X109120000Y-134714314D02*
X109120000Y-135634314D01*
%TO.N,Net-(J5-Pin_1)*%
X102600000Y-145684314D02*
X110950000Y-145684314D01*
X110950000Y-145684314D02*
X112200000Y-144434314D01*
X125180000Y-140714314D02*
X128000000Y-143534314D01*
X112200000Y-144434314D02*
X118580000Y-144434314D01*
X102600000Y-145684314D02*
X102600000Y-149334314D01*
X122300000Y-140714314D02*
X125180000Y-140714314D01*
X118580000Y-144434314D02*
X122300000Y-140714314D01*
%TO.N,Net-(J4-Pin_2)*%
X82300000Y-149734314D02*
X82300000Y-147234314D01*
X82300000Y-147234314D02*
X84480000Y-145054314D01*
%TO.N,Net-(D1-A)*%
X109600000Y-140714314D02*
X116120000Y-140714314D01*
X116120000Y-140714314D02*
X119280000Y-137554314D01*
X119280000Y-137554314D02*
X119280000Y-135634314D01*
%TO.N,Net-(SW1A-B)*%
X100600000Y-148474314D02*
X100600000Y-149334314D01*
X97180000Y-145054314D02*
X100600000Y-148474314D01*
%TD*%
M02*
