%TF.GenerationSoftware,KiCad,Pcbnew,8.0.8*%
%TF.CreationDate,2025-02-18T09:35:38+01:00*%
%TF.ProjectId,Robot,526f626f-742e-46b6-9963-61645f706362,rev?*%
%TF.SameCoordinates,Original*%
%TF.FileFunction,Copper,L2,Bot*%
%TF.FilePolarity,Positive*%
%FSLAX46Y46*%
G04 Gerber Fmt 4.6, Leading zero omitted, Abs format (unit mm)*
G04 Created by KiCad (PCBNEW 8.0.8) date 2025-02-18 09:35:38*
%MOMM*%
%LPD*%
G01*
G04 APERTURE LIST*
G04 Aperture macros list*
%AMRoundRect*
0 Rectangle with rounded corners*
0 $1 Rounding radius*
0 $2 $3 $4 $5 $6 $7 $8 $9 X,Y pos of 4 corners*
0 Add a 4 corners polygon primitive as box body*
4,1,4,$2,$3,$4,$5,$6,$7,$8,$9,$2,$3,0*
0 Add four circle primitives for the rounded corners*
1,1,$1+$1,$2,$3*
1,1,$1+$1,$4,$5*
1,1,$1+$1,$6,$7*
1,1,$1+$1,$8,$9*
0 Add four rect primitives between the rounded corners*
20,1,$1+$1,$2,$3,$4,$5,0*
20,1,$1+$1,$4,$5,$6,$7,0*
20,1,$1+$1,$6,$7,$8,$9,0*
20,1,$1+$1,$8,$9,$2,$3,0*%
G04 Aperture macros list end*
%TA.AperFunction,ComponentPad*%
%ADD10R,1.600000X1.600000*%
%TD*%
%TA.AperFunction,ComponentPad*%
%ADD11O,1.600000X1.600000*%
%TD*%
%TA.AperFunction,ComponentPad*%
%ADD12RoundRect,0.250000X0.600000X0.750000X-0.600000X0.750000X-0.600000X-0.750000X0.600000X-0.750000X0*%
%TD*%
%TA.AperFunction,ComponentPad*%
%ADD13O,1.700000X2.000000*%
%TD*%
%TA.AperFunction,ComponentPad*%
%ADD14R,2.200000X2.200000*%
%TD*%
%TA.AperFunction,ComponentPad*%
%ADD15O,2.200000X2.200000*%
%TD*%
%TA.AperFunction,ComponentPad*%
%ADD16RoundRect,0.250000X-0.600000X-0.750000X0.600000X-0.750000X0.600000X0.750000X-0.600000X0.750000X0*%
%TD*%
%TA.AperFunction,ComponentPad*%
%ADD17RoundRect,0.250000X-0.750000X0.600000X-0.750000X-0.600000X0.750000X-0.600000X0.750000X0.600000X0*%
%TD*%
%TA.AperFunction,ComponentPad*%
%ADD18O,2.000000X1.700000*%
%TD*%
%TA.AperFunction,ComponentPad*%
%ADD19C,1.524000*%
%TD*%
%TA.AperFunction,ComponentPad*%
%ADD20O,2.200000X3.500000*%
%TD*%
%TA.AperFunction,ComponentPad*%
%ADD21R,1.500000X2.500000*%
%TD*%
%TA.AperFunction,ComponentPad*%
%ADD22O,1.500000X2.500000*%
%TD*%
%TA.AperFunction,ViaPad*%
%ADD23C,0.600000*%
%TD*%
%TA.AperFunction,Conductor*%
%ADD24C,0.800000*%
%TD*%
G04 APERTURE END LIST*
D10*
%TO.P,U2,1,EN1\u002C2*%
%TO.N,Net-(U1-GPIO2)*%
X79400000Y-145054314D03*
D11*
%TO.P,U2,2,1A*%
%TO.N,Net-(U1-GPIO1)*%
X81940000Y-145054314D03*
%TO.P,U2,3,1Y*%
%TO.N,Net-(J4-Pin_2)*%
X84480000Y-145054314D03*
%TO.P,U2,4,GND*%
%TO.N,GND*%
X87020000Y-145054314D03*
%TO.P,U2,5,GND*%
X89560000Y-145054314D03*
%TO.P,U2,6,2Y*%
%TO.N,Net-(J4-Pin_1)*%
X92100000Y-145054314D03*
%TO.P,U2,7,2A*%
%TO.N,Net-(U1-GPIO0)*%
X94640000Y-145054314D03*
%TO.P,U2,8,VCC2*%
%TO.N,Net-(SW1A-B)*%
X97180000Y-145054314D03*
%TO.P,U2,9,EN3\u002C4*%
%TO.N,Net-(U1-GPIO5)*%
X97180000Y-137434314D03*
%TO.P,U2,10,3A*%
%TO.N,Net-(U1-GPIO6)*%
X94640000Y-137434314D03*
%TO.P,U2,11,3Y*%
%TO.N,Net-(J3-Pin_2)*%
X92100000Y-137434314D03*
%TO.P,U2,12,GND*%
%TO.N,unconnected-(U2-GND-Pad12)*%
X89560000Y-137434314D03*
%TO.P,U2,13,GND*%
%TO.N,unconnected-(U2-GND-Pad13)*%
X87020000Y-137434314D03*
%TO.P,U2,14,4Y*%
%TO.N,Net-(J3-Pin_1)*%
X84480000Y-137434314D03*
%TO.P,U2,15,4A*%
%TO.N,Net-(U1-GPIO7)*%
X81940000Y-137434314D03*
%TO.P,U2,16,VCC1*%
%TO.N,Net-(D1-K)*%
X79400000Y-137434314D03*
%TD*%
D12*
%TO.P,J4,1,Pin_1*%
%TO.N,Net-(J4-Pin_1)*%
X84800000Y-149734314D03*
D13*
%TO.P,J4,2,Pin_2*%
%TO.N,Net-(J4-Pin_2)*%
X82300000Y-149734314D03*
%TD*%
D14*
%TO.P,D1,1,K*%
%TO.N,Net-(D1-K)*%
X109120000Y-135634314D03*
D15*
%TO.P,D1,2,A*%
%TO.N,Net-(D1-A)*%
X119280000Y-135634314D03*
%TD*%
D16*
%TO.P,J3,1,Pin_1*%
%TO.N,Net-(J3-Pin_1)*%
X90500000Y-133534314D03*
D13*
%TO.P,J3,2,Pin_2*%
%TO.N,Net-(J3-Pin_2)*%
X93000000Y-133534314D03*
%TD*%
D17*
%TO.P,J5,1,Pin_1*%
%TO.N,Net-(J5-Pin_1)*%
X128000000Y-143534314D03*
D18*
%TO.P,J5,2,Pin_2*%
%TO.N,GND*%
X128000000Y-146034314D03*
%TD*%
D17*
%TO.P,J2,1,Pin_1*%
%TO.N,Net-(J2-Pin_1)*%
X90600000Y-121334314D03*
D18*
%TO.P,J2,2,Pin_2*%
%TO.N,Net-(J2-Pin_2)*%
X90600000Y-123834314D03*
%TD*%
D19*
%TO.P,U4,1,+VIN*%
%TO.N,Net-(J5-Pin_1)*%
X122300000Y-140714314D03*
%TO.P,U4,2,GND*%
%TO.N,GND*%
X122300000Y-148334314D03*
%TO.P,U4,3,+VOUT*%
%TO.N,Net-(D1-A)*%
X109600000Y-140714314D03*
%TO.P,U4,4,GND*%
%TO.N,GND*%
X109600000Y-148334314D03*
%TD*%
D20*
%TO.P,SW1,*%
%TO.N,*%
X104700000Y-149334314D03*
X96500000Y-149334314D03*
D21*
%TO.P,SW1,1,A*%
%TO.N,Net-(J5-Pin_1)*%
X102600000Y-149334314D03*
D22*
%TO.P,SW1,2,B*%
%TO.N,Net-(SW1A-B)*%
X100600000Y-149334314D03*
%TO.P,SW1,3,C*%
%TO.N,unconnected-(SW1A-C-Pad3)*%
X98600000Y-149334314D03*
%TD*%
D23*
%TO.N,GND*%
X107800000Y-108934314D03*
%TD*%
D24*
%TO.N,Net-(D1-K)*%
X81200000Y-135634314D02*
X109120000Y-135634314D01*
X79400000Y-137434314D02*
X81200000Y-135634314D01*
%TD*%
%TA.AperFunction,Conductor*%
%TO.N,GND*%
G36*
X89239920Y-144808708D02*
G01*
X89187259Y-144899920D01*
X89160000Y-145001653D01*
X89160000Y-145106975D01*
X89187259Y-145208708D01*
X89239920Y-145299920D01*
X89244314Y-145304314D01*
X87335686Y-145304314D01*
X87340080Y-145299920D01*
X87392741Y-145208708D01*
X87420000Y-145106975D01*
X87420000Y-145001653D01*
X87392741Y-144899920D01*
X87340080Y-144808708D01*
X87335686Y-144804314D01*
X89244314Y-144804314D01*
X89239920Y-144808708D01*
G37*
%TD.AperFunction*%
%TA.AperFunction,Conductor*%
G36*
X116542539Y-103454499D02*
G01*
X116588294Y-103507303D01*
X116599500Y-103558814D01*
X116599500Y-133004500D01*
X116600000Y-133012130D01*
X116600000Y-133434314D01*
X117022184Y-133434314D01*
X117029813Y-133434814D01*
X117034108Y-133434814D01*
X131475500Y-133434814D01*
X131542539Y-133454499D01*
X131588294Y-133507303D01*
X131599500Y-133558814D01*
X131599500Y-152309814D01*
X131579815Y-152376853D01*
X131527011Y-152422608D01*
X131475500Y-152433814D01*
X72724500Y-152433814D01*
X72657461Y-152414129D01*
X72611706Y-152361325D01*
X72600500Y-152309814D01*
X72600500Y-149478027D01*
X80949500Y-149478027D01*
X80949500Y-149990600D01*
X80982753Y-150200553D01*
X81048444Y-150402728D01*
X81144951Y-150592134D01*
X81269890Y-150764100D01*
X81420213Y-150914423D01*
X81592179Y-151039362D01*
X81592181Y-151039363D01*
X81592184Y-151039365D01*
X81781588Y-151135871D01*
X81983757Y-151201560D01*
X82193713Y-151234814D01*
X82193714Y-151234814D01*
X82406286Y-151234814D01*
X82406287Y-151234814D01*
X82616243Y-151201560D01*
X82818412Y-151135871D01*
X83007816Y-151039365D01*
X83179792Y-150914418D01*
X83318604Y-150775605D01*
X83379923Y-150742123D01*
X83449615Y-150747107D01*
X83505549Y-150788978D01*
X83511821Y-150798192D01*
X83515185Y-150803647D01*
X83515186Y-150803648D01*
X83607288Y-150952970D01*
X83731344Y-151077026D01*
X83880666Y-151169128D01*
X84047203Y-151224313D01*
X84149991Y-151234814D01*
X85450008Y-151234813D01*
X85552797Y-151224313D01*
X85719334Y-151169128D01*
X85868656Y-151077026D01*
X85992712Y-150952970D01*
X86084814Y-150803648D01*
X86139999Y-150637111D01*
X86150500Y-150534323D01*
X86150499Y-148934306D01*
X86139999Y-148831517D01*
X86084814Y-148664980D01*
X86019046Y-148558352D01*
X94899500Y-148558352D01*
X94899500Y-150110275D01*
X94938910Y-150359099D01*
X95016760Y-150598697D01*
X95048999Y-150661968D01*
X95113286Y-150788139D01*
X95131132Y-150823162D01*
X95279201Y-151026963D01*
X95279205Y-151026968D01*
X95457345Y-151205108D01*
X95457350Y-151205112D01*
X95498232Y-151234814D01*
X95661155Y-151353184D01*
X95804184Y-151426061D01*
X95885616Y-151467553D01*
X95885618Y-151467553D01*
X95885621Y-151467555D01*
X96125215Y-151545404D01*
X96374038Y-151584814D01*
X96374039Y-151584814D01*
X96625961Y-151584814D01*
X96625962Y-151584814D01*
X96874785Y-151545404D01*
X97114379Y-151467555D01*
X97338845Y-151353184D01*
X97542656Y-151205107D01*
X97720793Y-151026970D01*
X97784298Y-150939561D01*
X97839628Y-150896895D01*
X97909241Y-150890916D01*
X97940912Y-150901961D01*
X97944593Y-150903836D01*
X97944595Y-150903838D01*
X98014708Y-150939562D01*
X98119970Y-150993196D01*
X98119972Y-150993196D01*
X98119975Y-150993198D01*
X98220317Y-151025801D01*
X98307173Y-151054023D01*
X98501578Y-151084814D01*
X98501583Y-151084814D01*
X98698422Y-151084814D01*
X98892826Y-151054023D01*
X98937938Y-151039365D01*
X99080025Y-150993198D01*
X99255405Y-150903838D01*
X99414646Y-150788142D01*
X99512319Y-150690469D01*
X99573642Y-150656984D01*
X99643334Y-150661968D01*
X99687681Y-150690469D01*
X99785354Y-150788142D01*
X99944595Y-150903838D01*
X100014708Y-150939562D01*
X100119970Y-150993196D01*
X100119972Y-150993196D01*
X100119975Y-150993198D01*
X100220317Y-151025801D01*
X100307173Y-151054023D01*
X100501578Y-151084814D01*
X100501583Y-151084814D01*
X100698422Y-151084814D01*
X100892826Y-151054023D01*
X100937938Y-151039365D01*
X101080025Y-150993198D01*
X101255405Y-150903838D01*
X101291614Y-150877529D01*
X101357417Y-150854050D01*
X101425471Y-150869874D01*
X101463763Y-150903534D01*
X101492454Y-150941860D01*
X101492455Y-150941860D01*
X101492456Y-150941862D01*
X101607664Y-151028107D01*
X101607671Y-151028111D01*
X101742517Y-151078405D01*
X101742516Y-151078405D01*
X101749444Y-151079149D01*
X101802127Y-151084814D01*
X103397872Y-151084813D01*
X103457483Y-151078405D01*
X103457486Y-151078403D01*
X103464554Y-151077644D01*
X103533314Y-151090050D01*
X103565490Y-151113253D01*
X103657345Y-151205108D01*
X103657350Y-151205112D01*
X103698232Y-151234814D01*
X103861155Y-151353184D01*
X104004184Y-151426061D01*
X104085616Y-151467553D01*
X104085618Y-151467553D01*
X104085621Y-151467555D01*
X104325215Y-151545404D01*
X104574038Y-151584814D01*
X104574039Y-151584814D01*
X104825961Y-151584814D01*
X104825962Y-151584814D01*
X105074785Y-151545404D01*
X105314379Y-151467555D01*
X105538845Y-151353184D01*
X105742656Y-151205107D01*
X105920793Y-151026970D01*
X106068870Y-150823159D01*
X106183241Y-150598693D01*
X106261090Y-150359099D01*
X106300500Y-150110276D01*
X106300500Y-148558352D01*
X106265015Y-148334313D01*
X108333179Y-148334313D01*
X108333179Y-148334314D01*
X108352424Y-148554290D01*
X108352426Y-148554300D01*
X108409575Y-148767584D01*
X108409580Y-148767598D01*
X108502898Y-148967719D01*
X108502901Y-148967725D01*
X108548258Y-149032501D01*
X108548258Y-149032502D01*
X109219000Y-148361760D01*
X109219000Y-148384474D01*
X109244964Y-148481375D01*
X109295124Y-148568254D01*
X109366060Y-148639190D01*
X109452939Y-148689350D01*
X109549840Y-148715314D01*
X109572553Y-148715314D01*
X108901810Y-149386054D01*
X108966590Y-149431413D01*
X108966592Y-149431414D01*
X109166715Y-149524733D01*
X109166729Y-149524738D01*
X109380013Y-149581887D01*
X109380023Y-149581889D01*
X109599999Y-149601135D01*
X109600001Y-149601135D01*
X109819976Y-149581889D01*
X109819986Y-149581887D01*
X110033270Y-149524738D01*
X110033284Y-149524733D01*
X110233407Y-149431414D01*
X110233417Y-149431408D01*
X110298188Y-149386055D01*
X109627448Y-148715314D01*
X109650160Y-148715314D01*
X109747061Y-148689350D01*
X109833940Y-148639190D01*
X109904876Y-148568254D01*
X109955036Y-148481375D01*
X109981000Y-148384474D01*
X109981000Y-148361761D01*
X110651741Y-149032502D01*
X110697094Y-148967731D01*
X110697100Y-148967721D01*
X110790419Y-148767598D01*
X110790424Y-148767584D01*
X110847573Y-148554300D01*
X110847575Y-148554290D01*
X110866821Y-148334314D01*
X110866821Y-148334313D01*
X121033179Y-148334313D01*
X121033179Y-148334314D01*
X121052424Y-148554290D01*
X121052426Y-148554300D01*
X121109575Y-148767584D01*
X121109580Y-148767598D01*
X121202898Y-148967719D01*
X121202901Y-148967725D01*
X121248258Y-149032501D01*
X121248258Y-149032502D01*
X121919000Y-148361760D01*
X121919000Y-148384474D01*
X121944964Y-148481375D01*
X121995124Y-148568254D01*
X122066060Y-148639190D01*
X122152939Y-148689350D01*
X122249840Y-148715314D01*
X122272553Y-148715314D01*
X121601810Y-149386054D01*
X121666590Y-149431413D01*
X121666592Y-149431414D01*
X121866715Y-149524733D01*
X121866729Y-149524738D01*
X122080013Y-149581887D01*
X122080023Y-149581889D01*
X122299999Y-149601135D01*
X122300001Y-149601135D01*
X122519976Y-149581889D01*
X122519986Y-149581887D01*
X122733270Y-149524738D01*
X122733284Y-149524733D01*
X122933407Y-149431414D01*
X122933417Y-149431408D01*
X122998188Y-149386055D01*
X122327448Y-148715314D01*
X122350160Y-148715314D01*
X122447061Y-148689350D01*
X122533940Y-148639190D01*
X122604876Y-148568254D01*
X122655036Y-148481375D01*
X122681000Y-148384474D01*
X122681000Y-148361761D01*
X123351741Y-149032502D01*
X123397094Y-148967731D01*
X123397100Y-148967721D01*
X123490419Y-148767598D01*
X123490424Y-148767584D01*
X123547573Y-148554300D01*
X123547575Y-148554290D01*
X123566821Y-148334314D01*
X123566821Y-148334313D01*
X123547575Y-148114337D01*
X123547573Y-148114327D01*
X123490424Y-147901043D01*
X123490420Y-147901034D01*
X123397096Y-147700900D01*
X123351741Y-147636125D01*
X123351740Y-147636124D01*
X122681000Y-148306865D01*
X122681000Y-148284154D01*
X122655036Y-148187253D01*
X122604876Y-148100374D01*
X122533940Y-148029438D01*
X122447061Y-147979278D01*
X122350160Y-147953314D01*
X122327447Y-147953314D01*
X122998188Y-147282572D01*
X122933411Y-147237215D01*
X122933405Y-147237212D01*
X122733284Y-147143894D01*
X122733270Y-147143889D01*
X122519986Y-147086740D01*
X122519976Y-147086738D01*
X122300001Y-147067493D01*
X122299999Y-147067493D01*
X122080023Y-147086738D01*
X122080013Y-147086740D01*
X121866729Y-147143889D01*
X121866720Y-147143893D01*
X121666590Y-147237215D01*
X121601811Y-147282572D01*
X122272554Y-147953314D01*
X122249840Y-147953314D01*
X122152939Y-147979278D01*
X122066060Y-148029438D01*
X121995124Y-148100374D01*
X121944964Y-148187253D01*
X121919000Y-148284154D01*
X121919000Y-148306867D01*
X121248258Y-147636125D01*
X121202901Y-147700904D01*
X121109579Y-147901034D01*
X121109575Y-147901043D01*
X121052426Y-148114327D01*
X121052424Y-148114337D01*
X121033179Y-148334313D01*
X110866821Y-148334313D01*
X110847575Y-148114337D01*
X110847573Y-148114327D01*
X110790424Y-147901043D01*
X110790420Y-147901034D01*
X110697096Y-147700900D01*
X110651741Y-147636125D01*
X110651740Y-147636124D01*
X109981000Y-148306865D01*
X109981000Y-148284154D01*
X109955036Y-148187253D01*
X109904876Y-148100374D01*
X109833940Y-148029438D01*
X109747061Y-147979278D01*
X109650160Y-147953314D01*
X109627447Y-147953314D01*
X110298188Y-147282572D01*
X110233411Y-147237215D01*
X110233405Y-147237212D01*
X110033284Y-147143894D01*
X110033270Y-147143889D01*
X109819986Y-147086740D01*
X109819976Y-147086738D01*
X109600001Y-147067493D01*
X109599999Y-147067493D01*
X109380023Y-147086738D01*
X109380013Y-147086740D01*
X109166729Y-147143889D01*
X109166720Y-147143893D01*
X108966590Y-147237215D01*
X108901811Y-147282572D01*
X109572554Y-147953314D01*
X109549840Y-147953314D01*
X109452939Y-147979278D01*
X109366060Y-148029438D01*
X109295124Y-148100374D01*
X109244964Y-148187253D01*
X109219000Y-148284154D01*
X109219000Y-148306867D01*
X108548258Y-147636125D01*
X108502901Y-147700904D01*
X108409579Y-147901034D01*
X108409575Y-147901043D01*
X108352426Y-148114327D01*
X108352424Y-148114337D01*
X108333179Y-148334313D01*
X106265015Y-148334313D01*
X106261090Y-148309529D01*
X106183241Y-148069935D01*
X106183239Y-148069932D01*
X106183239Y-148069930D01*
X106136479Y-147978159D01*
X106068870Y-147845469D01*
X106020986Y-147779562D01*
X105920798Y-147641664D01*
X105920794Y-147641659D01*
X105742654Y-147463519D01*
X105742649Y-147463515D01*
X105538848Y-147315446D01*
X105538847Y-147315445D01*
X105538845Y-147315444D01*
X105468747Y-147279727D01*
X105314383Y-147201074D01*
X105074785Y-147123224D01*
X104825962Y-147083814D01*
X104574038Y-147083814D01*
X104449626Y-147103519D01*
X104325214Y-147123224D01*
X104085616Y-147201074D01*
X103861151Y-147315446D01*
X103657350Y-147463514D01*
X103565487Y-147555376D01*
X103504163Y-147588860D01*
X103464553Y-147590983D01*
X103455522Y-147590012D01*
X103397873Y-147583814D01*
X103397865Y-147583814D01*
X101802129Y-147583814D01*
X101802123Y-147583815D01*
X101742516Y-147590222D01*
X101607671Y-147640516D01*
X101607664Y-147640520D01*
X101492455Y-147726766D01*
X101463765Y-147765091D01*
X101407830Y-147806962D01*
X101338139Y-147811945D01*
X101291613Y-147791097D01*
X101255405Y-147764790D01*
X101080029Y-147675431D01*
X100892826Y-147614604D01*
X100698422Y-147583814D01*
X100698417Y-147583814D01*
X100501583Y-147583814D01*
X100501578Y-147583814D01*
X100307173Y-147614604D01*
X100119970Y-147675431D01*
X99944594Y-147764790D01*
X99879692Y-147811945D01*
X99785354Y-147880486D01*
X99785352Y-147880488D01*
X99785351Y-147880488D01*
X99687681Y-147978159D01*
X99626358Y-148011644D01*
X99556666Y-148006660D01*
X99512319Y-147978159D01*
X99414648Y-147880488D01*
X99414646Y-147880486D01*
X99255405Y-147764790D01*
X99232825Y-147753285D01*
X99080029Y-147675431D01*
X98892826Y-147614604D01*
X98698422Y-147583814D01*
X98698417Y-147583814D01*
X98501583Y-147583814D01*
X98501578Y-147583814D01*
X98307173Y-147614604D01*
X98119967Y-147675432D01*
X97940911Y-147766666D01*
X97872242Y-147779562D01*
X97807502Y-147753285D01*
X97784299Y-147729066D01*
X97720798Y-147641663D01*
X97542654Y-147463519D01*
X97542649Y-147463515D01*
X97338848Y-147315446D01*
X97338847Y-147315445D01*
X97338845Y-147315444D01*
X97268747Y-147279727D01*
X97114383Y-147201074D01*
X96874785Y-147123224D01*
X96625962Y-147083814D01*
X96374038Y-147083814D01*
X96249626Y-147103519D01*
X96125214Y-147123224D01*
X95885616Y-147201074D01*
X95661151Y-147315446D01*
X95457350Y-147463515D01*
X95457345Y-147463519D01*
X95279205Y-147641659D01*
X95279201Y-147641664D01*
X95131132Y-147845465D01*
X95016760Y-148069930D01*
X94938910Y-148309528D01*
X94899500Y-148558352D01*
X86019046Y-148558352D01*
X85992712Y-148515658D01*
X85868656Y-148391602D01*
X85719334Y-148299500D01*
X85552797Y-148244315D01*
X85552795Y-148244314D01*
X85450010Y-148233814D01*
X84149998Y-148233814D01*
X84149981Y-148233815D01*
X84047203Y-148244314D01*
X84047200Y-148244315D01*
X83880668Y-148299499D01*
X83880663Y-148299501D01*
X83731342Y-148391603D01*
X83607289Y-148515656D01*
X83511821Y-148670435D01*
X83459873Y-148717159D01*
X83390910Y-148728382D01*
X83326828Y-148700538D01*
X83318601Y-148693019D01*
X83179786Y-148554204D01*
X83007820Y-148429265D01*
X82818414Y-148332758D01*
X82818413Y-148332757D01*
X82818412Y-148332757D01*
X82616243Y-148267068D01*
X82616241Y-148267067D01*
X82616240Y-148267067D01*
X82454957Y-148241522D01*
X82406287Y-148233814D01*
X82193713Y-148233814D01*
X82145042Y-148241522D01*
X81983760Y-148267067D01*
X81781585Y-148332758D01*
X81592179Y-148429265D01*
X81420213Y-148554204D01*
X81269890Y-148704527D01*
X81144951Y-148876493D01*
X81048444Y-149065899D01*
X80982753Y-149268074D01*
X80949500Y-149478027D01*
X72600500Y-149478027D01*
X72600500Y-144206449D01*
X78099500Y-144206449D01*
X78099500Y-145902184D01*
X78099501Y-145902190D01*
X78105908Y-145961797D01*
X78156202Y-146096642D01*
X78156206Y-146096649D01*
X78242452Y-146211858D01*
X78242455Y-146211861D01*
X78357664Y-146298107D01*
X78357671Y-146298111D01*
X78492517Y-146348405D01*
X78492516Y-146348405D01*
X78499444Y-146349149D01*
X78552127Y-146354814D01*
X80247872Y-146354813D01*
X80307483Y-146348405D01*
X80442331Y-146298110D01*
X80557546Y-146211860D01*
X80643796Y-146096645D01*
X80694091Y-145961797D01*
X80697862Y-145926715D01*
X80724599Y-145862169D01*
X80781990Y-145822320D01*
X80851816Y-145819825D01*
X80911905Y-145855477D01*
X80922726Y-145868850D01*
X80939956Y-145893457D01*
X81100858Y-146054359D01*
X81100861Y-146054361D01*
X81287266Y-146184882D01*
X81493504Y-146281053D01*
X81713308Y-146339949D01*
X81875230Y-146354115D01*
X81939998Y-146359782D01*
X81940000Y-146359782D01*
X81940002Y-146359782D01*
X81996807Y-146354812D01*
X82166692Y-146339949D01*
X82386496Y-146281053D01*
X82592734Y-146184882D01*
X82779139Y-146054361D01*
X82940047Y-145893453D01*
X83070568Y-145707048D01*
X83097618Y-145649038D01*
X83143790Y-145596599D01*
X83210983Y-145577447D01*
X83277865Y-145597662D01*
X83322382Y-145649039D01*
X83349429Y-145707042D01*
X83349432Y-145707048D01*
X83479954Y-145893455D01*
X83640858Y-146054359D01*
X83640861Y-146054361D01*
X83827266Y-146184882D01*
X84033504Y-146281053D01*
X84253308Y-146339949D01*
X84415230Y-146354115D01*
X84479998Y-146359782D01*
X84480000Y-146359782D01*
X84480002Y-146359782D01*
X84536807Y-146354812D01*
X84706692Y-146339949D01*
X84926496Y-146281053D01*
X85132734Y-146184882D01*
X85319139Y-146054361D01*
X85480047Y-145893453D01*
X85610568Y-145707048D01*
X85637895Y-145648443D01*
X85684064Y-145596009D01*
X85751257Y-145576856D01*
X85818139Y-145597071D01*
X85862657Y-145648447D01*
X85889865Y-145706796D01*
X86020342Y-145893134D01*
X86181179Y-146053971D01*
X86367517Y-146184448D01*
X86573673Y-146280579D01*
X86573682Y-146280583D01*
X86769999Y-146333186D01*
X86770000Y-146333185D01*
X86770000Y-145370000D01*
X86774394Y-145374394D01*
X86865606Y-145427055D01*
X86967339Y-145454314D01*
X87072661Y-145454314D01*
X87174394Y-145427055D01*
X87265606Y-145374394D01*
X87270000Y-145370000D01*
X87270000Y-146333186D01*
X87466317Y-146280583D01*
X87466326Y-146280579D01*
X87672482Y-146184448D01*
X87858820Y-146053971D01*
X88019657Y-145893134D01*
X88150134Y-145706795D01*
X88150135Y-145706793D01*
X88177618Y-145647857D01*
X88223790Y-145595417D01*
X88290983Y-145576265D01*
X88357864Y-145596480D01*
X88402382Y-145647857D01*
X88429864Y-145706793D01*
X88429865Y-145706795D01*
X88560342Y-145893134D01*
X88721179Y-146053971D01*
X88907517Y-146184448D01*
X89113673Y-146280579D01*
X89113682Y-146280583D01*
X89309999Y-146333186D01*
X89310000Y-146333185D01*
X89310000Y-145370000D01*
X89314394Y-145374394D01*
X89405606Y-145427055D01*
X89507339Y-145454314D01*
X89612661Y-145454314D01*
X89714394Y-145427055D01*
X89805606Y-145374394D01*
X89810000Y-145370000D01*
X89810000Y-146333186D01*
X90006317Y-146280583D01*
X90006326Y-146280579D01*
X90212482Y-146184448D01*
X90398820Y-146053971D01*
X90559657Y-145893134D01*
X90690132Y-145706798D01*
X90717341Y-145648448D01*
X90763513Y-145596009D01*
X90830707Y-145576856D01*
X90897588Y-145597071D01*
X90942106Y-145648447D01*
X90969431Y-145707046D01*
X90969432Y-145707048D01*
X91099954Y-145893455D01*
X91260858Y-146054359D01*
X91260861Y-146054361D01*
X91447266Y-146184882D01*
X91653504Y-146281053D01*
X91873308Y-146339949D01*
X92035230Y-146354115D01*
X92099998Y-146359782D01*
X92100000Y-146359782D01*
X92100002Y-146359782D01*
X92156807Y-146354812D01*
X92326692Y-146339949D01*
X92546496Y-146281053D01*
X92752734Y-146184882D01*
X92939139Y-146054361D01*
X93100047Y-145893453D01*
X93230568Y-145707048D01*
X93257618Y-145649038D01*
X93303790Y-145596599D01*
X93370983Y-145577447D01*
X93437865Y-145597662D01*
X93482382Y-145649039D01*
X93509429Y-145707042D01*
X93509432Y-145707048D01*
X93639954Y-145893455D01*
X93800858Y-146054359D01*
X93800861Y-146054361D01*
X93987266Y-146184882D01*
X94193504Y-146281053D01*
X94413308Y-146339949D01*
X94575230Y-146354115D01*
X94639998Y-146359782D01*
X94640000Y-146359782D01*
X94640002Y-146359782D01*
X94696807Y-146354812D01*
X94866692Y-146339949D01*
X95086496Y-146281053D01*
X95292734Y-146184882D01*
X95479139Y-146054361D01*
X95640047Y-145893453D01*
X95770568Y-145707048D01*
X95797618Y-145649038D01*
X95843790Y-145596599D01*
X95910983Y-145577447D01*
X95977865Y-145597662D01*
X96022382Y-145649039D01*
X96049429Y-145707042D01*
X96049432Y-145707048D01*
X96179954Y-145893455D01*
X96340858Y-146054359D01*
X96340861Y-146054361D01*
X96527266Y-146184882D01*
X96733504Y-146281053D01*
X96953308Y-146339949D01*
X97115230Y-146354115D01*
X97179998Y-146359782D01*
X97180000Y-146359782D01*
X97180002Y-146359782D01*
X97236807Y-146354812D01*
X97406692Y-146339949D01*
X97626496Y-146281053D01*
X97832734Y-146184882D01*
X98019139Y-146054361D01*
X98180047Y-145893453D01*
X98310568Y-145707048D01*
X98406739Y-145500810D01*
X98465635Y-145281006D01*
X98485468Y-145054314D01*
X98465635Y-144827622D01*
X98406739Y-144607818D01*
X98310568Y-144401580D01*
X98180047Y-144215175D01*
X98180045Y-144215172D01*
X98019141Y-144054268D01*
X97832734Y-143923746D01*
X97832732Y-143923745D01*
X97626497Y-143827575D01*
X97626488Y-143827572D01*
X97406697Y-143768680D01*
X97406693Y-143768679D01*
X97406692Y-143768679D01*
X97406691Y-143768678D01*
X97406686Y-143768678D01*
X97180002Y-143748846D01*
X97179998Y-143748846D01*
X96953313Y-143768678D01*
X96953302Y-143768680D01*
X96733511Y-143827572D01*
X96733502Y-143827575D01*
X96527267Y-143923745D01*
X96527265Y-143923746D01*
X96340858Y-144054268D01*
X96179954Y-144215172D01*
X96049432Y-144401579D01*
X96049431Y-144401581D01*
X96022382Y-144459589D01*
X95976209Y-144512028D01*
X95909016Y-144531180D01*
X95842135Y-144510964D01*
X95797618Y-144459589D01*
X95770686Y-144401834D01*
X95770568Y-144401580D01*
X95640047Y-144215175D01*
X95640045Y-144215172D01*
X95479141Y-144054268D01*
X95292734Y-143923746D01*
X95292732Y-143923745D01*
X95086497Y-143827575D01*
X95086488Y-143827572D01*
X94866697Y-143768680D01*
X94866693Y-143768679D01*
X94866692Y-143768679D01*
X94866691Y-143768678D01*
X94866686Y-143768678D01*
X94640002Y-143748846D01*
X94639998Y-143748846D01*
X94413313Y-143768678D01*
X94413302Y-143768680D01*
X94193511Y-143827572D01*
X94193502Y-143827575D01*
X93987267Y-143923745D01*
X93987265Y-143923746D01*
X93800858Y-144054268D01*
X93639954Y-144215172D01*
X93509432Y-144401579D01*
X93509431Y-144401581D01*
X93482382Y-144459589D01*
X93436209Y-144512028D01*
X93369016Y-144531180D01*
X93302135Y-144510964D01*
X93257618Y-144459589D01*
X93230686Y-144401834D01*
X93230568Y-144401580D01*
X93100047Y-144215175D01*
X93100045Y-144215172D01*
X92939141Y-144054268D01*
X92752734Y-143923746D01*
X92752732Y-143923745D01*
X92546497Y-143827575D01*
X92546488Y-143827572D01*
X92326697Y-143768680D01*
X92326693Y-143768679D01*
X92326692Y-143768679D01*
X92326691Y-143768678D01*
X92326686Y-143768678D01*
X92100002Y-143748846D01*
X92099998Y-143748846D01*
X91873313Y-143768678D01*
X91873302Y-143768680D01*
X91653511Y-143827572D01*
X91653502Y-143827575D01*
X91447267Y-143923745D01*
X91447265Y-143923746D01*
X91260858Y-144054268D01*
X91099954Y-144215172D01*
X90969433Y-144401578D01*
X90969432Y-144401580D01*
X90969315Y-144401832D01*
X90942106Y-144460181D01*
X90895933Y-144512620D01*
X90828739Y-144531771D01*
X90761858Y-144511555D01*
X90717342Y-144460179D01*
X90690135Y-144401834D01*
X90690134Y-144401832D01*
X90559657Y-144215493D01*
X90398820Y-144054656D01*
X90212482Y-143924179D01*
X90006328Y-143828048D01*
X89810000Y-143775441D01*
X89810000Y-144738628D01*
X89805606Y-144734234D01*
X89714394Y-144681573D01*
X89612661Y-144654314D01*
X89507339Y-144654314D01*
X89405606Y-144681573D01*
X89314394Y-144734234D01*
X89310000Y-144738628D01*
X89310000Y-143775441D01*
X89113671Y-143828048D01*
X88907517Y-143924179D01*
X88721179Y-144054656D01*
X88560342Y-144215493D01*
X88429865Y-144401831D01*
X88402382Y-144460771D01*
X88356210Y-144513210D01*
X88289016Y-144532362D01*
X88222135Y-144512146D01*
X88177618Y-144460771D01*
X88150134Y-144401831D01*
X88019657Y-144215493D01*
X87858820Y-144054656D01*
X87672482Y-143924179D01*
X87466328Y-143828048D01*
X87270000Y-143775441D01*
X87270000Y-144738628D01*
X87265606Y-144734234D01*
X87174394Y-144681573D01*
X87072661Y-144654314D01*
X86967339Y-144654314D01*
X86865606Y-144681573D01*
X86774394Y-144734234D01*
X86770000Y-144738628D01*
X86770000Y-143775441D01*
X86573671Y-143828048D01*
X86367517Y-143924179D01*
X86181179Y-144054656D01*
X86020342Y-144215493D01*
X85889867Y-144401829D01*
X85862657Y-144460181D01*
X85816484Y-144512620D01*
X85749290Y-144531771D01*
X85682409Y-144511555D01*
X85637893Y-144460179D01*
X85634848Y-144453650D01*
X85610568Y-144401580D01*
X85480047Y-144215175D01*
X85480045Y-144215172D01*
X85319141Y-144054268D01*
X85132734Y-143923746D01*
X85132732Y-143923745D01*
X84926497Y-143827575D01*
X84926488Y-143827572D01*
X84706697Y-143768680D01*
X84706693Y-143768679D01*
X84706692Y-143768679D01*
X84706691Y-143768678D01*
X84706686Y-143768678D01*
X84480002Y-143748846D01*
X84479998Y-143748846D01*
X84253313Y-143768678D01*
X84253302Y-143768680D01*
X84033511Y-143827572D01*
X84033502Y-143827575D01*
X83827267Y-143923745D01*
X83827265Y-143923746D01*
X83640858Y-144054268D01*
X83479954Y-144215172D01*
X83349432Y-144401579D01*
X83349431Y-144401581D01*
X83322382Y-144459589D01*
X83276209Y-144512028D01*
X83209016Y-144531180D01*
X83142135Y-144510964D01*
X83097618Y-144459589D01*
X83070686Y-144401834D01*
X83070568Y-144401580D01*
X82940047Y-144215175D01*
X82940045Y-144215172D01*
X82779141Y-144054268D01*
X82592734Y-143923746D01*
X82592732Y-143923745D01*
X82386497Y-143827575D01*
X82386488Y-143827572D01*
X82166697Y-143768680D01*
X82166693Y-143768679D01*
X82166692Y-143768679D01*
X82166691Y-143768678D01*
X82166686Y-143768678D01*
X81940002Y-143748846D01*
X81939998Y-143748846D01*
X81713313Y-143768678D01*
X81713302Y-143768680D01*
X81493511Y-143827572D01*
X81493502Y-143827575D01*
X81287267Y-143923745D01*
X81287265Y-143923746D01*
X81100858Y-144054268D01*
X80939954Y-144215172D01*
X80922725Y-144239778D01*
X80868147Y-144283402D01*
X80798648Y-144290594D01*
X80736294Y-144259071D01*
X80700882Y-144198840D01*
X80697861Y-144181905D01*
X80694091Y-144146830D01*
X80643797Y-144011985D01*
X80643793Y-144011978D01*
X80557547Y-143896769D01*
X80557544Y-143896766D01*
X80442335Y-143810520D01*
X80442328Y-143810516D01*
X80307482Y-143760222D01*
X80307483Y-143760222D01*
X80247883Y-143753815D01*
X80247881Y-143753814D01*
X80247873Y-143753814D01*
X80247864Y-143753814D01*
X78552129Y-143753814D01*
X78552123Y-143753815D01*
X78492516Y-143760222D01*
X78357671Y-143810516D01*
X78357664Y-143810520D01*
X78242455Y-143896766D01*
X78242452Y-143896769D01*
X78156206Y-144011978D01*
X78156202Y-144011985D01*
X78105908Y-144146831D01*
X78099501Y-144206430D01*
X78099500Y-144206449D01*
X72600500Y-144206449D01*
X72600500Y-142884297D01*
X126499500Y-142884297D01*
X126499500Y-144184315D01*
X126499501Y-144184332D01*
X126510000Y-144287110D01*
X126510001Y-144287113D01*
X126565185Y-144453645D01*
X126565187Y-144453650D01*
X126569579Y-144460771D01*
X126657288Y-144602970D01*
X126781344Y-144727026D01*
X126913772Y-144808708D01*
X126936558Y-144822762D01*
X126983283Y-144874710D01*
X126994506Y-144943672D01*
X126966663Y-145007755D01*
X126959144Y-145015982D01*
X126820271Y-145154855D01*
X126695379Y-145326756D01*
X126598904Y-145516096D01*
X126533242Y-145718184D01*
X126533242Y-145718187D01*
X126522769Y-145784314D01*
X127566988Y-145784314D01*
X127534075Y-145841321D01*
X127500000Y-145968488D01*
X127500000Y-146100140D01*
X127534075Y-146227307D01*
X127566988Y-146284314D01*
X126522769Y-146284314D01*
X126533242Y-146350440D01*
X126533242Y-146350443D01*
X126598904Y-146552531D01*
X126695379Y-146741871D01*
X126820272Y-146913773D01*
X126820276Y-146913778D01*
X126970535Y-147064037D01*
X126970540Y-147064041D01*
X127142442Y-147188934D01*
X127331782Y-147285409D01*
X127533870Y-147351071D01*
X127743754Y-147384314D01*
X127750000Y-147384314D01*
X127750000Y-146467326D01*
X127807007Y-146500239D01*
X127934174Y-146534314D01*
X128065826Y-146534314D01*
X128192993Y-146500239D01*
X128250000Y-146467326D01*
X128250000Y-147384314D01*
X128256246Y-147384314D01*
X128466127Y-147351071D01*
X128466130Y-147351071D01*
X128668217Y-147285409D01*
X128857557Y-147188934D01*
X129029459Y-147064041D01*
X129029464Y-147064037D01*
X129179723Y-146913778D01*
X129179727Y-146913773D01*
X129304620Y-146741871D01*
X129401095Y-146552531D01*
X129466757Y-146350443D01*
X129466757Y-146350440D01*
X129477231Y-146284314D01*
X128433012Y-146284314D01*
X128465925Y-146227307D01*
X128500000Y-146100140D01*
X128500000Y-145968488D01*
X128465925Y-145841321D01*
X128433012Y-145784314D01*
X129477231Y-145784314D01*
X129466757Y-145718187D01*
X129466757Y-145718184D01*
X129401095Y-145516096D01*
X129304620Y-145326756D01*
X129179727Y-145154854D01*
X129179723Y-145154849D01*
X129040856Y-145015982D01*
X129007371Y-144954659D01*
X129012355Y-144884967D01*
X129054227Y-144829034D01*
X129063441Y-144822762D01*
X129069331Y-144819128D01*
X129069334Y-144819128D01*
X129218656Y-144727026D01*
X129342712Y-144602970D01*
X129434814Y-144453648D01*
X129489999Y-144287111D01*
X129500500Y-144184323D01*
X129500499Y-142884306D01*
X129489999Y-142781517D01*
X129434814Y-142614980D01*
X129342712Y-142465658D01*
X129218656Y-142341602D01*
X129069334Y-142249500D01*
X128902797Y-142194315D01*
X128902795Y-142194314D01*
X128800010Y-142183814D01*
X127199998Y-142183814D01*
X127199981Y-142183815D01*
X127097203Y-142194314D01*
X127097200Y-142194315D01*
X126930668Y-142249499D01*
X126930663Y-142249501D01*
X126781342Y-142341603D01*
X126657289Y-142465656D01*
X126565187Y-142614977D01*
X126565186Y-142614980D01*
X126510001Y-142781517D01*
X126510001Y-142781518D01*
X126510000Y-142781518D01*
X126499500Y-142884297D01*
X72600500Y-142884297D01*
X72600500Y-140714311D01*
X108332677Y-140714311D01*
X108332677Y-140714316D01*
X108351929Y-140934376D01*
X108351930Y-140934384D01*
X108409104Y-141147759D01*
X108409105Y-141147761D01*
X108409106Y-141147764D01*
X108502466Y-141347976D01*
X108502468Y-141347980D01*
X108629170Y-141528929D01*
X108629175Y-141528935D01*
X108785378Y-141685138D01*
X108785384Y-141685143D01*
X108966333Y-141811845D01*
X108966335Y-141811846D01*
X108966338Y-141811848D01*
X109166550Y-141905208D01*
X109379932Y-141962384D01*
X109537123Y-141976136D01*
X109599998Y-141981637D01*
X109600000Y-141981637D01*
X109600002Y-141981637D01*
X109655017Y-141976823D01*
X109820068Y-141962384D01*
X110033450Y-141905208D01*
X110233662Y-141811848D01*
X110414620Y-141685140D01*
X110570826Y-141528934D01*
X110697534Y-141347976D01*
X110790894Y-141147764D01*
X110848070Y-140934382D01*
X110867323Y-140714314D01*
X110867323Y-140714311D01*
X121032677Y-140714311D01*
X121032677Y-140714316D01*
X121051929Y-140934376D01*
X121051930Y-140934384D01*
X121109104Y-141147759D01*
X121109105Y-141147761D01*
X121109106Y-141147764D01*
X121202466Y-141347976D01*
X121202468Y-141347980D01*
X121329170Y-141528929D01*
X121329175Y-141528935D01*
X121485378Y-141685138D01*
X121485384Y-141685143D01*
X121666333Y-141811845D01*
X121666335Y-141811846D01*
X121666338Y-141811848D01*
X121866550Y-141905208D01*
X122079932Y-141962384D01*
X122237123Y-141976136D01*
X122299998Y-141981637D01*
X122300000Y-141981637D01*
X122300002Y-141981637D01*
X122355017Y-141976823D01*
X122520068Y-141962384D01*
X122733450Y-141905208D01*
X122933662Y-141811848D01*
X123114620Y-141685140D01*
X123270826Y-141528934D01*
X123397534Y-141347976D01*
X123490894Y-141147764D01*
X123548070Y-140934382D01*
X123567323Y-140714314D01*
X123548070Y-140494246D01*
X123490894Y-140280864D01*
X123397534Y-140080653D01*
X123270826Y-139899694D01*
X123114620Y-139743488D01*
X123114616Y-139743485D01*
X123114615Y-139743484D01*
X122933666Y-139616782D01*
X122933662Y-139616780D01*
X122933660Y-139616779D01*
X122733450Y-139523420D01*
X122733447Y-139523419D01*
X122733445Y-139523418D01*
X122520070Y-139466244D01*
X122520062Y-139466243D01*
X122300002Y-139446991D01*
X122299998Y-139446991D01*
X122079937Y-139466243D01*
X122079929Y-139466244D01*
X121866554Y-139523418D01*
X121866548Y-139523421D01*
X121666340Y-139616779D01*
X121666338Y-139616780D01*
X121485377Y-139743489D01*
X121329175Y-139899691D01*
X121202466Y-140080652D01*
X121202465Y-140080654D01*
X121109107Y-140280862D01*
X121109104Y-140280868D01*
X121051930Y-140494243D01*
X121051929Y-140494251D01*
X121032677Y-140714311D01*
X110867323Y-140714311D01*
X110848070Y-140494246D01*
X110790894Y-140280864D01*
X110697534Y-140080653D01*
X110570826Y-139899694D01*
X110414620Y-139743488D01*
X110414616Y-139743485D01*
X110414615Y-139743484D01*
X110233666Y-139616782D01*
X110233662Y-139616780D01*
X110233660Y-139616779D01*
X110033450Y-139523420D01*
X110033447Y-139523419D01*
X110033445Y-139523418D01*
X109820070Y-139466244D01*
X109820062Y-139466243D01*
X109600002Y-139446991D01*
X109599998Y-139446991D01*
X109379937Y-139466243D01*
X109379929Y-139466244D01*
X109166554Y-139523418D01*
X109166548Y-139523421D01*
X108966340Y-139616779D01*
X108966338Y-139616780D01*
X108785377Y-139743489D01*
X108629175Y-139899691D01*
X108502466Y-140080652D01*
X108502465Y-140080654D01*
X108409107Y-140280862D01*
X108409104Y-140280868D01*
X108351930Y-140494243D01*
X108351929Y-140494251D01*
X108332677Y-140714311D01*
X72600500Y-140714311D01*
X72600500Y-137434312D01*
X78094532Y-137434312D01*
X78094532Y-137434315D01*
X78114364Y-137661000D01*
X78114366Y-137661011D01*
X78173258Y-137880802D01*
X78173261Y-137880811D01*
X78269431Y-138087046D01*
X78269432Y-138087048D01*
X78399954Y-138273455D01*
X78560858Y-138434359D01*
X78560861Y-138434361D01*
X78747266Y-138564882D01*
X78953504Y-138661053D01*
X79173308Y-138719949D01*
X79335230Y-138734115D01*
X79399998Y-138739782D01*
X79400000Y-138739782D01*
X79400002Y-138739782D01*
X79456673Y-138734823D01*
X79626692Y-138719949D01*
X79846496Y-138661053D01*
X80052734Y-138564882D01*
X80239139Y-138434361D01*
X80400047Y-138273453D01*
X80530568Y-138087048D01*
X80557618Y-138029038D01*
X80603790Y-137976599D01*
X80670983Y-137957447D01*
X80737865Y-137977662D01*
X80782382Y-138029039D01*
X80809429Y-138087042D01*
X80809432Y-138087048D01*
X80939954Y-138273455D01*
X81100858Y-138434359D01*
X81100861Y-138434361D01*
X81287266Y-138564882D01*
X81493504Y-138661053D01*
X81713308Y-138719949D01*
X81875230Y-138734115D01*
X81939998Y-138739782D01*
X81940000Y-138739782D01*
X81940002Y-138739782D01*
X81996673Y-138734823D01*
X82166692Y-138719949D01*
X82386496Y-138661053D01*
X82592734Y-138564882D01*
X82779139Y-138434361D01*
X82940047Y-138273453D01*
X83070568Y-138087048D01*
X83097618Y-138029038D01*
X83143790Y-137976599D01*
X83210983Y-137957447D01*
X83277865Y-137977662D01*
X83322382Y-138029039D01*
X83349429Y-138087042D01*
X83349432Y-138087048D01*
X83479954Y-138273455D01*
X83640858Y-138434359D01*
X83640861Y-138434361D01*
X83827266Y-138564882D01*
X84033504Y-138661053D01*
X84253308Y-138719949D01*
X84415230Y-138734115D01*
X84479998Y-138739782D01*
X84480000Y-138739782D01*
X84480002Y-138739782D01*
X84536673Y-138734823D01*
X84706692Y-138719949D01*
X84926496Y-138661053D01*
X85132734Y-138564882D01*
X85319139Y-138434361D01*
X85480047Y-138273453D01*
X85610568Y-138087048D01*
X85637618Y-138029038D01*
X85683790Y-137976599D01*
X85750983Y-137957447D01*
X85817865Y-137977662D01*
X85862382Y-138029039D01*
X85889429Y-138087042D01*
X85889432Y-138087048D01*
X86019954Y-138273455D01*
X86180858Y-138434359D01*
X86180861Y-138434361D01*
X86367266Y-138564882D01*
X86573504Y-138661053D01*
X86793308Y-138719949D01*
X86955230Y-138734115D01*
X87019998Y-138739782D01*
X87020000Y-138739782D01*
X87020002Y-138739782D01*
X87076673Y-138734823D01*
X87246692Y-138719949D01*
X87466496Y-138661053D01*
X87672734Y-138564882D01*
X87859139Y-138434361D01*
X88020047Y-138273453D01*
X88150568Y-138087048D01*
X88177618Y-138029038D01*
X88223790Y-137976599D01*
X88290983Y-137957447D01*
X88357865Y-137977662D01*
X88402382Y-138029039D01*
X88429429Y-138087042D01*
X88429432Y-138087048D01*
X88559954Y-138273455D01*
X88720858Y-138434359D01*
X88720861Y-138434361D01*
X88907266Y-138564882D01*
X89113504Y-138661053D01*
X89333308Y-138719949D01*
X89495230Y-138734115D01*
X89559998Y-138739782D01*
X89560000Y-138739782D01*
X89560002Y-138739782D01*
X89616673Y-138734823D01*
X89786692Y-138719949D01*
X90006496Y-138661053D01*
X90212734Y-138564882D01*
X90399139Y-138434361D01*
X90560047Y-138273453D01*
X90690568Y-138087048D01*
X90717618Y-138029038D01*
X90763790Y-137976599D01*
X90830983Y-137957447D01*
X90897865Y-137977662D01*
X90942382Y-138029039D01*
X90969429Y-138087042D01*
X90969432Y-138087048D01*
X91099954Y-138273455D01*
X91260858Y-138434359D01*
X91260861Y-138434361D01*
X91447266Y-138564882D01*
X91653504Y-138661053D01*
X91873308Y-138719949D01*
X92035230Y-138734115D01*
X92099998Y-138739782D01*
X92100000Y-138739782D01*
X92100002Y-138739782D01*
X92156673Y-138734823D01*
X92326692Y-138719949D01*
X92546496Y-138661053D01*
X92752734Y-138564882D01*
X92939139Y-138434361D01*
X93100047Y-138273453D01*
X93230568Y-138087048D01*
X93257618Y-138029038D01*
X93303790Y-137976599D01*
X93370983Y-137957447D01*
X93437865Y-137977662D01*
X93482382Y-138029039D01*
X93509429Y-138087042D01*
X93509432Y-138087048D01*
X93639954Y-138273455D01*
X93800858Y-138434359D01*
X93800861Y-138434361D01*
X93987266Y-138564882D01*
X94193504Y-138661053D01*
X94413308Y-138719949D01*
X94575230Y-138734115D01*
X94639998Y-138739782D01*
X94640000Y-138739782D01*
X94640002Y-138739782D01*
X94696673Y-138734823D01*
X94866692Y-138719949D01*
X95086496Y-138661053D01*
X95292734Y-138564882D01*
X95479139Y-138434361D01*
X95640047Y-138273453D01*
X95770568Y-138087048D01*
X95797618Y-138029038D01*
X95843790Y-137976599D01*
X95910983Y-137957447D01*
X95977865Y-137977662D01*
X96022382Y-138029039D01*
X96049429Y-138087042D01*
X96049432Y-138087048D01*
X96179954Y-138273455D01*
X96340858Y-138434359D01*
X96340861Y-138434361D01*
X96527266Y-138564882D01*
X96733504Y-138661053D01*
X96953308Y-138719949D01*
X97115230Y-138734115D01*
X97179998Y-138739782D01*
X97180000Y-138739782D01*
X97180002Y-138739782D01*
X97236673Y-138734823D01*
X97406692Y-138719949D01*
X97626496Y-138661053D01*
X97832734Y-138564882D01*
X98019139Y-138434361D01*
X98180047Y-138273453D01*
X98310568Y-138087048D01*
X98406739Y-137880810D01*
X98465635Y-137661006D01*
X98485468Y-137434314D01*
X98465635Y-137207622D01*
X98406739Y-136987818D01*
X98310568Y-136781580D01*
X98274406Y-136729935D01*
X98252080Y-136663731D01*
X98269090Y-136595964D01*
X98320038Y-136548151D01*
X98375982Y-136534814D01*
X107395501Y-136534814D01*
X107462540Y-136554499D01*
X107508295Y-136607303D01*
X107519501Y-136658814D01*
X107519501Y-136782190D01*
X107525908Y-136841797D01*
X107576202Y-136976642D01*
X107576206Y-136976649D01*
X107662452Y-137091858D01*
X107662455Y-137091861D01*
X107777664Y-137178107D01*
X107777671Y-137178111D01*
X107912517Y-137228405D01*
X107912516Y-137228405D01*
X107919444Y-137229149D01*
X107972127Y-137234814D01*
X110267872Y-137234813D01*
X110327483Y-137228405D01*
X110462331Y-137178110D01*
X110577546Y-137091860D01*
X110663796Y-136976645D01*
X110714091Y-136841797D01*
X110720500Y-136782187D01*
X110720499Y-135634314D01*
X117674551Y-135634314D01*
X117694317Y-135885465D01*
X117753126Y-136130424D01*
X117849533Y-136363173D01*
X117981160Y-136577967D01*
X117981161Y-136577970D01*
X118006214Y-136607303D01*
X118144776Y-136769538D01*
X118293066Y-136896189D01*
X118336343Y-136933152D01*
X118336346Y-136933153D01*
X118551140Y-137064780D01*
X118755121Y-137149271D01*
X118783889Y-137161187D01*
X119028852Y-137219997D01*
X119280000Y-137239763D01*
X119531148Y-137219997D01*
X119776111Y-137161187D01*
X120008859Y-137064780D01*
X120223659Y-136933150D01*
X120415224Y-136769538D01*
X120578836Y-136577973D01*
X120710466Y-136363173D01*
X120806873Y-136130425D01*
X120865683Y-135885462D01*
X120885449Y-135634314D01*
X120865683Y-135383166D01*
X120806873Y-135138203D01*
X120710466Y-134905454D01*
X120578839Y-134690660D01*
X120578838Y-134690657D01*
X120494719Y-134592167D01*
X120415224Y-134499090D01*
X120288571Y-134390918D01*
X120223656Y-134335475D01*
X120223653Y-134335474D01*
X120008859Y-134203847D01*
X119776110Y-134107440D01*
X119531151Y-134048631D01*
X119280000Y-134028865D01*
X119028848Y-134048631D01*
X118783889Y-134107440D01*
X118551140Y-134203847D01*
X118336346Y-134335474D01*
X118336343Y-134335475D01*
X118144776Y-134499090D01*
X117981161Y-134690657D01*
X117981160Y-134690660D01*
X117849533Y-134905454D01*
X117753126Y-135138203D01*
X117694317Y-135383162D01*
X117674551Y-135634314D01*
X110720499Y-135634314D01*
X110720499Y-134486442D01*
X110714091Y-134426831D01*
X110701149Y-134392133D01*
X110663797Y-134291985D01*
X110663793Y-134291978D01*
X110577547Y-134176769D01*
X110577544Y-134176766D01*
X110462335Y-134090520D01*
X110462328Y-134090516D01*
X110327482Y-134040222D01*
X110327483Y-134040222D01*
X110267883Y-134033815D01*
X110267881Y-134033814D01*
X110267873Y-134033814D01*
X110267864Y-134033814D01*
X107972129Y-134033814D01*
X107972123Y-134033815D01*
X107912516Y-134040222D01*
X107777671Y-134090516D01*
X107777664Y-134090520D01*
X107662455Y-134176766D01*
X107662452Y-134176769D01*
X107576206Y-134291978D01*
X107576202Y-134291985D01*
X107525908Y-134426831D01*
X107519501Y-134486430D01*
X107519501Y-134486437D01*
X107519500Y-134486449D01*
X107519500Y-134609814D01*
X107499815Y-134676853D01*
X107447011Y-134722608D01*
X107395500Y-134733814D01*
X94150168Y-134733814D01*
X94083129Y-134714129D01*
X94037374Y-134661325D01*
X94027430Y-134592167D01*
X94049850Y-134536929D01*
X94104661Y-134461485D01*
X94155051Y-134392130D01*
X94251557Y-134202726D01*
X94317246Y-134000557D01*
X94350500Y-133790601D01*
X94350500Y-133278027D01*
X94317246Y-133068071D01*
X94251557Y-132865902D01*
X94155051Y-132676498D01*
X94155049Y-132676495D01*
X94155048Y-132676493D01*
X94030109Y-132504527D01*
X93879786Y-132354204D01*
X93707820Y-132229265D01*
X93518414Y-132132758D01*
X93518413Y-132132757D01*
X93518412Y-132132757D01*
X93316243Y-132067068D01*
X93316241Y-132067067D01*
X93316240Y-132067067D01*
X93154957Y-132041522D01*
X93106287Y-132033814D01*
X92893713Y-132033814D01*
X92845042Y-132041522D01*
X92683760Y-132067067D01*
X92481585Y-132132758D01*
X92292179Y-132229265D01*
X92120215Y-132354203D01*
X91981398Y-132493020D01*
X91920075Y-132526504D01*
X91850383Y-132521520D01*
X91794450Y-132479648D01*
X91788178Y-132470434D01*
X91692712Y-132315658D01*
X91568657Y-132191603D01*
X91568656Y-132191602D01*
X91419334Y-132099500D01*
X91252797Y-132044315D01*
X91252795Y-132044314D01*
X91150010Y-132033814D01*
X89849998Y-132033814D01*
X89849981Y-132033815D01*
X89747203Y-132044314D01*
X89747200Y-132044315D01*
X89580668Y-132099499D01*
X89580663Y-132099501D01*
X89431342Y-132191603D01*
X89307289Y-132315656D01*
X89215187Y-132464977D01*
X89215185Y-132464982D01*
X89210325Y-132479648D01*
X89160001Y-132631517D01*
X89160001Y-132631518D01*
X89160000Y-132631518D01*
X89149500Y-132734297D01*
X89149500Y-134334315D01*
X89149501Y-134334332D01*
X89160000Y-134437110D01*
X89176344Y-134486430D01*
X89204305Y-134570811D01*
X89206707Y-134640638D01*
X89170976Y-134700680D01*
X89108455Y-134731873D01*
X89086599Y-134733814D01*
X81111306Y-134733814D01*
X80937341Y-134768417D01*
X80937332Y-134768420D01*
X80773459Y-134836297D01*
X80773446Y-134836304D01*
X80625966Y-134934848D01*
X80625964Y-134934851D01*
X79466945Y-136093867D01*
X79405622Y-136127352D01*
X79390072Y-136129714D01*
X79173312Y-136148678D01*
X79173302Y-136148680D01*
X78953511Y-136207572D01*
X78953502Y-136207575D01*
X78747267Y-136303745D01*
X78747265Y-136303746D01*
X78560858Y-136434268D01*
X78399954Y-136595172D01*
X78269432Y-136781579D01*
X78269431Y-136781581D01*
X78173261Y-136987816D01*
X78173258Y-136987825D01*
X78114366Y-137207616D01*
X78114364Y-137207627D01*
X78094532Y-137434312D01*
X72600500Y-137434312D01*
X72600500Y-133558814D01*
X72620185Y-133491775D01*
X72672989Y-133446020D01*
X72724500Y-133434814D01*
X87170187Y-133434814D01*
X87177816Y-133434314D01*
X87600000Y-133434314D01*
X87600000Y-133012130D01*
X87600500Y-133004500D01*
X87600500Y-120684297D01*
X89099500Y-120684297D01*
X89099500Y-121984315D01*
X89099501Y-121984332D01*
X89110000Y-122087110D01*
X89110001Y-122087113D01*
X89165185Y-122253645D01*
X89165187Y-122253650D01*
X89257289Y-122402971D01*
X89381344Y-122527026D01*
X89536120Y-122622492D01*
X89582845Y-122674440D01*
X89594068Y-122743402D01*
X89566224Y-122807485D01*
X89558706Y-122815712D01*
X89419889Y-122954529D01*
X89294951Y-123126493D01*
X89198444Y-123315899D01*
X89132753Y-123518074D01*
X89099500Y-123728027D01*
X89099500Y-123940600D01*
X89132753Y-124150553D01*
X89198444Y-124352728D01*
X89294951Y-124542134D01*
X89419890Y-124714100D01*
X89570213Y-124864423D01*
X89742179Y-124989362D01*
X89742181Y-124989363D01*
X89742184Y-124989365D01*
X89931588Y-125085871D01*
X90133757Y-125151560D01*
X90343713Y-125184814D01*
X90343714Y-125184814D01*
X90856286Y-125184814D01*
X90856287Y-125184814D01*
X91066243Y-125151560D01*
X91268412Y-125085871D01*
X91457816Y-124989365D01*
X91479789Y-124973400D01*
X91629786Y-124864423D01*
X91629788Y-124864420D01*
X91629792Y-124864418D01*
X91780104Y-124714106D01*
X91780106Y-124714102D01*
X91780109Y-124714100D01*
X91905048Y-124542134D01*
X91905047Y-124542134D01*
X91905051Y-124542130D01*
X92001557Y-124352726D01*
X92067246Y-124150557D01*
X92100500Y-123940601D01*
X92100500Y-123728027D01*
X92067246Y-123518071D01*
X92001557Y-123315902D01*
X91905051Y-123126498D01*
X91905049Y-123126495D01*
X91905048Y-123126493D01*
X91780109Y-122954527D01*
X91641294Y-122815712D01*
X91607809Y-122754389D01*
X91612793Y-122684697D01*
X91654665Y-122628764D01*
X91663879Y-122622492D01*
X91669331Y-122619128D01*
X91669334Y-122619128D01*
X91818656Y-122527026D01*
X91942712Y-122402970D01*
X92034814Y-122253648D01*
X92089999Y-122087111D01*
X92100500Y-121984323D01*
X92100499Y-120684306D01*
X92089999Y-120581517D01*
X92034814Y-120414980D01*
X91942712Y-120265658D01*
X91818656Y-120141602D01*
X91669334Y-120049500D01*
X91502797Y-119994315D01*
X91502795Y-119994314D01*
X91400010Y-119983814D01*
X89799998Y-119983814D01*
X89799981Y-119983815D01*
X89697203Y-119994314D01*
X89697200Y-119994315D01*
X89530668Y-120049499D01*
X89530663Y-120049501D01*
X89381342Y-120141603D01*
X89257289Y-120265656D01*
X89165187Y-120414977D01*
X89165186Y-120414980D01*
X89110001Y-120581517D01*
X89110001Y-120581518D01*
X89110000Y-120581518D01*
X89099500Y-120684297D01*
X87600500Y-120684297D01*
X87600500Y-103558814D01*
X87620185Y-103491775D01*
X87672989Y-103446020D01*
X87724500Y-103434814D01*
X116475500Y-103434814D01*
X116542539Y-103454499D01*
G37*
%TD.AperFunction*%
%TD*%
M02*
