%TF.GenerationSoftware,KiCad,Pcbnew,8.0.8*%
%TF.CreationDate,2025-02-18T09:35:49+01:00*%
%TF.ProjectId,Robot,526f626f-742e-46b6-9963-61645f706362,rev?*%
%TF.SameCoordinates,Original*%
%TF.FileFunction,Drillmap*%
%TF.FilePolarity,Positive*%
%FSLAX45Y45*%
G04 Gerber Fmt 4.5, Leading zero omitted, Abs format (unit mm)*
G04 Created by KiCad (PCBNEW 8.0.8) date 2025-02-18 09:35:49*
%MOMM*%
%LPD*%
G01*
G04 APERTURE LIST*
%ADD10C,0.050000*%
%ADD11C,0.200000*%
%ADD12C,0.100000*%
%ADD13C,0.110000*%
%ADD14C,0.150000*%
G04 APERTURE END LIST*
D10*
X11710000Y-10293431D02*
X11710000Y-13293431D01*
X8710000Y-10293431D02*
X11710000Y-10293431D01*
X8710000Y-13293431D02*
X8710000Y-10293431D01*
X7210000Y-13293431D02*
X8710000Y-13293431D01*
X11710000Y-13293431D02*
X13210000Y-13293431D01*
X13210000Y-15293431D02*
X7210000Y-15293431D01*
X7210000Y-15293431D02*
X7210000Y-13293431D01*
X13210000Y-13293431D02*
X13210000Y-15293431D01*
D11*
D12*
X10765000Y-10878431D02*
X10795000Y-10908431D01*
X10795000Y-10878431D02*
X10765000Y-10908431D01*
X10998100Y-14071431D02*
G75*
G02*
X10921900Y-14071431I-38100J0D01*
G01*
X10921900Y-14071431D02*
G75*
G02*
X10998100Y-14071431I38100J0D01*
G01*
X10998100Y-14833431D02*
G75*
G02*
X10921900Y-14833431I-38100J0D01*
G01*
X10921900Y-14833431D02*
G75*
G02*
X10998100Y-14833431I38100J0D01*
G01*
X12268100Y-14071431D02*
G75*
G02*
X12191900Y-14071431I-38100J0D01*
G01*
X12191900Y-14071431D02*
G75*
G02*
X12268100Y-14071431I38100J0D01*
G01*
X12268100Y-14833431D02*
G75*
G02*
X12191900Y-14833431I-38100J0D01*
G01*
X12191900Y-14833431D02*
G75*
G02*
X12268100Y-14833431I38100J0D01*
G01*
X7940000Y-13703431D02*
X7940000Y-13783431D01*
X7900000Y-13743431D02*
X7980000Y-13743431D01*
X7940000Y-14465431D02*
X7940000Y-14545431D01*
X7900000Y-14505431D02*
X7980000Y-14505431D01*
X8194000Y-13703431D02*
X8194000Y-13783431D01*
X8154000Y-13743431D02*
X8234000Y-13743431D01*
X8194000Y-14465431D02*
X8194000Y-14545431D01*
X8154000Y-14505431D02*
X8234000Y-14505431D01*
X8448000Y-13703431D02*
X8448000Y-13783431D01*
X8408000Y-13743431D02*
X8488000Y-13743431D01*
X8448000Y-14465431D02*
X8448000Y-14545431D01*
X8408000Y-14505431D02*
X8488000Y-14505431D01*
X8702000Y-13703431D02*
X8702000Y-13783431D01*
X8662000Y-13743431D02*
X8742000Y-13743431D01*
X8702000Y-14465431D02*
X8702000Y-14545431D01*
X8662000Y-14505431D02*
X8742000Y-14505431D01*
X8956000Y-13703431D02*
X8956000Y-13783431D01*
X8916000Y-13743431D02*
X8996000Y-13743431D01*
X8956000Y-14465431D02*
X8956000Y-14545431D01*
X8916000Y-14505431D02*
X8996000Y-14505431D01*
X9210000Y-13703431D02*
X9210000Y-13783431D01*
X9170000Y-13743431D02*
X9250000Y-13743431D01*
X9210000Y-14465431D02*
X9210000Y-14545431D01*
X9170000Y-14505431D02*
X9250000Y-14505431D01*
X9464000Y-13703431D02*
X9464000Y-13783431D01*
X9424000Y-13743431D02*
X9504000Y-13743431D01*
X9464000Y-14465431D02*
X9464000Y-14545431D01*
X9424000Y-14505431D02*
X9504000Y-14505431D01*
X9718000Y-13703431D02*
X9718000Y-13783431D01*
X9678000Y-13743431D02*
X9758000Y-13743431D01*
X9718000Y-14465431D02*
X9718000Y-14545431D01*
X9678000Y-14505431D02*
X9758000Y-14505431D01*
X9860000Y-14893431D02*
X9860000Y-14973431D01*
X9820000Y-14933431D02*
X9900000Y-14933431D01*
X10060000Y-14893431D02*
X10060000Y-14973431D01*
X10020000Y-14933431D02*
X10100000Y-14933431D01*
X10260000Y-14893431D02*
X10260000Y-14973431D01*
X10220000Y-14933431D02*
X10300000Y-14933431D01*
X8265356Y-15008787D02*
X8265356Y-14938076D01*
X8194644Y-14938076D01*
X8194644Y-15008787D01*
X8265356Y-15008787D01*
X8515356Y-15008787D02*
X8515356Y-14938076D01*
X8444644Y-14938076D01*
X8444644Y-15008787D01*
X8515356Y-15008787D01*
X9085356Y-13388787D02*
X9085356Y-13318076D01*
X9014644Y-13318076D01*
X9014644Y-13388787D01*
X9085356Y-13388787D01*
X9095356Y-12168787D02*
X9095356Y-12098076D01*
X9024644Y-12098076D01*
X9024644Y-12168787D01*
X9095356Y-12168787D01*
X9095356Y-12418787D02*
X9095356Y-12348076D01*
X9024644Y-12348076D01*
X9024644Y-12418787D01*
X9095356Y-12418787D01*
X9335356Y-13388787D02*
X9335356Y-13318076D01*
X9264644Y-13318076D01*
X9264644Y-13388787D01*
X9335356Y-13388787D01*
X12835356Y-14388787D02*
X12835356Y-14318076D01*
X12764644Y-14318076D01*
X12764644Y-14388787D01*
X12835356Y-14388787D01*
X12835356Y-14638787D02*
X12835356Y-14568076D01*
X12764644Y-14568076D01*
X12764644Y-14638787D01*
X12835356Y-14638787D01*
D13*
X10912000Y-13618431D02*
X10967000Y-13563431D01*
X10912000Y-13508431D01*
X10857000Y-13563431D01*
X10912000Y-13618431D01*
X11928000Y-13618431D02*
X11983000Y-13563431D01*
X11928000Y-13508431D01*
X11873000Y-13563431D01*
X11928000Y-13618431D01*
D14*
X9575000Y-14858431D02*
X9725000Y-15008431D01*
X9725000Y-14858431D02*
X9575000Y-15008431D01*
X9725000Y-14933431D02*
G75*
G02*
X9575000Y-14933431I-75000J0D01*
G01*
X9575000Y-14933431D02*
G75*
G02*
X9725000Y-14933431I75000J0D01*
G01*
X10395000Y-14858431D02*
X10545000Y-15008431D01*
X10545000Y-14858431D02*
X10395000Y-15008431D01*
X10545000Y-14933431D02*
G75*
G02*
X10395000Y-14933431I-75000J0D01*
G01*
X10395000Y-14933431D02*
G75*
G02*
X10545000Y-14933431I75000J0D01*
G01*
D11*
X7468277Y-15607415D02*
X7468277Y-15407415D01*
X7468277Y-15407415D02*
X7515896Y-15407415D01*
X7515896Y-15407415D02*
X7544467Y-15416939D01*
X7544467Y-15416939D02*
X7563515Y-15435987D01*
X7563515Y-15435987D02*
X7573039Y-15455034D01*
X7573039Y-15455034D02*
X7582562Y-15493129D01*
X7582562Y-15493129D02*
X7582562Y-15521701D01*
X7582562Y-15521701D02*
X7573039Y-15559796D01*
X7573039Y-15559796D02*
X7563515Y-15578844D01*
X7563515Y-15578844D02*
X7544467Y-15597891D01*
X7544467Y-15597891D02*
X7515896Y-15607415D01*
X7515896Y-15607415D02*
X7468277Y-15607415D01*
X7668277Y-15607415D02*
X7668277Y-15474082D01*
X7668277Y-15512177D02*
X7677801Y-15493129D01*
X7677801Y-15493129D02*
X7687324Y-15483606D01*
X7687324Y-15483606D02*
X7706372Y-15474082D01*
X7706372Y-15474082D02*
X7725420Y-15474082D01*
X7792086Y-15607415D02*
X7792086Y-15474082D01*
X7792086Y-15407415D02*
X7782562Y-15416939D01*
X7782562Y-15416939D02*
X7792086Y-15426463D01*
X7792086Y-15426463D02*
X7801610Y-15416939D01*
X7801610Y-15416939D02*
X7792086Y-15407415D01*
X7792086Y-15407415D02*
X7792086Y-15426463D01*
X7915896Y-15607415D02*
X7896848Y-15597891D01*
X7896848Y-15597891D02*
X7887324Y-15578844D01*
X7887324Y-15578844D02*
X7887324Y-15407415D01*
X8020658Y-15607415D02*
X8001610Y-15597891D01*
X8001610Y-15597891D02*
X7992086Y-15578844D01*
X7992086Y-15578844D02*
X7992086Y-15407415D01*
X8249229Y-15607415D02*
X8249229Y-15407415D01*
X8249229Y-15407415D02*
X8315896Y-15550272D01*
X8315896Y-15550272D02*
X8382562Y-15407415D01*
X8382562Y-15407415D02*
X8382562Y-15607415D01*
X8563515Y-15607415D02*
X8563515Y-15502653D01*
X8563515Y-15502653D02*
X8553991Y-15483606D01*
X8553991Y-15483606D02*
X8534944Y-15474082D01*
X8534944Y-15474082D02*
X8496848Y-15474082D01*
X8496848Y-15474082D02*
X8477801Y-15483606D01*
X8563515Y-15597891D02*
X8544467Y-15607415D01*
X8544467Y-15607415D02*
X8496848Y-15607415D01*
X8496848Y-15607415D02*
X8477801Y-15597891D01*
X8477801Y-15597891D02*
X8468277Y-15578844D01*
X8468277Y-15578844D02*
X8468277Y-15559796D01*
X8468277Y-15559796D02*
X8477801Y-15540748D01*
X8477801Y-15540748D02*
X8496848Y-15531225D01*
X8496848Y-15531225D02*
X8544467Y-15531225D01*
X8544467Y-15531225D02*
X8563515Y-15521701D01*
X8658753Y-15474082D02*
X8658753Y-15674082D01*
X8658753Y-15483606D02*
X8677801Y-15474082D01*
X8677801Y-15474082D02*
X8715896Y-15474082D01*
X8715896Y-15474082D02*
X8734944Y-15483606D01*
X8734944Y-15483606D02*
X8744467Y-15493129D01*
X8744467Y-15493129D02*
X8753991Y-15512177D01*
X8753991Y-15512177D02*
X8753991Y-15569320D01*
X8753991Y-15569320D02*
X8744467Y-15588367D01*
X8744467Y-15588367D02*
X8734944Y-15597891D01*
X8734944Y-15597891D02*
X8715896Y-15607415D01*
X8715896Y-15607415D02*
X8677801Y-15607415D01*
X8677801Y-15607415D02*
X8658753Y-15597891D01*
X8839705Y-15588367D02*
X8849229Y-15597891D01*
X8849229Y-15597891D02*
X8839705Y-15607415D01*
X8839705Y-15607415D02*
X8830182Y-15597891D01*
X8830182Y-15597891D02*
X8839705Y-15588367D01*
X8839705Y-15588367D02*
X8839705Y-15607415D01*
X8839705Y-15483606D02*
X8849229Y-15493129D01*
X8849229Y-15493129D02*
X8839705Y-15502653D01*
X8839705Y-15502653D02*
X8830182Y-15493129D01*
X8830182Y-15493129D02*
X8839705Y-15483606D01*
X8839705Y-15483606D02*
X8839705Y-15502653D01*
D12*
X7177500Y-15920931D02*
X7207500Y-15950931D01*
X7207500Y-15920931D02*
X7177500Y-15950931D01*
D11*
X7506372Y-15827415D02*
X7525420Y-15827415D01*
X7525420Y-15827415D02*
X7544467Y-15836939D01*
X7544467Y-15836939D02*
X7553991Y-15846463D01*
X7553991Y-15846463D02*
X7563515Y-15865510D01*
X7563515Y-15865510D02*
X7573039Y-15903606D01*
X7573039Y-15903606D02*
X7573039Y-15951225D01*
X7573039Y-15951225D02*
X7563515Y-15989320D01*
X7563515Y-15989320D02*
X7553991Y-16008367D01*
X7553991Y-16008367D02*
X7544467Y-16017891D01*
X7544467Y-16017891D02*
X7525420Y-16027415D01*
X7525420Y-16027415D02*
X7506372Y-16027415D01*
X7506372Y-16027415D02*
X7487324Y-16017891D01*
X7487324Y-16017891D02*
X7477801Y-16008367D01*
X7477801Y-16008367D02*
X7468277Y-15989320D01*
X7468277Y-15989320D02*
X7458753Y-15951225D01*
X7458753Y-15951225D02*
X7458753Y-15903606D01*
X7458753Y-15903606D02*
X7468277Y-15865510D01*
X7468277Y-15865510D02*
X7477801Y-15846463D01*
X7477801Y-15846463D02*
X7487324Y-15836939D01*
X7487324Y-15836939D02*
X7506372Y-15827415D01*
X7658753Y-16008367D02*
X7668277Y-16017891D01*
X7668277Y-16017891D02*
X7658753Y-16027415D01*
X7658753Y-16027415D02*
X7649229Y-16017891D01*
X7649229Y-16017891D02*
X7658753Y-16008367D01*
X7658753Y-16008367D02*
X7658753Y-16027415D01*
X7734943Y-15827415D02*
X7858753Y-15827415D01*
X7858753Y-15827415D02*
X7792086Y-15903606D01*
X7792086Y-15903606D02*
X7820658Y-15903606D01*
X7820658Y-15903606D02*
X7839705Y-15913129D01*
X7839705Y-15913129D02*
X7849229Y-15922653D01*
X7849229Y-15922653D02*
X7858753Y-15941701D01*
X7858753Y-15941701D02*
X7858753Y-15989320D01*
X7858753Y-15989320D02*
X7849229Y-16008367D01*
X7849229Y-16008367D02*
X7839705Y-16017891D01*
X7839705Y-16017891D02*
X7820658Y-16027415D01*
X7820658Y-16027415D02*
X7763515Y-16027415D01*
X7763515Y-16027415D02*
X7744467Y-16017891D01*
X7744467Y-16017891D02*
X7734943Y-16008367D01*
X7982562Y-15827415D02*
X8001610Y-15827415D01*
X8001610Y-15827415D02*
X8020658Y-15836939D01*
X8020658Y-15836939D02*
X8030182Y-15846463D01*
X8030182Y-15846463D02*
X8039705Y-15865510D01*
X8039705Y-15865510D02*
X8049229Y-15903606D01*
X8049229Y-15903606D02*
X8049229Y-15951225D01*
X8049229Y-15951225D02*
X8039705Y-15989320D01*
X8039705Y-15989320D02*
X8030182Y-16008367D01*
X8030182Y-16008367D02*
X8020658Y-16017891D01*
X8020658Y-16017891D02*
X8001610Y-16027415D01*
X8001610Y-16027415D02*
X7982562Y-16027415D01*
X7982562Y-16027415D02*
X7963515Y-16017891D01*
X7963515Y-16017891D02*
X7953991Y-16008367D01*
X7953991Y-16008367D02*
X7944467Y-15989320D01*
X7944467Y-15989320D02*
X7934943Y-15951225D01*
X7934943Y-15951225D02*
X7934943Y-15903606D01*
X7934943Y-15903606D02*
X7944467Y-15865510D01*
X7944467Y-15865510D02*
X7953991Y-15846463D01*
X7953991Y-15846463D02*
X7963515Y-15836939D01*
X7963515Y-15836939D02*
X7982562Y-15827415D01*
X8173039Y-15827415D02*
X8192086Y-15827415D01*
X8192086Y-15827415D02*
X8211134Y-15836939D01*
X8211134Y-15836939D02*
X8220658Y-15846463D01*
X8220658Y-15846463D02*
X8230182Y-15865510D01*
X8230182Y-15865510D02*
X8239705Y-15903606D01*
X8239705Y-15903606D02*
X8239705Y-15951225D01*
X8239705Y-15951225D02*
X8230182Y-15989320D01*
X8230182Y-15989320D02*
X8220658Y-16008367D01*
X8220658Y-16008367D02*
X8211134Y-16017891D01*
X8211134Y-16017891D02*
X8192086Y-16027415D01*
X8192086Y-16027415D02*
X8173039Y-16027415D01*
X8173039Y-16027415D02*
X8153991Y-16017891D01*
X8153991Y-16017891D02*
X8144467Y-16008367D01*
X8144467Y-16008367D02*
X8134943Y-15989320D01*
X8134943Y-15989320D02*
X8125420Y-15951225D01*
X8125420Y-15951225D02*
X8125420Y-15903606D01*
X8125420Y-15903606D02*
X8134943Y-15865510D01*
X8134943Y-15865510D02*
X8144467Y-15846463D01*
X8144467Y-15846463D02*
X8153991Y-15836939D01*
X8153991Y-15836939D02*
X8173039Y-15827415D01*
X8325420Y-16027415D02*
X8325420Y-15894082D01*
X8325420Y-15913129D02*
X8334943Y-15903606D01*
X8334943Y-15903606D02*
X8353991Y-15894082D01*
X8353991Y-15894082D02*
X8382563Y-15894082D01*
X8382563Y-15894082D02*
X8401610Y-15903606D01*
X8401610Y-15903606D02*
X8411134Y-15922653D01*
X8411134Y-15922653D02*
X8411134Y-16027415D01*
X8411134Y-15922653D02*
X8420658Y-15903606D01*
X8420658Y-15903606D02*
X8439705Y-15894082D01*
X8439705Y-15894082D02*
X8468277Y-15894082D01*
X8468277Y-15894082D02*
X8487325Y-15903606D01*
X8487325Y-15903606D02*
X8496848Y-15922653D01*
X8496848Y-15922653D02*
X8496848Y-16027415D01*
X8592086Y-16027415D02*
X8592086Y-15894082D01*
X8592086Y-15913129D02*
X8601610Y-15903606D01*
X8601610Y-15903606D02*
X8620658Y-15894082D01*
X8620658Y-15894082D02*
X8649229Y-15894082D01*
X8649229Y-15894082D02*
X8668277Y-15903606D01*
X8668277Y-15903606D02*
X8677801Y-15922653D01*
X8677801Y-15922653D02*
X8677801Y-16027415D01*
X8677801Y-15922653D02*
X8687325Y-15903606D01*
X8687325Y-15903606D02*
X8706372Y-15894082D01*
X8706372Y-15894082D02*
X8734944Y-15894082D01*
X8734944Y-15894082D02*
X8753991Y-15903606D01*
X8753991Y-15903606D02*
X8763515Y-15922653D01*
X8763515Y-15922653D02*
X8763515Y-16027415D01*
X9153991Y-15817891D02*
X8982563Y-16075034D01*
X9411134Y-15827415D02*
X9430182Y-15827415D01*
X9430182Y-15827415D02*
X9449229Y-15836939D01*
X9449229Y-15836939D02*
X9458753Y-15846463D01*
X9458753Y-15846463D02*
X9468277Y-15865510D01*
X9468277Y-15865510D02*
X9477801Y-15903606D01*
X9477801Y-15903606D02*
X9477801Y-15951225D01*
X9477801Y-15951225D02*
X9468277Y-15989320D01*
X9468277Y-15989320D02*
X9458753Y-16008367D01*
X9458753Y-16008367D02*
X9449229Y-16017891D01*
X9449229Y-16017891D02*
X9430182Y-16027415D01*
X9430182Y-16027415D02*
X9411134Y-16027415D01*
X9411134Y-16027415D02*
X9392087Y-16017891D01*
X9392087Y-16017891D02*
X9382563Y-16008367D01*
X9382563Y-16008367D02*
X9373039Y-15989320D01*
X9373039Y-15989320D02*
X9363515Y-15951225D01*
X9363515Y-15951225D02*
X9363515Y-15903606D01*
X9363515Y-15903606D02*
X9373039Y-15865510D01*
X9373039Y-15865510D02*
X9382563Y-15846463D01*
X9382563Y-15846463D02*
X9392087Y-15836939D01*
X9392087Y-15836939D02*
X9411134Y-15827415D01*
X9563515Y-16008367D02*
X9573039Y-16017891D01*
X9573039Y-16017891D02*
X9563515Y-16027415D01*
X9563515Y-16027415D02*
X9553991Y-16017891D01*
X9553991Y-16017891D02*
X9563515Y-16008367D01*
X9563515Y-16008367D02*
X9563515Y-16027415D01*
X9696848Y-15827415D02*
X9715896Y-15827415D01*
X9715896Y-15827415D02*
X9734944Y-15836939D01*
X9734944Y-15836939D02*
X9744468Y-15846463D01*
X9744468Y-15846463D02*
X9753991Y-15865510D01*
X9753991Y-15865510D02*
X9763515Y-15903606D01*
X9763515Y-15903606D02*
X9763515Y-15951225D01*
X9763515Y-15951225D02*
X9753991Y-15989320D01*
X9753991Y-15989320D02*
X9744468Y-16008367D01*
X9744468Y-16008367D02*
X9734944Y-16017891D01*
X9734944Y-16017891D02*
X9715896Y-16027415D01*
X9715896Y-16027415D02*
X9696848Y-16027415D01*
X9696848Y-16027415D02*
X9677801Y-16017891D01*
X9677801Y-16017891D02*
X9668277Y-16008367D01*
X9668277Y-16008367D02*
X9658753Y-15989320D01*
X9658753Y-15989320D02*
X9649229Y-15951225D01*
X9649229Y-15951225D02*
X9649229Y-15903606D01*
X9649229Y-15903606D02*
X9658753Y-15865510D01*
X9658753Y-15865510D02*
X9668277Y-15846463D01*
X9668277Y-15846463D02*
X9677801Y-15836939D01*
X9677801Y-15836939D02*
X9696848Y-15827415D01*
X9953991Y-16027415D02*
X9839706Y-16027415D01*
X9896848Y-16027415D02*
X9896848Y-15827415D01*
X9896848Y-15827415D02*
X9877801Y-15855987D01*
X9877801Y-15855987D02*
X9858753Y-15875034D01*
X9858753Y-15875034D02*
X9839706Y-15884558D01*
X10144468Y-16027415D02*
X10030182Y-16027415D01*
X10087325Y-16027415D02*
X10087325Y-15827415D01*
X10087325Y-15827415D02*
X10068277Y-15855987D01*
X10068277Y-15855987D02*
X10049229Y-15875034D01*
X10049229Y-15875034D02*
X10030182Y-15884558D01*
X10258753Y-15913129D02*
X10239706Y-15903606D01*
X10239706Y-15903606D02*
X10230182Y-15894082D01*
X10230182Y-15894082D02*
X10220658Y-15875034D01*
X10220658Y-15875034D02*
X10220658Y-15865510D01*
X10220658Y-15865510D02*
X10230182Y-15846463D01*
X10230182Y-15846463D02*
X10239706Y-15836939D01*
X10239706Y-15836939D02*
X10258753Y-15827415D01*
X10258753Y-15827415D02*
X10296849Y-15827415D01*
X10296849Y-15827415D02*
X10315896Y-15836939D01*
X10315896Y-15836939D02*
X10325420Y-15846463D01*
X10325420Y-15846463D02*
X10334944Y-15865510D01*
X10334944Y-15865510D02*
X10334944Y-15875034D01*
X10334944Y-15875034D02*
X10325420Y-15894082D01*
X10325420Y-15894082D02*
X10315896Y-15903606D01*
X10315896Y-15903606D02*
X10296849Y-15913129D01*
X10296849Y-15913129D02*
X10258753Y-15913129D01*
X10258753Y-15913129D02*
X10239706Y-15922653D01*
X10239706Y-15922653D02*
X10230182Y-15932177D01*
X10230182Y-15932177D02*
X10220658Y-15951225D01*
X10220658Y-15951225D02*
X10220658Y-15989320D01*
X10220658Y-15989320D02*
X10230182Y-16008367D01*
X10230182Y-16008367D02*
X10239706Y-16017891D01*
X10239706Y-16017891D02*
X10258753Y-16027415D01*
X10258753Y-16027415D02*
X10296849Y-16027415D01*
X10296849Y-16027415D02*
X10315896Y-16017891D01*
X10315896Y-16017891D02*
X10325420Y-16008367D01*
X10325420Y-16008367D02*
X10334944Y-15989320D01*
X10334944Y-15989320D02*
X10334944Y-15951225D01*
X10334944Y-15951225D02*
X10325420Y-15932177D01*
X10325420Y-15932177D02*
X10315896Y-15922653D01*
X10315896Y-15922653D02*
X10296849Y-15913129D01*
X10411134Y-15827415D02*
X10411134Y-15865510D01*
X10487325Y-15827415D02*
X10487325Y-15865510D01*
X10782563Y-16103606D02*
X10773039Y-16094082D01*
X10773039Y-16094082D02*
X10753991Y-16065510D01*
X10753991Y-16065510D02*
X10744468Y-16046463D01*
X10744468Y-16046463D02*
X10734944Y-16017891D01*
X10734944Y-16017891D02*
X10725420Y-15970272D01*
X10725420Y-15970272D02*
X10725420Y-15932177D01*
X10725420Y-15932177D02*
X10734944Y-15884558D01*
X10734944Y-15884558D02*
X10744468Y-15855987D01*
X10744468Y-15855987D02*
X10753991Y-15836939D01*
X10753991Y-15836939D02*
X10773039Y-15808367D01*
X10773039Y-15808367D02*
X10782563Y-15798844D01*
X10963515Y-16027415D02*
X10849230Y-16027415D01*
X10906372Y-16027415D02*
X10906372Y-15827415D01*
X10906372Y-15827415D02*
X10887325Y-15855987D01*
X10887325Y-15855987D02*
X10868277Y-15875034D01*
X10868277Y-15875034D02*
X10849230Y-15884558D01*
X11201610Y-16027415D02*
X11201610Y-15827415D01*
X11287325Y-16027415D02*
X11287325Y-15922653D01*
X11287325Y-15922653D02*
X11277801Y-15903606D01*
X11277801Y-15903606D02*
X11258753Y-15894082D01*
X11258753Y-15894082D02*
X11230182Y-15894082D01*
X11230182Y-15894082D02*
X11211134Y-15903606D01*
X11211134Y-15903606D02*
X11201610Y-15913129D01*
X11411134Y-16027415D02*
X11392087Y-16017891D01*
X11392087Y-16017891D02*
X11382563Y-16008367D01*
X11382563Y-16008367D02*
X11373039Y-15989320D01*
X11373039Y-15989320D02*
X11373039Y-15932177D01*
X11373039Y-15932177D02*
X11382563Y-15913129D01*
X11382563Y-15913129D02*
X11392087Y-15903606D01*
X11392087Y-15903606D02*
X11411134Y-15894082D01*
X11411134Y-15894082D02*
X11439706Y-15894082D01*
X11439706Y-15894082D02*
X11458753Y-15903606D01*
X11458753Y-15903606D02*
X11468277Y-15913129D01*
X11468277Y-15913129D02*
X11477801Y-15932177D01*
X11477801Y-15932177D02*
X11477801Y-15989320D01*
X11477801Y-15989320D02*
X11468277Y-16008367D01*
X11468277Y-16008367D02*
X11458753Y-16017891D01*
X11458753Y-16017891D02*
X11439706Y-16027415D01*
X11439706Y-16027415D02*
X11411134Y-16027415D01*
X11592087Y-16027415D02*
X11573039Y-16017891D01*
X11573039Y-16017891D02*
X11563515Y-15998844D01*
X11563515Y-15998844D02*
X11563515Y-15827415D01*
X11744468Y-16017891D02*
X11725420Y-16027415D01*
X11725420Y-16027415D02*
X11687325Y-16027415D01*
X11687325Y-16027415D02*
X11668277Y-16017891D01*
X11668277Y-16017891D02*
X11658753Y-15998844D01*
X11658753Y-15998844D02*
X11658753Y-15922653D01*
X11658753Y-15922653D02*
X11668277Y-15903606D01*
X11668277Y-15903606D02*
X11687325Y-15894082D01*
X11687325Y-15894082D02*
X11725420Y-15894082D01*
X11725420Y-15894082D02*
X11744468Y-15903606D01*
X11744468Y-15903606D02*
X11753991Y-15922653D01*
X11753991Y-15922653D02*
X11753991Y-15941701D01*
X11753991Y-15941701D02*
X11658753Y-15960748D01*
X11820658Y-16103606D02*
X11830182Y-16094082D01*
X11830182Y-16094082D02*
X11849230Y-16065510D01*
X11849230Y-16065510D02*
X11858753Y-16046463D01*
X11858753Y-16046463D02*
X11868277Y-16017891D01*
X11868277Y-16017891D02*
X11877801Y-15970272D01*
X11877801Y-15970272D02*
X11877801Y-15932177D01*
X11877801Y-15932177D02*
X11868277Y-15884558D01*
X11868277Y-15884558D02*
X11858753Y-15855987D01*
X11858753Y-15855987D02*
X11849230Y-15836939D01*
X11849230Y-15836939D02*
X11830182Y-15808367D01*
X11830182Y-15808367D02*
X11820658Y-15798844D01*
D12*
X7207500Y-16199931D02*
G75*
G02*
X7131300Y-16199931I-38100J0D01*
G01*
X7131300Y-16199931D02*
G75*
G02*
X7207500Y-16199931I38100J0D01*
G01*
D11*
X7506372Y-16091415D02*
X7525420Y-16091415D01*
X7525420Y-16091415D02*
X7544467Y-16100939D01*
X7544467Y-16100939D02*
X7553991Y-16110463D01*
X7553991Y-16110463D02*
X7563515Y-16129510D01*
X7563515Y-16129510D02*
X7573039Y-16167606D01*
X7573039Y-16167606D02*
X7573039Y-16215225D01*
X7573039Y-16215225D02*
X7563515Y-16253320D01*
X7563515Y-16253320D02*
X7553991Y-16272367D01*
X7553991Y-16272367D02*
X7544467Y-16281891D01*
X7544467Y-16281891D02*
X7525420Y-16291415D01*
X7525420Y-16291415D02*
X7506372Y-16291415D01*
X7506372Y-16291415D02*
X7487324Y-16281891D01*
X7487324Y-16281891D02*
X7477801Y-16272367D01*
X7477801Y-16272367D02*
X7468277Y-16253320D01*
X7468277Y-16253320D02*
X7458753Y-16215225D01*
X7458753Y-16215225D02*
X7458753Y-16167606D01*
X7458753Y-16167606D02*
X7468277Y-16129510D01*
X7468277Y-16129510D02*
X7477801Y-16110463D01*
X7477801Y-16110463D02*
X7487324Y-16100939D01*
X7487324Y-16100939D02*
X7506372Y-16091415D01*
X7658753Y-16272367D02*
X7668277Y-16281891D01*
X7668277Y-16281891D02*
X7658753Y-16291415D01*
X7658753Y-16291415D02*
X7649229Y-16281891D01*
X7649229Y-16281891D02*
X7658753Y-16272367D01*
X7658753Y-16272367D02*
X7658753Y-16291415D01*
X7734943Y-16091415D02*
X7868277Y-16091415D01*
X7868277Y-16091415D02*
X7782562Y-16291415D01*
X8030182Y-16091415D02*
X7992086Y-16091415D01*
X7992086Y-16091415D02*
X7973039Y-16100939D01*
X7973039Y-16100939D02*
X7963515Y-16110463D01*
X7963515Y-16110463D02*
X7944467Y-16139034D01*
X7944467Y-16139034D02*
X7934943Y-16177129D01*
X7934943Y-16177129D02*
X7934943Y-16253320D01*
X7934943Y-16253320D02*
X7944467Y-16272367D01*
X7944467Y-16272367D02*
X7953991Y-16281891D01*
X7953991Y-16281891D02*
X7973039Y-16291415D01*
X7973039Y-16291415D02*
X8011134Y-16291415D01*
X8011134Y-16291415D02*
X8030182Y-16281891D01*
X8030182Y-16281891D02*
X8039705Y-16272367D01*
X8039705Y-16272367D02*
X8049229Y-16253320D01*
X8049229Y-16253320D02*
X8049229Y-16205701D01*
X8049229Y-16205701D02*
X8039705Y-16186653D01*
X8039705Y-16186653D02*
X8030182Y-16177129D01*
X8030182Y-16177129D02*
X8011134Y-16167606D01*
X8011134Y-16167606D02*
X7973039Y-16167606D01*
X7973039Y-16167606D02*
X7953991Y-16177129D01*
X7953991Y-16177129D02*
X7944467Y-16186653D01*
X7944467Y-16186653D02*
X7934943Y-16205701D01*
X8125420Y-16110463D02*
X8134943Y-16100939D01*
X8134943Y-16100939D02*
X8153991Y-16091415D01*
X8153991Y-16091415D02*
X8201610Y-16091415D01*
X8201610Y-16091415D02*
X8220658Y-16100939D01*
X8220658Y-16100939D02*
X8230182Y-16110463D01*
X8230182Y-16110463D02*
X8239705Y-16129510D01*
X8239705Y-16129510D02*
X8239705Y-16148558D01*
X8239705Y-16148558D02*
X8230182Y-16177129D01*
X8230182Y-16177129D02*
X8115896Y-16291415D01*
X8115896Y-16291415D02*
X8239705Y-16291415D01*
X8325420Y-16291415D02*
X8325420Y-16158082D01*
X8325420Y-16177129D02*
X8334943Y-16167606D01*
X8334943Y-16167606D02*
X8353991Y-16158082D01*
X8353991Y-16158082D02*
X8382563Y-16158082D01*
X8382563Y-16158082D02*
X8401610Y-16167606D01*
X8401610Y-16167606D02*
X8411134Y-16186653D01*
X8411134Y-16186653D02*
X8411134Y-16291415D01*
X8411134Y-16186653D02*
X8420658Y-16167606D01*
X8420658Y-16167606D02*
X8439705Y-16158082D01*
X8439705Y-16158082D02*
X8468277Y-16158082D01*
X8468277Y-16158082D02*
X8487325Y-16167606D01*
X8487325Y-16167606D02*
X8496848Y-16186653D01*
X8496848Y-16186653D02*
X8496848Y-16291415D01*
X8592086Y-16291415D02*
X8592086Y-16158082D01*
X8592086Y-16177129D02*
X8601610Y-16167606D01*
X8601610Y-16167606D02*
X8620658Y-16158082D01*
X8620658Y-16158082D02*
X8649229Y-16158082D01*
X8649229Y-16158082D02*
X8668277Y-16167606D01*
X8668277Y-16167606D02*
X8677801Y-16186653D01*
X8677801Y-16186653D02*
X8677801Y-16291415D01*
X8677801Y-16186653D02*
X8687325Y-16167606D01*
X8687325Y-16167606D02*
X8706372Y-16158082D01*
X8706372Y-16158082D02*
X8734944Y-16158082D01*
X8734944Y-16158082D02*
X8753991Y-16167606D01*
X8753991Y-16167606D02*
X8763515Y-16186653D01*
X8763515Y-16186653D02*
X8763515Y-16291415D01*
X9153991Y-16081891D02*
X8982563Y-16339034D01*
X9411134Y-16091415D02*
X9430182Y-16091415D01*
X9430182Y-16091415D02*
X9449229Y-16100939D01*
X9449229Y-16100939D02*
X9458753Y-16110463D01*
X9458753Y-16110463D02*
X9468277Y-16129510D01*
X9468277Y-16129510D02*
X9477801Y-16167606D01*
X9477801Y-16167606D02*
X9477801Y-16215225D01*
X9477801Y-16215225D02*
X9468277Y-16253320D01*
X9468277Y-16253320D02*
X9458753Y-16272367D01*
X9458753Y-16272367D02*
X9449229Y-16281891D01*
X9449229Y-16281891D02*
X9430182Y-16291415D01*
X9430182Y-16291415D02*
X9411134Y-16291415D01*
X9411134Y-16291415D02*
X9392087Y-16281891D01*
X9392087Y-16281891D02*
X9382563Y-16272367D01*
X9382563Y-16272367D02*
X9373039Y-16253320D01*
X9373039Y-16253320D02*
X9363515Y-16215225D01*
X9363515Y-16215225D02*
X9363515Y-16167606D01*
X9363515Y-16167606D02*
X9373039Y-16129510D01*
X9373039Y-16129510D02*
X9382563Y-16110463D01*
X9382563Y-16110463D02*
X9392087Y-16100939D01*
X9392087Y-16100939D02*
X9411134Y-16091415D01*
X9563515Y-16272367D02*
X9573039Y-16281891D01*
X9573039Y-16281891D02*
X9563515Y-16291415D01*
X9563515Y-16291415D02*
X9553991Y-16281891D01*
X9553991Y-16281891D02*
X9563515Y-16272367D01*
X9563515Y-16272367D02*
X9563515Y-16291415D01*
X9696848Y-16091415D02*
X9715896Y-16091415D01*
X9715896Y-16091415D02*
X9734944Y-16100939D01*
X9734944Y-16100939D02*
X9744468Y-16110463D01*
X9744468Y-16110463D02*
X9753991Y-16129510D01*
X9753991Y-16129510D02*
X9763515Y-16167606D01*
X9763515Y-16167606D02*
X9763515Y-16215225D01*
X9763515Y-16215225D02*
X9753991Y-16253320D01*
X9753991Y-16253320D02*
X9744468Y-16272367D01*
X9744468Y-16272367D02*
X9734944Y-16281891D01*
X9734944Y-16281891D02*
X9715896Y-16291415D01*
X9715896Y-16291415D02*
X9696848Y-16291415D01*
X9696848Y-16291415D02*
X9677801Y-16281891D01*
X9677801Y-16281891D02*
X9668277Y-16272367D01*
X9668277Y-16272367D02*
X9658753Y-16253320D01*
X9658753Y-16253320D02*
X9649229Y-16215225D01*
X9649229Y-16215225D02*
X9649229Y-16167606D01*
X9649229Y-16167606D02*
X9658753Y-16129510D01*
X9658753Y-16129510D02*
X9668277Y-16110463D01*
X9668277Y-16110463D02*
X9677801Y-16100939D01*
X9677801Y-16100939D02*
X9696848Y-16091415D01*
X9830182Y-16091415D02*
X9953991Y-16091415D01*
X9953991Y-16091415D02*
X9887325Y-16167606D01*
X9887325Y-16167606D02*
X9915896Y-16167606D01*
X9915896Y-16167606D02*
X9934944Y-16177129D01*
X9934944Y-16177129D02*
X9944468Y-16186653D01*
X9944468Y-16186653D02*
X9953991Y-16205701D01*
X9953991Y-16205701D02*
X9953991Y-16253320D01*
X9953991Y-16253320D02*
X9944468Y-16272367D01*
X9944468Y-16272367D02*
X9934944Y-16281891D01*
X9934944Y-16281891D02*
X9915896Y-16291415D01*
X9915896Y-16291415D02*
X9858753Y-16291415D01*
X9858753Y-16291415D02*
X9839706Y-16281891D01*
X9839706Y-16281891D02*
X9830182Y-16272367D01*
X10077801Y-16091415D02*
X10096849Y-16091415D01*
X10096849Y-16091415D02*
X10115896Y-16100939D01*
X10115896Y-16100939D02*
X10125420Y-16110463D01*
X10125420Y-16110463D02*
X10134944Y-16129510D01*
X10134944Y-16129510D02*
X10144468Y-16167606D01*
X10144468Y-16167606D02*
X10144468Y-16215225D01*
X10144468Y-16215225D02*
X10134944Y-16253320D01*
X10134944Y-16253320D02*
X10125420Y-16272367D01*
X10125420Y-16272367D02*
X10115896Y-16281891D01*
X10115896Y-16281891D02*
X10096849Y-16291415D01*
X10096849Y-16291415D02*
X10077801Y-16291415D01*
X10077801Y-16291415D02*
X10058753Y-16281891D01*
X10058753Y-16281891D02*
X10049229Y-16272367D01*
X10049229Y-16272367D02*
X10039706Y-16253320D01*
X10039706Y-16253320D02*
X10030182Y-16215225D01*
X10030182Y-16215225D02*
X10030182Y-16167606D01*
X10030182Y-16167606D02*
X10039706Y-16129510D01*
X10039706Y-16129510D02*
X10049229Y-16110463D01*
X10049229Y-16110463D02*
X10058753Y-16100939D01*
X10058753Y-16100939D02*
X10077801Y-16091415D01*
X10268277Y-16091415D02*
X10287325Y-16091415D01*
X10287325Y-16091415D02*
X10306372Y-16100939D01*
X10306372Y-16100939D02*
X10315896Y-16110463D01*
X10315896Y-16110463D02*
X10325420Y-16129510D01*
X10325420Y-16129510D02*
X10334944Y-16167606D01*
X10334944Y-16167606D02*
X10334944Y-16215225D01*
X10334944Y-16215225D02*
X10325420Y-16253320D01*
X10325420Y-16253320D02*
X10315896Y-16272367D01*
X10315896Y-16272367D02*
X10306372Y-16281891D01*
X10306372Y-16281891D02*
X10287325Y-16291415D01*
X10287325Y-16291415D02*
X10268277Y-16291415D01*
X10268277Y-16291415D02*
X10249229Y-16281891D01*
X10249229Y-16281891D02*
X10239706Y-16272367D01*
X10239706Y-16272367D02*
X10230182Y-16253320D01*
X10230182Y-16253320D02*
X10220658Y-16215225D01*
X10220658Y-16215225D02*
X10220658Y-16167606D01*
X10220658Y-16167606D02*
X10230182Y-16129510D01*
X10230182Y-16129510D02*
X10239706Y-16110463D01*
X10239706Y-16110463D02*
X10249229Y-16100939D01*
X10249229Y-16100939D02*
X10268277Y-16091415D01*
X10411134Y-16091415D02*
X10411134Y-16129510D01*
X10487325Y-16091415D02*
X10487325Y-16129510D01*
X10782563Y-16367606D02*
X10773039Y-16358082D01*
X10773039Y-16358082D02*
X10753991Y-16329510D01*
X10753991Y-16329510D02*
X10744468Y-16310463D01*
X10744468Y-16310463D02*
X10734944Y-16281891D01*
X10734944Y-16281891D02*
X10725420Y-16234272D01*
X10725420Y-16234272D02*
X10725420Y-16196177D01*
X10725420Y-16196177D02*
X10734944Y-16148558D01*
X10734944Y-16148558D02*
X10744468Y-16119987D01*
X10744468Y-16119987D02*
X10753991Y-16100939D01*
X10753991Y-16100939D02*
X10773039Y-16072367D01*
X10773039Y-16072367D02*
X10782563Y-16062844D01*
X10944468Y-16158082D02*
X10944468Y-16291415D01*
X10896849Y-16081891D02*
X10849230Y-16224748D01*
X10849230Y-16224748D02*
X10973039Y-16224748D01*
X11201610Y-16291415D02*
X11201610Y-16091415D01*
X11287325Y-16291415D02*
X11287325Y-16186653D01*
X11287325Y-16186653D02*
X11277801Y-16167606D01*
X11277801Y-16167606D02*
X11258753Y-16158082D01*
X11258753Y-16158082D02*
X11230182Y-16158082D01*
X11230182Y-16158082D02*
X11211134Y-16167606D01*
X11211134Y-16167606D02*
X11201610Y-16177129D01*
X11411134Y-16291415D02*
X11392087Y-16281891D01*
X11392087Y-16281891D02*
X11382563Y-16272367D01*
X11382563Y-16272367D02*
X11373039Y-16253320D01*
X11373039Y-16253320D02*
X11373039Y-16196177D01*
X11373039Y-16196177D02*
X11382563Y-16177129D01*
X11382563Y-16177129D02*
X11392087Y-16167606D01*
X11392087Y-16167606D02*
X11411134Y-16158082D01*
X11411134Y-16158082D02*
X11439706Y-16158082D01*
X11439706Y-16158082D02*
X11458753Y-16167606D01*
X11458753Y-16167606D02*
X11468277Y-16177129D01*
X11468277Y-16177129D02*
X11477801Y-16196177D01*
X11477801Y-16196177D02*
X11477801Y-16253320D01*
X11477801Y-16253320D02*
X11468277Y-16272367D01*
X11468277Y-16272367D02*
X11458753Y-16281891D01*
X11458753Y-16281891D02*
X11439706Y-16291415D01*
X11439706Y-16291415D02*
X11411134Y-16291415D01*
X11592087Y-16291415D02*
X11573039Y-16281891D01*
X11573039Y-16281891D02*
X11563515Y-16262844D01*
X11563515Y-16262844D02*
X11563515Y-16091415D01*
X11744468Y-16281891D02*
X11725420Y-16291415D01*
X11725420Y-16291415D02*
X11687325Y-16291415D01*
X11687325Y-16291415D02*
X11668277Y-16281891D01*
X11668277Y-16281891D02*
X11658753Y-16262844D01*
X11658753Y-16262844D02*
X11658753Y-16186653D01*
X11658753Y-16186653D02*
X11668277Y-16167606D01*
X11668277Y-16167606D02*
X11687325Y-16158082D01*
X11687325Y-16158082D02*
X11725420Y-16158082D01*
X11725420Y-16158082D02*
X11744468Y-16167606D01*
X11744468Y-16167606D02*
X11753991Y-16186653D01*
X11753991Y-16186653D02*
X11753991Y-16205701D01*
X11753991Y-16205701D02*
X11658753Y-16224748D01*
X11830182Y-16281891D02*
X11849230Y-16291415D01*
X11849230Y-16291415D02*
X11887325Y-16291415D01*
X11887325Y-16291415D02*
X11906372Y-16281891D01*
X11906372Y-16281891D02*
X11915896Y-16262844D01*
X11915896Y-16262844D02*
X11915896Y-16253320D01*
X11915896Y-16253320D02*
X11906372Y-16234272D01*
X11906372Y-16234272D02*
X11887325Y-16224748D01*
X11887325Y-16224748D02*
X11858753Y-16224748D01*
X11858753Y-16224748D02*
X11839706Y-16215225D01*
X11839706Y-16215225D02*
X11830182Y-16196177D01*
X11830182Y-16196177D02*
X11830182Y-16186653D01*
X11830182Y-16186653D02*
X11839706Y-16167606D01*
X11839706Y-16167606D02*
X11858753Y-16158082D01*
X11858753Y-16158082D02*
X11887325Y-16158082D01*
X11887325Y-16158082D02*
X11906372Y-16167606D01*
X11982563Y-16367606D02*
X11992087Y-16358082D01*
X11992087Y-16358082D02*
X12011134Y-16329510D01*
X12011134Y-16329510D02*
X12020658Y-16310463D01*
X12020658Y-16310463D02*
X12030182Y-16281891D01*
X12030182Y-16281891D02*
X12039706Y-16234272D01*
X12039706Y-16234272D02*
X12039706Y-16196177D01*
X12039706Y-16196177D02*
X12030182Y-16148558D01*
X12030182Y-16148558D02*
X12020658Y-16119987D01*
X12020658Y-16119987D02*
X12011134Y-16100939D01*
X12011134Y-16100939D02*
X11992087Y-16072367D01*
X11992087Y-16072367D02*
X11982563Y-16062844D01*
D12*
X7167500Y-16423931D02*
X7167500Y-16503931D01*
X7127500Y-16463931D02*
X7207500Y-16463931D01*
D11*
X7506372Y-16355415D02*
X7525420Y-16355415D01*
X7525420Y-16355415D02*
X7544467Y-16364939D01*
X7544467Y-16364939D02*
X7553991Y-16374463D01*
X7553991Y-16374463D02*
X7563515Y-16393510D01*
X7563515Y-16393510D02*
X7573039Y-16431606D01*
X7573039Y-16431606D02*
X7573039Y-16479225D01*
X7573039Y-16479225D02*
X7563515Y-16517320D01*
X7563515Y-16517320D02*
X7553991Y-16536367D01*
X7553991Y-16536367D02*
X7544467Y-16545891D01*
X7544467Y-16545891D02*
X7525420Y-16555415D01*
X7525420Y-16555415D02*
X7506372Y-16555415D01*
X7506372Y-16555415D02*
X7487324Y-16545891D01*
X7487324Y-16545891D02*
X7477801Y-16536367D01*
X7477801Y-16536367D02*
X7468277Y-16517320D01*
X7468277Y-16517320D02*
X7458753Y-16479225D01*
X7458753Y-16479225D02*
X7458753Y-16431606D01*
X7458753Y-16431606D02*
X7468277Y-16393510D01*
X7468277Y-16393510D02*
X7477801Y-16374463D01*
X7477801Y-16374463D02*
X7487324Y-16364939D01*
X7487324Y-16364939D02*
X7506372Y-16355415D01*
X7658753Y-16536367D02*
X7668277Y-16545891D01*
X7668277Y-16545891D02*
X7658753Y-16555415D01*
X7658753Y-16555415D02*
X7649229Y-16545891D01*
X7649229Y-16545891D02*
X7658753Y-16536367D01*
X7658753Y-16536367D02*
X7658753Y-16555415D01*
X7782562Y-16441129D02*
X7763515Y-16431606D01*
X7763515Y-16431606D02*
X7753991Y-16422082D01*
X7753991Y-16422082D02*
X7744467Y-16403034D01*
X7744467Y-16403034D02*
X7744467Y-16393510D01*
X7744467Y-16393510D02*
X7753991Y-16374463D01*
X7753991Y-16374463D02*
X7763515Y-16364939D01*
X7763515Y-16364939D02*
X7782562Y-16355415D01*
X7782562Y-16355415D02*
X7820658Y-16355415D01*
X7820658Y-16355415D02*
X7839705Y-16364939D01*
X7839705Y-16364939D02*
X7849229Y-16374463D01*
X7849229Y-16374463D02*
X7858753Y-16393510D01*
X7858753Y-16393510D02*
X7858753Y-16403034D01*
X7858753Y-16403034D02*
X7849229Y-16422082D01*
X7849229Y-16422082D02*
X7839705Y-16431606D01*
X7839705Y-16431606D02*
X7820658Y-16441129D01*
X7820658Y-16441129D02*
X7782562Y-16441129D01*
X7782562Y-16441129D02*
X7763515Y-16450653D01*
X7763515Y-16450653D02*
X7753991Y-16460177D01*
X7753991Y-16460177D02*
X7744467Y-16479225D01*
X7744467Y-16479225D02*
X7744467Y-16517320D01*
X7744467Y-16517320D02*
X7753991Y-16536367D01*
X7753991Y-16536367D02*
X7763515Y-16545891D01*
X7763515Y-16545891D02*
X7782562Y-16555415D01*
X7782562Y-16555415D02*
X7820658Y-16555415D01*
X7820658Y-16555415D02*
X7839705Y-16545891D01*
X7839705Y-16545891D02*
X7849229Y-16536367D01*
X7849229Y-16536367D02*
X7858753Y-16517320D01*
X7858753Y-16517320D02*
X7858753Y-16479225D01*
X7858753Y-16479225D02*
X7849229Y-16460177D01*
X7849229Y-16460177D02*
X7839705Y-16450653D01*
X7839705Y-16450653D02*
X7820658Y-16441129D01*
X7982562Y-16355415D02*
X8001610Y-16355415D01*
X8001610Y-16355415D02*
X8020658Y-16364939D01*
X8020658Y-16364939D02*
X8030182Y-16374463D01*
X8030182Y-16374463D02*
X8039705Y-16393510D01*
X8039705Y-16393510D02*
X8049229Y-16431606D01*
X8049229Y-16431606D02*
X8049229Y-16479225D01*
X8049229Y-16479225D02*
X8039705Y-16517320D01*
X8039705Y-16517320D02*
X8030182Y-16536367D01*
X8030182Y-16536367D02*
X8020658Y-16545891D01*
X8020658Y-16545891D02*
X8001610Y-16555415D01*
X8001610Y-16555415D02*
X7982562Y-16555415D01*
X7982562Y-16555415D02*
X7963515Y-16545891D01*
X7963515Y-16545891D02*
X7953991Y-16536367D01*
X7953991Y-16536367D02*
X7944467Y-16517320D01*
X7944467Y-16517320D02*
X7934943Y-16479225D01*
X7934943Y-16479225D02*
X7934943Y-16431606D01*
X7934943Y-16431606D02*
X7944467Y-16393510D01*
X7944467Y-16393510D02*
X7953991Y-16374463D01*
X7953991Y-16374463D02*
X7963515Y-16364939D01*
X7963515Y-16364939D02*
X7982562Y-16355415D01*
X8173039Y-16355415D02*
X8192086Y-16355415D01*
X8192086Y-16355415D02*
X8211134Y-16364939D01*
X8211134Y-16364939D02*
X8220658Y-16374463D01*
X8220658Y-16374463D02*
X8230182Y-16393510D01*
X8230182Y-16393510D02*
X8239705Y-16431606D01*
X8239705Y-16431606D02*
X8239705Y-16479225D01*
X8239705Y-16479225D02*
X8230182Y-16517320D01*
X8230182Y-16517320D02*
X8220658Y-16536367D01*
X8220658Y-16536367D02*
X8211134Y-16545891D01*
X8211134Y-16545891D02*
X8192086Y-16555415D01*
X8192086Y-16555415D02*
X8173039Y-16555415D01*
X8173039Y-16555415D02*
X8153991Y-16545891D01*
X8153991Y-16545891D02*
X8144467Y-16536367D01*
X8144467Y-16536367D02*
X8134943Y-16517320D01*
X8134943Y-16517320D02*
X8125420Y-16479225D01*
X8125420Y-16479225D02*
X8125420Y-16431606D01*
X8125420Y-16431606D02*
X8134943Y-16393510D01*
X8134943Y-16393510D02*
X8144467Y-16374463D01*
X8144467Y-16374463D02*
X8153991Y-16364939D01*
X8153991Y-16364939D02*
X8173039Y-16355415D01*
X8325420Y-16555415D02*
X8325420Y-16422082D01*
X8325420Y-16441129D02*
X8334943Y-16431606D01*
X8334943Y-16431606D02*
X8353991Y-16422082D01*
X8353991Y-16422082D02*
X8382563Y-16422082D01*
X8382563Y-16422082D02*
X8401610Y-16431606D01*
X8401610Y-16431606D02*
X8411134Y-16450653D01*
X8411134Y-16450653D02*
X8411134Y-16555415D01*
X8411134Y-16450653D02*
X8420658Y-16431606D01*
X8420658Y-16431606D02*
X8439705Y-16422082D01*
X8439705Y-16422082D02*
X8468277Y-16422082D01*
X8468277Y-16422082D02*
X8487325Y-16431606D01*
X8487325Y-16431606D02*
X8496848Y-16450653D01*
X8496848Y-16450653D02*
X8496848Y-16555415D01*
X8592086Y-16555415D02*
X8592086Y-16422082D01*
X8592086Y-16441129D02*
X8601610Y-16431606D01*
X8601610Y-16431606D02*
X8620658Y-16422082D01*
X8620658Y-16422082D02*
X8649229Y-16422082D01*
X8649229Y-16422082D02*
X8668277Y-16431606D01*
X8668277Y-16431606D02*
X8677801Y-16450653D01*
X8677801Y-16450653D02*
X8677801Y-16555415D01*
X8677801Y-16450653D02*
X8687325Y-16431606D01*
X8687325Y-16431606D02*
X8706372Y-16422082D01*
X8706372Y-16422082D02*
X8734944Y-16422082D01*
X8734944Y-16422082D02*
X8753991Y-16431606D01*
X8753991Y-16431606D02*
X8763515Y-16450653D01*
X8763515Y-16450653D02*
X8763515Y-16555415D01*
X9153991Y-16345891D02*
X8982563Y-16603034D01*
X9411134Y-16355415D02*
X9430182Y-16355415D01*
X9430182Y-16355415D02*
X9449229Y-16364939D01*
X9449229Y-16364939D02*
X9458753Y-16374463D01*
X9458753Y-16374463D02*
X9468277Y-16393510D01*
X9468277Y-16393510D02*
X9477801Y-16431606D01*
X9477801Y-16431606D02*
X9477801Y-16479225D01*
X9477801Y-16479225D02*
X9468277Y-16517320D01*
X9468277Y-16517320D02*
X9458753Y-16536367D01*
X9458753Y-16536367D02*
X9449229Y-16545891D01*
X9449229Y-16545891D02*
X9430182Y-16555415D01*
X9430182Y-16555415D02*
X9411134Y-16555415D01*
X9411134Y-16555415D02*
X9392087Y-16545891D01*
X9392087Y-16545891D02*
X9382563Y-16536367D01*
X9382563Y-16536367D02*
X9373039Y-16517320D01*
X9373039Y-16517320D02*
X9363515Y-16479225D01*
X9363515Y-16479225D02*
X9363515Y-16431606D01*
X9363515Y-16431606D02*
X9373039Y-16393510D01*
X9373039Y-16393510D02*
X9382563Y-16374463D01*
X9382563Y-16374463D02*
X9392087Y-16364939D01*
X9392087Y-16364939D02*
X9411134Y-16355415D01*
X9563515Y-16536367D02*
X9573039Y-16545891D01*
X9573039Y-16545891D02*
X9563515Y-16555415D01*
X9563515Y-16555415D02*
X9553991Y-16545891D01*
X9553991Y-16545891D02*
X9563515Y-16536367D01*
X9563515Y-16536367D02*
X9563515Y-16555415D01*
X9696848Y-16355415D02*
X9715896Y-16355415D01*
X9715896Y-16355415D02*
X9734944Y-16364939D01*
X9734944Y-16364939D02*
X9744468Y-16374463D01*
X9744468Y-16374463D02*
X9753991Y-16393510D01*
X9753991Y-16393510D02*
X9763515Y-16431606D01*
X9763515Y-16431606D02*
X9763515Y-16479225D01*
X9763515Y-16479225D02*
X9753991Y-16517320D01*
X9753991Y-16517320D02*
X9744468Y-16536367D01*
X9744468Y-16536367D02*
X9734944Y-16545891D01*
X9734944Y-16545891D02*
X9715896Y-16555415D01*
X9715896Y-16555415D02*
X9696848Y-16555415D01*
X9696848Y-16555415D02*
X9677801Y-16545891D01*
X9677801Y-16545891D02*
X9668277Y-16536367D01*
X9668277Y-16536367D02*
X9658753Y-16517320D01*
X9658753Y-16517320D02*
X9649229Y-16479225D01*
X9649229Y-16479225D02*
X9649229Y-16431606D01*
X9649229Y-16431606D02*
X9658753Y-16393510D01*
X9658753Y-16393510D02*
X9668277Y-16374463D01*
X9668277Y-16374463D02*
X9677801Y-16364939D01*
X9677801Y-16364939D02*
X9696848Y-16355415D01*
X9830182Y-16355415D02*
X9953991Y-16355415D01*
X9953991Y-16355415D02*
X9887325Y-16431606D01*
X9887325Y-16431606D02*
X9915896Y-16431606D01*
X9915896Y-16431606D02*
X9934944Y-16441129D01*
X9934944Y-16441129D02*
X9944468Y-16450653D01*
X9944468Y-16450653D02*
X9953991Y-16469701D01*
X9953991Y-16469701D02*
X9953991Y-16517320D01*
X9953991Y-16517320D02*
X9944468Y-16536367D01*
X9944468Y-16536367D02*
X9934944Y-16545891D01*
X9934944Y-16545891D02*
X9915896Y-16555415D01*
X9915896Y-16555415D02*
X9858753Y-16555415D01*
X9858753Y-16555415D02*
X9839706Y-16545891D01*
X9839706Y-16545891D02*
X9830182Y-16536367D01*
X10144468Y-16555415D02*
X10030182Y-16555415D01*
X10087325Y-16555415D02*
X10087325Y-16355415D01*
X10087325Y-16355415D02*
X10068277Y-16383987D01*
X10068277Y-16383987D02*
X10049229Y-16403034D01*
X10049229Y-16403034D02*
X10030182Y-16412558D01*
X10325420Y-16355415D02*
X10230182Y-16355415D01*
X10230182Y-16355415D02*
X10220658Y-16450653D01*
X10220658Y-16450653D02*
X10230182Y-16441129D01*
X10230182Y-16441129D02*
X10249229Y-16431606D01*
X10249229Y-16431606D02*
X10296849Y-16431606D01*
X10296849Y-16431606D02*
X10315896Y-16441129D01*
X10315896Y-16441129D02*
X10325420Y-16450653D01*
X10325420Y-16450653D02*
X10334944Y-16469701D01*
X10334944Y-16469701D02*
X10334944Y-16517320D01*
X10334944Y-16517320D02*
X10325420Y-16536367D01*
X10325420Y-16536367D02*
X10315896Y-16545891D01*
X10315896Y-16545891D02*
X10296849Y-16555415D01*
X10296849Y-16555415D02*
X10249229Y-16555415D01*
X10249229Y-16555415D02*
X10230182Y-16545891D01*
X10230182Y-16545891D02*
X10220658Y-16536367D01*
X10411134Y-16355415D02*
X10411134Y-16393510D01*
X10487325Y-16355415D02*
X10487325Y-16393510D01*
X10782563Y-16631606D02*
X10773039Y-16622082D01*
X10773039Y-16622082D02*
X10753991Y-16593510D01*
X10753991Y-16593510D02*
X10744468Y-16574463D01*
X10744468Y-16574463D02*
X10734944Y-16545891D01*
X10734944Y-16545891D02*
X10725420Y-16498272D01*
X10725420Y-16498272D02*
X10725420Y-16460177D01*
X10725420Y-16460177D02*
X10734944Y-16412558D01*
X10734944Y-16412558D02*
X10744468Y-16383987D01*
X10744468Y-16383987D02*
X10753991Y-16364939D01*
X10753991Y-16364939D02*
X10773039Y-16336367D01*
X10773039Y-16336367D02*
X10782563Y-16326844D01*
X10963515Y-16555415D02*
X10849230Y-16555415D01*
X10906372Y-16555415D02*
X10906372Y-16355415D01*
X10906372Y-16355415D02*
X10887325Y-16383987D01*
X10887325Y-16383987D02*
X10868277Y-16403034D01*
X10868277Y-16403034D02*
X10849230Y-16412558D01*
X11058753Y-16555415D02*
X11096849Y-16555415D01*
X11096849Y-16555415D02*
X11115896Y-16545891D01*
X11115896Y-16545891D02*
X11125420Y-16536367D01*
X11125420Y-16536367D02*
X11144468Y-16507796D01*
X11144468Y-16507796D02*
X11153991Y-16469701D01*
X11153991Y-16469701D02*
X11153991Y-16393510D01*
X11153991Y-16393510D02*
X11144468Y-16374463D01*
X11144468Y-16374463D02*
X11134944Y-16364939D01*
X11134944Y-16364939D02*
X11115896Y-16355415D01*
X11115896Y-16355415D02*
X11077801Y-16355415D01*
X11077801Y-16355415D02*
X11058753Y-16364939D01*
X11058753Y-16364939D02*
X11049230Y-16374463D01*
X11049230Y-16374463D02*
X11039706Y-16393510D01*
X11039706Y-16393510D02*
X11039706Y-16441129D01*
X11039706Y-16441129D02*
X11049230Y-16460177D01*
X11049230Y-16460177D02*
X11058753Y-16469701D01*
X11058753Y-16469701D02*
X11077801Y-16479225D01*
X11077801Y-16479225D02*
X11115896Y-16479225D01*
X11115896Y-16479225D02*
X11134944Y-16469701D01*
X11134944Y-16469701D02*
X11144468Y-16460177D01*
X11144468Y-16460177D02*
X11153991Y-16441129D01*
X11392087Y-16555415D02*
X11392087Y-16355415D01*
X11477801Y-16555415D02*
X11477801Y-16450653D01*
X11477801Y-16450653D02*
X11468277Y-16431606D01*
X11468277Y-16431606D02*
X11449230Y-16422082D01*
X11449230Y-16422082D02*
X11420658Y-16422082D01*
X11420658Y-16422082D02*
X11401610Y-16431606D01*
X11401610Y-16431606D02*
X11392087Y-16441129D01*
X11601610Y-16555415D02*
X11582563Y-16545891D01*
X11582563Y-16545891D02*
X11573039Y-16536367D01*
X11573039Y-16536367D02*
X11563515Y-16517320D01*
X11563515Y-16517320D02*
X11563515Y-16460177D01*
X11563515Y-16460177D02*
X11573039Y-16441129D01*
X11573039Y-16441129D02*
X11582563Y-16431606D01*
X11582563Y-16431606D02*
X11601610Y-16422082D01*
X11601610Y-16422082D02*
X11630182Y-16422082D01*
X11630182Y-16422082D02*
X11649230Y-16431606D01*
X11649230Y-16431606D02*
X11658753Y-16441129D01*
X11658753Y-16441129D02*
X11668277Y-16460177D01*
X11668277Y-16460177D02*
X11668277Y-16517320D01*
X11668277Y-16517320D02*
X11658753Y-16536367D01*
X11658753Y-16536367D02*
X11649230Y-16545891D01*
X11649230Y-16545891D02*
X11630182Y-16555415D01*
X11630182Y-16555415D02*
X11601610Y-16555415D01*
X11782563Y-16555415D02*
X11763515Y-16545891D01*
X11763515Y-16545891D02*
X11753991Y-16526844D01*
X11753991Y-16526844D02*
X11753991Y-16355415D01*
X11934944Y-16545891D02*
X11915896Y-16555415D01*
X11915896Y-16555415D02*
X11877801Y-16555415D01*
X11877801Y-16555415D02*
X11858753Y-16545891D01*
X11858753Y-16545891D02*
X11849230Y-16526844D01*
X11849230Y-16526844D02*
X11849230Y-16450653D01*
X11849230Y-16450653D02*
X11858753Y-16431606D01*
X11858753Y-16431606D02*
X11877801Y-16422082D01*
X11877801Y-16422082D02*
X11915896Y-16422082D01*
X11915896Y-16422082D02*
X11934944Y-16431606D01*
X11934944Y-16431606D02*
X11944468Y-16450653D01*
X11944468Y-16450653D02*
X11944468Y-16469701D01*
X11944468Y-16469701D02*
X11849230Y-16488748D01*
X12020658Y-16545891D02*
X12039706Y-16555415D01*
X12039706Y-16555415D02*
X12077801Y-16555415D01*
X12077801Y-16555415D02*
X12096849Y-16545891D01*
X12096849Y-16545891D02*
X12106372Y-16526844D01*
X12106372Y-16526844D02*
X12106372Y-16517320D01*
X12106372Y-16517320D02*
X12096849Y-16498272D01*
X12096849Y-16498272D02*
X12077801Y-16488748D01*
X12077801Y-16488748D02*
X12049230Y-16488748D01*
X12049230Y-16488748D02*
X12030182Y-16479225D01*
X12030182Y-16479225D02*
X12020658Y-16460177D01*
X12020658Y-16460177D02*
X12020658Y-16450653D01*
X12020658Y-16450653D02*
X12030182Y-16431606D01*
X12030182Y-16431606D02*
X12049230Y-16422082D01*
X12049230Y-16422082D02*
X12077801Y-16422082D01*
X12077801Y-16422082D02*
X12096849Y-16431606D01*
X12173039Y-16631606D02*
X12182563Y-16622082D01*
X12182563Y-16622082D02*
X12201611Y-16593510D01*
X12201611Y-16593510D02*
X12211134Y-16574463D01*
X12211134Y-16574463D02*
X12220658Y-16545891D01*
X12220658Y-16545891D02*
X12230182Y-16498272D01*
X12230182Y-16498272D02*
X12230182Y-16460177D01*
X12230182Y-16460177D02*
X12220658Y-16412558D01*
X12220658Y-16412558D02*
X12211134Y-16383987D01*
X12211134Y-16383987D02*
X12201611Y-16364939D01*
X12201611Y-16364939D02*
X12182563Y-16336367D01*
X12182563Y-16336367D02*
X12173039Y-16326844D01*
D12*
X7192856Y-16763287D02*
X7192856Y-16692576D01*
X7122144Y-16692576D01*
X7122144Y-16763287D01*
X7192856Y-16763287D01*
D11*
X7573039Y-16819415D02*
X7458753Y-16819415D01*
X7515896Y-16819415D02*
X7515896Y-16619415D01*
X7515896Y-16619415D02*
X7496848Y-16647987D01*
X7496848Y-16647987D02*
X7477801Y-16667034D01*
X7477801Y-16667034D02*
X7458753Y-16676558D01*
X7658753Y-16800368D02*
X7668277Y-16809891D01*
X7668277Y-16809891D02*
X7658753Y-16819415D01*
X7658753Y-16819415D02*
X7649229Y-16809891D01*
X7649229Y-16809891D02*
X7658753Y-16800368D01*
X7658753Y-16800368D02*
X7658753Y-16819415D01*
X7792086Y-16619415D02*
X7811134Y-16619415D01*
X7811134Y-16619415D02*
X7830182Y-16628939D01*
X7830182Y-16628939D02*
X7839705Y-16638463D01*
X7839705Y-16638463D02*
X7849229Y-16657510D01*
X7849229Y-16657510D02*
X7858753Y-16695606D01*
X7858753Y-16695606D02*
X7858753Y-16743225D01*
X7858753Y-16743225D02*
X7849229Y-16781320D01*
X7849229Y-16781320D02*
X7839705Y-16800368D01*
X7839705Y-16800368D02*
X7830182Y-16809891D01*
X7830182Y-16809891D02*
X7811134Y-16819415D01*
X7811134Y-16819415D02*
X7792086Y-16819415D01*
X7792086Y-16819415D02*
X7773039Y-16809891D01*
X7773039Y-16809891D02*
X7763515Y-16800368D01*
X7763515Y-16800368D02*
X7753991Y-16781320D01*
X7753991Y-16781320D02*
X7744467Y-16743225D01*
X7744467Y-16743225D02*
X7744467Y-16695606D01*
X7744467Y-16695606D02*
X7753991Y-16657510D01*
X7753991Y-16657510D02*
X7763515Y-16638463D01*
X7763515Y-16638463D02*
X7773039Y-16628939D01*
X7773039Y-16628939D02*
X7792086Y-16619415D01*
X7982562Y-16619415D02*
X8001610Y-16619415D01*
X8001610Y-16619415D02*
X8020658Y-16628939D01*
X8020658Y-16628939D02*
X8030182Y-16638463D01*
X8030182Y-16638463D02*
X8039705Y-16657510D01*
X8039705Y-16657510D02*
X8049229Y-16695606D01*
X8049229Y-16695606D02*
X8049229Y-16743225D01*
X8049229Y-16743225D02*
X8039705Y-16781320D01*
X8039705Y-16781320D02*
X8030182Y-16800368D01*
X8030182Y-16800368D02*
X8020658Y-16809891D01*
X8020658Y-16809891D02*
X8001610Y-16819415D01*
X8001610Y-16819415D02*
X7982562Y-16819415D01*
X7982562Y-16819415D02*
X7963515Y-16809891D01*
X7963515Y-16809891D02*
X7953991Y-16800368D01*
X7953991Y-16800368D02*
X7944467Y-16781320D01*
X7944467Y-16781320D02*
X7934943Y-16743225D01*
X7934943Y-16743225D02*
X7934943Y-16695606D01*
X7934943Y-16695606D02*
X7944467Y-16657510D01*
X7944467Y-16657510D02*
X7953991Y-16638463D01*
X7953991Y-16638463D02*
X7963515Y-16628939D01*
X7963515Y-16628939D02*
X7982562Y-16619415D01*
X8173039Y-16619415D02*
X8192086Y-16619415D01*
X8192086Y-16619415D02*
X8211134Y-16628939D01*
X8211134Y-16628939D02*
X8220658Y-16638463D01*
X8220658Y-16638463D02*
X8230182Y-16657510D01*
X8230182Y-16657510D02*
X8239705Y-16695606D01*
X8239705Y-16695606D02*
X8239705Y-16743225D01*
X8239705Y-16743225D02*
X8230182Y-16781320D01*
X8230182Y-16781320D02*
X8220658Y-16800368D01*
X8220658Y-16800368D02*
X8211134Y-16809891D01*
X8211134Y-16809891D02*
X8192086Y-16819415D01*
X8192086Y-16819415D02*
X8173039Y-16819415D01*
X8173039Y-16819415D02*
X8153991Y-16809891D01*
X8153991Y-16809891D02*
X8144467Y-16800368D01*
X8144467Y-16800368D02*
X8134943Y-16781320D01*
X8134943Y-16781320D02*
X8125420Y-16743225D01*
X8125420Y-16743225D02*
X8125420Y-16695606D01*
X8125420Y-16695606D02*
X8134943Y-16657510D01*
X8134943Y-16657510D02*
X8144467Y-16638463D01*
X8144467Y-16638463D02*
X8153991Y-16628939D01*
X8153991Y-16628939D02*
X8173039Y-16619415D01*
X8325420Y-16819415D02*
X8325420Y-16686082D01*
X8325420Y-16705129D02*
X8334943Y-16695606D01*
X8334943Y-16695606D02*
X8353991Y-16686082D01*
X8353991Y-16686082D02*
X8382563Y-16686082D01*
X8382563Y-16686082D02*
X8401610Y-16695606D01*
X8401610Y-16695606D02*
X8411134Y-16714653D01*
X8411134Y-16714653D02*
X8411134Y-16819415D01*
X8411134Y-16714653D02*
X8420658Y-16695606D01*
X8420658Y-16695606D02*
X8439705Y-16686082D01*
X8439705Y-16686082D02*
X8468277Y-16686082D01*
X8468277Y-16686082D02*
X8487325Y-16695606D01*
X8487325Y-16695606D02*
X8496848Y-16714653D01*
X8496848Y-16714653D02*
X8496848Y-16819415D01*
X8592086Y-16819415D02*
X8592086Y-16686082D01*
X8592086Y-16705129D02*
X8601610Y-16695606D01*
X8601610Y-16695606D02*
X8620658Y-16686082D01*
X8620658Y-16686082D02*
X8649229Y-16686082D01*
X8649229Y-16686082D02*
X8668277Y-16695606D01*
X8668277Y-16695606D02*
X8677801Y-16714653D01*
X8677801Y-16714653D02*
X8677801Y-16819415D01*
X8677801Y-16714653D02*
X8687325Y-16695606D01*
X8687325Y-16695606D02*
X8706372Y-16686082D01*
X8706372Y-16686082D02*
X8734944Y-16686082D01*
X8734944Y-16686082D02*
X8753991Y-16695606D01*
X8753991Y-16695606D02*
X8763515Y-16714653D01*
X8763515Y-16714653D02*
X8763515Y-16819415D01*
X9153991Y-16609891D02*
X8982563Y-16867034D01*
X9411134Y-16619415D02*
X9430182Y-16619415D01*
X9430182Y-16619415D02*
X9449229Y-16628939D01*
X9449229Y-16628939D02*
X9458753Y-16638463D01*
X9458753Y-16638463D02*
X9468277Y-16657510D01*
X9468277Y-16657510D02*
X9477801Y-16695606D01*
X9477801Y-16695606D02*
X9477801Y-16743225D01*
X9477801Y-16743225D02*
X9468277Y-16781320D01*
X9468277Y-16781320D02*
X9458753Y-16800368D01*
X9458753Y-16800368D02*
X9449229Y-16809891D01*
X9449229Y-16809891D02*
X9430182Y-16819415D01*
X9430182Y-16819415D02*
X9411134Y-16819415D01*
X9411134Y-16819415D02*
X9392087Y-16809891D01*
X9392087Y-16809891D02*
X9382563Y-16800368D01*
X9382563Y-16800368D02*
X9373039Y-16781320D01*
X9373039Y-16781320D02*
X9363515Y-16743225D01*
X9363515Y-16743225D02*
X9363515Y-16695606D01*
X9363515Y-16695606D02*
X9373039Y-16657510D01*
X9373039Y-16657510D02*
X9382563Y-16638463D01*
X9382563Y-16638463D02*
X9392087Y-16628939D01*
X9392087Y-16628939D02*
X9411134Y-16619415D01*
X9563515Y-16800368D02*
X9573039Y-16809891D01*
X9573039Y-16809891D02*
X9563515Y-16819415D01*
X9563515Y-16819415D02*
X9553991Y-16809891D01*
X9553991Y-16809891D02*
X9563515Y-16800368D01*
X9563515Y-16800368D02*
X9563515Y-16819415D01*
X9696848Y-16619415D02*
X9715896Y-16619415D01*
X9715896Y-16619415D02*
X9734944Y-16628939D01*
X9734944Y-16628939D02*
X9744468Y-16638463D01*
X9744468Y-16638463D02*
X9753991Y-16657510D01*
X9753991Y-16657510D02*
X9763515Y-16695606D01*
X9763515Y-16695606D02*
X9763515Y-16743225D01*
X9763515Y-16743225D02*
X9753991Y-16781320D01*
X9753991Y-16781320D02*
X9744468Y-16800368D01*
X9744468Y-16800368D02*
X9734944Y-16809891D01*
X9734944Y-16809891D02*
X9715896Y-16819415D01*
X9715896Y-16819415D02*
X9696848Y-16819415D01*
X9696848Y-16819415D02*
X9677801Y-16809891D01*
X9677801Y-16809891D02*
X9668277Y-16800368D01*
X9668277Y-16800368D02*
X9658753Y-16781320D01*
X9658753Y-16781320D02*
X9649229Y-16743225D01*
X9649229Y-16743225D02*
X9649229Y-16695606D01*
X9649229Y-16695606D02*
X9658753Y-16657510D01*
X9658753Y-16657510D02*
X9668277Y-16638463D01*
X9668277Y-16638463D02*
X9677801Y-16628939D01*
X9677801Y-16628939D02*
X9696848Y-16619415D01*
X9830182Y-16619415D02*
X9953991Y-16619415D01*
X9953991Y-16619415D02*
X9887325Y-16695606D01*
X9887325Y-16695606D02*
X9915896Y-16695606D01*
X9915896Y-16695606D02*
X9934944Y-16705129D01*
X9934944Y-16705129D02*
X9944468Y-16714653D01*
X9944468Y-16714653D02*
X9953991Y-16733701D01*
X9953991Y-16733701D02*
X9953991Y-16781320D01*
X9953991Y-16781320D02*
X9944468Y-16800368D01*
X9944468Y-16800368D02*
X9934944Y-16809891D01*
X9934944Y-16809891D02*
X9915896Y-16819415D01*
X9915896Y-16819415D02*
X9858753Y-16819415D01*
X9858753Y-16819415D02*
X9839706Y-16809891D01*
X9839706Y-16809891D02*
X9830182Y-16800368D01*
X10049229Y-16819415D02*
X10087325Y-16819415D01*
X10087325Y-16819415D02*
X10106372Y-16809891D01*
X10106372Y-16809891D02*
X10115896Y-16800368D01*
X10115896Y-16800368D02*
X10134944Y-16771796D01*
X10134944Y-16771796D02*
X10144468Y-16733701D01*
X10144468Y-16733701D02*
X10144468Y-16657510D01*
X10144468Y-16657510D02*
X10134944Y-16638463D01*
X10134944Y-16638463D02*
X10125420Y-16628939D01*
X10125420Y-16628939D02*
X10106372Y-16619415D01*
X10106372Y-16619415D02*
X10068277Y-16619415D01*
X10068277Y-16619415D02*
X10049229Y-16628939D01*
X10049229Y-16628939D02*
X10039706Y-16638463D01*
X10039706Y-16638463D02*
X10030182Y-16657510D01*
X10030182Y-16657510D02*
X10030182Y-16705129D01*
X10030182Y-16705129D02*
X10039706Y-16724177D01*
X10039706Y-16724177D02*
X10049229Y-16733701D01*
X10049229Y-16733701D02*
X10068277Y-16743225D01*
X10068277Y-16743225D02*
X10106372Y-16743225D01*
X10106372Y-16743225D02*
X10125420Y-16733701D01*
X10125420Y-16733701D02*
X10134944Y-16724177D01*
X10134944Y-16724177D02*
X10144468Y-16705129D01*
X10315896Y-16686082D02*
X10315896Y-16819415D01*
X10268277Y-16609891D02*
X10220658Y-16752748D01*
X10220658Y-16752748D02*
X10344468Y-16752748D01*
X10411134Y-16619415D02*
X10411134Y-16657510D01*
X10487325Y-16619415D02*
X10487325Y-16657510D01*
X10782563Y-16895606D02*
X10773039Y-16886082D01*
X10773039Y-16886082D02*
X10753991Y-16857510D01*
X10753991Y-16857510D02*
X10744468Y-16838463D01*
X10744468Y-16838463D02*
X10734944Y-16809891D01*
X10734944Y-16809891D02*
X10725420Y-16762272D01*
X10725420Y-16762272D02*
X10725420Y-16724177D01*
X10725420Y-16724177D02*
X10734944Y-16676558D01*
X10734944Y-16676558D02*
X10744468Y-16647987D01*
X10744468Y-16647987D02*
X10753991Y-16628939D01*
X10753991Y-16628939D02*
X10773039Y-16600367D01*
X10773039Y-16600367D02*
X10782563Y-16590844D01*
X10887325Y-16705129D02*
X10868277Y-16695606D01*
X10868277Y-16695606D02*
X10858753Y-16686082D01*
X10858753Y-16686082D02*
X10849230Y-16667034D01*
X10849230Y-16667034D02*
X10849230Y-16657510D01*
X10849230Y-16657510D02*
X10858753Y-16638463D01*
X10858753Y-16638463D02*
X10868277Y-16628939D01*
X10868277Y-16628939D02*
X10887325Y-16619415D01*
X10887325Y-16619415D02*
X10925420Y-16619415D01*
X10925420Y-16619415D02*
X10944468Y-16628939D01*
X10944468Y-16628939D02*
X10953991Y-16638463D01*
X10953991Y-16638463D02*
X10963515Y-16657510D01*
X10963515Y-16657510D02*
X10963515Y-16667034D01*
X10963515Y-16667034D02*
X10953991Y-16686082D01*
X10953991Y-16686082D02*
X10944468Y-16695606D01*
X10944468Y-16695606D02*
X10925420Y-16705129D01*
X10925420Y-16705129D02*
X10887325Y-16705129D01*
X10887325Y-16705129D02*
X10868277Y-16714653D01*
X10868277Y-16714653D02*
X10858753Y-16724177D01*
X10858753Y-16724177D02*
X10849230Y-16743225D01*
X10849230Y-16743225D02*
X10849230Y-16781320D01*
X10849230Y-16781320D02*
X10858753Y-16800368D01*
X10858753Y-16800368D02*
X10868277Y-16809891D01*
X10868277Y-16809891D02*
X10887325Y-16819415D01*
X10887325Y-16819415D02*
X10925420Y-16819415D01*
X10925420Y-16819415D02*
X10944468Y-16809891D01*
X10944468Y-16809891D02*
X10953991Y-16800368D01*
X10953991Y-16800368D02*
X10963515Y-16781320D01*
X10963515Y-16781320D02*
X10963515Y-16743225D01*
X10963515Y-16743225D02*
X10953991Y-16724177D01*
X10953991Y-16724177D02*
X10944468Y-16714653D01*
X10944468Y-16714653D02*
X10925420Y-16705129D01*
X11201610Y-16819415D02*
X11201610Y-16619415D01*
X11287325Y-16819415D02*
X11287325Y-16714653D01*
X11287325Y-16714653D02*
X11277801Y-16695606D01*
X11277801Y-16695606D02*
X11258753Y-16686082D01*
X11258753Y-16686082D02*
X11230182Y-16686082D01*
X11230182Y-16686082D02*
X11211134Y-16695606D01*
X11211134Y-16695606D02*
X11201610Y-16705129D01*
X11411134Y-16819415D02*
X11392087Y-16809891D01*
X11392087Y-16809891D02*
X11382563Y-16800368D01*
X11382563Y-16800368D02*
X11373039Y-16781320D01*
X11373039Y-16781320D02*
X11373039Y-16724177D01*
X11373039Y-16724177D02*
X11382563Y-16705129D01*
X11382563Y-16705129D02*
X11392087Y-16695606D01*
X11392087Y-16695606D02*
X11411134Y-16686082D01*
X11411134Y-16686082D02*
X11439706Y-16686082D01*
X11439706Y-16686082D02*
X11458753Y-16695606D01*
X11458753Y-16695606D02*
X11468277Y-16705129D01*
X11468277Y-16705129D02*
X11477801Y-16724177D01*
X11477801Y-16724177D02*
X11477801Y-16781320D01*
X11477801Y-16781320D02*
X11468277Y-16800368D01*
X11468277Y-16800368D02*
X11458753Y-16809891D01*
X11458753Y-16809891D02*
X11439706Y-16819415D01*
X11439706Y-16819415D02*
X11411134Y-16819415D01*
X11592087Y-16819415D02*
X11573039Y-16809891D01*
X11573039Y-16809891D02*
X11563515Y-16790844D01*
X11563515Y-16790844D02*
X11563515Y-16619415D01*
X11744468Y-16809891D02*
X11725420Y-16819415D01*
X11725420Y-16819415D02*
X11687325Y-16819415D01*
X11687325Y-16819415D02*
X11668277Y-16809891D01*
X11668277Y-16809891D02*
X11658753Y-16790844D01*
X11658753Y-16790844D02*
X11658753Y-16714653D01*
X11658753Y-16714653D02*
X11668277Y-16695606D01*
X11668277Y-16695606D02*
X11687325Y-16686082D01*
X11687325Y-16686082D02*
X11725420Y-16686082D01*
X11725420Y-16686082D02*
X11744468Y-16695606D01*
X11744468Y-16695606D02*
X11753991Y-16714653D01*
X11753991Y-16714653D02*
X11753991Y-16733701D01*
X11753991Y-16733701D02*
X11658753Y-16752748D01*
X11830182Y-16809891D02*
X11849230Y-16819415D01*
X11849230Y-16819415D02*
X11887325Y-16819415D01*
X11887325Y-16819415D02*
X11906372Y-16809891D01*
X11906372Y-16809891D02*
X11915896Y-16790844D01*
X11915896Y-16790844D02*
X11915896Y-16781320D01*
X11915896Y-16781320D02*
X11906372Y-16762272D01*
X11906372Y-16762272D02*
X11887325Y-16752748D01*
X11887325Y-16752748D02*
X11858753Y-16752748D01*
X11858753Y-16752748D02*
X11839706Y-16743225D01*
X11839706Y-16743225D02*
X11830182Y-16724177D01*
X11830182Y-16724177D02*
X11830182Y-16714653D01*
X11830182Y-16714653D02*
X11839706Y-16695606D01*
X11839706Y-16695606D02*
X11858753Y-16686082D01*
X11858753Y-16686082D02*
X11887325Y-16686082D01*
X11887325Y-16686082D02*
X11906372Y-16695606D01*
X11982563Y-16895606D02*
X11992087Y-16886082D01*
X11992087Y-16886082D02*
X12011134Y-16857510D01*
X12011134Y-16857510D02*
X12020658Y-16838463D01*
X12020658Y-16838463D02*
X12030182Y-16809891D01*
X12030182Y-16809891D02*
X12039706Y-16762272D01*
X12039706Y-16762272D02*
X12039706Y-16724177D01*
X12039706Y-16724177D02*
X12030182Y-16676558D01*
X12030182Y-16676558D02*
X12020658Y-16647987D01*
X12020658Y-16647987D02*
X12011134Y-16628939D01*
X12011134Y-16628939D02*
X11992087Y-16600367D01*
X11992087Y-16600367D02*
X11982563Y-16590844D01*
D13*
X7152500Y-17046931D02*
X7207500Y-16991931D01*
X7152500Y-16936931D01*
X7097500Y-16991931D01*
X7152500Y-17046931D01*
D11*
X7573039Y-17083415D02*
X7458753Y-17083415D01*
X7515896Y-17083415D02*
X7515896Y-16883415D01*
X7515896Y-16883415D02*
X7496848Y-16911987D01*
X7496848Y-16911987D02*
X7477801Y-16931034D01*
X7477801Y-16931034D02*
X7458753Y-16940558D01*
X7658753Y-17064368D02*
X7668277Y-17073891D01*
X7668277Y-17073891D02*
X7658753Y-17083415D01*
X7658753Y-17083415D02*
X7649229Y-17073891D01*
X7649229Y-17073891D02*
X7658753Y-17064368D01*
X7658753Y-17064368D02*
X7658753Y-17083415D01*
X7858753Y-17083415D02*
X7744467Y-17083415D01*
X7801610Y-17083415D02*
X7801610Y-16883415D01*
X7801610Y-16883415D02*
X7782562Y-16911987D01*
X7782562Y-16911987D02*
X7763515Y-16931034D01*
X7763515Y-16931034D02*
X7744467Y-16940558D01*
X7982562Y-16883415D02*
X8001610Y-16883415D01*
X8001610Y-16883415D02*
X8020658Y-16892939D01*
X8020658Y-16892939D02*
X8030182Y-16902463D01*
X8030182Y-16902463D02*
X8039705Y-16921510D01*
X8039705Y-16921510D02*
X8049229Y-16959606D01*
X8049229Y-16959606D02*
X8049229Y-17007225D01*
X8049229Y-17007225D02*
X8039705Y-17045320D01*
X8039705Y-17045320D02*
X8030182Y-17064368D01*
X8030182Y-17064368D02*
X8020658Y-17073891D01*
X8020658Y-17073891D02*
X8001610Y-17083415D01*
X8001610Y-17083415D02*
X7982562Y-17083415D01*
X7982562Y-17083415D02*
X7963515Y-17073891D01*
X7963515Y-17073891D02*
X7953991Y-17064368D01*
X7953991Y-17064368D02*
X7944467Y-17045320D01*
X7944467Y-17045320D02*
X7934943Y-17007225D01*
X7934943Y-17007225D02*
X7934943Y-16959606D01*
X7934943Y-16959606D02*
X7944467Y-16921510D01*
X7944467Y-16921510D02*
X7953991Y-16902463D01*
X7953991Y-16902463D02*
X7963515Y-16892939D01*
X7963515Y-16892939D02*
X7982562Y-16883415D01*
X8173039Y-16883415D02*
X8192086Y-16883415D01*
X8192086Y-16883415D02*
X8211134Y-16892939D01*
X8211134Y-16892939D02*
X8220658Y-16902463D01*
X8220658Y-16902463D02*
X8230182Y-16921510D01*
X8230182Y-16921510D02*
X8239705Y-16959606D01*
X8239705Y-16959606D02*
X8239705Y-17007225D01*
X8239705Y-17007225D02*
X8230182Y-17045320D01*
X8230182Y-17045320D02*
X8220658Y-17064368D01*
X8220658Y-17064368D02*
X8211134Y-17073891D01*
X8211134Y-17073891D02*
X8192086Y-17083415D01*
X8192086Y-17083415D02*
X8173039Y-17083415D01*
X8173039Y-17083415D02*
X8153991Y-17073891D01*
X8153991Y-17073891D02*
X8144467Y-17064368D01*
X8144467Y-17064368D02*
X8134943Y-17045320D01*
X8134943Y-17045320D02*
X8125420Y-17007225D01*
X8125420Y-17007225D02*
X8125420Y-16959606D01*
X8125420Y-16959606D02*
X8134943Y-16921510D01*
X8134943Y-16921510D02*
X8144467Y-16902463D01*
X8144467Y-16902463D02*
X8153991Y-16892939D01*
X8153991Y-16892939D02*
X8173039Y-16883415D01*
X8325420Y-17083415D02*
X8325420Y-16950082D01*
X8325420Y-16969129D02*
X8334943Y-16959606D01*
X8334943Y-16959606D02*
X8353991Y-16950082D01*
X8353991Y-16950082D02*
X8382563Y-16950082D01*
X8382563Y-16950082D02*
X8401610Y-16959606D01*
X8401610Y-16959606D02*
X8411134Y-16978653D01*
X8411134Y-16978653D02*
X8411134Y-17083415D01*
X8411134Y-16978653D02*
X8420658Y-16959606D01*
X8420658Y-16959606D02*
X8439705Y-16950082D01*
X8439705Y-16950082D02*
X8468277Y-16950082D01*
X8468277Y-16950082D02*
X8487325Y-16959606D01*
X8487325Y-16959606D02*
X8496848Y-16978653D01*
X8496848Y-16978653D02*
X8496848Y-17083415D01*
X8592086Y-17083415D02*
X8592086Y-16950082D01*
X8592086Y-16969129D02*
X8601610Y-16959606D01*
X8601610Y-16959606D02*
X8620658Y-16950082D01*
X8620658Y-16950082D02*
X8649229Y-16950082D01*
X8649229Y-16950082D02*
X8668277Y-16959606D01*
X8668277Y-16959606D02*
X8677801Y-16978653D01*
X8677801Y-16978653D02*
X8677801Y-17083415D01*
X8677801Y-16978653D02*
X8687325Y-16959606D01*
X8687325Y-16959606D02*
X8706372Y-16950082D01*
X8706372Y-16950082D02*
X8734944Y-16950082D01*
X8734944Y-16950082D02*
X8753991Y-16959606D01*
X8753991Y-16959606D02*
X8763515Y-16978653D01*
X8763515Y-16978653D02*
X8763515Y-17083415D01*
X9153991Y-16873891D02*
X8982563Y-17131034D01*
X9411134Y-16883415D02*
X9430182Y-16883415D01*
X9430182Y-16883415D02*
X9449229Y-16892939D01*
X9449229Y-16892939D02*
X9458753Y-16902463D01*
X9458753Y-16902463D02*
X9468277Y-16921510D01*
X9468277Y-16921510D02*
X9477801Y-16959606D01*
X9477801Y-16959606D02*
X9477801Y-17007225D01*
X9477801Y-17007225D02*
X9468277Y-17045320D01*
X9468277Y-17045320D02*
X9458753Y-17064368D01*
X9458753Y-17064368D02*
X9449229Y-17073891D01*
X9449229Y-17073891D02*
X9430182Y-17083415D01*
X9430182Y-17083415D02*
X9411134Y-17083415D01*
X9411134Y-17083415D02*
X9392087Y-17073891D01*
X9392087Y-17073891D02*
X9382563Y-17064368D01*
X9382563Y-17064368D02*
X9373039Y-17045320D01*
X9373039Y-17045320D02*
X9363515Y-17007225D01*
X9363515Y-17007225D02*
X9363515Y-16959606D01*
X9363515Y-16959606D02*
X9373039Y-16921510D01*
X9373039Y-16921510D02*
X9382563Y-16902463D01*
X9382563Y-16902463D02*
X9392087Y-16892939D01*
X9392087Y-16892939D02*
X9411134Y-16883415D01*
X9563515Y-17064368D02*
X9573039Y-17073891D01*
X9573039Y-17073891D02*
X9563515Y-17083415D01*
X9563515Y-17083415D02*
X9553991Y-17073891D01*
X9553991Y-17073891D02*
X9563515Y-17064368D01*
X9563515Y-17064368D02*
X9563515Y-17083415D01*
X9696848Y-16883415D02*
X9715896Y-16883415D01*
X9715896Y-16883415D02*
X9734944Y-16892939D01*
X9734944Y-16892939D02*
X9744468Y-16902463D01*
X9744468Y-16902463D02*
X9753991Y-16921510D01*
X9753991Y-16921510D02*
X9763515Y-16959606D01*
X9763515Y-16959606D02*
X9763515Y-17007225D01*
X9763515Y-17007225D02*
X9753991Y-17045320D01*
X9753991Y-17045320D02*
X9744468Y-17064368D01*
X9744468Y-17064368D02*
X9734944Y-17073891D01*
X9734944Y-17073891D02*
X9715896Y-17083415D01*
X9715896Y-17083415D02*
X9696848Y-17083415D01*
X9696848Y-17083415D02*
X9677801Y-17073891D01*
X9677801Y-17073891D02*
X9668277Y-17064368D01*
X9668277Y-17064368D02*
X9658753Y-17045320D01*
X9658753Y-17045320D02*
X9649229Y-17007225D01*
X9649229Y-17007225D02*
X9649229Y-16959606D01*
X9649229Y-16959606D02*
X9658753Y-16921510D01*
X9658753Y-16921510D02*
X9668277Y-16902463D01*
X9668277Y-16902463D02*
X9677801Y-16892939D01*
X9677801Y-16892939D02*
X9696848Y-16883415D01*
X9934944Y-16950082D02*
X9934944Y-17083415D01*
X9887325Y-16873891D02*
X9839706Y-17016749D01*
X9839706Y-17016749D02*
X9963515Y-17016749D01*
X10020658Y-16883415D02*
X10144468Y-16883415D01*
X10144468Y-16883415D02*
X10077801Y-16959606D01*
X10077801Y-16959606D02*
X10106372Y-16959606D01*
X10106372Y-16959606D02*
X10125420Y-16969129D01*
X10125420Y-16969129D02*
X10134944Y-16978653D01*
X10134944Y-16978653D02*
X10144468Y-16997701D01*
X10144468Y-16997701D02*
X10144468Y-17045320D01*
X10144468Y-17045320D02*
X10134944Y-17064368D01*
X10134944Y-17064368D02*
X10125420Y-17073891D01*
X10125420Y-17073891D02*
X10106372Y-17083415D01*
X10106372Y-17083415D02*
X10049229Y-17083415D01*
X10049229Y-17083415D02*
X10030182Y-17073891D01*
X10030182Y-17073891D02*
X10020658Y-17064368D01*
X10211134Y-16883415D02*
X10334944Y-16883415D01*
X10334944Y-16883415D02*
X10268277Y-16959606D01*
X10268277Y-16959606D02*
X10296849Y-16959606D01*
X10296849Y-16959606D02*
X10315896Y-16969129D01*
X10315896Y-16969129D02*
X10325420Y-16978653D01*
X10325420Y-16978653D02*
X10334944Y-16997701D01*
X10334944Y-16997701D02*
X10334944Y-17045320D01*
X10334944Y-17045320D02*
X10325420Y-17064368D01*
X10325420Y-17064368D02*
X10315896Y-17073891D01*
X10315896Y-17073891D02*
X10296849Y-17083415D01*
X10296849Y-17083415D02*
X10239706Y-17083415D01*
X10239706Y-17083415D02*
X10220658Y-17073891D01*
X10220658Y-17073891D02*
X10211134Y-17064368D01*
X10411134Y-16883415D02*
X10411134Y-16921510D01*
X10487325Y-16883415D02*
X10487325Y-16921510D01*
X10782563Y-17159606D02*
X10773039Y-17150082D01*
X10773039Y-17150082D02*
X10753991Y-17121510D01*
X10753991Y-17121510D02*
X10744468Y-17102463D01*
X10744468Y-17102463D02*
X10734944Y-17073891D01*
X10734944Y-17073891D02*
X10725420Y-17026272D01*
X10725420Y-17026272D02*
X10725420Y-16988177D01*
X10725420Y-16988177D02*
X10734944Y-16940558D01*
X10734944Y-16940558D02*
X10744468Y-16911987D01*
X10744468Y-16911987D02*
X10753991Y-16892939D01*
X10753991Y-16892939D02*
X10773039Y-16864368D01*
X10773039Y-16864368D02*
X10782563Y-16854844D01*
X10849230Y-16902463D02*
X10858753Y-16892939D01*
X10858753Y-16892939D02*
X10877801Y-16883415D01*
X10877801Y-16883415D02*
X10925420Y-16883415D01*
X10925420Y-16883415D02*
X10944468Y-16892939D01*
X10944468Y-16892939D02*
X10953991Y-16902463D01*
X10953991Y-16902463D02*
X10963515Y-16921510D01*
X10963515Y-16921510D02*
X10963515Y-16940558D01*
X10963515Y-16940558D02*
X10953991Y-16969129D01*
X10953991Y-16969129D02*
X10839706Y-17083415D01*
X10839706Y-17083415D02*
X10963515Y-17083415D01*
X11201610Y-17083415D02*
X11201610Y-16883415D01*
X11287325Y-17083415D02*
X11287325Y-16978653D01*
X11287325Y-16978653D02*
X11277801Y-16959606D01*
X11277801Y-16959606D02*
X11258753Y-16950082D01*
X11258753Y-16950082D02*
X11230182Y-16950082D01*
X11230182Y-16950082D02*
X11211134Y-16959606D01*
X11211134Y-16959606D02*
X11201610Y-16969129D01*
X11411134Y-17083415D02*
X11392087Y-17073891D01*
X11392087Y-17073891D02*
X11382563Y-17064368D01*
X11382563Y-17064368D02*
X11373039Y-17045320D01*
X11373039Y-17045320D02*
X11373039Y-16988177D01*
X11373039Y-16988177D02*
X11382563Y-16969129D01*
X11382563Y-16969129D02*
X11392087Y-16959606D01*
X11392087Y-16959606D02*
X11411134Y-16950082D01*
X11411134Y-16950082D02*
X11439706Y-16950082D01*
X11439706Y-16950082D02*
X11458753Y-16959606D01*
X11458753Y-16959606D02*
X11468277Y-16969129D01*
X11468277Y-16969129D02*
X11477801Y-16988177D01*
X11477801Y-16988177D02*
X11477801Y-17045320D01*
X11477801Y-17045320D02*
X11468277Y-17064368D01*
X11468277Y-17064368D02*
X11458753Y-17073891D01*
X11458753Y-17073891D02*
X11439706Y-17083415D01*
X11439706Y-17083415D02*
X11411134Y-17083415D01*
X11592087Y-17083415D02*
X11573039Y-17073891D01*
X11573039Y-17073891D02*
X11563515Y-17054844D01*
X11563515Y-17054844D02*
X11563515Y-16883415D01*
X11744468Y-17073891D02*
X11725420Y-17083415D01*
X11725420Y-17083415D02*
X11687325Y-17083415D01*
X11687325Y-17083415D02*
X11668277Y-17073891D01*
X11668277Y-17073891D02*
X11658753Y-17054844D01*
X11658753Y-17054844D02*
X11658753Y-16978653D01*
X11658753Y-16978653D02*
X11668277Y-16959606D01*
X11668277Y-16959606D02*
X11687325Y-16950082D01*
X11687325Y-16950082D02*
X11725420Y-16950082D01*
X11725420Y-16950082D02*
X11744468Y-16959606D01*
X11744468Y-16959606D02*
X11753991Y-16978653D01*
X11753991Y-16978653D02*
X11753991Y-16997701D01*
X11753991Y-16997701D02*
X11658753Y-17016749D01*
X11830182Y-17073891D02*
X11849230Y-17083415D01*
X11849230Y-17083415D02*
X11887325Y-17083415D01*
X11887325Y-17083415D02*
X11906372Y-17073891D01*
X11906372Y-17073891D02*
X11915896Y-17054844D01*
X11915896Y-17054844D02*
X11915896Y-17045320D01*
X11915896Y-17045320D02*
X11906372Y-17026272D01*
X11906372Y-17026272D02*
X11887325Y-17016749D01*
X11887325Y-17016749D02*
X11858753Y-17016749D01*
X11858753Y-17016749D02*
X11839706Y-17007225D01*
X11839706Y-17007225D02*
X11830182Y-16988177D01*
X11830182Y-16988177D02*
X11830182Y-16978653D01*
X11830182Y-16978653D02*
X11839706Y-16959606D01*
X11839706Y-16959606D02*
X11858753Y-16950082D01*
X11858753Y-16950082D02*
X11887325Y-16950082D01*
X11887325Y-16950082D02*
X11906372Y-16959606D01*
X11982563Y-17159606D02*
X11992087Y-17150082D01*
X11992087Y-17150082D02*
X12011134Y-17121510D01*
X12011134Y-17121510D02*
X12020658Y-17102463D01*
X12020658Y-17102463D02*
X12030182Y-17073891D01*
X12030182Y-17073891D02*
X12039706Y-17026272D01*
X12039706Y-17026272D02*
X12039706Y-16988177D01*
X12039706Y-16988177D02*
X12030182Y-16940558D01*
X12030182Y-16940558D02*
X12020658Y-16911987D01*
X12020658Y-16911987D02*
X12011134Y-16892939D01*
X12011134Y-16892939D02*
X11992087Y-16864368D01*
X11992087Y-16864368D02*
X11982563Y-16854844D01*
D14*
X7057500Y-17180931D02*
X7207500Y-17330931D01*
X7207500Y-17180931D02*
X7057500Y-17330931D01*
X7207500Y-17255931D02*
G75*
G02*
X7057500Y-17255931I-75000J0D01*
G01*
X7057500Y-17255931D02*
G75*
G02*
X7207500Y-17255931I75000J0D01*
G01*
D11*
X7573039Y-17347415D02*
X7458753Y-17347415D01*
X7515896Y-17347415D02*
X7515896Y-17147415D01*
X7515896Y-17147415D02*
X7496848Y-17175987D01*
X7496848Y-17175987D02*
X7477801Y-17195034D01*
X7477801Y-17195034D02*
X7458753Y-17204558D01*
X7658753Y-17328368D02*
X7668277Y-17337891D01*
X7668277Y-17337891D02*
X7658753Y-17347415D01*
X7658753Y-17347415D02*
X7649229Y-17337891D01*
X7649229Y-17337891D02*
X7658753Y-17328368D01*
X7658753Y-17328368D02*
X7658753Y-17347415D01*
X7849229Y-17147415D02*
X7753991Y-17147415D01*
X7753991Y-17147415D02*
X7744467Y-17242653D01*
X7744467Y-17242653D02*
X7753991Y-17233129D01*
X7753991Y-17233129D02*
X7773039Y-17223606D01*
X7773039Y-17223606D02*
X7820658Y-17223606D01*
X7820658Y-17223606D02*
X7839705Y-17233129D01*
X7839705Y-17233129D02*
X7849229Y-17242653D01*
X7849229Y-17242653D02*
X7858753Y-17261701D01*
X7858753Y-17261701D02*
X7858753Y-17309320D01*
X7858753Y-17309320D02*
X7849229Y-17328368D01*
X7849229Y-17328368D02*
X7839705Y-17337891D01*
X7839705Y-17337891D02*
X7820658Y-17347415D01*
X7820658Y-17347415D02*
X7773039Y-17347415D01*
X7773039Y-17347415D02*
X7753991Y-17337891D01*
X7753991Y-17337891D02*
X7744467Y-17328368D01*
X7982562Y-17147415D02*
X8001610Y-17147415D01*
X8001610Y-17147415D02*
X8020658Y-17156939D01*
X8020658Y-17156939D02*
X8030182Y-17166463D01*
X8030182Y-17166463D02*
X8039705Y-17185510D01*
X8039705Y-17185510D02*
X8049229Y-17223606D01*
X8049229Y-17223606D02*
X8049229Y-17271225D01*
X8049229Y-17271225D02*
X8039705Y-17309320D01*
X8039705Y-17309320D02*
X8030182Y-17328368D01*
X8030182Y-17328368D02*
X8020658Y-17337891D01*
X8020658Y-17337891D02*
X8001610Y-17347415D01*
X8001610Y-17347415D02*
X7982562Y-17347415D01*
X7982562Y-17347415D02*
X7963515Y-17337891D01*
X7963515Y-17337891D02*
X7953991Y-17328368D01*
X7953991Y-17328368D02*
X7944467Y-17309320D01*
X7944467Y-17309320D02*
X7934943Y-17271225D01*
X7934943Y-17271225D02*
X7934943Y-17223606D01*
X7934943Y-17223606D02*
X7944467Y-17185510D01*
X7944467Y-17185510D02*
X7953991Y-17166463D01*
X7953991Y-17166463D02*
X7963515Y-17156939D01*
X7963515Y-17156939D02*
X7982562Y-17147415D01*
X8173039Y-17147415D02*
X8192086Y-17147415D01*
X8192086Y-17147415D02*
X8211134Y-17156939D01*
X8211134Y-17156939D02*
X8220658Y-17166463D01*
X8220658Y-17166463D02*
X8230182Y-17185510D01*
X8230182Y-17185510D02*
X8239705Y-17223606D01*
X8239705Y-17223606D02*
X8239705Y-17271225D01*
X8239705Y-17271225D02*
X8230182Y-17309320D01*
X8230182Y-17309320D02*
X8220658Y-17328368D01*
X8220658Y-17328368D02*
X8211134Y-17337891D01*
X8211134Y-17337891D02*
X8192086Y-17347415D01*
X8192086Y-17347415D02*
X8173039Y-17347415D01*
X8173039Y-17347415D02*
X8153991Y-17337891D01*
X8153991Y-17337891D02*
X8144467Y-17328368D01*
X8144467Y-17328368D02*
X8134943Y-17309320D01*
X8134943Y-17309320D02*
X8125420Y-17271225D01*
X8125420Y-17271225D02*
X8125420Y-17223606D01*
X8125420Y-17223606D02*
X8134943Y-17185510D01*
X8134943Y-17185510D02*
X8144467Y-17166463D01*
X8144467Y-17166463D02*
X8153991Y-17156939D01*
X8153991Y-17156939D02*
X8173039Y-17147415D01*
X8325420Y-17347415D02*
X8325420Y-17214082D01*
X8325420Y-17233129D02*
X8334943Y-17223606D01*
X8334943Y-17223606D02*
X8353991Y-17214082D01*
X8353991Y-17214082D02*
X8382563Y-17214082D01*
X8382563Y-17214082D02*
X8401610Y-17223606D01*
X8401610Y-17223606D02*
X8411134Y-17242653D01*
X8411134Y-17242653D02*
X8411134Y-17347415D01*
X8411134Y-17242653D02*
X8420658Y-17223606D01*
X8420658Y-17223606D02*
X8439705Y-17214082D01*
X8439705Y-17214082D02*
X8468277Y-17214082D01*
X8468277Y-17214082D02*
X8487325Y-17223606D01*
X8487325Y-17223606D02*
X8496848Y-17242653D01*
X8496848Y-17242653D02*
X8496848Y-17347415D01*
X8592086Y-17347415D02*
X8592086Y-17214082D01*
X8592086Y-17233129D02*
X8601610Y-17223606D01*
X8601610Y-17223606D02*
X8620658Y-17214082D01*
X8620658Y-17214082D02*
X8649229Y-17214082D01*
X8649229Y-17214082D02*
X8668277Y-17223606D01*
X8668277Y-17223606D02*
X8677801Y-17242653D01*
X8677801Y-17242653D02*
X8677801Y-17347415D01*
X8677801Y-17242653D02*
X8687325Y-17223606D01*
X8687325Y-17223606D02*
X8706372Y-17214082D01*
X8706372Y-17214082D02*
X8734944Y-17214082D01*
X8734944Y-17214082D02*
X8753991Y-17223606D01*
X8753991Y-17223606D02*
X8763515Y-17242653D01*
X8763515Y-17242653D02*
X8763515Y-17347415D01*
X9153991Y-17137891D02*
X8982563Y-17395034D01*
X9411134Y-17147415D02*
X9430182Y-17147415D01*
X9430182Y-17147415D02*
X9449229Y-17156939D01*
X9449229Y-17156939D02*
X9458753Y-17166463D01*
X9458753Y-17166463D02*
X9468277Y-17185510D01*
X9468277Y-17185510D02*
X9477801Y-17223606D01*
X9477801Y-17223606D02*
X9477801Y-17271225D01*
X9477801Y-17271225D02*
X9468277Y-17309320D01*
X9468277Y-17309320D02*
X9458753Y-17328368D01*
X9458753Y-17328368D02*
X9449229Y-17337891D01*
X9449229Y-17337891D02*
X9430182Y-17347415D01*
X9430182Y-17347415D02*
X9411134Y-17347415D01*
X9411134Y-17347415D02*
X9392087Y-17337891D01*
X9392087Y-17337891D02*
X9382563Y-17328368D01*
X9382563Y-17328368D02*
X9373039Y-17309320D01*
X9373039Y-17309320D02*
X9363515Y-17271225D01*
X9363515Y-17271225D02*
X9363515Y-17223606D01*
X9363515Y-17223606D02*
X9373039Y-17185510D01*
X9373039Y-17185510D02*
X9382563Y-17166463D01*
X9382563Y-17166463D02*
X9392087Y-17156939D01*
X9392087Y-17156939D02*
X9411134Y-17147415D01*
X9563515Y-17328368D02*
X9573039Y-17337891D01*
X9573039Y-17337891D02*
X9563515Y-17347415D01*
X9563515Y-17347415D02*
X9553991Y-17337891D01*
X9553991Y-17337891D02*
X9563515Y-17328368D01*
X9563515Y-17328368D02*
X9563515Y-17347415D01*
X9696848Y-17147415D02*
X9715896Y-17147415D01*
X9715896Y-17147415D02*
X9734944Y-17156939D01*
X9734944Y-17156939D02*
X9744468Y-17166463D01*
X9744468Y-17166463D02*
X9753991Y-17185510D01*
X9753991Y-17185510D02*
X9763515Y-17223606D01*
X9763515Y-17223606D02*
X9763515Y-17271225D01*
X9763515Y-17271225D02*
X9753991Y-17309320D01*
X9753991Y-17309320D02*
X9744468Y-17328368D01*
X9744468Y-17328368D02*
X9734944Y-17337891D01*
X9734944Y-17337891D02*
X9715896Y-17347415D01*
X9715896Y-17347415D02*
X9696848Y-17347415D01*
X9696848Y-17347415D02*
X9677801Y-17337891D01*
X9677801Y-17337891D02*
X9668277Y-17328368D01*
X9668277Y-17328368D02*
X9658753Y-17309320D01*
X9658753Y-17309320D02*
X9649229Y-17271225D01*
X9649229Y-17271225D02*
X9649229Y-17223606D01*
X9649229Y-17223606D02*
X9658753Y-17185510D01*
X9658753Y-17185510D02*
X9668277Y-17166463D01*
X9668277Y-17166463D02*
X9677801Y-17156939D01*
X9677801Y-17156939D02*
X9696848Y-17147415D01*
X9944468Y-17147415D02*
X9849229Y-17147415D01*
X9849229Y-17147415D02*
X9839706Y-17242653D01*
X9839706Y-17242653D02*
X9849229Y-17233129D01*
X9849229Y-17233129D02*
X9868277Y-17223606D01*
X9868277Y-17223606D02*
X9915896Y-17223606D01*
X9915896Y-17223606D02*
X9934944Y-17233129D01*
X9934944Y-17233129D02*
X9944468Y-17242653D01*
X9944468Y-17242653D02*
X9953991Y-17261701D01*
X9953991Y-17261701D02*
X9953991Y-17309320D01*
X9953991Y-17309320D02*
X9944468Y-17328368D01*
X9944468Y-17328368D02*
X9934944Y-17337891D01*
X9934944Y-17337891D02*
X9915896Y-17347415D01*
X9915896Y-17347415D02*
X9868277Y-17347415D01*
X9868277Y-17347415D02*
X9849229Y-17337891D01*
X9849229Y-17337891D02*
X9839706Y-17328368D01*
X10049229Y-17347415D02*
X10087325Y-17347415D01*
X10087325Y-17347415D02*
X10106372Y-17337891D01*
X10106372Y-17337891D02*
X10115896Y-17328368D01*
X10115896Y-17328368D02*
X10134944Y-17299796D01*
X10134944Y-17299796D02*
X10144468Y-17261701D01*
X10144468Y-17261701D02*
X10144468Y-17185510D01*
X10144468Y-17185510D02*
X10134944Y-17166463D01*
X10134944Y-17166463D02*
X10125420Y-17156939D01*
X10125420Y-17156939D02*
X10106372Y-17147415D01*
X10106372Y-17147415D02*
X10068277Y-17147415D01*
X10068277Y-17147415D02*
X10049229Y-17156939D01*
X10049229Y-17156939D02*
X10039706Y-17166463D01*
X10039706Y-17166463D02*
X10030182Y-17185510D01*
X10030182Y-17185510D02*
X10030182Y-17233129D01*
X10030182Y-17233129D02*
X10039706Y-17252177D01*
X10039706Y-17252177D02*
X10049229Y-17261701D01*
X10049229Y-17261701D02*
X10068277Y-17271225D01*
X10068277Y-17271225D02*
X10106372Y-17271225D01*
X10106372Y-17271225D02*
X10125420Y-17261701D01*
X10125420Y-17261701D02*
X10134944Y-17252177D01*
X10134944Y-17252177D02*
X10144468Y-17233129D01*
X10334944Y-17347415D02*
X10220658Y-17347415D01*
X10277801Y-17347415D02*
X10277801Y-17147415D01*
X10277801Y-17147415D02*
X10258753Y-17175987D01*
X10258753Y-17175987D02*
X10239706Y-17195034D01*
X10239706Y-17195034D02*
X10220658Y-17204558D01*
X10411134Y-17147415D02*
X10411134Y-17185510D01*
X10487325Y-17147415D02*
X10487325Y-17185510D01*
X10782563Y-17423606D02*
X10773039Y-17414082D01*
X10773039Y-17414082D02*
X10753991Y-17385510D01*
X10753991Y-17385510D02*
X10744468Y-17366463D01*
X10744468Y-17366463D02*
X10734944Y-17337891D01*
X10734944Y-17337891D02*
X10725420Y-17290272D01*
X10725420Y-17290272D02*
X10725420Y-17252177D01*
X10725420Y-17252177D02*
X10734944Y-17204558D01*
X10734944Y-17204558D02*
X10744468Y-17175987D01*
X10744468Y-17175987D02*
X10753991Y-17156939D01*
X10753991Y-17156939D02*
X10773039Y-17128368D01*
X10773039Y-17128368D02*
X10782563Y-17118844D01*
X10849230Y-17166463D02*
X10858753Y-17156939D01*
X10858753Y-17156939D02*
X10877801Y-17147415D01*
X10877801Y-17147415D02*
X10925420Y-17147415D01*
X10925420Y-17147415D02*
X10944468Y-17156939D01*
X10944468Y-17156939D02*
X10953991Y-17166463D01*
X10953991Y-17166463D02*
X10963515Y-17185510D01*
X10963515Y-17185510D02*
X10963515Y-17204558D01*
X10963515Y-17204558D02*
X10953991Y-17233129D01*
X10953991Y-17233129D02*
X10839706Y-17347415D01*
X10839706Y-17347415D02*
X10963515Y-17347415D01*
X11201610Y-17347415D02*
X11201610Y-17147415D01*
X11287325Y-17347415D02*
X11287325Y-17242653D01*
X11287325Y-17242653D02*
X11277801Y-17223606D01*
X11277801Y-17223606D02*
X11258753Y-17214082D01*
X11258753Y-17214082D02*
X11230182Y-17214082D01*
X11230182Y-17214082D02*
X11211134Y-17223606D01*
X11211134Y-17223606D02*
X11201610Y-17233129D01*
X11411134Y-17347415D02*
X11392087Y-17337891D01*
X11392087Y-17337891D02*
X11382563Y-17328368D01*
X11382563Y-17328368D02*
X11373039Y-17309320D01*
X11373039Y-17309320D02*
X11373039Y-17252177D01*
X11373039Y-17252177D02*
X11382563Y-17233129D01*
X11382563Y-17233129D02*
X11392087Y-17223606D01*
X11392087Y-17223606D02*
X11411134Y-17214082D01*
X11411134Y-17214082D02*
X11439706Y-17214082D01*
X11439706Y-17214082D02*
X11458753Y-17223606D01*
X11458753Y-17223606D02*
X11468277Y-17233129D01*
X11468277Y-17233129D02*
X11477801Y-17252177D01*
X11477801Y-17252177D02*
X11477801Y-17309320D01*
X11477801Y-17309320D02*
X11468277Y-17328368D01*
X11468277Y-17328368D02*
X11458753Y-17337891D01*
X11458753Y-17337891D02*
X11439706Y-17347415D01*
X11439706Y-17347415D02*
X11411134Y-17347415D01*
X11592087Y-17347415D02*
X11573039Y-17337891D01*
X11573039Y-17337891D02*
X11563515Y-17318844D01*
X11563515Y-17318844D02*
X11563515Y-17147415D01*
X11744468Y-17337891D02*
X11725420Y-17347415D01*
X11725420Y-17347415D02*
X11687325Y-17347415D01*
X11687325Y-17347415D02*
X11668277Y-17337891D01*
X11668277Y-17337891D02*
X11658753Y-17318844D01*
X11658753Y-17318844D02*
X11658753Y-17242653D01*
X11658753Y-17242653D02*
X11668277Y-17223606D01*
X11668277Y-17223606D02*
X11687325Y-17214082D01*
X11687325Y-17214082D02*
X11725420Y-17214082D01*
X11725420Y-17214082D02*
X11744468Y-17223606D01*
X11744468Y-17223606D02*
X11753991Y-17242653D01*
X11753991Y-17242653D02*
X11753991Y-17261701D01*
X11753991Y-17261701D02*
X11658753Y-17280749D01*
X11830182Y-17337891D02*
X11849230Y-17347415D01*
X11849230Y-17347415D02*
X11887325Y-17347415D01*
X11887325Y-17347415D02*
X11906372Y-17337891D01*
X11906372Y-17337891D02*
X11915896Y-17318844D01*
X11915896Y-17318844D02*
X11915896Y-17309320D01*
X11915896Y-17309320D02*
X11906372Y-17290272D01*
X11906372Y-17290272D02*
X11887325Y-17280749D01*
X11887325Y-17280749D02*
X11858753Y-17280749D01*
X11858753Y-17280749D02*
X11839706Y-17271225D01*
X11839706Y-17271225D02*
X11830182Y-17252177D01*
X11830182Y-17252177D02*
X11830182Y-17242653D01*
X11830182Y-17242653D02*
X11839706Y-17223606D01*
X11839706Y-17223606D02*
X11858753Y-17214082D01*
X11858753Y-17214082D02*
X11887325Y-17214082D01*
X11887325Y-17214082D02*
X11906372Y-17223606D01*
X11982563Y-17423606D02*
X11992087Y-17414082D01*
X11992087Y-17414082D02*
X12011134Y-17385510D01*
X12011134Y-17385510D02*
X12020658Y-17366463D01*
X12020658Y-17366463D02*
X12030182Y-17337891D01*
X12030182Y-17337891D02*
X12039706Y-17290272D01*
X12039706Y-17290272D02*
X12039706Y-17252177D01*
X12039706Y-17252177D02*
X12030182Y-17204558D01*
X12030182Y-17204558D02*
X12020658Y-17175987D01*
X12020658Y-17175987D02*
X12011134Y-17156939D01*
X12011134Y-17156939D02*
X11992087Y-17128368D01*
X11992087Y-17128368D02*
X11982563Y-17118844D01*
M02*
