M48
; DRILL file {KiCad 8.0.8} date 2025-02-18T09:35:47+0100
; FORMAT={-:-/ absolute / inch / decimal}
; #@! TF.CreationDate,2025-02-18T09:35:47+01:00
; #@! TF.GenerationSoftware,Kicad,Pcbnew,8.0.8
; #@! TF.FileFunction,Plated,1,2,PTH
FMAT,2
INCH
; #@! TA.AperFunction,Plated,PTH,ViaDrill
T1C0.0118
; #@! TA.AperFunction,Plated,PTH,ComponentDrill
T2C0.0300
; #@! TA.AperFunction,Plated,PTH,ComponentDrill
T3C0.0315
; #@! TA.AperFunction,Plated,PTH,ComponentDrill
T4C0.0394
; #@! TA.AperFunction,Plated,PTH,ComponentDrill
T5C0.0433
; #@! TA.AperFunction,Plated,PTH,ComponentDrill
T6C0.0591
%
G90
G05
T1
X4.2441Y-4.2888
T2
X4.315Y-5.5399
X4.315Y-5.8399
X4.815Y-5.5399
X4.815Y-5.8399
T3
X3.126Y-5.4108
X3.126Y-5.7108
X3.226Y-5.4108
X3.226Y-5.7108
X3.326Y-5.4108
X3.326Y-5.7108
X3.426Y-5.4108
X3.426Y-5.7108
X3.526Y-5.4108
X3.526Y-5.7108
X3.626Y-5.4108
X3.626Y-5.7108
X3.726Y-5.4108
X3.726Y-5.7108
X3.826Y-5.4108
X3.826Y-5.7108
X3.8819Y-5.8793
X3.9606Y-5.8793
X4.0394Y-5.8793
T4
X3.2402Y-5.8951
X3.3386Y-5.8951
X3.563Y-5.2573
X3.5669Y-4.7769
X3.5669Y-4.8754
X3.6614Y-5.2573
X5.0394Y-5.651
X5.0394Y-5.7494
T5
X4.2961Y-5.3399
X4.6961Y-5.3399
T6
X3.7992Y-5.8793
X4.122Y-5.8793
M30
