%TF.GenerationSoftware,KiCad,Pcbnew,8.0.8*%
%TF.CreationDate,2025-02-18T22:42:43+01:00*%
%TF.ProjectId,T_lecommande,54e96c65-636f-46d6-9d61-6e64652e6b69,rev?*%
%TF.SameCoordinates,Original*%
%TF.FileFunction,Drillmap*%
%TF.FilePolarity,Positive*%
%FSLAX45Y45*%
G04 Gerber Fmt 4.5, Leading zero omitted, Abs format (unit mm)*
G04 Created by KiCad (PCBNEW 8.0.8) date 2025-02-18 22:42:43*
%MOMM*%
%LPD*%
G01*
G04 APERTURE LIST*
%ADD10C,0.050000*%
%ADD11C,0.200000*%
%ADD12C,0.100000*%
%ADD13C,0.150000*%
G04 APERTURE END LIST*
D10*
X5000000Y-5000000D02*
X12770000Y-5000000D01*
X12770000Y-9000000D01*
X5000000Y-9000000D01*
X5000000Y-5000000D01*
D11*
D12*
X6805000Y-6335000D02*
X6835000Y-6365000D01*
X6835000Y-6335000D02*
X6805000Y-6365000D01*
X7837500Y-5945000D02*
G75*
G02*
X7762500Y-5945000I-37500J0D01*
G01*
X7762500Y-5945000D02*
G75*
G02*
X7837500Y-5945000I37500J0D01*
G01*
X8037500Y-5945000D02*
G75*
G02*
X7962500Y-5945000I-37500J0D01*
G01*
X7962500Y-5945000D02*
G75*
G02*
X8037500Y-5945000I37500J0D01*
G01*
X5436000Y-6053900D02*
X5436000Y-6130100D01*
X5397900Y-6092000D02*
X5474100Y-6092000D01*
X5436000Y-6307900D02*
X5436000Y-6384100D01*
X5397900Y-6346000D02*
X5474100Y-6346000D01*
X5436000Y-6561900D02*
X5436000Y-6638100D01*
X5397900Y-6600000D02*
X5474100Y-6600000D01*
X5436000Y-6815900D02*
X5436000Y-6892100D01*
X5397900Y-6854000D02*
X5474100Y-6854000D01*
X5436000Y-7069900D02*
X5436000Y-7146100D01*
X5397900Y-7108000D02*
X5474100Y-7108000D01*
X5436000Y-7323900D02*
X5436000Y-7400100D01*
X5397900Y-7362000D02*
X5474100Y-7362000D01*
X5436000Y-7577900D02*
X5436000Y-7654100D01*
X5397900Y-7616000D02*
X5474100Y-7616000D01*
X5436000Y-7831900D02*
X5436000Y-7908100D01*
X5397900Y-7870000D02*
X5474100Y-7870000D01*
X6960000Y-6053900D02*
X6960000Y-6130100D01*
X6921900Y-6092000D02*
X6998100Y-6092000D01*
X6960000Y-6307900D02*
X6960000Y-6384100D01*
X6921900Y-6346000D02*
X6998100Y-6346000D01*
X6960000Y-6561900D02*
X6960000Y-6638100D01*
X6921900Y-6600000D02*
X6998100Y-6600000D01*
X6960000Y-6815900D02*
X6960000Y-6892100D01*
X6921900Y-6854000D02*
X6998100Y-6854000D01*
X6960000Y-7069900D02*
X6960000Y-7146100D01*
X6921900Y-7108000D02*
X6998100Y-7108000D01*
X6960000Y-7323900D02*
X6960000Y-7400100D01*
X6921900Y-7362000D02*
X6998100Y-7362000D01*
X6960000Y-7577900D02*
X6960000Y-7654100D01*
X6921900Y-7616000D02*
X6998100Y-7616000D01*
X6960000Y-7831900D02*
X6960000Y-7908100D01*
X6921900Y-7870000D02*
X6998100Y-7870000D01*
X6428284Y-5398285D02*
X6428284Y-5341716D01*
X6371715Y-5341716D01*
X6371715Y-5398285D01*
X6428284Y-5398285D01*
X6628284Y-5398285D02*
X6628284Y-5341716D01*
X6571715Y-5341716D01*
X6571715Y-5398285D01*
X6628284Y-5398285D01*
X6828284Y-5398285D02*
X6828284Y-5341716D01*
X6771715Y-5341716D01*
X6771715Y-5398285D01*
X6828284Y-5398285D01*
X11460000Y-6552000D02*
X11510000Y-6502000D01*
X11460000Y-6452000D01*
X11410000Y-6502000D01*
X11460000Y-6552000D01*
X11460000Y-7852000D02*
X11510000Y-7802000D01*
X11460000Y-7752000D01*
X11410000Y-7802000D01*
X11460000Y-7852000D01*
X11710000Y-7052000D02*
X11760000Y-7002000D01*
X11710000Y-6952000D01*
X11660000Y-7002000D01*
X11710000Y-7052000D01*
X11710000Y-8352000D02*
X11760000Y-8302000D01*
X11710000Y-8252000D01*
X11660000Y-8302000D01*
X11710000Y-8352000D01*
X11960000Y-6552000D02*
X12010000Y-6502000D01*
X11960000Y-6452000D01*
X11910000Y-6502000D01*
X11960000Y-6552000D01*
X11960000Y-7852000D02*
X12010000Y-7802000D01*
X11960000Y-7752000D01*
X11910000Y-7802000D01*
X11960000Y-7852000D01*
D13*
X6115000Y-5295000D02*
X6265000Y-5445000D01*
X6265000Y-5295000D02*
X6115000Y-5445000D01*
X6265000Y-5370000D02*
G75*
G02*
X6115000Y-5370000I-75000J0D01*
G01*
X6115000Y-5370000D02*
G75*
G02*
X6265000Y-5370000I75000J0D01*
G01*
X6935000Y-5295000D02*
X7085000Y-5445000D01*
X7085000Y-5295000D02*
X6935000Y-5445000D01*
X7085000Y-5370000D02*
G75*
G02*
X6935000Y-5370000I-75000J0D01*
G01*
X6935000Y-5370000D02*
G75*
G02*
X7085000Y-5370000I75000J0D01*
G01*
X8615000Y-6795000D02*
X8765000Y-6945000D01*
X8765000Y-6795000D02*
X8615000Y-6945000D01*
X8765000Y-6870000D02*
G75*
G02*
X8615000Y-6870000I-75000J0D01*
G01*
X8615000Y-6870000D02*
G75*
G02*
X8765000Y-6870000I75000J0D01*
G01*
X8615000Y-7045000D02*
X8765000Y-7195000D01*
X8765000Y-7045000D02*
X8615000Y-7195000D01*
X8765000Y-7120000D02*
G75*
G02*
X8615000Y-7120000I-75000J0D01*
G01*
X8615000Y-7120000D02*
G75*
G02*
X8765000Y-7120000I75000J0D01*
G01*
X8615000Y-7295000D02*
X8765000Y-7445000D01*
X8765000Y-7295000D02*
X8615000Y-7445000D01*
X8765000Y-7370000D02*
G75*
G02*
X8615000Y-7370000I-75000J0D01*
G01*
X8615000Y-7370000D02*
G75*
G02*
X8765000Y-7370000I75000J0D01*
G01*
X8890000Y-6545000D02*
X9040000Y-6695000D01*
X9040000Y-6545000D02*
X8890000Y-6695000D01*
X9040000Y-6620000D02*
G75*
G02*
X8890000Y-6620000I-75000J0D01*
G01*
X8890000Y-6620000D02*
G75*
G02*
X9040000Y-6620000I75000J0D01*
G01*
X8890000Y-7545000D02*
X9040000Y-7695000D01*
X9040000Y-7545000D02*
X8890000Y-7695000D01*
X9040000Y-7620000D02*
G75*
G02*
X8890000Y-7620000I-75000J0D01*
G01*
X8890000Y-7620000D02*
G75*
G02*
X9040000Y-7620000I75000J0D01*
G01*
X9225000Y-6060000D02*
X9375000Y-6210000D01*
X9375000Y-6060000D02*
X9225000Y-6210000D01*
X9375000Y-6135000D02*
G75*
G02*
X9225000Y-6135000I-75000J0D01*
G01*
X9225000Y-6135000D02*
G75*
G02*
X9375000Y-6135000I75000J0D01*
G01*
X9225000Y-6495000D02*
X9375000Y-6645000D01*
X9375000Y-6495000D02*
X9225000Y-6645000D01*
X9375000Y-6570000D02*
G75*
G02*
X9225000Y-6570000I-75000J0D01*
G01*
X9225000Y-6570000D02*
G75*
G02*
X9375000Y-6570000I75000J0D01*
G01*
X9285000Y-7965000D02*
X9435000Y-8115000D01*
X9435000Y-7965000D02*
X9285000Y-8115000D01*
X9435000Y-8040000D02*
G75*
G02*
X9285000Y-8040000I-75000J0D01*
G01*
X9285000Y-8040000D02*
G75*
G02*
X9435000Y-8040000I75000J0D01*
G01*
X9535000Y-7965000D02*
X9685000Y-8115000D01*
X9685000Y-7965000D02*
X9535000Y-8115000D01*
X9685000Y-8040000D02*
G75*
G02*
X9535000Y-8040000I-75000J0D01*
G01*
X9535000Y-8040000D02*
G75*
G02*
X9685000Y-8040000I75000J0D01*
G01*
X9785000Y-7965000D02*
X9935000Y-8115000D01*
X9935000Y-7965000D02*
X9785000Y-8115000D01*
X9935000Y-8040000D02*
G75*
G02*
X9785000Y-8040000I-75000J0D01*
G01*
X9785000Y-8040000D02*
G75*
G02*
X9935000Y-8040000I75000J0D01*
G01*
X9845000Y-6060000D02*
X9995000Y-6210000D01*
X9995000Y-6060000D02*
X9845000Y-6210000D01*
X9995000Y-6135000D02*
G75*
G02*
X9845000Y-6135000I-75000J0D01*
G01*
X9845000Y-6135000D02*
G75*
G02*
X9995000Y-6135000I75000J0D01*
G01*
X9845000Y-6495000D02*
X9995000Y-6645000D01*
X9995000Y-6495000D02*
X9845000Y-6645000D01*
X9995000Y-6570000D02*
G75*
G02*
X9845000Y-6570000I-75000J0D01*
G01*
X9845000Y-6570000D02*
G75*
G02*
X9995000Y-6570000I75000J0D01*
G01*
X10180000Y-6545000D02*
X10330000Y-6695000D01*
X10330000Y-6545000D02*
X10180000Y-6695000D01*
X10330000Y-6620000D02*
G75*
G02*
X10180000Y-6620000I-75000J0D01*
G01*
X10180000Y-6620000D02*
G75*
G02*
X10330000Y-6620000I75000J0D01*
G01*
X10180000Y-7545000D02*
X10330000Y-7695000D01*
X10330000Y-7545000D02*
X10180000Y-7695000D01*
X10330000Y-7620000D02*
G75*
G02*
X10180000Y-7620000I-75000J0D01*
G01*
X10180000Y-7620000D02*
G75*
G02*
X10330000Y-7620000I75000J0D01*
G01*
D11*
X5258277Y-9313984D02*
X5258277Y-9113984D01*
X5258277Y-9113984D02*
X5305896Y-9113984D01*
X5305896Y-9113984D02*
X5334467Y-9123508D01*
X5334467Y-9123508D02*
X5353515Y-9142555D01*
X5353515Y-9142555D02*
X5363039Y-9161603D01*
X5363039Y-9161603D02*
X5372563Y-9199698D01*
X5372563Y-9199698D02*
X5372563Y-9228270D01*
X5372563Y-9228270D02*
X5363039Y-9266365D01*
X5363039Y-9266365D02*
X5353515Y-9285412D01*
X5353515Y-9285412D02*
X5334467Y-9304460D01*
X5334467Y-9304460D02*
X5305896Y-9313984D01*
X5305896Y-9313984D02*
X5258277Y-9313984D01*
X5458277Y-9313984D02*
X5458277Y-9180650D01*
X5458277Y-9218746D02*
X5467801Y-9199698D01*
X5467801Y-9199698D02*
X5477324Y-9190174D01*
X5477324Y-9190174D02*
X5496372Y-9180650D01*
X5496372Y-9180650D02*
X5515420Y-9180650D01*
X5582086Y-9313984D02*
X5582086Y-9180650D01*
X5582086Y-9113984D02*
X5572563Y-9123508D01*
X5572563Y-9123508D02*
X5582086Y-9133031D01*
X5582086Y-9133031D02*
X5591610Y-9123508D01*
X5591610Y-9123508D02*
X5582086Y-9113984D01*
X5582086Y-9113984D02*
X5582086Y-9133031D01*
X5705896Y-9313984D02*
X5686848Y-9304460D01*
X5686848Y-9304460D02*
X5677324Y-9285412D01*
X5677324Y-9285412D02*
X5677324Y-9113984D01*
X5810658Y-9313984D02*
X5791610Y-9304460D01*
X5791610Y-9304460D02*
X5782086Y-9285412D01*
X5782086Y-9285412D02*
X5782086Y-9113984D01*
X6039229Y-9313984D02*
X6039229Y-9113984D01*
X6039229Y-9113984D02*
X6105896Y-9256841D01*
X6105896Y-9256841D02*
X6172562Y-9113984D01*
X6172562Y-9113984D02*
X6172562Y-9313984D01*
X6353515Y-9313984D02*
X6353515Y-9209222D01*
X6353515Y-9209222D02*
X6343991Y-9190174D01*
X6343991Y-9190174D02*
X6324943Y-9180650D01*
X6324943Y-9180650D02*
X6286848Y-9180650D01*
X6286848Y-9180650D02*
X6267801Y-9190174D01*
X6353515Y-9304460D02*
X6334467Y-9313984D01*
X6334467Y-9313984D02*
X6286848Y-9313984D01*
X6286848Y-9313984D02*
X6267801Y-9304460D01*
X6267801Y-9304460D02*
X6258277Y-9285412D01*
X6258277Y-9285412D02*
X6258277Y-9266365D01*
X6258277Y-9266365D02*
X6267801Y-9247317D01*
X6267801Y-9247317D02*
X6286848Y-9237793D01*
X6286848Y-9237793D02*
X6334467Y-9237793D01*
X6334467Y-9237793D02*
X6353515Y-9228270D01*
X6448753Y-9180650D02*
X6448753Y-9380650D01*
X6448753Y-9190174D02*
X6467801Y-9180650D01*
X6467801Y-9180650D02*
X6505896Y-9180650D01*
X6505896Y-9180650D02*
X6524943Y-9190174D01*
X6524943Y-9190174D02*
X6534467Y-9199698D01*
X6534467Y-9199698D02*
X6543991Y-9218746D01*
X6543991Y-9218746D02*
X6543991Y-9275889D01*
X6543991Y-9275889D02*
X6534467Y-9294936D01*
X6534467Y-9294936D02*
X6524943Y-9304460D01*
X6524943Y-9304460D02*
X6505896Y-9313984D01*
X6505896Y-9313984D02*
X6467801Y-9313984D01*
X6467801Y-9313984D02*
X6448753Y-9304460D01*
X6629705Y-9294936D02*
X6639229Y-9304460D01*
X6639229Y-9304460D02*
X6629705Y-9313984D01*
X6629705Y-9313984D02*
X6620182Y-9304460D01*
X6620182Y-9304460D02*
X6629705Y-9294936D01*
X6629705Y-9294936D02*
X6629705Y-9313984D01*
X6629705Y-9190174D02*
X6639229Y-9199698D01*
X6639229Y-9199698D02*
X6629705Y-9209222D01*
X6629705Y-9209222D02*
X6620182Y-9199698D01*
X6620182Y-9199698D02*
X6629705Y-9190174D01*
X6629705Y-9190174D02*
X6629705Y-9209222D01*
D12*
X4967500Y-9627500D02*
X4997500Y-9657500D01*
X4997500Y-9627500D02*
X4967500Y-9657500D01*
D11*
X5296372Y-9533984D02*
X5315420Y-9533984D01*
X5315420Y-9533984D02*
X5334467Y-9543508D01*
X5334467Y-9543508D02*
X5343991Y-9553031D01*
X5343991Y-9553031D02*
X5353515Y-9572079D01*
X5353515Y-9572079D02*
X5363039Y-9610174D01*
X5363039Y-9610174D02*
X5363039Y-9657793D01*
X5363039Y-9657793D02*
X5353515Y-9695889D01*
X5353515Y-9695889D02*
X5343991Y-9714936D01*
X5343991Y-9714936D02*
X5334467Y-9724460D01*
X5334467Y-9724460D02*
X5315420Y-9733984D01*
X5315420Y-9733984D02*
X5296372Y-9733984D01*
X5296372Y-9733984D02*
X5277324Y-9724460D01*
X5277324Y-9724460D02*
X5267801Y-9714936D01*
X5267801Y-9714936D02*
X5258277Y-9695889D01*
X5258277Y-9695889D02*
X5248753Y-9657793D01*
X5248753Y-9657793D02*
X5248753Y-9610174D01*
X5248753Y-9610174D02*
X5258277Y-9572079D01*
X5258277Y-9572079D02*
X5267801Y-9553031D01*
X5267801Y-9553031D02*
X5277324Y-9543508D01*
X5277324Y-9543508D02*
X5296372Y-9533984D01*
X5448753Y-9714936D02*
X5458277Y-9724460D01*
X5458277Y-9724460D02*
X5448753Y-9733984D01*
X5448753Y-9733984D02*
X5439229Y-9724460D01*
X5439229Y-9724460D02*
X5448753Y-9714936D01*
X5448753Y-9714936D02*
X5448753Y-9733984D01*
X5524944Y-9533984D02*
X5648753Y-9533984D01*
X5648753Y-9533984D02*
X5582086Y-9610174D01*
X5582086Y-9610174D02*
X5610658Y-9610174D01*
X5610658Y-9610174D02*
X5629705Y-9619698D01*
X5629705Y-9619698D02*
X5639229Y-9629222D01*
X5639229Y-9629222D02*
X5648753Y-9648270D01*
X5648753Y-9648270D02*
X5648753Y-9695889D01*
X5648753Y-9695889D02*
X5639229Y-9714936D01*
X5639229Y-9714936D02*
X5629705Y-9724460D01*
X5629705Y-9724460D02*
X5610658Y-9733984D01*
X5610658Y-9733984D02*
X5553515Y-9733984D01*
X5553515Y-9733984D02*
X5534467Y-9724460D01*
X5534467Y-9724460D02*
X5524944Y-9714936D01*
X5772562Y-9533984D02*
X5791610Y-9533984D01*
X5791610Y-9533984D02*
X5810658Y-9543508D01*
X5810658Y-9543508D02*
X5820182Y-9553031D01*
X5820182Y-9553031D02*
X5829705Y-9572079D01*
X5829705Y-9572079D02*
X5839229Y-9610174D01*
X5839229Y-9610174D02*
X5839229Y-9657793D01*
X5839229Y-9657793D02*
X5829705Y-9695889D01*
X5829705Y-9695889D02*
X5820182Y-9714936D01*
X5820182Y-9714936D02*
X5810658Y-9724460D01*
X5810658Y-9724460D02*
X5791610Y-9733984D01*
X5791610Y-9733984D02*
X5772562Y-9733984D01*
X5772562Y-9733984D02*
X5753515Y-9724460D01*
X5753515Y-9724460D02*
X5743991Y-9714936D01*
X5743991Y-9714936D02*
X5734467Y-9695889D01*
X5734467Y-9695889D02*
X5724943Y-9657793D01*
X5724943Y-9657793D02*
X5724943Y-9610174D01*
X5724943Y-9610174D02*
X5734467Y-9572079D01*
X5734467Y-9572079D02*
X5743991Y-9553031D01*
X5743991Y-9553031D02*
X5753515Y-9543508D01*
X5753515Y-9543508D02*
X5772562Y-9533984D01*
X5963039Y-9533984D02*
X5982086Y-9533984D01*
X5982086Y-9533984D02*
X6001134Y-9543508D01*
X6001134Y-9543508D02*
X6010658Y-9553031D01*
X6010658Y-9553031D02*
X6020182Y-9572079D01*
X6020182Y-9572079D02*
X6029705Y-9610174D01*
X6029705Y-9610174D02*
X6029705Y-9657793D01*
X6029705Y-9657793D02*
X6020182Y-9695889D01*
X6020182Y-9695889D02*
X6010658Y-9714936D01*
X6010658Y-9714936D02*
X6001134Y-9724460D01*
X6001134Y-9724460D02*
X5982086Y-9733984D01*
X5982086Y-9733984D02*
X5963039Y-9733984D01*
X5963039Y-9733984D02*
X5943991Y-9724460D01*
X5943991Y-9724460D02*
X5934467Y-9714936D01*
X5934467Y-9714936D02*
X5924943Y-9695889D01*
X5924943Y-9695889D02*
X5915420Y-9657793D01*
X5915420Y-9657793D02*
X5915420Y-9610174D01*
X5915420Y-9610174D02*
X5924943Y-9572079D01*
X5924943Y-9572079D02*
X5934467Y-9553031D01*
X5934467Y-9553031D02*
X5943991Y-9543508D01*
X5943991Y-9543508D02*
X5963039Y-9533984D01*
X6115420Y-9733984D02*
X6115420Y-9600650D01*
X6115420Y-9619698D02*
X6124943Y-9610174D01*
X6124943Y-9610174D02*
X6143991Y-9600650D01*
X6143991Y-9600650D02*
X6172563Y-9600650D01*
X6172563Y-9600650D02*
X6191610Y-9610174D01*
X6191610Y-9610174D02*
X6201134Y-9629222D01*
X6201134Y-9629222D02*
X6201134Y-9733984D01*
X6201134Y-9629222D02*
X6210658Y-9610174D01*
X6210658Y-9610174D02*
X6229705Y-9600650D01*
X6229705Y-9600650D02*
X6258277Y-9600650D01*
X6258277Y-9600650D02*
X6277324Y-9610174D01*
X6277324Y-9610174D02*
X6286848Y-9629222D01*
X6286848Y-9629222D02*
X6286848Y-9733984D01*
X6382086Y-9733984D02*
X6382086Y-9600650D01*
X6382086Y-9619698D02*
X6391610Y-9610174D01*
X6391610Y-9610174D02*
X6410658Y-9600650D01*
X6410658Y-9600650D02*
X6439229Y-9600650D01*
X6439229Y-9600650D02*
X6458277Y-9610174D01*
X6458277Y-9610174D02*
X6467801Y-9629222D01*
X6467801Y-9629222D02*
X6467801Y-9733984D01*
X6467801Y-9629222D02*
X6477324Y-9610174D01*
X6477324Y-9610174D02*
X6496372Y-9600650D01*
X6496372Y-9600650D02*
X6524943Y-9600650D01*
X6524943Y-9600650D02*
X6543991Y-9610174D01*
X6543991Y-9610174D02*
X6553515Y-9629222D01*
X6553515Y-9629222D02*
X6553515Y-9733984D01*
X6943991Y-9524460D02*
X6772563Y-9781603D01*
X7201134Y-9533984D02*
X7220182Y-9533984D01*
X7220182Y-9533984D02*
X7239229Y-9543508D01*
X7239229Y-9543508D02*
X7248753Y-9553031D01*
X7248753Y-9553031D02*
X7258277Y-9572079D01*
X7258277Y-9572079D02*
X7267801Y-9610174D01*
X7267801Y-9610174D02*
X7267801Y-9657793D01*
X7267801Y-9657793D02*
X7258277Y-9695889D01*
X7258277Y-9695889D02*
X7248753Y-9714936D01*
X7248753Y-9714936D02*
X7239229Y-9724460D01*
X7239229Y-9724460D02*
X7220182Y-9733984D01*
X7220182Y-9733984D02*
X7201134Y-9733984D01*
X7201134Y-9733984D02*
X7182086Y-9724460D01*
X7182086Y-9724460D02*
X7172563Y-9714936D01*
X7172563Y-9714936D02*
X7163039Y-9695889D01*
X7163039Y-9695889D02*
X7153515Y-9657793D01*
X7153515Y-9657793D02*
X7153515Y-9610174D01*
X7153515Y-9610174D02*
X7163039Y-9572079D01*
X7163039Y-9572079D02*
X7172563Y-9553031D01*
X7172563Y-9553031D02*
X7182086Y-9543508D01*
X7182086Y-9543508D02*
X7201134Y-9533984D01*
X7353515Y-9714936D02*
X7363039Y-9724460D01*
X7363039Y-9724460D02*
X7353515Y-9733984D01*
X7353515Y-9733984D02*
X7343991Y-9724460D01*
X7343991Y-9724460D02*
X7353515Y-9714936D01*
X7353515Y-9714936D02*
X7353515Y-9733984D01*
X7486848Y-9533984D02*
X7505896Y-9533984D01*
X7505896Y-9533984D02*
X7524944Y-9543508D01*
X7524944Y-9543508D02*
X7534467Y-9553031D01*
X7534467Y-9553031D02*
X7543991Y-9572079D01*
X7543991Y-9572079D02*
X7553515Y-9610174D01*
X7553515Y-9610174D02*
X7553515Y-9657793D01*
X7553515Y-9657793D02*
X7543991Y-9695889D01*
X7543991Y-9695889D02*
X7534467Y-9714936D01*
X7534467Y-9714936D02*
X7524944Y-9724460D01*
X7524944Y-9724460D02*
X7505896Y-9733984D01*
X7505896Y-9733984D02*
X7486848Y-9733984D01*
X7486848Y-9733984D02*
X7467801Y-9724460D01*
X7467801Y-9724460D02*
X7458277Y-9714936D01*
X7458277Y-9714936D02*
X7448753Y-9695889D01*
X7448753Y-9695889D02*
X7439229Y-9657793D01*
X7439229Y-9657793D02*
X7439229Y-9610174D01*
X7439229Y-9610174D02*
X7448753Y-9572079D01*
X7448753Y-9572079D02*
X7458277Y-9553031D01*
X7458277Y-9553031D02*
X7467801Y-9543508D01*
X7467801Y-9543508D02*
X7486848Y-9533984D01*
X7743991Y-9733984D02*
X7629706Y-9733984D01*
X7686848Y-9733984D02*
X7686848Y-9533984D01*
X7686848Y-9533984D02*
X7667801Y-9562555D01*
X7667801Y-9562555D02*
X7648753Y-9581603D01*
X7648753Y-9581603D02*
X7629706Y-9591127D01*
X7934467Y-9733984D02*
X7820182Y-9733984D01*
X7877325Y-9733984D02*
X7877325Y-9533984D01*
X7877325Y-9533984D02*
X7858277Y-9562555D01*
X7858277Y-9562555D02*
X7839229Y-9581603D01*
X7839229Y-9581603D02*
X7820182Y-9591127D01*
X8048753Y-9619698D02*
X8029706Y-9610174D01*
X8029706Y-9610174D02*
X8020182Y-9600650D01*
X8020182Y-9600650D02*
X8010658Y-9581603D01*
X8010658Y-9581603D02*
X8010658Y-9572079D01*
X8010658Y-9572079D02*
X8020182Y-9553031D01*
X8020182Y-9553031D02*
X8029706Y-9543508D01*
X8029706Y-9543508D02*
X8048753Y-9533984D01*
X8048753Y-9533984D02*
X8086848Y-9533984D01*
X8086848Y-9533984D02*
X8105896Y-9543508D01*
X8105896Y-9543508D02*
X8115420Y-9553031D01*
X8115420Y-9553031D02*
X8124944Y-9572079D01*
X8124944Y-9572079D02*
X8124944Y-9581603D01*
X8124944Y-9581603D02*
X8115420Y-9600650D01*
X8115420Y-9600650D02*
X8105896Y-9610174D01*
X8105896Y-9610174D02*
X8086848Y-9619698D01*
X8086848Y-9619698D02*
X8048753Y-9619698D01*
X8048753Y-9619698D02*
X8029706Y-9629222D01*
X8029706Y-9629222D02*
X8020182Y-9638746D01*
X8020182Y-9638746D02*
X8010658Y-9657793D01*
X8010658Y-9657793D02*
X8010658Y-9695889D01*
X8010658Y-9695889D02*
X8020182Y-9714936D01*
X8020182Y-9714936D02*
X8029706Y-9724460D01*
X8029706Y-9724460D02*
X8048753Y-9733984D01*
X8048753Y-9733984D02*
X8086848Y-9733984D01*
X8086848Y-9733984D02*
X8105896Y-9724460D01*
X8105896Y-9724460D02*
X8115420Y-9714936D01*
X8115420Y-9714936D02*
X8124944Y-9695889D01*
X8124944Y-9695889D02*
X8124944Y-9657793D01*
X8124944Y-9657793D02*
X8115420Y-9638746D01*
X8115420Y-9638746D02*
X8105896Y-9629222D01*
X8105896Y-9629222D02*
X8086848Y-9619698D01*
X8201134Y-9533984D02*
X8201134Y-9572079D01*
X8277325Y-9533984D02*
X8277325Y-9572079D01*
X8572563Y-9810174D02*
X8563039Y-9800650D01*
X8563039Y-9800650D02*
X8543991Y-9772079D01*
X8543991Y-9772079D02*
X8534468Y-9753031D01*
X8534468Y-9753031D02*
X8524944Y-9724460D01*
X8524944Y-9724460D02*
X8515420Y-9676841D01*
X8515420Y-9676841D02*
X8515420Y-9638746D01*
X8515420Y-9638746D02*
X8524944Y-9591127D01*
X8524944Y-9591127D02*
X8534468Y-9562555D01*
X8534468Y-9562555D02*
X8543991Y-9543508D01*
X8543991Y-9543508D02*
X8563039Y-9514936D01*
X8563039Y-9514936D02*
X8572563Y-9505412D01*
X8753515Y-9733984D02*
X8639230Y-9733984D01*
X8696372Y-9733984D02*
X8696372Y-9533984D01*
X8696372Y-9533984D02*
X8677325Y-9562555D01*
X8677325Y-9562555D02*
X8658277Y-9581603D01*
X8658277Y-9581603D02*
X8639230Y-9591127D01*
X8991611Y-9733984D02*
X8991611Y-9533984D01*
X9077325Y-9733984D02*
X9077325Y-9629222D01*
X9077325Y-9629222D02*
X9067801Y-9610174D01*
X9067801Y-9610174D02*
X9048753Y-9600650D01*
X9048753Y-9600650D02*
X9020182Y-9600650D01*
X9020182Y-9600650D02*
X9001134Y-9610174D01*
X9001134Y-9610174D02*
X8991611Y-9619698D01*
X9201134Y-9733984D02*
X9182087Y-9724460D01*
X9182087Y-9724460D02*
X9172563Y-9714936D01*
X9172563Y-9714936D02*
X9163039Y-9695889D01*
X9163039Y-9695889D02*
X9163039Y-9638746D01*
X9163039Y-9638746D02*
X9172563Y-9619698D01*
X9172563Y-9619698D02*
X9182087Y-9610174D01*
X9182087Y-9610174D02*
X9201134Y-9600650D01*
X9201134Y-9600650D02*
X9229706Y-9600650D01*
X9229706Y-9600650D02*
X9248753Y-9610174D01*
X9248753Y-9610174D02*
X9258277Y-9619698D01*
X9258277Y-9619698D02*
X9267801Y-9638746D01*
X9267801Y-9638746D02*
X9267801Y-9695889D01*
X9267801Y-9695889D02*
X9258277Y-9714936D01*
X9258277Y-9714936D02*
X9248753Y-9724460D01*
X9248753Y-9724460D02*
X9229706Y-9733984D01*
X9229706Y-9733984D02*
X9201134Y-9733984D01*
X9382087Y-9733984D02*
X9363039Y-9724460D01*
X9363039Y-9724460D02*
X9353515Y-9705412D01*
X9353515Y-9705412D02*
X9353515Y-9533984D01*
X9534468Y-9724460D02*
X9515420Y-9733984D01*
X9515420Y-9733984D02*
X9477325Y-9733984D01*
X9477325Y-9733984D02*
X9458277Y-9724460D01*
X9458277Y-9724460D02*
X9448753Y-9705412D01*
X9448753Y-9705412D02*
X9448753Y-9629222D01*
X9448753Y-9629222D02*
X9458277Y-9610174D01*
X9458277Y-9610174D02*
X9477325Y-9600650D01*
X9477325Y-9600650D02*
X9515420Y-9600650D01*
X9515420Y-9600650D02*
X9534468Y-9610174D01*
X9534468Y-9610174D02*
X9543992Y-9629222D01*
X9543992Y-9629222D02*
X9543992Y-9648270D01*
X9543992Y-9648270D02*
X9448753Y-9667317D01*
X9610658Y-9810174D02*
X9620182Y-9800650D01*
X9620182Y-9800650D02*
X9639230Y-9772079D01*
X9639230Y-9772079D02*
X9648753Y-9753031D01*
X9648753Y-9753031D02*
X9658277Y-9724460D01*
X9658277Y-9724460D02*
X9667801Y-9676841D01*
X9667801Y-9676841D02*
X9667801Y-9638746D01*
X9667801Y-9638746D02*
X9658277Y-9591127D01*
X9658277Y-9591127D02*
X9648753Y-9562555D01*
X9648753Y-9562555D02*
X9639230Y-9543508D01*
X9639230Y-9543508D02*
X9620182Y-9514936D01*
X9620182Y-9514936D02*
X9610658Y-9505412D01*
D12*
X4997500Y-9906500D02*
G75*
G02*
X4922500Y-9906500I-37500J0D01*
G01*
X4922500Y-9906500D02*
G75*
G02*
X4997500Y-9906500I37500J0D01*
G01*
D11*
X5296372Y-9797984D02*
X5315420Y-9797984D01*
X5315420Y-9797984D02*
X5334467Y-9807508D01*
X5334467Y-9807508D02*
X5343991Y-9817031D01*
X5343991Y-9817031D02*
X5353515Y-9836079D01*
X5353515Y-9836079D02*
X5363039Y-9874174D01*
X5363039Y-9874174D02*
X5363039Y-9921793D01*
X5363039Y-9921793D02*
X5353515Y-9959889D01*
X5353515Y-9959889D02*
X5343991Y-9978936D01*
X5343991Y-9978936D02*
X5334467Y-9988460D01*
X5334467Y-9988460D02*
X5315420Y-9997984D01*
X5315420Y-9997984D02*
X5296372Y-9997984D01*
X5296372Y-9997984D02*
X5277324Y-9988460D01*
X5277324Y-9988460D02*
X5267801Y-9978936D01*
X5267801Y-9978936D02*
X5258277Y-9959889D01*
X5258277Y-9959889D02*
X5248753Y-9921793D01*
X5248753Y-9921793D02*
X5248753Y-9874174D01*
X5248753Y-9874174D02*
X5258277Y-9836079D01*
X5258277Y-9836079D02*
X5267801Y-9817031D01*
X5267801Y-9817031D02*
X5277324Y-9807508D01*
X5277324Y-9807508D02*
X5296372Y-9797984D01*
X5448753Y-9978936D02*
X5458277Y-9988460D01*
X5458277Y-9988460D02*
X5448753Y-9997984D01*
X5448753Y-9997984D02*
X5439229Y-9988460D01*
X5439229Y-9988460D02*
X5448753Y-9978936D01*
X5448753Y-9978936D02*
X5448753Y-9997984D01*
X5524944Y-9797984D02*
X5658277Y-9797984D01*
X5658277Y-9797984D02*
X5572563Y-9997984D01*
X5829705Y-9797984D02*
X5734467Y-9797984D01*
X5734467Y-9797984D02*
X5724943Y-9893222D01*
X5724943Y-9893222D02*
X5734467Y-9883698D01*
X5734467Y-9883698D02*
X5753515Y-9874174D01*
X5753515Y-9874174D02*
X5801134Y-9874174D01*
X5801134Y-9874174D02*
X5820182Y-9883698D01*
X5820182Y-9883698D02*
X5829705Y-9893222D01*
X5829705Y-9893222D02*
X5839229Y-9912270D01*
X5839229Y-9912270D02*
X5839229Y-9959889D01*
X5839229Y-9959889D02*
X5829705Y-9978936D01*
X5829705Y-9978936D02*
X5820182Y-9988460D01*
X5820182Y-9988460D02*
X5801134Y-9997984D01*
X5801134Y-9997984D02*
X5753515Y-9997984D01*
X5753515Y-9997984D02*
X5734467Y-9988460D01*
X5734467Y-9988460D02*
X5724943Y-9978936D01*
X5963039Y-9797984D02*
X5982086Y-9797984D01*
X5982086Y-9797984D02*
X6001134Y-9807508D01*
X6001134Y-9807508D02*
X6010658Y-9817031D01*
X6010658Y-9817031D02*
X6020182Y-9836079D01*
X6020182Y-9836079D02*
X6029705Y-9874174D01*
X6029705Y-9874174D02*
X6029705Y-9921793D01*
X6029705Y-9921793D02*
X6020182Y-9959889D01*
X6020182Y-9959889D02*
X6010658Y-9978936D01*
X6010658Y-9978936D02*
X6001134Y-9988460D01*
X6001134Y-9988460D02*
X5982086Y-9997984D01*
X5982086Y-9997984D02*
X5963039Y-9997984D01*
X5963039Y-9997984D02*
X5943991Y-9988460D01*
X5943991Y-9988460D02*
X5934467Y-9978936D01*
X5934467Y-9978936D02*
X5924943Y-9959889D01*
X5924943Y-9959889D02*
X5915420Y-9921793D01*
X5915420Y-9921793D02*
X5915420Y-9874174D01*
X5915420Y-9874174D02*
X5924943Y-9836079D01*
X5924943Y-9836079D02*
X5934467Y-9817031D01*
X5934467Y-9817031D02*
X5943991Y-9807508D01*
X5943991Y-9807508D02*
X5963039Y-9797984D01*
X6115420Y-9997984D02*
X6115420Y-9864650D01*
X6115420Y-9883698D02*
X6124943Y-9874174D01*
X6124943Y-9874174D02*
X6143991Y-9864650D01*
X6143991Y-9864650D02*
X6172563Y-9864650D01*
X6172563Y-9864650D02*
X6191610Y-9874174D01*
X6191610Y-9874174D02*
X6201134Y-9893222D01*
X6201134Y-9893222D02*
X6201134Y-9997984D01*
X6201134Y-9893222D02*
X6210658Y-9874174D01*
X6210658Y-9874174D02*
X6229705Y-9864650D01*
X6229705Y-9864650D02*
X6258277Y-9864650D01*
X6258277Y-9864650D02*
X6277324Y-9874174D01*
X6277324Y-9874174D02*
X6286848Y-9893222D01*
X6286848Y-9893222D02*
X6286848Y-9997984D01*
X6382086Y-9997984D02*
X6382086Y-9864650D01*
X6382086Y-9883698D02*
X6391610Y-9874174D01*
X6391610Y-9874174D02*
X6410658Y-9864650D01*
X6410658Y-9864650D02*
X6439229Y-9864650D01*
X6439229Y-9864650D02*
X6458277Y-9874174D01*
X6458277Y-9874174D02*
X6467801Y-9893222D01*
X6467801Y-9893222D02*
X6467801Y-9997984D01*
X6467801Y-9893222D02*
X6477324Y-9874174D01*
X6477324Y-9874174D02*
X6496372Y-9864650D01*
X6496372Y-9864650D02*
X6524943Y-9864650D01*
X6524943Y-9864650D02*
X6543991Y-9874174D01*
X6543991Y-9874174D02*
X6553515Y-9893222D01*
X6553515Y-9893222D02*
X6553515Y-9997984D01*
X6943991Y-9788460D02*
X6772563Y-10045603D01*
X7201134Y-9797984D02*
X7220182Y-9797984D01*
X7220182Y-9797984D02*
X7239229Y-9807508D01*
X7239229Y-9807508D02*
X7248753Y-9817031D01*
X7248753Y-9817031D02*
X7258277Y-9836079D01*
X7258277Y-9836079D02*
X7267801Y-9874174D01*
X7267801Y-9874174D02*
X7267801Y-9921793D01*
X7267801Y-9921793D02*
X7258277Y-9959889D01*
X7258277Y-9959889D02*
X7248753Y-9978936D01*
X7248753Y-9978936D02*
X7239229Y-9988460D01*
X7239229Y-9988460D02*
X7220182Y-9997984D01*
X7220182Y-9997984D02*
X7201134Y-9997984D01*
X7201134Y-9997984D02*
X7182086Y-9988460D01*
X7182086Y-9988460D02*
X7172563Y-9978936D01*
X7172563Y-9978936D02*
X7163039Y-9959889D01*
X7163039Y-9959889D02*
X7153515Y-9921793D01*
X7153515Y-9921793D02*
X7153515Y-9874174D01*
X7153515Y-9874174D02*
X7163039Y-9836079D01*
X7163039Y-9836079D02*
X7172563Y-9817031D01*
X7172563Y-9817031D02*
X7182086Y-9807508D01*
X7182086Y-9807508D02*
X7201134Y-9797984D01*
X7353515Y-9978936D02*
X7363039Y-9988460D01*
X7363039Y-9988460D02*
X7353515Y-9997984D01*
X7353515Y-9997984D02*
X7343991Y-9988460D01*
X7343991Y-9988460D02*
X7353515Y-9978936D01*
X7353515Y-9978936D02*
X7353515Y-9997984D01*
X7486848Y-9797984D02*
X7505896Y-9797984D01*
X7505896Y-9797984D02*
X7524944Y-9807508D01*
X7524944Y-9807508D02*
X7534467Y-9817031D01*
X7534467Y-9817031D02*
X7543991Y-9836079D01*
X7543991Y-9836079D02*
X7553515Y-9874174D01*
X7553515Y-9874174D02*
X7553515Y-9921793D01*
X7553515Y-9921793D02*
X7543991Y-9959889D01*
X7543991Y-9959889D02*
X7534467Y-9978936D01*
X7534467Y-9978936D02*
X7524944Y-9988460D01*
X7524944Y-9988460D02*
X7505896Y-9997984D01*
X7505896Y-9997984D02*
X7486848Y-9997984D01*
X7486848Y-9997984D02*
X7467801Y-9988460D01*
X7467801Y-9988460D02*
X7458277Y-9978936D01*
X7458277Y-9978936D02*
X7448753Y-9959889D01*
X7448753Y-9959889D02*
X7439229Y-9921793D01*
X7439229Y-9921793D02*
X7439229Y-9874174D01*
X7439229Y-9874174D02*
X7448753Y-9836079D01*
X7448753Y-9836079D02*
X7458277Y-9817031D01*
X7458277Y-9817031D02*
X7467801Y-9807508D01*
X7467801Y-9807508D02*
X7486848Y-9797984D01*
X7629706Y-9817031D02*
X7639229Y-9807508D01*
X7639229Y-9807508D02*
X7658277Y-9797984D01*
X7658277Y-9797984D02*
X7705896Y-9797984D01*
X7705896Y-9797984D02*
X7724944Y-9807508D01*
X7724944Y-9807508D02*
X7734467Y-9817031D01*
X7734467Y-9817031D02*
X7743991Y-9836079D01*
X7743991Y-9836079D02*
X7743991Y-9855127D01*
X7743991Y-9855127D02*
X7734467Y-9883698D01*
X7734467Y-9883698D02*
X7620182Y-9997984D01*
X7620182Y-9997984D02*
X7743991Y-9997984D01*
X7839229Y-9997984D02*
X7877325Y-9997984D01*
X7877325Y-9997984D02*
X7896372Y-9988460D01*
X7896372Y-9988460D02*
X7905896Y-9978936D01*
X7905896Y-9978936D02*
X7924944Y-9950365D01*
X7924944Y-9950365D02*
X7934467Y-9912270D01*
X7934467Y-9912270D02*
X7934467Y-9836079D01*
X7934467Y-9836079D02*
X7924944Y-9817031D01*
X7924944Y-9817031D02*
X7915420Y-9807508D01*
X7915420Y-9807508D02*
X7896372Y-9797984D01*
X7896372Y-9797984D02*
X7858277Y-9797984D01*
X7858277Y-9797984D02*
X7839229Y-9807508D01*
X7839229Y-9807508D02*
X7829706Y-9817031D01*
X7829706Y-9817031D02*
X7820182Y-9836079D01*
X7820182Y-9836079D02*
X7820182Y-9883698D01*
X7820182Y-9883698D02*
X7829706Y-9902746D01*
X7829706Y-9902746D02*
X7839229Y-9912270D01*
X7839229Y-9912270D02*
X7858277Y-9921793D01*
X7858277Y-9921793D02*
X7896372Y-9921793D01*
X7896372Y-9921793D02*
X7915420Y-9912270D01*
X7915420Y-9912270D02*
X7924944Y-9902746D01*
X7924944Y-9902746D02*
X7934467Y-9883698D01*
X8115420Y-9797984D02*
X8020182Y-9797984D01*
X8020182Y-9797984D02*
X8010658Y-9893222D01*
X8010658Y-9893222D02*
X8020182Y-9883698D01*
X8020182Y-9883698D02*
X8039229Y-9874174D01*
X8039229Y-9874174D02*
X8086848Y-9874174D01*
X8086848Y-9874174D02*
X8105896Y-9883698D01*
X8105896Y-9883698D02*
X8115420Y-9893222D01*
X8115420Y-9893222D02*
X8124944Y-9912270D01*
X8124944Y-9912270D02*
X8124944Y-9959889D01*
X8124944Y-9959889D02*
X8115420Y-9978936D01*
X8115420Y-9978936D02*
X8105896Y-9988460D01*
X8105896Y-9988460D02*
X8086848Y-9997984D01*
X8086848Y-9997984D02*
X8039229Y-9997984D01*
X8039229Y-9997984D02*
X8020182Y-9988460D01*
X8020182Y-9988460D02*
X8010658Y-9978936D01*
X8201134Y-9797984D02*
X8201134Y-9836079D01*
X8277325Y-9797984D02*
X8277325Y-9836079D01*
X8572563Y-10074174D02*
X8563039Y-10064650D01*
X8563039Y-10064650D02*
X8543991Y-10036079D01*
X8543991Y-10036079D02*
X8534468Y-10017031D01*
X8534468Y-10017031D02*
X8524944Y-9988460D01*
X8524944Y-9988460D02*
X8515420Y-9940841D01*
X8515420Y-9940841D02*
X8515420Y-9902746D01*
X8515420Y-9902746D02*
X8524944Y-9855127D01*
X8524944Y-9855127D02*
X8534468Y-9826555D01*
X8534468Y-9826555D02*
X8543991Y-9807508D01*
X8543991Y-9807508D02*
X8563039Y-9778936D01*
X8563039Y-9778936D02*
X8572563Y-9769412D01*
X8639230Y-9817031D02*
X8648753Y-9807508D01*
X8648753Y-9807508D02*
X8667801Y-9797984D01*
X8667801Y-9797984D02*
X8715420Y-9797984D01*
X8715420Y-9797984D02*
X8734468Y-9807508D01*
X8734468Y-9807508D02*
X8743991Y-9817031D01*
X8743991Y-9817031D02*
X8753515Y-9836079D01*
X8753515Y-9836079D02*
X8753515Y-9855127D01*
X8753515Y-9855127D02*
X8743991Y-9883698D01*
X8743991Y-9883698D02*
X8629706Y-9997984D01*
X8629706Y-9997984D02*
X8753515Y-9997984D01*
X8991611Y-9997984D02*
X8991611Y-9797984D01*
X9077325Y-9997984D02*
X9077325Y-9893222D01*
X9077325Y-9893222D02*
X9067801Y-9874174D01*
X9067801Y-9874174D02*
X9048753Y-9864650D01*
X9048753Y-9864650D02*
X9020182Y-9864650D01*
X9020182Y-9864650D02*
X9001134Y-9874174D01*
X9001134Y-9874174D02*
X8991611Y-9883698D01*
X9201134Y-9997984D02*
X9182087Y-9988460D01*
X9182087Y-9988460D02*
X9172563Y-9978936D01*
X9172563Y-9978936D02*
X9163039Y-9959889D01*
X9163039Y-9959889D02*
X9163039Y-9902746D01*
X9163039Y-9902746D02*
X9172563Y-9883698D01*
X9172563Y-9883698D02*
X9182087Y-9874174D01*
X9182087Y-9874174D02*
X9201134Y-9864650D01*
X9201134Y-9864650D02*
X9229706Y-9864650D01*
X9229706Y-9864650D02*
X9248753Y-9874174D01*
X9248753Y-9874174D02*
X9258277Y-9883698D01*
X9258277Y-9883698D02*
X9267801Y-9902746D01*
X9267801Y-9902746D02*
X9267801Y-9959889D01*
X9267801Y-9959889D02*
X9258277Y-9978936D01*
X9258277Y-9978936D02*
X9248753Y-9988460D01*
X9248753Y-9988460D02*
X9229706Y-9997984D01*
X9229706Y-9997984D02*
X9201134Y-9997984D01*
X9382087Y-9997984D02*
X9363039Y-9988460D01*
X9363039Y-9988460D02*
X9353515Y-9969412D01*
X9353515Y-9969412D02*
X9353515Y-9797984D01*
X9534468Y-9988460D02*
X9515420Y-9997984D01*
X9515420Y-9997984D02*
X9477325Y-9997984D01*
X9477325Y-9997984D02*
X9458277Y-9988460D01*
X9458277Y-9988460D02*
X9448753Y-9969412D01*
X9448753Y-9969412D02*
X9448753Y-9893222D01*
X9448753Y-9893222D02*
X9458277Y-9874174D01*
X9458277Y-9874174D02*
X9477325Y-9864650D01*
X9477325Y-9864650D02*
X9515420Y-9864650D01*
X9515420Y-9864650D02*
X9534468Y-9874174D01*
X9534468Y-9874174D02*
X9543992Y-9893222D01*
X9543992Y-9893222D02*
X9543992Y-9912270D01*
X9543992Y-9912270D02*
X9448753Y-9931317D01*
X9620182Y-9988460D02*
X9639230Y-9997984D01*
X9639230Y-9997984D02*
X9677325Y-9997984D01*
X9677325Y-9997984D02*
X9696373Y-9988460D01*
X9696373Y-9988460D02*
X9705896Y-9969412D01*
X9705896Y-9969412D02*
X9705896Y-9959889D01*
X9705896Y-9959889D02*
X9696373Y-9940841D01*
X9696373Y-9940841D02*
X9677325Y-9931317D01*
X9677325Y-9931317D02*
X9648753Y-9931317D01*
X9648753Y-9931317D02*
X9629706Y-9921793D01*
X9629706Y-9921793D02*
X9620182Y-9902746D01*
X9620182Y-9902746D02*
X9620182Y-9893222D01*
X9620182Y-9893222D02*
X9629706Y-9874174D01*
X9629706Y-9874174D02*
X9648753Y-9864650D01*
X9648753Y-9864650D02*
X9677325Y-9864650D01*
X9677325Y-9864650D02*
X9696373Y-9874174D01*
X9772563Y-10074174D02*
X9782087Y-10064650D01*
X9782087Y-10064650D02*
X9801134Y-10036079D01*
X9801134Y-10036079D02*
X9810658Y-10017031D01*
X9810658Y-10017031D02*
X9820182Y-9988460D01*
X9820182Y-9988460D02*
X9829706Y-9940841D01*
X9829706Y-9940841D02*
X9829706Y-9902746D01*
X9829706Y-9902746D02*
X9820182Y-9855127D01*
X9820182Y-9855127D02*
X9810658Y-9826555D01*
X9810658Y-9826555D02*
X9801134Y-9807508D01*
X9801134Y-9807508D02*
X9782087Y-9778936D01*
X9782087Y-9778936D02*
X9772563Y-9769412D01*
D12*
X4959400Y-10132400D02*
X4959400Y-10208600D01*
X4921300Y-10170500D02*
X4997500Y-10170500D01*
D11*
X5296372Y-10061984D02*
X5315420Y-10061984D01*
X5315420Y-10061984D02*
X5334467Y-10071508D01*
X5334467Y-10071508D02*
X5343991Y-10081031D01*
X5343991Y-10081031D02*
X5353515Y-10100079D01*
X5353515Y-10100079D02*
X5363039Y-10138174D01*
X5363039Y-10138174D02*
X5363039Y-10185793D01*
X5363039Y-10185793D02*
X5353515Y-10223889D01*
X5353515Y-10223889D02*
X5343991Y-10242936D01*
X5343991Y-10242936D02*
X5334467Y-10252460D01*
X5334467Y-10252460D02*
X5315420Y-10261984D01*
X5315420Y-10261984D02*
X5296372Y-10261984D01*
X5296372Y-10261984D02*
X5277324Y-10252460D01*
X5277324Y-10252460D02*
X5267801Y-10242936D01*
X5267801Y-10242936D02*
X5258277Y-10223889D01*
X5258277Y-10223889D02*
X5248753Y-10185793D01*
X5248753Y-10185793D02*
X5248753Y-10138174D01*
X5248753Y-10138174D02*
X5258277Y-10100079D01*
X5258277Y-10100079D02*
X5267801Y-10081031D01*
X5267801Y-10081031D02*
X5277324Y-10071508D01*
X5277324Y-10071508D02*
X5296372Y-10061984D01*
X5448753Y-10242936D02*
X5458277Y-10252460D01*
X5458277Y-10252460D02*
X5448753Y-10261984D01*
X5448753Y-10261984D02*
X5439229Y-10252460D01*
X5439229Y-10252460D02*
X5448753Y-10242936D01*
X5448753Y-10242936D02*
X5448753Y-10261984D01*
X5524944Y-10061984D02*
X5658277Y-10061984D01*
X5658277Y-10061984D02*
X5572563Y-10261984D01*
X5820182Y-10061984D02*
X5782086Y-10061984D01*
X5782086Y-10061984D02*
X5763039Y-10071508D01*
X5763039Y-10071508D02*
X5753515Y-10081031D01*
X5753515Y-10081031D02*
X5734467Y-10109603D01*
X5734467Y-10109603D02*
X5724943Y-10147698D01*
X5724943Y-10147698D02*
X5724943Y-10223889D01*
X5724943Y-10223889D02*
X5734467Y-10242936D01*
X5734467Y-10242936D02*
X5743991Y-10252460D01*
X5743991Y-10252460D02*
X5763039Y-10261984D01*
X5763039Y-10261984D02*
X5801134Y-10261984D01*
X5801134Y-10261984D02*
X5820182Y-10252460D01*
X5820182Y-10252460D02*
X5829705Y-10242936D01*
X5829705Y-10242936D02*
X5839229Y-10223889D01*
X5839229Y-10223889D02*
X5839229Y-10176270D01*
X5839229Y-10176270D02*
X5829705Y-10157222D01*
X5829705Y-10157222D02*
X5820182Y-10147698D01*
X5820182Y-10147698D02*
X5801134Y-10138174D01*
X5801134Y-10138174D02*
X5763039Y-10138174D01*
X5763039Y-10138174D02*
X5743991Y-10147698D01*
X5743991Y-10147698D02*
X5734467Y-10157222D01*
X5734467Y-10157222D02*
X5724943Y-10176270D01*
X5915420Y-10081031D02*
X5924943Y-10071508D01*
X5924943Y-10071508D02*
X5943991Y-10061984D01*
X5943991Y-10061984D02*
X5991610Y-10061984D01*
X5991610Y-10061984D02*
X6010658Y-10071508D01*
X6010658Y-10071508D02*
X6020182Y-10081031D01*
X6020182Y-10081031D02*
X6029705Y-10100079D01*
X6029705Y-10100079D02*
X6029705Y-10119127D01*
X6029705Y-10119127D02*
X6020182Y-10147698D01*
X6020182Y-10147698D02*
X5905896Y-10261984D01*
X5905896Y-10261984D02*
X6029705Y-10261984D01*
X6115420Y-10261984D02*
X6115420Y-10128650D01*
X6115420Y-10147698D02*
X6124943Y-10138174D01*
X6124943Y-10138174D02*
X6143991Y-10128650D01*
X6143991Y-10128650D02*
X6172563Y-10128650D01*
X6172563Y-10128650D02*
X6191610Y-10138174D01*
X6191610Y-10138174D02*
X6201134Y-10157222D01*
X6201134Y-10157222D02*
X6201134Y-10261984D01*
X6201134Y-10157222D02*
X6210658Y-10138174D01*
X6210658Y-10138174D02*
X6229705Y-10128650D01*
X6229705Y-10128650D02*
X6258277Y-10128650D01*
X6258277Y-10128650D02*
X6277324Y-10138174D01*
X6277324Y-10138174D02*
X6286848Y-10157222D01*
X6286848Y-10157222D02*
X6286848Y-10261984D01*
X6382086Y-10261984D02*
X6382086Y-10128650D01*
X6382086Y-10147698D02*
X6391610Y-10138174D01*
X6391610Y-10138174D02*
X6410658Y-10128650D01*
X6410658Y-10128650D02*
X6439229Y-10128650D01*
X6439229Y-10128650D02*
X6458277Y-10138174D01*
X6458277Y-10138174D02*
X6467801Y-10157222D01*
X6467801Y-10157222D02*
X6467801Y-10261984D01*
X6467801Y-10157222D02*
X6477324Y-10138174D01*
X6477324Y-10138174D02*
X6496372Y-10128650D01*
X6496372Y-10128650D02*
X6524943Y-10128650D01*
X6524943Y-10128650D02*
X6543991Y-10138174D01*
X6543991Y-10138174D02*
X6553515Y-10157222D01*
X6553515Y-10157222D02*
X6553515Y-10261984D01*
X6943991Y-10052460D02*
X6772563Y-10309603D01*
X7201134Y-10061984D02*
X7220182Y-10061984D01*
X7220182Y-10061984D02*
X7239229Y-10071508D01*
X7239229Y-10071508D02*
X7248753Y-10081031D01*
X7248753Y-10081031D02*
X7258277Y-10100079D01*
X7258277Y-10100079D02*
X7267801Y-10138174D01*
X7267801Y-10138174D02*
X7267801Y-10185793D01*
X7267801Y-10185793D02*
X7258277Y-10223889D01*
X7258277Y-10223889D02*
X7248753Y-10242936D01*
X7248753Y-10242936D02*
X7239229Y-10252460D01*
X7239229Y-10252460D02*
X7220182Y-10261984D01*
X7220182Y-10261984D02*
X7201134Y-10261984D01*
X7201134Y-10261984D02*
X7182086Y-10252460D01*
X7182086Y-10252460D02*
X7172563Y-10242936D01*
X7172563Y-10242936D02*
X7163039Y-10223889D01*
X7163039Y-10223889D02*
X7153515Y-10185793D01*
X7153515Y-10185793D02*
X7153515Y-10138174D01*
X7153515Y-10138174D02*
X7163039Y-10100079D01*
X7163039Y-10100079D02*
X7172563Y-10081031D01*
X7172563Y-10081031D02*
X7182086Y-10071508D01*
X7182086Y-10071508D02*
X7201134Y-10061984D01*
X7353515Y-10242936D02*
X7363039Y-10252460D01*
X7363039Y-10252460D02*
X7353515Y-10261984D01*
X7353515Y-10261984D02*
X7343991Y-10252460D01*
X7343991Y-10252460D02*
X7353515Y-10242936D01*
X7353515Y-10242936D02*
X7353515Y-10261984D01*
X7486848Y-10061984D02*
X7505896Y-10061984D01*
X7505896Y-10061984D02*
X7524944Y-10071508D01*
X7524944Y-10071508D02*
X7534467Y-10081031D01*
X7534467Y-10081031D02*
X7543991Y-10100079D01*
X7543991Y-10100079D02*
X7553515Y-10138174D01*
X7553515Y-10138174D02*
X7553515Y-10185793D01*
X7553515Y-10185793D02*
X7543991Y-10223889D01*
X7543991Y-10223889D02*
X7534467Y-10242936D01*
X7534467Y-10242936D02*
X7524944Y-10252460D01*
X7524944Y-10252460D02*
X7505896Y-10261984D01*
X7505896Y-10261984D02*
X7486848Y-10261984D01*
X7486848Y-10261984D02*
X7467801Y-10252460D01*
X7467801Y-10252460D02*
X7458277Y-10242936D01*
X7458277Y-10242936D02*
X7448753Y-10223889D01*
X7448753Y-10223889D02*
X7439229Y-10185793D01*
X7439229Y-10185793D02*
X7439229Y-10138174D01*
X7439229Y-10138174D02*
X7448753Y-10100079D01*
X7448753Y-10100079D02*
X7458277Y-10081031D01*
X7458277Y-10081031D02*
X7467801Y-10071508D01*
X7467801Y-10071508D02*
X7486848Y-10061984D01*
X7620182Y-10061984D02*
X7743991Y-10061984D01*
X7743991Y-10061984D02*
X7677325Y-10138174D01*
X7677325Y-10138174D02*
X7705896Y-10138174D01*
X7705896Y-10138174D02*
X7724944Y-10147698D01*
X7724944Y-10147698D02*
X7734467Y-10157222D01*
X7734467Y-10157222D02*
X7743991Y-10176270D01*
X7743991Y-10176270D02*
X7743991Y-10223889D01*
X7743991Y-10223889D02*
X7734467Y-10242936D01*
X7734467Y-10242936D02*
X7724944Y-10252460D01*
X7724944Y-10252460D02*
X7705896Y-10261984D01*
X7705896Y-10261984D02*
X7648753Y-10261984D01*
X7648753Y-10261984D02*
X7629706Y-10252460D01*
X7629706Y-10252460D02*
X7620182Y-10242936D01*
X7867801Y-10061984D02*
X7886848Y-10061984D01*
X7886848Y-10061984D02*
X7905896Y-10071508D01*
X7905896Y-10071508D02*
X7915420Y-10081031D01*
X7915420Y-10081031D02*
X7924944Y-10100079D01*
X7924944Y-10100079D02*
X7934467Y-10138174D01*
X7934467Y-10138174D02*
X7934467Y-10185793D01*
X7934467Y-10185793D02*
X7924944Y-10223889D01*
X7924944Y-10223889D02*
X7915420Y-10242936D01*
X7915420Y-10242936D02*
X7905896Y-10252460D01*
X7905896Y-10252460D02*
X7886848Y-10261984D01*
X7886848Y-10261984D02*
X7867801Y-10261984D01*
X7867801Y-10261984D02*
X7848753Y-10252460D01*
X7848753Y-10252460D02*
X7839229Y-10242936D01*
X7839229Y-10242936D02*
X7829706Y-10223889D01*
X7829706Y-10223889D02*
X7820182Y-10185793D01*
X7820182Y-10185793D02*
X7820182Y-10138174D01*
X7820182Y-10138174D02*
X7829706Y-10100079D01*
X7829706Y-10100079D02*
X7839229Y-10081031D01*
X7839229Y-10081031D02*
X7848753Y-10071508D01*
X7848753Y-10071508D02*
X7867801Y-10061984D01*
X8058277Y-10061984D02*
X8077325Y-10061984D01*
X8077325Y-10061984D02*
X8096372Y-10071508D01*
X8096372Y-10071508D02*
X8105896Y-10081031D01*
X8105896Y-10081031D02*
X8115420Y-10100079D01*
X8115420Y-10100079D02*
X8124944Y-10138174D01*
X8124944Y-10138174D02*
X8124944Y-10185793D01*
X8124944Y-10185793D02*
X8115420Y-10223889D01*
X8115420Y-10223889D02*
X8105896Y-10242936D01*
X8105896Y-10242936D02*
X8096372Y-10252460D01*
X8096372Y-10252460D02*
X8077325Y-10261984D01*
X8077325Y-10261984D02*
X8058277Y-10261984D01*
X8058277Y-10261984D02*
X8039229Y-10252460D01*
X8039229Y-10252460D02*
X8029706Y-10242936D01*
X8029706Y-10242936D02*
X8020182Y-10223889D01*
X8020182Y-10223889D02*
X8010658Y-10185793D01*
X8010658Y-10185793D02*
X8010658Y-10138174D01*
X8010658Y-10138174D02*
X8020182Y-10100079D01*
X8020182Y-10100079D02*
X8029706Y-10081031D01*
X8029706Y-10081031D02*
X8039229Y-10071508D01*
X8039229Y-10071508D02*
X8058277Y-10061984D01*
X8201134Y-10061984D02*
X8201134Y-10100079D01*
X8277325Y-10061984D02*
X8277325Y-10100079D01*
X8572563Y-10338174D02*
X8563039Y-10328650D01*
X8563039Y-10328650D02*
X8543991Y-10300079D01*
X8543991Y-10300079D02*
X8534468Y-10281031D01*
X8534468Y-10281031D02*
X8524944Y-10252460D01*
X8524944Y-10252460D02*
X8515420Y-10204841D01*
X8515420Y-10204841D02*
X8515420Y-10166746D01*
X8515420Y-10166746D02*
X8524944Y-10119127D01*
X8524944Y-10119127D02*
X8534468Y-10090555D01*
X8534468Y-10090555D02*
X8543991Y-10071508D01*
X8543991Y-10071508D02*
X8563039Y-10042936D01*
X8563039Y-10042936D02*
X8572563Y-10033412D01*
X8753515Y-10261984D02*
X8639230Y-10261984D01*
X8696372Y-10261984D02*
X8696372Y-10061984D01*
X8696372Y-10061984D02*
X8677325Y-10090555D01*
X8677325Y-10090555D02*
X8658277Y-10109603D01*
X8658277Y-10109603D02*
X8639230Y-10119127D01*
X8924944Y-10061984D02*
X8886849Y-10061984D01*
X8886849Y-10061984D02*
X8867801Y-10071508D01*
X8867801Y-10071508D02*
X8858277Y-10081031D01*
X8858277Y-10081031D02*
X8839230Y-10109603D01*
X8839230Y-10109603D02*
X8829706Y-10147698D01*
X8829706Y-10147698D02*
X8829706Y-10223889D01*
X8829706Y-10223889D02*
X8839230Y-10242936D01*
X8839230Y-10242936D02*
X8848753Y-10252460D01*
X8848753Y-10252460D02*
X8867801Y-10261984D01*
X8867801Y-10261984D02*
X8905896Y-10261984D01*
X8905896Y-10261984D02*
X8924944Y-10252460D01*
X8924944Y-10252460D02*
X8934468Y-10242936D01*
X8934468Y-10242936D02*
X8943991Y-10223889D01*
X8943991Y-10223889D02*
X8943991Y-10176270D01*
X8943991Y-10176270D02*
X8934468Y-10157222D01*
X8934468Y-10157222D02*
X8924944Y-10147698D01*
X8924944Y-10147698D02*
X8905896Y-10138174D01*
X8905896Y-10138174D02*
X8867801Y-10138174D01*
X8867801Y-10138174D02*
X8848753Y-10147698D01*
X8848753Y-10147698D02*
X8839230Y-10157222D01*
X8839230Y-10157222D02*
X8829706Y-10176270D01*
X9182087Y-10261984D02*
X9182087Y-10061984D01*
X9267801Y-10261984D02*
X9267801Y-10157222D01*
X9267801Y-10157222D02*
X9258277Y-10138174D01*
X9258277Y-10138174D02*
X9239230Y-10128650D01*
X9239230Y-10128650D02*
X9210658Y-10128650D01*
X9210658Y-10128650D02*
X9191611Y-10138174D01*
X9191611Y-10138174D02*
X9182087Y-10147698D01*
X9391611Y-10261984D02*
X9372563Y-10252460D01*
X9372563Y-10252460D02*
X9363039Y-10242936D01*
X9363039Y-10242936D02*
X9353515Y-10223889D01*
X9353515Y-10223889D02*
X9353515Y-10166746D01*
X9353515Y-10166746D02*
X9363039Y-10147698D01*
X9363039Y-10147698D02*
X9372563Y-10138174D01*
X9372563Y-10138174D02*
X9391611Y-10128650D01*
X9391611Y-10128650D02*
X9420182Y-10128650D01*
X9420182Y-10128650D02*
X9439230Y-10138174D01*
X9439230Y-10138174D02*
X9448753Y-10147698D01*
X9448753Y-10147698D02*
X9458277Y-10166746D01*
X9458277Y-10166746D02*
X9458277Y-10223889D01*
X9458277Y-10223889D02*
X9448753Y-10242936D01*
X9448753Y-10242936D02*
X9439230Y-10252460D01*
X9439230Y-10252460D02*
X9420182Y-10261984D01*
X9420182Y-10261984D02*
X9391611Y-10261984D01*
X9572563Y-10261984D02*
X9553515Y-10252460D01*
X9553515Y-10252460D02*
X9543992Y-10233412D01*
X9543992Y-10233412D02*
X9543992Y-10061984D01*
X9724944Y-10252460D02*
X9705896Y-10261984D01*
X9705896Y-10261984D02*
X9667801Y-10261984D01*
X9667801Y-10261984D02*
X9648753Y-10252460D01*
X9648753Y-10252460D02*
X9639230Y-10233412D01*
X9639230Y-10233412D02*
X9639230Y-10157222D01*
X9639230Y-10157222D02*
X9648753Y-10138174D01*
X9648753Y-10138174D02*
X9667801Y-10128650D01*
X9667801Y-10128650D02*
X9705896Y-10128650D01*
X9705896Y-10128650D02*
X9724944Y-10138174D01*
X9724944Y-10138174D02*
X9734468Y-10157222D01*
X9734468Y-10157222D02*
X9734468Y-10176270D01*
X9734468Y-10176270D02*
X9639230Y-10195317D01*
X9810658Y-10252460D02*
X9829706Y-10261984D01*
X9829706Y-10261984D02*
X9867801Y-10261984D01*
X9867801Y-10261984D02*
X9886849Y-10252460D01*
X9886849Y-10252460D02*
X9896373Y-10233412D01*
X9896373Y-10233412D02*
X9896373Y-10223889D01*
X9896373Y-10223889D02*
X9886849Y-10204841D01*
X9886849Y-10204841D02*
X9867801Y-10195317D01*
X9867801Y-10195317D02*
X9839230Y-10195317D01*
X9839230Y-10195317D02*
X9820182Y-10185793D01*
X9820182Y-10185793D02*
X9810658Y-10166746D01*
X9810658Y-10166746D02*
X9810658Y-10157222D01*
X9810658Y-10157222D02*
X9820182Y-10138174D01*
X9820182Y-10138174D02*
X9839230Y-10128650D01*
X9839230Y-10128650D02*
X9867801Y-10128650D01*
X9867801Y-10128650D02*
X9886849Y-10138174D01*
X9963039Y-10338174D02*
X9972563Y-10328650D01*
X9972563Y-10328650D02*
X9991611Y-10300079D01*
X9991611Y-10300079D02*
X10001134Y-10281031D01*
X10001134Y-10281031D02*
X10010658Y-10252460D01*
X10010658Y-10252460D02*
X10020182Y-10204841D01*
X10020182Y-10204841D02*
X10020182Y-10166746D01*
X10020182Y-10166746D02*
X10010658Y-10119127D01*
X10010658Y-10119127D02*
X10001134Y-10090555D01*
X10001134Y-10090555D02*
X9991611Y-10071508D01*
X9991611Y-10071508D02*
X9972563Y-10042936D01*
X9972563Y-10042936D02*
X9963039Y-10033412D01*
D12*
X4985785Y-10462785D02*
X4985785Y-10406216D01*
X4929216Y-10406216D01*
X4929216Y-10462785D01*
X4985785Y-10462785D01*
D11*
X5296372Y-10325984D02*
X5315420Y-10325984D01*
X5315420Y-10325984D02*
X5334467Y-10335508D01*
X5334467Y-10335508D02*
X5343991Y-10345031D01*
X5343991Y-10345031D02*
X5353515Y-10364079D01*
X5353515Y-10364079D02*
X5363039Y-10402174D01*
X5363039Y-10402174D02*
X5363039Y-10449793D01*
X5363039Y-10449793D02*
X5353515Y-10487889D01*
X5353515Y-10487889D02*
X5343991Y-10506936D01*
X5343991Y-10506936D02*
X5334467Y-10516460D01*
X5334467Y-10516460D02*
X5315420Y-10525984D01*
X5315420Y-10525984D02*
X5296372Y-10525984D01*
X5296372Y-10525984D02*
X5277324Y-10516460D01*
X5277324Y-10516460D02*
X5267801Y-10506936D01*
X5267801Y-10506936D02*
X5258277Y-10487889D01*
X5258277Y-10487889D02*
X5248753Y-10449793D01*
X5248753Y-10449793D02*
X5248753Y-10402174D01*
X5248753Y-10402174D02*
X5258277Y-10364079D01*
X5258277Y-10364079D02*
X5267801Y-10345031D01*
X5267801Y-10345031D02*
X5277324Y-10335508D01*
X5277324Y-10335508D02*
X5296372Y-10325984D01*
X5448753Y-10506936D02*
X5458277Y-10516460D01*
X5458277Y-10516460D02*
X5448753Y-10525984D01*
X5448753Y-10525984D02*
X5439229Y-10516460D01*
X5439229Y-10516460D02*
X5448753Y-10506936D01*
X5448753Y-10506936D02*
X5448753Y-10525984D01*
X5572563Y-10411698D02*
X5553515Y-10402174D01*
X5553515Y-10402174D02*
X5543991Y-10392650D01*
X5543991Y-10392650D02*
X5534467Y-10373603D01*
X5534467Y-10373603D02*
X5534467Y-10364079D01*
X5534467Y-10364079D02*
X5543991Y-10345031D01*
X5543991Y-10345031D02*
X5553515Y-10335508D01*
X5553515Y-10335508D02*
X5572563Y-10325984D01*
X5572563Y-10325984D02*
X5610658Y-10325984D01*
X5610658Y-10325984D02*
X5629705Y-10335508D01*
X5629705Y-10335508D02*
X5639229Y-10345031D01*
X5639229Y-10345031D02*
X5648753Y-10364079D01*
X5648753Y-10364079D02*
X5648753Y-10373603D01*
X5648753Y-10373603D02*
X5639229Y-10392650D01*
X5639229Y-10392650D02*
X5629705Y-10402174D01*
X5629705Y-10402174D02*
X5610658Y-10411698D01*
X5610658Y-10411698D02*
X5572563Y-10411698D01*
X5572563Y-10411698D02*
X5553515Y-10421222D01*
X5553515Y-10421222D02*
X5543991Y-10430746D01*
X5543991Y-10430746D02*
X5534467Y-10449793D01*
X5534467Y-10449793D02*
X5534467Y-10487889D01*
X5534467Y-10487889D02*
X5543991Y-10506936D01*
X5543991Y-10506936D02*
X5553515Y-10516460D01*
X5553515Y-10516460D02*
X5572563Y-10525984D01*
X5572563Y-10525984D02*
X5610658Y-10525984D01*
X5610658Y-10525984D02*
X5629705Y-10516460D01*
X5629705Y-10516460D02*
X5639229Y-10506936D01*
X5639229Y-10506936D02*
X5648753Y-10487889D01*
X5648753Y-10487889D02*
X5648753Y-10449793D01*
X5648753Y-10449793D02*
X5639229Y-10430746D01*
X5639229Y-10430746D02*
X5629705Y-10421222D01*
X5629705Y-10421222D02*
X5610658Y-10411698D01*
X5772562Y-10325984D02*
X5791610Y-10325984D01*
X5791610Y-10325984D02*
X5810658Y-10335508D01*
X5810658Y-10335508D02*
X5820182Y-10345031D01*
X5820182Y-10345031D02*
X5829705Y-10364079D01*
X5829705Y-10364079D02*
X5839229Y-10402174D01*
X5839229Y-10402174D02*
X5839229Y-10449793D01*
X5839229Y-10449793D02*
X5829705Y-10487889D01*
X5829705Y-10487889D02*
X5820182Y-10506936D01*
X5820182Y-10506936D02*
X5810658Y-10516460D01*
X5810658Y-10516460D02*
X5791610Y-10525984D01*
X5791610Y-10525984D02*
X5772562Y-10525984D01*
X5772562Y-10525984D02*
X5753515Y-10516460D01*
X5753515Y-10516460D02*
X5743991Y-10506936D01*
X5743991Y-10506936D02*
X5734467Y-10487889D01*
X5734467Y-10487889D02*
X5724943Y-10449793D01*
X5724943Y-10449793D02*
X5724943Y-10402174D01*
X5724943Y-10402174D02*
X5734467Y-10364079D01*
X5734467Y-10364079D02*
X5743991Y-10345031D01*
X5743991Y-10345031D02*
X5753515Y-10335508D01*
X5753515Y-10335508D02*
X5772562Y-10325984D01*
X5963039Y-10325984D02*
X5982086Y-10325984D01*
X5982086Y-10325984D02*
X6001134Y-10335508D01*
X6001134Y-10335508D02*
X6010658Y-10345031D01*
X6010658Y-10345031D02*
X6020182Y-10364079D01*
X6020182Y-10364079D02*
X6029705Y-10402174D01*
X6029705Y-10402174D02*
X6029705Y-10449793D01*
X6029705Y-10449793D02*
X6020182Y-10487889D01*
X6020182Y-10487889D02*
X6010658Y-10506936D01*
X6010658Y-10506936D02*
X6001134Y-10516460D01*
X6001134Y-10516460D02*
X5982086Y-10525984D01*
X5982086Y-10525984D02*
X5963039Y-10525984D01*
X5963039Y-10525984D02*
X5943991Y-10516460D01*
X5943991Y-10516460D02*
X5934467Y-10506936D01*
X5934467Y-10506936D02*
X5924943Y-10487889D01*
X5924943Y-10487889D02*
X5915420Y-10449793D01*
X5915420Y-10449793D02*
X5915420Y-10402174D01*
X5915420Y-10402174D02*
X5924943Y-10364079D01*
X5924943Y-10364079D02*
X5934467Y-10345031D01*
X5934467Y-10345031D02*
X5943991Y-10335508D01*
X5943991Y-10335508D02*
X5963039Y-10325984D01*
X6115420Y-10525984D02*
X6115420Y-10392650D01*
X6115420Y-10411698D02*
X6124943Y-10402174D01*
X6124943Y-10402174D02*
X6143991Y-10392650D01*
X6143991Y-10392650D02*
X6172563Y-10392650D01*
X6172563Y-10392650D02*
X6191610Y-10402174D01*
X6191610Y-10402174D02*
X6201134Y-10421222D01*
X6201134Y-10421222D02*
X6201134Y-10525984D01*
X6201134Y-10421222D02*
X6210658Y-10402174D01*
X6210658Y-10402174D02*
X6229705Y-10392650D01*
X6229705Y-10392650D02*
X6258277Y-10392650D01*
X6258277Y-10392650D02*
X6277324Y-10402174D01*
X6277324Y-10402174D02*
X6286848Y-10421222D01*
X6286848Y-10421222D02*
X6286848Y-10525984D01*
X6382086Y-10525984D02*
X6382086Y-10392650D01*
X6382086Y-10411698D02*
X6391610Y-10402174D01*
X6391610Y-10402174D02*
X6410658Y-10392650D01*
X6410658Y-10392650D02*
X6439229Y-10392650D01*
X6439229Y-10392650D02*
X6458277Y-10402174D01*
X6458277Y-10402174D02*
X6467801Y-10421222D01*
X6467801Y-10421222D02*
X6467801Y-10525984D01*
X6467801Y-10421222D02*
X6477324Y-10402174D01*
X6477324Y-10402174D02*
X6496372Y-10392650D01*
X6496372Y-10392650D02*
X6524943Y-10392650D01*
X6524943Y-10392650D02*
X6543991Y-10402174D01*
X6543991Y-10402174D02*
X6553515Y-10421222D01*
X6553515Y-10421222D02*
X6553515Y-10525984D01*
X6943991Y-10316460D02*
X6772563Y-10573603D01*
X7201134Y-10325984D02*
X7220182Y-10325984D01*
X7220182Y-10325984D02*
X7239229Y-10335508D01*
X7239229Y-10335508D02*
X7248753Y-10345031D01*
X7248753Y-10345031D02*
X7258277Y-10364079D01*
X7258277Y-10364079D02*
X7267801Y-10402174D01*
X7267801Y-10402174D02*
X7267801Y-10449793D01*
X7267801Y-10449793D02*
X7258277Y-10487889D01*
X7258277Y-10487889D02*
X7248753Y-10506936D01*
X7248753Y-10506936D02*
X7239229Y-10516460D01*
X7239229Y-10516460D02*
X7220182Y-10525984D01*
X7220182Y-10525984D02*
X7201134Y-10525984D01*
X7201134Y-10525984D02*
X7182086Y-10516460D01*
X7182086Y-10516460D02*
X7172563Y-10506936D01*
X7172563Y-10506936D02*
X7163039Y-10487889D01*
X7163039Y-10487889D02*
X7153515Y-10449793D01*
X7153515Y-10449793D02*
X7153515Y-10402174D01*
X7153515Y-10402174D02*
X7163039Y-10364079D01*
X7163039Y-10364079D02*
X7172563Y-10345031D01*
X7172563Y-10345031D02*
X7182086Y-10335508D01*
X7182086Y-10335508D02*
X7201134Y-10325984D01*
X7353515Y-10506936D02*
X7363039Y-10516460D01*
X7363039Y-10516460D02*
X7353515Y-10525984D01*
X7353515Y-10525984D02*
X7343991Y-10516460D01*
X7343991Y-10516460D02*
X7353515Y-10506936D01*
X7353515Y-10506936D02*
X7353515Y-10525984D01*
X7486848Y-10325984D02*
X7505896Y-10325984D01*
X7505896Y-10325984D02*
X7524944Y-10335508D01*
X7524944Y-10335508D02*
X7534467Y-10345031D01*
X7534467Y-10345031D02*
X7543991Y-10364079D01*
X7543991Y-10364079D02*
X7553515Y-10402174D01*
X7553515Y-10402174D02*
X7553515Y-10449793D01*
X7553515Y-10449793D02*
X7543991Y-10487889D01*
X7543991Y-10487889D02*
X7534467Y-10506936D01*
X7534467Y-10506936D02*
X7524944Y-10516460D01*
X7524944Y-10516460D02*
X7505896Y-10525984D01*
X7505896Y-10525984D02*
X7486848Y-10525984D01*
X7486848Y-10525984D02*
X7467801Y-10516460D01*
X7467801Y-10516460D02*
X7458277Y-10506936D01*
X7458277Y-10506936D02*
X7448753Y-10487889D01*
X7448753Y-10487889D02*
X7439229Y-10449793D01*
X7439229Y-10449793D02*
X7439229Y-10402174D01*
X7439229Y-10402174D02*
X7448753Y-10364079D01*
X7448753Y-10364079D02*
X7458277Y-10345031D01*
X7458277Y-10345031D02*
X7467801Y-10335508D01*
X7467801Y-10335508D02*
X7486848Y-10325984D01*
X7620182Y-10325984D02*
X7743991Y-10325984D01*
X7743991Y-10325984D02*
X7677325Y-10402174D01*
X7677325Y-10402174D02*
X7705896Y-10402174D01*
X7705896Y-10402174D02*
X7724944Y-10411698D01*
X7724944Y-10411698D02*
X7734467Y-10421222D01*
X7734467Y-10421222D02*
X7743991Y-10440270D01*
X7743991Y-10440270D02*
X7743991Y-10487889D01*
X7743991Y-10487889D02*
X7734467Y-10506936D01*
X7734467Y-10506936D02*
X7724944Y-10516460D01*
X7724944Y-10516460D02*
X7705896Y-10525984D01*
X7705896Y-10525984D02*
X7648753Y-10525984D01*
X7648753Y-10525984D02*
X7629706Y-10516460D01*
X7629706Y-10516460D02*
X7620182Y-10506936D01*
X7934467Y-10525984D02*
X7820182Y-10525984D01*
X7877325Y-10525984D02*
X7877325Y-10325984D01*
X7877325Y-10325984D02*
X7858277Y-10354555D01*
X7858277Y-10354555D02*
X7839229Y-10373603D01*
X7839229Y-10373603D02*
X7820182Y-10383127D01*
X8115420Y-10325984D02*
X8020182Y-10325984D01*
X8020182Y-10325984D02*
X8010658Y-10421222D01*
X8010658Y-10421222D02*
X8020182Y-10411698D01*
X8020182Y-10411698D02*
X8039229Y-10402174D01*
X8039229Y-10402174D02*
X8086848Y-10402174D01*
X8086848Y-10402174D02*
X8105896Y-10411698D01*
X8105896Y-10411698D02*
X8115420Y-10421222D01*
X8115420Y-10421222D02*
X8124944Y-10440270D01*
X8124944Y-10440270D02*
X8124944Y-10487889D01*
X8124944Y-10487889D02*
X8115420Y-10506936D01*
X8115420Y-10506936D02*
X8105896Y-10516460D01*
X8105896Y-10516460D02*
X8086848Y-10525984D01*
X8086848Y-10525984D02*
X8039229Y-10525984D01*
X8039229Y-10525984D02*
X8020182Y-10516460D01*
X8020182Y-10516460D02*
X8010658Y-10506936D01*
X8201134Y-10325984D02*
X8201134Y-10364079D01*
X8277325Y-10325984D02*
X8277325Y-10364079D01*
X8572563Y-10602174D02*
X8563039Y-10592650D01*
X8563039Y-10592650D02*
X8543991Y-10564079D01*
X8543991Y-10564079D02*
X8534468Y-10545031D01*
X8534468Y-10545031D02*
X8524944Y-10516460D01*
X8524944Y-10516460D02*
X8515420Y-10468841D01*
X8515420Y-10468841D02*
X8515420Y-10430746D01*
X8515420Y-10430746D02*
X8524944Y-10383127D01*
X8524944Y-10383127D02*
X8534468Y-10354555D01*
X8534468Y-10354555D02*
X8543991Y-10335508D01*
X8543991Y-10335508D02*
X8563039Y-10306936D01*
X8563039Y-10306936D02*
X8572563Y-10297412D01*
X8629706Y-10325984D02*
X8753515Y-10325984D01*
X8753515Y-10325984D02*
X8686849Y-10402174D01*
X8686849Y-10402174D02*
X8715420Y-10402174D01*
X8715420Y-10402174D02*
X8734468Y-10411698D01*
X8734468Y-10411698D02*
X8743991Y-10421222D01*
X8743991Y-10421222D02*
X8753515Y-10440270D01*
X8753515Y-10440270D02*
X8753515Y-10487889D01*
X8753515Y-10487889D02*
X8743991Y-10506936D01*
X8743991Y-10506936D02*
X8734468Y-10516460D01*
X8734468Y-10516460D02*
X8715420Y-10525984D01*
X8715420Y-10525984D02*
X8658277Y-10525984D01*
X8658277Y-10525984D02*
X8639230Y-10516460D01*
X8639230Y-10516460D02*
X8629706Y-10506936D01*
X8991611Y-10525984D02*
X8991611Y-10325984D01*
X9077325Y-10525984D02*
X9077325Y-10421222D01*
X9077325Y-10421222D02*
X9067801Y-10402174D01*
X9067801Y-10402174D02*
X9048753Y-10392650D01*
X9048753Y-10392650D02*
X9020182Y-10392650D01*
X9020182Y-10392650D02*
X9001134Y-10402174D01*
X9001134Y-10402174D02*
X8991611Y-10411698D01*
X9201134Y-10525984D02*
X9182087Y-10516460D01*
X9182087Y-10516460D02*
X9172563Y-10506936D01*
X9172563Y-10506936D02*
X9163039Y-10487889D01*
X9163039Y-10487889D02*
X9163039Y-10430746D01*
X9163039Y-10430746D02*
X9172563Y-10411698D01*
X9172563Y-10411698D02*
X9182087Y-10402174D01*
X9182087Y-10402174D02*
X9201134Y-10392650D01*
X9201134Y-10392650D02*
X9229706Y-10392650D01*
X9229706Y-10392650D02*
X9248753Y-10402174D01*
X9248753Y-10402174D02*
X9258277Y-10411698D01*
X9258277Y-10411698D02*
X9267801Y-10430746D01*
X9267801Y-10430746D02*
X9267801Y-10487889D01*
X9267801Y-10487889D02*
X9258277Y-10506936D01*
X9258277Y-10506936D02*
X9248753Y-10516460D01*
X9248753Y-10516460D02*
X9229706Y-10525984D01*
X9229706Y-10525984D02*
X9201134Y-10525984D01*
X9382087Y-10525984D02*
X9363039Y-10516460D01*
X9363039Y-10516460D02*
X9353515Y-10497412D01*
X9353515Y-10497412D02*
X9353515Y-10325984D01*
X9534468Y-10516460D02*
X9515420Y-10525984D01*
X9515420Y-10525984D02*
X9477325Y-10525984D01*
X9477325Y-10525984D02*
X9458277Y-10516460D01*
X9458277Y-10516460D02*
X9448753Y-10497412D01*
X9448753Y-10497412D02*
X9448753Y-10421222D01*
X9448753Y-10421222D02*
X9458277Y-10402174D01*
X9458277Y-10402174D02*
X9477325Y-10392650D01*
X9477325Y-10392650D02*
X9515420Y-10392650D01*
X9515420Y-10392650D02*
X9534468Y-10402174D01*
X9534468Y-10402174D02*
X9543992Y-10421222D01*
X9543992Y-10421222D02*
X9543992Y-10440270D01*
X9543992Y-10440270D02*
X9448753Y-10459317D01*
X9620182Y-10516460D02*
X9639230Y-10525984D01*
X9639230Y-10525984D02*
X9677325Y-10525984D01*
X9677325Y-10525984D02*
X9696373Y-10516460D01*
X9696373Y-10516460D02*
X9705896Y-10497412D01*
X9705896Y-10497412D02*
X9705896Y-10487889D01*
X9705896Y-10487889D02*
X9696373Y-10468841D01*
X9696373Y-10468841D02*
X9677325Y-10459317D01*
X9677325Y-10459317D02*
X9648753Y-10459317D01*
X9648753Y-10459317D02*
X9629706Y-10449793D01*
X9629706Y-10449793D02*
X9620182Y-10430746D01*
X9620182Y-10430746D02*
X9620182Y-10421222D01*
X9620182Y-10421222D02*
X9629706Y-10402174D01*
X9629706Y-10402174D02*
X9648753Y-10392650D01*
X9648753Y-10392650D02*
X9677325Y-10392650D01*
X9677325Y-10392650D02*
X9696373Y-10402174D01*
X9772563Y-10602174D02*
X9782087Y-10592650D01*
X9782087Y-10592650D02*
X9801134Y-10564079D01*
X9801134Y-10564079D02*
X9810658Y-10545031D01*
X9810658Y-10545031D02*
X9820182Y-10516460D01*
X9820182Y-10516460D02*
X9829706Y-10468841D01*
X9829706Y-10468841D02*
X9829706Y-10430746D01*
X9829706Y-10430746D02*
X9820182Y-10383127D01*
X9820182Y-10383127D02*
X9810658Y-10354555D01*
X9810658Y-10354555D02*
X9801134Y-10335508D01*
X9801134Y-10335508D02*
X9782087Y-10306936D01*
X9782087Y-10306936D02*
X9772563Y-10297412D01*
D12*
X4947500Y-10748500D02*
X4997500Y-10698500D01*
X4947500Y-10648500D01*
X4897500Y-10698500D01*
X4947500Y-10748500D01*
D11*
X5363039Y-10789984D02*
X5248753Y-10789984D01*
X5305896Y-10789984D02*
X5305896Y-10589984D01*
X5305896Y-10589984D02*
X5286848Y-10618555D01*
X5286848Y-10618555D02*
X5267801Y-10637603D01*
X5267801Y-10637603D02*
X5248753Y-10647127D01*
X5448753Y-10770936D02*
X5458277Y-10780460D01*
X5458277Y-10780460D02*
X5448753Y-10789984D01*
X5448753Y-10789984D02*
X5439229Y-10780460D01*
X5439229Y-10780460D02*
X5448753Y-10770936D01*
X5448753Y-10770936D02*
X5448753Y-10789984D01*
X5582086Y-10589984D02*
X5601134Y-10589984D01*
X5601134Y-10589984D02*
X5620182Y-10599508D01*
X5620182Y-10599508D02*
X5629705Y-10609031D01*
X5629705Y-10609031D02*
X5639229Y-10628079D01*
X5639229Y-10628079D02*
X5648753Y-10666174D01*
X5648753Y-10666174D02*
X5648753Y-10713793D01*
X5648753Y-10713793D02*
X5639229Y-10751889D01*
X5639229Y-10751889D02*
X5629705Y-10770936D01*
X5629705Y-10770936D02*
X5620182Y-10780460D01*
X5620182Y-10780460D02*
X5601134Y-10789984D01*
X5601134Y-10789984D02*
X5582086Y-10789984D01*
X5582086Y-10789984D02*
X5563039Y-10780460D01*
X5563039Y-10780460D02*
X5553515Y-10770936D01*
X5553515Y-10770936D02*
X5543991Y-10751889D01*
X5543991Y-10751889D02*
X5534467Y-10713793D01*
X5534467Y-10713793D02*
X5534467Y-10666174D01*
X5534467Y-10666174D02*
X5543991Y-10628079D01*
X5543991Y-10628079D02*
X5553515Y-10609031D01*
X5553515Y-10609031D02*
X5563039Y-10599508D01*
X5563039Y-10599508D02*
X5582086Y-10589984D01*
X5772562Y-10589984D02*
X5791610Y-10589984D01*
X5791610Y-10589984D02*
X5810658Y-10599508D01*
X5810658Y-10599508D02*
X5820182Y-10609031D01*
X5820182Y-10609031D02*
X5829705Y-10628079D01*
X5829705Y-10628079D02*
X5839229Y-10666174D01*
X5839229Y-10666174D02*
X5839229Y-10713793D01*
X5839229Y-10713793D02*
X5829705Y-10751889D01*
X5829705Y-10751889D02*
X5820182Y-10770936D01*
X5820182Y-10770936D02*
X5810658Y-10780460D01*
X5810658Y-10780460D02*
X5791610Y-10789984D01*
X5791610Y-10789984D02*
X5772562Y-10789984D01*
X5772562Y-10789984D02*
X5753515Y-10780460D01*
X5753515Y-10780460D02*
X5743991Y-10770936D01*
X5743991Y-10770936D02*
X5734467Y-10751889D01*
X5734467Y-10751889D02*
X5724943Y-10713793D01*
X5724943Y-10713793D02*
X5724943Y-10666174D01*
X5724943Y-10666174D02*
X5734467Y-10628079D01*
X5734467Y-10628079D02*
X5743991Y-10609031D01*
X5743991Y-10609031D02*
X5753515Y-10599508D01*
X5753515Y-10599508D02*
X5772562Y-10589984D01*
X5963039Y-10589984D02*
X5982086Y-10589984D01*
X5982086Y-10589984D02*
X6001134Y-10599508D01*
X6001134Y-10599508D02*
X6010658Y-10609031D01*
X6010658Y-10609031D02*
X6020182Y-10628079D01*
X6020182Y-10628079D02*
X6029705Y-10666174D01*
X6029705Y-10666174D02*
X6029705Y-10713793D01*
X6029705Y-10713793D02*
X6020182Y-10751889D01*
X6020182Y-10751889D02*
X6010658Y-10770936D01*
X6010658Y-10770936D02*
X6001134Y-10780460D01*
X6001134Y-10780460D02*
X5982086Y-10789984D01*
X5982086Y-10789984D02*
X5963039Y-10789984D01*
X5963039Y-10789984D02*
X5943991Y-10780460D01*
X5943991Y-10780460D02*
X5934467Y-10770936D01*
X5934467Y-10770936D02*
X5924943Y-10751889D01*
X5924943Y-10751889D02*
X5915420Y-10713793D01*
X5915420Y-10713793D02*
X5915420Y-10666174D01*
X5915420Y-10666174D02*
X5924943Y-10628079D01*
X5924943Y-10628079D02*
X5934467Y-10609031D01*
X5934467Y-10609031D02*
X5943991Y-10599508D01*
X5943991Y-10599508D02*
X5963039Y-10589984D01*
X6115420Y-10789984D02*
X6115420Y-10656650D01*
X6115420Y-10675698D02*
X6124943Y-10666174D01*
X6124943Y-10666174D02*
X6143991Y-10656650D01*
X6143991Y-10656650D02*
X6172563Y-10656650D01*
X6172563Y-10656650D02*
X6191610Y-10666174D01*
X6191610Y-10666174D02*
X6201134Y-10685222D01*
X6201134Y-10685222D02*
X6201134Y-10789984D01*
X6201134Y-10685222D02*
X6210658Y-10666174D01*
X6210658Y-10666174D02*
X6229705Y-10656650D01*
X6229705Y-10656650D02*
X6258277Y-10656650D01*
X6258277Y-10656650D02*
X6277324Y-10666174D01*
X6277324Y-10666174D02*
X6286848Y-10685222D01*
X6286848Y-10685222D02*
X6286848Y-10789984D01*
X6382086Y-10789984D02*
X6382086Y-10656650D01*
X6382086Y-10675698D02*
X6391610Y-10666174D01*
X6391610Y-10666174D02*
X6410658Y-10656650D01*
X6410658Y-10656650D02*
X6439229Y-10656650D01*
X6439229Y-10656650D02*
X6458277Y-10666174D01*
X6458277Y-10666174D02*
X6467801Y-10685222D01*
X6467801Y-10685222D02*
X6467801Y-10789984D01*
X6467801Y-10685222D02*
X6477324Y-10666174D01*
X6477324Y-10666174D02*
X6496372Y-10656650D01*
X6496372Y-10656650D02*
X6524943Y-10656650D01*
X6524943Y-10656650D02*
X6543991Y-10666174D01*
X6543991Y-10666174D02*
X6553515Y-10685222D01*
X6553515Y-10685222D02*
X6553515Y-10789984D01*
X6943991Y-10580460D02*
X6772563Y-10837603D01*
X7201134Y-10589984D02*
X7220182Y-10589984D01*
X7220182Y-10589984D02*
X7239229Y-10599508D01*
X7239229Y-10599508D02*
X7248753Y-10609031D01*
X7248753Y-10609031D02*
X7258277Y-10628079D01*
X7258277Y-10628079D02*
X7267801Y-10666174D01*
X7267801Y-10666174D02*
X7267801Y-10713793D01*
X7267801Y-10713793D02*
X7258277Y-10751889D01*
X7258277Y-10751889D02*
X7248753Y-10770936D01*
X7248753Y-10770936D02*
X7239229Y-10780460D01*
X7239229Y-10780460D02*
X7220182Y-10789984D01*
X7220182Y-10789984D02*
X7201134Y-10789984D01*
X7201134Y-10789984D02*
X7182086Y-10780460D01*
X7182086Y-10780460D02*
X7172563Y-10770936D01*
X7172563Y-10770936D02*
X7163039Y-10751889D01*
X7163039Y-10751889D02*
X7153515Y-10713793D01*
X7153515Y-10713793D02*
X7153515Y-10666174D01*
X7153515Y-10666174D02*
X7163039Y-10628079D01*
X7163039Y-10628079D02*
X7172563Y-10609031D01*
X7172563Y-10609031D02*
X7182086Y-10599508D01*
X7182086Y-10599508D02*
X7201134Y-10589984D01*
X7353515Y-10770936D02*
X7363039Y-10780460D01*
X7363039Y-10780460D02*
X7353515Y-10789984D01*
X7353515Y-10789984D02*
X7343991Y-10780460D01*
X7343991Y-10780460D02*
X7353515Y-10770936D01*
X7353515Y-10770936D02*
X7353515Y-10789984D01*
X7486848Y-10589984D02*
X7505896Y-10589984D01*
X7505896Y-10589984D02*
X7524944Y-10599508D01*
X7524944Y-10599508D02*
X7534467Y-10609031D01*
X7534467Y-10609031D02*
X7543991Y-10628079D01*
X7543991Y-10628079D02*
X7553515Y-10666174D01*
X7553515Y-10666174D02*
X7553515Y-10713793D01*
X7553515Y-10713793D02*
X7543991Y-10751889D01*
X7543991Y-10751889D02*
X7534467Y-10770936D01*
X7534467Y-10770936D02*
X7524944Y-10780460D01*
X7524944Y-10780460D02*
X7505896Y-10789984D01*
X7505896Y-10789984D02*
X7486848Y-10789984D01*
X7486848Y-10789984D02*
X7467801Y-10780460D01*
X7467801Y-10780460D02*
X7458277Y-10770936D01*
X7458277Y-10770936D02*
X7448753Y-10751889D01*
X7448753Y-10751889D02*
X7439229Y-10713793D01*
X7439229Y-10713793D02*
X7439229Y-10666174D01*
X7439229Y-10666174D02*
X7448753Y-10628079D01*
X7448753Y-10628079D02*
X7458277Y-10609031D01*
X7458277Y-10609031D02*
X7467801Y-10599508D01*
X7467801Y-10599508D02*
X7486848Y-10589984D01*
X7620182Y-10589984D02*
X7743991Y-10589984D01*
X7743991Y-10589984D02*
X7677325Y-10666174D01*
X7677325Y-10666174D02*
X7705896Y-10666174D01*
X7705896Y-10666174D02*
X7724944Y-10675698D01*
X7724944Y-10675698D02*
X7734467Y-10685222D01*
X7734467Y-10685222D02*
X7743991Y-10704270D01*
X7743991Y-10704270D02*
X7743991Y-10751889D01*
X7743991Y-10751889D02*
X7734467Y-10770936D01*
X7734467Y-10770936D02*
X7724944Y-10780460D01*
X7724944Y-10780460D02*
X7705896Y-10789984D01*
X7705896Y-10789984D02*
X7648753Y-10789984D01*
X7648753Y-10789984D02*
X7629706Y-10780460D01*
X7629706Y-10780460D02*
X7620182Y-10770936D01*
X7839229Y-10789984D02*
X7877325Y-10789984D01*
X7877325Y-10789984D02*
X7896372Y-10780460D01*
X7896372Y-10780460D02*
X7905896Y-10770936D01*
X7905896Y-10770936D02*
X7924944Y-10742365D01*
X7924944Y-10742365D02*
X7934467Y-10704270D01*
X7934467Y-10704270D02*
X7934467Y-10628079D01*
X7934467Y-10628079D02*
X7924944Y-10609031D01*
X7924944Y-10609031D02*
X7915420Y-10599508D01*
X7915420Y-10599508D02*
X7896372Y-10589984D01*
X7896372Y-10589984D02*
X7858277Y-10589984D01*
X7858277Y-10589984D02*
X7839229Y-10599508D01*
X7839229Y-10599508D02*
X7829706Y-10609031D01*
X7829706Y-10609031D02*
X7820182Y-10628079D01*
X7820182Y-10628079D02*
X7820182Y-10675698D01*
X7820182Y-10675698D02*
X7829706Y-10694746D01*
X7829706Y-10694746D02*
X7839229Y-10704270D01*
X7839229Y-10704270D02*
X7858277Y-10713793D01*
X7858277Y-10713793D02*
X7896372Y-10713793D01*
X7896372Y-10713793D02*
X7915420Y-10704270D01*
X7915420Y-10704270D02*
X7924944Y-10694746D01*
X7924944Y-10694746D02*
X7934467Y-10675698D01*
X8105896Y-10656650D02*
X8105896Y-10789984D01*
X8058277Y-10580460D02*
X8010658Y-10723317D01*
X8010658Y-10723317D02*
X8134467Y-10723317D01*
X8201134Y-10589984D02*
X8201134Y-10628079D01*
X8277325Y-10589984D02*
X8277325Y-10628079D01*
X8572563Y-10866174D02*
X8563039Y-10856650D01*
X8563039Y-10856650D02*
X8543991Y-10828079D01*
X8543991Y-10828079D02*
X8534468Y-10809031D01*
X8534468Y-10809031D02*
X8524944Y-10780460D01*
X8524944Y-10780460D02*
X8515420Y-10732841D01*
X8515420Y-10732841D02*
X8515420Y-10694746D01*
X8515420Y-10694746D02*
X8524944Y-10647127D01*
X8524944Y-10647127D02*
X8534468Y-10618555D01*
X8534468Y-10618555D02*
X8543991Y-10599508D01*
X8543991Y-10599508D02*
X8563039Y-10570936D01*
X8563039Y-10570936D02*
X8572563Y-10561412D01*
X8734468Y-10589984D02*
X8696372Y-10589984D01*
X8696372Y-10589984D02*
X8677325Y-10599508D01*
X8677325Y-10599508D02*
X8667801Y-10609031D01*
X8667801Y-10609031D02*
X8648753Y-10637603D01*
X8648753Y-10637603D02*
X8639230Y-10675698D01*
X8639230Y-10675698D02*
X8639230Y-10751889D01*
X8639230Y-10751889D02*
X8648753Y-10770936D01*
X8648753Y-10770936D02*
X8658277Y-10780460D01*
X8658277Y-10780460D02*
X8677325Y-10789984D01*
X8677325Y-10789984D02*
X8715420Y-10789984D01*
X8715420Y-10789984D02*
X8734468Y-10780460D01*
X8734468Y-10780460D02*
X8743991Y-10770936D01*
X8743991Y-10770936D02*
X8753515Y-10751889D01*
X8753515Y-10751889D02*
X8753515Y-10704270D01*
X8753515Y-10704270D02*
X8743991Y-10685222D01*
X8743991Y-10685222D02*
X8734468Y-10675698D01*
X8734468Y-10675698D02*
X8715420Y-10666174D01*
X8715420Y-10666174D02*
X8677325Y-10666174D01*
X8677325Y-10666174D02*
X8658277Y-10675698D01*
X8658277Y-10675698D02*
X8648753Y-10685222D01*
X8648753Y-10685222D02*
X8639230Y-10704270D01*
X8991611Y-10789984D02*
X8991611Y-10589984D01*
X9077325Y-10789984D02*
X9077325Y-10685222D01*
X9077325Y-10685222D02*
X9067801Y-10666174D01*
X9067801Y-10666174D02*
X9048753Y-10656650D01*
X9048753Y-10656650D02*
X9020182Y-10656650D01*
X9020182Y-10656650D02*
X9001134Y-10666174D01*
X9001134Y-10666174D02*
X8991611Y-10675698D01*
X9201134Y-10789984D02*
X9182087Y-10780460D01*
X9182087Y-10780460D02*
X9172563Y-10770936D01*
X9172563Y-10770936D02*
X9163039Y-10751889D01*
X9163039Y-10751889D02*
X9163039Y-10694746D01*
X9163039Y-10694746D02*
X9172563Y-10675698D01*
X9172563Y-10675698D02*
X9182087Y-10666174D01*
X9182087Y-10666174D02*
X9201134Y-10656650D01*
X9201134Y-10656650D02*
X9229706Y-10656650D01*
X9229706Y-10656650D02*
X9248753Y-10666174D01*
X9248753Y-10666174D02*
X9258277Y-10675698D01*
X9258277Y-10675698D02*
X9267801Y-10694746D01*
X9267801Y-10694746D02*
X9267801Y-10751889D01*
X9267801Y-10751889D02*
X9258277Y-10770936D01*
X9258277Y-10770936D02*
X9248753Y-10780460D01*
X9248753Y-10780460D02*
X9229706Y-10789984D01*
X9229706Y-10789984D02*
X9201134Y-10789984D01*
X9382087Y-10789984D02*
X9363039Y-10780460D01*
X9363039Y-10780460D02*
X9353515Y-10761412D01*
X9353515Y-10761412D02*
X9353515Y-10589984D01*
X9534468Y-10780460D02*
X9515420Y-10789984D01*
X9515420Y-10789984D02*
X9477325Y-10789984D01*
X9477325Y-10789984D02*
X9458277Y-10780460D01*
X9458277Y-10780460D02*
X9448753Y-10761412D01*
X9448753Y-10761412D02*
X9448753Y-10685222D01*
X9448753Y-10685222D02*
X9458277Y-10666174D01*
X9458277Y-10666174D02*
X9477325Y-10656650D01*
X9477325Y-10656650D02*
X9515420Y-10656650D01*
X9515420Y-10656650D02*
X9534468Y-10666174D01*
X9534468Y-10666174D02*
X9543992Y-10685222D01*
X9543992Y-10685222D02*
X9543992Y-10704270D01*
X9543992Y-10704270D02*
X9448753Y-10723317D01*
X9620182Y-10780460D02*
X9639230Y-10789984D01*
X9639230Y-10789984D02*
X9677325Y-10789984D01*
X9677325Y-10789984D02*
X9696373Y-10780460D01*
X9696373Y-10780460D02*
X9705896Y-10761412D01*
X9705896Y-10761412D02*
X9705896Y-10751889D01*
X9705896Y-10751889D02*
X9696373Y-10732841D01*
X9696373Y-10732841D02*
X9677325Y-10723317D01*
X9677325Y-10723317D02*
X9648753Y-10723317D01*
X9648753Y-10723317D02*
X9629706Y-10713793D01*
X9629706Y-10713793D02*
X9620182Y-10694746D01*
X9620182Y-10694746D02*
X9620182Y-10685222D01*
X9620182Y-10685222D02*
X9629706Y-10666174D01*
X9629706Y-10666174D02*
X9648753Y-10656650D01*
X9648753Y-10656650D02*
X9677325Y-10656650D01*
X9677325Y-10656650D02*
X9696373Y-10666174D01*
X9772563Y-10866174D02*
X9782087Y-10856650D01*
X9782087Y-10856650D02*
X9801134Y-10828079D01*
X9801134Y-10828079D02*
X9810658Y-10809031D01*
X9810658Y-10809031D02*
X9820182Y-10780460D01*
X9820182Y-10780460D02*
X9829706Y-10732841D01*
X9829706Y-10732841D02*
X9829706Y-10694746D01*
X9829706Y-10694746D02*
X9820182Y-10647127D01*
X9820182Y-10647127D02*
X9810658Y-10618555D01*
X9810658Y-10618555D02*
X9801134Y-10599508D01*
X9801134Y-10599508D02*
X9782087Y-10570936D01*
X9782087Y-10570936D02*
X9772563Y-10561412D01*
D13*
X4847500Y-10887500D02*
X4997500Y-11037500D01*
X4997500Y-10887500D02*
X4847500Y-11037500D01*
X4997500Y-10962500D02*
G75*
G02*
X4847500Y-10962500I-75000J0D01*
G01*
X4847500Y-10962500D02*
G75*
G02*
X4997500Y-10962500I75000J0D01*
G01*
D11*
X5363039Y-11053984D02*
X5248753Y-11053984D01*
X5305896Y-11053984D02*
X5305896Y-10853984D01*
X5305896Y-10853984D02*
X5286848Y-10882555D01*
X5286848Y-10882555D02*
X5267801Y-10901603D01*
X5267801Y-10901603D02*
X5248753Y-10911127D01*
X5448753Y-11034936D02*
X5458277Y-11044460D01*
X5458277Y-11044460D02*
X5448753Y-11053984D01*
X5448753Y-11053984D02*
X5439229Y-11044460D01*
X5439229Y-11044460D02*
X5448753Y-11034936D01*
X5448753Y-11034936D02*
X5448753Y-11053984D01*
X5639229Y-10853984D02*
X5543991Y-10853984D01*
X5543991Y-10853984D02*
X5534467Y-10949222D01*
X5534467Y-10949222D02*
X5543991Y-10939698D01*
X5543991Y-10939698D02*
X5563039Y-10930174D01*
X5563039Y-10930174D02*
X5610658Y-10930174D01*
X5610658Y-10930174D02*
X5629705Y-10939698D01*
X5629705Y-10939698D02*
X5639229Y-10949222D01*
X5639229Y-10949222D02*
X5648753Y-10968270D01*
X5648753Y-10968270D02*
X5648753Y-11015889D01*
X5648753Y-11015889D02*
X5639229Y-11034936D01*
X5639229Y-11034936D02*
X5629705Y-11044460D01*
X5629705Y-11044460D02*
X5610658Y-11053984D01*
X5610658Y-11053984D02*
X5563039Y-11053984D01*
X5563039Y-11053984D02*
X5543991Y-11044460D01*
X5543991Y-11044460D02*
X5534467Y-11034936D01*
X5772562Y-10853984D02*
X5791610Y-10853984D01*
X5791610Y-10853984D02*
X5810658Y-10863508D01*
X5810658Y-10863508D02*
X5820182Y-10873031D01*
X5820182Y-10873031D02*
X5829705Y-10892079D01*
X5829705Y-10892079D02*
X5839229Y-10930174D01*
X5839229Y-10930174D02*
X5839229Y-10977793D01*
X5839229Y-10977793D02*
X5829705Y-11015889D01*
X5829705Y-11015889D02*
X5820182Y-11034936D01*
X5820182Y-11034936D02*
X5810658Y-11044460D01*
X5810658Y-11044460D02*
X5791610Y-11053984D01*
X5791610Y-11053984D02*
X5772562Y-11053984D01*
X5772562Y-11053984D02*
X5753515Y-11044460D01*
X5753515Y-11044460D02*
X5743991Y-11034936D01*
X5743991Y-11034936D02*
X5734467Y-11015889D01*
X5734467Y-11015889D02*
X5724943Y-10977793D01*
X5724943Y-10977793D02*
X5724943Y-10930174D01*
X5724943Y-10930174D02*
X5734467Y-10892079D01*
X5734467Y-10892079D02*
X5743991Y-10873031D01*
X5743991Y-10873031D02*
X5753515Y-10863508D01*
X5753515Y-10863508D02*
X5772562Y-10853984D01*
X5963039Y-10853984D02*
X5982086Y-10853984D01*
X5982086Y-10853984D02*
X6001134Y-10863508D01*
X6001134Y-10863508D02*
X6010658Y-10873031D01*
X6010658Y-10873031D02*
X6020182Y-10892079D01*
X6020182Y-10892079D02*
X6029705Y-10930174D01*
X6029705Y-10930174D02*
X6029705Y-10977793D01*
X6029705Y-10977793D02*
X6020182Y-11015889D01*
X6020182Y-11015889D02*
X6010658Y-11034936D01*
X6010658Y-11034936D02*
X6001134Y-11044460D01*
X6001134Y-11044460D02*
X5982086Y-11053984D01*
X5982086Y-11053984D02*
X5963039Y-11053984D01*
X5963039Y-11053984D02*
X5943991Y-11044460D01*
X5943991Y-11044460D02*
X5934467Y-11034936D01*
X5934467Y-11034936D02*
X5924943Y-11015889D01*
X5924943Y-11015889D02*
X5915420Y-10977793D01*
X5915420Y-10977793D02*
X5915420Y-10930174D01*
X5915420Y-10930174D02*
X5924943Y-10892079D01*
X5924943Y-10892079D02*
X5934467Y-10873031D01*
X5934467Y-10873031D02*
X5943991Y-10863508D01*
X5943991Y-10863508D02*
X5963039Y-10853984D01*
X6115420Y-11053984D02*
X6115420Y-10920650D01*
X6115420Y-10939698D02*
X6124943Y-10930174D01*
X6124943Y-10930174D02*
X6143991Y-10920650D01*
X6143991Y-10920650D02*
X6172563Y-10920650D01*
X6172563Y-10920650D02*
X6191610Y-10930174D01*
X6191610Y-10930174D02*
X6201134Y-10949222D01*
X6201134Y-10949222D02*
X6201134Y-11053984D01*
X6201134Y-10949222D02*
X6210658Y-10930174D01*
X6210658Y-10930174D02*
X6229705Y-10920650D01*
X6229705Y-10920650D02*
X6258277Y-10920650D01*
X6258277Y-10920650D02*
X6277324Y-10930174D01*
X6277324Y-10930174D02*
X6286848Y-10949222D01*
X6286848Y-10949222D02*
X6286848Y-11053984D01*
X6382086Y-11053984D02*
X6382086Y-10920650D01*
X6382086Y-10939698D02*
X6391610Y-10930174D01*
X6391610Y-10930174D02*
X6410658Y-10920650D01*
X6410658Y-10920650D02*
X6439229Y-10920650D01*
X6439229Y-10920650D02*
X6458277Y-10930174D01*
X6458277Y-10930174D02*
X6467801Y-10949222D01*
X6467801Y-10949222D02*
X6467801Y-11053984D01*
X6467801Y-10949222D02*
X6477324Y-10930174D01*
X6477324Y-10930174D02*
X6496372Y-10920650D01*
X6496372Y-10920650D02*
X6524943Y-10920650D01*
X6524943Y-10920650D02*
X6543991Y-10930174D01*
X6543991Y-10930174D02*
X6553515Y-10949222D01*
X6553515Y-10949222D02*
X6553515Y-11053984D01*
X6943991Y-10844460D02*
X6772563Y-11101603D01*
X7201134Y-10853984D02*
X7220182Y-10853984D01*
X7220182Y-10853984D02*
X7239229Y-10863508D01*
X7239229Y-10863508D02*
X7248753Y-10873031D01*
X7248753Y-10873031D02*
X7258277Y-10892079D01*
X7258277Y-10892079D02*
X7267801Y-10930174D01*
X7267801Y-10930174D02*
X7267801Y-10977793D01*
X7267801Y-10977793D02*
X7258277Y-11015889D01*
X7258277Y-11015889D02*
X7248753Y-11034936D01*
X7248753Y-11034936D02*
X7239229Y-11044460D01*
X7239229Y-11044460D02*
X7220182Y-11053984D01*
X7220182Y-11053984D02*
X7201134Y-11053984D01*
X7201134Y-11053984D02*
X7182086Y-11044460D01*
X7182086Y-11044460D02*
X7172563Y-11034936D01*
X7172563Y-11034936D02*
X7163039Y-11015889D01*
X7163039Y-11015889D02*
X7153515Y-10977793D01*
X7153515Y-10977793D02*
X7153515Y-10930174D01*
X7153515Y-10930174D02*
X7163039Y-10892079D01*
X7163039Y-10892079D02*
X7172563Y-10873031D01*
X7172563Y-10873031D02*
X7182086Y-10863508D01*
X7182086Y-10863508D02*
X7201134Y-10853984D01*
X7353515Y-11034936D02*
X7363039Y-11044460D01*
X7363039Y-11044460D02*
X7353515Y-11053984D01*
X7353515Y-11053984D02*
X7343991Y-11044460D01*
X7343991Y-11044460D02*
X7353515Y-11034936D01*
X7353515Y-11034936D02*
X7353515Y-11053984D01*
X7486848Y-10853984D02*
X7505896Y-10853984D01*
X7505896Y-10853984D02*
X7524944Y-10863508D01*
X7524944Y-10863508D02*
X7534467Y-10873031D01*
X7534467Y-10873031D02*
X7543991Y-10892079D01*
X7543991Y-10892079D02*
X7553515Y-10930174D01*
X7553515Y-10930174D02*
X7553515Y-10977793D01*
X7553515Y-10977793D02*
X7543991Y-11015889D01*
X7543991Y-11015889D02*
X7534467Y-11034936D01*
X7534467Y-11034936D02*
X7524944Y-11044460D01*
X7524944Y-11044460D02*
X7505896Y-11053984D01*
X7505896Y-11053984D02*
X7486848Y-11053984D01*
X7486848Y-11053984D02*
X7467801Y-11044460D01*
X7467801Y-11044460D02*
X7458277Y-11034936D01*
X7458277Y-11034936D02*
X7448753Y-11015889D01*
X7448753Y-11015889D02*
X7439229Y-10977793D01*
X7439229Y-10977793D02*
X7439229Y-10930174D01*
X7439229Y-10930174D02*
X7448753Y-10892079D01*
X7448753Y-10892079D02*
X7458277Y-10873031D01*
X7458277Y-10873031D02*
X7467801Y-10863508D01*
X7467801Y-10863508D02*
X7486848Y-10853984D01*
X7734467Y-10853984D02*
X7639229Y-10853984D01*
X7639229Y-10853984D02*
X7629706Y-10949222D01*
X7629706Y-10949222D02*
X7639229Y-10939698D01*
X7639229Y-10939698D02*
X7658277Y-10930174D01*
X7658277Y-10930174D02*
X7705896Y-10930174D01*
X7705896Y-10930174D02*
X7724944Y-10939698D01*
X7724944Y-10939698D02*
X7734467Y-10949222D01*
X7734467Y-10949222D02*
X7743991Y-10968270D01*
X7743991Y-10968270D02*
X7743991Y-11015889D01*
X7743991Y-11015889D02*
X7734467Y-11034936D01*
X7734467Y-11034936D02*
X7724944Y-11044460D01*
X7724944Y-11044460D02*
X7705896Y-11053984D01*
X7705896Y-11053984D02*
X7658277Y-11053984D01*
X7658277Y-11053984D02*
X7639229Y-11044460D01*
X7639229Y-11044460D02*
X7629706Y-11034936D01*
X7839229Y-11053984D02*
X7877325Y-11053984D01*
X7877325Y-11053984D02*
X7896372Y-11044460D01*
X7896372Y-11044460D02*
X7905896Y-11034936D01*
X7905896Y-11034936D02*
X7924944Y-11006365D01*
X7924944Y-11006365D02*
X7934467Y-10968270D01*
X7934467Y-10968270D02*
X7934467Y-10892079D01*
X7934467Y-10892079D02*
X7924944Y-10873031D01*
X7924944Y-10873031D02*
X7915420Y-10863508D01*
X7915420Y-10863508D02*
X7896372Y-10853984D01*
X7896372Y-10853984D02*
X7858277Y-10853984D01*
X7858277Y-10853984D02*
X7839229Y-10863508D01*
X7839229Y-10863508D02*
X7829706Y-10873031D01*
X7829706Y-10873031D02*
X7820182Y-10892079D01*
X7820182Y-10892079D02*
X7820182Y-10939698D01*
X7820182Y-10939698D02*
X7829706Y-10958746D01*
X7829706Y-10958746D02*
X7839229Y-10968270D01*
X7839229Y-10968270D02*
X7858277Y-10977793D01*
X7858277Y-10977793D02*
X7896372Y-10977793D01*
X7896372Y-10977793D02*
X7915420Y-10968270D01*
X7915420Y-10968270D02*
X7924944Y-10958746D01*
X7924944Y-10958746D02*
X7934467Y-10939698D01*
X8124944Y-11053984D02*
X8010658Y-11053984D01*
X8067801Y-11053984D02*
X8067801Y-10853984D01*
X8067801Y-10853984D02*
X8048753Y-10882555D01*
X8048753Y-10882555D02*
X8029706Y-10901603D01*
X8029706Y-10901603D02*
X8010658Y-10911127D01*
X8201134Y-10853984D02*
X8201134Y-10892079D01*
X8277325Y-10853984D02*
X8277325Y-10892079D01*
X8572563Y-11130174D02*
X8563039Y-11120650D01*
X8563039Y-11120650D02*
X8543991Y-11092079D01*
X8543991Y-11092079D02*
X8534468Y-11073031D01*
X8534468Y-11073031D02*
X8524944Y-11044460D01*
X8524944Y-11044460D02*
X8515420Y-10996841D01*
X8515420Y-10996841D02*
X8515420Y-10958746D01*
X8515420Y-10958746D02*
X8524944Y-10911127D01*
X8524944Y-10911127D02*
X8534468Y-10882555D01*
X8534468Y-10882555D02*
X8543991Y-10863508D01*
X8543991Y-10863508D02*
X8563039Y-10834936D01*
X8563039Y-10834936D02*
X8572563Y-10825412D01*
X8753515Y-11053984D02*
X8639230Y-11053984D01*
X8696372Y-11053984D02*
X8696372Y-10853984D01*
X8696372Y-10853984D02*
X8677325Y-10882555D01*
X8677325Y-10882555D02*
X8658277Y-10901603D01*
X8658277Y-10901603D02*
X8639230Y-10911127D01*
X8924944Y-10853984D02*
X8886849Y-10853984D01*
X8886849Y-10853984D02*
X8867801Y-10863508D01*
X8867801Y-10863508D02*
X8858277Y-10873031D01*
X8858277Y-10873031D02*
X8839230Y-10901603D01*
X8839230Y-10901603D02*
X8829706Y-10939698D01*
X8829706Y-10939698D02*
X8829706Y-11015889D01*
X8829706Y-11015889D02*
X8839230Y-11034936D01*
X8839230Y-11034936D02*
X8848753Y-11044460D01*
X8848753Y-11044460D02*
X8867801Y-11053984D01*
X8867801Y-11053984D02*
X8905896Y-11053984D01*
X8905896Y-11053984D02*
X8924944Y-11044460D01*
X8924944Y-11044460D02*
X8934468Y-11034936D01*
X8934468Y-11034936D02*
X8943991Y-11015889D01*
X8943991Y-11015889D02*
X8943991Y-10968270D01*
X8943991Y-10968270D02*
X8934468Y-10949222D01*
X8934468Y-10949222D02*
X8924944Y-10939698D01*
X8924944Y-10939698D02*
X8905896Y-10930174D01*
X8905896Y-10930174D02*
X8867801Y-10930174D01*
X8867801Y-10930174D02*
X8848753Y-10939698D01*
X8848753Y-10939698D02*
X8839230Y-10949222D01*
X8839230Y-10949222D02*
X8829706Y-10968270D01*
X9182087Y-11053984D02*
X9182087Y-10853984D01*
X9267801Y-11053984D02*
X9267801Y-10949222D01*
X9267801Y-10949222D02*
X9258277Y-10930174D01*
X9258277Y-10930174D02*
X9239230Y-10920650D01*
X9239230Y-10920650D02*
X9210658Y-10920650D01*
X9210658Y-10920650D02*
X9191611Y-10930174D01*
X9191611Y-10930174D02*
X9182087Y-10939698D01*
X9391611Y-11053984D02*
X9372563Y-11044460D01*
X9372563Y-11044460D02*
X9363039Y-11034936D01*
X9363039Y-11034936D02*
X9353515Y-11015889D01*
X9353515Y-11015889D02*
X9353515Y-10958746D01*
X9353515Y-10958746D02*
X9363039Y-10939698D01*
X9363039Y-10939698D02*
X9372563Y-10930174D01*
X9372563Y-10930174D02*
X9391611Y-10920650D01*
X9391611Y-10920650D02*
X9420182Y-10920650D01*
X9420182Y-10920650D02*
X9439230Y-10930174D01*
X9439230Y-10930174D02*
X9448753Y-10939698D01*
X9448753Y-10939698D02*
X9458277Y-10958746D01*
X9458277Y-10958746D02*
X9458277Y-11015889D01*
X9458277Y-11015889D02*
X9448753Y-11034936D01*
X9448753Y-11034936D02*
X9439230Y-11044460D01*
X9439230Y-11044460D02*
X9420182Y-11053984D01*
X9420182Y-11053984D02*
X9391611Y-11053984D01*
X9572563Y-11053984D02*
X9553515Y-11044460D01*
X9553515Y-11044460D02*
X9543992Y-11025412D01*
X9543992Y-11025412D02*
X9543992Y-10853984D01*
X9724944Y-11044460D02*
X9705896Y-11053984D01*
X9705896Y-11053984D02*
X9667801Y-11053984D01*
X9667801Y-11053984D02*
X9648753Y-11044460D01*
X9648753Y-11044460D02*
X9639230Y-11025412D01*
X9639230Y-11025412D02*
X9639230Y-10949222D01*
X9639230Y-10949222D02*
X9648753Y-10930174D01*
X9648753Y-10930174D02*
X9667801Y-10920650D01*
X9667801Y-10920650D02*
X9705896Y-10920650D01*
X9705896Y-10920650D02*
X9724944Y-10930174D01*
X9724944Y-10930174D02*
X9734468Y-10949222D01*
X9734468Y-10949222D02*
X9734468Y-10968270D01*
X9734468Y-10968270D02*
X9639230Y-10987317D01*
X9810658Y-11044460D02*
X9829706Y-11053984D01*
X9829706Y-11053984D02*
X9867801Y-11053984D01*
X9867801Y-11053984D02*
X9886849Y-11044460D01*
X9886849Y-11044460D02*
X9896373Y-11025412D01*
X9896373Y-11025412D02*
X9896373Y-11015889D01*
X9896373Y-11015889D02*
X9886849Y-10996841D01*
X9886849Y-10996841D02*
X9867801Y-10987317D01*
X9867801Y-10987317D02*
X9839230Y-10987317D01*
X9839230Y-10987317D02*
X9820182Y-10977793D01*
X9820182Y-10977793D02*
X9810658Y-10958746D01*
X9810658Y-10958746D02*
X9810658Y-10949222D01*
X9810658Y-10949222D02*
X9820182Y-10930174D01*
X9820182Y-10930174D02*
X9839230Y-10920650D01*
X9839230Y-10920650D02*
X9867801Y-10920650D01*
X9867801Y-10920650D02*
X9886849Y-10930174D01*
X9963039Y-11130174D02*
X9972563Y-11120650D01*
X9972563Y-11120650D02*
X9991611Y-11092079D01*
X9991611Y-11092079D02*
X10001134Y-11073031D01*
X10001134Y-11073031D02*
X10010658Y-11044460D01*
X10010658Y-11044460D02*
X10020182Y-10996841D01*
X10020182Y-10996841D02*
X10020182Y-10958746D01*
X10020182Y-10958746D02*
X10010658Y-10911127D01*
X10010658Y-10911127D02*
X10001134Y-10882555D01*
X10001134Y-10882555D02*
X9991611Y-10863508D01*
X9991611Y-10863508D02*
X9972563Y-10834936D01*
X9972563Y-10834936D02*
X9963039Y-10825412D01*
M02*
