M48
; DRILL file {KiCad 8.0.8} date 2025-02-18T09:32:09+0100
; FORMAT={-:-/ absolute / inch / decimal}
; #@! TF.CreationDate,2025-02-18T09:32:09+01:00
; #@! TF.GenerationSoftware,Kicad,Pcbnew,8.0.8
; #@! TF.FileFunction,Plated,1,2,PTH
FMAT,2
INCH
; #@! TA.AperFunction,Plated,PTH,ViaDrill
T1C0.0118
; #@! TA.AperFunction,Plated,PTH,ComponentDrill
T2C0.0295
; #@! TA.AperFunction,Plated,PTH,ComponentDrill
T3C0.0315
; #@! TA.AperFunction,Plated,PTH,ComponentDrill
T4C0.0394
; #@! TA.AperFunction,Plated,PTH,ComponentDrill
T5C0.0591
%
G90
G05
T1
X2.5827Y-2.685
X2.5984Y-2.4882
T2
X3.0709Y-2.3406
X3.1496Y-2.3406
T3
X2.5197Y-2.1142
X2.5984Y-2.1142
X2.6772Y-2.1142
T4
X4.5118Y-2.5598
X4.5118Y-3.0717
X4.6102Y-2.7567
X4.6102Y-3.2685
X4.7087Y-2.5598
X4.7087Y-3.0717
T5
X2.437Y-2.1142
X2.7598Y-2.1142
X3.4213Y-2.7047
X3.4213Y-2.8031
X3.4213Y-2.9016
X3.5295Y-2.6063
X3.5295Y-3.0
X3.6614Y-2.4154
X3.6614Y-2.5866
X3.685Y-3.1654
X3.7835Y-3.1654
X3.8819Y-3.1654
X3.9055Y-2.4154
X3.9055Y-2.5866
X4.0374Y-2.6063
X4.0374Y-3.0
M30
