%TF.GenerationSoftware,KiCad,Pcbnew,8.0.8*%
%TF.CreationDate,2025-02-13T16:18:38+01:00*%
%TF.ProjectId,T_lecommande,54e96c65-636f-46d6-9d61-6e64652e6b69,rev?*%
%TF.SameCoordinates,Original*%
%TF.FileFunction,Copper,L2,Bot*%
%TF.FilePolarity,Positive*%
%FSLAX46Y46*%
G04 Gerber Fmt 4.6, Leading zero omitted, Abs format (unit mm)*
G04 Created by KiCad (PCBNEW 8.0.8) date 2025-02-13 16:18:38*
%MOMM*%
%LPD*%
G01*
G04 APERTURE LIST*
G04 Aperture macros list*
%AMRoundRect*
0 Rectangle with rounded corners*
0 $1 Rounding radius*
0 $2 $3 $4 $5 $6 $7 $8 $9 X,Y pos of 4 corners*
0 Add a 4 corners polygon primitive as box body*
4,1,4,$2,$3,$4,$5,$6,$7,$8,$9,$2,$3,0*
0 Add four circle primitives for the rounded corners*
1,1,$1+$1,$2,$3*
1,1,$1+$1,$4,$5*
1,1,$1+$1,$6,$7*
1,1,$1+$1,$8,$9*
0 Add four rect primitives between the rounded corners*
20,1,$1+$1,$2,$3,$4,$5,0*
20,1,$1+$1,$4,$5,$6,$7,0*
20,1,$1+$1,$6,$7,$8,$9,0*
20,1,$1+$1,$8,$9,$2,$3,0*%
G04 Aperture macros list end*
%TA.AperFunction,ComponentPad*%
%ADD10C,2.000000*%
%TD*%
%TA.AperFunction,ComponentPad*%
%ADD11R,1.560000X1.560000*%
%TD*%
%TA.AperFunction,ComponentPad*%
%ADD12C,1.560000*%
%TD*%
%TA.AperFunction,ComponentPad*%
%ADD13O,2.200000X3.500000*%
%TD*%
%TA.AperFunction,ComponentPad*%
%ADD14R,1.500000X2.500000*%
%TD*%
%TA.AperFunction,ComponentPad*%
%ADD15O,1.500000X2.500000*%
%TD*%
%TA.AperFunction,ComponentPad*%
%ADD16RoundRect,0.250000X0.350000X0.625000X-0.350000X0.625000X-0.350000X-0.625000X0.350000X-0.625000X0*%
%TD*%
%TA.AperFunction,ComponentPad*%
%ADD17O,1.200000X1.750000*%
%TD*%
%TA.AperFunction,ViaPad*%
%ADD18C,0.600000*%
%TD*%
G04 APERTURE END LIST*
D10*
%TO.P,R1,1,V+*%
%TO.N,Net-(R1-V+)*%
X86900000Y-68700000D03*
%TO.P,R1,2,V*%
%TO.N,Net-(R1-V)*%
X86900000Y-71200000D03*
%TO.P,R1,3,V-*%
%TO.N,GND*%
X86900000Y-73700000D03*
%TO.P,R1,4,H+*%
X93600000Y-80400000D03*
%TO.P,R1,5,H*%
%TO.N,Net-(R1-H)*%
X96100000Y-80400000D03*
%TO.P,R1,6,H+*%
%TO.N,Net-(R1-H+-Pad6)*%
X98600000Y-80400000D03*
%TO.P,R1,7,SEL+*%
%TO.N,unconnected-(R1-SEL+-Pad7)*%
X99200000Y-65700000D03*
%TO.P,R1,8,SEL-*%
%TO.N,3V3*%
X93000000Y-65700000D03*
%TO.P,R1,9,SEL+*%
%TO.N,unconnected-(R1-SEL+-Pad9)*%
X99200000Y-61350000D03*
%TO.P,R1,10,SEL-*%
%TO.N,Net-(U1-GPIO2)*%
X93000000Y-61350000D03*
%TO.P,R1,11,MP*%
%TO.N,GND*%
X89650000Y-76200000D03*
%TO.P,R1,12,MP*%
%TO.N,unconnected-(R1-MP-Pad12)*%
X102550000Y-76200000D03*
%TO.P,R1,13,MP*%
%TO.N,unconnected-(R1-MP-Pad13)*%
X89650000Y-66200000D03*
%TO.P,R1,14,MP*%
%TO.N,GND*%
X102550000Y-66200000D03*
%TD*%
D11*
%TO.P,RV2,1,1*%
%TO.N,unconnected-(RV2-Pad1)*%
X114600000Y-78020000D03*
D12*
%TO.P,RV2,2,2*%
%TO.N,Net-(R1-H+-Pad6)*%
X117100000Y-83020000D03*
%TO.P,RV2,3,3*%
%TO.N,3V3*%
X119600000Y-78020000D03*
%TD*%
D13*
%TO.P,SW1,*%
%TO.N,*%
X61900000Y-53700000D03*
X70100000Y-53700000D03*
D14*
%TO.P,SW1,1,A*%
%TO.N,5V*%
X64000000Y-53700000D03*
D15*
%TO.P,SW1,2,B*%
%TO.N,Net-(J1-Pin_1)*%
X66000000Y-53700000D03*
%TO.P,SW1,3,C*%
%TO.N,unconnected-(SW1A-C-Pad3)*%
X68000000Y-53700000D03*
%TD*%
D11*
%TO.P,RV1,1,1*%
%TO.N,3V3*%
X114600000Y-65020000D03*
D12*
%TO.P,RV1,2,2*%
%TO.N,Net-(R1-V+)*%
X117100000Y-70020000D03*
%TO.P,RV1,3,3*%
%TO.N,unconnected-(RV1-Pad3)*%
X119600000Y-65020000D03*
%TD*%
D16*
%TO.P,J1,1,Pin_1*%
%TO.N,Net-(J1-Pin_1)*%
X80000000Y-59450000D03*
D17*
%TO.P,J1,2,Pin_2*%
%TO.N,GND*%
X78000000Y-59450000D03*
%TD*%
D18*
%TO.N,GND*%
X66000000Y-63200000D03*
X65600000Y-68200000D03*
%TD*%
%TA.AperFunction,Conductor*%
%TO.N,GND*%
G36*
X127016177Y-50520185D02*
G01*
X127036819Y-50536819D01*
X127163181Y-50663181D01*
X127196666Y-50724504D01*
X127199500Y-50750862D01*
X127199500Y-89375500D01*
X127179815Y-89442539D01*
X127127011Y-89488294D01*
X127075500Y-89499500D01*
X50624500Y-89499500D01*
X50557461Y-89479815D01*
X50511706Y-89427011D01*
X50500500Y-89375500D01*
X50500500Y-83019998D01*
X115814609Y-83019998D01*
X115814609Y-83020001D01*
X115834136Y-83243200D01*
X115834137Y-83243208D01*
X115892126Y-83459625D01*
X115892127Y-83459627D01*
X115892128Y-83459630D01*
X115986819Y-83662696D01*
X115986821Y-83662700D01*
X116115329Y-83846228D01*
X116115334Y-83846234D01*
X116273765Y-84004665D01*
X116273771Y-84004670D01*
X116457299Y-84133178D01*
X116457301Y-84133179D01*
X116457304Y-84133181D01*
X116660370Y-84227872D01*
X116876794Y-84285863D01*
X117036226Y-84299811D01*
X117099998Y-84305391D01*
X117100000Y-84305391D01*
X117100002Y-84305391D01*
X117155801Y-84300509D01*
X117323206Y-84285863D01*
X117539630Y-84227872D01*
X117742696Y-84133181D01*
X117926233Y-84004667D01*
X118084667Y-83846233D01*
X118213181Y-83662696D01*
X118307872Y-83459630D01*
X118365863Y-83243206D01*
X118385391Y-83020000D01*
X118365863Y-82796794D01*
X118307872Y-82580370D01*
X118213181Y-82377305D01*
X118084667Y-82193767D01*
X117926233Y-82035333D01*
X117926229Y-82035330D01*
X117926228Y-82035329D01*
X117742700Y-81906821D01*
X117742696Y-81906819D01*
X117729145Y-81900500D01*
X117539630Y-81812128D01*
X117539627Y-81812127D01*
X117539625Y-81812126D01*
X117323208Y-81754137D01*
X117323200Y-81754136D01*
X117100002Y-81734609D01*
X117099998Y-81734609D01*
X116876799Y-81754136D01*
X116876791Y-81754137D01*
X116660374Y-81812126D01*
X116660368Y-81812129D01*
X116457306Y-81906818D01*
X116457304Y-81906819D01*
X116273764Y-82035334D01*
X116115334Y-82193764D01*
X115986819Y-82377304D01*
X115986818Y-82377306D01*
X115892129Y-82580368D01*
X115892126Y-82580374D01*
X115834137Y-82796791D01*
X115834136Y-82796799D01*
X115814609Y-83019998D01*
X50500500Y-83019998D01*
X50500500Y-80399994D01*
X92094859Y-80399994D01*
X92094859Y-80400005D01*
X92115385Y-80647729D01*
X92115387Y-80647738D01*
X92176412Y-80888717D01*
X92276267Y-81116367D01*
X92376562Y-81269881D01*
X92922421Y-80724023D01*
X92935359Y-80755258D01*
X93017437Y-80878097D01*
X93121903Y-80982563D01*
X93244742Y-81064641D01*
X93275974Y-81077578D01*
X92729943Y-81623609D01*
X92776768Y-81660055D01*
X92776771Y-81660057D01*
X92995385Y-81778364D01*
X92995396Y-81778369D01*
X93230506Y-81859083D01*
X93475707Y-81900000D01*
X93724293Y-81900000D01*
X93969493Y-81859083D01*
X94204603Y-81778369D01*
X94204614Y-81778364D01*
X94423230Y-81660056D01*
X94423236Y-81660051D01*
X94470055Y-81623610D01*
X94470056Y-81623609D01*
X93924024Y-81077578D01*
X93955258Y-81064641D01*
X94078097Y-80982563D01*
X94182563Y-80878097D01*
X94264641Y-80755258D01*
X94277578Y-80724024D01*
X94832628Y-81279074D01*
X94866110Y-81285244D01*
X94907122Y-81321949D01*
X94908683Y-81320735D01*
X94911830Y-81324779D01*
X94966194Y-81383833D01*
X95080256Y-81507738D01*
X95276491Y-81660474D01*
X95276493Y-81660475D01*
X95494332Y-81778364D01*
X95495190Y-81778828D01*
X95714141Y-81853994D01*
X95728964Y-81859083D01*
X95730386Y-81859571D01*
X95975665Y-81900500D01*
X96224335Y-81900500D01*
X96469614Y-81859571D01*
X96704810Y-81778828D01*
X96923509Y-81660474D01*
X97119744Y-81507738D01*
X97258772Y-81356712D01*
X97318657Y-81320724D01*
X97388495Y-81322824D01*
X97441226Y-81356711D01*
X97580256Y-81507738D01*
X97776491Y-81660474D01*
X97776493Y-81660475D01*
X97994332Y-81778364D01*
X97995190Y-81778828D01*
X98214141Y-81853994D01*
X98228964Y-81859083D01*
X98230386Y-81859571D01*
X98475665Y-81900500D01*
X98724335Y-81900500D01*
X98969614Y-81859571D01*
X99204810Y-81778828D01*
X99423509Y-81660474D01*
X99619744Y-81507738D01*
X99788164Y-81324785D01*
X99924173Y-81116607D01*
X100024063Y-80888881D01*
X100085108Y-80647821D01*
X100085116Y-80647729D01*
X100105643Y-80400005D01*
X100105643Y-80399994D01*
X100085109Y-80152187D01*
X100085107Y-80152175D01*
X100024063Y-79911118D01*
X99924173Y-79683393D01*
X99788166Y-79475217D01*
X99758769Y-79443284D01*
X99619744Y-79292262D01*
X99423509Y-79139526D01*
X99423507Y-79139525D01*
X99423506Y-79139524D01*
X99204811Y-79021172D01*
X99204802Y-79021169D01*
X98969616Y-78940429D01*
X98724335Y-78899500D01*
X98475665Y-78899500D01*
X98230383Y-78940429D01*
X97995197Y-79021169D01*
X97995188Y-79021172D01*
X97776493Y-79139524D01*
X97580255Y-79292262D01*
X97580252Y-79292265D01*
X97441229Y-79443284D01*
X97381342Y-79479275D01*
X97311504Y-79477174D01*
X97258771Y-79443284D01*
X97119747Y-79292265D01*
X97119744Y-79292262D01*
X97037013Y-79227870D01*
X96923509Y-79139526D01*
X96923507Y-79139525D01*
X96923506Y-79139524D01*
X96704811Y-79021172D01*
X96704802Y-79021169D01*
X96469616Y-78940429D01*
X96224335Y-78899500D01*
X95975665Y-78899500D01*
X95730383Y-78940429D01*
X95495197Y-79021169D01*
X95495188Y-79021172D01*
X95276493Y-79139524D01*
X95080257Y-79292261D01*
X94911837Y-79475213D01*
X94908690Y-79479258D01*
X94906973Y-79477922D01*
X94860771Y-79517294D01*
X94831598Y-79521954D01*
X94277578Y-80075974D01*
X94264641Y-80044742D01*
X94182563Y-79921903D01*
X94078097Y-79817437D01*
X93955258Y-79735359D01*
X93924024Y-79722421D01*
X94470055Y-79176389D01*
X94470055Y-79176388D01*
X94423236Y-79139947D01*
X94423231Y-79139944D01*
X94204614Y-79021635D01*
X94204603Y-79021630D01*
X93969493Y-78940916D01*
X93724293Y-78900000D01*
X93475707Y-78900000D01*
X93230506Y-78940916D01*
X92995396Y-79021630D01*
X92995385Y-79021635D01*
X92776770Y-79139943D01*
X92729943Y-79176389D01*
X93275975Y-79722421D01*
X93244742Y-79735359D01*
X93121903Y-79817437D01*
X93017437Y-79921903D01*
X92935359Y-80044742D01*
X92922421Y-80075975D01*
X92376563Y-79530117D01*
X92276267Y-79683633D01*
X92276265Y-79683637D01*
X92176412Y-79911282D01*
X92115387Y-80152261D01*
X92115385Y-80152270D01*
X92094859Y-80399994D01*
X50500500Y-80399994D01*
X50500500Y-76199994D01*
X88144859Y-76199994D01*
X88144859Y-76200005D01*
X88165385Y-76447729D01*
X88165387Y-76447738D01*
X88226412Y-76688717D01*
X88326267Y-76916367D01*
X88426562Y-77069881D01*
X88972421Y-76524023D01*
X88985359Y-76555258D01*
X89067437Y-76678097D01*
X89171903Y-76782563D01*
X89294742Y-76864641D01*
X89325974Y-76877578D01*
X88779943Y-77423609D01*
X88826768Y-77460055D01*
X88826771Y-77460057D01*
X89045385Y-77578364D01*
X89045396Y-77578369D01*
X89280506Y-77659083D01*
X89525707Y-77700000D01*
X89774293Y-77700000D01*
X90019493Y-77659083D01*
X90254603Y-77578369D01*
X90254614Y-77578364D01*
X90473230Y-77460056D01*
X90473236Y-77460051D01*
X90520055Y-77423610D01*
X90520056Y-77423609D01*
X89974024Y-76877578D01*
X90005258Y-76864641D01*
X90128097Y-76782563D01*
X90232563Y-76678097D01*
X90314641Y-76555258D01*
X90327578Y-76524025D01*
X90873435Y-77069882D01*
X90973733Y-76916364D01*
X91073587Y-76688717D01*
X91134612Y-76447738D01*
X91134614Y-76447729D01*
X91155141Y-76200005D01*
X91155141Y-76199994D01*
X101044357Y-76199994D01*
X101044357Y-76200005D01*
X101064890Y-76447812D01*
X101064892Y-76447824D01*
X101125936Y-76688881D01*
X101225826Y-76916606D01*
X101361833Y-77124782D01*
X101361836Y-77124785D01*
X101530256Y-77307738D01*
X101726491Y-77460474D01*
X101726493Y-77460475D01*
X101944332Y-77578364D01*
X101945190Y-77578828D01*
X102164141Y-77653994D01*
X102178964Y-77659083D01*
X102180386Y-77659571D01*
X102425665Y-77700500D01*
X102674335Y-77700500D01*
X102919614Y-77659571D01*
X103154810Y-77578828D01*
X103373509Y-77460474D01*
X103569744Y-77307738D01*
X103676164Y-77192135D01*
X113319500Y-77192135D01*
X113319500Y-78847870D01*
X113319501Y-78847876D01*
X113325908Y-78907483D01*
X113376202Y-79042328D01*
X113376206Y-79042335D01*
X113462452Y-79157544D01*
X113462455Y-79157547D01*
X113577664Y-79243793D01*
X113577671Y-79243797D01*
X113712517Y-79294091D01*
X113712516Y-79294091D01*
X113719444Y-79294835D01*
X113772127Y-79300500D01*
X115427872Y-79300499D01*
X115487483Y-79294091D01*
X115622331Y-79243796D01*
X115737546Y-79157546D01*
X115823796Y-79042331D01*
X115874091Y-78907483D01*
X115880500Y-78847873D01*
X115880499Y-78019998D01*
X118314609Y-78019998D01*
X118314609Y-78020001D01*
X118334136Y-78243200D01*
X118334137Y-78243208D01*
X118392126Y-78459625D01*
X118392127Y-78459627D01*
X118392128Y-78459630D01*
X118486819Y-78662696D01*
X118486821Y-78662700D01*
X118615329Y-78846228D01*
X118615334Y-78846234D01*
X118773765Y-79004665D01*
X118773771Y-79004670D01*
X118957299Y-79133178D01*
X118957301Y-79133179D01*
X118957304Y-79133181D01*
X119160370Y-79227872D01*
X119376794Y-79285863D01*
X119536226Y-79299811D01*
X119599998Y-79305391D01*
X119600000Y-79305391D01*
X119600002Y-79305391D01*
X119655927Y-79300498D01*
X119823206Y-79285863D01*
X120039630Y-79227872D01*
X120242696Y-79133181D01*
X120426233Y-79004667D01*
X120584667Y-78846233D01*
X120713181Y-78662696D01*
X120807872Y-78459630D01*
X120865863Y-78243206D01*
X120885391Y-78020000D01*
X120865863Y-77796794D01*
X120807872Y-77580370D01*
X120713181Y-77377305D01*
X120584667Y-77193767D01*
X120426233Y-77035333D01*
X120426229Y-77035330D01*
X120426228Y-77035329D01*
X120242700Y-76906821D01*
X120242696Y-76906819D01*
X120190445Y-76882454D01*
X120039630Y-76812128D01*
X120039627Y-76812127D01*
X120039625Y-76812126D01*
X119823208Y-76754137D01*
X119823200Y-76754136D01*
X119600002Y-76734609D01*
X119599998Y-76734609D01*
X119376799Y-76754136D01*
X119376791Y-76754137D01*
X119160374Y-76812126D01*
X119160368Y-76812129D01*
X118957306Y-76906818D01*
X118957304Y-76906819D01*
X118773764Y-77035334D01*
X118615334Y-77193764D01*
X118486819Y-77377304D01*
X118486818Y-77377306D01*
X118392129Y-77580368D01*
X118392126Y-77580374D01*
X118334137Y-77796791D01*
X118334136Y-77796799D01*
X118314609Y-78019998D01*
X115880499Y-78019998D01*
X115880499Y-77192128D01*
X115874091Y-77132517D01*
X115871207Y-77124785D01*
X115823797Y-76997671D01*
X115823793Y-76997664D01*
X115737547Y-76882455D01*
X115737544Y-76882452D01*
X115622335Y-76796206D01*
X115622328Y-76796202D01*
X115487482Y-76745908D01*
X115487483Y-76745908D01*
X115427883Y-76739501D01*
X115427881Y-76739500D01*
X115427873Y-76739500D01*
X115427864Y-76739500D01*
X113772129Y-76739500D01*
X113772123Y-76739501D01*
X113712516Y-76745908D01*
X113577671Y-76796202D01*
X113577664Y-76796206D01*
X113462455Y-76882452D01*
X113462452Y-76882455D01*
X113376206Y-76997664D01*
X113376202Y-76997671D01*
X113325908Y-77132517D01*
X113319501Y-77192116D01*
X113319501Y-77192123D01*
X113319500Y-77192135D01*
X103676164Y-77192135D01*
X103738164Y-77124785D01*
X103874173Y-76916607D01*
X103974063Y-76688881D01*
X104035108Y-76447821D01*
X104035116Y-76447729D01*
X104055643Y-76200005D01*
X104055643Y-76199994D01*
X104035109Y-75952187D01*
X104035107Y-75952175D01*
X103974063Y-75711118D01*
X103874173Y-75483393D01*
X103738166Y-75275217D01*
X103716557Y-75251744D01*
X103569744Y-75092262D01*
X103373509Y-74939526D01*
X103373507Y-74939525D01*
X103373506Y-74939524D01*
X103154811Y-74821172D01*
X103154802Y-74821169D01*
X102919616Y-74740429D01*
X102674335Y-74699500D01*
X102425665Y-74699500D01*
X102180383Y-74740429D01*
X101945197Y-74821169D01*
X101945188Y-74821172D01*
X101726493Y-74939524D01*
X101530257Y-75092261D01*
X101361833Y-75275217D01*
X101225826Y-75483393D01*
X101125936Y-75711118D01*
X101064892Y-75952175D01*
X101064890Y-75952187D01*
X101044357Y-76199994D01*
X91155141Y-76199994D01*
X91134614Y-75952270D01*
X91134612Y-75952261D01*
X91073587Y-75711282D01*
X90973732Y-75483632D01*
X90873435Y-75330116D01*
X90327577Y-75875974D01*
X90314641Y-75844742D01*
X90232563Y-75721903D01*
X90128097Y-75617437D01*
X90005258Y-75535359D01*
X89974024Y-75522421D01*
X90520055Y-74976389D01*
X90520055Y-74976388D01*
X90473236Y-74939947D01*
X90473231Y-74939944D01*
X90254614Y-74821635D01*
X90254603Y-74821630D01*
X90019493Y-74740916D01*
X89774293Y-74700000D01*
X89525707Y-74700000D01*
X89280506Y-74740916D01*
X89045396Y-74821630D01*
X89045385Y-74821635D01*
X88826770Y-74939943D01*
X88779943Y-74976389D01*
X89325975Y-75522421D01*
X89294742Y-75535359D01*
X89171903Y-75617437D01*
X89067437Y-75721903D01*
X88985359Y-75844742D01*
X88972421Y-75875975D01*
X88426563Y-75330117D01*
X88326267Y-75483633D01*
X88326265Y-75483637D01*
X88226412Y-75711282D01*
X88165387Y-75952261D01*
X88165385Y-75952270D01*
X88144859Y-76199994D01*
X50500500Y-76199994D01*
X50500500Y-68699994D01*
X85394357Y-68699994D01*
X85394357Y-68700005D01*
X85414890Y-68947812D01*
X85414892Y-68947824D01*
X85475936Y-69188881D01*
X85575826Y-69416606D01*
X85711833Y-69624782D01*
X85711836Y-69624785D01*
X85880256Y-69807738D01*
X85937312Y-69852147D01*
X85978125Y-69908857D01*
X85981800Y-69978630D01*
X85947169Y-70039313D01*
X85937317Y-70047848D01*
X85897283Y-70079008D01*
X85880257Y-70092261D01*
X85711833Y-70275217D01*
X85575826Y-70483393D01*
X85475936Y-70711118D01*
X85414892Y-70952175D01*
X85414890Y-70952187D01*
X85394357Y-71199994D01*
X85394357Y-71200005D01*
X85414890Y-71447812D01*
X85414892Y-71447824D01*
X85475936Y-71688881D01*
X85575826Y-71916606D01*
X85711833Y-72124782D01*
X85711836Y-72124785D01*
X85880256Y-72307738D01*
X85971854Y-72379032D01*
X85981376Y-72386443D01*
X86022188Y-72443153D01*
X86026301Y-72472747D01*
X86575975Y-73022421D01*
X86544742Y-73035359D01*
X86421903Y-73117437D01*
X86317437Y-73221903D01*
X86235359Y-73344742D01*
X86222421Y-73375975D01*
X85676563Y-72830117D01*
X85576267Y-72983633D01*
X85576265Y-72983637D01*
X85476412Y-73211282D01*
X85415387Y-73452261D01*
X85415385Y-73452270D01*
X85394859Y-73699994D01*
X85394859Y-73700005D01*
X85415385Y-73947729D01*
X85415387Y-73947738D01*
X85476412Y-74188717D01*
X85576267Y-74416367D01*
X85676562Y-74569881D01*
X86222421Y-74024023D01*
X86235359Y-74055258D01*
X86317437Y-74178097D01*
X86421903Y-74282563D01*
X86544742Y-74364641D01*
X86575974Y-74377578D01*
X86029943Y-74923609D01*
X86076768Y-74960055D01*
X86076771Y-74960057D01*
X86295385Y-75078364D01*
X86295396Y-75078369D01*
X86530506Y-75159083D01*
X86775707Y-75200000D01*
X87024293Y-75200000D01*
X87269493Y-75159083D01*
X87504603Y-75078369D01*
X87504614Y-75078364D01*
X87723230Y-74960056D01*
X87723236Y-74960051D01*
X87770055Y-74923610D01*
X87770056Y-74923609D01*
X87224024Y-74377578D01*
X87255258Y-74364641D01*
X87378097Y-74282563D01*
X87482563Y-74178097D01*
X87564641Y-74055258D01*
X87577578Y-74024024D01*
X88123435Y-74569882D01*
X88223733Y-74416364D01*
X88323587Y-74188717D01*
X88384612Y-73947738D01*
X88384614Y-73947729D01*
X88405141Y-73700005D01*
X88405141Y-73699994D01*
X88384614Y-73452270D01*
X88384612Y-73452261D01*
X88323587Y-73211282D01*
X88223732Y-72983632D01*
X88123435Y-72830116D01*
X87577577Y-73375974D01*
X87564641Y-73344742D01*
X87482563Y-73221903D01*
X87378097Y-73117437D01*
X87255258Y-73035359D01*
X87224024Y-73022421D01*
X87775896Y-72470548D01*
X87786515Y-72423851D01*
X87818618Y-72386447D01*
X87919744Y-72307738D01*
X88088164Y-72124785D01*
X88224173Y-71916607D01*
X88324063Y-71688881D01*
X88385108Y-71447821D01*
X88396910Y-71305391D01*
X88405643Y-71200005D01*
X88405643Y-71199994D01*
X88385109Y-70952187D01*
X88385107Y-70952175D01*
X88324063Y-70711118D01*
X88224173Y-70483393D01*
X88088166Y-70275217D01*
X88058692Y-70243200D01*
X87919744Y-70092262D01*
X87862685Y-70047851D01*
X87842640Y-70019998D01*
X115814609Y-70019998D01*
X115814609Y-70020001D01*
X115834136Y-70243200D01*
X115834137Y-70243208D01*
X115892126Y-70459625D01*
X115892127Y-70459627D01*
X115892128Y-70459630D01*
X115903209Y-70483393D01*
X115986819Y-70662696D01*
X115986821Y-70662700D01*
X116115329Y-70846228D01*
X116115334Y-70846234D01*
X116273765Y-71004665D01*
X116273771Y-71004670D01*
X116457299Y-71133178D01*
X116457301Y-71133179D01*
X116457304Y-71133181D01*
X116660370Y-71227872D01*
X116876794Y-71285863D01*
X117036226Y-71299811D01*
X117099998Y-71305391D01*
X117100000Y-71305391D01*
X117100002Y-71305391D01*
X117155801Y-71300509D01*
X117323206Y-71285863D01*
X117539630Y-71227872D01*
X117742696Y-71133181D01*
X117926233Y-71004667D01*
X118084667Y-70846233D01*
X118213181Y-70662696D01*
X118307872Y-70459630D01*
X118365863Y-70243206D01*
X118385391Y-70020000D01*
X118365863Y-69796794D01*
X118307872Y-69580370D01*
X118213181Y-69377305D01*
X118084667Y-69193767D01*
X117926233Y-69035333D01*
X117926229Y-69035330D01*
X117926228Y-69035329D01*
X117742700Y-68906821D01*
X117742696Y-68906819D01*
X117742694Y-68906818D01*
X117539630Y-68812128D01*
X117539627Y-68812127D01*
X117539625Y-68812126D01*
X117323208Y-68754137D01*
X117323200Y-68754136D01*
X117100002Y-68734609D01*
X117099998Y-68734609D01*
X116876799Y-68754136D01*
X116876791Y-68754137D01*
X116660374Y-68812126D01*
X116660368Y-68812129D01*
X116457306Y-68906818D01*
X116457304Y-68906819D01*
X116273764Y-69035334D01*
X116115334Y-69193764D01*
X115986819Y-69377304D01*
X115986818Y-69377306D01*
X115892129Y-69580368D01*
X115892126Y-69580374D01*
X115834137Y-69796791D01*
X115834136Y-69796799D01*
X115814609Y-70019998D01*
X87842640Y-70019998D01*
X87821874Y-69991143D01*
X87818199Y-69921370D01*
X87852830Y-69860687D01*
X87862675Y-69852156D01*
X87919744Y-69807738D01*
X88088164Y-69624785D01*
X88224173Y-69416607D01*
X88324063Y-69188881D01*
X88385108Y-68947821D01*
X88385109Y-68947812D01*
X88405643Y-68700005D01*
X88405643Y-68699994D01*
X88385109Y-68452187D01*
X88385107Y-68452175D01*
X88324063Y-68211118D01*
X88224173Y-67983393D01*
X88088166Y-67775217D01*
X88019384Y-67700500D01*
X87919744Y-67592262D01*
X87723509Y-67439526D01*
X87723507Y-67439525D01*
X87723506Y-67439524D01*
X87504811Y-67321172D01*
X87504802Y-67321169D01*
X87269616Y-67240429D01*
X87024335Y-67199500D01*
X86775665Y-67199500D01*
X86530383Y-67240429D01*
X86295197Y-67321169D01*
X86295188Y-67321172D01*
X86076493Y-67439524D01*
X85880257Y-67592261D01*
X85711833Y-67775217D01*
X85575826Y-67983393D01*
X85475936Y-68211118D01*
X85414892Y-68452175D01*
X85414890Y-68452187D01*
X85394357Y-68699994D01*
X50500500Y-68699994D01*
X50500500Y-66199994D01*
X88144357Y-66199994D01*
X88144357Y-66200005D01*
X88164890Y-66447812D01*
X88164892Y-66447824D01*
X88225936Y-66688881D01*
X88325826Y-66916606D01*
X88461833Y-67124782D01*
X88461836Y-67124785D01*
X88630256Y-67307738D01*
X88826491Y-67460474D01*
X88826493Y-67460475D01*
X89044332Y-67578364D01*
X89045190Y-67578828D01*
X89264141Y-67653994D01*
X89278964Y-67659083D01*
X89280386Y-67659571D01*
X89525665Y-67700500D01*
X89774335Y-67700500D01*
X90019614Y-67659571D01*
X90254810Y-67578828D01*
X90473509Y-67460474D01*
X90669744Y-67307738D01*
X90838164Y-67124785D01*
X90974173Y-66916607D01*
X91074063Y-66688881D01*
X91135108Y-66447821D01*
X91135116Y-66447729D01*
X91155643Y-66200005D01*
X91155643Y-66199994D01*
X91135109Y-65952187D01*
X91135107Y-65952175D01*
X91074063Y-65711118D01*
X91069184Y-65699994D01*
X91494357Y-65699994D01*
X91494357Y-65700005D01*
X91514890Y-65947812D01*
X91514892Y-65947824D01*
X91575936Y-66188881D01*
X91675826Y-66416606D01*
X91811833Y-66624782D01*
X91811836Y-66624785D01*
X91980256Y-66807738D01*
X92176491Y-66960474D01*
X92395190Y-67078828D01*
X92630386Y-67159571D01*
X92875665Y-67200500D01*
X93124335Y-67200500D01*
X93369614Y-67159571D01*
X93604810Y-67078828D01*
X93823509Y-66960474D01*
X94019744Y-66807738D01*
X94188164Y-66624785D01*
X94324173Y-66416607D01*
X94424063Y-66188881D01*
X94485108Y-65947821D01*
X94485109Y-65947812D01*
X94505643Y-65700005D01*
X94505643Y-65699994D01*
X97694357Y-65699994D01*
X97694357Y-65700005D01*
X97714890Y-65947812D01*
X97714892Y-65947824D01*
X97775936Y-66188881D01*
X97875826Y-66416606D01*
X98011833Y-66624782D01*
X98011836Y-66624785D01*
X98180256Y-66807738D01*
X98376491Y-66960474D01*
X98595190Y-67078828D01*
X98830386Y-67159571D01*
X99075665Y-67200500D01*
X99324335Y-67200500D01*
X99569614Y-67159571D01*
X99804810Y-67078828D01*
X100023509Y-66960474D01*
X100219744Y-66807738D01*
X100388164Y-66624785D01*
X100524173Y-66416607D01*
X100619188Y-66199994D01*
X101044859Y-66199994D01*
X101044859Y-66200005D01*
X101065385Y-66447729D01*
X101065387Y-66447738D01*
X101126412Y-66688717D01*
X101226267Y-66916367D01*
X101326562Y-67069881D01*
X101872421Y-66524023D01*
X101885359Y-66555258D01*
X101967437Y-66678097D01*
X102071903Y-66782563D01*
X102194742Y-66864641D01*
X102225974Y-66877578D01*
X101679943Y-67423609D01*
X101726768Y-67460055D01*
X101726771Y-67460057D01*
X101945385Y-67578364D01*
X101945396Y-67578369D01*
X102180506Y-67659083D01*
X102425707Y-67700000D01*
X102674293Y-67700000D01*
X102919493Y-67659083D01*
X103154603Y-67578369D01*
X103154614Y-67578364D01*
X103373230Y-67460056D01*
X103373236Y-67460051D01*
X103420055Y-67423610D01*
X103420056Y-67423609D01*
X102874024Y-66877578D01*
X102905258Y-66864641D01*
X103028097Y-66782563D01*
X103132563Y-66678097D01*
X103214641Y-66555258D01*
X103227578Y-66524025D01*
X103773435Y-67069882D01*
X103873733Y-66916364D01*
X103973587Y-66688717D01*
X104034612Y-66447738D01*
X104034614Y-66447729D01*
X104055141Y-66200005D01*
X104055141Y-66199994D01*
X104034614Y-65952270D01*
X104034612Y-65952261D01*
X103973587Y-65711282D01*
X103873732Y-65483632D01*
X103773435Y-65330116D01*
X103227577Y-65875974D01*
X103214641Y-65844742D01*
X103132563Y-65721903D01*
X103028097Y-65617437D01*
X102905258Y-65535359D01*
X102874024Y-65522421D01*
X103420055Y-64976389D01*
X103420055Y-64976388D01*
X103373236Y-64939947D01*
X103373231Y-64939944D01*
X103154614Y-64821635D01*
X103154603Y-64821630D01*
X102919493Y-64740916D01*
X102674293Y-64700000D01*
X102425707Y-64700000D01*
X102180506Y-64740916D01*
X101945396Y-64821630D01*
X101945385Y-64821635D01*
X101726770Y-64939943D01*
X101679943Y-64976389D01*
X102225975Y-65522421D01*
X102194742Y-65535359D01*
X102071903Y-65617437D01*
X101967437Y-65721903D01*
X101885359Y-65844742D01*
X101872421Y-65875975D01*
X101326563Y-65330117D01*
X101226267Y-65483633D01*
X101226265Y-65483637D01*
X101126412Y-65711282D01*
X101065387Y-65952261D01*
X101065385Y-65952270D01*
X101044859Y-66199994D01*
X100619188Y-66199994D01*
X100624063Y-66188881D01*
X100685108Y-65947821D01*
X100685109Y-65947812D01*
X100705643Y-65700005D01*
X100705643Y-65699994D01*
X100685109Y-65452187D01*
X100685107Y-65452175D01*
X100624063Y-65211118D01*
X100524173Y-64983393D01*
X100388166Y-64775217D01*
X100366557Y-64751744D01*
X100219744Y-64592262D01*
X100023509Y-64439526D01*
X100023507Y-64439525D01*
X100023506Y-64439524D01*
X99804811Y-64321172D01*
X99804802Y-64321169D01*
X99569616Y-64240429D01*
X99324335Y-64199500D01*
X99075665Y-64199500D01*
X98830383Y-64240429D01*
X98595197Y-64321169D01*
X98595188Y-64321172D01*
X98376493Y-64439524D01*
X98180257Y-64592261D01*
X98011833Y-64775217D01*
X97875826Y-64983393D01*
X97775936Y-65211118D01*
X97714892Y-65452175D01*
X97714890Y-65452187D01*
X97694357Y-65699994D01*
X94505643Y-65699994D01*
X94485109Y-65452187D01*
X94485107Y-65452175D01*
X94424063Y-65211118D01*
X94324173Y-64983393D01*
X94188166Y-64775217D01*
X94166557Y-64751744D01*
X94019744Y-64592262D01*
X93823509Y-64439526D01*
X93823507Y-64439525D01*
X93823506Y-64439524D01*
X93604811Y-64321172D01*
X93604802Y-64321169D01*
X93369616Y-64240429D01*
X93124335Y-64199500D01*
X92875665Y-64199500D01*
X92630383Y-64240429D01*
X92395197Y-64321169D01*
X92395188Y-64321172D01*
X92176493Y-64439524D01*
X91980257Y-64592261D01*
X91811833Y-64775217D01*
X91675826Y-64983393D01*
X91575936Y-65211118D01*
X91514892Y-65452175D01*
X91514890Y-65452187D01*
X91494357Y-65699994D01*
X91069184Y-65699994D01*
X90974173Y-65483393D01*
X90838166Y-65275217D01*
X90808692Y-65243200D01*
X90669744Y-65092262D01*
X90473509Y-64939526D01*
X90473507Y-64939525D01*
X90473506Y-64939524D01*
X90254811Y-64821172D01*
X90254802Y-64821169D01*
X90019616Y-64740429D01*
X89774335Y-64699500D01*
X89525665Y-64699500D01*
X89280383Y-64740429D01*
X89045197Y-64821169D01*
X89045188Y-64821172D01*
X88826493Y-64939524D01*
X88630257Y-65092261D01*
X88461833Y-65275217D01*
X88325826Y-65483393D01*
X88225936Y-65711118D01*
X88164892Y-65952175D01*
X88164890Y-65952187D01*
X88144357Y-66199994D01*
X50500500Y-66199994D01*
X50500500Y-64192135D01*
X113319500Y-64192135D01*
X113319500Y-65847870D01*
X113319501Y-65847876D01*
X113325908Y-65907483D01*
X113376202Y-66042328D01*
X113376206Y-66042335D01*
X113462452Y-66157544D01*
X113462455Y-66157547D01*
X113577664Y-66243793D01*
X113577671Y-66243797D01*
X113712517Y-66294091D01*
X113712516Y-66294091D01*
X113719444Y-66294835D01*
X113772127Y-66300500D01*
X115427872Y-66300499D01*
X115487483Y-66294091D01*
X115622331Y-66243796D01*
X115737546Y-66157546D01*
X115823796Y-66042331D01*
X115874091Y-65907483D01*
X115880500Y-65847873D01*
X115880499Y-65019998D01*
X118314609Y-65019998D01*
X118314609Y-65020001D01*
X118334136Y-65243200D01*
X118334137Y-65243208D01*
X118392126Y-65459625D01*
X118392127Y-65459627D01*
X118392128Y-65459630D01*
X118486819Y-65662696D01*
X118486821Y-65662700D01*
X118615329Y-65846228D01*
X118615334Y-65846234D01*
X118773765Y-66004665D01*
X118773771Y-66004670D01*
X118957299Y-66133178D01*
X118957301Y-66133179D01*
X118957304Y-66133181D01*
X119160370Y-66227872D01*
X119376794Y-66285863D01*
X119536226Y-66299811D01*
X119599998Y-66305391D01*
X119600000Y-66305391D01*
X119600002Y-66305391D01*
X119655927Y-66300498D01*
X119823206Y-66285863D01*
X120039630Y-66227872D01*
X120242696Y-66133181D01*
X120426233Y-66004667D01*
X120584667Y-65846233D01*
X120713181Y-65662696D01*
X120807872Y-65459630D01*
X120865863Y-65243206D01*
X120885391Y-65020000D01*
X120865863Y-64796794D01*
X120807872Y-64580370D01*
X120713181Y-64377305D01*
X120617340Y-64240429D01*
X120584668Y-64193768D01*
X120523416Y-64132516D01*
X120426233Y-64035333D01*
X120426229Y-64035330D01*
X120426228Y-64035329D01*
X120242700Y-63906821D01*
X120242696Y-63906819D01*
X120190445Y-63882454D01*
X120039630Y-63812128D01*
X120039627Y-63812127D01*
X120039625Y-63812126D01*
X119823208Y-63754137D01*
X119823200Y-63754136D01*
X119600002Y-63734609D01*
X119599998Y-63734609D01*
X119376799Y-63754136D01*
X119376791Y-63754137D01*
X119160374Y-63812126D01*
X119160368Y-63812129D01*
X118957306Y-63906818D01*
X118957304Y-63906819D01*
X118773764Y-64035334D01*
X118615334Y-64193764D01*
X118486819Y-64377304D01*
X118486818Y-64377306D01*
X118392129Y-64580368D01*
X118392126Y-64580374D01*
X118334137Y-64796791D01*
X118334136Y-64796799D01*
X118314609Y-65019998D01*
X115880499Y-65019998D01*
X115880499Y-64192128D01*
X115874091Y-64132517D01*
X115837842Y-64035329D01*
X115823797Y-63997671D01*
X115823793Y-63997664D01*
X115737547Y-63882455D01*
X115737544Y-63882452D01*
X115622335Y-63796206D01*
X115622328Y-63796202D01*
X115487482Y-63745908D01*
X115487483Y-63745908D01*
X115427883Y-63739501D01*
X115427881Y-63739500D01*
X115427873Y-63739500D01*
X115427864Y-63739500D01*
X113772129Y-63739500D01*
X113772123Y-63739501D01*
X113712516Y-63745908D01*
X113577671Y-63796202D01*
X113577664Y-63796206D01*
X113462455Y-63882452D01*
X113462452Y-63882455D01*
X113376206Y-63997664D01*
X113376202Y-63997671D01*
X113325908Y-64132517D01*
X113319501Y-64192116D01*
X113319501Y-64192123D01*
X113319500Y-64192135D01*
X50500500Y-64192135D01*
X50500500Y-61349994D01*
X91494357Y-61349994D01*
X91494357Y-61350005D01*
X91514890Y-61597812D01*
X91514892Y-61597824D01*
X91575936Y-61838881D01*
X91675826Y-62066606D01*
X91811833Y-62274782D01*
X91811836Y-62274785D01*
X91980256Y-62457738D01*
X92176491Y-62610474D01*
X92395190Y-62728828D01*
X92630386Y-62809571D01*
X92875665Y-62850500D01*
X93124335Y-62850500D01*
X93369614Y-62809571D01*
X93604810Y-62728828D01*
X93823509Y-62610474D01*
X94019744Y-62457738D01*
X94188164Y-62274785D01*
X94324173Y-62066607D01*
X94424063Y-61838881D01*
X94485108Y-61597821D01*
X94505643Y-61350000D01*
X94505643Y-61349994D01*
X97694357Y-61349994D01*
X97694357Y-61350005D01*
X97714890Y-61597812D01*
X97714892Y-61597824D01*
X97775936Y-61838881D01*
X97875826Y-62066606D01*
X98011833Y-62274782D01*
X98011836Y-62274785D01*
X98180256Y-62457738D01*
X98376491Y-62610474D01*
X98595190Y-62728828D01*
X98830386Y-62809571D01*
X99075665Y-62850500D01*
X99324335Y-62850500D01*
X99569614Y-62809571D01*
X99804810Y-62728828D01*
X100023509Y-62610474D01*
X100219744Y-62457738D01*
X100388164Y-62274785D01*
X100524173Y-62066607D01*
X100624063Y-61838881D01*
X100685108Y-61597821D01*
X100705643Y-61350000D01*
X100685108Y-61102179D01*
X100624063Y-60861119D01*
X100608438Y-60825498D01*
X100524173Y-60633393D01*
X100388166Y-60425217D01*
X100274298Y-60301524D01*
X100219744Y-60242262D01*
X100023509Y-60089526D01*
X100023507Y-60089525D01*
X100023506Y-60089524D01*
X99804811Y-59971172D01*
X99804802Y-59971169D01*
X99569616Y-59890429D01*
X99324335Y-59849500D01*
X99075665Y-59849500D01*
X98830383Y-59890429D01*
X98595197Y-59971169D01*
X98595188Y-59971172D01*
X98376493Y-60089524D01*
X98180257Y-60242261D01*
X98011833Y-60425217D01*
X97875826Y-60633393D01*
X97775936Y-60861118D01*
X97714892Y-61102175D01*
X97714890Y-61102187D01*
X97694357Y-61349994D01*
X94505643Y-61349994D01*
X94485108Y-61102179D01*
X94424063Y-60861119D01*
X94408438Y-60825498D01*
X94324173Y-60633393D01*
X94188166Y-60425217D01*
X94074298Y-60301524D01*
X94019744Y-60242262D01*
X93823509Y-60089526D01*
X93823507Y-60089525D01*
X93823506Y-60089524D01*
X93604811Y-59971172D01*
X93604802Y-59971169D01*
X93369616Y-59890429D01*
X93124335Y-59849500D01*
X92875665Y-59849500D01*
X92630383Y-59890429D01*
X92395197Y-59971169D01*
X92395188Y-59971172D01*
X92176493Y-60089524D01*
X91980257Y-60242261D01*
X91811833Y-60425217D01*
X91675826Y-60633393D01*
X91575936Y-60861118D01*
X91514892Y-61102175D01*
X91514890Y-61102187D01*
X91494357Y-61349994D01*
X50500500Y-61349994D01*
X50500500Y-59088428D01*
X76900000Y-59088428D01*
X76900000Y-59200000D01*
X77719670Y-59200000D01*
X77699925Y-59219745D01*
X77650556Y-59305255D01*
X77625000Y-59400630D01*
X77625000Y-59499370D01*
X77650556Y-59594745D01*
X77699925Y-59680255D01*
X77719670Y-59700000D01*
X76900000Y-59700000D01*
X76900000Y-59811571D01*
X76927085Y-59982584D01*
X76980591Y-60147257D01*
X77059195Y-60301524D01*
X77160967Y-60441602D01*
X77283397Y-60564032D01*
X77423475Y-60665804D01*
X77577744Y-60744408D01*
X77742415Y-60797914D01*
X77742414Y-60797914D01*
X77749999Y-60799115D01*
X77750000Y-60799114D01*
X77750000Y-59730330D01*
X77769745Y-59750075D01*
X77855255Y-59799444D01*
X77950630Y-59825000D01*
X78049370Y-59825000D01*
X78144745Y-59799444D01*
X78230255Y-59750075D01*
X78250000Y-59730330D01*
X78250000Y-60799115D01*
X78257584Y-60797914D01*
X78422255Y-60744408D01*
X78576524Y-60665804D01*
X78716598Y-60564035D01*
X78824199Y-60456434D01*
X78885522Y-60422949D01*
X78955214Y-60427933D01*
X79011148Y-60469804D01*
X79017418Y-60479016D01*
X79057288Y-60543656D01*
X79181344Y-60667712D01*
X79330666Y-60759814D01*
X79497203Y-60814999D01*
X79599991Y-60825500D01*
X80400008Y-60825499D01*
X80400016Y-60825498D01*
X80400019Y-60825498D01*
X80456302Y-60819748D01*
X80502797Y-60814999D01*
X80669334Y-60759814D01*
X80818656Y-60667712D01*
X80942712Y-60543656D01*
X81034814Y-60394334D01*
X81089999Y-60227797D01*
X81100500Y-60125009D01*
X81100499Y-58774992D01*
X81089999Y-58672203D01*
X81034814Y-58505666D01*
X80942712Y-58356344D01*
X80818656Y-58232288D01*
X80669334Y-58140186D01*
X80502797Y-58085001D01*
X80502795Y-58085000D01*
X80400010Y-58074500D01*
X79599998Y-58074500D01*
X79599980Y-58074501D01*
X79497203Y-58085000D01*
X79497200Y-58085001D01*
X79330668Y-58140185D01*
X79330663Y-58140187D01*
X79181342Y-58232289D01*
X79057289Y-58356342D01*
X79017420Y-58420981D01*
X78965472Y-58467705D01*
X78896509Y-58478928D01*
X78832427Y-58451084D01*
X78824200Y-58443565D01*
X78716602Y-58335967D01*
X78576524Y-58234195D01*
X78422257Y-58155591D01*
X78257589Y-58102087D01*
X78257581Y-58102085D01*
X78250000Y-58100884D01*
X78250000Y-59169670D01*
X78230255Y-59149925D01*
X78144745Y-59100556D01*
X78049370Y-59075000D01*
X77950630Y-59075000D01*
X77855255Y-59100556D01*
X77769745Y-59149925D01*
X77750000Y-59169670D01*
X77750000Y-58100884D01*
X77749999Y-58100884D01*
X77742418Y-58102085D01*
X77742410Y-58102087D01*
X77577742Y-58155591D01*
X77423475Y-58234195D01*
X77283397Y-58335967D01*
X77160967Y-58458397D01*
X77059195Y-58598475D01*
X76980591Y-58752742D01*
X76927085Y-58917415D01*
X76900000Y-59088428D01*
X50500500Y-59088428D01*
X50500500Y-52924038D01*
X60299500Y-52924038D01*
X60299500Y-54475961D01*
X60338910Y-54724785D01*
X60416760Y-54964383D01*
X60448999Y-55027654D01*
X60513286Y-55153825D01*
X60531132Y-55188848D01*
X60679201Y-55392649D01*
X60679205Y-55392654D01*
X60857345Y-55570794D01*
X60857350Y-55570798D01*
X61035117Y-55699952D01*
X61061155Y-55718870D01*
X61204184Y-55791747D01*
X61285616Y-55833239D01*
X61285618Y-55833239D01*
X61285621Y-55833241D01*
X61525215Y-55911090D01*
X61774038Y-55950500D01*
X61774039Y-55950500D01*
X62025961Y-55950500D01*
X62025962Y-55950500D01*
X62274785Y-55911090D01*
X62514379Y-55833241D01*
X62738845Y-55718870D01*
X62942656Y-55570793D01*
X63034511Y-55478937D01*
X63095831Y-55445454D01*
X63135445Y-55443330D01*
X63142514Y-55444089D01*
X63142517Y-55444091D01*
X63202127Y-55450500D01*
X64797872Y-55450499D01*
X64857483Y-55444091D01*
X64992331Y-55393796D01*
X65107546Y-55307546D01*
X65136236Y-55269220D01*
X65192166Y-55227353D01*
X65261857Y-55222368D01*
X65308386Y-55243217D01*
X65344590Y-55269521D01*
X65344592Y-55269522D01*
X65344595Y-55269524D01*
X65414704Y-55305246D01*
X65519970Y-55358882D01*
X65519972Y-55358882D01*
X65519975Y-55358884D01*
X65620317Y-55391487D01*
X65707173Y-55419709D01*
X65901578Y-55450500D01*
X65901583Y-55450500D01*
X66098422Y-55450500D01*
X66292826Y-55419709D01*
X66372574Y-55393797D01*
X66480025Y-55358884D01*
X66655405Y-55269524D01*
X66814646Y-55153828D01*
X66912319Y-55056155D01*
X66973642Y-55022670D01*
X67043334Y-55027654D01*
X67087681Y-55056155D01*
X67185354Y-55153828D01*
X67344595Y-55269524D01*
X67414704Y-55305246D01*
X67519970Y-55358882D01*
X67519972Y-55358882D01*
X67519975Y-55358884D01*
X67620317Y-55391487D01*
X67707173Y-55419709D01*
X67901578Y-55450500D01*
X67901583Y-55450500D01*
X68098422Y-55450500D01*
X68292826Y-55419709D01*
X68372574Y-55393797D01*
X68480025Y-55358884D01*
X68655405Y-55269524D01*
X68655409Y-55269520D01*
X68659087Y-55267647D01*
X68727756Y-55254751D01*
X68792497Y-55281027D01*
X68815699Y-55305245D01*
X68879207Y-55392656D01*
X68879209Y-55392658D01*
X69057345Y-55570794D01*
X69057350Y-55570798D01*
X69235117Y-55699952D01*
X69261155Y-55718870D01*
X69404184Y-55791747D01*
X69485616Y-55833239D01*
X69485618Y-55833239D01*
X69485621Y-55833241D01*
X69725215Y-55911090D01*
X69974038Y-55950500D01*
X69974039Y-55950500D01*
X70225961Y-55950500D01*
X70225962Y-55950500D01*
X70474785Y-55911090D01*
X70714379Y-55833241D01*
X70938845Y-55718870D01*
X71142656Y-55570793D01*
X71320793Y-55392656D01*
X71468870Y-55188845D01*
X71583241Y-54964379D01*
X71661090Y-54724785D01*
X71700500Y-54475962D01*
X71700500Y-52924038D01*
X71661090Y-52675215D01*
X71583241Y-52435621D01*
X71583239Y-52435618D01*
X71583239Y-52435616D01*
X71536479Y-52343845D01*
X71468870Y-52211155D01*
X71446426Y-52180263D01*
X71320798Y-52007350D01*
X71320794Y-52007345D01*
X71142654Y-51829205D01*
X71142649Y-51829201D01*
X70938848Y-51681132D01*
X70938847Y-51681131D01*
X70938845Y-51681130D01*
X70868747Y-51645413D01*
X70714383Y-51566760D01*
X70474785Y-51488910D01*
X70225962Y-51449500D01*
X69974038Y-51449500D01*
X69849626Y-51469205D01*
X69725214Y-51488910D01*
X69485616Y-51566760D01*
X69261151Y-51681132D01*
X69057350Y-51829201D01*
X69057345Y-51829205D01*
X68879209Y-52007341D01*
X68879202Y-52007350D01*
X68815699Y-52094753D01*
X68760369Y-52137419D01*
X68690756Y-52143397D01*
X68659087Y-52132352D01*
X68480029Y-52041117D01*
X68292826Y-51980290D01*
X68098422Y-51949500D01*
X68098417Y-51949500D01*
X67901583Y-51949500D01*
X67901578Y-51949500D01*
X67707173Y-51980290D01*
X67519970Y-52041117D01*
X67344594Y-52130476D01*
X67276069Y-52180263D01*
X67185354Y-52246172D01*
X67185352Y-52246174D01*
X67185351Y-52246174D01*
X67087681Y-52343845D01*
X67026358Y-52377330D01*
X66956666Y-52372346D01*
X66912319Y-52343845D01*
X66814648Y-52246174D01*
X66814646Y-52246172D01*
X66655405Y-52130476D01*
X66655403Y-52130475D01*
X66480029Y-52041117D01*
X66292826Y-51980290D01*
X66098422Y-51949500D01*
X66098417Y-51949500D01*
X65901583Y-51949500D01*
X65901578Y-51949500D01*
X65707173Y-51980290D01*
X65519970Y-52041117D01*
X65344595Y-52130475D01*
X65308385Y-52156784D01*
X65242578Y-52180263D01*
X65174524Y-52164437D01*
X65136235Y-52130778D01*
X65107546Y-52092454D01*
X65107544Y-52092452D01*
X65107543Y-52092451D01*
X64992335Y-52006206D01*
X64992328Y-52006202D01*
X64857482Y-51955908D01*
X64857483Y-51955908D01*
X64797883Y-51949501D01*
X64797881Y-51949500D01*
X64797873Y-51949500D01*
X64797864Y-51949500D01*
X63202129Y-51949500D01*
X63202123Y-51949501D01*
X63135443Y-51956669D01*
X63066683Y-51944262D01*
X63034509Y-51921060D01*
X62942654Y-51829205D01*
X62942649Y-51829201D01*
X62738848Y-51681132D01*
X62738847Y-51681131D01*
X62738845Y-51681130D01*
X62668747Y-51645413D01*
X62514383Y-51566760D01*
X62274785Y-51488910D01*
X62025962Y-51449500D01*
X61774038Y-51449500D01*
X61649626Y-51469205D01*
X61525214Y-51488910D01*
X61285616Y-51566760D01*
X61061151Y-51681132D01*
X60857350Y-51829201D01*
X60857345Y-51829205D01*
X60679205Y-52007345D01*
X60679201Y-52007350D01*
X60531132Y-52211151D01*
X60416760Y-52435616D01*
X60338910Y-52675214D01*
X60299500Y-52924038D01*
X50500500Y-52924038D01*
X50500500Y-50624500D01*
X50520185Y-50557461D01*
X50572989Y-50511706D01*
X50624500Y-50500500D01*
X126949138Y-50500500D01*
X127016177Y-50520185D01*
G37*
%TD.AperFunction*%
%TD*%
M02*
