%TF.GenerationSoftware,KiCad,Pcbnew,8.0.8*%
%TF.CreationDate,2025-02-13T16:18:38+01:00*%
%TF.ProjectId,T_lecommande,54e96c65-636f-46d6-9d61-6e64652e6b69,rev?*%
%TF.SameCoordinates,Original*%
%TF.FileFunction,Legend,Top*%
%TF.FilePolarity,Positive*%
%FSLAX46Y46*%
G04 Gerber Fmt 4.6, Leading zero omitted, Abs format (unit mm)*
G04 Created by KiCad (PCBNEW 8.0.8) date 2025-02-13 16:18:38*
%MOMM*%
%LPD*%
G01*
G04 APERTURE LIST*
%ADD10C,0.100000*%
%ADD11C,0.150000*%
%ADD12C,0.120000*%
%ADD13C,0.000000*%
%ADD14C,0.127000*%
G04 APERTURE END LIST*
D10*
X82308646Y-50911228D02*
X82808646Y-52411228D01*
X82808646Y-52411228D02*
X83308646Y-50911228D01*
X84665788Y-52268371D02*
X84594360Y-52339800D01*
X84594360Y-52339800D02*
X84380074Y-52411228D01*
X84380074Y-52411228D02*
X84237217Y-52411228D01*
X84237217Y-52411228D02*
X84022931Y-52339800D01*
X84022931Y-52339800D02*
X83880074Y-52196942D01*
X83880074Y-52196942D02*
X83808645Y-52054085D01*
X83808645Y-52054085D02*
X83737217Y-51768371D01*
X83737217Y-51768371D02*
X83737217Y-51554085D01*
X83737217Y-51554085D02*
X83808645Y-51268371D01*
X83808645Y-51268371D02*
X83880074Y-51125514D01*
X83880074Y-51125514D02*
X84022931Y-50982657D01*
X84022931Y-50982657D02*
X84237217Y-50911228D01*
X84237217Y-50911228D02*
X84380074Y-50911228D01*
X84380074Y-50911228D02*
X84594360Y-50982657D01*
X84594360Y-50982657D02*
X84665788Y-51054085D01*
X86165788Y-52268371D02*
X86094360Y-52339800D01*
X86094360Y-52339800D02*
X85880074Y-52411228D01*
X85880074Y-52411228D02*
X85737217Y-52411228D01*
X85737217Y-52411228D02*
X85522931Y-52339800D01*
X85522931Y-52339800D02*
X85380074Y-52196942D01*
X85380074Y-52196942D02*
X85308645Y-52054085D01*
X85308645Y-52054085D02*
X85237217Y-51768371D01*
X85237217Y-51768371D02*
X85237217Y-51554085D01*
X85237217Y-51554085D02*
X85308645Y-51268371D01*
X85308645Y-51268371D02*
X85380074Y-51125514D01*
X85380074Y-51125514D02*
X85522931Y-50982657D01*
X85522931Y-50982657D02*
X85737217Y-50911228D01*
X85737217Y-50911228D02*
X85880074Y-50911228D01*
X85880074Y-50911228D02*
X86094360Y-50982657D01*
X86094360Y-50982657D02*
X86165788Y-51054085D01*
X78911228Y-72191353D02*
X80411228Y-71691353D01*
X80411228Y-71691353D02*
X78911228Y-71191353D01*
X80339800Y-70119925D02*
X80411228Y-70262782D01*
X80411228Y-70262782D02*
X80411228Y-70548497D01*
X80411228Y-70548497D02*
X80339800Y-70691354D01*
X80339800Y-70691354D02*
X80196942Y-70762782D01*
X80196942Y-70762782D02*
X79625514Y-70762782D01*
X79625514Y-70762782D02*
X79482657Y-70691354D01*
X79482657Y-70691354D02*
X79411228Y-70548497D01*
X79411228Y-70548497D02*
X79411228Y-70262782D01*
X79411228Y-70262782D02*
X79482657Y-70119925D01*
X79482657Y-70119925D02*
X79625514Y-70048497D01*
X79625514Y-70048497D02*
X79768371Y-70048497D01*
X79768371Y-70048497D02*
X79911228Y-70762782D01*
X80411228Y-69405640D02*
X79411228Y-69405640D01*
X79696942Y-69405640D02*
X79554085Y-69334211D01*
X79554085Y-69334211D02*
X79482657Y-69262783D01*
X79482657Y-69262783D02*
X79411228Y-69119925D01*
X79411228Y-69119925D02*
X79411228Y-68977068D01*
X79411228Y-68691354D02*
X79411228Y-68119926D01*
X78911228Y-68477069D02*
X80196942Y-68477069D01*
X80196942Y-68477069D02*
X80339800Y-68405640D01*
X80339800Y-68405640D02*
X80411228Y-68262783D01*
X80411228Y-68262783D02*
X80411228Y-68119926D01*
X73208646Y-50982657D02*
X73065789Y-50911228D01*
X73065789Y-50911228D02*
X72851503Y-50911228D01*
X72851503Y-50911228D02*
X72637217Y-50982657D01*
X72637217Y-50982657D02*
X72494360Y-51125514D01*
X72494360Y-51125514D02*
X72422931Y-51268371D01*
X72422931Y-51268371D02*
X72351503Y-51554085D01*
X72351503Y-51554085D02*
X72351503Y-51768371D01*
X72351503Y-51768371D02*
X72422931Y-52054085D01*
X72422931Y-52054085D02*
X72494360Y-52196942D01*
X72494360Y-52196942D02*
X72637217Y-52339800D01*
X72637217Y-52339800D02*
X72851503Y-52411228D01*
X72851503Y-52411228D02*
X72994360Y-52411228D01*
X72994360Y-52411228D02*
X73208646Y-52339800D01*
X73208646Y-52339800D02*
X73280074Y-52268371D01*
X73280074Y-52268371D02*
X73280074Y-51768371D01*
X73280074Y-51768371D02*
X72994360Y-51768371D01*
X73922931Y-52411228D02*
X73922931Y-50911228D01*
X73922931Y-50911228D02*
X74780074Y-52411228D01*
X74780074Y-52411228D02*
X74780074Y-50911228D01*
X75494360Y-52411228D02*
X75494360Y-50911228D01*
X75494360Y-50911228D02*
X75851503Y-50911228D01*
X75851503Y-50911228D02*
X76065789Y-50982657D01*
X76065789Y-50982657D02*
X76208646Y-51125514D01*
X76208646Y-51125514D02*
X76280075Y-51268371D01*
X76280075Y-51268371D02*
X76351503Y-51554085D01*
X76351503Y-51554085D02*
X76351503Y-51768371D01*
X76351503Y-51768371D02*
X76280075Y-52054085D01*
X76280075Y-52054085D02*
X76208646Y-52196942D01*
X76208646Y-52196942D02*
X76065789Y-52339800D01*
X76065789Y-52339800D02*
X75851503Y-52411228D01*
X75851503Y-52411228D02*
X75494360Y-52411228D01*
X51908646Y-52511228D02*
X52194360Y-52511228D01*
X52194360Y-52511228D02*
X52337217Y-52582657D01*
X52337217Y-52582657D02*
X52480074Y-52725514D01*
X52480074Y-52725514D02*
X52551503Y-53011228D01*
X52551503Y-53011228D02*
X52551503Y-53511228D01*
X52551503Y-53511228D02*
X52480074Y-53796942D01*
X52480074Y-53796942D02*
X52337217Y-53939800D01*
X52337217Y-53939800D02*
X52194360Y-54011228D01*
X52194360Y-54011228D02*
X51908646Y-54011228D01*
X51908646Y-54011228D02*
X51765789Y-53939800D01*
X51765789Y-53939800D02*
X51622931Y-53796942D01*
X51622931Y-53796942D02*
X51551503Y-53511228D01*
X51551503Y-53511228D02*
X51551503Y-53011228D01*
X51551503Y-53011228D02*
X51622931Y-52725514D01*
X51622931Y-52725514D02*
X51765789Y-52582657D01*
X51765789Y-52582657D02*
X51908646Y-52511228D01*
X53194360Y-54011228D02*
X53194360Y-52511228D01*
X53194360Y-52511228D02*
X54051503Y-54011228D01*
X54051503Y-54011228D02*
X54051503Y-52511228D01*
X55837218Y-52439800D02*
X54551504Y-54368371D01*
X56622933Y-52511228D02*
X56908647Y-52511228D01*
X56908647Y-52511228D02*
X57051504Y-52582657D01*
X57051504Y-52582657D02*
X57194361Y-52725514D01*
X57194361Y-52725514D02*
X57265790Y-53011228D01*
X57265790Y-53011228D02*
X57265790Y-53511228D01*
X57265790Y-53511228D02*
X57194361Y-53796942D01*
X57194361Y-53796942D02*
X57051504Y-53939800D01*
X57051504Y-53939800D02*
X56908647Y-54011228D01*
X56908647Y-54011228D02*
X56622933Y-54011228D01*
X56622933Y-54011228D02*
X56480076Y-53939800D01*
X56480076Y-53939800D02*
X56337218Y-53796942D01*
X56337218Y-53796942D02*
X56265790Y-53511228D01*
X56265790Y-53511228D02*
X56265790Y-53011228D01*
X56265790Y-53011228D02*
X56337218Y-52725514D01*
X56337218Y-52725514D02*
X56480076Y-52582657D01*
X56480076Y-52582657D02*
X56622933Y-52511228D01*
X58408647Y-53225514D02*
X57908647Y-53225514D01*
X57908647Y-54011228D02*
X57908647Y-52511228D01*
X57908647Y-52511228D02*
X58622933Y-52511228D01*
X59694361Y-53225514D02*
X59194361Y-53225514D01*
X59194361Y-54011228D02*
X59194361Y-52511228D01*
X59194361Y-52511228D02*
X59908647Y-52511228D01*
X97422931Y-84111228D02*
X97422931Y-82611228D01*
X97422931Y-83325514D02*
X98280074Y-83325514D01*
X98280074Y-84111228D02*
X98280074Y-82611228D01*
X99208646Y-84111228D02*
X99065789Y-84039800D01*
X99065789Y-84039800D02*
X98994360Y-83968371D01*
X98994360Y-83968371D02*
X98922932Y-83825514D01*
X98922932Y-83825514D02*
X98922932Y-83396942D01*
X98922932Y-83396942D02*
X98994360Y-83254085D01*
X98994360Y-83254085D02*
X99065789Y-83182657D01*
X99065789Y-83182657D02*
X99208646Y-83111228D01*
X99208646Y-83111228D02*
X99422932Y-83111228D01*
X99422932Y-83111228D02*
X99565789Y-83182657D01*
X99565789Y-83182657D02*
X99637218Y-83254085D01*
X99637218Y-83254085D02*
X99708646Y-83396942D01*
X99708646Y-83396942D02*
X99708646Y-83825514D01*
X99708646Y-83825514D02*
X99637218Y-83968371D01*
X99637218Y-83968371D02*
X99565789Y-84039800D01*
X99565789Y-84039800D02*
X99422932Y-84111228D01*
X99422932Y-84111228D02*
X99208646Y-84111228D01*
X100351503Y-84111228D02*
X100351503Y-83111228D01*
X100351503Y-83396942D02*
X100422932Y-83254085D01*
X100422932Y-83254085D02*
X100494361Y-83182657D01*
X100494361Y-83182657D02*
X100637218Y-83111228D01*
X100637218Y-83111228D02*
X100780075Y-83111228D01*
X101280074Y-84111228D02*
X101280074Y-83111228D01*
X101280074Y-82611228D02*
X101208646Y-82682657D01*
X101208646Y-82682657D02*
X101280074Y-82754085D01*
X101280074Y-82754085D02*
X101351503Y-82682657D01*
X101351503Y-82682657D02*
X101280074Y-82611228D01*
X101280074Y-82611228D02*
X101280074Y-82754085D01*
X101851503Y-83111228D02*
X102637218Y-83111228D01*
X102637218Y-83111228D02*
X101851503Y-84111228D01*
X101851503Y-84111228D02*
X102637218Y-84111228D01*
X93851503Y-71911228D02*
X93851503Y-72982657D01*
X93851503Y-72982657D02*
X93780074Y-73196942D01*
X93780074Y-73196942D02*
X93637217Y-73339800D01*
X93637217Y-73339800D02*
X93422931Y-73411228D01*
X93422931Y-73411228D02*
X93280074Y-73411228D01*
X94780074Y-73411228D02*
X94637217Y-73339800D01*
X94637217Y-73339800D02*
X94565788Y-73268371D01*
X94565788Y-73268371D02*
X94494360Y-73125514D01*
X94494360Y-73125514D02*
X94494360Y-72696942D01*
X94494360Y-72696942D02*
X94565788Y-72554085D01*
X94565788Y-72554085D02*
X94637217Y-72482657D01*
X94637217Y-72482657D02*
X94780074Y-72411228D01*
X94780074Y-72411228D02*
X94994360Y-72411228D01*
X94994360Y-72411228D02*
X95137217Y-72482657D01*
X95137217Y-72482657D02*
X95208646Y-72554085D01*
X95208646Y-72554085D02*
X95280074Y-72696942D01*
X95280074Y-72696942D02*
X95280074Y-73125514D01*
X95280074Y-73125514D02*
X95208646Y-73268371D01*
X95208646Y-73268371D02*
X95137217Y-73339800D01*
X95137217Y-73339800D02*
X94994360Y-73411228D01*
X94994360Y-73411228D02*
X94780074Y-73411228D01*
X95780074Y-72411228D02*
X96137217Y-73411228D01*
X96494360Y-72411228D02*
X96137217Y-73411228D01*
X96137217Y-73411228D02*
X95994360Y-73768371D01*
X95994360Y-73768371D02*
X95922931Y-73839800D01*
X95922931Y-73839800D02*
X95780074Y-73911228D01*
X96994360Y-73339800D02*
X97137217Y-73411228D01*
X97137217Y-73411228D02*
X97422931Y-73411228D01*
X97422931Y-73411228D02*
X97565788Y-73339800D01*
X97565788Y-73339800D02*
X97637217Y-73196942D01*
X97637217Y-73196942D02*
X97637217Y-73125514D01*
X97637217Y-73125514D02*
X97565788Y-72982657D01*
X97565788Y-72982657D02*
X97422931Y-72911228D01*
X97422931Y-72911228D02*
X97208646Y-72911228D01*
X97208646Y-72911228D02*
X97065788Y-72839800D01*
X97065788Y-72839800D02*
X96994360Y-72696942D01*
X96994360Y-72696942D02*
X96994360Y-72625514D01*
X96994360Y-72625514D02*
X97065788Y-72482657D01*
X97065788Y-72482657D02*
X97208646Y-72411228D01*
X97208646Y-72411228D02*
X97422931Y-72411228D01*
X97422931Y-72411228D02*
X97565788Y-72482657D01*
X98065789Y-72411228D02*
X98637217Y-72411228D01*
X98280074Y-71911228D02*
X98280074Y-73196942D01*
X98280074Y-73196942D02*
X98351503Y-73339800D01*
X98351503Y-73339800D02*
X98494360Y-73411228D01*
X98494360Y-73411228D02*
X98637217Y-73411228D01*
X99137217Y-73411228D02*
X99137217Y-72411228D01*
X99137217Y-71911228D02*
X99065789Y-71982657D01*
X99065789Y-71982657D02*
X99137217Y-72054085D01*
X99137217Y-72054085D02*
X99208646Y-71982657D01*
X99208646Y-71982657D02*
X99137217Y-71911228D01*
X99137217Y-71911228D02*
X99137217Y-72054085D01*
X100494361Y-73339800D02*
X100351503Y-73411228D01*
X100351503Y-73411228D02*
X100065789Y-73411228D01*
X100065789Y-73411228D02*
X99922932Y-73339800D01*
X99922932Y-73339800D02*
X99851503Y-73268371D01*
X99851503Y-73268371D02*
X99780075Y-73125514D01*
X99780075Y-73125514D02*
X99780075Y-72696942D01*
X99780075Y-72696942D02*
X99851503Y-72554085D01*
X99851503Y-72554085D02*
X99922932Y-72482657D01*
X99922932Y-72482657D02*
X100065789Y-72411228D01*
X100065789Y-72411228D02*
X100351503Y-72411228D01*
X100351503Y-72411228D02*
X100494361Y-72482657D01*
X101137217Y-73411228D02*
X101137217Y-71911228D01*
X101280075Y-72839800D02*
X101708646Y-73411228D01*
X101708646Y-72411228D02*
X101137217Y-72982657D01*
X99222931Y-58811228D02*
X99222931Y-57311228D01*
X99222931Y-57311228D02*
X99794360Y-57311228D01*
X99794360Y-57311228D02*
X99937217Y-57382657D01*
X99937217Y-57382657D02*
X100008646Y-57454085D01*
X100008646Y-57454085D02*
X100080074Y-57596942D01*
X100080074Y-57596942D02*
X100080074Y-57811228D01*
X100080074Y-57811228D02*
X100008646Y-57954085D01*
X100008646Y-57954085D02*
X99937217Y-58025514D01*
X99937217Y-58025514D02*
X99794360Y-58096942D01*
X99794360Y-58096942D02*
X99222931Y-58096942D01*
X101365789Y-57811228D02*
X101365789Y-58811228D01*
X100722931Y-57811228D02*
X100722931Y-58596942D01*
X100722931Y-58596942D02*
X100794360Y-58739800D01*
X100794360Y-58739800D02*
X100937217Y-58811228D01*
X100937217Y-58811228D02*
X101151503Y-58811228D01*
X101151503Y-58811228D02*
X101294360Y-58739800D01*
X101294360Y-58739800D02*
X101365789Y-58668371D01*
X102008646Y-58739800D02*
X102151503Y-58811228D01*
X102151503Y-58811228D02*
X102437217Y-58811228D01*
X102437217Y-58811228D02*
X102580074Y-58739800D01*
X102580074Y-58739800D02*
X102651503Y-58596942D01*
X102651503Y-58596942D02*
X102651503Y-58525514D01*
X102651503Y-58525514D02*
X102580074Y-58382657D01*
X102580074Y-58382657D02*
X102437217Y-58311228D01*
X102437217Y-58311228D02*
X102222932Y-58311228D01*
X102222932Y-58311228D02*
X102080074Y-58239800D01*
X102080074Y-58239800D02*
X102008646Y-58096942D01*
X102008646Y-58096942D02*
X102008646Y-58025514D01*
X102008646Y-58025514D02*
X102080074Y-57882657D01*
X102080074Y-57882657D02*
X102222932Y-57811228D01*
X102222932Y-57811228D02*
X102437217Y-57811228D01*
X102437217Y-57811228D02*
X102580074Y-57882657D01*
X103294360Y-58811228D02*
X103294360Y-57311228D01*
X103937218Y-58811228D02*
X103937218Y-58025514D01*
X103937218Y-58025514D02*
X103865789Y-57882657D01*
X103865789Y-57882657D02*
X103722932Y-57811228D01*
X103722932Y-57811228D02*
X103508646Y-57811228D01*
X103508646Y-57811228D02*
X103365789Y-57882657D01*
X103365789Y-57882657D02*
X103294360Y-57954085D01*
X96433333Y-71657419D02*
X96100000Y-71181228D01*
X95861905Y-71657419D02*
X95861905Y-70657419D01*
X95861905Y-70657419D02*
X96242857Y-70657419D01*
X96242857Y-70657419D02*
X96338095Y-70705038D01*
X96338095Y-70705038D02*
X96385714Y-70752657D01*
X96385714Y-70752657D02*
X96433333Y-70847895D01*
X96433333Y-70847895D02*
X96433333Y-70990752D01*
X96433333Y-70990752D02*
X96385714Y-71085990D01*
X96385714Y-71085990D02*
X96338095Y-71133609D01*
X96338095Y-71133609D02*
X96242857Y-71181228D01*
X96242857Y-71181228D02*
X95861905Y-71181228D01*
X97385714Y-71657419D02*
X96814286Y-71657419D01*
X97100000Y-71657419D02*
X97100000Y-70657419D01*
X97100000Y-70657419D02*
X97004762Y-70800276D01*
X97004762Y-70800276D02*
X96909524Y-70895514D01*
X96909524Y-70895514D02*
X96814286Y-70943133D01*
D11*
X116604761Y-75974819D02*
X116271428Y-75498628D01*
X116033333Y-75974819D02*
X116033333Y-74974819D01*
X116033333Y-74974819D02*
X116414285Y-74974819D01*
X116414285Y-74974819D02*
X116509523Y-75022438D01*
X116509523Y-75022438D02*
X116557142Y-75070057D01*
X116557142Y-75070057D02*
X116604761Y-75165295D01*
X116604761Y-75165295D02*
X116604761Y-75308152D01*
X116604761Y-75308152D02*
X116557142Y-75403390D01*
X116557142Y-75403390D02*
X116509523Y-75451009D01*
X116509523Y-75451009D02*
X116414285Y-75498628D01*
X116414285Y-75498628D02*
X116033333Y-75498628D01*
X116890476Y-74974819D02*
X117223809Y-75974819D01*
X117223809Y-75974819D02*
X117557142Y-74974819D01*
X117842857Y-75070057D02*
X117890476Y-75022438D01*
X117890476Y-75022438D02*
X117985714Y-74974819D01*
X117985714Y-74974819D02*
X118223809Y-74974819D01*
X118223809Y-74974819D02*
X118319047Y-75022438D01*
X118319047Y-75022438D02*
X118366666Y-75070057D01*
X118366666Y-75070057D02*
X118414285Y-75165295D01*
X118414285Y-75165295D02*
X118414285Y-75260533D01*
X118414285Y-75260533D02*
X118366666Y-75403390D01*
X118366666Y-75403390D02*
X117795238Y-75974819D01*
X117795238Y-75974819D02*
X118414285Y-75974819D01*
X116604761Y-62974819D02*
X116271428Y-62498628D01*
X116033333Y-62974819D02*
X116033333Y-61974819D01*
X116033333Y-61974819D02*
X116414285Y-61974819D01*
X116414285Y-61974819D02*
X116509523Y-62022438D01*
X116509523Y-62022438D02*
X116557142Y-62070057D01*
X116557142Y-62070057D02*
X116604761Y-62165295D01*
X116604761Y-62165295D02*
X116604761Y-62308152D01*
X116604761Y-62308152D02*
X116557142Y-62403390D01*
X116557142Y-62403390D02*
X116509523Y-62451009D01*
X116509523Y-62451009D02*
X116414285Y-62498628D01*
X116414285Y-62498628D02*
X116033333Y-62498628D01*
X116890476Y-61974819D02*
X117223809Y-62974819D01*
X117223809Y-62974819D02*
X117557142Y-61974819D01*
X118414285Y-62974819D02*
X117842857Y-62974819D01*
X118128571Y-62974819D02*
X118128571Y-61974819D01*
X118128571Y-61974819D02*
X118033333Y-62117676D01*
X118033333Y-62117676D02*
X117938095Y-62212914D01*
X117938095Y-62212914D02*
X117842857Y-62260533D01*
X78666666Y-61454819D02*
X78666666Y-62169104D01*
X78666666Y-62169104D02*
X78619047Y-62311961D01*
X78619047Y-62311961D02*
X78523809Y-62407200D01*
X78523809Y-62407200D02*
X78380952Y-62454819D01*
X78380952Y-62454819D02*
X78285714Y-62454819D01*
X79666666Y-62454819D02*
X79095238Y-62454819D01*
X79380952Y-62454819D02*
X79380952Y-61454819D01*
X79380952Y-61454819D02*
X79285714Y-61597676D01*
X79285714Y-61597676D02*
X79190476Y-61692914D01*
X79190476Y-61692914D02*
X79095238Y-61740533D01*
X61438095Y-60054819D02*
X61438095Y-60864342D01*
X61438095Y-60864342D02*
X61485714Y-60959580D01*
X61485714Y-60959580D02*
X61533333Y-61007200D01*
X61533333Y-61007200D02*
X61628571Y-61054819D01*
X61628571Y-61054819D02*
X61819047Y-61054819D01*
X61819047Y-61054819D02*
X61914285Y-61007200D01*
X61914285Y-61007200D02*
X61961904Y-60959580D01*
X61961904Y-60959580D02*
X62009523Y-60864342D01*
X62009523Y-60864342D02*
X62009523Y-60054819D01*
X63009523Y-61054819D02*
X62438095Y-61054819D01*
X62723809Y-61054819D02*
X62723809Y-60054819D01*
X62723809Y-60054819D02*
X62628571Y-60197676D01*
X62628571Y-60197676D02*
X62533333Y-60292914D01*
X62533333Y-60292914D02*
X62438095Y-60340533D01*
D10*
%TO.C,R1*%
X85600000Y-59450000D02*
X85600000Y-81700000D01*
X85600000Y-81700000D02*
X104350000Y-81700000D01*
X104350000Y-59450000D02*
X85600000Y-59450000D01*
X104350000Y-81700000D02*
X104350000Y-59450000D01*
D12*
%TO.C,RV2*%
X113790000Y-76810000D02*
X113790000Y-77060000D01*
X113790000Y-82520000D02*
X113790000Y-78980000D01*
X113890000Y-76610000D02*
X113890000Y-76810000D01*
X113890000Y-76610000D02*
X115310000Y-76610000D01*
X113890000Y-76810000D02*
X113790000Y-76810000D01*
X115310000Y-76810000D02*
X115310000Y-76610000D01*
X115310000Y-76810000D02*
X118890000Y-76810000D01*
X116590000Y-83830000D02*
X115100000Y-83830000D01*
X118890000Y-76610000D02*
X120310000Y-76610000D01*
X118890000Y-76810000D02*
X118890000Y-76610000D01*
X119100000Y-83830000D02*
X117610000Y-83830000D01*
X120310000Y-76610000D02*
X120310000Y-76810000D01*
X120310000Y-76810000D02*
X120410000Y-76810000D01*
X120410000Y-76810000D02*
X120410000Y-77500000D01*
X120410000Y-78540000D02*
X120410000Y-82520000D01*
X115100000Y-83830000D02*
G75*
G02*
X113790000Y-82520000I0J1310000D01*
G01*
X120410000Y-82520000D02*
G75*
G02*
X119100000Y-83830000I-1310000J0D01*
G01*
%TO.C,SW1*%
X61590000Y-51440000D02*
X70410000Y-51440000D01*
X61590000Y-51750000D02*
X61590000Y-51440000D01*
X61590000Y-55960000D02*
X61590000Y-55650000D01*
X63500000Y-50740000D02*
X64000000Y-51240000D01*
X64000000Y-51240000D02*
X64500000Y-50740000D01*
X64500000Y-50740000D02*
X63500000Y-50740000D01*
X70410000Y-51440000D02*
X70410000Y-51750000D01*
X70410000Y-55960000D02*
X61590000Y-55960000D01*
X70410000Y-55960000D02*
X70410000Y-55650000D01*
%TO.C,RV1*%
X113790000Y-63810000D02*
X113790000Y-64060000D01*
X113790000Y-69520000D02*
X113790000Y-65980000D01*
X113890000Y-63610000D02*
X113890000Y-63810000D01*
X113890000Y-63610000D02*
X115310000Y-63610000D01*
X113890000Y-63810000D02*
X113790000Y-63810000D01*
X115310000Y-63810000D02*
X115310000Y-63610000D01*
X115310000Y-63810000D02*
X118890000Y-63810000D01*
X116590000Y-70830000D02*
X115100000Y-70830000D01*
X118890000Y-63610000D02*
X120310000Y-63610000D01*
X118890000Y-63810000D02*
X118890000Y-63610000D01*
X119100000Y-70830000D02*
X117610000Y-70830000D01*
X120310000Y-63610000D02*
X120310000Y-63810000D01*
X120310000Y-63810000D02*
X120410000Y-63810000D01*
X120410000Y-63810000D02*
X120410000Y-64500000D01*
X120410000Y-65540000D02*
X120410000Y-69520000D01*
X115100000Y-70830000D02*
G75*
G02*
X113790000Y-69520000I0J1310000D01*
G01*
X120410000Y-69520000D02*
G75*
G02*
X119100000Y-70830000I-1310000J0D01*
G01*
D13*
%TO.C,G*%
G36*
X89730293Y-53381451D02*
G01*
X89807858Y-53414025D01*
X89875239Y-53476265D01*
X89937978Y-53566923D01*
X89983870Y-53642711D01*
X89934718Y-53898733D01*
X89912806Y-54008981D01*
X89894424Y-54086352D01*
X89875760Y-54140651D01*
X89852998Y-54181682D01*
X89822326Y-54219249D01*
X89801521Y-54241146D01*
X89683441Y-54343697D01*
X89565165Y-54410607D01*
X89451280Y-54439862D01*
X89362139Y-54433812D01*
X89297305Y-54397000D01*
X89249351Y-54325551D01*
X89237477Y-54285702D01*
X89341487Y-54285702D01*
X89347498Y-54333325D01*
X89361346Y-54385299D01*
X89385791Y-54407035D01*
X89435368Y-54411424D01*
X89435547Y-54411424D01*
X89504203Y-54405313D01*
X89561809Y-54391325D01*
X89603020Y-54366946D01*
X89662773Y-54321249D01*
X89729002Y-54263551D01*
X89737103Y-54255988D01*
X89859533Y-54140751D01*
X89902188Y-53913428D01*
X89923748Y-53796295D01*
X89936846Y-53713537D01*
X89941242Y-53657007D01*
X89936698Y-53618558D01*
X89922975Y-53590047D01*
X89899834Y-53563325D01*
X89891691Y-53555112D01*
X89818739Y-53509591D01*
X89734090Y-53501211D01*
X89644969Y-53528154D01*
X89558601Y-53588606D01*
X89501161Y-53653235D01*
X89445692Y-53751770D01*
X89398712Y-53878792D01*
X89363499Y-54019792D01*
X89343332Y-54160265D01*
X89341487Y-54285702D01*
X89237477Y-54285702D01*
X89219446Y-54225186D01*
X89208760Y-54101625D01*
X89218461Y-53960588D01*
X89241109Y-53841394D01*
X89279046Y-53707186D01*
X89322538Y-53604523D01*
X89377748Y-53521646D01*
X89445297Y-53451763D01*
X89505857Y-53402804D01*
X89558108Y-53378997D01*
X89621342Y-53372118D01*
X89632347Y-53372038D01*
X89730293Y-53381451D01*
G37*
G36*
X90163729Y-52095952D02*
G01*
X90421361Y-52126614D01*
X90646335Y-52178490D01*
X90845191Y-52254378D01*
X91024466Y-52357076D01*
X91190701Y-52489381D01*
X91274494Y-52571157D01*
X91401410Y-52715724D01*
X91497341Y-52857724D01*
X91566519Y-53007167D01*
X91613176Y-53174066D01*
X91641543Y-53368432D01*
X91648753Y-53456664D01*
X91656147Y-53553239D01*
X91664779Y-53617251D01*
X91677861Y-53659399D01*
X91698605Y-53690385D01*
X91727281Y-53718287D01*
X91768309Y-53763175D01*
X91790587Y-53815161D01*
X91801694Y-53892105D01*
X91801851Y-53893986D01*
X91801407Y-53960524D01*
X91792786Y-54053344D01*
X91777637Y-54163981D01*
X91757608Y-54283968D01*
X91734348Y-54404838D01*
X91709506Y-54518124D01*
X91684730Y-54615360D01*
X91661670Y-54688078D01*
X91641973Y-54727813D01*
X91638900Y-54730819D01*
X91619193Y-54753315D01*
X91624292Y-54760854D01*
X91667716Y-54764094D01*
X91738253Y-54766043D01*
X91827132Y-54766812D01*
X91925584Y-54766513D01*
X92024838Y-54765259D01*
X92031582Y-54765104D01*
X92333986Y-54765104D01*
X92336959Y-54777977D01*
X92348422Y-54779540D01*
X92366246Y-54771617D01*
X92362858Y-54765104D01*
X92337160Y-54762513D01*
X92333986Y-54765104D01*
X92031582Y-54765104D01*
X92116125Y-54763161D01*
X92190675Y-54760332D01*
X92198780Y-54759762D01*
X92403717Y-54759762D01*
X92428242Y-54766614D01*
X92484180Y-54770842D01*
X92559672Y-54771574D01*
X92563533Y-54771508D01*
X92644426Y-54767364D01*
X92688503Y-54758972D01*
X92693797Y-54748142D01*
X92678486Y-54712719D01*
X92673231Y-54667386D01*
X92673231Y-54607201D01*
X92580272Y-54672725D01*
X92517949Y-54711253D01*
X92462512Y-54736563D01*
X92441022Y-54741735D01*
X92408143Y-54750016D01*
X92403717Y-54759762D01*
X92198780Y-54759762D01*
X92239717Y-54756883D01*
X92254482Y-54752927D01*
X92254307Y-54752804D01*
X92210620Y-54737979D01*
X92195206Y-54736564D01*
X92157767Y-54721521D01*
X92113461Y-54685491D01*
X92110894Y-54682804D01*
X92080273Y-54639883D01*
X92061104Y-54584842D01*
X92053422Y-54512234D01*
X92057261Y-54416613D01*
X92072658Y-54292533D01*
X92099648Y-54134547D01*
X92114962Y-54054135D01*
X92186646Y-53686019D01*
X92289188Y-53679419D01*
X92348986Y-53677202D01*
X92385939Y-53678973D01*
X92391730Y-53681454D01*
X92387640Y-53704565D01*
X92376366Y-53762561D01*
X92359402Y-53847900D01*
X92338241Y-53953038D01*
X92326108Y-54012862D01*
X92292652Y-54184928D01*
X92270757Y-54319503D01*
X92260866Y-54420952D01*
X92263420Y-54493641D01*
X92278862Y-54541934D01*
X92307634Y-54570197D01*
X92350178Y-54582796D01*
X92384038Y-54584655D01*
X92440773Y-54575287D01*
X92443359Y-54573828D01*
X92673231Y-54573828D01*
X92684058Y-54584655D01*
X92694884Y-54573828D01*
X92684058Y-54563001D01*
X92673231Y-54573828D01*
X92443359Y-54573828D01*
X92498741Y-54542587D01*
X92552698Y-54497052D01*
X92618659Y-54427889D01*
X92670346Y-54351604D01*
X92711951Y-54259007D01*
X92747661Y-54140906D01*
X92779287Y-53999972D01*
X92799404Y-53900947D01*
X92817341Y-53813622D01*
X92830756Y-53749345D01*
X92836254Y-53723913D01*
X92849364Y-53693506D01*
X92878864Y-53679132D01*
X92937373Y-53675223D01*
X92946664Y-53675192D01*
X93006866Y-53677027D01*
X93033832Y-53686246D01*
X93037597Y-53708417D01*
X93034441Y-53723913D01*
X93026970Y-53758966D01*
X93012606Y-53829570D01*
X92992740Y-53928767D01*
X92968763Y-54049599D01*
X92942065Y-54185111D01*
X92931655Y-54238193D01*
X92902309Y-54382382D01*
X92874405Y-54508941D01*
X92849389Y-54612008D01*
X92828704Y-54685723D01*
X92813795Y-54724224D01*
X92810984Y-54727793D01*
X92785717Y-54752508D01*
X92781515Y-54760273D01*
X92801692Y-54763842D01*
X92856272Y-54766932D01*
X92936353Y-54769165D01*
X93011133Y-54770069D01*
X93112510Y-54769921D01*
X93176158Y-54767524D01*
X93207632Y-54762115D01*
X93212484Y-54752930D01*
X93202817Y-54743699D01*
X93201371Y-54742316D01*
X93260353Y-54742316D01*
X93263492Y-54749439D01*
X93287690Y-54756366D01*
X93344430Y-54761851D01*
X93424062Y-54765816D01*
X93516933Y-54768179D01*
X93613392Y-54768860D01*
X93625662Y-54768713D01*
X93907502Y-54768713D01*
X93918329Y-54779540D01*
X93929156Y-54768713D01*
X93918329Y-54757886D01*
X93907502Y-54768713D01*
X93625662Y-54768713D01*
X93703787Y-54767777D01*
X93778466Y-54764851D01*
X93827777Y-54760001D01*
X93842538Y-54754277D01*
X93836398Y-54747059D01*
X93864194Y-54747059D01*
X93875021Y-54757886D01*
X93885848Y-54747059D01*
X93882576Y-54743787D01*
X93964359Y-54743787D01*
X93965699Y-54754589D01*
X93988930Y-54761761D01*
X94039191Y-54766023D01*
X94121621Y-54768097D01*
X94241360Y-54768704D01*
X94265295Y-54768713D01*
X94384568Y-54767368D01*
X94461781Y-54763356D01*
X94496521Y-54756714D01*
X94492660Y-54749164D01*
X94457698Y-54723267D01*
X94448849Y-54703821D01*
X94452969Y-54674460D01*
X94464317Y-54610788D01*
X94481373Y-54520910D01*
X94502619Y-54412929D01*
X94513810Y-54357289D01*
X94536852Y-54238891D01*
X94556298Y-54130144D01*
X94570556Y-54040641D01*
X94578035Y-53979976D01*
X94578772Y-53965688D01*
X94564123Y-53890005D01*
X94524185Y-53844553D01*
X94464965Y-53829631D01*
X94392474Y-53845539D01*
X94312720Y-53892576D01*
X94250933Y-53949346D01*
X94195394Y-54019770D01*
X94150350Y-54103522D01*
X94112576Y-54208918D01*
X94078845Y-54344275D01*
X94059100Y-54443905D01*
X94036830Y-54552678D01*
X94014374Y-54642009D01*
X93994004Y-54703742D01*
X93979771Y-54728632D01*
X93964359Y-54743787D01*
X93882576Y-54743787D01*
X93875021Y-54736232D01*
X93864194Y-54747059D01*
X93836398Y-54747059D01*
X93825925Y-54734748D01*
X93820500Y-54732495D01*
X93815724Y-54708775D01*
X93821017Y-54646683D01*
X93835903Y-54549852D01*
X93859905Y-54421914D01*
X93863808Y-54402504D01*
X93898024Y-54221169D01*
X93919169Y-54078454D01*
X93927429Y-53971747D01*
X93922992Y-53898439D01*
X93906045Y-53855919D01*
X93903171Y-53852754D01*
X93850029Y-53827741D01*
X93780335Y-53833465D01*
X93703989Y-53866373D01*
X93630891Y-53922912D01*
X93595289Y-53963275D01*
X93539091Y-54049625D01*
X93492500Y-54151722D01*
X93452286Y-54278314D01*
X93415216Y-54438149D01*
X93409722Y-54465559D01*
X93380459Y-54595768D01*
X93351639Y-54684985D01*
X93322135Y-54735497D01*
X93290819Y-54749593D01*
X93273003Y-54743020D01*
X93260353Y-54742316D01*
X93201371Y-54742316D01*
X93191444Y-54732818D01*
X93184362Y-54716173D01*
X93182195Y-54688559D01*
X93185567Y-54644772D01*
X93195103Y-54579609D01*
X93211425Y-54487866D01*
X93235160Y-54364339D01*
X93266931Y-54203825D01*
X93268573Y-54195582D01*
X93372248Y-53675192D01*
X93458650Y-53675192D01*
X93513706Y-53677000D01*
X93536221Y-53689611D01*
X93536960Y-53723810D01*
X93532972Y-53749631D01*
X93520893Y-53824071D01*
X93617249Y-53750520D01*
X93733378Y-53682535D01*
X93852850Y-53655701D01*
X93946606Y-53660997D01*
X94021159Y-53688568D01*
X94082589Y-53739044D01*
X94118970Y-53800907D01*
X94124040Y-53832371D01*
X94127161Y-53856241D01*
X94141348Y-53856351D01*
X94173841Y-53829791D01*
X94205243Y-53799740D01*
X94303393Y-53723638D01*
X94408417Y-53675260D01*
X94512679Y-53655071D01*
X94608540Y-53663533D01*
X94688363Y-53701110D01*
X94743890Y-53767056D01*
X94763495Y-53818494D01*
X94773374Y-53882474D01*
X94773182Y-53964785D01*
X94762574Y-54071211D01*
X94741206Y-54207541D01*
X94708732Y-54379560D01*
X94706831Y-54389098D01*
X94680470Y-54518728D01*
X94659975Y-54611708D01*
X94643406Y-54673984D01*
X94628827Y-54711506D01*
X94614298Y-54730222D01*
X94597881Y-54736079D01*
X94593708Y-54736232D01*
X94564967Y-54742104D01*
X94565002Y-54751334D01*
X94591597Y-54757603D01*
X94651976Y-54762927D01*
X94736614Y-54766672D01*
X94817063Y-54768118D01*
X94927149Y-54767343D01*
X94995431Y-54763195D01*
X95021375Y-54755723D01*
X95016695Y-54749822D01*
X95002571Y-54742080D01*
X95081064Y-54742080D01*
X95091877Y-54753356D01*
X95125594Y-54761868D01*
X95188744Y-54768186D01*
X95265108Y-54770892D01*
X95412446Y-54771967D01*
X95404386Y-54768713D01*
X95466581Y-54768713D01*
X95477408Y-54779540D01*
X95488235Y-54768713D01*
X95477408Y-54757886D01*
X95466581Y-54768713D01*
X95404386Y-54768713D01*
X95336658Y-54741369D01*
X95271917Y-54708607D01*
X95217565Y-54670581D01*
X95214814Y-54668097D01*
X95181514Y-54639911D01*
X95165954Y-54644145D01*
X95154853Y-54680828D01*
X95130885Y-54724301D01*
X95103466Y-54736564D01*
X95081064Y-54742080D01*
X95002571Y-54742080D01*
X94983490Y-54731621D01*
X94974290Y-54726156D01*
X94975287Y-54703418D01*
X94984556Y-54644231D01*
X95000870Y-54554398D01*
X95018761Y-54461699D01*
X95221383Y-54461699D01*
X95290189Y-54523177D01*
X95352724Y-54566913D01*
X95421739Y-54583524D01*
X95455053Y-54584655D01*
X95520557Y-54579442D01*
X95569922Y-54557733D01*
X95623187Y-54510424D01*
X95626975Y-54506542D01*
X95704368Y-54397343D01*
X95755767Y-54259011D01*
X95778686Y-54098784D01*
X95779656Y-54061883D01*
X95770798Y-53949354D01*
X95741935Y-53874052D01*
X95692126Y-53834319D01*
X95646208Y-53826769D01*
X95552166Y-53847542D01*
X95462671Y-53906335D01*
X95381955Y-53997863D01*
X95314249Y-54116840D01*
X95263785Y-54257980D01*
X95248589Y-54323411D01*
X95221383Y-54461699D01*
X95018761Y-54461699D01*
X95023002Y-54439722D01*
X95049724Y-54306006D01*
X95079808Y-54159054D01*
X95112028Y-54004670D01*
X95145154Y-53848656D01*
X95177961Y-53696816D01*
X95209219Y-53554953D01*
X95237703Y-53428870D01*
X95262184Y-53324372D01*
X95281434Y-53247261D01*
X95294227Y-53203341D01*
X95298073Y-53195430D01*
X95344859Y-53180061D01*
X95399800Y-53179267D01*
X95443820Y-53191813D01*
X95457245Y-53205712D01*
X95456934Y-53236375D01*
X95448496Y-53300723D01*
X95433293Y-53390185D01*
X95412689Y-53496191D01*
X95405712Y-53529684D01*
X95343221Y-53825097D01*
X95410314Y-53768517D01*
X95517859Y-53698174D01*
X95628653Y-53661369D01*
X95735649Y-53657416D01*
X95831797Y-53685628D01*
X95910051Y-53745319D01*
X95957882Y-53821830D01*
X95984823Y-53930244D01*
X95989005Y-54062059D01*
X95972422Y-54205144D01*
X95937073Y-54347365D01*
X95884953Y-54476589D01*
X95837000Y-54556386D01*
X95767842Y-54633485D01*
X95686848Y-54696112D01*
X95606902Y-54735373D01*
X95565157Y-54743995D01*
X95528631Y-54750145D01*
X95520726Y-54757886D01*
X95542731Y-54760441D01*
X95599830Y-54762511D01*
X95683808Y-54764070D01*
X95786454Y-54765096D01*
X95899556Y-54765564D01*
X96014899Y-54765450D01*
X96124273Y-54764731D01*
X96219463Y-54763383D01*
X96292259Y-54761381D01*
X96316496Y-54760203D01*
X96333259Y-54756684D01*
X96342903Y-54747059D01*
X96462659Y-54747059D01*
X96473486Y-54757886D01*
X96484313Y-54747059D01*
X96473486Y-54736232D01*
X96462659Y-54747059D01*
X96342903Y-54747059D01*
X96344717Y-54745249D01*
X96350536Y-54721043D01*
X96350381Y-54679208D01*
X96343918Y-54614890D01*
X96330812Y-54523230D01*
X96310728Y-54399373D01*
X96283333Y-54238463D01*
X96278702Y-54211588D01*
X96250162Y-54046405D01*
X96228710Y-53919067D01*
X96214522Y-53824668D01*
X96207774Y-53758299D01*
X96208640Y-53715054D01*
X96217295Y-53690025D01*
X96233916Y-53678306D01*
X96258675Y-53674989D01*
X96291750Y-53675167D01*
X96297845Y-53675192D01*
X96330643Y-53674087D01*
X96355383Y-53674322D01*
X96374052Y-53681225D01*
X96388640Y-53700120D01*
X96401136Y-53736335D01*
X96413527Y-53795195D01*
X96427802Y-53882027D01*
X96445950Y-54002158D01*
X96463570Y-54119097D01*
X96481313Y-54231733D01*
X96498134Y-54331318D01*
X96512426Y-54408836D01*
X96522583Y-54455272D01*
X96524620Y-54461890D01*
X96541360Y-54467774D01*
X96570855Y-54437872D01*
X96610690Y-54376964D01*
X96658455Y-54289830D01*
X96711734Y-54181248D01*
X96768116Y-54055998D01*
X96825187Y-53918859D01*
X96880534Y-53774611D01*
X96902675Y-53713086D01*
X96924152Y-53687845D01*
X96971918Y-53676644D01*
X97014154Y-53675192D01*
X97072499Y-53679626D01*
X97107640Y-53690851D01*
X97112276Y-53697662D01*
X97104197Y-53731114D01*
X97082525Y-53794496D01*
X97051108Y-53878096D01*
X97013791Y-53972204D01*
X96974421Y-54067108D01*
X96936847Y-54153098D01*
X96906150Y-54218017D01*
X96863121Y-54297943D01*
X96810111Y-54388311D01*
X96752086Y-54481608D01*
X96694013Y-54570323D01*
X96640856Y-54646946D01*
X96597583Y-54703966D01*
X96569160Y-54733872D01*
X96563289Y-54736564D01*
X96551328Y-54742819D01*
X96564709Y-54753584D01*
X96595832Y-54759955D01*
X96660482Y-54764635D01*
X96748894Y-54767145D01*
X96840900Y-54767148D01*
X96954376Y-54767005D01*
X97028214Y-54770152D01*
X97065982Y-54776914D01*
X97071249Y-54787615D01*
X97070923Y-54788022D01*
X97038759Y-54799347D01*
X96966246Y-54806507D01*
X96856162Y-54809292D01*
X96791719Y-54809025D01*
X96532423Y-54806030D01*
X96430354Y-54945041D01*
X96365287Y-55032244D01*
X96317714Y-55090048D01*
X96280194Y-55124467D01*
X96245287Y-55141512D01*
X96205553Y-55147195D01*
X96179612Y-55147656D01*
X96126144Y-55143052D01*
X96100325Y-55126145D01*
X96102685Y-55092293D01*
X96133751Y-55036854D01*
X96194053Y-54955185D01*
X96202813Y-54943994D01*
X96266132Y-54860518D01*
X96301952Y-54806410D01*
X96309794Y-54782560D01*
X96289178Y-54789858D01*
X96284015Y-54793401D01*
X96259003Y-54795978D01*
X96193114Y-54798370D01*
X96088779Y-54800562D01*
X95948429Y-54802539D01*
X95774494Y-54804288D01*
X95569405Y-54805793D01*
X95335593Y-54807040D01*
X95075489Y-54808014D01*
X94791522Y-54808701D01*
X94486125Y-54809086D01*
X94161728Y-54809155D01*
X93820760Y-54808893D01*
X93723444Y-54808759D01*
X91189940Y-54804953D01*
X91038363Y-54879229D01*
X90879725Y-54939800D01*
X90711540Y-54973876D01*
X90544414Y-54980993D01*
X90388954Y-54960689D01*
X90257222Y-54913265D01*
X90191538Y-54870231D01*
X90120908Y-54811032D01*
X90089980Y-54780147D01*
X90007753Y-54691305D01*
X89922647Y-54764153D01*
X89776739Y-54865862D01*
X89617589Y-54936046D01*
X89452900Y-54973370D01*
X89290372Y-54976498D01*
X89137707Y-54944096D01*
X89064903Y-54912827D01*
X88973353Y-54849644D01*
X88880460Y-54758968D01*
X88798686Y-54654355D01*
X88749746Y-54569953D01*
X88729148Y-54522618D01*
X88715125Y-54475723D01*
X88706474Y-54419581D01*
X88701989Y-54344501D01*
X88700467Y-54240795D01*
X88700446Y-54177400D01*
X88714924Y-54177400D01*
X88721773Y-54326689D01*
X88750205Y-54458785D01*
X88801624Y-54584605D01*
X88804122Y-54589550D01*
X88847665Y-54667796D01*
X88889456Y-54719673D01*
X88942939Y-54759363D01*
X88989130Y-54784722D01*
X89126947Y-54832473D01*
X89279852Y-54845000D01*
X89437016Y-54821777D01*
X89480839Y-54808619D01*
X89586755Y-54763602D01*
X89697304Y-54701302D01*
X89796022Y-54631878D01*
X89856587Y-54576769D01*
X89908954Y-54530895D01*
X89946376Y-54524813D01*
X89970864Y-54558468D01*
X89975284Y-54573415D01*
X90009732Y-54640394D01*
X90073854Y-54709337D01*
X90155861Y-54769701D01*
X90239034Y-54809306D01*
X90315694Y-54827970D01*
X90406456Y-54838881D01*
X90502191Y-54842462D01*
X90593767Y-54839133D01*
X90672054Y-54829318D01*
X90727923Y-54813438D01*
X90752241Y-54791915D01*
X90752298Y-54785584D01*
X90764438Y-54765185D01*
X90773952Y-54763845D01*
X90816929Y-54762639D01*
X90843478Y-54760639D01*
X90872220Y-54754692D01*
X90865526Y-54747059D01*
X90919266Y-54747059D01*
X90930093Y-54757886D01*
X90940920Y-54747059D01*
X91005882Y-54747059D01*
X91016709Y-54757886D01*
X91027536Y-54747059D01*
X91022127Y-54741650D01*
X91181826Y-54741650D01*
X91184529Y-54749127D01*
X91210132Y-54757758D01*
X91268785Y-54764676D01*
X91350235Y-54768898D01*
X91399000Y-54769706D01*
X91491112Y-54769275D01*
X91543960Y-54766492D01*
X91561550Y-54760784D01*
X91547890Y-54751577D01*
X91541815Y-54749285D01*
X91513357Y-54737686D01*
X91495175Y-54722294D01*
X91486905Y-54695843D01*
X91488184Y-54651069D01*
X91498648Y-54580706D01*
X91517934Y-54477490D01*
X91526102Y-54435344D01*
X91543043Y-54341928D01*
X91554708Y-54265193D01*
X91559821Y-54214445D01*
X91558517Y-54198956D01*
X91548531Y-54205347D01*
X91547212Y-54218344D01*
X91536528Y-54261756D01*
X91508350Y-54330295D01*
X91468446Y-54412557D01*
X91422585Y-54497139D01*
X91376533Y-54572637D01*
X91346827Y-54614543D01*
X91289157Y-54686786D01*
X91250605Y-54729573D01*
X91224814Y-54748466D01*
X91205424Y-54749030D01*
X91197587Y-54745094D01*
X91181826Y-54741650D01*
X91022127Y-54741650D01*
X91016709Y-54736232D01*
X91005882Y-54747059D01*
X90940920Y-54747059D01*
X90930093Y-54736232D01*
X90919266Y-54747059D01*
X90865526Y-54747059D01*
X90860508Y-54741338D01*
X90852785Y-54736677D01*
X90839867Y-54724694D01*
X90833774Y-54702968D01*
X90835050Y-54666110D01*
X91027536Y-54666110D01*
X91040956Y-54664828D01*
X91075619Y-54638917D01*
X91123131Y-54595324D01*
X91164097Y-54553095D01*
X91234002Y-54461633D01*
X91305100Y-54341666D01*
X91370231Y-54207186D01*
X91396518Y-54138946D01*
X91570592Y-54138946D01*
X91574573Y-54167032D01*
X91581965Y-54167367D01*
X91587134Y-54138385D01*
X91583675Y-54125864D01*
X91574060Y-54117661D01*
X91570592Y-54138946D01*
X91396518Y-54138946D01*
X91422237Y-54072182D01*
X91439411Y-54015127D01*
X91459369Y-53934865D01*
X91471889Y-53871718D01*
X91474972Y-53836316D01*
X91473738Y-53832677D01*
X91443410Y-53829961D01*
X91393133Y-53850532D01*
X91334394Y-53887884D01*
X91278680Y-53935514D01*
X91263494Y-53951719D01*
X91208819Y-54024106D01*
X91164182Y-54108543D01*
X91126066Y-54213909D01*
X91090957Y-54349082D01*
X91072951Y-54432973D01*
X91054216Y-54525767D01*
X91039240Y-54601730D01*
X91029838Y-54651542D01*
X91027536Y-54666110D01*
X90835050Y-54666110D01*
X90835105Y-54664522D01*
X90844457Y-54602376D01*
X90862428Y-54509551D01*
X90879159Y-54428768D01*
X90907164Y-54293026D01*
X90925667Y-54196611D01*
X90934736Y-54136612D01*
X90934438Y-54110121D01*
X90924841Y-54114227D01*
X90906012Y-54146020D01*
X90884759Y-54188587D01*
X90808671Y-54308474D01*
X90715261Y-54391425D01*
X90628957Y-54429757D01*
X90527366Y-54440666D01*
X90445264Y-54415139D01*
X90387455Y-54356700D01*
X90358739Y-54268871D01*
X90356449Y-54229859D01*
X90360525Y-54184345D01*
X90371893Y-54103246D01*
X90389415Y-53993458D01*
X90411956Y-53861877D01*
X90438382Y-53715399D01*
X90461052Y-53594750D01*
X90488823Y-53445999D01*
X90512745Y-53310941D01*
X90531876Y-53195493D01*
X90545272Y-53105572D01*
X90551988Y-53047097D01*
X90551686Y-53026443D01*
X90524215Y-53012636D01*
X90467120Y-52999683D01*
X90409189Y-52992131D01*
X90303358Y-52989348D01*
X90230589Y-53006856D01*
X90183860Y-53048552D01*
X90156149Y-53118329D01*
X90152577Y-53134476D01*
X90139375Y-53194224D01*
X90128717Y-53233248D01*
X90125750Y-53240070D01*
X90107848Y-53230702D01*
X90067265Y-53197860D01*
X90012304Y-53148330D01*
X90004567Y-53141048D01*
X89887803Y-53046557D01*
X89771968Y-52989234D01*
X89645522Y-52964773D01*
X89534202Y-52965584D01*
X89362960Y-52998377D01*
X89208253Y-53069828D01*
X89071615Y-53177969D01*
X88954578Y-53320832D01*
X88858677Y-53496450D01*
X88785444Y-53702853D01*
X88736413Y-53938075D01*
X88728252Y-54000000D01*
X88714924Y-54177400D01*
X88700446Y-54177400D01*
X88700445Y-54173231D01*
X88704685Y-53998689D01*
X88718455Y-53853549D01*
X88744564Y-53724429D01*
X88785821Y-53597947D01*
X88845036Y-53460721D01*
X88854029Y-53441752D01*
X88939337Y-53297655D01*
X89047831Y-53167019D01*
X89169496Y-53060550D01*
X89265326Y-53002032D01*
X89349071Y-52969391D01*
X89445514Y-52950385D01*
X89547158Y-52942475D01*
X89690912Y-52945760D01*
X89809286Y-52972847D01*
X89915719Y-53028335D01*
X90004252Y-53098925D01*
X90054631Y-53142492D01*
X90091606Y-53170892D01*
X90103476Y-53177153D01*
X90115305Y-53158268D01*
X90128252Y-53111721D01*
X90130472Y-53100600D01*
X90161710Y-53029728D01*
X90225237Y-52984119D01*
X90322969Y-52962677D01*
X90375434Y-52960614D01*
X90488175Y-52969341D01*
X90562264Y-52995784D01*
X90598739Y-53040335D01*
X90600298Y-53045568D01*
X90623127Y-53081659D01*
X90645106Y-53090537D01*
X90678696Y-53108436D01*
X90690344Y-53128941D01*
X90689626Y-53159874D01*
X90681319Y-53227199D01*
X90666399Y-53324853D01*
X90645841Y-53446775D01*
X90620619Y-53586904D01*
X90594361Y-53725526D01*
X90565133Y-53878729D01*
X90538899Y-54020807D01*
X90516777Y-54145339D01*
X90499883Y-54245898D01*
X90489335Y-54316061D01*
X90486189Y-54347566D01*
X90490245Y-54389841D01*
X90511002Y-54407661D01*
X90561343Y-54411419D01*
X90565347Y-54411424D01*
X90661493Y-54390246D01*
X90748824Y-54326891D01*
X90827117Y-54221633D01*
X90896147Y-54074741D01*
X90911190Y-54030677D01*
X90942630Y-54030677D01*
X90946611Y-54058762D01*
X90954003Y-54059097D01*
X90959172Y-54030116D01*
X90955712Y-54017594D01*
X90946097Y-54009392D01*
X90942630Y-54030677D01*
X90911190Y-54030677D01*
X90933068Y-53966595D01*
X90941048Y-53935039D01*
X90962574Y-53935039D01*
X90970497Y-53952862D01*
X90977010Y-53949475D01*
X90979602Y-53923777D01*
X90977010Y-53920603D01*
X90964137Y-53923575D01*
X90962574Y-53935039D01*
X90941048Y-53935039D01*
X90949793Y-53900455D01*
X90961357Y-53824503D01*
X90962142Y-53814138D01*
X90985938Y-53814138D01*
X90989919Y-53842223D01*
X90997311Y-53842559D01*
X91002480Y-53813577D01*
X90999020Y-53801055D01*
X90989405Y-53792853D01*
X90985938Y-53814138D01*
X90962142Y-53814138D01*
X90968536Y-53729671D01*
X90972107Y-53606890D01*
X90972872Y-53501636D01*
X90973401Y-53165676D01*
X90902002Y-53020514D01*
X90863843Y-52946561D01*
X90829973Y-52897096D01*
X90788333Y-52860354D01*
X90726861Y-52824571D01*
X90673646Y-52797780D01*
X90502468Y-52731862D01*
X90304386Y-52686806D01*
X90090919Y-52663490D01*
X89873587Y-52662794D01*
X89663909Y-52685599D01*
X89544245Y-52711541D01*
X89317763Y-52792815D01*
X89115462Y-52908932D01*
X88938536Y-53058033D01*
X88788180Y-53238257D01*
X88665587Y-53447746D01*
X88571951Y-53684640D01*
X88508465Y-53947079D01*
X88476324Y-54233203D01*
X88472378Y-54381343D01*
X88483322Y-54614387D01*
X88516235Y-54810492D01*
X88571235Y-54970114D01*
X88648443Y-55093705D01*
X88664322Y-55111745D01*
X88765351Y-55192119D01*
X88901422Y-55256761D01*
X89066994Y-55305058D01*
X89256524Y-55336400D01*
X89464472Y-55350173D01*
X89685296Y-55345766D01*
X89913456Y-55322568D01*
X90143410Y-55279965D01*
X90157677Y-55276653D01*
X90270130Y-55251564D01*
X90348437Y-55238546D01*
X90400127Y-55237890D01*
X90432729Y-55249890D01*
X90453773Y-55274836D01*
X90460595Y-55288406D01*
X90488847Y-55328390D01*
X90515889Y-55342541D01*
X90542823Y-55352267D01*
X90560201Y-55385614D01*
X90569645Y-55448831D01*
X90572776Y-55548169D01*
X90572804Y-55561835D01*
X90570687Y-55646265D01*
X90562117Y-55700744D01*
X90543767Y-55738515D01*
X90522190Y-55763239D01*
X90460639Y-55802391D01*
X90362621Y-55837241D01*
X90234826Y-55867152D01*
X90083940Y-55891485D01*
X89916649Y-55909602D01*
X89739642Y-55920865D01*
X89559605Y-55924636D01*
X89383226Y-55920278D01*
X89217191Y-55907152D01*
X89132095Y-55895869D01*
X88869752Y-55837594D01*
X88636154Y-55748079D01*
X88428559Y-55625819D01*
X88244226Y-55469310D01*
X88136187Y-55349240D01*
X88025578Y-55195346D01*
X87942407Y-55035547D01*
X87883757Y-54861203D01*
X87846709Y-54663675D01*
X87828514Y-54438466D01*
X87830686Y-54195639D01*
X87849766Y-54195639D01*
X87850316Y-54448902D01*
X87876614Y-54688448D01*
X87927710Y-54907898D01*
X88002655Y-55100871D01*
X88066030Y-55212618D01*
X88194937Y-55369367D01*
X88358846Y-55504638D01*
X88554104Y-55616474D01*
X88777056Y-55702920D01*
X89024047Y-55762022D01*
X89119951Y-55776460D01*
X89232758Y-55785310D01*
X89375845Y-55788265D01*
X89536657Y-55785807D01*
X89702639Y-55778414D01*
X89861235Y-55766567D01*
X89999890Y-55750746D01*
X90063921Y-55740371D01*
X90200964Y-55712280D01*
X90300695Y-55683713D01*
X90368886Y-55649821D01*
X90411312Y-55605755D01*
X90433745Y-55546665D01*
X90441959Y-55467702D01*
X90442549Y-55422333D01*
X90440527Y-55343978D01*
X90430114Y-55294749D01*
X90403958Y-55270572D01*
X90354704Y-55267372D01*
X90275002Y-55281074D01*
X90212740Y-55294973D01*
X89909462Y-55351402D01*
X89623666Y-55378694D01*
X89358671Y-55376969D01*
X89117799Y-55346349D01*
X88904371Y-55286953D01*
X88803329Y-55243755D01*
X88664210Y-55161662D01*
X88553687Y-55063069D01*
X88468778Y-54942873D01*
X88406502Y-54795966D01*
X88363877Y-54617244D01*
X88342571Y-54454732D01*
X88332628Y-54179158D01*
X88355276Y-53911651D01*
X88408688Y-53656575D01*
X88491035Y-53418294D01*
X88600489Y-53201172D01*
X88735222Y-53009574D01*
X88893404Y-52847864D01*
X89067860Y-52723491D01*
X89235328Y-52640434D01*
X89412034Y-52582582D01*
X89608560Y-52547197D01*
X89805854Y-52532484D01*
X90064801Y-52534965D01*
X90290803Y-52563017D01*
X90486321Y-52617271D01*
X90653817Y-52698361D01*
X90764685Y-52779008D01*
X90856936Y-52883834D01*
X90931370Y-53021306D01*
X90985534Y-53183576D01*
X91016973Y-53362800D01*
X91023232Y-53551130D01*
X91020675Y-53597368D01*
X91016604Y-53666127D01*
X91016072Y-53708173D01*
X91019118Y-53715976D01*
X91020071Y-53713086D01*
X91041037Y-53686673D01*
X91090541Y-53675946D01*
X91118149Y-53675192D01*
X91205587Y-53675192D01*
X91191236Y-53751688D01*
X91176885Y-53828184D01*
X91274606Y-53753592D01*
X91341174Y-53708865D01*
X91405253Y-53675536D01*
X91435478Y-53665130D01*
X91473707Y-53652565D01*
X91494364Y-53628186D01*
X91505108Y-53579309D01*
X91509000Y-53543333D01*
X91512462Y-53411090D01*
X91502121Y-53258495D01*
X91480207Y-53104983D01*
X91448949Y-52969988D01*
X91439938Y-52941417D01*
X91351195Y-52744068D01*
X91227435Y-52571082D01*
X91070426Y-52423963D01*
X90881935Y-52304218D01*
X90663732Y-52213353D01*
X90545528Y-52179587D01*
X90407454Y-52153459D01*
X90240356Y-52134186D01*
X90058059Y-52122361D01*
X89874392Y-52118573D01*
X89703180Y-52123415D01*
X89558842Y-52137391D01*
X89266572Y-52200454D01*
X88998437Y-52299052D01*
X88755452Y-52432102D01*
X88538633Y-52598517D01*
X88348996Y-52797215D01*
X88187555Y-53027109D01*
X88055326Y-53287115D01*
X87953325Y-53576148D01*
X87882568Y-53893124D01*
X87875913Y-53935039D01*
X87849766Y-54195639D01*
X87830686Y-54195639D01*
X87831481Y-54106688D01*
X87869616Y-53796040D01*
X87943957Y-53500992D01*
X88055547Y-53216011D01*
X88060395Y-53205607D01*
X88197415Y-52960079D01*
X88365771Y-52738030D01*
X88561038Y-52543835D01*
X88778789Y-52381866D01*
X89014598Y-52256499D01*
X89025575Y-52251783D01*
X89246273Y-52176073D01*
X89495058Y-52122856D01*
X89762231Y-52093460D01*
X90038097Y-52089212D01*
X90163729Y-52095952D01*
G37*
D12*
%TO.C,J1*%
X75940000Y-53090000D02*
X75940000Y-60910000D01*
X75940000Y-59310000D02*
X76860000Y-59310000D01*
X75940000Y-60910000D02*
X76860000Y-60910000D01*
X76700000Y-55350000D02*
X77700000Y-55350000D01*
X76700000Y-56950000D02*
X76700000Y-55350000D01*
X76860000Y-59310000D02*
X77140000Y-59310000D01*
X76860000Y-60910000D02*
X76860000Y-59310000D01*
X77700000Y-55350000D02*
X77700000Y-56950000D01*
X77700000Y-56950000D02*
X76700000Y-56950000D01*
X78500000Y-57450000D02*
X78500000Y-53090000D01*
X79500000Y-53090000D02*
X79500000Y-57450000D01*
X79500000Y-57450000D02*
X78500000Y-57450000D01*
X80300000Y-55350000D02*
X80300000Y-53090000D01*
X80300000Y-55350000D02*
X80300000Y-56950000D01*
X80300000Y-56950000D02*
X81300000Y-56950000D01*
X80800000Y-55350000D02*
X80800000Y-53090000D01*
X80860000Y-59310000D02*
X80860000Y-60525000D01*
X80860000Y-59310000D02*
X81140000Y-59310000D01*
X81140000Y-59310000D02*
X81140000Y-60910000D01*
X81140000Y-60910000D02*
X82060000Y-60910000D01*
X81300000Y-55350000D02*
X80300000Y-55350000D01*
X81300000Y-56950000D02*
X81300000Y-55350000D01*
X82060000Y-53090000D02*
X75940000Y-53090000D01*
X82060000Y-59310000D02*
X81140000Y-59310000D01*
X82060000Y-60910000D02*
X82060000Y-53090000D01*
D14*
%TO.C,U1*%
X53480000Y-81890000D02*
X53480000Y-59190000D01*
X57980000Y-57890000D02*
X57980000Y-59190000D01*
X57980000Y-59190000D02*
X53480000Y-59190000D01*
X66980000Y-57890000D02*
X57980000Y-57890000D01*
X66980000Y-57890000D02*
X66980000Y-59190000D01*
X71480000Y-59190000D02*
X66980000Y-59190000D01*
X71480000Y-81890000D02*
X53480000Y-81890000D01*
X71480000Y-81890000D02*
X71480000Y-59190000D01*
%TD*%
M02*
