%TF.GenerationSoftware,KiCad,Pcbnew,8.0.8*%
%TF.CreationDate,2025-02-18T09:32:00+01:00*%
%TF.ProjectId,T_lecommande,54e96c65-636f-46d6-9d61-6e64652e6b69,rev?*%
%TF.SameCoordinates,Original*%
%TF.FileFunction,Legend,Top*%
%TF.FilePolarity,Positive*%
%FSLAX46Y46*%
G04 Gerber Fmt 4.6, Leading zero omitted, Abs format (unit mm)*
G04 Created by KiCad (PCBNEW 8.0.8) date 2025-02-18 09:32:00*
%MOMM*%
%LPD*%
G01*
G04 APERTURE LIST*
%ADD10C,0.100000*%
%ADD11C,0.150000*%
%ADD12C,0.120000*%
%ADD13C,0.000000*%
%ADD14C,0.127000*%
G04 APERTURE END LIST*
D10*
X91208646Y-52311228D02*
X92065789Y-52311228D01*
X91637217Y-53811228D02*
X91637217Y-52311228D01*
X93137217Y-53739800D02*
X92994360Y-53811228D01*
X92994360Y-53811228D02*
X92708646Y-53811228D01*
X92708646Y-53811228D02*
X92565788Y-53739800D01*
X92565788Y-53739800D02*
X92494360Y-53596942D01*
X92494360Y-53596942D02*
X92494360Y-53025514D01*
X92494360Y-53025514D02*
X92565788Y-52882657D01*
X92565788Y-52882657D02*
X92708646Y-52811228D01*
X92708646Y-52811228D02*
X92994360Y-52811228D01*
X92994360Y-52811228D02*
X93137217Y-52882657D01*
X93137217Y-52882657D02*
X93208646Y-53025514D01*
X93208646Y-53025514D02*
X93208646Y-53168371D01*
X93208646Y-53168371D02*
X92494360Y-53311228D01*
X92994360Y-52239800D02*
X92780074Y-52454085D01*
X94065788Y-53811228D02*
X93922931Y-53739800D01*
X93922931Y-53739800D02*
X93851502Y-53596942D01*
X93851502Y-53596942D02*
X93851502Y-52311228D01*
X95208645Y-53739800D02*
X95065788Y-53811228D01*
X95065788Y-53811228D02*
X94780074Y-53811228D01*
X94780074Y-53811228D02*
X94637216Y-53739800D01*
X94637216Y-53739800D02*
X94565788Y-53596942D01*
X94565788Y-53596942D02*
X94565788Y-53025514D01*
X94565788Y-53025514D02*
X94637216Y-52882657D01*
X94637216Y-52882657D02*
X94780074Y-52811228D01*
X94780074Y-52811228D02*
X95065788Y-52811228D01*
X95065788Y-52811228D02*
X95208645Y-52882657D01*
X95208645Y-52882657D02*
X95280074Y-53025514D01*
X95280074Y-53025514D02*
X95280074Y-53168371D01*
X95280074Y-53168371D02*
X94565788Y-53311228D01*
X95065788Y-52239800D02*
X94851502Y-52454085D01*
X96565788Y-53739800D02*
X96422930Y-53811228D01*
X96422930Y-53811228D02*
X96137216Y-53811228D01*
X96137216Y-53811228D02*
X95994359Y-53739800D01*
X95994359Y-53739800D02*
X95922930Y-53668371D01*
X95922930Y-53668371D02*
X95851502Y-53525514D01*
X95851502Y-53525514D02*
X95851502Y-53096942D01*
X95851502Y-53096942D02*
X95922930Y-52954085D01*
X95922930Y-52954085D02*
X95994359Y-52882657D01*
X95994359Y-52882657D02*
X96137216Y-52811228D01*
X96137216Y-52811228D02*
X96422930Y-52811228D01*
X96422930Y-52811228D02*
X96565788Y-52882657D01*
X97422930Y-53811228D02*
X97280073Y-53739800D01*
X97280073Y-53739800D02*
X97208644Y-53668371D01*
X97208644Y-53668371D02*
X97137216Y-53525514D01*
X97137216Y-53525514D02*
X97137216Y-53096942D01*
X97137216Y-53096942D02*
X97208644Y-52954085D01*
X97208644Y-52954085D02*
X97280073Y-52882657D01*
X97280073Y-52882657D02*
X97422930Y-52811228D01*
X97422930Y-52811228D02*
X97637216Y-52811228D01*
X97637216Y-52811228D02*
X97780073Y-52882657D01*
X97780073Y-52882657D02*
X97851502Y-52954085D01*
X97851502Y-52954085D02*
X97922930Y-53096942D01*
X97922930Y-53096942D02*
X97922930Y-53525514D01*
X97922930Y-53525514D02*
X97851502Y-53668371D01*
X97851502Y-53668371D02*
X97780073Y-53739800D01*
X97780073Y-53739800D02*
X97637216Y-53811228D01*
X97637216Y-53811228D02*
X97422930Y-53811228D01*
X98565787Y-53811228D02*
X98565787Y-52811228D01*
X98565787Y-52954085D02*
X98637216Y-52882657D01*
X98637216Y-52882657D02*
X98780073Y-52811228D01*
X98780073Y-52811228D02*
X98994359Y-52811228D01*
X98994359Y-52811228D02*
X99137216Y-52882657D01*
X99137216Y-52882657D02*
X99208645Y-53025514D01*
X99208645Y-53025514D02*
X99208645Y-53811228D01*
X99208645Y-53025514D02*
X99280073Y-52882657D01*
X99280073Y-52882657D02*
X99422930Y-52811228D01*
X99422930Y-52811228D02*
X99637216Y-52811228D01*
X99637216Y-52811228D02*
X99780073Y-52882657D01*
X99780073Y-52882657D02*
X99851502Y-53025514D01*
X99851502Y-53025514D02*
X99851502Y-53811228D01*
X100565787Y-53811228D02*
X100565787Y-52811228D01*
X100565787Y-52954085D02*
X100637216Y-52882657D01*
X100637216Y-52882657D02*
X100780073Y-52811228D01*
X100780073Y-52811228D02*
X100994359Y-52811228D01*
X100994359Y-52811228D02*
X101137216Y-52882657D01*
X101137216Y-52882657D02*
X101208645Y-53025514D01*
X101208645Y-53025514D02*
X101208645Y-53811228D01*
X101208645Y-53025514D02*
X101280073Y-52882657D01*
X101280073Y-52882657D02*
X101422930Y-52811228D01*
X101422930Y-52811228D02*
X101637216Y-52811228D01*
X101637216Y-52811228D02*
X101780073Y-52882657D01*
X101780073Y-52882657D02*
X101851502Y-53025514D01*
X101851502Y-53025514D02*
X101851502Y-53811228D01*
X103208645Y-53811228D02*
X103208645Y-53025514D01*
X103208645Y-53025514D02*
X103137216Y-52882657D01*
X103137216Y-52882657D02*
X102994359Y-52811228D01*
X102994359Y-52811228D02*
X102708645Y-52811228D01*
X102708645Y-52811228D02*
X102565787Y-52882657D01*
X103208645Y-53739800D02*
X103065787Y-53811228D01*
X103065787Y-53811228D02*
X102708645Y-53811228D01*
X102708645Y-53811228D02*
X102565787Y-53739800D01*
X102565787Y-53739800D02*
X102494359Y-53596942D01*
X102494359Y-53596942D02*
X102494359Y-53454085D01*
X102494359Y-53454085D02*
X102565787Y-53311228D01*
X102565787Y-53311228D02*
X102708645Y-53239800D01*
X102708645Y-53239800D02*
X103065787Y-53239800D01*
X103065787Y-53239800D02*
X103208645Y-53168371D01*
X103922930Y-52811228D02*
X103922930Y-53811228D01*
X103922930Y-52954085D02*
X103994359Y-52882657D01*
X103994359Y-52882657D02*
X104137216Y-52811228D01*
X104137216Y-52811228D02*
X104351502Y-52811228D01*
X104351502Y-52811228D02*
X104494359Y-52882657D01*
X104494359Y-52882657D02*
X104565788Y-53025514D01*
X104565788Y-53025514D02*
X104565788Y-53811228D01*
X105922931Y-53811228D02*
X105922931Y-52311228D01*
X105922931Y-53739800D02*
X105780073Y-53811228D01*
X105780073Y-53811228D02*
X105494359Y-53811228D01*
X105494359Y-53811228D02*
X105351502Y-53739800D01*
X105351502Y-53739800D02*
X105280073Y-53668371D01*
X105280073Y-53668371D02*
X105208645Y-53525514D01*
X105208645Y-53525514D02*
X105208645Y-53096942D01*
X105208645Y-53096942D02*
X105280073Y-52954085D01*
X105280073Y-52954085D02*
X105351502Y-52882657D01*
X105351502Y-52882657D02*
X105494359Y-52811228D01*
X105494359Y-52811228D02*
X105780073Y-52811228D01*
X105780073Y-52811228D02*
X105922931Y-52882657D01*
X107208645Y-53739800D02*
X107065788Y-53811228D01*
X107065788Y-53811228D02*
X106780074Y-53811228D01*
X106780074Y-53811228D02*
X106637216Y-53739800D01*
X106637216Y-53739800D02*
X106565788Y-53596942D01*
X106565788Y-53596942D02*
X106565788Y-53025514D01*
X106565788Y-53025514D02*
X106637216Y-52882657D01*
X106637216Y-52882657D02*
X106780074Y-52811228D01*
X106780074Y-52811228D02*
X107065788Y-52811228D01*
X107065788Y-52811228D02*
X107208645Y-52882657D01*
X107208645Y-52882657D02*
X107280074Y-53025514D01*
X107280074Y-53025514D02*
X107280074Y-53168371D01*
X107280074Y-53168371D02*
X106565788Y-53311228D01*
X108851502Y-52311228D02*
X109351502Y-53811228D01*
X109351502Y-53811228D02*
X109851502Y-52311228D01*
X111137216Y-53811228D02*
X110280073Y-53811228D01*
X110708644Y-53811228D02*
X110708644Y-52311228D01*
X110708644Y-52311228D02*
X110565787Y-52525514D01*
X110565787Y-52525514D02*
X110422930Y-52668371D01*
X110422930Y-52668371D02*
X110280073Y-52739800D01*
X82308646Y-50911228D02*
X82808646Y-52411228D01*
X82808646Y-52411228D02*
X83308646Y-50911228D01*
X84665788Y-52268371D02*
X84594360Y-52339800D01*
X84594360Y-52339800D02*
X84380074Y-52411228D01*
X84380074Y-52411228D02*
X84237217Y-52411228D01*
X84237217Y-52411228D02*
X84022931Y-52339800D01*
X84022931Y-52339800D02*
X83880074Y-52196942D01*
X83880074Y-52196942D02*
X83808645Y-52054085D01*
X83808645Y-52054085D02*
X83737217Y-51768371D01*
X83737217Y-51768371D02*
X83737217Y-51554085D01*
X83737217Y-51554085D02*
X83808645Y-51268371D01*
X83808645Y-51268371D02*
X83880074Y-51125514D01*
X83880074Y-51125514D02*
X84022931Y-50982657D01*
X84022931Y-50982657D02*
X84237217Y-50911228D01*
X84237217Y-50911228D02*
X84380074Y-50911228D01*
X84380074Y-50911228D02*
X84594360Y-50982657D01*
X84594360Y-50982657D02*
X84665788Y-51054085D01*
X86165788Y-52268371D02*
X86094360Y-52339800D01*
X86094360Y-52339800D02*
X85880074Y-52411228D01*
X85880074Y-52411228D02*
X85737217Y-52411228D01*
X85737217Y-52411228D02*
X85522931Y-52339800D01*
X85522931Y-52339800D02*
X85380074Y-52196942D01*
X85380074Y-52196942D02*
X85308645Y-52054085D01*
X85308645Y-52054085D02*
X85237217Y-51768371D01*
X85237217Y-51768371D02*
X85237217Y-51554085D01*
X85237217Y-51554085D02*
X85308645Y-51268371D01*
X85308645Y-51268371D02*
X85380074Y-51125514D01*
X85380074Y-51125514D02*
X85522931Y-50982657D01*
X85522931Y-50982657D02*
X85737217Y-50911228D01*
X85737217Y-50911228D02*
X85880074Y-50911228D01*
X85880074Y-50911228D02*
X86094360Y-50982657D01*
X86094360Y-50982657D02*
X86165788Y-51054085D01*
X78911228Y-72191353D02*
X80411228Y-71691353D01*
X80411228Y-71691353D02*
X78911228Y-71191353D01*
X80339800Y-70119925D02*
X80411228Y-70262782D01*
X80411228Y-70262782D02*
X80411228Y-70548497D01*
X80411228Y-70548497D02*
X80339800Y-70691354D01*
X80339800Y-70691354D02*
X80196942Y-70762782D01*
X80196942Y-70762782D02*
X79625514Y-70762782D01*
X79625514Y-70762782D02*
X79482657Y-70691354D01*
X79482657Y-70691354D02*
X79411228Y-70548497D01*
X79411228Y-70548497D02*
X79411228Y-70262782D01*
X79411228Y-70262782D02*
X79482657Y-70119925D01*
X79482657Y-70119925D02*
X79625514Y-70048497D01*
X79625514Y-70048497D02*
X79768371Y-70048497D01*
X79768371Y-70048497D02*
X79911228Y-70762782D01*
X80411228Y-69405640D02*
X79411228Y-69405640D01*
X79696942Y-69405640D02*
X79554085Y-69334211D01*
X79554085Y-69334211D02*
X79482657Y-69262783D01*
X79482657Y-69262783D02*
X79411228Y-69119925D01*
X79411228Y-69119925D02*
X79411228Y-68977068D01*
X79411228Y-68691354D02*
X79411228Y-68119926D01*
X78911228Y-68477069D02*
X80196942Y-68477069D01*
X80196942Y-68477069D02*
X80339800Y-68405640D01*
X80339800Y-68405640D02*
X80411228Y-68262783D01*
X80411228Y-68262783D02*
X80411228Y-68119926D01*
X73208646Y-50982657D02*
X73065789Y-50911228D01*
X73065789Y-50911228D02*
X72851503Y-50911228D01*
X72851503Y-50911228D02*
X72637217Y-50982657D01*
X72637217Y-50982657D02*
X72494360Y-51125514D01*
X72494360Y-51125514D02*
X72422931Y-51268371D01*
X72422931Y-51268371D02*
X72351503Y-51554085D01*
X72351503Y-51554085D02*
X72351503Y-51768371D01*
X72351503Y-51768371D02*
X72422931Y-52054085D01*
X72422931Y-52054085D02*
X72494360Y-52196942D01*
X72494360Y-52196942D02*
X72637217Y-52339800D01*
X72637217Y-52339800D02*
X72851503Y-52411228D01*
X72851503Y-52411228D02*
X72994360Y-52411228D01*
X72994360Y-52411228D02*
X73208646Y-52339800D01*
X73208646Y-52339800D02*
X73280074Y-52268371D01*
X73280074Y-52268371D02*
X73280074Y-51768371D01*
X73280074Y-51768371D02*
X72994360Y-51768371D01*
X73922931Y-52411228D02*
X73922931Y-50911228D01*
X73922931Y-50911228D02*
X74780074Y-52411228D01*
X74780074Y-52411228D02*
X74780074Y-50911228D01*
X75494360Y-52411228D02*
X75494360Y-50911228D01*
X75494360Y-50911228D02*
X75851503Y-50911228D01*
X75851503Y-50911228D02*
X76065789Y-50982657D01*
X76065789Y-50982657D02*
X76208646Y-51125514D01*
X76208646Y-51125514D02*
X76280075Y-51268371D01*
X76280075Y-51268371D02*
X76351503Y-51554085D01*
X76351503Y-51554085D02*
X76351503Y-51768371D01*
X76351503Y-51768371D02*
X76280075Y-52054085D01*
X76280075Y-52054085D02*
X76208646Y-52196942D01*
X76208646Y-52196942D02*
X76065789Y-52339800D01*
X76065789Y-52339800D02*
X75851503Y-52411228D01*
X75851503Y-52411228D02*
X75494360Y-52411228D01*
X51908646Y-52511228D02*
X52194360Y-52511228D01*
X52194360Y-52511228D02*
X52337217Y-52582657D01*
X52337217Y-52582657D02*
X52480074Y-52725514D01*
X52480074Y-52725514D02*
X52551503Y-53011228D01*
X52551503Y-53011228D02*
X52551503Y-53511228D01*
X52551503Y-53511228D02*
X52480074Y-53796942D01*
X52480074Y-53796942D02*
X52337217Y-53939800D01*
X52337217Y-53939800D02*
X52194360Y-54011228D01*
X52194360Y-54011228D02*
X51908646Y-54011228D01*
X51908646Y-54011228D02*
X51765789Y-53939800D01*
X51765789Y-53939800D02*
X51622931Y-53796942D01*
X51622931Y-53796942D02*
X51551503Y-53511228D01*
X51551503Y-53511228D02*
X51551503Y-53011228D01*
X51551503Y-53011228D02*
X51622931Y-52725514D01*
X51622931Y-52725514D02*
X51765789Y-52582657D01*
X51765789Y-52582657D02*
X51908646Y-52511228D01*
X53194360Y-54011228D02*
X53194360Y-52511228D01*
X53194360Y-52511228D02*
X54051503Y-54011228D01*
X54051503Y-54011228D02*
X54051503Y-52511228D01*
X55837218Y-52439800D02*
X54551504Y-54368371D01*
X56622933Y-52511228D02*
X56908647Y-52511228D01*
X56908647Y-52511228D02*
X57051504Y-52582657D01*
X57051504Y-52582657D02*
X57194361Y-52725514D01*
X57194361Y-52725514D02*
X57265790Y-53011228D01*
X57265790Y-53011228D02*
X57265790Y-53511228D01*
X57265790Y-53511228D02*
X57194361Y-53796942D01*
X57194361Y-53796942D02*
X57051504Y-53939800D01*
X57051504Y-53939800D02*
X56908647Y-54011228D01*
X56908647Y-54011228D02*
X56622933Y-54011228D01*
X56622933Y-54011228D02*
X56480076Y-53939800D01*
X56480076Y-53939800D02*
X56337218Y-53796942D01*
X56337218Y-53796942D02*
X56265790Y-53511228D01*
X56265790Y-53511228D02*
X56265790Y-53011228D01*
X56265790Y-53011228D02*
X56337218Y-52725514D01*
X56337218Y-52725514D02*
X56480076Y-52582657D01*
X56480076Y-52582657D02*
X56622933Y-52511228D01*
X58408647Y-53225514D02*
X57908647Y-53225514D01*
X57908647Y-54011228D02*
X57908647Y-52511228D01*
X57908647Y-52511228D02*
X58622933Y-52511228D01*
X59694361Y-53225514D02*
X59194361Y-53225514D01*
X59194361Y-54011228D02*
X59194361Y-52511228D01*
X59194361Y-52511228D02*
X59908647Y-52511228D01*
X97422931Y-84111228D02*
X97422931Y-82611228D01*
X97422931Y-83325514D02*
X98280074Y-83325514D01*
X98280074Y-84111228D02*
X98280074Y-82611228D01*
X99208646Y-84111228D02*
X99065789Y-84039800D01*
X99065789Y-84039800D02*
X98994360Y-83968371D01*
X98994360Y-83968371D02*
X98922932Y-83825514D01*
X98922932Y-83825514D02*
X98922932Y-83396942D01*
X98922932Y-83396942D02*
X98994360Y-83254085D01*
X98994360Y-83254085D02*
X99065789Y-83182657D01*
X99065789Y-83182657D02*
X99208646Y-83111228D01*
X99208646Y-83111228D02*
X99422932Y-83111228D01*
X99422932Y-83111228D02*
X99565789Y-83182657D01*
X99565789Y-83182657D02*
X99637218Y-83254085D01*
X99637218Y-83254085D02*
X99708646Y-83396942D01*
X99708646Y-83396942D02*
X99708646Y-83825514D01*
X99708646Y-83825514D02*
X99637218Y-83968371D01*
X99637218Y-83968371D02*
X99565789Y-84039800D01*
X99565789Y-84039800D02*
X99422932Y-84111228D01*
X99422932Y-84111228D02*
X99208646Y-84111228D01*
X100351503Y-84111228D02*
X100351503Y-83111228D01*
X100351503Y-83396942D02*
X100422932Y-83254085D01*
X100422932Y-83254085D02*
X100494361Y-83182657D01*
X100494361Y-83182657D02*
X100637218Y-83111228D01*
X100637218Y-83111228D02*
X100780075Y-83111228D01*
X101280074Y-84111228D02*
X101280074Y-83111228D01*
X101280074Y-82611228D02*
X101208646Y-82682657D01*
X101208646Y-82682657D02*
X101280074Y-82754085D01*
X101280074Y-82754085D02*
X101351503Y-82682657D01*
X101351503Y-82682657D02*
X101280074Y-82611228D01*
X101280074Y-82611228D02*
X101280074Y-82754085D01*
X101851503Y-83111228D02*
X102637218Y-83111228D01*
X102637218Y-83111228D02*
X101851503Y-84111228D01*
X101851503Y-84111228D02*
X102637218Y-84111228D01*
X93851503Y-71911228D02*
X93851503Y-72982657D01*
X93851503Y-72982657D02*
X93780074Y-73196942D01*
X93780074Y-73196942D02*
X93637217Y-73339800D01*
X93637217Y-73339800D02*
X93422931Y-73411228D01*
X93422931Y-73411228D02*
X93280074Y-73411228D01*
X94780074Y-73411228D02*
X94637217Y-73339800D01*
X94637217Y-73339800D02*
X94565788Y-73268371D01*
X94565788Y-73268371D02*
X94494360Y-73125514D01*
X94494360Y-73125514D02*
X94494360Y-72696942D01*
X94494360Y-72696942D02*
X94565788Y-72554085D01*
X94565788Y-72554085D02*
X94637217Y-72482657D01*
X94637217Y-72482657D02*
X94780074Y-72411228D01*
X94780074Y-72411228D02*
X94994360Y-72411228D01*
X94994360Y-72411228D02*
X95137217Y-72482657D01*
X95137217Y-72482657D02*
X95208646Y-72554085D01*
X95208646Y-72554085D02*
X95280074Y-72696942D01*
X95280074Y-72696942D02*
X95280074Y-73125514D01*
X95280074Y-73125514D02*
X95208646Y-73268371D01*
X95208646Y-73268371D02*
X95137217Y-73339800D01*
X95137217Y-73339800D02*
X94994360Y-73411228D01*
X94994360Y-73411228D02*
X94780074Y-73411228D01*
X95780074Y-72411228D02*
X96137217Y-73411228D01*
X96494360Y-72411228D02*
X96137217Y-73411228D01*
X96137217Y-73411228D02*
X95994360Y-73768371D01*
X95994360Y-73768371D02*
X95922931Y-73839800D01*
X95922931Y-73839800D02*
X95780074Y-73911228D01*
X96994360Y-73339800D02*
X97137217Y-73411228D01*
X97137217Y-73411228D02*
X97422931Y-73411228D01*
X97422931Y-73411228D02*
X97565788Y-73339800D01*
X97565788Y-73339800D02*
X97637217Y-73196942D01*
X97637217Y-73196942D02*
X97637217Y-73125514D01*
X97637217Y-73125514D02*
X97565788Y-72982657D01*
X97565788Y-72982657D02*
X97422931Y-72911228D01*
X97422931Y-72911228D02*
X97208646Y-72911228D01*
X97208646Y-72911228D02*
X97065788Y-72839800D01*
X97065788Y-72839800D02*
X96994360Y-72696942D01*
X96994360Y-72696942D02*
X96994360Y-72625514D01*
X96994360Y-72625514D02*
X97065788Y-72482657D01*
X97065788Y-72482657D02*
X97208646Y-72411228D01*
X97208646Y-72411228D02*
X97422931Y-72411228D01*
X97422931Y-72411228D02*
X97565788Y-72482657D01*
X98065789Y-72411228D02*
X98637217Y-72411228D01*
X98280074Y-71911228D02*
X98280074Y-73196942D01*
X98280074Y-73196942D02*
X98351503Y-73339800D01*
X98351503Y-73339800D02*
X98494360Y-73411228D01*
X98494360Y-73411228D02*
X98637217Y-73411228D01*
X99137217Y-73411228D02*
X99137217Y-72411228D01*
X99137217Y-71911228D02*
X99065789Y-71982657D01*
X99065789Y-71982657D02*
X99137217Y-72054085D01*
X99137217Y-72054085D02*
X99208646Y-71982657D01*
X99208646Y-71982657D02*
X99137217Y-71911228D01*
X99137217Y-71911228D02*
X99137217Y-72054085D01*
X100494361Y-73339800D02*
X100351503Y-73411228D01*
X100351503Y-73411228D02*
X100065789Y-73411228D01*
X100065789Y-73411228D02*
X99922932Y-73339800D01*
X99922932Y-73339800D02*
X99851503Y-73268371D01*
X99851503Y-73268371D02*
X99780075Y-73125514D01*
X99780075Y-73125514D02*
X99780075Y-72696942D01*
X99780075Y-72696942D02*
X99851503Y-72554085D01*
X99851503Y-72554085D02*
X99922932Y-72482657D01*
X99922932Y-72482657D02*
X100065789Y-72411228D01*
X100065789Y-72411228D02*
X100351503Y-72411228D01*
X100351503Y-72411228D02*
X100494361Y-72482657D01*
X101137217Y-73411228D02*
X101137217Y-71911228D01*
X101280075Y-72839800D02*
X101708646Y-73411228D01*
X101708646Y-72411228D02*
X101137217Y-72982657D01*
X99222931Y-58811228D02*
X99222931Y-57311228D01*
X99222931Y-57311228D02*
X99794360Y-57311228D01*
X99794360Y-57311228D02*
X99937217Y-57382657D01*
X99937217Y-57382657D02*
X100008646Y-57454085D01*
X100008646Y-57454085D02*
X100080074Y-57596942D01*
X100080074Y-57596942D02*
X100080074Y-57811228D01*
X100080074Y-57811228D02*
X100008646Y-57954085D01*
X100008646Y-57954085D02*
X99937217Y-58025514D01*
X99937217Y-58025514D02*
X99794360Y-58096942D01*
X99794360Y-58096942D02*
X99222931Y-58096942D01*
X101365789Y-57811228D02*
X101365789Y-58811228D01*
X100722931Y-57811228D02*
X100722931Y-58596942D01*
X100722931Y-58596942D02*
X100794360Y-58739800D01*
X100794360Y-58739800D02*
X100937217Y-58811228D01*
X100937217Y-58811228D02*
X101151503Y-58811228D01*
X101151503Y-58811228D02*
X101294360Y-58739800D01*
X101294360Y-58739800D02*
X101365789Y-58668371D01*
X102008646Y-58739800D02*
X102151503Y-58811228D01*
X102151503Y-58811228D02*
X102437217Y-58811228D01*
X102437217Y-58811228D02*
X102580074Y-58739800D01*
X102580074Y-58739800D02*
X102651503Y-58596942D01*
X102651503Y-58596942D02*
X102651503Y-58525514D01*
X102651503Y-58525514D02*
X102580074Y-58382657D01*
X102580074Y-58382657D02*
X102437217Y-58311228D01*
X102437217Y-58311228D02*
X102222932Y-58311228D01*
X102222932Y-58311228D02*
X102080074Y-58239800D01*
X102080074Y-58239800D02*
X102008646Y-58096942D01*
X102008646Y-58096942D02*
X102008646Y-58025514D01*
X102008646Y-58025514D02*
X102080074Y-57882657D01*
X102080074Y-57882657D02*
X102222932Y-57811228D01*
X102222932Y-57811228D02*
X102437217Y-57811228D01*
X102437217Y-57811228D02*
X102580074Y-57882657D01*
X103294360Y-58811228D02*
X103294360Y-57311228D01*
X103937218Y-58811228D02*
X103937218Y-58025514D01*
X103937218Y-58025514D02*
X103865789Y-57882657D01*
X103865789Y-57882657D02*
X103722932Y-57811228D01*
X103722932Y-57811228D02*
X103508646Y-57811228D01*
X103508646Y-57811228D02*
X103365789Y-57882657D01*
X103365789Y-57882657D02*
X103294360Y-57954085D01*
X96433333Y-71657419D02*
X96100000Y-71181228D01*
X95861905Y-71657419D02*
X95861905Y-70657419D01*
X95861905Y-70657419D02*
X96242857Y-70657419D01*
X96242857Y-70657419D02*
X96338095Y-70705038D01*
X96338095Y-70705038D02*
X96385714Y-70752657D01*
X96385714Y-70752657D02*
X96433333Y-70847895D01*
X96433333Y-70847895D02*
X96433333Y-70990752D01*
X96433333Y-70990752D02*
X96385714Y-71085990D01*
X96385714Y-71085990D02*
X96338095Y-71133609D01*
X96338095Y-71133609D02*
X96242857Y-71181228D01*
X96242857Y-71181228D02*
X95861905Y-71181228D01*
X97385714Y-71657419D02*
X96814286Y-71657419D01*
X97100000Y-71657419D02*
X97100000Y-70657419D01*
X97100000Y-70657419D02*
X97004762Y-70800276D01*
X97004762Y-70800276D02*
X96909524Y-70895514D01*
X96909524Y-70895514D02*
X96814286Y-70943133D01*
D11*
X116604761Y-75974819D02*
X116271428Y-75498628D01*
X116033333Y-75974819D02*
X116033333Y-74974819D01*
X116033333Y-74974819D02*
X116414285Y-74974819D01*
X116414285Y-74974819D02*
X116509523Y-75022438D01*
X116509523Y-75022438D02*
X116557142Y-75070057D01*
X116557142Y-75070057D02*
X116604761Y-75165295D01*
X116604761Y-75165295D02*
X116604761Y-75308152D01*
X116604761Y-75308152D02*
X116557142Y-75403390D01*
X116557142Y-75403390D02*
X116509523Y-75451009D01*
X116509523Y-75451009D02*
X116414285Y-75498628D01*
X116414285Y-75498628D02*
X116033333Y-75498628D01*
X116890476Y-74974819D02*
X117223809Y-75974819D01*
X117223809Y-75974819D02*
X117557142Y-74974819D01*
X117842857Y-75070057D02*
X117890476Y-75022438D01*
X117890476Y-75022438D02*
X117985714Y-74974819D01*
X117985714Y-74974819D02*
X118223809Y-74974819D01*
X118223809Y-74974819D02*
X118319047Y-75022438D01*
X118319047Y-75022438D02*
X118366666Y-75070057D01*
X118366666Y-75070057D02*
X118414285Y-75165295D01*
X118414285Y-75165295D02*
X118414285Y-75260533D01*
X118414285Y-75260533D02*
X118366666Y-75403390D01*
X118366666Y-75403390D02*
X117795238Y-75974819D01*
X117795238Y-75974819D02*
X118414285Y-75974819D01*
X116604761Y-62974819D02*
X116271428Y-62498628D01*
X116033333Y-62974819D02*
X116033333Y-61974819D01*
X116033333Y-61974819D02*
X116414285Y-61974819D01*
X116414285Y-61974819D02*
X116509523Y-62022438D01*
X116509523Y-62022438D02*
X116557142Y-62070057D01*
X116557142Y-62070057D02*
X116604761Y-62165295D01*
X116604761Y-62165295D02*
X116604761Y-62308152D01*
X116604761Y-62308152D02*
X116557142Y-62403390D01*
X116557142Y-62403390D02*
X116509523Y-62451009D01*
X116509523Y-62451009D02*
X116414285Y-62498628D01*
X116414285Y-62498628D02*
X116033333Y-62498628D01*
X116890476Y-61974819D02*
X117223809Y-62974819D01*
X117223809Y-62974819D02*
X117557142Y-61974819D01*
X118414285Y-62974819D02*
X117842857Y-62974819D01*
X118128571Y-62974819D02*
X118128571Y-61974819D01*
X118128571Y-61974819D02*
X118033333Y-62117676D01*
X118033333Y-62117676D02*
X117938095Y-62212914D01*
X117938095Y-62212914D02*
X117842857Y-62260533D01*
X78666666Y-61454819D02*
X78666666Y-62169104D01*
X78666666Y-62169104D02*
X78619047Y-62311961D01*
X78619047Y-62311961D02*
X78523809Y-62407200D01*
X78523809Y-62407200D02*
X78380952Y-62454819D01*
X78380952Y-62454819D02*
X78285714Y-62454819D01*
X79666666Y-62454819D02*
X79095238Y-62454819D01*
X79380952Y-62454819D02*
X79380952Y-61454819D01*
X79380952Y-61454819D02*
X79285714Y-61597676D01*
X79285714Y-61597676D02*
X79190476Y-61692914D01*
X79190476Y-61692914D02*
X79095238Y-61740533D01*
X61438095Y-60054819D02*
X61438095Y-60864342D01*
X61438095Y-60864342D02*
X61485714Y-60959580D01*
X61485714Y-60959580D02*
X61533333Y-61007200D01*
X61533333Y-61007200D02*
X61628571Y-61054819D01*
X61628571Y-61054819D02*
X61819047Y-61054819D01*
X61819047Y-61054819D02*
X61914285Y-61007200D01*
X61914285Y-61007200D02*
X61961904Y-60959580D01*
X61961904Y-60959580D02*
X62009523Y-60864342D01*
X62009523Y-60864342D02*
X62009523Y-60054819D01*
X63009523Y-61054819D02*
X62438095Y-61054819D01*
X62723809Y-61054819D02*
X62723809Y-60054819D01*
X62723809Y-60054819D02*
X62628571Y-60197676D01*
X62628571Y-60197676D02*
X62533333Y-60292914D01*
X62533333Y-60292914D02*
X62438095Y-60340533D01*
D10*
%TO.C,R1*%
X85600000Y-59450000D02*
X85600000Y-81700000D01*
X85600000Y-81700000D02*
X104350000Y-81700000D01*
X104350000Y-59450000D02*
X85600000Y-59450000D01*
X104350000Y-81700000D02*
X104350000Y-59450000D01*
D12*
%TO.C,RV2*%
X113790000Y-76810000D02*
X113790000Y-77060000D01*
X113790000Y-82520000D02*
X113790000Y-78980000D01*
X113890000Y-76610000D02*
X113890000Y-76810000D01*
X113890000Y-76610000D02*
X115310000Y-76610000D01*
X113890000Y-76810000D02*
X113790000Y-76810000D01*
X115310000Y-76810000D02*
X115310000Y-76610000D01*
X115310000Y-76810000D02*
X118890000Y-76810000D01*
X116590000Y-83830000D02*
X115100000Y-83830000D01*
X118890000Y-76610000D02*
X120310000Y-76610000D01*
X118890000Y-76810000D02*
X118890000Y-76610000D01*
X119100000Y-83830000D02*
X117610000Y-83830000D01*
X120310000Y-76610000D02*
X120310000Y-76810000D01*
X120310000Y-76810000D02*
X120410000Y-76810000D01*
X120410000Y-76810000D02*
X120410000Y-77500000D01*
X120410000Y-78540000D02*
X120410000Y-82520000D01*
X115100000Y-83830000D02*
G75*
G02*
X113790000Y-82520000I0J1310000D01*
G01*
X120410000Y-82520000D02*
G75*
G02*
X119100000Y-83830000I-1310000J0D01*
G01*
%TO.C,SW1*%
X61590000Y-51440000D02*
X70410000Y-51440000D01*
X61590000Y-51750000D02*
X61590000Y-51440000D01*
X61590000Y-55960000D02*
X61590000Y-55650000D01*
X63500000Y-50740000D02*
X64000000Y-51240000D01*
X64000000Y-51240000D02*
X64500000Y-50740000D01*
X64500000Y-50740000D02*
X63500000Y-50740000D01*
X70410000Y-51440000D02*
X70410000Y-51750000D01*
X70410000Y-55960000D02*
X61590000Y-55960000D01*
X70410000Y-55960000D02*
X70410000Y-55650000D01*
%TO.C,RV1*%
X113790000Y-63810000D02*
X113790000Y-64060000D01*
X113790000Y-69520000D02*
X113790000Y-65980000D01*
X113890000Y-63610000D02*
X113890000Y-63810000D01*
X113890000Y-63610000D02*
X115310000Y-63610000D01*
X113890000Y-63810000D02*
X113790000Y-63810000D01*
X115310000Y-63810000D02*
X115310000Y-63610000D01*
X115310000Y-63810000D02*
X118890000Y-63810000D01*
X116590000Y-70830000D02*
X115100000Y-70830000D01*
X118890000Y-63610000D02*
X120310000Y-63610000D01*
X118890000Y-63810000D02*
X118890000Y-63610000D01*
X119100000Y-70830000D02*
X117610000Y-70830000D01*
X120310000Y-63610000D02*
X120310000Y-63810000D01*
X120310000Y-63810000D02*
X120410000Y-63810000D01*
X120410000Y-63810000D02*
X120410000Y-64500000D01*
X120410000Y-65540000D02*
X120410000Y-69520000D01*
X115100000Y-70830000D02*
G75*
G02*
X113790000Y-69520000I0J1310000D01*
G01*
X120410000Y-69520000D02*
G75*
G02*
X119100000Y-70830000I-1310000J0D01*
G01*
D13*
%TO.C,G*%
G36*
X117230293Y-52381451D02*
G01*
X117307858Y-52414025D01*
X117375239Y-52476265D01*
X117437978Y-52566923D01*
X117483870Y-52642711D01*
X117434718Y-52898733D01*
X117412806Y-53008981D01*
X117394424Y-53086352D01*
X117375760Y-53140651D01*
X117352998Y-53181682D01*
X117322326Y-53219249D01*
X117301521Y-53241146D01*
X117183441Y-53343697D01*
X117065165Y-53410607D01*
X116951280Y-53439862D01*
X116862139Y-53433812D01*
X116797305Y-53397000D01*
X116749351Y-53325551D01*
X116737477Y-53285702D01*
X116841487Y-53285702D01*
X116847498Y-53333325D01*
X116861346Y-53385299D01*
X116885791Y-53407035D01*
X116935368Y-53411424D01*
X116935547Y-53411424D01*
X117004203Y-53405313D01*
X117061809Y-53391325D01*
X117103020Y-53366946D01*
X117162773Y-53321249D01*
X117229002Y-53263551D01*
X117237103Y-53255988D01*
X117359533Y-53140751D01*
X117402188Y-52913428D01*
X117423748Y-52796295D01*
X117436846Y-52713537D01*
X117441242Y-52657007D01*
X117436698Y-52618558D01*
X117422975Y-52590047D01*
X117399834Y-52563325D01*
X117391691Y-52555112D01*
X117318739Y-52509591D01*
X117234090Y-52501211D01*
X117144969Y-52528154D01*
X117058601Y-52588606D01*
X117001161Y-52653235D01*
X116945692Y-52751770D01*
X116898712Y-52878792D01*
X116863499Y-53019792D01*
X116843332Y-53160265D01*
X116841487Y-53285702D01*
X116737477Y-53285702D01*
X116719446Y-53225186D01*
X116708760Y-53101625D01*
X116718461Y-52960588D01*
X116741109Y-52841394D01*
X116779046Y-52707186D01*
X116822538Y-52604523D01*
X116877748Y-52521646D01*
X116945297Y-52451763D01*
X117005857Y-52402804D01*
X117058108Y-52378997D01*
X117121342Y-52372118D01*
X117132347Y-52372038D01*
X117230293Y-52381451D01*
G37*
G36*
X117663729Y-51095952D02*
G01*
X117921361Y-51126614D01*
X118146335Y-51178490D01*
X118345191Y-51254378D01*
X118524466Y-51357076D01*
X118690701Y-51489381D01*
X118774494Y-51571157D01*
X118901410Y-51715724D01*
X118997341Y-51857724D01*
X119066519Y-52007167D01*
X119113176Y-52174066D01*
X119141543Y-52368432D01*
X119148753Y-52456664D01*
X119156147Y-52553239D01*
X119164779Y-52617251D01*
X119177861Y-52659399D01*
X119198605Y-52690385D01*
X119227281Y-52718287D01*
X119268309Y-52763175D01*
X119290587Y-52815161D01*
X119301694Y-52892105D01*
X119301851Y-52893986D01*
X119301407Y-52960524D01*
X119292786Y-53053344D01*
X119277637Y-53163981D01*
X119257608Y-53283968D01*
X119234348Y-53404838D01*
X119209506Y-53518124D01*
X119184730Y-53615360D01*
X119161670Y-53688078D01*
X119141973Y-53727813D01*
X119138900Y-53730819D01*
X119119193Y-53753315D01*
X119124292Y-53760854D01*
X119167716Y-53764094D01*
X119238253Y-53766043D01*
X119327132Y-53766812D01*
X119425584Y-53766513D01*
X119524838Y-53765259D01*
X119531582Y-53765104D01*
X119833986Y-53765104D01*
X119836959Y-53777977D01*
X119848422Y-53779540D01*
X119866246Y-53771617D01*
X119862858Y-53765104D01*
X119837160Y-53762513D01*
X119833986Y-53765104D01*
X119531582Y-53765104D01*
X119616125Y-53763161D01*
X119690675Y-53760332D01*
X119698780Y-53759762D01*
X119903717Y-53759762D01*
X119928242Y-53766614D01*
X119984180Y-53770842D01*
X120059672Y-53771574D01*
X120063533Y-53771508D01*
X120144426Y-53767364D01*
X120188503Y-53758972D01*
X120193797Y-53748142D01*
X120178486Y-53712719D01*
X120173231Y-53667386D01*
X120173231Y-53607201D01*
X120080272Y-53672725D01*
X120017949Y-53711253D01*
X119962512Y-53736563D01*
X119941022Y-53741735D01*
X119908143Y-53750016D01*
X119903717Y-53759762D01*
X119698780Y-53759762D01*
X119739717Y-53756883D01*
X119754482Y-53752927D01*
X119754307Y-53752804D01*
X119710620Y-53737979D01*
X119695206Y-53736564D01*
X119657767Y-53721521D01*
X119613461Y-53685491D01*
X119610894Y-53682804D01*
X119580273Y-53639883D01*
X119561104Y-53584842D01*
X119553422Y-53512234D01*
X119557261Y-53416613D01*
X119572658Y-53292533D01*
X119599648Y-53134547D01*
X119614962Y-53054135D01*
X119686646Y-52686019D01*
X119789188Y-52679419D01*
X119848986Y-52677202D01*
X119885939Y-52678973D01*
X119891730Y-52681454D01*
X119887640Y-52704565D01*
X119876366Y-52762561D01*
X119859402Y-52847900D01*
X119838241Y-52953038D01*
X119826108Y-53012862D01*
X119792652Y-53184928D01*
X119770757Y-53319503D01*
X119760866Y-53420952D01*
X119763420Y-53493641D01*
X119778862Y-53541934D01*
X119807634Y-53570197D01*
X119850178Y-53582796D01*
X119884038Y-53584655D01*
X119940773Y-53575287D01*
X119943359Y-53573828D01*
X120173231Y-53573828D01*
X120184058Y-53584655D01*
X120194884Y-53573828D01*
X120184058Y-53563001D01*
X120173231Y-53573828D01*
X119943359Y-53573828D01*
X119998741Y-53542587D01*
X120052698Y-53497052D01*
X120118659Y-53427889D01*
X120170346Y-53351604D01*
X120211951Y-53259007D01*
X120247661Y-53140906D01*
X120279287Y-52999972D01*
X120299404Y-52900947D01*
X120317341Y-52813622D01*
X120330756Y-52749345D01*
X120336254Y-52723913D01*
X120349364Y-52693506D01*
X120378864Y-52679132D01*
X120437373Y-52675223D01*
X120446664Y-52675192D01*
X120506866Y-52677027D01*
X120533832Y-52686246D01*
X120537597Y-52708417D01*
X120534441Y-52723913D01*
X120526970Y-52758966D01*
X120512606Y-52829570D01*
X120492740Y-52928767D01*
X120468763Y-53049599D01*
X120442065Y-53185111D01*
X120431655Y-53238193D01*
X120402309Y-53382382D01*
X120374405Y-53508941D01*
X120349389Y-53612008D01*
X120328704Y-53685723D01*
X120313795Y-53724224D01*
X120310984Y-53727793D01*
X120285717Y-53752508D01*
X120281515Y-53760273D01*
X120301692Y-53763842D01*
X120356272Y-53766932D01*
X120436353Y-53769165D01*
X120511133Y-53770069D01*
X120612510Y-53769921D01*
X120676158Y-53767524D01*
X120707632Y-53762115D01*
X120712484Y-53752930D01*
X120702817Y-53743699D01*
X120701371Y-53742316D01*
X120760353Y-53742316D01*
X120763492Y-53749439D01*
X120787690Y-53756366D01*
X120844430Y-53761851D01*
X120924062Y-53765816D01*
X121016933Y-53768179D01*
X121113392Y-53768860D01*
X121125662Y-53768713D01*
X121407502Y-53768713D01*
X121418329Y-53779540D01*
X121429156Y-53768713D01*
X121418329Y-53757886D01*
X121407502Y-53768713D01*
X121125662Y-53768713D01*
X121203787Y-53767777D01*
X121278466Y-53764851D01*
X121327777Y-53760001D01*
X121342538Y-53754277D01*
X121336398Y-53747059D01*
X121364194Y-53747059D01*
X121375021Y-53757886D01*
X121385848Y-53747059D01*
X121382576Y-53743787D01*
X121464359Y-53743787D01*
X121465699Y-53754589D01*
X121488930Y-53761761D01*
X121539191Y-53766023D01*
X121621621Y-53768097D01*
X121741360Y-53768704D01*
X121765295Y-53768713D01*
X121884568Y-53767368D01*
X121961781Y-53763356D01*
X121996521Y-53756714D01*
X121992660Y-53749164D01*
X121957698Y-53723267D01*
X121948849Y-53703821D01*
X121952969Y-53674460D01*
X121964317Y-53610788D01*
X121981373Y-53520910D01*
X122002619Y-53412929D01*
X122013810Y-53357289D01*
X122036852Y-53238891D01*
X122056298Y-53130144D01*
X122070556Y-53040641D01*
X122078035Y-52979976D01*
X122078772Y-52965688D01*
X122064123Y-52890005D01*
X122024185Y-52844553D01*
X121964965Y-52829631D01*
X121892474Y-52845539D01*
X121812720Y-52892576D01*
X121750933Y-52949346D01*
X121695394Y-53019770D01*
X121650350Y-53103522D01*
X121612576Y-53208918D01*
X121578845Y-53344275D01*
X121559100Y-53443905D01*
X121536830Y-53552678D01*
X121514374Y-53642009D01*
X121494004Y-53703742D01*
X121479771Y-53728632D01*
X121464359Y-53743787D01*
X121382576Y-53743787D01*
X121375021Y-53736232D01*
X121364194Y-53747059D01*
X121336398Y-53747059D01*
X121325925Y-53734748D01*
X121320500Y-53732495D01*
X121315724Y-53708775D01*
X121321017Y-53646683D01*
X121335903Y-53549852D01*
X121359905Y-53421914D01*
X121363808Y-53402504D01*
X121398024Y-53221169D01*
X121419169Y-53078454D01*
X121427429Y-52971747D01*
X121422992Y-52898439D01*
X121406045Y-52855919D01*
X121403171Y-52852754D01*
X121350029Y-52827741D01*
X121280335Y-52833465D01*
X121203989Y-52866373D01*
X121130891Y-52922912D01*
X121095289Y-52963275D01*
X121039091Y-53049625D01*
X120992500Y-53151722D01*
X120952286Y-53278314D01*
X120915216Y-53438149D01*
X120909722Y-53465559D01*
X120880459Y-53595768D01*
X120851639Y-53684985D01*
X120822135Y-53735497D01*
X120790819Y-53749593D01*
X120773003Y-53743020D01*
X120760353Y-53742316D01*
X120701371Y-53742316D01*
X120691444Y-53732818D01*
X120684362Y-53716173D01*
X120682195Y-53688559D01*
X120685567Y-53644772D01*
X120695103Y-53579609D01*
X120711425Y-53487866D01*
X120735160Y-53364339D01*
X120766931Y-53203825D01*
X120768573Y-53195582D01*
X120872248Y-52675192D01*
X120958650Y-52675192D01*
X121013706Y-52677000D01*
X121036221Y-52689611D01*
X121036960Y-52723810D01*
X121032972Y-52749631D01*
X121020893Y-52824071D01*
X121117249Y-52750520D01*
X121233378Y-52682535D01*
X121352850Y-52655701D01*
X121446606Y-52660997D01*
X121521159Y-52688568D01*
X121582589Y-52739044D01*
X121618970Y-52800907D01*
X121624040Y-52832371D01*
X121627161Y-52856241D01*
X121641348Y-52856351D01*
X121673841Y-52829791D01*
X121705243Y-52799740D01*
X121803393Y-52723638D01*
X121908417Y-52675260D01*
X122012679Y-52655071D01*
X122108540Y-52663533D01*
X122188363Y-52701110D01*
X122243890Y-52767056D01*
X122263495Y-52818494D01*
X122273374Y-52882474D01*
X122273182Y-52964785D01*
X122262574Y-53071211D01*
X122241206Y-53207541D01*
X122208732Y-53379560D01*
X122206831Y-53389098D01*
X122180470Y-53518728D01*
X122159975Y-53611708D01*
X122143406Y-53673984D01*
X122128827Y-53711506D01*
X122114298Y-53730222D01*
X122097881Y-53736079D01*
X122093708Y-53736232D01*
X122064967Y-53742104D01*
X122065002Y-53751334D01*
X122091597Y-53757603D01*
X122151976Y-53762927D01*
X122236614Y-53766672D01*
X122317063Y-53768118D01*
X122427149Y-53767343D01*
X122495431Y-53763195D01*
X122521375Y-53755723D01*
X122516695Y-53749822D01*
X122502571Y-53742080D01*
X122581064Y-53742080D01*
X122591877Y-53753356D01*
X122625594Y-53761868D01*
X122688744Y-53768186D01*
X122765108Y-53770892D01*
X122912446Y-53771967D01*
X122904386Y-53768713D01*
X122966581Y-53768713D01*
X122977408Y-53779540D01*
X122988235Y-53768713D01*
X122977408Y-53757886D01*
X122966581Y-53768713D01*
X122904386Y-53768713D01*
X122836658Y-53741369D01*
X122771917Y-53708607D01*
X122717565Y-53670581D01*
X122714814Y-53668097D01*
X122681514Y-53639911D01*
X122665954Y-53644145D01*
X122654853Y-53680828D01*
X122630885Y-53724301D01*
X122603466Y-53736564D01*
X122581064Y-53742080D01*
X122502571Y-53742080D01*
X122483490Y-53731621D01*
X122474290Y-53726156D01*
X122475287Y-53703418D01*
X122484556Y-53644231D01*
X122500870Y-53554398D01*
X122518761Y-53461699D01*
X122721383Y-53461699D01*
X122790189Y-53523177D01*
X122852724Y-53566913D01*
X122921739Y-53583524D01*
X122955053Y-53584655D01*
X123020557Y-53579442D01*
X123069922Y-53557733D01*
X123123187Y-53510424D01*
X123126975Y-53506542D01*
X123204368Y-53397343D01*
X123255767Y-53259011D01*
X123278686Y-53098784D01*
X123279656Y-53061883D01*
X123270798Y-52949354D01*
X123241935Y-52874052D01*
X123192126Y-52834319D01*
X123146208Y-52826769D01*
X123052166Y-52847542D01*
X122962671Y-52906335D01*
X122881955Y-52997863D01*
X122814249Y-53116840D01*
X122763785Y-53257980D01*
X122748589Y-53323411D01*
X122721383Y-53461699D01*
X122518761Y-53461699D01*
X122523002Y-53439722D01*
X122549724Y-53306006D01*
X122579808Y-53159054D01*
X122612028Y-53004670D01*
X122645154Y-52848656D01*
X122677961Y-52696816D01*
X122709219Y-52554953D01*
X122737703Y-52428870D01*
X122762184Y-52324372D01*
X122781434Y-52247261D01*
X122794227Y-52203341D01*
X122798073Y-52195430D01*
X122844859Y-52180061D01*
X122899800Y-52179267D01*
X122943820Y-52191813D01*
X122957245Y-52205712D01*
X122956934Y-52236375D01*
X122948496Y-52300723D01*
X122933293Y-52390185D01*
X122912689Y-52496191D01*
X122905712Y-52529684D01*
X122843221Y-52825097D01*
X122910314Y-52768517D01*
X123017859Y-52698174D01*
X123128653Y-52661369D01*
X123235649Y-52657416D01*
X123331797Y-52685628D01*
X123410051Y-52745319D01*
X123457882Y-52821830D01*
X123484823Y-52930244D01*
X123489005Y-53062059D01*
X123472422Y-53205144D01*
X123437073Y-53347365D01*
X123384953Y-53476589D01*
X123337000Y-53556386D01*
X123267842Y-53633485D01*
X123186848Y-53696112D01*
X123106902Y-53735373D01*
X123065157Y-53743995D01*
X123028631Y-53750145D01*
X123020726Y-53757886D01*
X123042731Y-53760441D01*
X123099830Y-53762511D01*
X123183808Y-53764070D01*
X123286454Y-53765096D01*
X123399556Y-53765564D01*
X123514899Y-53765450D01*
X123624273Y-53764731D01*
X123719463Y-53763383D01*
X123792259Y-53761381D01*
X123816496Y-53760203D01*
X123833259Y-53756684D01*
X123842903Y-53747059D01*
X123962659Y-53747059D01*
X123973486Y-53757886D01*
X123984313Y-53747059D01*
X123973486Y-53736232D01*
X123962659Y-53747059D01*
X123842903Y-53747059D01*
X123844717Y-53745249D01*
X123850536Y-53721043D01*
X123850381Y-53679208D01*
X123843918Y-53614890D01*
X123830812Y-53523230D01*
X123810728Y-53399373D01*
X123783333Y-53238463D01*
X123778702Y-53211588D01*
X123750162Y-53046405D01*
X123728710Y-52919067D01*
X123714522Y-52824668D01*
X123707774Y-52758299D01*
X123708640Y-52715054D01*
X123717295Y-52690025D01*
X123733916Y-52678306D01*
X123758675Y-52674989D01*
X123791750Y-52675167D01*
X123797845Y-52675192D01*
X123830643Y-52674087D01*
X123855383Y-52674322D01*
X123874052Y-52681225D01*
X123888640Y-52700120D01*
X123901136Y-52736335D01*
X123913527Y-52795195D01*
X123927802Y-52882027D01*
X123945950Y-53002158D01*
X123963570Y-53119097D01*
X123981313Y-53231733D01*
X123998134Y-53331318D01*
X124012426Y-53408836D01*
X124022583Y-53455272D01*
X124024620Y-53461890D01*
X124041360Y-53467774D01*
X124070855Y-53437872D01*
X124110690Y-53376964D01*
X124158455Y-53289830D01*
X124211734Y-53181248D01*
X124268116Y-53055998D01*
X124325187Y-52918859D01*
X124380534Y-52774611D01*
X124402675Y-52713086D01*
X124424152Y-52687845D01*
X124471918Y-52676644D01*
X124514154Y-52675192D01*
X124572499Y-52679626D01*
X124607640Y-52690851D01*
X124612276Y-52697662D01*
X124604197Y-52731114D01*
X124582525Y-52794496D01*
X124551108Y-52878096D01*
X124513791Y-52972204D01*
X124474421Y-53067108D01*
X124436847Y-53153098D01*
X124406150Y-53218017D01*
X124363121Y-53297943D01*
X124310111Y-53388311D01*
X124252086Y-53481608D01*
X124194013Y-53570323D01*
X124140856Y-53646946D01*
X124097583Y-53703966D01*
X124069160Y-53733872D01*
X124063289Y-53736564D01*
X124051328Y-53742819D01*
X124064709Y-53753584D01*
X124095832Y-53759955D01*
X124160482Y-53764635D01*
X124248894Y-53767145D01*
X124340900Y-53767148D01*
X124454376Y-53767005D01*
X124528214Y-53770152D01*
X124565982Y-53776914D01*
X124571249Y-53787615D01*
X124570923Y-53788022D01*
X124538759Y-53799347D01*
X124466246Y-53806507D01*
X124356162Y-53809292D01*
X124291719Y-53809025D01*
X124032423Y-53806030D01*
X123930354Y-53945041D01*
X123865287Y-54032244D01*
X123817714Y-54090048D01*
X123780194Y-54124467D01*
X123745287Y-54141512D01*
X123705553Y-54147195D01*
X123679612Y-54147656D01*
X123626144Y-54143052D01*
X123600325Y-54126145D01*
X123602685Y-54092293D01*
X123633751Y-54036854D01*
X123694053Y-53955185D01*
X123702813Y-53943994D01*
X123766132Y-53860518D01*
X123801952Y-53806410D01*
X123809794Y-53782560D01*
X123789178Y-53789858D01*
X123784015Y-53793401D01*
X123759003Y-53795978D01*
X123693114Y-53798370D01*
X123588779Y-53800562D01*
X123448429Y-53802539D01*
X123274494Y-53804288D01*
X123069405Y-53805793D01*
X122835593Y-53807040D01*
X122575489Y-53808014D01*
X122291522Y-53808701D01*
X121986125Y-53809086D01*
X121661728Y-53809155D01*
X121320760Y-53808893D01*
X121223444Y-53808759D01*
X118689940Y-53804953D01*
X118538363Y-53879229D01*
X118379725Y-53939800D01*
X118211540Y-53973876D01*
X118044414Y-53980993D01*
X117888954Y-53960689D01*
X117757222Y-53913265D01*
X117691538Y-53870231D01*
X117620908Y-53811032D01*
X117589980Y-53780147D01*
X117507753Y-53691305D01*
X117422647Y-53764153D01*
X117276739Y-53865862D01*
X117117589Y-53936046D01*
X116952900Y-53973370D01*
X116790372Y-53976498D01*
X116637707Y-53944096D01*
X116564903Y-53912827D01*
X116473353Y-53849644D01*
X116380460Y-53758968D01*
X116298686Y-53654355D01*
X116249746Y-53569953D01*
X116229148Y-53522618D01*
X116215125Y-53475723D01*
X116206474Y-53419581D01*
X116201989Y-53344501D01*
X116200467Y-53240795D01*
X116200446Y-53177400D01*
X116214924Y-53177400D01*
X116221773Y-53326689D01*
X116250205Y-53458785D01*
X116301624Y-53584605D01*
X116304122Y-53589550D01*
X116347665Y-53667796D01*
X116389456Y-53719673D01*
X116442939Y-53759363D01*
X116489130Y-53784722D01*
X116626947Y-53832473D01*
X116779852Y-53845000D01*
X116937016Y-53821777D01*
X116980839Y-53808619D01*
X117086755Y-53763602D01*
X117197304Y-53701302D01*
X117296022Y-53631878D01*
X117356587Y-53576769D01*
X117408954Y-53530895D01*
X117446376Y-53524813D01*
X117470864Y-53558468D01*
X117475284Y-53573415D01*
X117509732Y-53640394D01*
X117573854Y-53709337D01*
X117655861Y-53769701D01*
X117739034Y-53809306D01*
X117815694Y-53827970D01*
X117906456Y-53838881D01*
X118002191Y-53842462D01*
X118093767Y-53839133D01*
X118172054Y-53829318D01*
X118227923Y-53813438D01*
X118252241Y-53791915D01*
X118252298Y-53785584D01*
X118264438Y-53765185D01*
X118273952Y-53763845D01*
X118316929Y-53762639D01*
X118343478Y-53760639D01*
X118372220Y-53754692D01*
X118365526Y-53747059D01*
X118419266Y-53747059D01*
X118430093Y-53757886D01*
X118440920Y-53747059D01*
X118505882Y-53747059D01*
X118516709Y-53757886D01*
X118527536Y-53747059D01*
X118522127Y-53741650D01*
X118681826Y-53741650D01*
X118684529Y-53749127D01*
X118710132Y-53757758D01*
X118768785Y-53764676D01*
X118850235Y-53768898D01*
X118899000Y-53769706D01*
X118991112Y-53769275D01*
X119043960Y-53766492D01*
X119061550Y-53760784D01*
X119047890Y-53751577D01*
X119041815Y-53749285D01*
X119013357Y-53737686D01*
X118995175Y-53722294D01*
X118986905Y-53695843D01*
X118988184Y-53651069D01*
X118998648Y-53580706D01*
X119017934Y-53477490D01*
X119026102Y-53435344D01*
X119043043Y-53341928D01*
X119054708Y-53265193D01*
X119059821Y-53214445D01*
X119058517Y-53198956D01*
X119048531Y-53205347D01*
X119047212Y-53218344D01*
X119036528Y-53261756D01*
X119008350Y-53330295D01*
X118968446Y-53412557D01*
X118922585Y-53497139D01*
X118876533Y-53572637D01*
X118846827Y-53614543D01*
X118789157Y-53686786D01*
X118750605Y-53729573D01*
X118724814Y-53748466D01*
X118705424Y-53749030D01*
X118697587Y-53745094D01*
X118681826Y-53741650D01*
X118522127Y-53741650D01*
X118516709Y-53736232D01*
X118505882Y-53747059D01*
X118440920Y-53747059D01*
X118430093Y-53736232D01*
X118419266Y-53747059D01*
X118365526Y-53747059D01*
X118360508Y-53741338D01*
X118352785Y-53736677D01*
X118339867Y-53724694D01*
X118333774Y-53702968D01*
X118335050Y-53666110D01*
X118527536Y-53666110D01*
X118540956Y-53664828D01*
X118575619Y-53638917D01*
X118623131Y-53595324D01*
X118664097Y-53553095D01*
X118734002Y-53461633D01*
X118805100Y-53341666D01*
X118870231Y-53207186D01*
X118896518Y-53138946D01*
X119070592Y-53138946D01*
X119074573Y-53167032D01*
X119081965Y-53167367D01*
X119087134Y-53138385D01*
X119083675Y-53125864D01*
X119074060Y-53117661D01*
X119070592Y-53138946D01*
X118896518Y-53138946D01*
X118922237Y-53072182D01*
X118939411Y-53015127D01*
X118959369Y-52934865D01*
X118971889Y-52871718D01*
X118974972Y-52836316D01*
X118973738Y-52832677D01*
X118943410Y-52829961D01*
X118893133Y-52850532D01*
X118834394Y-52887884D01*
X118778680Y-52935514D01*
X118763494Y-52951719D01*
X118708819Y-53024106D01*
X118664182Y-53108543D01*
X118626066Y-53213909D01*
X118590957Y-53349082D01*
X118572951Y-53432973D01*
X118554216Y-53525767D01*
X118539240Y-53601730D01*
X118529838Y-53651542D01*
X118527536Y-53666110D01*
X118335050Y-53666110D01*
X118335105Y-53664522D01*
X118344457Y-53602376D01*
X118362428Y-53509551D01*
X118379159Y-53428768D01*
X118407164Y-53293026D01*
X118425667Y-53196611D01*
X118434736Y-53136612D01*
X118434438Y-53110121D01*
X118424841Y-53114227D01*
X118406012Y-53146020D01*
X118384759Y-53188587D01*
X118308671Y-53308474D01*
X118215261Y-53391425D01*
X118128957Y-53429757D01*
X118027366Y-53440666D01*
X117945264Y-53415139D01*
X117887455Y-53356700D01*
X117858739Y-53268871D01*
X117856449Y-53229859D01*
X117860525Y-53184345D01*
X117871893Y-53103246D01*
X117889415Y-52993458D01*
X117911956Y-52861877D01*
X117938382Y-52715399D01*
X117961052Y-52594750D01*
X117988823Y-52445999D01*
X118012745Y-52310941D01*
X118031876Y-52195493D01*
X118045272Y-52105572D01*
X118051988Y-52047097D01*
X118051686Y-52026443D01*
X118024215Y-52012636D01*
X117967120Y-51999683D01*
X117909189Y-51992131D01*
X117803358Y-51989348D01*
X117730589Y-52006856D01*
X117683860Y-52048552D01*
X117656149Y-52118329D01*
X117652577Y-52134476D01*
X117639375Y-52194224D01*
X117628717Y-52233248D01*
X117625750Y-52240070D01*
X117607848Y-52230702D01*
X117567265Y-52197860D01*
X117512304Y-52148330D01*
X117504567Y-52141048D01*
X117387803Y-52046557D01*
X117271968Y-51989234D01*
X117145522Y-51964773D01*
X117034202Y-51965584D01*
X116862960Y-51998377D01*
X116708253Y-52069828D01*
X116571615Y-52177969D01*
X116454578Y-52320832D01*
X116358677Y-52496450D01*
X116285444Y-52702853D01*
X116236413Y-52938075D01*
X116228252Y-53000000D01*
X116214924Y-53177400D01*
X116200446Y-53177400D01*
X116200445Y-53173231D01*
X116204685Y-52998689D01*
X116218455Y-52853549D01*
X116244564Y-52724429D01*
X116285821Y-52597947D01*
X116345036Y-52460721D01*
X116354029Y-52441752D01*
X116439337Y-52297655D01*
X116547831Y-52167019D01*
X116669496Y-52060550D01*
X116765326Y-52002032D01*
X116849071Y-51969391D01*
X116945514Y-51950385D01*
X117047158Y-51942475D01*
X117190912Y-51945760D01*
X117309286Y-51972847D01*
X117415719Y-52028335D01*
X117504252Y-52098925D01*
X117554631Y-52142492D01*
X117591606Y-52170892D01*
X117603476Y-52177153D01*
X117615305Y-52158268D01*
X117628252Y-52111721D01*
X117630472Y-52100600D01*
X117661710Y-52029728D01*
X117725237Y-51984119D01*
X117822969Y-51962677D01*
X117875434Y-51960614D01*
X117988175Y-51969341D01*
X118062264Y-51995784D01*
X118098739Y-52040335D01*
X118100298Y-52045568D01*
X118123127Y-52081659D01*
X118145106Y-52090537D01*
X118178696Y-52108436D01*
X118190344Y-52128941D01*
X118189626Y-52159874D01*
X118181319Y-52227199D01*
X118166399Y-52324853D01*
X118145841Y-52446775D01*
X118120619Y-52586904D01*
X118094361Y-52725526D01*
X118065133Y-52878729D01*
X118038899Y-53020807D01*
X118016777Y-53145339D01*
X117999883Y-53245898D01*
X117989335Y-53316061D01*
X117986189Y-53347566D01*
X117990245Y-53389841D01*
X118011002Y-53407661D01*
X118061343Y-53411419D01*
X118065347Y-53411424D01*
X118161493Y-53390246D01*
X118248824Y-53326891D01*
X118327117Y-53221633D01*
X118396147Y-53074741D01*
X118411190Y-53030677D01*
X118442630Y-53030677D01*
X118446611Y-53058762D01*
X118454003Y-53059097D01*
X118459172Y-53030116D01*
X118455712Y-53017594D01*
X118446097Y-53009392D01*
X118442630Y-53030677D01*
X118411190Y-53030677D01*
X118433068Y-52966595D01*
X118441048Y-52935039D01*
X118462574Y-52935039D01*
X118470497Y-52952862D01*
X118477010Y-52949475D01*
X118479602Y-52923777D01*
X118477010Y-52920603D01*
X118464137Y-52923575D01*
X118462574Y-52935039D01*
X118441048Y-52935039D01*
X118449793Y-52900455D01*
X118461357Y-52824503D01*
X118462142Y-52814138D01*
X118485938Y-52814138D01*
X118489919Y-52842223D01*
X118497311Y-52842559D01*
X118502480Y-52813577D01*
X118499020Y-52801055D01*
X118489405Y-52792853D01*
X118485938Y-52814138D01*
X118462142Y-52814138D01*
X118468536Y-52729671D01*
X118472107Y-52606890D01*
X118472872Y-52501636D01*
X118473401Y-52165676D01*
X118402002Y-52020514D01*
X118363843Y-51946561D01*
X118329973Y-51897096D01*
X118288333Y-51860354D01*
X118226861Y-51824571D01*
X118173646Y-51797780D01*
X118002468Y-51731862D01*
X117804386Y-51686806D01*
X117590919Y-51663490D01*
X117373587Y-51662794D01*
X117163909Y-51685599D01*
X117044245Y-51711541D01*
X116817763Y-51792815D01*
X116615462Y-51908932D01*
X116438536Y-52058033D01*
X116288180Y-52238257D01*
X116165587Y-52447746D01*
X116071951Y-52684640D01*
X116008465Y-52947079D01*
X115976324Y-53233203D01*
X115972378Y-53381343D01*
X115983322Y-53614387D01*
X116016235Y-53810492D01*
X116071235Y-53970114D01*
X116148443Y-54093705D01*
X116164322Y-54111745D01*
X116265351Y-54192119D01*
X116401422Y-54256761D01*
X116566994Y-54305058D01*
X116756524Y-54336400D01*
X116964472Y-54350173D01*
X117185296Y-54345766D01*
X117413456Y-54322568D01*
X117643410Y-54279965D01*
X117657677Y-54276653D01*
X117770130Y-54251564D01*
X117848437Y-54238546D01*
X117900127Y-54237890D01*
X117932729Y-54249890D01*
X117953773Y-54274836D01*
X117960595Y-54288406D01*
X117988847Y-54328390D01*
X118015889Y-54342541D01*
X118042823Y-54352267D01*
X118060201Y-54385614D01*
X118069645Y-54448831D01*
X118072776Y-54548169D01*
X118072804Y-54561835D01*
X118070687Y-54646265D01*
X118062117Y-54700744D01*
X118043767Y-54738515D01*
X118022190Y-54763239D01*
X117960639Y-54802391D01*
X117862621Y-54837241D01*
X117734826Y-54867152D01*
X117583940Y-54891485D01*
X117416649Y-54909602D01*
X117239642Y-54920865D01*
X117059605Y-54924636D01*
X116883226Y-54920278D01*
X116717191Y-54907152D01*
X116632095Y-54895869D01*
X116369752Y-54837594D01*
X116136154Y-54748079D01*
X115928559Y-54625819D01*
X115744226Y-54469310D01*
X115636187Y-54349240D01*
X115525578Y-54195346D01*
X115442407Y-54035547D01*
X115383757Y-53861203D01*
X115346709Y-53663675D01*
X115328514Y-53438466D01*
X115330686Y-53195639D01*
X115349766Y-53195639D01*
X115350316Y-53448902D01*
X115376614Y-53688448D01*
X115427710Y-53907898D01*
X115502655Y-54100871D01*
X115566030Y-54212618D01*
X115694937Y-54369367D01*
X115858846Y-54504638D01*
X116054104Y-54616474D01*
X116277056Y-54702920D01*
X116524047Y-54762022D01*
X116619951Y-54776460D01*
X116732758Y-54785310D01*
X116875845Y-54788265D01*
X117036657Y-54785807D01*
X117202639Y-54778414D01*
X117361235Y-54766567D01*
X117499890Y-54750746D01*
X117563921Y-54740371D01*
X117700964Y-54712280D01*
X117800695Y-54683713D01*
X117868886Y-54649821D01*
X117911312Y-54605755D01*
X117933745Y-54546665D01*
X117941959Y-54467702D01*
X117942549Y-54422333D01*
X117940527Y-54343978D01*
X117930114Y-54294749D01*
X117903958Y-54270572D01*
X117854704Y-54267372D01*
X117775002Y-54281074D01*
X117712740Y-54294973D01*
X117409462Y-54351402D01*
X117123666Y-54378694D01*
X116858671Y-54376969D01*
X116617799Y-54346349D01*
X116404371Y-54286953D01*
X116303329Y-54243755D01*
X116164210Y-54161662D01*
X116053687Y-54063069D01*
X115968778Y-53942873D01*
X115906502Y-53795966D01*
X115863877Y-53617244D01*
X115842571Y-53454732D01*
X115832628Y-53179158D01*
X115855276Y-52911651D01*
X115908688Y-52656575D01*
X115991035Y-52418294D01*
X116100489Y-52201172D01*
X116235222Y-52009574D01*
X116393404Y-51847864D01*
X116567860Y-51723491D01*
X116735328Y-51640434D01*
X116912034Y-51582582D01*
X117108560Y-51547197D01*
X117305854Y-51532484D01*
X117564801Y-51534965D01*
X117790803Y-51563017D01*
X117986321Y-51617271D01*
X118153817Y-51698361D01*
X118264685Y-51779008D01*
X118356936Y-51883834D01*
X118431370Y-52021306D01*
X118485534Y-52183576D01*
X118516973Y-52362800D01*
X118523232Y-52551130D01*
X118520675Y-52597368D01*
X118516604Y-52666127D01*
X118516072Y-52708173D01*
X118519118Y-52715976D01*
X118520071Y-52713086D01*
X118541037Y-52686673D01*
X118590541Y-52675946D01*
X118618149Y-52675192D01*
X118705587Y-52675192D01*
X118691236Y-52751688D01*
X118676885Y-52828184D01*
X118774606Y-52753592D01*
X118841174Y-52708865D01*
X118905253Y-52675536D01*
X118935478Y-52665130D01*
X118973707Y-52652565D01*
X118994364Y-52628186D01*
X119005108Y-52579309D01*
X119009000Y-52543333D01*
X119012462Y-52411090D01*
X119002121Y-52258495D01*
X118980207Y-52104983D01*
X118948949Y-51969988D01*
X118939938Y-51941417D01*
X118851195Y-51744068D01*
X118727435Y-51571082D01*
X118570426Y-51423963D01*
X118381935Y-51304218D01*
X118163732Y-51213353D01*
X118045528Y-51179587D01*
X117907454Y-51153459D01*
X117740356Y-51134186D01*
X117558059Y-51122361D01*
X117374392Y-51118573D01*
X117203180Y-51123415D01*
X117058842Y-51137391D01*
X116766572Y-51200454D01*
X116498437Y-51299052D01*
X116255452Y-51432102D01*
X116038633Y-51598517D01*
X115848996Y-51797215D01*
X115687555Y-52027109D01*
X115555326Y-52287115D01*
X115453325Y-52576148D01*
X115382568Y-52893124D01*
X115375913Y-52935039D01*
X115349766Y-53195639D01*
X115330686Y-53195639D01*
X115331481Y-53106688D01*
X115369616Y-52796040D01*
X115443957Y-52500992D01*
X115555547Y-52216011D01*
X115560395Y-52205607D01*
X115697415Y-51960079D01*
X115865771Y-51738030D01*
X116061038Y-51543835D01*
X116278789Y-51381866D01*
X116514598Y-51256499D01*
X116525575Y-51251783D01*
X116746273Y-51176073D01*
X116995058Y-51122856D01*
X117262231Y-51093460D01*
X117538097Y-51089212D01*
X117663729Y-51095952D01*
G37*
D12*
%TO.C,J1*%
X75940000Y-53090000D02*
X75940000Y-60910000D01*
X75940000Y-59310000D02*
X76860000Y-59310000D01*
X75940000Y-60910000D02*
X76860000Y-60910000D01*
X76700000Y-55350000D02*
X77700000Y-55350000D01*
X76700000Y-56950000D02*
X76700000Y-55350000D01*
X76860000Y-59310000D02*
X77140000Y-59310000D01*
X76860000Y-60910000D02*
X76860000Y-59310000D01*
X77700000Y-55350000D02*
X77700000Y-56950000D01*
X77700000Y-56950000D02*
X76700000Y-56950000D01*
X78500000Y-57450000D02*
X78500000Y-53090000D01*
X79500000Y-53090000D02*
X79500000Y-57450000D01*
X79500000Y-57450000D02*
X78500000Y-57450000D01*
X80300000Y-55350000D02*
X80300000Y-53090000D01*
X80300000Y-55350000D02*
X80300000Y-56950000D01*
X80300000Y-56950000D02*
X81300000Y-56950000D01*
X80800000Y-55350000D02*
X80800000Y-53090000D01*
X80860000Y-59310000D02*
X80860000Y-60525000D01*
X80860000Y-59310000D02*
X81140000Y-59310000D01*
X81140000Y-59310000D02*
X81140000Y-60910000D01*
X81140000Y-60910000D02*
X82060000Y-60910000D01*
X81300000Y-55350000D02*
X80300000Y-55350000D01*
X81300000Y-56950000D02*
X81300000Y-55350000D01*
X82060000Y-53090000D02*
X75940000Y-53090000D01*
X82060000Y-59310000D02*
X81140000Y-59310000D01*
X82060000Y-60910000D02*
X82060000Y-53090000D01*
D14*
%TO.C,U1*%
X53480000Y-81890000D02*
X53480000Y-59190000D01*
X57980000Y-57890000D02*
X57980000Y-59190000D01*
X57980000Y-59190000D02*
X53480000Y-59190000D01*
X66980000Y-57890000D02*
X57980000Y-57890000D01*
X66980000Y-57890000D02*
X66980000Y-59190000D01*
X71480000Y-59190000D02*
X66980000Y-59190000D01*
X71480000Y-81890000D02*
X53480000Y-81890000D01*
X71480000Y-81890000D02*
X71480000Y-59190000D01*
%TD*%
M02*
