%TF.GenerationSoftware,KiCad,Pcbnew,8.0.8*%
%TF.CreationDate,2025-02-13T16:19:06+01:00*%
%TF.ProjectId,T_lecommande,54e96c65-636f-46d6-9d61-6e64652e6b69,rev?*%
%TF.SameCoordinates,Original*%
%TF.FileFunction,Drillmap*%
%TF.FilePolarity,Positive*%
%FSLAX45Y45*%
G04 Gerber Fmt 4.5, Leading zero omitted, Abs format (unit mm)*
G04 Created by KiCad (PCBNEW 8.0.8) date 2025-02-13 16:19:06*
%MOMM*%
%LPD*%
G01*
G04 APERTURE LIST*
%ADD10C,0.050000*%
%ADD11C,0.200000*%
G04 APERTURE END LIST*
D10*
X5000000Y-5000000D02*
X12770000Y-5000000D01*
X12770000Y-9000000D01*
X5000000Y-9000000D01*
X5000000Y-5000000D01*
D11*
X5258277Y-9313984D02*
X5258277Y-9113984D01*
X5258277Y-9113984D02*
X5305896Y-9113984D01*
X5305896Y-9113984D02*
X5334467Y-9123508D01*
X5334467Y-9123508D02*
X5353515Y-9142555D01*
X5353515Y-9142555D02*
X5363039Y-9161603D01*
X5363039Y-9161603D02*
X5372563Y-9199698D01*
X5372563Y-9199698D02*
X5372563Y-9228270D01*
X5372563Y-9228270D02*
X5363039Y-9266365D01*
X5363039Y-9266365D02*
X5353515Y-9285412D01*
X5353515Y-9285412D02*
X5334467Y-9304460D01*
X5334467Y-9304460D02*
X5305896Y-9313984D01*
X5305896Y-9313984D02*
X5258277Y-9313984D01*
X5458277Y-9313984D02*
X5458277Y-9180650D01*
X5458277Y-9218746D02*
X5467801Y-9199698D01*
X5467801Y-9199698D02*
X5477324Y-9190174D01*
X5477324Y-9190174D02*
X5496372Y-9180650D01*
X5496372Y-9180650D02*
X5515420Y-9180650D01*
X5582086Y-9313984D02*
X5582086Y-9180650D01*
X5582086Y-9113984D02*
X5572563Y-9123508D01*
X5572563Y-9123508D02*
X5582086Y-9133031D01*
X5582086Y-9133031D02*
X5591610Y-9123508D01*
X5591610Y-9123508D02*
X5582086Y-9113984D01*
X5582086Y-9113984D02*
X5582086Y-9133031D01*
X5705896Y-9313984D02*
X5686848Y-9304460D01*
X5686848Y-9304460D02*
X5677324Y-9285412D01*
X5677324Y-9285412D02*
X5677324Y-9113984D01*
X5810658Y-9313984D02*
X5791610Y-9304460D01*
X5791610Y-9304460D02*
X5782086Y-9285412D01*
X5782086Y-9285412D02*
X5782086Y-9113984D01*
X6039229Y-9313984D02*
X6039229Y-9113984D01*
X6039229Y-9113984D02*
X6105896Y-9256841D01*
X6105896Y-9256841D02*
X6172562Y-9113984D01*
X6172562Y-9113984D02*
X6172562Y-9313984D01*
X6353515Y-9313984D02*
X6353515Y-9209222D01*
X6353515Y-9209222D02*
X6343991Y-9190174D01*
X6343991Y-9190174D02*
X6324943Y-9180650D01*
X6324943Y-9180650D02*
X6286848Y-9180650D01*
X6286848Y-9180650D02*
X6267801Y-9190174D01*
X6353515Y-9304460D02*
X6334467Y-9313984D01*
X6334467Y-9313984D02*
X6286848Y-9313984D01*
X6286848Y-9313984D02*
X6267801Y-9304460D01*
X6267801Y-9304460D02*
X6258277Y-9285412D01*
X6258277Y-9285412D02*
X6258277Y-9266365D01*
X6258277Y-9266365D02*
X6267801Y-9247317D01*
X6267801Y-9247317D02*
X6286848Y-9237793D01*
X6286848Y-9237793D02*
X6334467Y-9237793D01*
X6334467Y-9237793D02*
X6353515Y-9228270D01*
X6448753Y-9180650D02*
X6448753Y-9380650D01*
X6448753Y-9190174D02*
X6467801Y-9180650D01*
X6467801Y-9180650D02*
X6505896Y-9180650D01*
X6505896Y-9180650D02*
X6524943Y-9190174D01*
X6524943Y-9190174D02*
X6534467Y-9199698D01*
X6534467Y-9199698D02*
X6543991Y-9218746D01*
X6543991Y-9218746D02*
X6543991Y-9275889D01*
X6543991Y-9275889D02*
X6534467Y-9294936D01*
X6534467Y-9294936D02*
X6524943Y-9304460D01*
X6524943Y-9304460D02*
X6505896Y-9313984D01*
X6505896Y-9313984D02*
X6467801Y-9313984D01*
X6467801Y-9313984D02*
X6448753Y-9304460D01*
X6629705Y-9294936D02*
X6639229Y-9304460D01*
X6639229Y-9304460D02*
X6629705Y-9313984D01*
X6629705Y-9313984D02*
X6620182Y-9304460D01*
X6620182Y-9304460D02*
X6629705Y-9294936D01*
X6629705Y-9294936D02*
X6629705Y-9313984D01*
X6629705Y-9190174D02*
X6639229Y-9199698D01*
X6639229Y-9199698D02*
X6629705Y-9209222D01*
X6629705Y-9209222D02*
X6620182Y-9199698D01*
X6620182Y-9199698D02*
X6629705Y-9190174D01*
X6629705Y-9190174D02*
X6629705Y-9209222D01*
M02*
