%TF.GenerationSoftware,KiCad,Pcbnew,8.0.8*%
%TF.CreationDate,2025-02-18T09:32:00+01:00*%
%TF.ProjectId,T_lecommande,54e96c65-636f-46d6-9d61-6e64652e6b69,rev?*%
%TF.SameCoordinates,Original*%
%TF.FileFunction,Copper,L1,Top*%
%TF.FilePolarity,Positive*%
%FSLAX46Y46*%
G04 Gerber Fmt 4.6, Leading zero omitted, Abs format (unit mm)*
G04 Created by KiCad (PCBNEW 8.0.8) date 2025-02-18 09:32:00*
%MOMM*%
%LPD*%
G01*
G04 APERTURE LIST*
G04 Aperture macros list*
%AMRoundRect*
0 Rectangle with rounded corners*
0 $1 Rounding radius*
0 $2 $3 $4 $5 $6 $7 $8 $9 X,Y pos of 4 corners*
0 Add a 4 corners polygon primitive as box body*
4,1,4,$2,$3,$4,$5,$6,$7,$8,$9,$2,$3,0*
0 Add four circle primitives for the rounded corners*
1,1,$1+$1,$2,$3*
1,1,$1+$1,$4,$5*
1,1,$1+$1,$6,$7*
1,1,$1+$1,$8,$9*
0 Add four rect primitives between the rounded corners*
20,1,$1+$1,$2,$3,$4,$5,0*
20,1,$1+$1,$4,$5,$6,$7,0*
20,1,$1+$1,$6,$7,$8,$9,0*
20,1,$1+$1,$8,$9,$2,$3,0*%
G04 Aperture macros list end*
%TA.AperFunction,ComponentPad*%
%ADD10C,2.000000*%
%TD*%
%TA.AperFunction,ComponentPad*%
%ADD11R,1.560000X1.560000*%
%TD*%
%TA.AperFunction,ComponentPad*%
%ADD12C,1.560000*%
%TD*%
%TA.AperFunction,ComponentPad*%
%ADD13O,2.200000X3.500000*%
%TD*%
%TA.AperFunction,ComponentPad*%
%ADD14R,1.500000X2.500000*%
%TD*%
%TA.AperFunction,ComponentPad*%
%ADD15O,1.500000X2.500000*%
%TD*%
%TA.AperFunction,ComponentPad*%
%ADD16RoundRect,0.250000X0.350000X0.625000X-0.350000X0.625000X-0.350000X-0.625000X0.350000X-0.625000X0*%
%TD*%
%TA.AperFunction,ComponentPad*%
%ADD17O,1.200000X1.750000*%
%TD*%
%TA.AperFunction,SMDPad,CuDef*%
%ADD18R,6.000000X1.905000*%
%TD*%
%TA.AperFunction,ViaPad*%
%ADD19C,0.600000*%
%TD*%
%TA.AperFunction,Conductor*%
%ADD20C,0.800000*%
%TD*%
%TA.AperFunction,Conductor*%
%ADD21C,1.000000*%
%TD*%
G04 APERTURE END LIST*
D10*
%TO.P,R1,1,V+*%
%TO.N,Net-(R1-V+)*%
X86900000Y-68700000D03*
%TO.P,R1,2,V*%
%TO.N,Net-(R1-V)*%
X86900000Y-71200000D03*
%TO.P,R1,3,V-*%
%TO.N,GND*%
X86900000Y-73700000D03*
%TO.P,R1,4,H+*%
X93600000Y-80400000D03*
%TO.P,R1,5,H*%
%TO.N,Net-(R1-H)*%
X96100000Y-80400000D03*
%TO.P,R1,6,H+*%
%TO.N,Net-(R1-H+-Pad6)*%
X98600000Y-80400000D03*
%TO.P,R1,7,SEL+*%
%TO.N,unconnected-(R1-SEL+-Pad7)*%
X99200000Y-65700000D03*
%TO.P,R1,8,SEL-*%
%TO.N,3V3*%
X93000000Y-65700000D03*
%TO.P,R1,9,SEL+*%
%TO.N,unconnected-(R1-SEL+-Pad9)*%
X99200000Y-61350000D03*
%TO.P,R1,10,SEL-*%
%TO.N,Net-(U1-GPIO2)*%
X93000000Y-61350000D03*
%TO.P,R1,11,MP*%
%TO.N,GND*%
X89650000Y-76200000D03*
%TO.P,R1,12,MP*%
%TO.N,unconnected-(R1-MP-Pad12)*%
X102550000Y-76200000D03*
%TO.P,R1,13,MP*%
%TO.N,unconnected-(R1-MP-Pad13)*%
X89650000Y-66200000D03*
%TO.P,R1,14,MP*%
%TO.N,GND*%
X102550000Y-66200000D03*
%TD*%
D11*
%TO.P,RV2,1,1*%
%TO.N,unconnected-(RV2-Pad1)*%
X114600000Y-78020000D03*
D12*
%TO.P,RV2,2,2*%
%TO.N,Net-(R1-H+-Pad6)*%
X117100000Y-83020000D03*
%TO.P,RV2,3,3*%
%TO.N,3V3*%
X119600000Y-78020000D03*
%TD*%
D13*
%TO.P,SW1,*%
%TO.N,*%
X61900000Y-53700000D03*
X70100000Y-53700000D03*
D14*
%TO.P,SW1,1,A*%
%TO.N,5V*%
X64000000Y-53700000D03*
D15*
%TO.P,SW1,2,B*%
%TO.N,Net-(J1-Pin_1)*%
X66000000Y-53700000D03*
%TO.P,SW1,3,C*%
%TO.N,unconnected-(SW1A-C-Pad3)*%
X68000000Y-53700000D03*
%TD*%
D11*
%TO.P,RV1,1,1*%
%TO.N,3V3*%
X114600000Y-65020000D03*
D12*
%TO.P,RV1,2,2*%
%TO.N,Net-(R1-V+)*%
X117100000Y-70020000D03*
%TO.P,RV1,3,3*%
%TO.N,unconnected-(RV1-Pad3)*%
X119600000Y-65020000D03*
%TD*%
D16*
%TO.P,J1,1,Pin_1*%
%TO.N,Net-(J1-Pin_1)*%
X80000000Y-59450000D03*
D17*
%TO.P,J1,2,Pin_2*%
%TO.N,GND*%
X78000000Y-59450000D03*
%TD*%
D18*
%TO.P,U1,0,GPIO0*%
%TO.N,Net-(R1-H)*%
X70100000Y-78420000D03*
%TO.P,U1,1,GPIO1*%
%TO.N,Net-(R1-V)*%
X70100000Y-75880000D03*
%TO.P,U1,2,GPIO2*%
%TO.N,Net-(U1-GPIO2)*%
X70100000Y-73340000D03*
%TO.P,U1,3,GPIO3*%
%TO.N,unconnected-(U1-GPIO3-Pad3)*%
X70100000Y-70800000D03*
%TO.P,U1,3.3,3V3*%
%TO.N,3V3*%
X70100000Y-65720000D03*
%TO.P,U1,4,GPIO4*%
%TO.N,GND*%
X70100000Y-68260000D03*
%TO.P,U1,5,GPIO5*%
%TO.N,unconnected-(U1-GPIO5-Pad5)*%
X54860000Y-60640000D03*
%TO.P,U1,5V,5V*%
%TO.N,5V*%
X70100000Y-60640000D03*
%TO.P,U1,6,GPIO6*%
%TO.N,unconnected-(U1-GPIO6-Pad6)*%
X54860000Y-63180000D03*
%TO.P,U1,7,GPIO7*%
%TO.N,unconnected-(U1-GPIO7-Pad7)*%
X54860000Y-65720000D03*
%TO.P,U1,8,GPIO8*%
%TO.N,unconnected-(U1-GPIO8-Pad8)*%
X54860000Y-68260000D03*
%TO.P,U1,9,GPIO9*%
%TO.N,unconnected-(U1-GPIO9-Pad9)*%
X54860000Y-70800000D03*
%TO.P,U1,10,GPIO10*%
%TO.N,unconnected-(U1-GPIO10-Pad10)*%
X54860000Y-73340000D03*
%TO.P,U1,20,GPIO20*%
%TO.N,unconnected-(U1-GPIO20-Pad20)*%
X54860000Y-75880000D03*
%TO.P,U1,21,GPIO21*%
%TO.N,unconnected-(U1-GPIO21-Pad21)*%
X54860000Y-78420000D03*
%TO.P,U1,G,GND*%
%TO.N,GND*%
X70100000Y-63180000D03*
%TD*%
D19*
%TO.N,GND*%
X66000000Y-63200000D03*
X65600000Y-68200000D03*
%TD*%
D20*
%TO.N,Net-(R1-V+)*%
X86900000Y-68700000D02*
X115780000Y-68700000D01*
X115780000Y-68700000D02*
X117100000Y-70020000D01*
%TO.N,Net-(U1-GPIO2)*%
X123500000Y-62000000D02*
X117500000Y-56000000D01*
X70100000Y-73340000D02*
X67487500Y-73340000D01*
X72000000Y-85500000D02*
X123500000Y-85500000D01*
X67487500Y-73340000D02*
X66500000Y-74327500D01*
X98350000Y-56000000D02*
X93000000Y-61350000D01*
X117500000Y-56000000D02*
X98350000Y-56000000D01*
X123500000Y-85500000D02*
X123500000Y-62000000D01*
X66500000Y-74327500D02*
X66500000Y-80000000D01*
X66500000Y-80000000D02*
X72000000Y-85500000D01*
%TO.N,Net-(R1-V)*%
X83700000Y-71200000D02*
X86900000Y-71200000D01*
X70100000Y-75880000D02*
X79020000Y-75880000D01*
X79020000Y-75880000D02*
X83700000Y-71200000D01*
%TO.N,Net-(R1-H)*%
X77100000Y-83500000D02*
X95000000Y-83500000D01*
X95000000Y-83500000D02*
X96100000Y-82400000D01*
X72020000Y-78420000D02*
X77100000Y-83500000D01*
X96100000Y-82400000D02*
X96100000Y-80400000D01*
X70100000Y-78420000D02*
X72020000Y-78420000D01*
%TO.N,Net-(R1-H+-Pad6)*%
X98600000Y-80400000D02*
X114480000Y-80400000D01*
X114480000Y-80400000D02*
X117100000Y-83020000D01*
D21*
X116940000Y-82860000D02*
X117100000Y-83020000D01*
%TO.N,3V3*%
X119600000Y-68560000D02*
X119600000Y-78020000D01*
D20*
X83900000Y-63800000D02*
X91100000Y-63800000D01*
X93000000Y-65700000D02*
X95100000Y-63600000D01*
D21*
X114600000Y-65020000D02*
X116060000Y-65020000D01*
D20*
X70100000Y-65720000D02*
X81980000Y-65720000D01*
X111400000Y-63600000D02*
X112820000Y-65020000D01*
X114600000Y-65020000D02*
X113840000Y-64260000D01*
D21*
X116060000Y-65020000D02*
X119600000Y-68560000D01*
D20*
X112820000Y-65020000D02*
X114600000Y-65020000D01*
X81980000Y-65720000D02*
X83900000Y-63800000D01*
X95100000Y-63600000D02*
X111400000Y-63600000D01*
X91100000Y-63800000D02*
X93000000Y-65700000D01*
%TO.N,5V*%
X64000000Y-53700000D02*
X64000000Y-56587500D01*
X63600000Y-54109188D02*
X63600000Y-53700000D01*
X63600000Y-54200000D02*
X63600000Y-53700000D01*
X63600000Y-53290812D02*
X63600000Y-53700000D01*
X64000000Y-56587500D02*
X68052500Y-60640000D01*
X68052500Y-60640000D02*
X70100000Y-60640000D01*
%TO.N,GND*%
X70100000Y-68260000D02*
X65660000Y-68260000D01*
X66020000Y-63180000D02*
X66000000Y-63200000D01*
X70100000Y-63180000D02*
X66020000Y-63180000D01*
X74270000Y-63180000D02*
X78000000Y-59450000D01*
X65660000Y-68260000D02*
X65600000Y-68200000D01*
X70100000Y-63180000D02*
X74270000Y-63180000D01*
%TO.N,Net-(J1-Pin_1)*%
X66690812Y-57200000D02*
X66000000Y-56509188D01*
X66000000Y-56509188D02*
X66000000Y-53700000D01*
X80000000Y-59450000D02*
X80000000Y-57200000D01*
X80000000Y-57200000D02*
X66690812Y-57200000D01*
%TD*%
M02*
