M48
; DRILL file {KiCad 9.0.0} date 2025-03-09T22:47:09+0100
; FORMAT={-:-/ absolute / inch / decimal}
; #@! TF.CreationDate,2025-03-09T22:47:09+01:00
; #@! TF.GenerationSoftware,Kicad,Pcbnew,9.0.0
; #@! TF.FileFunction,Plated,1,2,PTH
FMAT,2
INCH
; #@! TA.AperFunction,Plated,PTH,ComponentDrill
T1C0.0300
; #@! TA.AperFunction,Plated,PTH,ComponentDrill
T2C0.0315
; #@! TA.AperFunction,Plated,PTH,ComponentDrill
T3C0.0394
%
G90
G05
T1
X8.0775Y-2.2281
X8.1562Y-2.2281
X8.2349Y-2.2281
X8.3137Y-2.2281
T2
X6.8311Y-2.7004
X6.8311Y-3.0004
X6.9311Y-2.7004
X6.9311Y-3.0004
X7.0311Y-2.7004
X7.0311Y-3.0004
X7.1126Y-3.2008
X7.1311Y-2.7004
X7.1311Y-3.0004
X7.1457Y-2.4941
X7.2126Y-3.2008
X7.2311Y-2.7004
X7.2311Y-3.0004
X7.2457Y-2.4941
X7.3311Y-2.7004
X7.3311Y-3.0004
X7.4311Y-2.7004
X7.4311Y-3.0004
X7.4409Y-2.1362
X7.4409Y-2.2362
X7.4409Y-2.3362
X7.5311Y-2.7004
X7.5311Y-3.0004
X7.6598Y-2.2323
X7.7598Y-2.2323
X8.2449Y-2.585
X8.2449Y-3.185
X8.3449Y-2.585
X8.3449Y-3.185
X8.4449Y-3.185
X8.7449Y-2.585
X8.8449Y-2.585
X8.8449Y-3.185
X8.9449Y-2.585
X8.9449Y-3.185
T3
X7.5669Y-2.5591
X7.9409Y-2.437
X8.0394Y-2.5591
X8.4134Y-2.437
X8.5276Y-2.4409
X9.0Y-2.4409
M30
