%TF.GenerationSoftware,KiCad,Pcbnew,9.0.0*%
%TF.CreationDate,2025-03-09T22:47:05+01:00*%
%TF.ProjectId,Kicad,4b696361-642e-46b6-9963-61645f706362,rev?*%
%TF.SameCoordinates,Original*%
%TF.FileFunction,Soldermask,Top*%
%TF.FilePolarity,Negative*%
%FSLAX46Y46*%
G04 Gerber Fmt 4.6, Leading zero omitted, Abs format (unit mm)*
G04 Created by KiCad (PCBNEW 9.0.0) date 2025-03-09 22:47:05*
%MOMM*%
%LPD*%
G01*
G04 APERTURE LIST*
%ADD10C,2.000000*%
%ADD11C,2.540000*%
%ADD12R,1.524000X1.524000*%
%ADD13C,1.524000*%
G04 APERTURE END LIST*
D10*
%TO.C,U2*%
X173510000Y-76210000D03*
X176050000Y-76210000D03*
X178590000Y-76210000D03*
X181130000Y-76210000D03*
X183670000Y-76210000D03*
X186210000Y-76210000D03*
X188750000Y-76210000D03*
X191290000Y-76210000D03*
X191290000Y-68590000D03*
X188750000Y-68590000D03*
X186210000Y-68590000D03*
X183670000Y-68590000D03*
X181130000Y-68590000D03*
X178590000Y-68590000D03*
X176050000Y-68590000D03*
X173510000Y-68590000D03*
%TD*%
D11*
%TO.C,D1*%
X213700000Y-61900000D03*
X201700000Y-61900000D03*
%TD*%
D10*
%TO.C,J2*%
X183200000Y-81300000D03*
X180660000Y-81300000D03*
%TD*%
D11*
%TO.C,R1*%
X204200000Y-65000000D03*
X192200000Y-65000000D03*
%TD*%
D12*
%TO.C,J4*%
X205167500Y-56592500D03*
D13*
X207167500Y-56592500D03*
X209167500Y-56592500D03*
X211167500Y-56592500D03*
%TD*%
D11*
%TO.C,D2*%
X216600000Y-62000000D03*
X228600000Y-62000000D03*
%TD*%
D10*
%TO.C,U1*%
X227200000Y-80900000D03*
X224660000Y-80900000D03*
X214500000Y-80900000D03*
X211960000Y-80900000D03*
X209420000Y-80900000D03*
X227200000Y-65660000D03*
X224660000Y-65660000D03*
X222120000Y-65660000D03*
X211960000Y-65660000D03*
X209420000Y-65660000D03*
%TD*%
%TO.C,SW1*%
X189000000Y-54260000D03*
X189000000Y-56800000D03*
X189000000Y-59340000D03*
%TD*%
%TO.C,J3*%
X197100000Y-56700000D03*
X194560000Y-56700000D03*
%TD*%
%TO.C,J1*%
X181500000Y-63350000D03*
X184040000Y-63350000D03*
%TD*%
M02*
