%TF.GenerationSoftware,KiCad,Pcbnew,9.0.0*%
%TF.CreationDate,2025-03-09T22:47:05+01:00*%
%TF.ProjectId,Kicad,4b696361-642e-46b6-9963-61645f706362,rev?*%
%TF.SameCoordinates,Original*%
%TF.FileFunction,Legend,Top*%
%TF.FilePolarity,Positive*%
%FSLAX46Y46*%
G04 Gerber Fmt 4.6, Leading zero omitted, Abs format (unit mm)*
G04 Created by KiCad (PCBNEW 9.0.0) date 2025-03-09 22:47:05*
%MOMM*%
%LPD*%
G01*
G04 APERTURE LIST*
%ADD10C,0.100000*%
%ADD11C,0.150000*%
%ADD12C,0.120000*%
%ADD13C,0.200000*%
G04 APERTURE END LIST*
D10*
X206961905Y-62357419D02*
X206961905Y-61357419D01*
X206961905Y-61357419D02*
X207200000Y-61357419D01*
X207200000Y-61357419D02*
X207342857Y-61405038D01*
X207342857Y-61405038D02*
X207438095Y-61500276D01*
X207438095Y-61500276D02*
X207485714Y-61595514D01*
X207485714Y-61595514D02*
X207533333Y-61785990D01*
X207533333Y-61785990D02*
X207533333Y-61928847D01*
X207533333Y-61928847D02*
X207485714Y-62119323D01*
X207485714Y-62119323D02*
X207438095Y-62214561D01*
X207438095Y-62214561D02*
X207342857Y-62309800D01*
X207342857Y-62309800D02*
X207200000Y-62357419D01*
X207200000Y-62357419D02*
X206961905Y-62357419D01*
X208485714Y-62357419D02*
X207914286Y-62357419D01*
X208200000Y-62357419D02*
X208200000Y-61357419D01*
X208200000Y-61357419D02*
X208104762Y-61500276D01*
X208104762Y-61500276D02*
X208009524Y-61595514D01*
X208009524Y-61595514D02*
X207914286Y-61643133D01*
X179257419Y-79333333D02*
X179971704Y-79333333D01*
X179971704Y-79333333D02*
X180114561Y-79380952D01*
X180114561Y-79380952D02*
X180209800Y-79476190D01*
X180209800Y-79476190D02*
X180257419Y-79619047D01*
X180257419Y-79619047D02*
X180257419Y-79714285D01*
X179352657Y-78904761D02*
X179305038Y-78857142D01*
X179305038Y-78857142D02*
X179257419Y-78761904D01*
X179257419Y-78761904D02*
X179257419Y-78523809D01*
X179257419Y-78523809D02*
X179305038Y-78428571D01*
X179305038Y-78428571D02*
X179352657Y-78380952D01*
X179352657Y-78380952D02*
X179447895Y-78333333D01*
X179447895Y-78333333D02*
X179543133Y-78333333D01*
X179543133Y-78333333D02*
X179685990Y-78380952D01*
X179685990Y-78380952D02*
X180257419Y-78952380D01*
X180257419Y-78952380D02*
X180257419Y-78333333D01*
X198533333Y-65457419D02*
X198200000Y-64981228D01*
X197961905Y-65457419D02*
X197961905Y-64457419D01*
X197961905Y-64457419D02*
X198342857Y-64457419D01*
X198342857Y-64457419D02*
X198438095Y-64505038D01*
X198438095Y-64505038D02*
X198485714Y-64552657D01*
X198485714Y-64552657D02*
X198533333Y-64647895D01*
X198533333Y-64647895D02*
X198533333Y-64790752D01*
X198533333Y-64790752D02*
X198485714Y-64885990D01*
X198485714Y-64885990D02*
X198438095Y-64933609D01*
X198438095Y-64933609D02*
X198342857Y-64981228D01*
X198342857Y-64981228D02*
X197961905Y-64981228D01*
X199485714Y-65457419D02*
X198914286Y-65457419D01*
X199200000Y-65457419D02*
X199200000Y-64457419D01*
X199200000Y-64457419D02*
X199104762Y-64600276D01*
X199104762Y-64600276D02*
X199009524Y-64695514D01*
X199009524Y-64695514D02*
X198914286Y-64743133D01*
D11*
X200966666Y-57954819D02*
X200966666Y-58669104D01*
X200966666Y-58669104D02*
X200919047Y-58811961D01*
X200919047Y-58811961D02*
X200823809Y-58907200D01*
X200823809Y-58907200D02*
X200680952Y-58954819D01*
X200680952Y-58954819D02*
X200585714Y-58954819D01*
X201871428Y-58288152D02*
X201871428Y-58954819D01*
X201633333Y-57907200D02*
X201395238Y-58621485D01*
X201395238Y-58621485D02*
X202014285Y-58621485D01*
D10*
X221361905Y-62457419D02*
X221361905Y-61457419D01*
X221361905Y-61457419D02*
X221600000Y-61457419D01*
X221600000Y-61457419D02*
X221742857Y-61505038D01*
X221742857Y-61505038D02*
X221838095Y-61600276D01*
X221838095Y-61600276D02*
X221885714Y-61695514D01*
X221885714Y-61695514D02*
X221933333Y-61885990D01*
X221933333Y-61885990D02*
X221933333Y-62028847D01*
X221933333Y-62028847D02*
X221885714Y-62219323D01*
X221885714Y-62219323D02*
X221838095Y-62314561D01*
X221838095Y-62314561D02*
X221742857Y-62409800D01*
X221742857Y-62409800D02*
X221600000Y-62457419D01*
X221600000Y-62457419D02*
X221361905Y-62457419D01*
X222314286Y-61552657D02*
X222361905Y-61505038D01*
X222361905Y-61505038D02*
X222457143Y-61457419D01*
X222457143Y-61457419D02*
X222695238Y-61457419D01*
X222695238Y-61457419D02*
X222790476Y-61505038D01*
X222790476Y-61505038D02*
X222838095Y-61552657D01*
X222838095Y-61552657D02*
X222885714Y-61647895D01*
X222885714Y-61647895D02*
X222885714Y-61743133D01*
X222885714Y-61743133D02*
X222838095Y-61885990D01*
X222838095Y-61885990D02*
X222266667Y-62457419D01*
X222266667Y-62457419D02*
X222885714Y-62457419D01*
X217484961Y-67757693D02*
X217532580Y-67662455D01*
X217532580Y-67662455D02*
X217532580Y-67519598D01*
X217532580Y-67519598D02*
X217484961Y-67376741D01*
X217484961Y-67376741D02*
X217389723Y-67281503D01*
X217389723Y-67281503D02*
X217294485Y-67233884D01*
X217294485Y-67233884D02*
X217104009Y-67186265D01*
X217104009Y-67186265D02*
X216961152Y-67186265D01*
X216961152Y-67186265D02*
X216770676Y-67233884D01*
X216770676Y-67233884D02*
X216675438Y-67281503D01*
X216675438Y-67281503D02*
X216580200Y-67376741D01*
X216580200Y-67376741D02*
X216532580Y-67519598D01*
X216532580Y-67519598D02*
X216532580Y-67614836D01*
X216532580Y-67614836D02*
X216580200Y-67757693D01*
X216580200Y-67757693D02*
X216627819Y-67805312D01*
X216627819Y-67805312D02*
X216961152Y-67805312D01*
X216961152Y-67805312D02*
X216961152Y-67614836D01*
X216532580Y-68233884D02*
X217532580Y-68233884D01*
X217532580Y-68233884D02*
X217532580Y-68614836D01*
X217532580Y-68614836D02*
X217484961Y-68710074D01*
X217484961Y-68710074D02*
X217437342Y-68757693D01*
X217437342Y-68757693D02*
X217342104Y-68805312D01*
X217342104Y-68805312D02*
X217199247Y-68805312D01*
X217199247Y-68805312D02*
X217104009Y-68757693D01*
X217104009Y-68757693D02*
X217056390Y-68710074D01*
X217056390Y-68710074D02*
X217008771Y-68614836D01*
X217008771Y-68614836D02*
X217008771Y-68233884D01*
X216532580Y-69233884D02*
X217532580Y-69233884D01*
X217532580Y-69900550D02*
X217532580Y-70091026D01*
X217532580Y-70091026D02*
X217484961Y-70186264D01*
X217484961Y-70186264D02*
X217389723Y-70281502D01*
X217389723Y-70281502D02*
X217199247Y-70329121D01*
X217199247Y-70329121D02*
X216865914Y-70329121D01*
X216865914Y-70329121D02*
X216675438Y-70281502D01*
X216675438Y-70281502D02*
X216580200Y-70186264D01*
X216580200Y-70186264D02*
X216532580Y-70091026D01*
X216532580Y-70091026D02*
X216532580Y-69900550D01*
X216532580Y-69900550D02*
X216580200Y-69805312D01*
X216580200Y-69805312D02*
X216675438Y-69710074D01*
X216675438Y-69710074D02*
X216865914Y-69662455D01*
X216865914Y-69662455D02*
X217199247Y-69662455D01*
X217199247Y-69662455D02*
X217389723Y-69710074D01*
X217389723Y-69710074D02*
X217484961Y-69805312D01*
X217484961Y-69805312D02*
X217532580Y-69900550D01*
X216532580Y-70805312D02*
X216532580Y-70995788D01*
X216532580Y-70995788D02*
X216580200Y-71091026D01*
X216580200Y-71091026D02*
X216627819Y-71138645D01*
X216627819Y-71138645D02*
X216770676Y-71233883D01*
X216770676Y-71233883D02*
X216961152Y-71281502D01*
X216961152Y-71281502D02*
X217342104Y-71281502D01*
X217342104Y-71281502D02*
X217437342Y-71233883D01*
X217437342Y-71233883D02*
X217484961Y-71186264D01*
X217484961Y-71186264D02*
X217532580Y-71091026D01*
X217532580Y-71091026D02*
X217532580Y-70900550D01*
X217532580Y-70900550D02*
X217484961Y-70805312D01*
X217484961Y-70805312D02*
X217437342Y-70757693D01*
X217437342Y-70757693D02*
X217342104Y-70710074D01*
X217342104Y-70710074D02*
X217104009Y-70710074D01*
X217104009Y-70710074D02*
X217008771Y-70757693D01*
X217008771Y-70757693D02*
X216961152Y-70805312D01*
X216961152Y-70805312D02*
X216913533Y-70900550D01*
X216913533Y-70900550D02*
X216913533Y-71091026D01*
X216913533Y-71091026D02*
X216961152Y-71186264D01*
X216961152Y-71186264D02*
X217008771Y-71233883D01*
X217008771Y-71233883D02*
X217104009Y-71281502D01*
X227692580Y-78505074D02*
X227692580Y-78028884D01*
X227692580Y-78028884D02*
X227216390Y-77981265D01*
X227216390Y-77981265D02*
X227264009Y-78028884D01*
X227264009Y-78028884D02*
X227311628Y-78124122D01*
X227311628Y-78124122D02*
X227311628Y-78362217D01*
X227311628Y-78362217D02*
X227264009Y-78457455D01*
X227264009Y-78457455D02*
X227216390Y-78505074D01*
X227216390Y-78505074D02*
X227121152Y-78552693D01*
X227121152Y-78552693D02*
X226883057Y-78552693D01*
X226883057Y-78552693D02*
X226787819Y-78505074D01*
X226787819Y-78505074D02*
X226740200Y-78457455D01*
X226740200Y-78457455D02*
X226692580Y-78362217D01*
X226692580Y-78362217D02*
X226692580Y-78124122D01*
X226692580Y-78124122D02*
X226740200Y-78028884D01*
X226740200Y-78028884D02*
X226787819Y-77981265D01*
X227692580Y-78838408D02*
X226692580Y-79171741D01*
X226692580Y-79171741D02*
X227692580Y-79505074D01*
X222564961Y-67757693D02*
X222612580Y-67662455D01*
X222612580Y-67662455D02*
X222612580Y-67519598D01*
X222612580Y-67519598D02*
X222564961Y-67376741D01*
X222564961Y-67376741D02*
X222469723Y-67281503D01*
X222469723Y-67281503D02*
X222374485Y-67233884D01*
X222374485Y-67233884D02*
X222184009Y-67186265D01*
X222184009Y-67186265D02*
X222041152Y-67186265D01*
X222041152Y-67186265D02*
X221850676Y-67233884D01*
X221850676Y-67233884D02*
X221755438Y-67281503D01*
X221755438Y-67281503D02*
X221660200Y-67376741D01*
X221660200Y-67376741D02*
X221612580Y-67519598D01*
X221612580Y-67519598D02*
X221612580Y-67614836D01*
X221612580Y-67614836D02*
X221660200Y-67757693D01*
X221660200Y-67757693D02*
X221707819Y-67805312D01*
X221707819Y-67805312D02*
X222041152Y-67805312D01*
X222041152Y-67805312D02*
X222041152Y-67614836D01*
X221612580Y-68233884D02*
X222612580Y-68233884D01*
X222612580Y-68233884D02*
X222612580Y-68614836D01*
X222612580Y-68614836D02*
X222564961Y-68710074D01*
X222564961Y-68710074D02*
X222517342Y-68757693D01*
X222517342Y-68757693D02*
X222422104Y-68805312D01*
X222422104Y-68805312D02*
X222279247Y-68805312D01*
X222279247Y-68805312D02*
X222184009Y-68757693D01*
X222184009Y-68757693D02*
X222136390Y-68710074D01*
X222136390Y-68710074D02*
X222088771Y-68614836D01*
X222088771Y-68614836D02*
X222088771Y-68233884D01*
X221612580Y-69233884D02*
X222612580Y-69233884D01*
X222612580Y-69900550D02*
X222612580Y-70091026D01*
X222612580Y-70091026D02*
X222564961Y-70186264D01*
X222564961Y-70186264D02*
X222469723Y-70281502D01*
X222469723Y-70281502D02*
X222279247Y-70329121D01*
X222279247Y-70329121D02*
X221945914Y-70329121D01*
X221945914Y-70329121D02*
X221755438Y-70281502D01*
X221755438Y-70281502D02*
X221660200Y-70186264D01*
X221660200Y-70186264D02*
X221612580Y-70091026D01*
X221612580Y-70091026D02*
X221612580Y-69900550D01*
X221612580Y-69900550D02*
X221660200Y-69805312D01*
X221660200Y-69805312D02*
X221755438Y-69710074D01*
X221755438Y-69710074D02*
X221945914Y-69662455D01*
X221945914Y-69662455D02*
X222279247Y-69662455D01*
X222279247Y-69662455D02*
X222469723Y-69710074D01*
X222469723Y-69710074D02*
X222564961Y-69805312D01*
X222564961Y-69805312D02*
X222612580Y-69900550D01*
X222612580Y-70662455D02*
X222612580Y-71329121D01*
X222612580Y-71329121D02*
X221612580Y-70900550D01*
X222612580Y-76663646D02*
X222612580Y-77282693D01*
X222612580Y-77282693D02*
X222231628Y-76949360D01*
X222231628Y-76949360D02*
X222231628Y-77092217D01*
X222231628Y-77092217D02*
X222184009Y-77187455D01*
X222184009Y-77187455D02*
X222136390Y-77235074D01*
X222136390Y-77235074D02*
X222041152Y-77282693D01*
X222041152Y-77282693D02*
X221803057Y-77282693D01*
X221803057Y-77282693D02*
X221707819Y-77235074D01*
X221707819Y-77235074D02*
X221660200Y-77187455D01*
X221660200Y-77187455D02*
X221612580Y-77092217D01*
X221612580Y-77092217D02*
X221612580Y-76806503D01*
X221612580Y-76806503D02*
X221660200Y-76711265D01*
X221660200Y-76711265D02*
X221707819Y-76663646D01*
X221707819Y-77711265D02*
X221660200Y-77758884D01*
X221660200Y-77758884D02*
X221612580Y-77711265D01*
X221612580Y-77711265D02*
X221660200Y-77663646D01*
X221660200Y-77663646D02*
X221707819Y-77711265D01*
X221707819Y-77711265D02*
X221612580Y-77711265D01*
X222612580Y-78092217D02*
X222612580Y-78711264D01*
X222612580Y-78711264D02*
X222231628Y-78377931D01*
X222231628Y-78377931D02*
X222231628Y-78520788D01*
X222231628Y-78520788D02*
X222184009Y-78616026D01*
X222184009Y-78616026D02*
X222136390Y-78663645D01*
X222136390Y-78663645D02*
X222041152Y-78711264D01*
X222041152Y-78711264D02*
X221803057Y-78711264D01*
X221803057Y-78711264D02*
X221707819Y-78663645D01*
X221707819Y-78663645D02*
X221660200Y-78616026D01*
X221660200Y-78616026D02*
X221612580Y-78520788D01*
X221612580Y-78520788D02*
X221612580Y-78235074D01*
X221612580Y-78235074D02*
X221660200Y-78139836D01*
X221660200Y-78139836D02*
X221707819Y-78092217D01*
X222612580Y-78996979D02*
X221612580Y-79330312D01*
X221612580Y-79330312D02*
X222612580Y-79663645D01*
X212404961Y-76012693D02*
X212452580Y-75917455D01*
X212452580Y-75917455D02*
X212452580Y-75774598D01*
X212452580Y-75774598D02*
X212404961Y-75631741D01*
X212404961Y-75631741D02*
X212309723Y-75536503D01*
X212309723Y-75536503D02*
X212214485Y-75488884D01*
X212214485Y-75488884D02*
X212024009Y-75441265D01*
X212024009Y-75441265D02*
X211881152Y-75441265D01*
X211881152Y-75441265D02*
X211690676Y-75488884D01*
X211690676Y-75488884D02*
X211595438Y-75536503D01*
X211595438Y-75536503D02*
X211500200Y-75631741D01*
X211500200Y-75631741D02*
X211452580Y-75774598D01*
X211452580Y-75774598D02*
X211452580Y-75869836D01*
X211452580Y-75869836D02*
X211500200Y-76012693D01*
X211500200Y-76012693D02*
X211547819Y-76060312D01*
X211547819Y-76060312D02*
X211881152Y-76060312D01*
X211881152Y-76060312D02*
X211881152Y-75869836D01*
X211452580Y-76488884D02*
X212452580Y-76488884D01*
X212452580Y-76488884D02*
X212452580Y-76869836D01*
X212452580Y-76869836D02*
X212404961Y-76965074D01*
X212404961Y-76965074D02*
X212357342Y-77012693D01*
X212357342Y-77012693D02*
X212262104Y-77060312D01*
X212262104Y-77060312D02*
X212119247Y-77060312D01*
X212119247Y-77060312D02*
X212024009Y-77012693D01*
X212024009Y-77012693D02*
X211976390Y-76965074D01*
X211976390Y-76965074D02*
X211928771Y-76869836D01*
X211928771Y-76869836D02*
X211928771Y-76488884D01*
X211452580Y-77488884D02*
X212452580Y-77488884D01*
X212452580Y-78155550D02*
X212452580Y-78346026D01*
X212452580Y-78346026D02*
X212404961Y-78441264D01*
X212404961Y-78441264D02*
X212309723Y-78536502D01*
X212309723Y-78536502D02*
X212119247Y-78584121D01*
X212119247Y-78584121D02*
X211785914Y-78584121D01*
X211785914Y-78584121D02*
X211595438Y-78536502D01*
X211595438Y-78536502D02*
X211500200Y-78441264D01*
X211500200Y-78441264D02*
X211452580Y-78346026D01*
X211452580Y-78346026D02*
X211452580Y-78155550D01*
X211452580Y-78155550D02*
X211500200Y-78060312D01*
X211500200Y-78060312D02*
X211595438Y-77965074D01*
X211595438Y-77965074D02*
X211785914Y-77917455D01*
X211785914Y-77917455D02*
X212119247Y-77917455D01*
X212119247Y-77917455D02*
X212309723Y-77965074D01*
X212309723Y-77965074D02*
X212404961Y-78060312D01*
X212404961Y-78060312D02*
X212452580Y-78155550D01*
X211452580Y-79536502D02*
X211452580Y-78965074D01*
X211452580Y-79250788D02*
X212452580Y-79250788D01*
X212452580Y-79250788D02*
X212309723Y-79155550D01*
X212309723Y-79155550D02*
X212214485Y-79060312D01*
X212214485Y-79060312D02*
X212166866Y-78965074D01*
X209864961Y-76012693D02*
X209912580Y-75917455D01*
X209912580Y-75917455D02*
X209912580Y-75774598D01*
X209912580Y-75774598D02*
X209864961Y-75631741D01*
X209864961Y-75631741D02*
X209769723Y-75536503D01*
X209769723Y-75536503D02*
X209674485Y-75488884D01*
X209674485Y-75488884D02*
X209484009Y-75441265D01*
X209484009Y-75441265D02*
X209341152Y-75441265D01*
X209341152Y-75441265D02*
X209150676Y-75488884D01*
X209150676Y-75488884D02*
X209055438Y-75536503D01*
X209055438Y-75536503D02*
X208960200Y-75631741D01*
X208960200Y-75631741D02*
X208912580Y-75774598D01*
X208912580Y-75774598D02*
X208912580Y-75869836D01*
X208912580Y-75869836D02*
X208960200Y-76012693D01*
X208960200Y-76012693D02*
X209007819Y-76060312D01*
X209007819Y-76060312D02*
X209341152Y-76060312D01*
X209341152Y-76060312D02*
X209341152Y-75869836D01*
X208912580Y-76488884D02*
X209912580Y-76488884D01*
X209912580Y-76488884D02*
X209912580Y-76869836D01*
X209912580Y-76869836D02*
X209864961Y-76965074D01*
X209864961Y-76965074D02*
X209817342Y-77012693D01*
X209817342Y-77012693D02*
X209722104Y-77060312D01*
X209722104Y-77060312D02*
X209579247Y-77060312D01*
X209579247Y-77060312D02*
X209484009Y-77012693D01*
X209484009Y-77012693D02*
X209436390Y-76965074D01*
X209436390Y-76965074D02*
X209388771Y-76869836D01*
X209388771Y-76869836D02*
X209388771Y-76488884D01*
X208912580Y-77488884D02*
X209912580Y-77488884D01*
X209912580Y-78155550D02*
X209912580Y-78346026D01*
X209912580Y-78346026D02*
X209864961Y-78441264D01*
X209864961Y-78441264D02*
X209769723Y-78536502D01*
X209769723Y-78536502D02*
X209579247Y-78584121D01*
X209579247Y-78584121D02*
X209245914Y-78584121D01*
X209245914Y-78584121D02*
X209055438Y-78536502D01*
X209055438Y-78536502D02*
X208960200Y-78441264D01*
X208960200Y-78441264D02*
X208912580Y-78346026D01*
X208912580Y-78346026D02*
X208912580Y-78155550D01*
X208912580Y-78155550D02*
X208960200Y-78060312D01*
X208960200Y-78060312D02*
X209055438Y-77965074D01*
X209055438Y-77965074D02*
X209245914Y-77917455D01*
X209245914Y-77917455D02*
X209579247Y-77917455D01*
X209579247Y-77917455D02*
X209769723Y-77965074D01*
X209769723Y-77965074D02*
X209864961Y-78060312D01*
X209864961Y-78060312D02*
X209912580Y-78155550D01*
X209912580Y-79203169D02*
X209912580Y-79298407D01*
X209912580Y-79298407D02*
X209864961Y-79393645D01*
X209864961Y-79393645D02*
X209817342Y-79441264D01*
X209817342Y-79441264D02*
X209722104Y-79488883D01*
X209722104Y-79488883D02*
X209531628Y-79536502D01*
X209531628Y-79536502D02*
X209293533Y-79536502D01*
X209293533Y-79536502D02*
X209103057Y-79488883D01*
X209103057Y-79488883D02*
X209007819Y-79441264D01*
X209007819Y-79441264D02*
X208960200Y-79393645D01*
X208960200Y-79393645D02*
X208912580Y-79298407D01*
X208912580Y-79298407D02*
X208912580Y-79203169D01*
X208912580Y-79203169D02*
X208960200Y-79107931D01*
X208960200Y-79107931D02*
X209007819Y-79060312D01*
X209007819Y-79060312D02*
X209103057Y-79012693D01*
X209103057Y-79012693D02*
X209293533Y-78965074D01*
X209293533Y-78965074D02*
X209531628Y-78965074D01*
X209531628Y-78965074D02*
X209722104Y-79012693D01*
X209722104Y-79012693D02*
X209817342Y-79060312D01*
X209817342Y-79060312D02*
X209864961Y-79107931D01*
X209864961Y-79107931D02*
X209912580Y-79203169D01*
X209864961Y-67757693D02*
X209912580Y-67662455D01*
X209912580Y-67662455D02*
X209912580Y-67519598D01*
X209912580Y-67519598D02*
X209864961Y-67376741D01*
X209864961Y-67376741D02*
X209769723Y-67281503D01*
X209769723Y-67281503D02*
X209674485Y-67233884D01*
X209674485Y-67233884D02*
X209484009Y-67186265D01*
X209484009Y-67186265D02*
X209341152Y-67186265D01*
X209341152Y-67186265D02*
X209150676Y-67233884D01*
X209150676Y-67233884D02*
X209055438Y-67281503D01*
X209055438Y-67281503D02*
X208960200Y-67376741D01*
X208960200Y-67376741D02*
X208912580Y-67519598D01*
X208912580Y-67519598D02*
X208912580Y-67614836D01*
X208912580Y-67614836D02*
X208960200Y-67757693D01*
X208960200Y-67757693D02*
X209007819Y-67805312D01*
X209007819Y-67805312D02*
X209341152Y-67805312D01*
X209341152Y-67805312D02*
X209341152Y-67614836D01*
X208912580Y-68233884D02*
X209912580Y-68233884D01*
X209912580Y-68233884D02*
X209912580Y-68614836D01*
X209912580Y-68614836D02*
X209864961Y-68710074D01*
X209864961Y-68710074D02*
X209817342Y-68757693D01*
X209817342Y-68757693D02*
X209722104Y-68805312D01*
X209722104Y-68805312D02*
X209579247Y-68805312D01*
X209579247Y-68805312D02*
X209484009Y-68757693D01*
X209484009Y-68757693D02*
X209436390Y-68710074D01*
X209436390Y-68710074D02*
X209388771Y-68614836D01*
X209388771Y-68614836D02*
X209388771Y-68233884D01*
X208912580Y-69233884D02*
X209912580Y-69233884D01*
X209912580Y-69900550D02*
X209912580Y-70091026D01*
X209912580Y-70091026D02*
X209864961Y-70186264D01*
X209864961Y-70186264D02*
X209769723Y-70281502D01*
X209769723Y-70281502D02*
X209579247Y-70329121D01*
X209579247Y-70329121D02*
X209245914Y-70329121D01*
X209245914Y-70329121D02*
X209055438Y-70281502D01*
X209055438Y-70281502D02*
X208960200Y-70186264D01*
X208960200Y-70186264D02*
X208912580Y-70091026D01*
X208912580Y-70091026D02*
X208912580Y-69900550D01*
X208912580Y-69900550D02*
X208960200Y-69805312D01*
X208960200Y-69805312D02*
X209055438Y-69710074D01*
X209055438Y-69710074D02*
X209245914Y-69662455D01*
X209245914Y-69662455D02*
X209579247Y-69662455D01*
X209579247Y-69662455D02*
X209769723Y-69710074D01*
X209769723Y-69710074D02*
X209864961Y-69805312D01*
X209864961Y-69805312D02*
X209912580Y-69900550D01*
X209817342Y-70710074D02*
X209864961Y-70757693D01*
X209864961Y-70757693D02*
X209912580Y-70852931D01*
X209912580Y-70852931D02*
X209912580Y-71091026D01*
X209912580Y-71091026D02*
X209864961Y-71186264D01*
X209864961Y-71186264D02*
X209817342Y-71233883D01*
X209817342Y-71233883D02*
X209722104Y-71281502D01*
X209722104Y-71281502D02*
X209626866Y-71281502D01*
X209626866Y-71281502D02*
X209484009Y-71233883D01*
X209484009Y-71233883D02*
X208912580Y-70662455D01*
X208912580Y-70662455D02*
X208912580Y-71281502D01*
X208912580Y-72233883D02*
X208912580Y-71662455D01*
X208912580Y-71948169D02*
X209912580Y-71948169D01*
X209912580Y-71948169D02*
X209769723Y-71852931D01*
X209769723Y-71852931D02*
X209674485Y-71757693D01*
X209674485Y-71757693D02*
X209626866Y-71662455D01*
X225104961Y-67757693D02*
X225152580Y-67662455D01*
X225152580Y-67662455D02*
X225152580Y-67519598D01*
X225152580Y-67519598D02*
X225104961Y-67376741D01*
X225104961Y-67376741D02*
X225009723Y-67281503D01*
X225009723Y-67281503D02*
X224914485Y-67233884D01*
X224914485Y-67233884D02*
X224724009Y-67186265D01*
X224724009Y-67186265D02*
X224581152Y-67186265D01*
X224581152Y-67186265D02*
X224390676Y-67233884D01*
X224390676Y-67233884D02*
X224295438Y-67281503D01*
X224295438Y-67281503D02*
X224200200Y-67376741D01*
X224200200Y-67376741D02*
X224152580Y-67519598D01*
X224152580Y-67519598D02*
X224152580Y-67614836D01*
X224152580Y-67614836D02*
X224200200Y-67757693D01*
X224200200Y-67757693D02*
X224247819Y-67805312D01*
X224247819Y-67805312D02*
X224581152Y-67805312D01*
X224581152Y-67805312D02*
X224581152Y-67614836D01*
X224152580Y-68233884D02*
X225152580Y-68233884D01*
X225152580Y-68233884D02*
X225152580Y-68614836D01*
X225152580Y-68614836D02*
X225104961Y-68710074D01*
X225104961Y-68710074D02*
X225057342Y-68757693D01*
X225057342Y-68757693D02*
X224962104Y-68805312D01*
X224962104Y-68805312D02*
X224819247Y-68805312D01*
X224819247Y-68805312D02*
X224724009Y-68757693D01*
X224724009Y-68757693D02*
X224676390Y-68710074D01*
X224676390Y-68710074D02*
X224628771Y-68614836D01*
X224628771Y-68614836D02*
X224628771Y-68233884D01*
X224152580Y-69233884D02*
X225152580Y-69233884D01*
X225152580Y-69900550D02*
X225152580Y-70091026D01*
X225152580Y-70091026D02*
X225104961Y-70186264D01*
X225104961Y-70186264D02*
X225009723Y-70281502D01*
X225009723Y-70281502D02*
X224819247Y-70329121D01*
X224819247Y-70329121D02*
X224485914Y-70329121D01*
X224485914Y-70329121D02*
X224295438Y-70281502D01*
X224295438Y-70281502D02*
X224200200Y-70186264D01*
X224200200Y-70186264D02*
X224152580Y-70091026D01*
X224152580Y-70091026D02*
X224152580Y-69900550D01*
X224152580Y-69900550D02*
X224200200Y-69805312D01*
X224200200Y-69805312D02*
X224295438Y-69710074D01*
X224295438Y-69710074D02*
X224485914Y-69662455D01*
X224485914Y-69662455D02*
X224819247Y-69662455D01*
X224819247Y-69662455D02*
X225009723Y-69710074D01*
X225009723Y-69710074D02*
X225104961Y-69805312D01*
X225104961Y-69805312D02*
X225152580Y-69900550D01*
X225152580Y-71186264D02*
X225152580Y-70995788D01*
X225152580Y-70995788D02*
X225104961Y-70900550D01*
X225104961Y-70900550D02*
X225057342Y-70852931D01*
X225057342Y-70852931D02*
X224914485Y-70757693D01*
X224914485Y-70757693D02*
X224724009Y-70710074D01*
X224724009Y-70710074D02*
X224343057Y-70710074D01*
X224343057Y-70710074D02*
X224247819Y-70757693D01*
X224247819Y-70757693D02*
X224200200Y-70805312D01*
X224200200Y-70805312D02*
X224152580Y-70900550D01*
X224152580Y-70900550D02*
X224152580Y-71091026D01*
X224152580Y-71091026D02*
X224200200Y-71186264D01*
X224200200Y-71186264D02*
X224247819Y-71233883D01*
X224247819Y-71233883D02*
X224343057Y-71281502D01*
X224343057Y-71281502D02*
X224581152Y-71281502D01*
X224581152Y-71281502D02*
X224676390Y-71233883D01*
X224676390Y-71233883D02*
X224724009Y-71186264D01*
X224724009Y-71186264D02*
X224771628Y-71091026D01*
X224771628Y-71091026D02*
X224771628Y-70900550D01*
X224771628Y-70900550D02*
X224724009Y-70805312D01*
X224724009Y-70805312D02*
X224676390Y-70757693D01*
X224676390Y-70757693D02*
X224581152Y-70710074D01*
X220024961Y-67757693D02*
X220072580Y-67662455D01*
X220072580Y-67662455D02*
X220072580Y-67519598D01*
X220072580Y-67519598D02*
X220024961Y-67376741D01*
X220024961Y-67376741D02*
X219929723Y-67281503D01*
X219929723Y-67281503D02*
X219834485Y-67233884D01*
X219834485Y-67233884D02*
X219644009Y-67186265D01*
X219644009Y-67186265D02*
X219501152Y-67186265D01*
X219501152Y-67186265D02*
X219310676Y-67233884D01*
X219310676Y-67233884D02*
X219215438Y-67281503D01*
X219215438Y-67281503D02*
X219120200Y-67376741D01*
X219120200Y-67376741D02*
X219072580Y-67519598D01*
X219072580Y-67519598D02*
X219072580Y-67614836D01*
X219072580Y-67614836D02*
X219120200Y-67757693D01*
X219120200Y-67757693D02*
X219167819Y-67805312D01*
X219167819Y-67805312D02*
X219501152Y-67805312D01*
X219501152Y-67805312D02*
X219501152Y-67614836D01*
X219072580Y-68233884D02*
X220072580Y-68233884D01*
X220072580Y-68233884D02*
X220072580Y-68614836D01*
X220072580Y-68614836D02*
X220024961Y-68710074D01*
X220024961Y-68710074D02*
X219977342Y-68757693D01*
X219977342Y-68757693D02*
X219882104Y-68805312D01*
X219882104Y-68805312D02*
X219739247Y-68805312D01*
X219739247Y-68805312D02*
X219644009Y-68757693D01*
X219644009Y-68757693D02*
X219596390Y-68710074D01*
X219596390Y-68710074D02*
X219548771Y-68614836D01*
X219548771Y-68614836D02*
X219548771Y-68233884D01*
X219072580Y-69233884D02*
X220072580Y-69233884D01*
X220072580Y-69900550D02*
X220072580Y-70091026D01*
X220072580Y-70091026D02*
X220024961Y-70186264D01*
X220024961Y-70186264D02*
X219929723Y-70281502D01*
X219929723Y-70281502D02*
X219739247Y-70329121D01*
X219739247Y-70329121D02*
X219405914Y-70329121D01*
X219405914Y-70329121D02*
X219215438Y-70281502D01*
X219215438Y-70281502D02*
X219120200Y-70186264D01*
X219120200Y-70186264D02*
X219072580Y-70091026D01*
X219072580Y-70091026D02*
X219072580Y-69900550D01*
X219072580Y-69900550D02*
X219120200Y-69805312D01*
X219120200Y-69805312D02*
X219215438Y-69710074D01*
X219215438Y-69710074D02*
X219405914Y-69662455D01*
X219405914Y-69662455D02*
X219739247Y-69662455D01*
X219739247Y-69662455D02*
X219929723Y-69710074D01*
X219929723Y-69710074D02*
X220024961Y-69805312D01*
X220024961Y-69805312D02*
X220072580Y-69900550D01*
X219644009Y-70900550D02*
X219691628Y-70805312D01*
X219691628Y-70805312D02*
X219739247Y-70757693D01*
X219739247Y-70757693D02*
X219834485Y-70710074D01*
X219834485Y-70710074D02*
X219882104Y-70710074D01*
X219882104Y-70710074D02*
X219977342Y-70757693D01*
X219977342Y-70757693D02*
X220024961Y-70805312D01*
X220024961Y-70805312D02*
X220072580Y-70900550D01*
X220072580Y-70900550D02*
X220072580Y-71091026D01*
X220072580Y-71091026D02*
X220024961Y-71186264D01*
X220024961Y-71186264D02*
X219977342Y-71233883D01*
X219977342Y-71233883D02*
X219882104Y-71281502D01*
X219882104Y-71281502D02*
X219834485Y-71281502D01*
X219834485Y-71281502D02*
X219739247Y-71233883D01*
X219739247Y-71233883D02*
X219691628Y-71186264D01*
X219691628Y-71186264D02*
X219644009Y-71091026D01*
X219644009Y-71091026D02*
X219644009Y-70900550D01*
X219644009Y-70900550D02*
X219596390Y-70805312D01*
X219596390Y-70805312D02*
X219548771Y-70757693D01*
X219548771Y-70757693D02*
X219453533Y-70710074D01*
X219453533Y-70710074D02*
X219263057Y-70710074D01*
X219263057Y-70710074D02*
X219167819Y-70757693D01*
X219167819Y-70757693D02*
X219120200Y-70805312D01*
X219120200Y-70805312D02*
X219072580Y-70900550D01*
X219072580Y-70900550D02*
X219072580Y-71091026D01*
X219072580Y-71091026D02*
X219120200Y-71186264D01*
X219120200Y-71186264D02*
X219167819Y-71233883D01*
X219167819Y-71233883D02*
X219263057Y-71281502D01*
X219263057Y-71281502D02*
X219453533Y-71281502D01*
X219453533Y-71281502D02*
X219548771Y-71233883D01*
X219548771Y-71233883D02*
X219596390Y-71186264D01*
X219596390Y-71186264D02*
X219644009Y-71091026D01*
X214944961Y-67757693D02*
X214992580Y-67662455D01*
X214992580Y-67662455D02*
X214992580Y-67519598D01*
X214992580Y-67519598D02*
X214944961Y-67376741D01*
X214944961Y-67376741D02*
X214849723Y-67281503D01*
X214849723Y-67281503D02*
X214754485Y-67233884D01*
X214754485Y-67233884D02*
X214564009Y-67186265D01*
X214564009Y-67186265D02*
X214421152Y-67186265D01*
X214421152Y-67186265D02*
X214230676Y-67233884D01*
X214230676Y-67233884D02*
X214135438Y-67281503D01*
X214135438Y-67281503D02*
X214040200Y-67376741D01*
X214040200Y-67376741D02*
X213992580Y-67519598D01*
X213992580Y-67519598D02*
X213992580Y-67614836D01*
X213992580Y-67614836D02*
X214040200Y-67757693D01*
X214040200Y-67757693D02*
X214087819Y-67805312D01*
X214087819Y-67805312D02*
X214421152Y-67805312D01*
X214421152Y-67805312D02*
X214421152Y-67614836D01*
X213992580Y-68233884D02*
X214992580Y-68233884D01*
X214992580Y-68233884D02*
X214992580Y-68614836D01*
X214992580Y-68614836D02*
X214944961Y-68710074D01*
X214944961Y-68710074D02*
X214897342Y-68757693D01*
X214897342Y-68757693D02*
X214802104Y-68805312D01*
X214802104Y-68805312D02*
X214659247Y-68805312D01*
X214659247Y-68805312D02*
X214564009Y-68757693D01*
X214564009Y-68757693D02*
X214516390Y-68710074D01*
X214516390Y-68710074D02*
X214468771Y-68614836D01*
X214468771Y-68614836D02*
X214468771Y-68233884D01*
X213992580Y-69233884D02*
X214992580Y-69233884D01*
X214992580Y-69900550D02*
X214992580Y-70091026D01*
X214992580Y-70091026D02*
X214944961Y-70186264D01*
X214944961Y-70186264D02*
X214849723Y-70281502D01*
X214849723Y-70281502D02*
X214659247Y-70329121D01*
X214659247Y-70329121D02*
X214325914Y-70329121D01*
X214325914Y-70329121D02*
X214135438Y-70281502D01*
X214135438Y-70281502D02*
X214040200Y-70186264D01*
X214040200Y-70186264D02*
X213992580Y-70091026D01*
X213992580Y-70091026D02*
X213992580Y-69900550D01*
X213992580Y-69900550D02*
X214040200Y-69805312D01*
X214040200Y-69805312D02*
X214135438Y-69710074D01*
X214135438Y-69710074D02*
X214325914Y-69662455D01*
X214325914Y-69662455D02*
X214659247Y-69662455D01*
X214659247Y-69662455D02*
X214849723Y-69710074D01*
X214849723Y-69710074D02*
X214944961Y-69805312D01*
X214944961Y-69805312D02*
X214992580Y-69900550D01*
X213992580Y-71281502D02*
X213992580Y-70710074D01*
X213992580Y-70995788D02*
X214992580Y-70995788D01*
X214992580Y-70995788D02*
X214849723Y-70900550D01*
X214849723Y-70900550D02*
X214754485Y-70805312D01*
X214754485Y-70805312D02*
X214706866Y-70710074D01*
X214992580Y-71900550D02*
X214992580Y-71995788D01*
X214992580Y-71995788D02*
X214944961Y-72091026D01*
X214944961Y-72091026D02*
X214897342Y-72138645D01*
X214897342Y-72138645D02*
X214802104Y-72186264D01*
X214802104Y-72186264D02*
X214611628Y-72233883D01*
X214611628Y-72233883D02*
X214373533Y-72233883D01*
X214373533Y-72233883D02*
X214183057Y-72186264D01*
X214183057Y-72186264D02*
X214087819Y-72138645D01*
X214087819Y-72138645D02*
X214040200Y-72091026D01*
X214040200Y-72091026D02*
X213992580Y-71995788D01*
X213992580Y-71995788D02*
X213992580Y-71900550D01*
X213992580Y-71900550D02*
X214040200Y-71805312D01*
X214040200Y-71805312D02*
X214087819Y-71757693D01*
X214087819Y-71757693D02*
X214183057Y-71710074D01*
X214183057Y-71710074D02*
X214373533Y-71662455D01*
X214373533Y-71662455D02*
X214611628Y-71662455D01*
X214611628Y-71662455D02*
X214802104Y-71710074D01*
X214802104Y-71710074D02*
X214897342Y-71757693D01*
X214897342Y-71757693D02*
X214944961Y-71805312D01*
X214944961Y-71805312D02*
X214992580Y-71900550D01*
X214944961Y-76012693D02*
X214992580Y-75917455D01*
X214992580Y-75917455D02*
X214992580Y-75774598D01*
X214992580Y-75774598D02*
X214944961Y-75631741D01*
X214944961Y-75631741D02*
X214849723Y-75536503D01*
X214849723Y-75536503D02*
X214754485Y-75488884D01*
X214754485Y-75488884D02*
X214564009Y-75441265D01*
X214564009Y-75441265D02*
X214421152Y-75441265D01*
X214421152Y-75441265D02*
X214230676Y-75488884D01*
X214230676Y-75488884D02*
X214135438Y-75536503D01*
X214135438Y-75536503D02*
X214040200Y-75631741D01*
X214040200Y-75631741D02*
X213992580Y-75774598D01*
X213992580Y-75774598D02*
X213992580Y-75869836D01*
X213992580Y-75869836D02*
X214040200Y-76012693D01*
X214040200Y-76012693D02*
X214087819Y-76060312D01*
X214087819Y-76060312D02*
X214421152Y-76060312D01*
X214421152Y-76060312D02*
X214421152Y-75869836D01*
X213992580Y-76488884D02*
X214992580Y-76488884D01*
X214992580Y-76488884D02*
X214992580Y-76869836D01*
X214992580Y-76869836D02*
X214944961Y-76965074D01*
X214944961Y-76965074D02*
X214897342Y-77012693D01*
X214897342Y-77012693D02*
X214802104Y-77060312D01*
X214802104Y-77060312D02*
X214659247Y-77060312D01*
X214659247Y-77060312D02*
X214564009Y-77012693D01*
X214564009Y-77012693D02*
X214516390Y-76965074D01*
X214516390Y-76965074D02*
X214468771Y-76869836D01*
X214468771Y-76869836D02*
X214468771Y-76488884D01*
X213992580Y-77488884D02*
X214992580Y-77488884D01*
X214992580Y-78155550D02*
X214992580Y-78346026D01*
X214992580Y-78346026D02*
X214944961Y-78441264D01*
X214944961Y-78441264D02*
X214849723Y-78536502D01*
X214849723Y-78536502D02*
X214659247Y-78584121D01*
X214659247Y-78584121D02*
X214325914Y-78584121D01*
X214325914Y-78584121D02*
X214135438Y-78536502D01*
X214135438Y-78536502D02*
X214040200Y-78441264D01*
X214040200Y-78441264D02*
X213992580Y-78346026D01*
X213992580Y-78346026D02*
X213992580Y-78155550D01*
X213992580Y-78155550D02*
X214040200Y-78060312D01*
X214040200Y-78060312D02*
X214135438Y-77965074D01*
X214135438Y-77965074D02*
X214325914Y-77917455D01*
X214325914Y-77917455D02*
X214659247Y-77917455D01*
X214659247Y-77917455D02*
X214849723Y-77965074D01*
X214849723Y-77965074D02*
X214944961Y-78060312D01*
X214944961Y-78060312D02*
X214992580Y-78155550D01*
X214897342Y-78965074D02*
X214944961Y-79012693D01*
X214944961Y-79012693D02*
X214992580Y-79107931D01*
X214992580Y-79107931D02*
X214992580Y-79346026D01*
X214992580Y-79346026D02*
X214944961Y-79441264D01*
X214944961Y-79441264D02*
X214897342Y-79488883D01*
X214897342Y-79488883D02*
X214802104Y-79536502D01*
X214802104Y-79536502D02*
X214706866Y-79536502D01*
X214706866Y-79536502D02*
X214564009Y-79488883D01*
X214564009Y-79488883D02*
X213992580Y-78917455D01*
X213992580Y-78917455D02*
X213992580Y-79536502D01*
X220024961Y-76012693D02*
X220072580Y-75917455D01*
X220072580Y-75917455D02*
X220072580Y-75774598D01*
X220072580Y-75774598D02*
X220024961Y-75631741D01*
X220024961Y-75631741D02*
X219929723Y-75536503D01*
X219929723Y-75536503D02*
X219834485Y-75488884D01*
X219834485Y-75488884D02*
X219644009Y-75441265D01*
X219644009Y-75441265D02*
X219501152Y-75441265D01*
X219501152Y-75441265D02*
X219310676Y-75488884D01*
X219310676Y-75488884D02*
X219215438Y-75536503D01*
X219215438Y-75536503D02*
X219120200Y-75631741D01*
X219120200Y-75631741D02*
X219072580Y-75774598D01*
X219072580Y-75774598D02*
X219072580Y-75869836D01*
X219072580Y-75869836D02*
X219120200Y-76012693D01*
X219120200Y-76012693D02*
X219167819Y-76060312D01*
X219167819Y-76060312D02*
X219501152Y-76060312D01*
X219501152Y-76060312D02*
X219501152Y-75869836D01*
X219072580Y-76488884D02*
X220072580Y-76488884D01*
X220072580Y-76488884D02*
X220072580Y-76869836D01*
X220072580Y-76869836D02*
X220024961Y-76965074D01*
X220024961Y-76965074D02*
X219977342Y-77012693D01*
X219977342Y-77012693D02*
X219882104Y-77060312D01*
X219882104Y-77060312D02*
X219739247Y-77060312D01*
X219739247Y-77060312D02*
X219644009Y-77012693D01*
X219644009Y-77012693D02*
X219596390Y-76965074D01*
X219596390Y-76965074D02*
X219548771Y-76869836D01*
X219548771Y-76869836D02*
X219548771Y-76488884D01*
X219072580Y-77488884D02*
X220072580Y-77488884D01*
X220072580Y-78155550D02*
X220072580Y-78346026D01*
X220072580Y-78346026D02*
X220024961Y-78441264D01*
X220024961Y-78441264D02*
X219929723Y-78536502D01*
X219929723Y-78536502D02*
X219739247Y-78584121D01*
X219739247Y-78584121D02*
X219405914Y-78584121D01*
X219405914Y-78584121D02*
X219215438Y-78536502D01*
X219215438Y-78536502D02*
X219120200Y-78441264D01*
X219120200Y-78441264D02*
X219072580Y-78346026D01*
X219072580Y-78346026D02*
X219072580Y-78155550D01*
X219072580Y-78155550D02*
X219120200Y-78060312D01*
X219120200Y-78060312D02*
X219215438Y-77965074D01*
X219215438Y-77965074D02*
X219405914Y-77917455D01*
X219405914Y-77917455D02*
X219739247Y-77917455D01*
X219739247Y-77917455D02*
X219929723Y-77965074D01*
X219929723Y-77965074D02*
X220024961Y-78060312D01*
X220024961Y-78060312D02*
X220072580Y-78155550D01*
X219739247Y-79441264D02*
X219072580Y-79441264D01*
X220120200Y-79203169D02*
X219405914Y-78965074D01*
X219405914Y-78965074D02*
X219405914Y-79584121D01*
X217484961Y-76012693D02*
X217532580Y-75917455D01*
X217532580Y-75917455D02*
X217532580Y-75774598D01*
X217532580Y-75774598D02*
X217484961Y-75631741D01*
X217484961Y-75631741D02*
X217389723Y-75536503D01*
X217389723Y-75536503D02*
X217294485Y-75488884D01*
X217294485Y-75488884D02*
X217104009Y-75441265D01*
X217104009Y-75441265D02*
X216961152Y-75441265D01*
X216961152Y-75441265D02*
X216770676Y-75488884D01*
X216770676Y-75488884D02*
X216675438Y-75536503D01*
X216675438Y-75536503D02*
X216580200Y-75631741D01*
X216580200Y-75631741D02*
X216532580Y-75774598D01*
X216532580Y-75774598D02*
X216532580Y-75869836D01*
X216532580Y-75869836D02*
X216580200Y-76012693D01*
X216580200Y-76012693D02*
X216627819Y-76060312D01*
X216627819Y-76060312D02*
X216961152Y-76060312D01*
X216961152Y-76060312D02*
X216961152Y-75869836D01*
X216532580Y-76488884D02*
X217532580Y-76488884D01*
X217532580Y-76488884D02*
X217532580Y-76869836D01*
X217532580Y-76869836D02*
X217484961Y-76965074D01*
X217484961Y-76965074D02*
X217437342Y-77012693D01*
X217437342Y-77012693D02*
X217342104Y-77060312D01*
X217342104Y-77060312D02*
X217199247Y-77060312D01*
X217199247Y-77060312D02*
X217104009Y-77012693D01*
X217104009Y-77012693D02*
X217056390Y-76965074D01*
X217056390Y-76965074D02*
X217008771Y-76869836D01*
X217008771Y-76869836D02*
X217008771Y-76488884D01*
X216532580Y-77488884D02*
X217532580Y-77488884D01*
X217532580Y-78155550D02*
X217532580Y-78346026D01*
X217532580Y-78346026D02*
X217484961Y-78441264D01*
X217484961Y-78441264D02*
X217389723Y-78536502D01*
X217389723Y-78536502D02*
X217199247Y-78584121D01*
X217199247Y-78584121D02*
X216865914Y-78584121D01*
X216865914Y-78584121D02*
X216675438Y-78536502D01*
X216675438Y-78536502D02*
X216580200Y-78441264D01*
X216580200Y-78441264D02*
X216532580Y-78346026D01*
X216532580Y-78346026D02*
X216532580Y-78155550D01*
X216532580Y-78155550D02*
X216580200Y-78060312D01*
X216580200Y-78060312D02*
X216675438Y-77965074D01*
X216675438Y-77965074D02*
X216865914Y-77917455D01*
X216865914Y-77917455D02*
X217199247Y-77917455D01*
X217199247Y-77917455D02*
X217389723Y-77965074D01*
X217389723Y-77965074D02*
X217484961Y-78060312D01*
X217484961Y-78060312D02*
X217532580Y-78155550D01*
X217532580Y-78917455D02*
X217532580Y-79536502D01*
X217532580Y-79536502D02*
X217151628Y-79203169D01*
X217151628Y-79203169D02*
X217151628Y-79346026D01*
X217151628Y-79346026D02*
X217104009Y-79441264D01*
X217104009Y-79441264D02*
X217056390Y-79488883D01*
X217056390Y-79488883D02*
X216961152Y-79536502D01*
X216961152Y-79536502D02*
X216723057Y-79536502D01*
X216723057Y-79536502D02*
X216627819Y-79488883D01*
X216627819Y-79488883D02*
X216580200Y-79441264D01*
X216580200Y-79441264D02*
X216532580Y-79346026D01*
X216532580Y-79346026D02*
X216532580Y-79060312D01*
X216532580Y-79060312D02*
X216580200Y-78965074D01*
X216580200Y-78965074D02*
X216627819Y-78917455D01*
X212404961Y-67757693D02*
X212452580Y-67662455D01*
X212452580Y-67662455D02*
X212452580Y-67519598D01*
X212452580Y-67519598D02*
X212404961Y-67376741D01*
X212404961Y-67376741D02*
X212309723Y-67281503D01*
X212309723Y-67281503D02*
X212214485Y-67233884D01*
X212214485Y-67233884D02*
X212024009Y-67186265D01*
X212024009Y-67186265D02*
X211881152Y-67186265D01*
X211881152Y-67186265D02*
X211690676Y-67233884D01*
X211690676Y-67233884D02*
X211595438Y-67281503D01*
X211595438Y-67281503D02*
X211500200Y-67376741D01*
X211500200Y-67376741D02*
X211452580Y-67519598D01*
X211452580Y-67519598D02*
X211452580Y-67614836D01*
X211452580Y-67614836D02*
X211500200Y-67757693D01*
X211500200Y-67757693D02*
X211547819Y-67805312D01*
X211547819Y-67805312D02*
X211881152Y-67805312D01*
X211881152Y-67805312D02*
X211881152Y-67614836D01*
X211452580Y-68233884D02*
X212452580Y-68233884D01*
X212452580Y-68233884D02*
X212452580Y-68614836D01*
X212452580Y-68614836D02*
X212404961Y-68710074D01*
X212404961Y-68710074D02*
X212357342Y-68757693D01*
X212357342Y-68757693D02*
X212262104Y-68805312D01*
X212262104Y-68805312D02*
X212119247Y-68805312D01*
X212119247Y-68805312D02*
X212024009Y-68757693D01*
X212024009Y-68757693D02*
X211976390Y-68710074D01*
X211976390Y-68710074D02*
X211928771Y-68614836D01*
X211928771Y-68614836D02*
X211928771Y-68233884D01*
X211452580Y-69233884D02*
X212452580Y-69233884D01*
X212452580Y-69900550D02*
X212452580Y-70091026D01*
X212452580Y-70091026D02*
X212404961Y-70186264D01*
X212404961Y-70186264D02*
X212309723Y-70281502D01*
X212309723Y-70281502D02*
X212119247Y-70329121D01*
X212119247Y-70329121D02*
X211785914Y-70329121D01*
X211785914Y-70329121D02*
X211595438Y-70281502D01*
X211595438Y-70281502D02*
X211500200Y-70186264D01*
X211500200Y-70186264D02*
X211452580Y-70091026D01*
X211452580Y-70091026D02*
X211452580Y-69900550D01*
X211452580Y-69900550D02*
X211500200Y-69805312D01*
X211500200Y-69805312D02*
X211595438Y-69710074D01*
X211595438Y-69710074D02*
X211785914Y-69662455D01*
X211785914Y-69662455D02*
X212119247Y-69662455D01*
X212119247Y-69662455D02*
X212309723Y-69710074D01*
X212309723Y-69710074D02*
X212404961Y-69805312D01*
X212404961Y-69805312D02*
X212452580Y-69900550D01*
X212357342Y-70710074D02*
X212404961Y-70757693D01*
X212404961Y-70757693D02*
X212452580Y-70852931D01*
X212452580Y-70852931D02*
X212452580Y-71091026D01*
X212452580Y-71091026D02*
X212404961Y-71186264D01*
X212404961Y-71186264D02*
X212357342Y-71233883D01*
X212357342Y-71233883D02*
X212262104Y-71281502D01*
X212262104Y-71281502D02*
X212166866Y-71281502D01*
X212166866Y-71281502D02*
X212024009Y-71233883D01*
X212024009Y-71233883D02*
X211452580Y-70662455D01*
X211452580Y-70662455D02*
X211452580Y-71281502D01*
X212452580Y-71900550D02*
X212452580Y-71995788D01*
X212452580Y-71995788D02*
X212404961Y-72091026D01*
X212404961Y-72091026D02*
X212357342Y-72138645D01*
X212357342Y-72138645D02*
X212262104Y-72186264D01*
X212262104Y-72186264D02*
X212071628Y-72233883D01*
X212071628Y-72233883D02*
X211833533Y-72233883D01*
X211833533Y-72233883D02*
X211643057Y-72186264D01*
X211643057Y-72186264D02*
X211547819Y-72138645D01*
X211547819Y-72138645D02*
X211500200Y-72091026D01*
X211500200Y-72091026D02*
X211452580Y-71995788D01*
X211452580Y-71995788D02*
X211452580Y-71900550D01*
X211452580Y-71900550D02*
X211500200Y-71805312D01*
X211500200Y-71805312D02*
X211547819Y-71757693D01*
X211547819Y-71757693D02*
X211643057Y-71710074D01*
X211643057Y-71710074D02*
X211833533Y-71662455D01*
X211833533Y-71662455D02*
X212071628Y-71662455D01*
X212071628Y-71662455D02*
X212262104Y-71710074D01*
X212262104Y-71710074D02*
X212357342Y-71757693D01*
X212357342Y-71757693D02*
X212404961Y-71805312D01*
X212404961Y-71805312D02*
X212452580Y-71900550D01*
X225104961Y-77282693D02*
X225152580Y-77187455D01*
X225152580Y-77187455D02*
X225152580Y-77044598D01*
X225152580Y-77044598D02*
X225104961Y-76901741D01*
X225104961Y-76901741D02*
X225009723Y-76806503D01*
X225009723Y-76806503D02*
X224914485Y-76758884D01*
X224914485Y-76758884D02*
X224724009Y-76711265D01*
X224724009Y-76711265D02*
X224581152Y-76711265D01*
X224581152Y-76711265D02*
X224390676Y-76758884D01*
X224390676Y-76758884D02*
X224295438Y-76806503D01*
X224295438Y-76806503D02*
X224200200Y-76901741D01*
X224200200Y-76901741D02*
X224152580Y-77044598D01*
X224152580Y-77044598D02*
X224152580Y-77139836D01*
X224152580Y-77139836D02*
X224200200Y-77282693D01*
X224200200Y-77282693D02*
X224247819Y-77330312D01*
X224247819Y-77330312D02*
X224581152Y-77330312D01*
X224581152Y-77330312D02*
X224581152Y-77139836D01*
X224152580Y-77758884D02*
X225152580Y-77758884D01*
X225152580Y-77758884D02*
X224152580Y-78330312D01*
X224152580Y-78330312D02*
X225152580Y-78330312D01*
X224152580Y-78806503D02*
X225152580Y-78806503D01*
X225152580Y-78806503D02*
X225152580Y-79044598D01*
X225152580Y-79044598D02*
X225104961Y-79187455D01*
X225104961Y-79187455D02*
X225009723Y-79282693D01*
X225009723Y-79282693D02*
X224914485Y-79330312D01*
X224914485Y-79330312D02*
X224724009Y-79377931D01*
X224724009Y-79377931D02*
X224581152Y-79377931D01*
X224581152Y-79377931D02*
X224390676Y-79330312D01*
X224390676Y-79330312D02*
X224295438Y-79282693D01*
X224295438Y-79282693D02*
X224200200Y-79187455D01*
X224200200Y-79187455D02*
X224152580Y-79044598D01*
X224152580Y-79044598D02*
X224152580Y-78806503D01*
X227644961Y-67757693D02*
X227692580Y-67662455D01*
X227692580Y-67662455D02*
X227692580Y-67519598D01*
X227692580Y-67519598D02*
X227644961Y-67376741D01*
X227644961Y-67376741D02*
X227549723Y-67281503D01*
X227549723Y-67281503D02*
X227454485Y-67233884D01*
X227454485Y-67233884D02*
X227264009Y-67186265D01*
X227264009Y-67186265D02*
X227121152Y-67186265D01*
X227121152Y-67186265D02*
X226930676Y-67233884D01*
X226930676Y-67233884D02*
X226835438Y-67281503D01*
X226835438Y-67281503D02*
X226740200Y-67376741D01*
X226740200Y-67376741D02*
X226692580Y-67519598D01*
X226692580Y-67519598D02*
X226692580Y-67614836D01*
X226692580Y-67614836D02*
X226740200Y-67757693D01*
X226740200Y-67757693D02*
X226787819Y-67805312D01*
X226787819Y-67805312D02*
X227121152Y-67805312D01*
X227121152Y-67805312D02*
X227121152Y-67614836D01*
X226692580Y-68233884D02*
X227692580Y-68233884D01*
X227692580Y-68233884D02*
X227692580Y-68614836D01*
X227692580Y-68614836D02*
X227644961Y-68710074D01*
X227644961Y-68710074D02*
X227597342Y-68757693D01*
X227597342Y-68757693D02*
X227502104Y-68805312D01*
X227502104Y-68805312D02*
X227359247Y-68805312D01*
X227359247Y-68805312D02*
X227264009Y-68757693D01*
X227264009Y-68757693D02*
X227216390Y-68710074D01*
X227216390Y-68710074D02*
X227168771Y-68614836D01*
X227168771Y-68614836D02*
X227168771Y-68233884D01*
X226692580Y-69233884D02*
X227692580Y-69233884D01*
X227692580Y-69900550D02*
X227692580Y-70091026D01*
X227692580Y-70091026D02*
X227644961Y-70186264D01*
X227644961Y-70186264D02*
X227549723Y-70281502D01*
X227549723Y-70281502D02*
X227359247Y-70329121D01*
X227359247Y-70329121D02*
X227025914Y-70329121D01*
X227025914Y-70329121D02*
X226835438Y-70281502D01*
X226835438Y-70281502D02*
X226740200Y-70186264D01*
X226740200Y-70186264D02*
X226692580Y-70091026D01*
X226692580Y-70091026D02*
X226692580Y-69900550D01*
X226692580Y-69900550D02*
X226740200Y-69805312D01*
X226740200Y-69805312D02*
X226835438Y-69710074D01*
X226835438Y-69710074D02*
X227025914Y-69662455D01*
X227025914Y-69662455D02*
X227359247Y-69662455D01*
X227359247Y-69662455D02*
X227549723Y-69710074D01*
X227549723Y-69710074D02*
X227644961Y-69805312D01*
X227644961Y-69805312D02*
X227692580Y-69900550D01*
X227692580Y-71233883D02*
X227692580Y-70757693D01*
X227692580Y-70757693D02*
X227216390Y-70710074D01*
X227216390Y-70710074D02*
X227264009Y-70757693D01*
X227264009Y-70757693D02*
X227311628Y-70852931D01*
X227311628Y-70852931D02*
X227311628Y-71091026D01*
X227311628Y-71091026D02*
X227264009Y-71186264D01*
X227264009Y-71186264D02*
X227216390Y-71233883D01*
X227216390Y-71233883D02*
X227121152Y-71281502D01*
X227121152Y-71281502D02*
X226883057Y-71281502D01*
X226883057Y-71281502D02*
X226787819Y-71233883D01*
X226787819Y-71233883D02*
X226740200Y-71186264D01*
X226740200Y-71186264D02*
X226692580Y-71091026D01*
X226692580Y-71091026D02*
X226692580Y-70852931D01*
X226692580Y-70852931D02*
X226740200Y-70757693D01*
X226740200Y-70757693D02*
X226787819Y-70710074D01*
X188066667Y-62809800D02*
X188209524Y-62857419D01*
X188209524Y-62857419D02*
X188447619Y-62857419D01*
X188447619Y-62857419D02*
X188542857Y-62809800D01*
X188542857Y-62809800D02*
X188590476Y-62762180D01*
X188590476Y-62762180D02*
X188638095Y-62666942D01*
X188638095Y-62666942D02*
X188638095Y-62571704D01*
X188638095Y-62571704D02*
X188590476Y-62476466D01*
X188590476Y-62476466D02*
X188542857Y-62428847D01*
X188542857Y-62428847D02*
X188447619Y-62381228D01*
X188447619Y-62381228D02*
X188257143Y-62333609D01*
X188257143Y-62333609D02*
X188161905Y-62285990D01*
X188161905Y-62285990D02*
X188114286Y-62238371D01*
X188114286Y-62238371D02*
X188066667Y-62143133D01*
X188066667Y-62143133D02*
X188066667Y-62047895D01*
X188066667Y-62047895D02*
X188114286Y-61952657D01*
X188114286Y-61952657D02*
X188161905Y-61905038D01*
X188161905Y-61905038D02*
X188257143Y-61857419D01*
X188257143Y-61857419D02*
X188495238Y-61857419D01*
X188495238Y-61857419D02*
X188638095Y-61905038D01*
X188971429Y-61857419D02*
X189209524Y-62857419D01*
X189209524Y-62857419D02*
X189400000Y-62143133D01*
X189400000Y-62143133D02*
X189590476Y-62857419D01*
X189590476Y-62857419D02*
X189828572Y-61857419D01*
X190733333Y-62857419D02*
X190161905Y-62857419D01*
X190447619Y-62857419D02*
X190447619Y-61857419D01*
X190447619Y-61857419D02*
X190352381Y-62000276D01*
X190352381Y-62000276D02*
X190257143Y-62095514D01*
X190257143Y-62095514D02*
X190161905Y-62143133D01*
X193157419Y-54733333D02*
X193871704Y-54733333D01*
X193871704Y-54733333D02*
X194014561Y-54780952D01*
X194014561Y-54780952D02*
X194109800Y-54876190D01*
X194109800Y-54876190D02*
X194157419Y-55019047D01*
X194157419Y-55019047D02*
X194157419Y-55114285D01*
X193157419Y-54352380D02*
X193157419Y-53733333D01*
X193157419Y-53733333D02*
X193538371Y-54066666D01*
X193538371Y-54066666D02*
X193538371Y-53923809D01*
X193538371Y-53923809D02*
X193585990Y-53828571D01*
X193585990Y-53828571D02*
X193633609Y-53780952D01*
X193633609Y-53780952D02*
X193728847Y-53733333D01*
X193728847Y-53733333D02*
X193966942Y-53733333D01*
X193966942Y-53733333D02*
X194062180Y-53780952D01*
X194062180Y-53780952D02*
X194109800Y-53828571D01*
X194109800Y-53828571D02*
X194157419Y-53923809D01*
X194157419Y-53923809D02*
X194157419Y-54209523D01*
X194157419Y-54209523D02*
X194109800Y-54304761D01*
X194109800Y-54304761D02*
X194062180Y-54352380D01*
X185442580Y-65316666D02*
X184728295Y-65316666D01*
X184728295Y-65316666D02*
X184585438Y-65269047D01*
X184585438Y-65269047D02*
X184490200Y-65173809D01*
X184490200Y-65173809D02*
X184442580Y-65030952D01*
X184442580Y-65030952D02*
X184442580Y-64935714D01*
X184442580Y-66316666D02*
X184442580Y-65745238D01*
X184442580Y-66030952D02*
X185442580Y-66030952D01*
X185442580Y-66030952D02*
X185299723Y-65935714D01*
X185299723Y-65935714D02*
X185204485Y-65840476D01*
X185204485Y-65840476D02*
X185156866Y-65745238D01*
%TO.C,U2*%
X172240000Y-73670000D02*
X172875000Y-73670000D01*
X172875000Y-71130000D01*
X172240000Y-71130000D01*
X172240000Y-73670000D01*
X172400000Y-74950000D02*
X192390000Y-74950000D01*
X192390000Y-69880000D01*
X172400000Y-69880000D01*
X172400000Y-74950000D01*
%TO.C,D1*%
X203310000Y-61900000D02*
X205200000Y-61900000D01*
X210200000Y-61900000D02*
X211920000Y-61900000D01*
X210200000Y-60600000D02*
X205200000Y-60600000D01*
X205200000Y-63200000D01*
X210200000Y-63200000D01*
X210200000Y-60600000D01*
%TO.C,J2*%
X178150000Y-83600000D02*
X185150000Y-83600000D01*
X185150000Y-77900000D01*
X178150000Y-77900000D01*
X178150000Y-83600000D01*
%TO.C,R1*%
X193810000Y-65000000D02*
X195700000Y-65000000D01*
X200700000Y-65000000D02*
X202420000Y-65000000D01*
X200700000Y-63700000D02*
X195700000Y-63700000D01*
X195700000Y-66300000D01*
X200700000Y-66300000D01*
X200700000Y-63700000D01*
D12*
%TO.C,J4*%
X202167500Y-53592500D02*
X205167500Y-53592500D01*
X202167500Y-56592500D02*
X202167500Y-53592500D01*
X202667500Y-54042500D02*
X213717500Y-54042500D01*
X202667500Y-59892500D02*
X202667500Y-54042500D01*
X202667500Y-59892500D02*
X205317500Y-59892500D01*
X205567500Y-59892500D02*
X206167500Y-59892500D01*
X206417500Y-59892500D02*
X209917500Y-59892500D01*
X210167500Y-59892500D02*
X210767500Y-59892500D01*
X211067500Y-59892500D02*
X213717500Y-59892500D01*
X213717500Y-59892500D02*
X213717500Y-54042500D01*
D10*
%TO.C,D2*%
X220100000Y-62000000D02*
X218380000Y-62000000D01*
X226990000Y-62000000D02*
X225100000Y-62000000D01*
X220100000Y-63300000D02*
X225100000Y-63300000D01*
X225100000Y-60700000D01*
X220100000Y-60700000D01*
X220100000Y-63300000D01*
%TO.C,U1*%
X229232000Y-64390000D02*
X206372000Y-64390000D01*
X206372000Y-82170000D01*
X229232000Y-82170000D01*
X229232000Y-64390000D01*
X230502000Y-68835000D02*
X229232000Y-68835000D01*
X229232000Y-77725000D01*
X230502000Y-77725000D01*
X230502000Y-68835000D01*
%TO.C,SW1*%
D13*
X186968000Y-52228000D02*
X191032000Y-52228000D01*
X191032000Y-61372000D01*
X186968000Y-61372000D01*
X186968000Y-52228000D01*
%TO.C,J3*%
D10*
X192050000Y-59000000D02*
X199050000Y-59000000D01*
X199050000Y-53300000D01*
X192050000Y-53300000D01*
X192050000Y-59000000D01*
%TO.C,J1*%
X186550000Y-61050000D02*
X179550000Y-61050000D01*
X179550000Y-66750000D01*
X186550000Y-66750000D01*
X186550000Y-61050000D01*
%TD*%
M02*
