%TF.GenerationSoftware,KiCad,Pcbnew,9.0.0*%
%TF.CreationDate,2025-03-09T22:47:04+01:00*%
%TF.ProjectId,Kicad,4b696361-642e-46b6-9963-61645f706362,rev?*%
%TF.SameCoordinates,Original*%
%TF.FileFunction,Copper,L1,Top*%
%TF.FilePolarity,Positive*%
%FSLAX46Y46*%
G04 Gerber Fmt 4.6, Leading zero omitted, Abs format (unit mm)*
G04 Created by KiCad (PCBNEW 9.0.0) date 2025-03-09 22:47:04*
%MOMM*%
%LPD*%
G01*
G04 APERTURE LIST*
%TA.AperFunction,ComponentPad*%
%ADD10C,2.000000*%
%TD*%
%TA.AperFunction,ComponentPad*%
%ADD11C,2.540000*%
%TD*%
%TA.AperFunction,ComponentPad*%
%ADD12R,1.524000X1.524000*%
%TD*%
%TA.AperFunction,ComponentPad*%
%ADD13C,1.524000*%
%TD*%
%TA.AperFunction,Conductor*%
%ADD14C,0.250000*%
%TD*%
%TA.AperFunction,Conductor*%
%ADD15C,0.800000*%
%TD*%
%TA.AperFunction,Conductor*%
%ADD16C,0.600000*%
%TD*%
G04 APERTURE END LIST*
D10*
%TO.P,U2,1,EN12*%
%TO.N,Net-(U1-GPIO2)*%
X173510000Y-76210000D03*
%TO.P,U2,2,1A*%
%TO.N,Net-(U1-GPIO1)*%
X176050000Y-76210000D03*
%TO.P,U2,3,1Y*%
%TO.N,Net-(U2-1Y)*%
X178590000Y-76210000D03*
%TO.P,U2,4,GND*%
%TO.N,GND*%
X181130000Y-76210000D03*
%TO.P,U2,5,GND*%
X183670000Y-76210000D03*
%TO.P,U2,6,2Y*%
%TO.N,Net-(U2-2Y)*%
X186210000Y-76210000D03*
%TO.P,U2,7,2A*%
%TO.N,Net-(U1-GPIO0)*%
X188750000Y-76210000D03*
%TO.P,U2,8,VM*%
%TO.N,Net-(SW1-A)*%
X191290000Y-76210000D03*
%TO.P,U2,9,EN34*%
%TO.N,Net-(U1-GPIO7)*%
X191290000Y-68590000D03*
%TO.P,U2,10,4A*%
%TO.N,Net-(U1-GPIO6)*%
X188750000Y-68590000D03*
%TO.P,U2,11,4Y*%
%TO.N,Net-(U2-4Y)*%
X186210000Y-68590000D03*
%TO.P,U2,12,GND*%
%TO.N,GND*%
X183670000Y-68590000D03*
%TO.P,U2,13,GND*%
X181130000Y-68590000D03*
%TO.P,U2,14,3Y*%
%TO.N,Net-(U2-3Y)*%
X178590000Y-68590000D03*
%TO.P,U2,15,3A*%
%TO.N,Net-(U1-GPIO5)*%
X176050000Y-68590000D03*
%TO.P,U2,16,5V*%
%TO.N,Net-(SW1-A)*%
X173510000Y-68590000D03*
%TD*%
D11*
%TO.P,D1,1*%
%TO.N,Net-(SW1-A)*%
X213700000Y-61900000D03*
%TO.P,D1,2*%
%TO.N,Net-(J4-Pin_2)*%
X201700000Y-61900000D03*
%TD*%
D10*
%TO.P,J2,1,1*%
%TO.N,Net-(U2-2Y)*%
X183200000Y-81300000D03*
%TO.P,J2,2,2*%
%TO.N,Net-(U2-1Y)*%
X180660000Y-81300000D03*
%TD*%
D11*
%TO.P,R1,1*%
%TO.N,Net-(U1-GPIO7)*%
X204200000Y-65000000D03*
%TO.P,R1,2*%
%TO.N,GND*%
X192200000Y-65000000D03*
%TD*%
D12*
%TO.P,J4,1,Pin_1*%
%TO.N,GND*%
X205167500Y-56592500D03*
D13*
%TO.P,J4,2,Pin_2*%
%TO.N,Net-(J4-Pin_2)*%
X207167500Y-56592500D03*
%TO.P,J4,3,Pin_3*%
%TO.N,Net-(J4-Pin_3)*%
X209167500Y-56592500D03*
%TO.P,J4,4,Pin_4*%
%TO.N,Net-(J4-Pin_4)*%
X211167500Y-56592500D03*
%TD*%
D11*
%TO.P,D2,1*%
%TO.N,Net-(SW1-A)*%
X216600000Y-62000000D03*
%TO.P,D2,2*%
%TO.N,+5V*%
X228600000Y-62000000D03*
%TD*%
D10*
%TO.P,U1,1,5V*%
%TO.N,+5V*%
X227200000Y-80900000D03*
%TO.P,U1,2,GND*%
%TO.N,GND*%
X224660000Y-80900000D03*
%TO.P,U1,6,GPIO2*%
%TO.N,Net-(U1-GPIO2)*%
X214500000Y-80900000D03*
%TO.P,U1,7,GPIO1*%
%TO.N,Net-(U1-GPIO1)*%
X211960000Y-80900000D03*
%TO.P,U1,8,GPIO0*%
%TO.N,Net-(U1-GPIO0)*%
X209420000Y-80900000D03*
%TO.P,U1,9,GPIO5*%
%TO.N,Net-(U1-GPIO5)*%
X227200000Y-65660000D03*
%TO.P,U1,10,GPIO6*%
%TO.N,Net-(U1-GPIO6)*%
X224660000Y-65660000D03*
%TO.P,U1,11,GPIO7*%
%TO.N,Net-(U1-GPIO7)*%
X222120000Y-65660000D03*
%TO.P,U1,15,GPIO20*%
%TO.N,Net-(J4-Pin_4)*%
X211960000Y-65660000D03*
%TO.P,U1,16,GPIO21*%
%TO.N,Net-(J4-Pin_3)*%
X209420000Y-65660000D03*
%TD*%
%TO.P,SW1,1,A*%
%TO.N,Net-(SW1-A)*%
X189000000Y-54260000D03*
%TO.P,SW1,2,B*%
%TO.N,Net-(SW1-B)*%
X189000000Y-56800000D03*
%TO.P,SW1,3,C*%
X189000000Y-59340000D03*
%TD*%
%TO.P,J3,1,1*%
%TO.N,GND*%
X197100000Y-56700000D03*
%TO.P,J3,2,2*%
%TO.N,Net-(SW1-B)*%
X194560000Y-56700000D03*
%TD*%
%TO.P,J1,1,1*%
%TO.N,Net-(U2-3Y)*%
X181500000Y-63350000D03*
%TO.P,J1,2,2*%
%TO.N,Net-(U2-4Y)*%
X184040000Y-63350000D03*
%TD*%
D14*
%TO.N,Net-(U1-GPIO2)*%
X173510000Y-79190000D02*
X173510000Y-76210000D01*
X173500000Y-79200000D02*
X173510000Y-79190000D01*
X178300000Y-84000000D02*
X173500000Y-79200000D01*
X211400000Y-84000000D02*
X178300000Y-84000000D01*
X214500000Y-80900000D02*
X211400000Y-84000000D01*
D15*
%TO.N,Net-(J4-Pin_2)*%
X204700000Y-58900000D02*
X206200000Y-58900000D01*
X207167500Y-57932500D02*
X207167500Y-56592500D01*
X201700000Y-61900000D02*
X204700000Y-58900000D01*
X206200000Y-58900000D02*
X207167500Y-57932500D01*
%TO.N,Net-(SW1-A)*%
X190360000Y-52900000D02*
X214200000Y-52900000D01*
X173510000Y-68590000D02*
X173510000Y-71210000D01*
X213700000Y-61900000D02*
X215200000Y-61900000D01*
X215200000Y-61900000D02*
X216500000Y-61900000D01*
X216500000Y-61900000D02*
X216600000Y-62000000D01*
X189080000Y-74000000D02*
X191290000Y-76210000D01*
X173510000Y-71210000D02*
X176300000Y-74000000D01*
X187101000Y-60899000D02*
X186900000Y-61100000D01*
X215200000Y-53900000D02*
X215200000Y-61900000D01*
X181000000Y-61100000D02*
X173510000Y-68590000D01*
X186900000Y-61100000D02*
X181000000Y-61100000D01*
X189000000Y-54260000D02*
X187101000Y-56159000D01*
X187101000Y-56159000D02*
X187101000Y-60899000D01*
X213700000Y-61900000D02*
X216500000Y-61900000D01*
X176300000Y-74000000D02*
X189080000Y-74000000D01*
X189000000Y-54260000D02*
X190360000Y-52900000D01*
X214200000Y-52900000D02*
X215200000Y-53900000D01*
%TO.N,+5V*%
X229870000Y-63270000D02*
X229870000Y-78230000D01*
X228600000Y-62000000D02*
X229870000Y-63270000D01*
X229870000Y-78230000D02*
X227200000Y-80900000D01*
%TO.N,GND*%
X205035000Y-56725000D02*
X205167500Y-56592500D01*
X197050000Y-56725000D02*
X205035000Y-56725000D01*
D14*
%TO.N,Net-(J4-Pin_3)*%
X209167500Y-56592500D02*
X209167500Y-65407500D01*
X209867500Y-65212500D02*
X209420000Y-65660000D01*
X209167500Y-65407500D02*
X209420000Y-65660000D01*
%TO.N,Net-(J4-Pin_4)*%
X211167500Y-56592500D02*
X211167500Y-64867500D01*
X211167500Y-64867500D02*
X211960000Y-65660000D01*
%TO.N,Net-(U1-GPIO7)*%
X222120000Y-65660000D02*
X219190000Y-68590000D01*
X204200000Y-68590000D02*
X201800000Y-68590000D01*
X201800000Y-68590000D02*
X191290000Y-68590000D01*
X204200000Y-65000000D02*
X204200000Y-68590000D01*
X219190000Y-68590000D02*
X204200000Y-68590000D01*
%TO.N,Net-(U1-GPIO6)*%
X224660000Y-65660000D02*
X219020000Y-71300000D01*
X219020000Y-71300000D02*
X191460000Y-71300000D01*
X191460000Y-71300000D02*
X188750000Y-68590000D01*
%TO.N,Net-(U1-GPIO5)*%
X176050000Y-70750000D02*
X176050000Y-68590000D01*
X177500000Y-72700000D02*
X176000000Y-71200000D01*
X227200000Y-65660000D02*
X220160000Y-72700000D01*
X176000000Y-70800000D02*
X176050000Y-70750000D01*
X176000000Y-71200000D02*
X176000000Y-70800000D01*
X220160000Y-72700000D02*
X177500000Y-72700000D01*
%TO.N,Net-(U1-GPIO0)*%
X209420000Y-80900000D02*
X193440000Y-80900000D01*
X193440000Y-80900000D02*
X188750000Y-76210000D01*
%TO.N,Net-(U1-GPIO1)*%
X178500000Y-83000000D02*
X176050000Y-80550000D01*
X176050000Y-80550000D02*
X176050000Y-76210000D01*
X211960000Y-80900000D02*
X209860000Y-83000000D01*
X209860000Y-83000000D02*
X178500000Y-83000000D01*
D16*
%TO.N,Net-(U2-4Y)*%
X184040000Y-63350000D02*
X186300000Y-65610000D01*
X186300000Y-66400000D02*
X186210000Y-66490000D01*
X186300000Y-65610000D02*
X186300000Y-66400000D01*
X186210000Y-66490000D02*
X186210000Y-68590000D01*
%TO.N,Net-(U2-3Y)*%
X178900000Y-66000000D02*
X178900000Y-65950000D01*
X178900000Y-65950000D02*
X181500000Y-63350000D01*
X178590000Y-68590000D02*
X178590000Y-66310000D01*
X178590000Y-66310000D02*
X178900000Y-66000000D01*
%TO.N,Net-(U2-1Y)*%
X179500000Y-80140000D02*
X180660000Y-81300000D01*
X179500000Y-80100000D02*
X179500000Y-80140000D01*
X178590000Y-79190000D02*
X179500000Y-80100000D01*
X178590000Y-76210000D02*
X178590000Y-79190000D01*
%TO.N,Net-(U2-2Y)*%
X186200000Y-76220000D02*
X186200000Y-78300000D01*
X186200000Y-78300000D02*
X183200000Y-81300000D01*
X183640000Y-80700000D02*
X183700000Y-80700000D01*
X186210000Y-76210000D02*
X186200000Y-76220000D01*
D15*
%TO.N,Net-(SW1-B)*%
X189075000Y-56725000D02*
X189000000Y-56800000D01*
X194510000Y-56725000D02*
X189075000Y-56725000D01*
D16*
X189000000Y-59340000D02*
X189000000Y-56800000D01*
%TD*%
M02*
