%TF.GenerationSoftware,KiCad,Pcbnew,9.0.0*%
%TF.CreationDate,2025-03-14T15:10:24+01:00*%
%TF.ProjectId,Kicad,4b696361-642e-46b6-9963-61645f706362,rev?*%
%TF.SameCoordinates,Original*%
%TF.FileFunction,Legend,Top*%
%TF.FilePolarity,Positive*%
%FSLAX46Y46*%
G04 Gerber Fmt 4.6, Leading zero omitted, Abs format (unit mm)*
G04 Created by KiCad (PCBNEW 9.0.0) date 2025-03-14 15:10:24*
%MOMM*%
%LPD*%
G01*
G04 APERTURE LIST*
%ADD10C,0.100000*%
%ADD11C,0.150000*%
%ADD12C,0.120000*%
%ADD13C,0.200000*%
G04 APERTURE END LIST*
D10*
X185392580Y-65116666D02*
X184678295Y-65116666D01*
X184678295Y-65116666D02*
X184535438Y-65069047D01*
X184535438Y-65069047D02*
X184440200Y-64973809D01*
X184440200Y-64973809D02*
X184392580Y-64830952D01*
X184392580Y-64830952D02*
X184392580Y-64735714D01*
X184392580Y-66116666D02*
X184392580Y-65545238D01*
X184392580Y-65830952D02*
X185392580Y-65830952D01*
X185392580Y-65830952D02*
X185249723Y-65735714D01*
X185249723Y-65735714D02*
X185154485Y-65640476D01*
X185154485Y-65640476D02*
X185106866Y-65545238D01*
X179007419Y-79583333D02*
X179721704Y-79583333D01*
X179721704Y-79583333D02*
X179864561Y-79630952D01*
X179864561Y-79630952D02*
X179959800Y-79726190D01*
X179959800Y-79726190D02*
X180007419Y-79869047D01*
X180007419Y-79869047D02*
X180007419Y-79964285D01*
X179102657Y-79154761D02*
X179055038Y-79107142D01*
X179055038Y-79107142D02*
X179007419Y-79011904D01*
X179007419Y-79011904D02*
X179007419Y-78773809D01*
X179007419Y-78773809D02*
X179055038Y-78678571D01*
X179055038Y-78678571D02*
X179102657Y-78630952D01*
X179102657Y-78630952D02*
X179197895Y-78583333D01*
X179197895Y-78583333D02*
X179293133Y-78583333D01*
X179293133Y-78583333D02*
X179435990Y-78630952D01*
X179435990Y-78630952D02*
X180007419Y-79202380D01*
X180007419Y-79202380D02*
X180007419Y-78583333D01*
X193607419Y-54683333D02*
X194321704Y-54683333D01*
X194321704Y-54683333D02*
X194464561Y-54730952D01*
X194464561Y-54730952D02*
X194559800Y-54826190D01*
X194559800Y-54826190D02*
X194607419Y-54969047D01*
X194607419Y-54969047D02*
X194607419Y-55064285D01*
X193607419Y-54302380D02*
X193607419Y-53683333D01*
X193607419Y-53683333D02*
X193988371Y-54016666D01*
X193988371Y-54016666D02*
X193988371Y-53873809D01*
X193988371Y-53873809D02*
X194035990Y-53778571D01*
X194035990Y-53778571D02*
X194083609Y-53730952D01*
X194083609Y-53730952D02*
X194178847Y-53683333D01*
X194178847Y-53683333D02*
X194416942Y-53683333D01*
X194416942Y-53683333D02*
X194512180Y-53730952D01*
X194512180Y-53730952D02*
X194559800Y-53778571D01*
X194559800Y-53778571D02*
X194607419Y-53873809D01*
X194607419Y-53873809D02*
X194607419Y-54159523D01*
X194607419Y-54159523D02*
X194559800Y-54254761D01*
X194559800Y-54254761D02*
X194512180Y-54302380D01*
X200287819Y-63933333D02*
X200240200Y-63885714D01*
X200240200Y-63885714D02*
X200192580Y-63742857D01*
X200192580Y-63742857D02*
X200192580Y-63647619D01*
X200192580Y-63647619D02*
X200240200Y-63504762D01*
X200240200Y-63504762D02*
X200335438Y-63409524D01*
X200335438Y-63409524D02*
X200430676Y-63361905D01*
X200430676Y-63361905D02*
X200621152Y-63314286D01*
X200621152Y-63314286D02*
X200764009Y-63314286D01*
X200764009Y-63314286D02*
X200954485Y-63361905D01*
X200954485Y-63361905D02*
X201049723Y-63409524D01*
X201049723Y-63409524D02*
X201144961Y-63504762D01*
X201144961Y-63504762D02*
X201192580Y-63647619D01*
X201192580Y-63647619D02*
X201192580Y-63742857D01*
X201192580Y-63742857D02*
X201144961Y-63885714D01*
X201144961Y-63885714D02*
X201097342Y-63933333D01*
X200192580Y-64885714D02*
X200192580Y-64314286D01*
X200192580Y-64600000D02*
X201192580Y-64600000D01*
X201192580Y-64600000D02*
X201049723Y-64504762D01*
X201049723Y-64504762D02*
X200954485Y-64409524D01*
X200954485Y-64409524D02*
X200906866Y-64314286D01*
X193758533Y-65603884D02*
X193758533Y-66365789D01*
X193377580Y-65984836D02*
X194139485Y-65984836D01*
X197258533Y-65603884D02*
X197258533Y-66365789D01*
X206961905Y-62357419D02*
X206961905Y-61357419D01*
X206961905Y-61357419D02*
X207200000Y-61357419D01*
X207200000Y-61357419D02*
X207342857Y-61405038D01*
X207342857Y-61405038D02*
X207438095Y-61500276D01*
X207438095Y-61500276D02*
X207485714Y-61595514D01*
X207485714Y-61595514D02*
X207533333Y-61785990D01*
X207533333Y-61785990D02*
X207533333Y-61928847D01*
X207533333Y-61928847D02*
X207485714Y-62119323D01*
X207485714Y-62119323D02*
X207438095Y-62214561D01*
X207438095Y-62214561D02*
X207342857Y-62309800D01*
X207342857Y-62309800D02*
X207200000Y-62357419D01*
X207200000Y-62357419D02*
X206961905Y-62357419D01*
X208485714Y-62357419D02*
X207914286Y-62357419D01*
X208200000Y-62357419D02*
X208200000Y-61357419D01*
X208200000Y-61357419D02*
X208104762Y-61500276D01*
X208104762Y-61500276D02*
X208009524Y-61595514D01*
X208009524Y-61595514D02*
X207914286Y-61643133D01*
X202057419Y-71666666D02*
X201581228Y-71999999D01*
X202057419Y-72238094D02*
X201057419Y-72238094D01*
X201057419Y-72238094D02*
X201057419Y-71857142D01*
X201057419Y-71857142D02*
X201105038Y-71761904D01*
X201105038Y-71761904D02*
X201152657Y-71714285D01*
X201152657Y-71714285D02*
X201247895Y-71666666D01*
X201247895Y-71666666D02*
X201390752Y-71666666D01*
X201390752Y-71666666D02*
X201485990Y-71714285D01*
X201485990Y-71714285D02*
X201533609Y-71761904D01*
X201533609Y-71761904D02*
X201581228Y-71857142D01*
X201581228Y-71857142D02*
X201581228Y-72238094D01*
X202057419Y-70714285D02*
X202057419Y-71285713D01*
X202057419Y-70999999D02*
X201057419Y-70999999D01*
X201057419Y-70999999D02*
X201200276Y-71095237D01*
X201200276Y-71095237D02*
X201295514Y-71190475D01*
X201295514Y-71190475D02*
X201343133Y-71285713D01*
D11*
X200966666Y-57954819D02*
X200966666Y-58669104D01*
X200966666Y-58669104D02*
X200919047Y-58811961D01*
X200919047Y-58811961D02*
X200823809Y-58907200D01*
X200823809Y-58907200D02*
X200680952Y-58954819D01*
X200680952Y-58954819D02*
X200585714Y-58954819D01*
X201871428Y-58288152D02*
X201871428Y-58954819D01*
X201633333Y-57907200D02*
X201395238Y-58621485D01*
X201395238Y-58621485D02*
X202014285Y-58621485D01*
D10*
X221361905Y-62457419D02*
X221361905Y-61457419D01*
X221361905Y-61457419D02*
X221600000Y-61457419D01*
X221600000Y-61457419D02*
X221742857Y-61505038D01*
X221742857Y-61505038D02*
X221838095Y-61600276D01*
X221838095Y-61600276D02*
X221885714Y-61695514D01*
X221885714Y-61695514D02*
X221933333Y-61885990D01*
X221933333Y-61885990D02*
X221933333Y-62028847D01*
X221933333Y-62028847D02*
X221885714Y-62219323D01*
X221885714Y-62219323D02*
X221838095Y-62314561D01*
X221838095Y-62314561D02*
X221742857Y-62409800D01*
X221742857Y-62409800D02*
X221600000Y-62457419D01*
X221600000Y-62457419D02*
X221361905Y-62457419D01*
X222314286Y-61552657D02*
X222361905Y-61505038D01*
X222361905Y-61505038D02*
X222457143Y-61457419D01*
X222457143Y-61457419D02*
X222695238Y-61457419D01*
X222695238Y-61457419D02*
X222790476Y-61505038D01*
X222790476Y-61505038D02*
X222838095Y-61552657D01*
X222838095Y-61552657D02*
X222885714Y-61647895D01*
X222885714Y-61647895D02*
X222885714Y-61743133D01*
X222885714Y-61743133D02*
X222838095Y-61885990D01*
X222838095Y-61885990D02*
X222266667Y-62457419D01*
X222266667Y-62457419D02*
X222885714Y-62457419D01*
X214684961Y-67757693D02*
X214732580Y-67662455D01*
X214732580Y-67662455D02*
X214732580Y-67519598D01*
X214732580Y-67519598D02*
X214684961Y-67376741D01*
X214684961Y-67376741D02*
X214589723Y-67281503D01*
X214589723Y-67281503D02*
X214494485Y-67233884D01*
X214494485Y-67233884D02*
X214304009Y-67186265D01*
X214304009Y-67186265D02*
X214161152Y-67186265D01*
X214161152Y-67186265D02*
X213970676Y-67233884D01*
X213970676Y-67233884D02*
X213875438Y-67281503D01*
X213875438Y-67281503D02*
X213780200Y-67376741D01*
X213780200Y-67376741D02*
X213732580Y-67519598D01*
X213732580Y-67519598D02*
X213732580Y-67614836D01*
X213732580Y-67614836D02*
X213780200Y-67757693D01*
X213780200Y-67757693D02*
X213827819Y-67805312D01*
X213827819Y-67805312D02*
X214161152Y-67805312D01*
X214161152Y-67805312D02*
X214161152Y-67614836D01*
X213732580Y-68233884D02*
X214732580Y-68233884D01*
X214732580Y-68233884D02*
X214732580Y-68614836D01*
X214732580Y-68614836D02*
X214684961Y-68710074D01*
X214684961Y-68710074D02*
X214637342Y-68757693D01*
X214637342Y-68757693D02*
X214542104Y-68805312D01*
X214542104Y-68805312D02*
X214399247Y-68805312D01*
X214399247Y-68805312D02*
X214304009Y-68757693D01*
X214304009Y-68757693D02*
X214256390Y-68710074D01*
X214256390Y-68710074D02*
X214208771Y-68614836D01*
X214208771Y-68614836D02*
X214208771Y-68233884D01*
X213732580Y-69233884D02*
X214732580Y-69233884D01*
X214732580Y-69900550D02*
X214732580Y-70091026D01*
X214732580Y-70091026D02*
X214684961Y-70186264D01*
X214684961Y-70186264D02*
X214589723Y-70281502D01*
X214589723Y-70281502D02*
X214399247Y-70329121D01*
X214399247Y-70329121D02*
X214065914Y-70329121D01*
X214065914Y-70329121D02*
X213875438Y-70281502D01*
X213875438Y-70281502D02*
X213780200Y-70186264D01*
X213780200Y-70186264D02*
X213732580Y-70091026D01*
X213732580Y-70091026D02*
X213732580Y-69900550D01*
X213732580Y-69900550D02*
X213780200Y-69805312D01*
X213780200Y-69805312D02*
X213875438Y-69710074D01*
X213875438Y-69710074D02*
X214065914Y-69662455D01*
X214065914Y-69662455D02*
X214399247Y-69662455D01*
X214399247Y-69662455D02*
X214589723Y-69710074D01*
X214589723Y-69710074D02*
X214684961Y-69805312D01*
X214684961Y-69805312D02*
X214732580Y-69900550D01*
X213732580Y-70805312D02*
X213732580Y-70995788D01*
X213732580Y-70995788D02*
X213780200Y-71091026D01*
X213780200Y-71091026D02*
X213827819Y-71138645D01*
X213827819Y-71138645D02*
X213970676Y-71233883D01*
X213970676Y-71233883D02*
X214161152Y-71281502D01*
X214161152Y-71281502D02*
X214542104Y-71281502D01*
X214542104Y-71281502D02*
X214637342Y-71233883D01*
X214637342Y-71233883D02*
X214684961Y-71186264D01*
X214684961Y-71186264D02*
X214732580Y-71091026D01*
X214732580Y-71091026D02*
X214732580Y-70900550D01*
X214732580Y-70900550D02*
X214684961Y-70805312D01*
X214684961Y-70805312D02*
X214637342Y-70757693D01*
X214637342Y-70757693D02*
X214542104Y-70710074D01*
X214542104Y-70710074D02*
X214304009Y-70710074D01*
X214304009Y-70710074D02*
X214208771Y-70757693D01*
X214208771Y-70757693D02*
X214161152Y-70805312D01*
X214161152Y-70805312D02*
X214113533Y-70900550D01*
X214113533Y-70900550D02*
X214113533Y-71091026D01*
X214113533Y-71091026D02*
X214161152Y-71186264D01*
X214161152Y-71186264D02*
X214208771Y-71233883D01*
X214208771Y-71233883D02*
X214304009Y-71281502D01*
X224892580Y-78505074D02*
X224892580Y-78028884D01*
X224892580Y-78028884D02*
X224416390Y-77981265D01*
X224416390Y-77981265D02*
X224464009Y-78028884D01*
X224464009Y-78028884D02*
X224511628Y-78124122D01*
X224511628Y-78124122D02*
X224511628Y-78362217D01*
X224511628Y-78362217D02*
X224464009Y-78457455D01*
X224464009Y-78457455D02*
X224416390Y-78505074D01*
X224416390Y-78505074D02*
X224321152Y-78552693D01*
X224321152Y-78552693D02*
X224083057Y-78552693D01*
X224083057Y-78552693D02*
X223987819Y-78505074D01*
X223987819Y-78505074D02*
X223940200Y-78457455D01*
X223940200Y-78457455D02*
X223892580Y-78362217D01*
X223892580Y-78362217D02*
X223892580Y-78124122D01*
X223892580Y-78124122D02*
X223940200Y-78028884D01*
X223940200Y-78028884D02*
X223987819Y-77981265D01*
X224892580Y-78838408D02*
X223892580Y-79171741D01*
X223892580Y-79171741D02*
X224892580Y-79505074D01*
X219764961Y-67757693D02*
X219812580Y-67662455D01*
X219812580Y-67662455D02*
X219812580Y-67519598D01*
X219812580Y-67519598D02*
X219764961Y-67376741D01*
X219764961Y-67376741D02*
X219669723Y-67281503D01*
X219669723Y-67281503D02*
X219574485Y-67233884D01*
X219574485Y-67233884D02*
X219384009Y-67186265D01*
X219384009Y-67186265D02*
X219241152Y-67186265D01*
X219241152Y-67186265D02*
X219050676Y-67233884D01*
X219050676Y-67233884D02*
X218955438Y-67281503D01*
X218955438Y-67281503D02*
X218860200Y-67376741D01*
X218860200Y-67376741D02*
X218812580Y-67519598D01*
X218812580Y-67519598D02*
X218812580Y-67614836D01*
X218812580Y-67614836D02*
X218860200Y-67757693D01*
X218860200Y-67757693D02*
X218907819Y-67805312D01*
X218907819Y-67805312D02*
X219241152Y-67805312D01*
X219241152Y-67805312D02*
X219241152Y-67614836D01*
X218812580Y-68233884D02*
X219812580Y-68233884D01*
X219812580Y-68233884D02*
X219812580Y-68614836D01*
X219812580Y-68614836D02*
X219764961Y-68710074D01*
X219764961Y-68710074D02*
X219717342Y-68757693D01*
X219717342Y-68757693D02*
X219622104Y-68805312D01*
X219622104Y-68805312D02*
X219479247Y-68805312D01*
X219479247Y-68805312D02*
X219384009Y-68757693D01*
X219384009Y-68757693D02*
X219336390Y-68710074D01*
X219336390Y-68710074D02*
X219288771Y-68614836D01*
X219288771Y-68614836D02*
X219288771Y-68233884D01*
X218812580Y-69233884D02*
X219812580Y-69233884D01*
X219812580Y-69900550D02*
X219812580Y-70091026D01*
X219812580Y-70091026D02*
X219764961Y-70186264D01*
X219764961Y-70186264D02*
X219669723Y-70281502D01*
X219669723Y-70281502D02*
X219479247Y-70329121D01*
X219479247Y-70329121D02*
X219145914Y-70329121D01*
X219145914Y-70329121D02*
X218955438Y-70281502D01*
X218955438Y-70281502D02*
X218860200Y-70186264D01*
X218860200Y-70186264D02*
X218812580Y-70091026D01*
X218812580Y-70091026D02*
X218812580Y-69900550D01*
X218812580Y-69900550D02*
X218860200Y-69805312D01*
X218860200Y-69805312D02*
X218955438Y-69710074D01*
X218955438Y-69710074D02*
X219145914Y-69662455D01*
X219145914Y-69662455D02*
X219479247Y-69662455D01*
X219479247Y-69662455D02*
X219669723Y-69710074D01*
X219669723Y-69710074D02*
X219764961Y-69805312D01*
X219764961Y-69805312D02*
X219812580Y-69900550D01*
X219812580Y-70662455D02*
X219812580Y-71329121D01*
X219812580Y-71329121D02*
X218812580Y-70900550D01*
X219812580Y-76663646D02*
X219812580Y-77282693D01*
X219812580Y-77282693D02*
X219431628Y-76949360D01*
X219431628Y-76949360D02*
X219431628Y-77092217D01*
X219431628Y-77092217D02*
X219384009Y-77187455D01*
X219384009Y-77187455D02*
X219336390Y-77235074D01*
X219336390Y-77235074D02*
X219241152Y-77282693D01*
X219241152Y-77282693D02*
X219003057Y-77282693D01*
X219003057Y-77282693D02*
X218907819Y-77235074D01*
X218907819Y-77235074D02*
X218860200Y-77187455D01*
X218860200Y-77187455D02*
X218812580Y-77092217D01*
X218812580Y-77092217D02*
X218812580Y-76806503D01*
X218812580Y-76806503D02*
X218860200Y-76711265D01*
X218860200Y-76711265D02*
X218907819Y-76663646D01*
X218907819Y-77711265D02*
X218860200Y-77758884D01*
X218860200Y-77758884D02*
X218812580Y-77711265D01*
X218812580Y-77711265D02*
X218860200Y-77663646D01*
X218860200Y-77663646D02*
X218907819Y-77711265D01*
X218907819Y-77711265D02*
X218812580Y-77711265D01*
X219812580Y-78092217D02*
X219812580Y-78711264D01*
X219812580Y-78711264D02*
X219431628Y-78377931D01*
X219431628Y-78377931D02*
X219431628Y-78520788D01*
X219431628Y-78520788D02*
X219384009Y-78616026D01*
X219384009Y-78616026D02*
X219336390Y-78663645D01*
X219336390Y-78663645D02*
X219241152Y-78711264D01*
X219241152Y-78711264D02*
X219003057Y-78711264D01*
X219003057Y-78711264D02*
X218907819Y-78663645D01*
X218907819Y-78663645D02*
X218860200Y-78616026D01*
X218860200Y-78616026D02*
X218812580Y-78520788D01*
X218812580Y-78520788D02*
X218812580Y-78235074D01*
X218812580Y-78235074D02*
X218860200Y-78139836D01*
X218860200Y-78139836D02*
X218907819Y-78092217D01*
X219812580Y-78996979D02*
X218812580Y-79330312D01*
X218812580Y-79330312D02*
X219812580Y-79663645D01*
X209604961Y-76012693D02*
X209652580Y-75917455D01*
X209652580Y-75917455D02*
X209652580Y-75774598D01*
X209652580Y-75774598D02*
X209604961Y-75631741D01*
X209604961Y-75631741D02*
X209509723Y-75536503D01*
X209509723Y-75536503D02*
X209414485Y-75488884D01*
X209414485Y-75488884D02*
X209224009Y-75441265D01*
X209224009Y-75441265D02*
X209081152Y-75441265D01*
X209081152Y-75441265D02*
X208890676Y-75488884D01*
X208890676Y-75488884D02*
X208795438Y-75536503D01*
X208795438Y-75536503D02*
X208700200Y-75631741D01*
X208700200Y-75631741D02*
X208652580Y-75774598D01*
X208652580Y-75774598D02*
X208652580Y-75869836D01*
X208652580Y-75869836D02*
X208700200Y-76012693D01*
X208700200Y-76012693D02*
X208747819Y-76060312D01*
X208747819Y-76060312D02*
X209081152Y-76060312D01*
X209081152Y-76060312D02*
X209081152Y-75869836D01*
X208652580Y-76488884D02*
X209652580Y-76488884D01*
X209652580Y-76488884D02*
X209652580Y-76869836D01*
X209652580Y-76869836D02*
X209604961Y-76965074D01*
X209604961Y-76965074D02*
X209557342Y-77012693D01*
X209557342Y-77012693D02*
X209462104Y-77060312D01*
X209462104Y-77060312D02*
X209319247Y-77060312D01*
X209319247Y-77060312D02*
X209224009Y-77012693D01*
X209224009Y-77012693D02*
X209176390Y-76965074D01*
X209176390Y-76965074D02*
X209128771Y-76869836D01*
X209128771Y-76869836D02*
X209128771Y-76488884D01*
X208652580Y-77488884D02*
X209652580Y-77488884D01*
X209652580Y-78155550D02*
X209652580Y-78346026D01*
X209652580Y-78346026D02*
X209604961Y-78441264D01*
X209604961Y-78441264D02*
X209509723Y-78536502D01*
X209509723Y-78536502D02*
X209319247Y-78584121D01*
X209319247Y-78584121D02*
X208985914Y-78584121D01*
X208985914Y-78584121D02*
X208795438Y-78536502D01*
X208795438Y-78536502D02*
X208700200Y-78441264D01*
X208700200Y-78441264D02*
X208652580Y-78346026D01*
X208652580Y-78346026D02*
X208652580Y-78155550D01*
X208652580Y-78155550D02*
X208700200Y-78060312D01*
X208700200Y-78060312D02*
X208795438Y-77965074D01*
X208795438Y-77965074D02*
X208985914Y-77917455D01*
X208985914Y-77917455D02*
X209319247Y-77917455D01*
X209319247Y-77917455D02*
X209509723Y-77965074D01*
X209509723Y-77965074D02*
X209604961Y-78060312D01*
X209604961Y-78060312D02*
X209652580Y-78155550D01*
X208652580Y-79536502D02*
X208652580Y-78965074D01*
X208652580Y-79250788D02*
X209652580Y-79250788D01*
X209652580Y-79250788D02*
X209509723Y-79155550D01*
X209509723Y-79155550D02*
X209414485Y-79060312D01*
X209414485Y-79060312D02*
X209366866Y-78965074D01*
X207064961Y-76012693D02*
X207112580Y-75917455D01*
X207112580Y-75917455D02*
X207112580Y-75774598D01*
X207112580Y-75774598D02*
X207064961Y-75631741D01*
X207064961Y-75631741D02*
X206969723Y-75536503D01*
X206969723Y-75536503D02*
X206874485Y-75488884D01*
X206874485Y-75488884D02*
X206684009Y-75441265D01*
X206684009Y-75441265D02*
X206541152Y-75441265D01*
X206541152Y-75441265D02*
X206350676Y-75488884D01*
X206350676Y-75488884D02*
X206255438Y-75536503D01*
X206255438Y-75536503D02*
X206160200Y-75631741D01*
X206160200Y-75631741D02*
X206112580Y-75774598D01*
X206112580Y-75774598D02*
X206112580Y-75869836D01*
X206112580Y-75869836D02*
X206160200Y-76012693D01*
X206160200Y-76012693D02*
X206207819Y-76060312D01*
X206207819Y-76060312D02*
X206541152Y-76060312D01*
X206541152Y-76060312D02*
X206541152Y-75869836D01*
X206112580Y-76488884D02*
X207112580Y-76488884D01*
X207112580Y-76488884D02*
X207112580Y-76869836D01*
X207112580Y-76869836D02*
X207064961Y-76965074D01*
X207064961Y-76965074D02*
X207017342Y-77012693D01*
X207017342Y-77012693D02*
X206922104Y-77060312D01*
X206922104Y-77060312D02*
X206779247Y-77060312D01*
X206779247Y-77060312D02*
X206684009Y-77012693D01*
X206684009Y-77012693D02*
X206636390Y-76965074D01*
X206636390Y-76965074D02*
X206588771Y-76869836D01*
X206588771Y-76869836D02*
X206588771Y-76488884D01*
X206112580Y-77488884D02*
X207112580Y-77488884D01*
X207112580Y-78155550D02*
X207112580Y-78346026D01*
X207112580Y-78346026D02*
X207064961Y-78441264D01*
X207064961Y-78441264D02*
X206969723Y-78536502D01*
X206969723Y-78536502D02*
X206779247Y-78584121D01*
X206779247Y-78584121D02*
X206445914Y-78584121D01*
X206445914Y-78584121D02*
X206255438Y-78536502D01*
X206255438Y-78536502D02*
X206160200Y-78441264D01*
X206160200Y-78441264D02*
X206112580Y-78346026D01*
X206112580Y-78346026D02*
X206112580Y-78155550D01*
X206112580Y-78155550D02*
X206160200Y-78060312D01*
X206160200Y-78060312D02*
X206255438Y-77965074D01*
X206255438Y-77965074D02*
X206445914Y-77917455D01*
X206445914Y-77917455D02*
X206779247Y-77917455D01*
X206779247Y-77917455D02*
X206969723Y-77965074D01*
X206969723Y-77965074D02*
X207064961Y-78060312D01*
X207064961Y-78060312D02*
X207112580Y-78155550D01*
X207112580Y-79203169D02*
X207112580Y-79298407D01*
X207112580Y-79298407D02*
X207064961Y-79393645D01*
X207064961Y-79393645D02*
X207017342Y-79441264D01*
X207017342Y-79441264D02*
X206922104Y-79488883D01*
X206922104Y-79488883D02*
X206731628Y-79536502D01*
X206731628Y-79536502D02*
X206493533Y-79536502D01*
X206493533Y-79536502D02*
X206303057Y-79488883D01*
X206303057Y-79488883D02*
X206207819Y-79441264D01*
X206207819Y-79441264D02*
X206160200Y-79393645D01*
X206160200Y-79393645D02*
X206112580Y-79298407D01*
X206112580Y-79298407D02*
X206112580Y-79203169D01*
X206112580Y-79203169D02*
X206160200Y-79107931D01*
X206160200Y-79107931D02*
X206207819Y-79060312D01*
X206207819Y-79060312D02*
X206303057Y-79012693D01*
X206303057Y-79012693D02*
X206493533Y-78965074D01*
X206493533Y-78965074D02*
X206731628Y-78965074D01*
X206731628Y-78965074D02*
X206922104Y-79012693D01*
X206922104Y-79012693D02*
X207017342Y-79060312D01*
X207017342Y-79060312D02*
X207064961Y-79107931D01*
X207064961Y-79107931D02*
X207112580Y-79203169D01*
X207064961Y-67757693D02*
X207112580Y-67662455D01*
X207112580Y-67662455D02*
X207112580Y-67519598D01*
X207112580Y-67519598D02*
X207064961Y-67376741D01*
X207064961Y-67376741D02*
X206969723Y-67281503D01*
X206969723Y-67281503D02*
X206874485Y-67233884D01*
X206874485Y-67233884D02*
X206684009Y-67186265D01*
X206684009Y-67186265D02*
X206541152Y-67186265D01*
X206541152Y-67186265D02*
X206350676Y-67233884D01*
X206350676Y-67233884D02*
X206255438Y-67281503D01*
X206255438Y-67281503D02*
X206160200Y-67376741D01*
X206160200Y-67376741D02*
X206112580Y-67519598D01*
X206112580Y-67519598D02*
X206112580Y-67614836D01*
X206112580Y-67614836D02*
X206160200Y-67757693D01*
X206160200Y-67757693D02*
X206207819Y-67805312D01*
X206207819Y-67805312D02*
X206541152Y-67805312D01*
X206541152Y-67805312D02*
X206541152Y-67614836D01*
X206112580Y-68233884D02*
X207112580Y-68233884D01*
X207112580Y-68233884D02*
X207112580Y-68614836D01*
X207112580Y-68614836D02*
X207064961Y-68710074D01*
X207064961Y-68710074D02*
X207017342Y-68757693D01*
X207017342Y-68757693D02*
X206922104Y-68805312D01*
X206922104Y-68805312D02*
X206779247Y-68805312D01*
X206779247Y-68805312D02*
X206684009Y-68757693D01*
X206684009Y-68757693D02*
X206636390Y-68710074D01*
X206636390Y-68710074D02*
X206588771Y-68614836D01*
X206588771Y-68614836D02*
X206588771Y-68233884D01*
X206112580Y-69233884D02*
X207112580Y-69233884D01*
X207112580Y-69900550D02*
X207112580Y-70091026D01*
X207112580Y-70091026D02*
X207064961Y-70186264D01*
X207064961Y-70186264D02*
X206969723Y-70281502D01*
X206969723Y-70281502D02*
X206779247Y-70329121D01*
X206779247Y-70329121D02*
X206445914Y-70329121D01*
X206445914Y-70329121D02*
X206255438Y-70281502D01*
X206255438Y-70281502D02*
X206160200Y-70186264D01*
X206160200Y-70186264D02*
X206112580Y-70091026D01*
X206112580Y-70091026D02*
X206112580Y-69900550D01*
X206112580Y-69900550D02*
X206160200Y-69805312D01*
X206160200Y-69805312D02*
X206255438Y-69710074D01*
X206255438Y-69710074D02*
X206445914Y-69662455D01*
X206445914Y-69662455D02*
X206779247Y-69662455D01*
X206779247Y-69662455D02*
X206969723Y-69710074D01*
X206969723Y-69710074D02*
X207064961Y-69805312D01*
X207064961Y-69805312D02*
X207112580Y-69900550D01*
X207017342Y-70710074D02*
X207064961Y-70757693D01*
X207064961Y-70757693D02*
X207112580Y-70852931D01*
X207112580Y-70852931D02*
X207112580Y-71091026D01*
X207112580Y-71091026D02*
X207064961Y-71186264D01*
X207064961Y-71186264D02*
X207017342Y-71233883D01*
X207017342Y-71233883D02*
X206922104Y-71281502D01*
X206922104Y-71281502D02*
X206826866Y-71281502D01*
X206826866Y-71281502D02*
X206684009Y-71233883D01*
X206684009Y-71233883D02*
X206112580Y-70662455D01*
X206112580Y-70662455D02*
X206112580Y-71281502D01*
X206112580Y-72233883D02*
X206112580Y-71662455D01*
X206112580Y-71948169D02*
X207112580Y-71948169D01*
X207112580Y-71948169D02*
X206969723Y-71852931D01*
X206969723Y-71852931D02*
X206874485Y-71757693D01*
X206874485Y-71757693D02*
X206826866Y-71662455D01*
X222304961Y-67757693D02*
X222352580Y-67662455D01*
X222352580Y-67662455D02*
X222352580Y-67519598D01*
X222352580Y-67519598D02*
X222304961Y-67376741D01*
X222304961Y-67376741D02*
X222209723Y-67281503D01*
X222209723Y-67281503D02*
X222114485Y-67233884D01*
X222114485Y-67233884D02*
X221924009Y-67186265D01*
X221924009Y-67186265D02*
X221781152Y-67186265D01*
X221781152Y-67186265D02*
X221590676Y-67233884D01*
X221590676Y-67233884D02*
X221495438Y-67281503D01*
X221495438Y-67281503D02*
X221400200Y-67376741D01*
X221400200Y-67376741D02*
X221352580Y-67519598D01*
X221352580Y-67519598D02*
X221352580Y-67614836D01*
X221352580Y-67614836D02*
X221400200Y-67757693D01*
X221400200Y-67757693D02*
X221447819Y-67805312D01*
X221447819Y-67805312D02*
X221781152Y-67805312D01*
X221781152Y-67805312D02*
X221781152Y-67614836D01*
X221352580Y-68233884D02*
X222352580Y-68233884D01*
X222352580Y-68233884D02*
X222352580Y-68614836D01*
X222352580Y-68614836D02*
X222304961Y-68710074D01*
X222304961Y-68710074D02*
X222257342Y-68757693D01*
X222257342Y-68757693D02*
X222162104Y-68805312D01*
X222162104Y-68805312D02*
X222019247Y-68805312D01*
X222019247Y-68805312D02*
X221924009Y-68757693D01*
X221924009Y-68757693D02*
X221876390Y-68710074D01*
X221876390Y-68710074D02*
X221828771Y-68614836D01*
X221828771Y-68614836D02*
X221828771Y-68233884D01*
X221352580Y-69233884D02*
X222352580Y-69233884D01*
X222352580Y-69900550D02*
X222352580Y-70091026D01*
X222352580Y-70091026D02*
X222304961Y-70186264D01*
X222304961Y-70186264D02*
X222209723Y-70281502D01*
X222209723Y-70281502D02*
X222019247Y-70329121D01*
X222019247Y-70329121D02*
X221685914Y-70329121D01*
X221685914Y-70329121D02*
X221495438Y-70281502D01*
X221495438Y-70281502D02*
X221400200Y-70186264D01*
X221400200Y-70186264D02*
X221352580Y-70091026D01*
X221352580Y-70091026D02*
X221352580Y-69900550D01*
X221352580Y-69900550D02*
X221400200Y-69805312D01*
X221400200Y-69805312D02*
X221495438Y-69710074D01*
X221495438Y-69710074D02*
X221685914Y-69662455D01*
X221685914Y-69662455D02*
X222019247Y-69662455D01*
X222019247Y-69662455D02*
X222209723Y-69710074D01*
X222209723Y-69710074D02*
X222304961Y-69805312D01*
X222304961Y-69805312D02*
X222352580Y-69900550D01*
X222352580Y-71186264D02*
X222352580Y-70995788D01*
X222352580Y-70995788D02*
X222304961Y-70900550D01*
X222304961Y-70900550D02*
X222257342Y-70852931D01*
X222257342Y-70852931D02*
X222114485Y-70757693D01*
X222114485Y-70757693D02*
X221924009Y-70710074D01*
X221924009Y-70710074D02*
X221543057Y-70710074D01*
X221543057Y-70710074D02*
X221447819Y-70757693D01*
X221447819Y-70757693D02*
X221400200Y-70805312D01*
X221400200Y-70805312D02*
X221352580Y-70900550D01*
X221352580Y-70900550D02*
X221352580Y-71091026D01*
X221352580Y-71091026D02*
X221400200Y-71186264D01*
X221400200Y-71186264D02*
X221447819Y-71233883D01*
X221447819Y-71233883D02*
X221543057Y-71281502D01*
X221543057Y-71281502D02*
X221781152Y-71281502D01*
X221781152Y-71281502D02*
X221876390Y-71233883D01*
X221876390Y-71233883D02*
X221924009Y-71186264D01*
X221924009Y-71186264D02*
X221971628Y-71091026D01*
X221971628Y-71091026D02*
X221971628Y-70900550D01*
X221971628Y-70900550D02*
X221924009Y-70805312D01*
X221924009Y-70805312D02*
X221876390Y-70757693D01*
X221876390Y-70757693D02*
X221781152Y-70710074D01*
X217224961Y-67757693D02*
X217272580Y-67662455D01*
X217272580Y-67662455D02*
X217272580Y-67519598D01*
X217272580Y-67519598D02*
X217224961Y-67376741D01*
X217224961Y-67376741D02*
X217129723Y-67281503D01*
X217129723Y-67281503D02*
X217034485Y-67233884D01*
X217034485Y-67233884D02*
X216844009Y-67186265D01*
X216844009Y-67186265D02*
X216701152Y-67186265D01*
X216701152Y-67186265D02*
X216510676Y-67233884D01*
X216510676Y-67233884D02*
X216415438Y-67281503D01*
X216415438Y-67281503D02*
X216320200Y-67376741D01*
X216320200Y-67376741D02*
X216272580Y-67519598D01*
X216272580Y-67519598D02*
X216272580Y-67614836D01*
X216272580Y-67614836D02*
X216320200Y-67757693D01*
X216320200Y-67757693D02*
X216367819Y-67805312D01*
X216367819Y-67805312D02*
X216701152Y-67805312D01*
X216701152Y-67805312D02*
X216701152Y-67614836D01*
X216272580Y-68233884D02*
X217272580Y-68233884D01*
X217272580Y-68233884D02*
X217272580Y-68614836D01*
X217272580Y-68614836D02*
X217224961Y-68710074D01*
X217224961Y-68710074D02*
X217177342Y-68757693D01*
X217177342Y-68757693D02*
X217082104Y-68805312D01*
X217082104Y-68805312D02*
X216939247Y-68805312D01*
X216939247Y-68805312D02*
X216844009Y-68757693D01*
X216844009Y-68757693D02*
X216796390Y-68710074D01*
X216796390Y-68710074D02*
X216748771Y-68614836D01*
X216748771Y-68614836D02*
X216748771Y-68233884D01*
X216272580Y-69233884D02*
X217272580Y-69233884D01*
X217272580Y-69900550D02*
X217272580Y-70091026D01*
X217272580Y-70091026D02*
X217224961Y-70186264D01*
X217224961Y-70186264D02*
X217129723Y-70281502D01*
X217129723Y-70281502D02*
X216939247Y-70329121D01*
X216939247Y-70329121D02*
X216605914Y-70329121D01*
X216605914Y-70329121D02*
X216415438Y-70281502D01*
X216415438Y-70281502D02*
X216320200Y-70186264D01*
X216320200Y-70186264D02*
X216272580Y-70091026D01*
X216272580Y-70091026D02*
X216272580Y-69900550D01*
X216272580Y-69900550D02*
X216320200Y-69805312D01*
X216320200Y-69805312D02*
X216415438Y-69710074D01*
X216415438Y-69710074D02*
X216605914Y-69662455D01*
X216605914Y-69662455D02*
X216939247Y-69662455D01*
X216939247Y-69662455D02*
X217129723Y-69710074D01*
X217129723Y-69710074D02*
X217224961Y-69805312D01*
X217224961Y-69805312D02*
X217272580Y-69900550D01*
X216844009Y-70900550D02*
X216891628Y-70805312D01*
X216891628Y-70805312D02*
X216939247Y-70757693D01*
X216939247Y-70757693D02*
X217034485Y-70710074D01*
X217034485Y-70710074D02*
X217082104Y-70710074D01*
X217082104Y-70710074D02*
X217177342Y-70757693D01*
X217177342Y-70757693D02*
X217224961Y-70805312D01*
X217224961Y-70805312D02*
X217272580Y-70900550D01*
X217272580Y-70900550D02*
X217272580Y-71091026D01*
X217272580Y-71091026D02*
X217224961Y-71186264D01*
X217224961Y-71186264D02*
X217177342Y-71233883D01*
X217177342Y-71233883D02*
X217082104Y-71281502D01*
X217082104Y-71281502D02*
X217034485Y-71281502D01*
X217034485Y-71281502D02*
X216939247Y-71233883D01*
X216939247Y-71233883D02*
X216891628Y-71186264D01*
X216891628Y-71186264D02*
X216844009Y-71091026D01*
X216844009Y-71091026D02*
X216844009Y-70900550D01*
X216844009Y-70900550D02*
X216796390Y-70805312D01*
X216796390Y-70805312D02*
X216748771Y-70757693D01*
X216748771Y-70757693D02*
X216653533Y-70710074D01*
X216653533Y-70710074D02*
X216463057Y-70710074D01*
X216463057Y-70710074D02*
X216367819Y-70757693D01*
X216367819Y-70757693D02*
X216320200Y-70805312D01*
X216320200Y-70805312D02*
X216272580Y-70900550D01*
X216272580Y-70900550D02*
X216272580Y-71091026D01*
X216272580Y-71091026D02*
X216320200Y-71186264D01*
X216320200Y-71186264D02*
X216367819Y-71233883D01*
X216367819Y-71233883D02*
X216463057Y-71281502D01*
X216463057Y-71281502D02*
X216653533Y-71281502D01*
X216653533Y-71281502D02*
X216748771Y-71233883D01*
X216748771Y-71233883D02*
X216796390Y-71186264D01*
X216796390Y-71186264D02*
X216844009Y-71091026D01*
X212144961Y-67757693D02*
X212192580Y-67662455D01*
X212192580Y-67662455D02*
X212192580Y-67519598D01*
X212192580Y-67519598D02*
X212144961Y-67376741D01*
X212144961Y-67376741D02*
X212049723Y-67281503D01*
X212049723Y-67281503D02*
X211954485Y-67233884D01*
X211954485Y-67233884D02*
X211764009Y-67186265D01*
X211764009Y-67186265D02*
X211621152Y-67186265D01*
X211621152Y-67186265D02*
X211430676Y-67233884D01*
X211430676Y-67233884D02*
X211335438Y-67281503D01*
X211335438Y-67281503D02*
X211240200Y-67376741D01*
X211240200Y-67376741D02*
X211192580Y-67519598D01*
X211192580Y-67519598D02*
X211192580Y-67614836D01*
X211192580Y-67614836D02*
X211240200Y-67757693D01*
X211240200Y-67757693D02*
X211287819Y-67805312D01*
X211287819Y-67805312D02*
X211621152Y-67805312D01*
X211621152Y-67805312D02*
X211621152Y-67614836D01*
X211192580Y-68233884D02*
X212192580Y-68233884D01*
X212192580Y-68233884D02*
X212192580Y-68614836D01*
X212192580Y-68614836D02*
X212144961Y-68710074D01*
X212144961Y-68710074D02*
X212097342Y-68757693D01*
X212097342Y-68757693D02*
X212002104Y-68805312D01*
X212002104Y-68805312D02*
X211859247Y-68805312D01*
X211859247Y-68805312D02*
X211764009Y-68757693D01*
X211764009Y-68757693D02*
X211716390Y-68710074D01*
X211716390Y-68710074D02*
X211668771Y-68614836D01*
X211668771Y-68614836D02*
X211668771Y-68233884D01*
X211192580Y-69233884D02*
X212192580Y-69233884D01*
X212192580Y-69900550D02*
X212192580Y-70091026D01*
X212192580Y-70091026D02*
X212144961Y-70186264D01*
X212144961Y-70186264D02*
X212049723Y-70281502D01*
X212049723Y-70281502D02*
X211859247Y-70329121D01*
X211859247Y-70329121D02*
X211525914Y-70329121D01*
X211525914Y-70329121D02*
X211335438Y-70281502D01*
X211335438Y-70281502D02*
X211240200Y-70186264D01*
X211240200Y-70186264D02*
X211192580Y-70091026D01*
X211192580Y-70091026D02*
X211192580Y-69900550D01*
X211192580Y-69900550D02*
X211240200Y-69805312D01*
X211240200Y-69805312D02*
X211335438Y-69710074D01*
X211335438Y-69710074D02*
X211525914Y-69662455D01*
X211525914Y-69662455D02*
X211859247Y-69662455D01*
X211859247Y-69662455D02*
X212049723Y-69710074D01*
X212049723Y-69710074D02*
X212144961Y-69805312D01*
X212144961Y-69805312D02*
X212192580Y-69900550D01*
X211192580Y-71281502D02*
X211192580Y-70710074D01*
X211192580Y-70995788D02*
X212192580Y-70995788D01*
X212192580Y-70995788D02*
X212049723Y-70900550D01*
X212049723Y-70900550D02*
X211954485Y-70805312D01*
X211954485Y-70805312D02*
X211906866Y-70710074D01*
X212192580Y-71900550D02*
X212192580Y-71995788D01*
X212192580Y-71995788D02*
X212144961Y-72091026D01*
X212144961Y-72091026D02*
X212097342Y-72138645D01*
X212097342Y-72138645D02*
X212002104Y-72186264D01*
X212002104Y-72186264D02*
X211811628Y-72233883D01*
X211811628Y-72233883D02*
X211573533Y-72233883D01*
X211573533Y-72233883D02*
X211383057Y-72186264D01*
X211383057Y-72186264D02*
X211287819Y-72138645D01*
X211287819Y-72138645D02*
X211240200Y-72091026D01*
X211240200Y-72091026D02*
X211192580Y-71995788D01*
X211192580Y-71995788D02*
X211192580Y-71900550D01*
X211192580Y-71900550D02*
X211240200Y-71805312D01*
X211240200Y-71805312D02*
X211287819Y-71757693D01*
X211287819Y-71757693D02*
X211383057Y-71710074D01*
X211383057Y-71710074D02*
X211573533Y-71662455D01*
X211573533Y-71662455D02*
X211811628Y-71662455D01*
X211811628Y-71662455D02*
X212002104Y-71710074D01*
X212002104Y-71710074D02*
X212097342Y-71757693D01*
X212097342Y-71757693D02*
X212144961Y-71805312D01*
X212144961Y-71805312D02*
X212192580Y-71900550D01*
X212144961Y-76012693D02*
X212192580Y-75917455D01*
X212192580Y-75917455D02*
X212192580Y-75774598D01*
X212192580Y-75774598D02*
X212144961Y-75631741D01*
X212144961Y-75631741D02*
X212049723Y-75536503D01*
X212049723Y-75536503D02*
X211954485Y-75488884D01*
X211954485Y-75488884D02*
X211764009Y-75441265D01*
X211764009Y-75441265D02*
X211621152Y-75441265D01*
X211621152Y-75441265D02*
X211430676Y-75488884D01*
X211430676Y-75488884D02*
X211335438Y-75536503D01*
X211335438Y-75536503D02*
X211240200Y-75631741D01*
X211240200Y-75631741D02*
X211192580Y-75774598D01*
X211192580Y-75774598D02*
X211192580Y-75869836D01*
X211192580Y-75869836D02*
X211240200Y-76012693D01*
X211240200Y-76012693D02*
X211287819Y-76060312D01*
X211287819Y-76060312D02*
X211621152Y-76060312D01*
X211621152Y-76060312D02*
X211621152Y-75869836D01*
X211192580Y-76488884D02*
X212192580Y-76488884D01*
X212192580Y-76488884D02*
X212192580Y-76869836D01*
X212192580Y-76869836D02*
X212144961Y-76965074D01*
X212144961Y-76965074D02*
X212097342Y-77012693D01*
X212097342Y-77012693D02*
X212002104Y-77060312D01*
X212002104Y-77060312D02*
X211859247Y-77060312D01*
X211859247Y-77060312D02*
X211764009Y-77012693D01*
X211764009Y-77012693D02*
X211716390Y-76965074D01*
X211716390Y-76965074D02*
X211668771Y-76869836D01*
X211668771Y-76869836D02*
X211668771Y-76488884D01*
X211192580Y-77488884D02*
X212192580Y-77488884D01*
X212192580Y-78155550D02*
X212192580Y-78346026D01*
X212192580Y-78346026D02*
X212144961Y-78441264D01*
X212144961Y-78441264D02*
X212049723Y-78536502D01*
X212049723Y-78536502D02*
X211859247Y-78584121D01*
X211859247Y-78584121D02*
X211525914Y-78584121D01*
X211525914Y-78584121D02*
X211335438Y-78536502D01*
X211335438Y-78536502D02*
X211240200Y-78441264D01*
X211240200Y-78441264D02*
X211192580Y-78346026D01*
X211192580Y-78346026D02*
X211192580Y-78155550D01*
X211192580Y-78155550D02*
X211240200Y-78060312D01*
X211240200Y-78060312D02*
X211335438Y-77965074D01*
X211335438Y-77965074D02*
X211525914Y-77917455D01*
X211525914Y-77917455D02*
X211859247Y-77917455D01*
X211859247Y-77917455D02*
X212049723Y-77965074D01*
X212049723Y-77965074D02*
X212144961Y-78060312D01*
X212144961Y-78060312D02*
X212192580Y-78155550D01*
X212097342Y-78965074D02*
X212144961Y-79012693D01*
X212144961Y-79012693D02*
X212192580Y-79107931D01*
X212192580Y-79107931D02*
X212192580Y-79346026D01*
X212192580Y-79346026D02*
X212144961Y-79441264D01*
X212144961Y-79441264D02*
X212097342Y-79488883D01*
X212097342Y-79488883D02*
X212002104Y-79536502D01*
X212002104Y-79536502D02*
X211906866Y-79536502D01*
X211906866Y-79536502D02*
X211764009Y-79488883D01*
X211764009Y-79488883D02*
X211192580Y-78917455D01*
X211192580Y-78917455D02*
X211192580Y-79536502D01*
X217224961Y-76012693D02*
X217272580Y-75917455D01*
X217272580Y-75917455D02*
X217272580Y-75774598D01*
X217272580Y-75774598D02*
X217224961Y-75631741D01*
X217224961Y-75631741D02*
X217129723Y-75536503D01*
X217129723Y-75536503D02*
X217034485Y-75488884D01*
X217034485Y-75488884D02*
X216844009Y-75441265D01*
X216844009Y-75441265D02*
X216701152Y-75441265D01*
X216701152Y-75441265D02*
X216510676Y-75488884D01*
X216510676Y-75488884D02*
X216415438Y-75536503D01*
X216415438Y-75536503D02*
X216320200Y-75631741D01*
X216320200Y-75631741D02*
X216272580Y-75774598D01*
X216272580Y-75774598D02*
X216272580Y-75869836D01*
X216272580Y-75869836D02*
X216320200Y-76012693D01*
X216320200Y-76012693D02*
X216367819Y-76060312D01*
X216367819Y-76060312D02*
X216701152Y-76060312D01*
X216701152Y-76060312D02*
X216701152Y-75869836D01*
X216272580Y-76488884D02*
X217272580Y-76488884D01*
X217272580Y-76488884D02*
X217272580Y-76869836D01*
X217272580Y-76869836D02*
X217224961Y-76965074D01*
X217224961Y-76965074D02*
X217177342Y-77012693D01*
X217177342Y-77012693D02*
X217082104Y-77060312D01*
X217082104Y-77060312D02*
X216939247Y-77060312D01*
X216939247Y-77060312D02*
X216844009Y-77012693D01*
X216844009Y-77012693D02*
X216796390Y-76965074D01*
X216796390Y-76965074D02*
X216748771Y-76869836D01*
X216748771Y-76869836D02*
X216748771Y-76488884D01*
X216272580Y-77488884D02*
X217272580Y-77488884D01*
X217272580Y-78155550D02*
X217272580Y-78346026D01*
X217272580Y-78346026D02*
X217224961Y-78441264D01*
X217224961Y-78441264D02*
X217129723Y-78536502D01*
X217129723Y-78536502D02*
X216939247Y-78584121D01*
X216939247Y-78584121D02*
X216605914Y-78584121D01*
X216605914Y-78584121D02*
X216415438Y-78536502D01*
X216415438Y-78536502D02*
X216320200Y-78441264D01*
X216320200Y-78441264D02*
X216272580Y-78346026D01*
X216272580Y-78346026D02*
X216272580Y-78155550D01*
X216272580Y-78155550D02*
X216320200Y-78060312D01*
X216320200Y-78060312D02*
X216415438Y-77965074D01*
X216415438Y-77965074D02*
X216605914Y-77917455D01*
X216605914Y-77917455D02*
X216939247Y-77917455D01*
X216939247Y-77917455D02*
X217129723Y-77965074D01*
X217129723Y-77965074D02*
X217224961Y-78060312D01*
X217224961Y-78060312D02*
X217272580Y-78155550D01*
X216939247Y-79441264D02*
X216272580Y-79441264D01*
X217320200Y-79203169D02*
X216605914Y-78965074D01*
X216605914Y-78965074D02*
X216605914Y-79584121D01*
X214684961Y-76012693D02*
X214732580Y-75917455D01*
X214732580Y-75917455D02*
X214732580Y-75774598D01*
X214732580Y-75774598D02*
X214684961Y-75631741D01*
X214684961Y-75631741D02*
X214589723Y-75536503D01*
X214589723Y-75536503D02*
X214494485Y-75488884D01*
X214494485Y-75488884D02*
X214304009Y-75441265D01*
X214304009Y-75441265D02*
X214161152Y-75441265D01*
X214161152Y-75441265D02*
X213970676Y-75488884D01*
X213970676Y-75488884D02*
X213875438Y-75536503D01*
X213875438Y-75536503D02*
X213780200Y-75631741D01*
X213780200Y-75631741D02*
X213732580Y-75774598D01*
X213732580Y-75774598D02*
X213732580Y-75869836D01*
X213732580Y-75869836D02*
X213780200Y-76012693D01*
X213780200Y-76012693D02*
X213827819Y-76060312D01*
X213827819Y-76060312D02*
X214161152Y-76060312D01*
X214161152Y-76060312D02*
X214161152Y-75869836D01*
X213732580Y-76488884D02*
X214732580Y-76488884D01*
X214732580Y-76488884D02*
X214732580Y-76869836D01*
X214732580Y-76869836D02*
X214684961Y-76965074D01*
X214684961Y-76965074D02*
X214637342Y-77012693D01*
X214637342Y-77012693D02*
X214542104Y-77060312D01*
X214542104Y-77060312D02*
X214399247Y-77060312D01*
X214399247Y-77060312D02*
X214304009Y-77012693D01*
X214304009Y-77012693D02*
X214256390Y-76965074D01*
X214256390Y-76965074D02*
X214208771Y-76869836D01*
X214208771Y-76869836D02*
X214208771Y-76488884D01*
X213732580Y-77488884D02*
X214732580Y-77488884D01*
X214732580Y-78155550D02*
X214732580Y-78346026D01*
X214732580Y-78346026D02*
X214684961Y-78441264D01*
X214684961Y-78441264D02*
X214589723Y-78536502D01*
X214589723Y-78536502D02*
X214399247Y-78584121D01*
X214399247Y-78584121D02*
X214065914Y-78584121D01*
X214065914Y-78584121D02*
X213875438Y-78536502D01*
X213875438Y-78536502D02*
X213780200Y-78441264D01*
X213780200Y-78441264D02*
X213732580Y-78346026D01*
X213732580Y-78346026D02*
X213732580Y-78155550D01*
X213732580Y-78155550D02*
X213780200Y-78060312D01*
X213780200Y-78060312D02*
X213875438Y-77965074D01*
X213875438Y-77965074D02*
X214065914Y-77917455D01*
X214065914Y-77917455D02*
X214399247Y-77917455D01*
X214399247Y-77917455D02*
X214589723Y-77965074D01*
X214589723Y-77965074D02*
X214684961Y-78060312D01*
X214684961Y-78060312D02*
X214732580Y-78155550D01*
X214732580Y-78917455D02*
X214732580Y-79536502D01*
X214732580Y-79536502D02*
X214351628Y-79203169D01*
X214351628Y-79203169D02*
X214351628Y-79346026D01*
X214351628Y-79346026D02*
X214304009Y-79441264D01*
X214304009Y-79441264D02*
X214256390Y-79488883D01*
X214256390Y-79488883D02*
X214161152Y-79536502D01*
X214161152Y-79536502D02*
X213923057Y-79536502D01*
X213923057Y-79536502D02*
X213827819Y-79488883D01*
X213827819Y-79488883D02*
X213780200Y-79441264D01*
X213780200Y-79441264D02*
X213732580Y-79346026D01*
X213732580Y-79346026D02*
X213732580Y-79060312D01*
X213732580Y-79060312D02*
X213780200Y-78965074D01*
X213780200Y-78965074D02*
X213827819Y-78917455D01*
X209604961Y-67757693D02*
X209652580Y-67662455D01*
X209652580Y-67662455D02*
X209652580Y-67519598D01*
X209652580Y-67519598D02*
X209604961Y-67376741D01*
X209604961Y-67376741D02*
X209509723Y-67281503D01*
X209509723Y-67281503D02*
X209414485Y-67233884D01*
X209414485Y-67233884D02*
X209224009Y-67186265D01*
X209224009Y-67186265D02*
X209081152Y-67186265D01*
X209081152Y-67186265D02*
X208890676Y-67233884D01*
X208890676Y-67233884D02*
X208795438Y-67281503D01*
X208795438Y-67281503D02*
X208700200Y-67376741D01*
X208700200Y-67376741D02*
X208652580Y-67519598D01*
X208652580Y-67519598D02*
X208652580Y-67614836D01*
X208652580Y-67614836D02*
X208700200Y-67757693D01*
X208700200Y-67757693D02*
X208747819Y-67805312D01*
X208747819Y-67805312D02*
X209081152Y-67805312D01*
X209081152Y-67805312D02*
X209081152Y-67614836D01*
X208652580Y-68233884D02*
X209652580Y-68233884D01*
X209652580Y-68233884D02*
X209652580Y-68614836D01*
X209652580Y-68614836D02*
X209604961Y-68710074D01*
X209604961Y-68710074D02*
X209557342Y-68757693D01*
X209557342Y-68757693D02*
X209462104Y-68805312D01*
X209462104Y-68805312D02*
X209319247Y-68805312D01*
X209319247Y-68805312D02*
X209224009Y-68757693D01*
X209224009Y-68757693D02*
X209176390Y-68710074D01*
X209176390Y-68710074D02*
X209128771Y-68614836D01*
X209128771Y-68614836D02*
X209128771Y-68233884D01*
X208652580Y-69233884D02*
X209652580Y-69233884D01*
X209652580Y-69900550D02*
X209652580Y-70091026D01*
X209652580Y-70091026D02*
X209604961Y-70186264D01*
X209604961Y-70186264D02*
X209509723Y-70281502D01*
X209509723Y-70281502D02*
X209319247Y-70329121D01*
X209319247Y-70329121D02*
X208985914Y-70329121D01*
X208985914Y-70329121D02*
X208795438Y-70281502D01*
X208795438Y-70281502D02*
X208700200Y-70186264D01*
X208700200Y-70186264D02*
X208652580Y-70091026D01*
X208652580Y-70091026D02*
X208652580Y-69900550D01*
X208652580Y-69900550D02*
X208700200Y-69805312D01*
X208700200Y-69805312D02*
X208795438Y-69710074D01*
X208795438Y-69710074D02*
X208985914Y-69662455D01*
X208985914Y-69662455D02*
X209319247Y-69662455D01*
X209319247Y-69662455D02*
X209509723Y-69710074D01*
X209509723Y-69710074D02*
X209604961Y-69805312D01*
X209604961Y-69805312D02*
X209652580Y-69900550D01*
X209557342Y-70710074D02*
X209604961Y-70757693D01*
X209604961Y-70757693D02*
X209652580Y-70852931D01*
X209652580Y-70852931D02*
X209652580Y-71091026D01*
X209652580Y-71091026D02*
X209604961Y-71186264D01*
X209604961Y-71186264D02*
X209557342Y-71233883D01*
X209557342Y-71233883D02*
X209462104Y-71281502D01*
X209462104Y-71281502D02*
X209366866Y-71281502D01*
X209366866Y-71281502D02*
X209224009Y-71233883D01*
X209224009Y-71233883D02*
X208652580Y-70662455D01*
X208652580Y-70662455D02*
X208652580Y-71281502D01*
X209652580Y-71900550D02*
X209652580Y-71995788D01*
X209652580Y-71995788D02*
X209604961Y-72091026D01*
X209604961Y-72091026D02*
X209557342Y-72138645D01*
X209557342Y-72138645D02*
X209462104Y-72186264D01*
X209462104Y-72186264D02*
X209271628Y-72233883D01*
X209271628Y-72233883D02*
X209033533Y-72233883D01*
X209033533Y-72233883D02*
X208843057Y-72186264D01*
X208843057Y-72186264D02*
X208747819Y-72138645D01*
X208747819Y-72138645D02*
X208700200Y-72091026D01*
X208700200Y-72091026D02*
X208652580Y-71995788D01*
X208652580Y-71995788D02*
X208652580Y-71900550D01*
X208652580Y-71900550D02*
X208700200Y-71805312D01*
X208700200Y-71805312D02*
X208747819Y-71757693D01*
X208747819Y-71757693D02*
X208843057Y-71710074D01*
X208843057Y-71710074D02*
X209033533Y-71662455D01*
X209033533Y-71662455D02*
X209271628Y-71662455D01*
X209271628Y-71662455D02*
X209462104Y-71710074D01*
X209462104Y-71710074D02*
X209557342Y-71757693D01*
X209557342Y-71757693D02*
X209604961Y-71805312D01*
X209604961Y-71805312D02*
X209652580Y-71900550D01*
X222304961Y-77282693D02*
X222352580Y-77187455D01*
X222352580Y-77187455D02*
X222352580Y-77044598D01*
X222352580Y-77044598D02*
X222304961Y-76901741D01*
X222304961Y-76901741D02*
X222209723Y-76806503D01*
X222209723Y-76806503D02*
X222114485Y-76758884D01*
X222114485Y-76758884D02*
X221924009Y-76711265D01*
X221924009Y-76711265D02*
X221781152Y-76711265D01*
X221781152Y-76711265D02*
X221590676Y-76758884D01*
X221590676Y-76758884D02*
X221495438Y-76806503D01*
X221495438Y-76806503D02*
X221400200Y-76901741D01*
X221400200Y-76901741D02*
X221352580Y-77044598D01*
X221352580Y-77044598D02*
X221352580Y-77139836D01*
X221352580Y-77139836D02*
X221400200Y-77282693D01*
X221400200Y-77282693D02*
X221447819Y-77330312D01*
X221447819Y-77330312D02*
X221781152Y-77330312D01*
X221781152Y-77330312D02*
X221781152Y-77139836D01*
X221352580Y-77758884D02*
X222352580Y-77758884D01*
X222352580Y-77758884D02*
X221352580Y-78330312D01*
X221352580Y-78330312D02*
X222352580Y-78330312D01*
X221352580Y-78806503D02*
X222352580Y-78806503D01*
X222352580Y-78806503D02*
X222352580Y-79044598D01*
X222352580Y-79044598D02*
X222304961Y-79187455D01*
X222304961Y-79187455D02*
X222209723Y-79282693D01*
X222209723Y-79282693D02*
X222114485Y-79330312D01*
X222114485Y-79330312D02*
X221924009Y-79377931D01*
X221924009Y-79377931D02*
X221781152Y-79377931D01*
X221781152Y-79377931D02*
X221590676Y-79330312D01*
X221590676Y-79330312D02*
X221495438Y-79282693D01*
X221495438Y-79282693D02*
X221400200Y-79187455D01*
X221400200Y-79187455D02*
X221352580Y-79044598D01*
X221352580Y-79044598D02*
X221352580Y-78806503D01*
X224844961Y-67757693D02*
X224892580Y-67662455D01*
X224892580Y-67662455D02*
X224892580Y-67519598D01*
X224892580Y-67519598D02*
X224844961Y-67376741D01*
X224844961Y-67376741D02*
X224749723Y-67281503D01*
X224749723Y-67281503D02*
X224654485Y-67233884D01*
X224654485Y-67233884D02*
X224464009Y-67186265D01*
X224464009Y-67186265D02*
X224321152Y-67186265D01*
X224321152Y-67186265D02*
X224130676Y-67233884D01*
X224130676Y-67233884D02*
X224035438Y-67281503D01*
X224035438Y-67281503D02*
X223940200Y-67376741D01*
X223940200Y-67376741D02*
X223892580Y-67519598D01*
X223892580Y-67519598D02*
X223892580Y-67614836D01*
X223892580Y-67614836D02*
X223940200Y-67757693D01*
X223940200Y-67757693D02*
X223987819Y-67805312D01*
X223987819Y-67805312D02*
X224321152Y-67805312D01*
X224321152Y-67805312D02*
X224321152Y-67614836D01*
X223892580Y-68233884D02*
X224892580Y-68233884D01*
X224892580Y-68233884D02*
X224892580Y-68614836D01*
X224892580Y-68614836D02*
X224844961Y-68710074D01*
X224844961Y-68710074D02*
X224797342Y-68757693D01*
X224797342Y-68757693D02*
X224702104Y-68805312D01*
X224702104Y-68805312D02*
X224559247Y-68805312D01*
X224559247Y-68805312D02*
X224464009Y-68757693D01*
X224464009Y-68757693D02*
X224416390Y-68710074D01*
X224416390Y-68710074D02*
X224368771Y-68614836D01*
X224368771Y-68614836D02*
X224368771Y-68233884D01*
X223892580Y-69233884D02*
X224892580Y-69233884D01*
X224892580Y-69900550D02*
X224892580Y-70091026D01*
X224892580Y-70091026D02*
X224844961Y-70186264D01*
X224844961Y-70186264D02*
X224749723Y-70281502D01*
X224749723Y-70281502D02*
X224559247Y-70329121D01*
X224559247Y-70329121D02*
X224225914Y-70329121D01*
X224225914Y-70329121D02*
X224035438Y-70281502D01*
X224035438Y-70281502D02*
X223940200Y-70186264D01*
X223940200Y-70186264D02*
X223892580Y-70091026D01*
X223892580Y-70091026D02*
X223892580Y-69900550D01*
X223892580Y-69900550D02*
X223940200Y-69805312D01*
X223940200Y-69805312D02*
X224035438Y-69710074D01*
X224035438Y-69710074D02*
X224225914Y-69662455D01*
X224225914Y-69662455D02*
X224559247Y-69662455D01*
X224559247Y-69662455D02*
X224749723Y-69710074D01*
X224749723Y-69710074D02*
X224844961Y-69805312D01*
X224844961Y-69805312D02*
X224892580Y-69900550D01*
X224892580Y-71233883D02*
X224892580Y-70757693D01*
X224892580Y-70757693D02*
X224416390Y-70710074D01*
X224416390Y-70710074D02*
X224464009Y-70757693D01*
X224464009Y-70757693D02*
X224511628Y-70852931D01*
X224511628Y-70852931D02*
X224511628Y-71091026D01*
X224511628Y-71091026D02*
X224464009Y-71186264D01*
X224464009Y-71186264D02*
X224416390Y-71233883D01*
X224416390Y-71233883D02*
X224321152Y-71281502D01*
X224321152Y-71281502D02*
X224083057Y-71281502D01*
X224083057Y-71281502D02*
X223987819Y-71233883D01*
X223987819Y-71233883D02*
X223940200Y-71186264D01*
X223940200Y-71186264D02*
X223892580Y-71091026D01*
X223892580Y-71091026D02*
X223892580Y-70852931D01*
X223892580Y-70852931D02*
X223940200Y-70757693D01*
X223940200Y-70757693D02*
X223987819Y-70710074D01*
X188066667Y-62809800D02*
X188209524Y-62857419D01*
X188209524Y-62857419D02*
X188447619Y-62857419D01*
X188447619Y-62857419D02*
X188542857Y-62809800D01*
X188542857Y-62809800D02*
X188590476Y-62762180D01*
X188590476Y-62762180D02*
X188638095Y-62666942D01*
X188638095Y-62666942D02*
X188638095Y-62571704D01*
X188638095Y-62571704D02*
X188590476Y-62476466D01*
X188590476Y-62476466D02*
X188542857Y-62428847D01*
X188542857Y-62428847D02*
X188447619Y-62381228D01*
X188447619Y-62381228D02*
X188257143Y-62333609D01*
X188257143Y-62333609D02*
X188161905Y-62285990D01*
X188161905Y-62285990D02*
X188114286Y-62238371D01*
X188114286Y-62238371D02*
X188066667Y-62143133D01*
X188066667Y-62143133D02*
X188066667Y-62047895D01*
X188066667Y-62047895D02*
X188114286Y-61952657D01*
X188114286Y-61952657D02*
X188161905Y-61905038D01*
X188161905Y-61905038D02*
X188257143Y-61857419D01*
X188257143Y-61857419D02*
X188495238Y-61857419D01*
X188495238Y-61857419D02*
X188638095Y-61905038D01*
X188971429Y-61857419D02*
X189209524Y-62857419D01*
X189209524Y-62857419D02*
X189400000Y-62143133D01*
X189400000Y-62143133D02*
X189590476Y-62857419D01*
X189590476Y-62857419D02*
X189828572Y-61857419D01*
X190733333Y-62857419D02*
X190161905Y-62857419D01*
X190447619Y-62857419D02*
X190447619Y-61857419D01*
X190447619Y-61857419D02*
X190352381Y-62000276D01*
X190352381Y-62000276D02*
X190257143Y-62095514D01*
X190257143Y-62095514D02*
X190161905Y-62143133D01*
%TO.C,J1*%
X186500000Y-60850000D02*
X179500000Y-60850000D01*
X179500000Y-66550000D01*
X186500000Y-66550000D01*
X186500000Y-60850000D01*
%TO.C,J2*%
X177900000Y-83850000D02*
X184900000Y-83850000D01*
X184900000Y-78150000D01*
X177900000Y-78150000D01*
X177900000Y-83850000D01*
%TO.C,J3*%
X192500000Y-58950000D02*
X199500000Y-58950000D01*
X199500000Y-53250000D01*
X192500000Y-53250000D01*
X192500000Y-58950000D01*
%TO.C,C1*%
X199500000Y-64100000D02*
G75*
G02*
X191500000Y-64100000I-4000000J0D01*
G01*
X191500000Y-64100000D02*
G75*
G02*
X199500000Y-64100000I4000000J0D01*
G01*
%TO.C,U2*%
X172240000Y-73670000D02*
X172875000Y-73670000D01*
X172875000Y-71130000D01*
X172240000Y-71130000D01*
X172240000Y-73670000D01*
X172400000Y-74950000D02*
X192390000Y-74950000D01*
X192390000Y-69880000D01*
X172400000Y-69880000D01*
X172400000Y-74950000D01*
%TO.C,D1*%
X203310000Y-61900000D02*
X205200000Y-61900000D01*
X210200000Y-61900000D02*
X211920000Y-61900000D01*
X210200000Y-60600000D02*
X205200000Y-60600000D01*
X205200000Y-63200000D01*
X210200000Y-63200000D01*
X210200000Y-60600000D01*
%TO.C,R1*%
X201600000Y-69500000D02*
X201600000Y-67780000D01*
X201600000Y-76390000D02*
X201600000Y-74500000D01*
X200300000Y-69500000D02*
X202900000Y-69500000D01*
X202900000Y-74500000D01*
X200300000Y-74500000D01*
X200300000Y-69500000D01*
D12*
%TO.C,J4*%
X202167500Y-53592500D02*
X205167500Y-53592500D01*
X202167500Y-56592500D02*
X202167500Y-53592500D01*
X202667500Y-54042500D02*
X213717500Y-54042500D01*
X202667500Y-59892500D02*
X202667500Y-54042500D01*
X202667500Y-59892500D02*
X205317500Y-59892500D01*
X205567500Y-59892500D02*
X206167500Y-59892500D01*
X206417500Y-59892500D02*
X209917500Y-59892500D01*
X210167500Y-59892500D02*
X210767500Y-59892500D01*
X211067500Y-59892500D02*
X213717500Y-59892500D01*
X213717500Y-59892500D02*
X213717500Y-54042500D01*
D10*
%TO.C,D2*%
X220100000Y-62000000D02*
X218380000Y-62000000D01*
X226990000Y-62000000D02*
X225100000Y-62000000D01*
X220100000Y-63300000D02*
X225100000Y-63300000D01*
X225100000Y-60700000D01*
X220100000Y-60700000D01*
X220100000Y-63300000D01*
%TO.C,U1*%
X226432000Y-64390000D02*
X203572000Y-64390000D01*
X203572000Y-82170000D01*
X226432000Y-82170000D01*
X226432000Y-64390000D01*
X227702000Y-68835000D02*
X226432000Y-68835000D01*
X226432000Y-77725000D01*
X227702000Y-77725000D01*
X227702000Y-68835000D01*
%TO.C,SW1*%
D13*
X186968000Y-52228000D02*
X191032000Y-52228000D01*
X191032000Y-61372000D01*
X186968000Y-61372000D01*
X186968000Y-52228000D01*
%TD*%
M02*
