M48
; DRILL file {KiCad 9.0.0} date 2025-03-14T15:10:29+0100
; FORMAT={-:-/ absolute / inch / decimal}
; #@! TF.CreationDate,2025-03-14T15:10:29+01:00
; #@! TF.GenerationSoftware,Kicad,Pcbnew,9.0.0
; #@! TF.FileFunction,Plated,1,2,PTH
FMAT,2
INCH
; #@! TA.AperFunction,Plated,PTH,ComponentDrill
T1C0.0300
; #@! TA.AperFunction,Plated,PTH,ComponentDrill
T2C0.0315
; #@! TA.AperFunction,Plated,PTH,ComponentDrill
T3C0.0394
; #@! TA.AperFunction,Plated,PTH,ComponentDrill
T4C0.0787
%
G90
G05
T1
X8.0775Y-2.2281
X8.1562Y-2.2281
X8.2349Y-2.2281
X8.3137Y-2.2281
T2
X6.8311Y-2.7004
X6.8311Y-3.0004
X6.9311Y-2.7004
X6.9311Y-3.0004
X7.0311Y-2.7004
X7.0311Y-3.0004
X7.1028Y-3.2106
X7.1311Y-2.7004
X7.1311Y-3.0004
X7.1437Y-2.4862
X7.2028Y-3.2106
X7.2311Y-2.7004
X7.2311Y-3.0004
X7.2437Y-2.4862
X7.3311Y-2.7004
X7.3311Y-3.0004
X7.4311Y-2.7004
X7.4311Y-3.0004
X7.4409Y-2.1362
X7.4409Y-2.2362
X7.4409Y-2.3362
X7.5311Y-2.7004
X7.5311Y-3.0004
X7.628Y-2.5236
X7.6776Y-2.2303
X7.7657Y-2.5236
X7.7776Y-2.2303
X8.1346Y-2.585
X8.1346Y-3.185
X8.2346Y-2.585
X8.2346Y-3.185
X8.3346Y-3.185
X8.6346Y-2.585
X8.7346Y-2.585
X8.7346Y-3.185
X8.8346Y-2.585
X8.8346Y-3.185
T3
X7.937Y-2.5984
X7.937Y-3.0709
X7.9409Y-2.437
X8.4134Y-2.437
X8.5276Y-2.4409
X9.0Y-2.4409
T4
X6.811Y-3.2677
X7.4016Y-1.9291
X8.4252Y-1.9291
X9.0157Y-3.2677
M30
