%TF.GenerationSoftware,KiCad,Pcbnew,8.0.8*%
%TF.CreationDate,2025-02-19T10:09:38+01:00*%
%TF.ProjectId,Robot,526f626f-742e-46b6-9963-61645f706362,rev?*%
%TF.SameCoordinates,Original*%
%TF.FileFunction,Copper,L2,Bot*%
%TF.FilePolarity,Positive*%
%FSLAX46Y46*%
G04 Gerber Fmt 4.6, Leading zero omitted, Abs format (unit mm)*
G04 Created by KiCad (PCBNEW 8.0.8) date 2025-02-19 10:09:38*
%MOMM*%
%LPD*%
G01*
G04 APERTURE LIST*
G04 Aperture macros list*
%AMRoundRect*
0 Rectangle with rounded corners*
0 $1 Rounding radius*
0 $2 $3 $4 $5 $6 $7 $8 $9 X,Y pos of 4 corners*
0 Add a 4 corners polygon primitive as box body*
4,1,4,$2,$3,$4,$5,$6,$7,$8,$9,$2,$3,0*
0 Add four circle primitives for the rounded corners*
1,1,$1+$1,$2,$3*
1,1,$1+$1,$4,$5*
1,1,$1+$1,$6,$7*
1,1,$1+$1,$8,$9*
0 Add four rect primitives between the rounded corners*
20,1,$1+$1,$2,$3,$4,$5,0*
20,1,$1+$1,$4,$5,$6,$7,0*
20,1,$1+$1,$6,$7,$8,$9,0*
20,1,$1+$1,$8,$9,$2,$3,0*%
G04 Aperture macros list end*
%TA.AperFunction,ComponentPad*%
%ADD10R,1.600000X1.600000*%
%TD*%
%TA.AperFunction,ComponentPad*%
%ADD11O,1.600000X1.600000*%
%TD*%
%TA.AperFunction,ComponentPad*%
%ADD12C,1.524000*%
%TD*%
%TA.AperFunction,ComponentPad*%
%ADD13RoundRect,0.250000X0.600000X0.750000X-0.600000X0.750000X-0.600000X-0.750000X0.600000X-0.750000X0*%
%TD*%
%TA.AperFunction,ComponentPad*%
%ADD14O,1.700000X2.000000*%
%TD*%
%TA.AperFunction,ComponentPad*%
%ADD15R,2.200000X2.200000*%
%TD*%
%TA.AperFunction,ComponentPad*%
%ADD16O,2.200000X2.200000*%
%TD*%
%TA.AperFunction,ComponentPad*%
%ADD17RoundRect,0.250000X-0.600000X-0.750000X0.600000X-0.750000X0.600000X0.750000X-0.600000X0.750000X0*%
%TD*%
%TA.AperFunction,ComponentPad*%
%ADD18RoundRect,0.250000X-0.750000X0.600000X-0.750000X-0.600000X0.750000X-0.600000X0.750000X0.600000X0*%
%TD*%
%TA.AperFunction,ComponentPad*%
%ADD19O,2.000000X1.700000*%
%TD*%
%TA.AperFunction,ComponentPad*%
%ADD20RoundRect,0.250000X0.750000X-0.600000X0.750000X0.600000X-0.750000X0.600000X-0.750000X-0.600000X0*%
%TD*%
%TA.AperFunction,ComponentPad*%
%ADD21O,2.200000X3.500000*%
%TD*%
%TA.AperFunction,ComponentPad*%
%ADD22R,1.500000X2.500000*%
%TD*%
%TA.AperFunction,ComponentPad*%
%ADD23O,1.500000X2.500000*%
%TD*%
%TA.AperFunction,Conductor*%
%ADD24C,0.800000*%
%TD*%
G04 APERTURE END LIST*
D10*
%TO.P,U2,1,EN1\u002C2*%
%TO.N,Net-(U1-GPIO2)*%
X79225000Y-145634314D03*
D11*
%TO.P,U2,2,1A*%
%TO.N,Net-(U1-GPIO1)*%
X81765000Y-145634314D03*
%TO.P,U2,3,1Y*%
%TO.N,Net-(J4-Pin_2)*%
X84305000Y-145634314D03*
%TO.P,U2,4,GND*%
%TO.N,GND*%
X86845000Y-145634314D03*
%TO.P,U2,5,GND*%
X89385000Y-145634314D03*
%TO.P,U2,6,2Y*%
%TO.N,Net-(J4-Pin_1)*%
X91925000Y-145634314D03*
%TO.P,U2,7,2A*%
%TO.N,Net-(U1-GPIO0)*%
X94465000Y-145634314D03*
%TO.P,U2,8,VCC2*%
%TO.N,Net-(SW1A-B)*%
X97005000Y-145634314D03*
%TO.P,U2,9,EN3\u002C4*%
%TO.N,Net-(U1-GPIO5)*%
X97005000Y-138014314D03*
%TO.P,U2,10,3A*%
%TO.N,Net-(U1-GPIO6)*%
X94465000Y-138014314D03*
%TO.P,U2,11,3Y*%
%TO.N,Net-(J3-Pin_2)*%
X91925000Y-138014314D03*
%TO.P,U2,12,GND*%
%TO.N,unconnected-(U2-GND-Pad12)*%
X89385000Y-138014314D03*
%TO.P,U2,13,GND*%
%TO.N,unconnected-(U2-GND-Pad13)*%
X86845000Y-138014314D03*
%TO.P,U2,14,4Y*%
%TO.N,Net-(J3-Pin_1)*%
X84305000Y-138014314D03*
%TO.P,U2,15,4A*%
%TO.N,Net-(U1-GPIO7)*%
X81765000Y-138014314D03*
%TO.P,U2,16,VCC1*%
%TO.N,Net-(D1-K)*%
X79225000Y-138014314D03*
%TD*%
D12*
%TO.P,U1,1,5V*%
%TO.N,Net-(D1-K)*%
X112100000Y-107534314D03*
%TO.P,U1,2,GND*%
%TO.N,GND*%
X112100000Y-110074314D03*
%TO.P,U1,3,3.3V*%
%TO.N,unconnected-(U1-3.3V-Pad3)*%
X112100000Y-112614314D03*
%TO.P,U1,4,GPIO4*%
%TO.N,unconnected-(U1-GPIO4-Pad4)*%
X112100000Y-115154314D03*
%TO.P,U1,5,GPIO3*%
%TO.N,unconnected-(U1-GPIO3-Pad5)*%
X112100000Y-117694314D03*
%TO.P,U1,6,GPIO2*%
%TO.N,Net-(U1-GPIO2)*%
X112100000Y-120234314D03*
%TO.P,U1,7,GPIO1*%
%TO.N,Net-(U1-GPIO1)*%
X112100000Y-122774314D03*
%TO.P,U1,8,GPIO0*%
%TO.N,Net-(U1-GPIO0)*%
X112100000Y-125314314D03*
%TO.P,U1,9,GPIO21*%
%TO.N,Net-(J2-Pin_1)*%
X96860000Y-125314314D03*
%TO.P,U1,10,GPIO20*%
%TO.N,Net-(J2-Pin_2)*%
X96860000Y-122774314D03*
%TO.P,U1,11,GPIO10*%
%TO.N,unconnected-(U1-GPIO10-Pad11)*%
X96860000Y-120234314D03*
%TO.P,U1,12,GPIO9*%
%TO.N,unconnected-(U1-GPIO9-Pad12)*%
X96860000Y-117694314D03*
%TO.P,U1,13,GPIO8*%
%TO.N,unconnected-(U1-GPIO8-Pad13)*%
X96860000Y-115154314D03*
%TO.P,U1,14,GPIO7*%
%TO.N,Net-(U1-GPIO7)*%
X96860000Y-112614314D03*
%TO.P,U1,15,GPIO6*%
%TO.N,Net-(U1-GPIO6)*%
X96860000Y-110074314D03*
%TO.P,U1,16,GPIO5*%
%TO.N,Net-(U1-GPIO5)*%
X96860000Y-107534314D03*
%TD*%
D13*
%TO.P,Motor1,1,Pin_1*%
%TO.N,Net-(J4-Pin_1)*%
X84800000Y-149734314D03*
D14*
%TO.P,Motor1,2,Pin_2*%
%TO.N,Net-(J4-Pin_2)*%
X82300000Y-149734314D03*
%TD*%
D15*
%TO.P,D1,1,K*%
%TO.N,Net-(D1-K)*%
X109120000Y-135634314D03*
D16*
%TO.P,D1,2,A*%
%TO.N,Net-(D1-A)*%
X119280000Y-135634314D03*
%TD*%
D17*
%TO.P,Motor2,1,Pin_1*%
%TO.N,Net-(J3-Pin_1)*%
X90500000Y-133534314D03*
D14*
%TO.P,Motor2,2,Pin_2*%
%TO.N,Net-(J3-Pin_2)*%
X93000000Y-133534314D03*
%TD*%
D18*
%TO.P,J5,1,Pin_1*%
%TO.N,Net-(J5-Pin_1)*%
X128000000Y-143534314D03*
D19*
%TO.P,J5,2,Pin_2*%
%TO.N,GND*%
X128000000Y-146034314D03*
%TD*%
D20*
%TO.P,UART,1,Pin_1*%
%TO.N,Net-(J2-Pin_1)*%
X90300000Y-122934314D03*
D19*
%TO.P,UART,2,Pin_2*%
%TO.N,Net-(J2-Pin_2)*%
X90300000Y-120434314D03*
%TD*%
D12*
%TO.P,U4,1,+VIN*%
%TO.N,Net-(J5-Pin_1)*%
X122300000Y-140714314D03*
%TO.P,U4,2,GND*%
%TO.N,GND*%
X122300000Y-148334314D03*
%TO.P,U4,3,+VOUT*%
%TO.N,Net-(D1-A)*%
X109600000Y-140714314D03*
%TO.P,U4,4,GND*%
%TO.N,GND*%
X109600000Y-148334314D03*
%TD*%
D21*
%TO.P,SW1,*%
%TO.N,*%
X104700000Y-149334314D03*
X96500000Y-149334314D03*
D22*
%TO.P,SW1,1,A*%
%TO.N,Net-(J5-Pin_1)*%
X102600000Y-149334314D03*
D23*
%TO.P,SW1,2,B*%
%TO.N,Net-(SW1A-B)*%
X100600000Y-149334314D03*
%TO.P,SW1,3,C*%
%TO.N,unconnected-(SW1A-C-Pad3)*%
X98600000Y-149334314D03*
%TD*%
D24*
%TO.N,Net-(D1-K)*%
X81605000Y-135634314D02*
X109120000Y-135634314D01*
X79225000Y-138014314D02*
X81605000Y-135634314D01*
%TD*%
%TA.AperFunction,Conductor*%
%TO.N,GND*%
G36*
X89064920Y-145388708D02*
G01*
X89012259Y-145479920D01*
X88985000Y-145581653D01*
X88985000Y-145686975D01*
X89012259Y-145788708D01*
X89064920Y-145879920D01*
X89069314Y-145884314D01*
X87160686Y-145884314D01*
X87165080Y-145879920D01*
X87217741Y-145788708D01*
X87245000Y-145686975D01*
X87245000Y-145581653D01*
X87217741Y-145479920D01*
X87165080Y-145388708D01*
X87160686Y-145384314D01*
X89069314Y-145384314D01*
X89064920Y-145388708D01*
G37*
%TD.AperFunction*%
%TA.AperFunction,Conductor*%
G36*
X116542539Y-103454499D02*
G01*
X116588294Y-103507303D01*
X116599500Y-103558814D01*
X116599500Y-133004500D01*
X116600000Y-133012130D01*
X116600000Y-133434314D01*
X117022184Y-133434314D01*
X117029813Y-133434814D01*
X117034108Y-133434814D01*
X131475500Y-133434814D01*
X131542539Y-133454499D01*
X131588294Y-133507303D01*
X131599500Y-133558814D01*
X131599500Y-152309814D01*
X131579815Y-152376853D01*
X131527011Y-152422608D01*
X131475500Y-152433814D01*
X72724500Y-152433814D01*
X72657461Y-152414129D01*
X72611706Y-152361325D01*
X72600500Y-152309814D01*
X72600500Y-149478027D01*
X80949500Y-149478027D01*
X80949500Y-149990600D01*
X80982753Y-150200553D01*
X81048444Y-150402728D01*
X81144951Y-150592134D01*
X81269890Y-150764100D01*
X81420213Y-150914423D01*
X81592179Y-151039362D01*
X81592181Y-151039363D01*
X81592184Y-151039365D01*
X81781588Y-151135871D01*
X81983757Y-151201560D01*
X82193713Y-151234814D01*
X82193714Y-151234814D01*
X82406286Y-151234814D01*
X82406287Y-151234814D01*
X82616243Y-151201560D01*
X82818412Y-151135871D01*
X83007816Y-151039365D01*
X83179792Y-150914418D01*
X83318604Y-150775605D01*
X83379923Y-150742123D01*
X83449615Y-150747107D01*
X83505549Y-150788978D01*
X83511821Y-150798192D01*
X83515185Y-150803647D01*
X83515186Y-150803648D01*
X83607288Y-150952970D01*
X83731344Y-151077026D01*
X83880666Y-151169128D01*
X84047203Y-151224313D01*
X84149991Y-151234814D01*
X85450008Y-151234813D01*
X85552797Y-151224313D01*
X85719334Y-151169128D01*
X85868656Y-151077026D01*
X85992712Y-150952970D01*
X86084814Y-150803648D01*
X86139999Y-150637111D01*
X86150500Y-150534323D01*
X86150499Y-148934306D01*
X86139999Y-148831517D01*
X86084814Y-148664980D01*
X85992712Y-148515658D01*
X85868656Y-148391602D01*
X85719334Y-148299500D01*
X85552797Y-148244315D01*
X85552795Y-148244314D01*
X85450010Y-148233814D01*
X84149998Y-148233814D01*
X84149981Y-148233815D01*
X84047203Y-148244314D01*
X84047200Y-148244315D01*
X83880668Y-148299499D01*
X83880663Y-148299501D01*
X83731342Y-148391603D01*
X83607289Y-148515656D01*
X83511821Y-148670435D01*
X83459873Y-148717159D01*
X83390910Y-148728382D01*
X83326828Y-148700538D01*
X83318601Y-148693019D01*
X83179786Y-148554204D01*
X83007820Y-148429265D01*
X82818414Y-148332758D01*
X82818413Y-148332757D01*
X82818412Y-148332757D01*
X82616243Y-148267068D01*
X82616241Y-148267067D01*
X82616240Y-148267067D01*
X82454957Y-148241522D01*
X82406287Y-148233814D01*
X82193713Y-148233814D01*
X82145042Y-148241522D01*
X81983760Y-148267067D01*
X81781585Y-148332758D01*
X81592179Y-148429265D01*
X81420213Y-148554204D01*
X81269890Y-148704527D01*
X81144951Y-148876493D01*
X81048444Y-149065899D01*
X80982753Y-149268074D01*
X80949500Y-149478027D01*
X72600500Y-149478027D01*
X72600500Y-144786449D01*
X77924500Y-144786449D01*
X77924500Y-146482184D01*
X77924501Y-146482190D01*
X77930908Y-146541797D01*
X77981202Y-146676642D01*
X77981206Y-146676649D01*
X78067452Y-146791858D01*
X78067455Y-146791861D01*
X78182664Y-146878107D01*
X78182671Y-146878111D01*
X78317517Y-146928405D01*
X78317516Y-146928405D01*
X78324444Y-146929149D01*
X78377127Y-146934814D01*
X80072872Y-146934813D01*
X80132483Y-146928405D01*
X80267331Y-146878110D01*
X80382546Y-146791860D01*
X80468796Y-146676645D01*
X80519091Y-146541797D01*
X80522862Y-146506715D01*
X80549599Y-146442169D01*
X80606990Y-146402320D01*
X80676816Y-146399825D01*
X80736905Y-146435477D01*
X80747726Y-146448850D01*
X80764956Y-146473457D01*
X80925858Y-146634359D01*
X80925861Y-146634361D01*
X81112266Y-146764882D01*
X81318504Y-146861053D01*
X81538308Y-146919949D01*
X81700230Y-146934115D01*
X81764998Y-146939782D01*
X81765000Y-146939782D01*
X81765002Y-146939782D01*
X81824768Y-146934553D01*
X81991692Y-146919949D01*
X82211496Y-146861053D01*
X82417734Y-146764882D01*
X82604139Y-146634361D01*
X82765047Y-146473453D01*
X82895568Y-146287048D01*
X82922618Y-146229038D01*
X82968790Y-146176599D01*
X83035983Y-146157447D01*
X83102865Y-146177662D01*
X83147382Y-146229039D01*
X83174429Y-146287042D01*
X83174432Y-146287048D01*
X83304954Y-146473455D01*
X83465858Y-146634359D01*
X83465861Y-146634361D01*
X83652266Y-146764882D01*
X83858504Y-146861053D01*
X84078308Y-146919949D01*
X84240230Y-146934115D01*
X84304998Y-146939782D01*
X84305000Y-146939782D01*
X84305002Y-146939782D01*
X84364768Y-146934553D01*
X84531692Y-146919949D01*
X84751496Y-146861053D01*
X84957734Y-146764882D01*
X85144139Y-146634361D01*
X85305047Y-146473453D01*
X85435568Y-146287048D01*
X85462895Y-146228443D01*
X85509064Y-146176009D01*
X85576257Y-146156856D01*
X85643139Y-146177071D01*
X85687657Y-146228447D01*
X85714865Y-146286796D01*
X85845342Y-146473134D01*
X86006179Y-146633971D01*
X86192517Y-146764448D01*
X86398673Y-146860579D01*
X86398682Y-146860583D01*
X86594999Y-146913186D01*
X86595000Y-146913185D01*
X86595000Y-145950000D01*
X86599394Y-145954394D01*
X86690606Y-146007055D01*
X86792339Y-146034314D01*
X86897661Y-146034314D01*
X86999394Y-146007055D01*
X87090606Y-145954394D01*
X87095000Y-145950000D01*
X87095000Y-146913186D01*
X87291317Y-146860583D01*
X87291326Y-146860579D01*
X87497482Y-146764448D01*
X87683820Y-146633971D01*
X87844657Y-146473134D01*
X87975134Y-146286795D01*
X87975135Y-146286793D01*
X88002618Y-146227857D01*
X88048790Y-146175417D01*
X88115983Y-146156265D01*
X88182864Y-146176480D01*
X88227382Y-146227857D01*
X88254864Y-146286793D01*
X88254865Y-146286795D01*
X88385342Y-146473134D01*
X88546179Y-146633971D01*
X88732517Y-146764448D01*
X88938673Y-146860579D01*
X88938682Y-146860583D01*
X89134999Y-146913186D01*
X89135000Y-146913185D01*
X89135000Y-145950000D01*
X89139394Y-145954394D01*
X89230606Y-146007055D01*
X89332339Y-146034314D01*
X89437661Y-146034314D01*
X89539394Y-146007055D01*
X89630606Y-145954394D01*
X89635000Y-145950000D01*
X89635000Y-146913186D01*
X89831317Y-146860583D01*
X89831326Y-146860579D01*
X90037482Y-146764448D01*
X90223820Y-146633971D01*
X90384657Y-146473134D01*
X90515132Y-146286798D01*
X90542341Y-146228448D01*
X90588513Y-146176009D01*
X90655707Y-146156856D01*
X90722588Y-146177071D01*
X90767106Y-146228447D01*
X90794431Y-146287046D01*
X90794432Y-146287048D01*
X90924954Y-146473455D01*
X91085858Y-146634359D01*
X91085861Y-146634361D01*
X91272266Y-146764882D01*
X91478504Y-146861053D01*
X91698308Y-146919949D01*
X91860230Y-146934115D01*
X91924998Y-146939782D01*
X91925000Y-146939782D01*
X91925002Y-146939782D01*
X91984768Y-146934553D01*
X92151692Y-146919949D01*
X92371496Y-146861053D01*
X92577734Y-146764882D01*
X92764139Y-146634361D01*
X92925047Y-146473453D01*
X93055568Y-146287048D01*
X93082618Y-146229038D01*
X93128790Y-146176599D01*
X93195983Y-146157447D01*
X93262865Y-146177662D01*
X93307382Y-146229039D01*
X93334429Y-146287042D01*
X93334432Y-146287048D01*
X93464954Y-146473455D01*
X93625858Y-146634359D01*
X93625861Y-146634361D01*
X93812266Y-146764882D01*
X94018504Y-146861053D01*
X94238308Y-146919949D01*
X94400230Y-146934115D01*
X94464998Y-146939782D01*
X94465000Y-146939782D01*
X94465002Y-146939782D01*
X94524768Y-146934553D01*
X94691692Y-146919949D01*
X94911496Y-146861053D01*
X95117734Y-146764882D01*
X95304139Y-146634361D01*
X95465047Y-146473453D01*
X95595568Y-146287048D01*
X95622618Y-146229038D01*
X95668790Y-146176599D01*
X95735983Y-146157447D01*
X95802865Y-146177662D01*
X95847382Y-146229039D01*
X95874429Y-146287042D01*
X95874432Y-146287048D01*
X96004954Y-146473455D01*
X96165858Y-146634359D01*
X96165861Y-146634361D01*
X96352266Y-146764882D01*
X96529294Y-146847432D01*
X96581733Y-146893605D01*
X96600885Y-146960798D01*
X96580669Y-147027679D01*
X96527504Y-147073014D01*
X96476889Y-147083814D01*
X96374038Y-147083814D01*
X96249626Y-147103519D01*
X96125214Y-147123224D01*
X95885616Y-147201074D01*
X95661151Y-147315446D01*
X95457350Y-147463515D01*
X95457345Y-147463519D01*
X95279205Y-147641659D01*
X95279201Y-147641664D01*
X95131132Y-147845465D01*
X95016760Y-148069930D01*
X94938910Y-148309528D01*
X94899500Y-148558352D01*
X94899500Y-150110275D01*
X94938910Y-150359099D01*
X95016760Y-150598697D01*
X95048999Y-150661968D01*
X95113286Y-150788139D01*
X95131132Y-150823162D01*
X95279201Y-151026963D01*
X95279205Y-151026968D01*
X95457345Y-151205108D01*
X95457350Y-151205112D01*
X95498232Y-151234814D01*
X95661155Y-151353184D01*
X95804184Y-151426061D01*
X95885616Y-151467553D01*
X95885618Y-151467553D01*
X95885621Y-151467555D01*
X96125215Y-151545404D01*
X96374038Y-151584814D01*
X96374039Y-151584814D01*
X96625961Y-151584814D01*
X96625962Y-151584814D01*
X96874785Y-151545404D01*
X97114379Y-151467555D01*
X97338845Y-151353184D01*
X97542656Y-151205107D01*
X97720793Y-151026970D01*
X97784298Y-150939561D01*
X97839628Y-150896895D01*
X97909241Y-150890916D01*
X97940912Y-150901961D01*
X97944593Y-150903836D01*
X97944595Y-150903838D01*
X98014708Y-150939562D01*
X98119970Y-150993196D01*
X98119972Y-150993196D01*
X98119975Y-150993198D01*
X98220317Y-151025801D01*
X98307173Y-151054023D01*
X98501578Y-151084814D01*
X98501583Y-151084814D01*
X98698422Y-151084814D01*
X98892826Y-151054023D01*
X98937938Y-151039365D01*
X99080025Y-150993198D01*
X99255405Y-150903838D01*
X99414646Y-150788142D01*
X99512319Y-150690469D01*
X99573642Y-150656984D01*
X99643334Y-150661968D01*
X99687681Y-150690469D01*
X99785354Y-150788142D01*
X99944595Y-150903838D01*
X100014708Y-150939562D01*
X100119970Y-150993196D01*
X100119972Y-150993196D01*
X100119975Y-150993198D01*
X100220317Y-151025801D01*
X100307173Y-151054023D01*
X100501578Y-151084814D01*
X100501583Y-151084814D01*
X100698422Y-151084814D01*
X100892826Y-151054023D01*
X100937938Y-151039365D01*
X101080025Y-150993198D01*
X101255405Y-150903838D01*
X101291614Y-150877529D01*
X101357417Y-150854050D01*
X101425471Y-150869874D01*
X101463763Y-150903534D01*
X101492454Y-150941860D01*
X101492455Y-150941860D01*
X101492456Y-150941862D01*
X101607664Y-151028107D01*
X101607671Y-151028111D01*
X101742517Y-151078405D01*
X101742516Y-151078405D01*
X101749444Y-151079149D01*
X101802127Y-151084814D01*
X103397872Y-151084813D01*
X103457483Y-151078405D01*
X103457486Y-151078403D01*
X103464554Y-151077644D01*
X103533314Y-151090050D01*
X103565490Y-151113253D01*
X103657345Y-151205108D01*
X103657350Y-151205112D01*
X103698232Y-151234814D01*
X103861155Y-151353184D01*
X104004184Y-151426061D01*
X104085616Y-151467553D01*
X104085618Y-151467553D01*
X104085621Y-151467555D01*
X104325215Y-151545404D01*
X104574038Y-151584814D01*
X104574039Y-151584814D01*
X104825961Y-151584814D01*
X104825962Y-151584814D01*
X105074785Y-151545404D01*
X105314379Y-151467555D01*
X105538845Y-151353184D01*
X105742656Y-151205107D01*
X105920793Y-151026970D01*
X106068870Y-150823159D01*
X106183241Y-150598693D01*
X106261090Y-150359099D01*
X106300500Y-150110276D01*
X106300500Y-148558352D01*
X106265015Y-148334313D01*
X108333179Y-148334313D01*
X108333179Y-148334314D01*
X108352424Y-148554290D01*
X108352426Y-148554300D01*
X108409575Y-148767584D01*
X108409580Y-148767598D01*
X108502898Y-148967719D01*
X108502901Y-148967725D01*
X108548258Y-149032501D01*
X108548258Y-149032502D01*
X109219000Y-148361760D01*
X109219000Y-148384474D01*
X109244964Y-148481375D01*
X109295124Y-148568254D01*
X109366060Y-148639190D01*
X109452939Y-148689350D01*
X109549840Y-148715314D01*
X109572553Y-148715314D01*
X108901810Y-149386054D01*
X108966590Y-149431413D01*
X108966592Y-149431414D01*
X109166715Y-149524733D01*
X109166729Y-149524738D01*
X109380013Y-149581887D01*
X109380023Y-149581889D01*
X109599999Y-149601135D01*
X109600001Y-149601135D01*
X109819976Y-149581889D01*
X109819986Y-149581887D01*
X110033270Y-149524738D01*
X110033284Y-149524733D01*
X110233407Y-149431414D01*
X110233417Y-149431408D01*
X110298188Y-149386055D01*
X109627448Y-148715314D01*
X109650160Y-148715314D01*
X109747061Y-148689350D01*
X109833940Y-148639190D01*
X109904876Y-148568254D01*
X109955036Y-148481375D01*
X109981000Y-148384474D01*
X109981000Y-148361761D01*
X110651741Y-149032502D01*
X110697094Y-148967731D01*
X110697100Y-148967721D01*
X110790419Y-148767598D01*
X110790424Y-148767584D01*
X110847573Y-148554300D01*
X110847575Y-148554290D01*
X110866821Y-148334314D01*
X110866821Y-148334313D01*
X121033179Y-148334313D01*
X121033179Y-148334314D01*
X121052424Y-148554290D01*
X121052426Y-148554300D01*
X121109575Y-148767584D01*
X121109580Y-148767598D01*
X121202898Y-148967719D01*
X121202901Y-148967725D01*
X121248258Y-149032501D01*
X121248258Y-149032502D01*
X121919000Y-148361760D01*
X121919000Y-148384474D01*
X121944964Y-148481375D01*
X121995124Y-148568254D01*
X122066060Y-148639190D01*
X122152939Y-148689350D01*
X122249840Y-148715314D01*
X122272553Y-148715314D01*
X121601810Y-149386054D01*
X121666590Y-149431413D01*
X121666592Y-149431414D01*
X121866715Y-149524733D01*
X121866729Y-149524738D01*
X122080013Y-149581887D01*
X122080023Y-149581889D01*
X122299999Y-149601135D01*
X122300001Y-149601135D01*
X122519976Y-149581889D01*
X122519986Y-149581887D01*
X122733270Y-149524738D01*
X122733284Y-149524733D01*
X122933407Y-149431414D01*
X122933417Y-149431408D01*
X122998188Y-149386055D01*
X122327448Y-148715314D01*
X122350160Y-148715314D01*
X122447061Y-148689350D01*
X122533940Y-148639190D01*
X122604876Y-148568254D01*
X122655036Y-148481375D01*
X122681000Y-148384474D01*
X122681000Y-148361761D01*
X123351741Y-149032502D01*
X123397094Y-148967731D01*
X123397100Y-148967721D01*
X123490419Y-148767598D01*
X123490424Y-148767584D01*
X123547573Y-148554300D01*
X123547575Y-148554290D01*
X123566821Y-148334314D01*
X123566821Y-148334313D01*
X123547575Y-148114337D01*
X123547573Y-148114327D01*
X123490424Y-147901043D01*
X123490420Y-147901034D01*
X123397096Y-147700900D01*
X123351741Y-147636125D01*
X123351740Y-147636124D01*
X122681000Y-148306865D01*
X122681000Y-148284154D01*
X122655036Y-148187253D01*
X122604876Y-148100374D01*
X122533940Y-148029438D01*
X122447061Y-147979278D01*
X122350160Y-147953314D01*
X122327447Y-147953314D01*
X122998188Y-147282572D01*
X122933411Y-147237215D01*
X122933405Y-147237212D01*
X122733284Y-147143894D01*
X122733270Y-147143889D01*
X122519986Y-147086740D01*
X122519976Y-147086738D01*
X122300001Y-147067493D01*
X122299999Y-147067493D01*
X122080023Y-147086738D01*
X122080013Y-147086740D01*
X121866729Y-147143889D01*
X121866720Y-147143893D01*
X121666590Y-147237215D01*
X121601811Y-147282572D01*
X122272554Y-147953314D01*
X122249840Y-147953314D01*
X122152939Y-147979278D01*
X122066060Y-148029438D01*
X121995124Y-148100374D01*
X121944964Y-148187253D01*
X121919000Y-148284154D01*
X121919000Y-148306867D01*
X121248258Y-147636125D01*
X121202901Y-147700904D01*
X121109579Y-147901034D01*
X121109575Y-147901043D01*
X121052426Y-148114327D01*
X121052424Y-148114337D01*
X121033179Y-148334313D01*
X110866821Y-148334313D01*
X110847575Y-148114337D01*
X110847573Y-148114327D01*
X110790424Y-147901043D01*
X110790420Y-147901034D01*
X110697096Y-147700900D01*
X110651741Y-147636125D01*
X110651740Y-147636124D01*
X109981000Y-148306865D01*
X109981000Y-148284154D01*
X109955036Y-148187253D01*
X109904876Y-148100374D01*
X109833940Y-148029438D01*
X109747061Y-147979278D01*
X109650160Y-147953314D01*
X109627447Y-147953314D01*
X110298188Y-147282572D01*
X110233411Y-147237215D01*
X110233405Y-147237212D01*
X110033284Y-147143894D01*
X110033270Y-147143889D01*
X109819986Y-147086740D01*
X109819976Y-147086738D01*
X109600001Y-147067493D01*
X109599999Y-147067493D01*
X109380023Y-147086738D01*
X109380013Y-147086740D01*
X109166729Y-147143889D01*
X109166720Y-147143893D01*
X108966590Y-147237215D01*
X108901811Y-147282572D01*
X109572554Y-147953314D01*
X109549840Y-147953314D01*
X109452939Y-147979278D01*
X109366060Y-148029438D01*
X109295124Y-148100374D01*
X109244964Y-148187253D01*
X109219000Y-148284154D01*
X109219000Y-148306867D01*
X108548258Y-147636125D01*
X108502901Y-147700904D01*
X108409579Y-147901034D01*
X108409575Y-147901043D01*
X108352426Y-148114327D01*
X108352424Y-148114337D01*
X108333179Y-148334313D01*
X106265015Y-148334313D01*
X106261090Y-148309529D01*
X106183241Y-148069935D01*
X106183239Y-148069932D01*
X106183239Y-148069930D01*
X106136479Y-147978159D01*
X106068870Y-147845469D01*
X106020986Y-147779562D01*
X105920798Y-147641664D01*
X105920794Y-147641659D01*
X105742654Y-147463519D01*
X105742649Y-147463515D01*
X105538848Y-147315446D01*
X105538847Y-147315445D01*
X105538845Y-147315444D01*
X105468747Y-147279727D01*
X105314383Y-147201074D01*
X105074785Y-147123224D01*
X104825962Y-147083814D01*
X104574038Y-147083814D01*
X104449626Y-147103519D01*
X104325214Y-147123224D01*
X104085616Y-147201074D01*
X103861151Y-147315446D01*
X103657350Y-147463514D01*
X103565487Y-147555376D01*
X103504163Y-147588860D01*
X103464553Y-147590983D01*
X103455522Y-147590012D01*
X103397873Y-147583814D01*
X103397865Y-147583814D01*
X101802129Y-147583814D01*
X101802123Y-147583815D01*
X101742516Y-147590222D01*
X101607671Y-147640516D01*
X101607664Y-147640520D01*
X101492455Y-147726766D01*
X101463765Y-147765091D01*
X101407830Y-147806962D01*
X101338139Y-147811945D01*
X101291613Y-147791097D01*
X101255405Y-147764790D01*
X101080029Y-147675431D01*
X100892826Y-147614604D01*
X100698422Y-147583814D01*
X100698417Y-147583814D01*
X100501583Y-147583814D01*
X100501578Y-147583814D01*
X100307173Y-147614604D01*
X100119970Y-147675431D01*
X99944594Y-147764790D01*
X99879692Y-147811945D01*
X99785354Y-147880486D01*
X99785352Y-147880488D01*
X99785351Y-147880488D01*
X99687681Y-147978159D01*
X99626358Y-148011644D01*
X99556666Y-148006660D01*
X99512319Y-147978159D01*
X99414648Y-147880488D01*
X99414646Y-147880486D01*
X99255405Y-147764790D01*
X99232825Y-147753285D01*
X99080029Y-147675431D01*
X98892826Y-147614604D01*
X98698422Y-147583814D01*
X98698417Y-147583814D01*
X98501583Y-147583814D01*
X98501578Y-147583814D01*
X98307173Y-147614604D01*
X98119967Y-147675432D01*
X97940911Y-147766666D01*
X97872242Y-147779562D01*
X97807502Y-147753285D01*
X97784299Y-147729066D01*
X97720798Y-147641663D01*
X97542654Y-147463519D01*
X97542649Y-147463515D01*
X97338848Y-147315446D01*
X97338847Y-147315445D01*
X97338845Y-147315444D01*
X97268747Y-147279727D01*
X97114383Y-147201074D01*
X97037250Y-147176012D01*
X96979575Y-147136574D01*
X96952377Y-147072215D01*
X96964292Y-147003368D01*
X97011537Y-146951893D01*
X97064759Y-146934553D01*
X97231692Y-146919949D01*
X97451496Y-146861053D01*
X97657734Y-146764882D01*
X97844139Y-146634361D01*
X98005047Y-146473453D01*
X98135568Y-146287048D01*
X98231739Y-146080810D01*
X98290635Y-145861006D01*
X98310468Y-145634314D01*
X98310459Y-145634215D01*
X98290635Y-145407627D01*
X98290635Y-145407622D01*
X98231739Y-145187818D01*
X98135568Y-144981580D01*
X98005047Y-144795175D01*
X98005045Y-144795172D01*
X97844141Y-144634268D01*
X97657734Y-144503746D01*
X97657732Y-144503745D01*
X97451497Y-144407575D01*
X97451488Y-144407572D01*
X97231697Y-144348680D01*
X97231693Y-144348679D01*
X97231692Y-144348679D01*
X97231691Y-144348678D01*
X97231686Y-144348678D01*
X97005002Y-144328846D01*
X97004998Y-144328846D01*
X96778313Y-144348678D01*
X96778302Y-144348680D01*
X96558511Y-144407572D01*
X96558502Y-144407575D01*
X96352267Y-144503745D01*
X96352265Y-144503746D01*
X96165858Y-144634268D01*
X96004954Y-144795172D01*
X95874432Y-144981579D01*
X95874431Y-144981581D01*
X95847382Y-145039589D01*
X95801209Y-145092028D01*
X95734016Y-145111180D01*
X95667135Y-145090964D01*
X95622618Y-145039589D01*
X95611610Y-145015982D01*
X95595568Y-144981580D01*
X95465047Y-144795175D01*
X95465045Y-144795172D01*
X95304141Y-144634268D01*
X95117734Y-144503746D01*
X95117732Y-144503745D01*
X94911497Y-144407575D01*
X94911488Y-144407572D01*
X94691697Y-144348680D01*
X94691693Y-144348679D01*
X94691692Y-144348679D01*
X94691691Y-144348678D01*
X94691686Y-144348678D01*
X94465002Y-144328846D01*
X94464998Y-144328846D01*
X94238313Y-144348678D01*
X94238302Y-144348680D01*
X94018511Y-144407572D01*
X94018502Y-144407575D01*
X93812267Y-144503745D01*
X93812265Y-144503746D01*
X93625858Y-144634268D01*
X93464954Y-144795172D01*
X93334432Y-144981579D01*
X93334431Y-144981581D01*
X93307382Y-145039589D01*
X93261209Y-145092028D01*
X93194016Y-145111180D01*
X93127135Y-145090964D01*
X93082618Y-145039589D01*
X93071610Y-145015982D01*
X93055568Y-144981580D01*
X92925047Y-144795175D01*
X92925045Y-144795172D01*
X92764141Y-144634268D01*
X92577734Y-144503746D01*
X92577732Y-144503745D01*
X92371497Y-144407575D01*
X92371488Y-144407572D01*
X92151697Y-144348680D01*
X92151693Y-144348679D01*
X92151692Y-144348679D01*
X92151691Y-144348678D01*
X92151686Y-144348678D01*
X91925002Y-144328846D01*
X91924998Y-144328846D01*
X91698313Y-144348678D01*
X91698302Y-144348680D01*
X91478511Y-144407572D01*
X91478502Y-144407575D01*
X91272267Y-144503745D01*
X91272265Y-144503746D01*
X91085858Y-144634268D01*
X90924954Y-144795172D01*
X90820975Y-144943672D01*
X90794432Y-144981580D01*
X90794315Y-144981832D01*
X90767106Y-145040181D01*
X90720933Y-145092620D01*
X90653739Y-145111771D01*
X90586858Y-145091555D01*
X90542342Y-145040179D01*
X90515135Y-144981834D01*
X90515134Y-144981832D01*
X90384657Y-144795493D01*
X90223820Y-144634656D01*
X90037482Y-144504179D01*
X89831328Y-144408048D01*
X89635000Y-144355441D01*
X89635000Y-145318628D01*
X89630606Y-145314234D01*
X89539394Y-145261573D01*
X89437661Y-145234314D01*
X89332339Y-145234314D01*
X89230606Y-145261573D01*
X89139394Y-145314234D01*
X89135000Y-145318628D01*
X89135000Y-144355441D01*
X88938671Y-144408048D01*
X88732517Y-144504179D01*
X88546179Y-144634656D01*
X88385342Y-144795493D01*
X88254865Y-144981831D01*
X88227382Y-145040771D01*
X88181210Y-145093210D01*
X88114016Y-145112362D01*
X88047135Y-145092146D01*
X88002618Y-145040771D01*
X87975134Y-144981831D01*
X87844657Y-144795493D01*
X87683820Y-144634656D01*
X87497482Y-144504179D01*
X87291328Y-144408048D01*
X87095000Y-144355441D01*
X87095000Y-145318628D01*
X87090606Y-145314234D01*
X86999394Y-145261573D01*
X86897661Y-145234314D01*
X86792339Y-145234314D01*
X86690606Y-145261573D01*
X86599394Y-145314234D01*
X86595000Y-145318628D01*
X86595000Y-144355441D01*
X86398671Y-144408048D01*
X86192517Y-144504179D01*
X86006179Y-144634656D01*
X85845342Y-144795493D01*
X85714867Y-144981829D01*
X85687657Y-145040181D01*
X85641484Y-145092620D01*
X85574290Y-145111771D01*
X85507409Y-145091555D01*
X85462893Y-145040179D01*
X85447773Y-145007755D01*
X85435568Y-144981580D01*
X85305047Y-144795175D01*
X85305045Y-144795172D01*
X85144141Y-144634268D01*
X84957734Y-144503746D01*
X84957732Y-144503745D01*
X84751497Y-144407575D01*
X84751488Y-144407572D01*
X84531697Y-144348680D01*
X84531693Y-144348679D01*
X84531692Y-144348679D01*
X84531691Y-144348678D01*
X84531686Y-144348678D01*
X84305002Y-144328846D01*
X84304998Y-144328846D01*
X84078313Y-144348678D01*
X84078302Y-144348680D01*
X83858511Y-144407572D01*
X83858502Y-144407575D01*
X83652267Y-144503745D01*
X83652265Y-144503746D01*
X83465858Y-144634268D01*
X83304954Y-144795172D01*
X83174432Y-144981579D01*
X83174431Y-144981581D01*
X83147382Y-145039589D01*
X83101209Y-145092028D01*
X83034016Y-145111180D01*
X82967135Y-145090964D01*
X82922618Y-145039589D01*
X82911610Y-145015982D01*
X82895568Y-144981580D01*
X82765047Y-144795175D01*
X82765045Y-144795172D01*
X82604141Y-144634268D01*
X82417734Y-144503746D01*
X82417732Y-144503745D01*
X82211497Y-144407575D01*
X82211488Y-144407572D01*
X81991697Y-144348680D01*
X81991693Y-144348679D01*
X81991692Y-144348679D01*
X81991691Y-144348678D01*
X81991686Y-144348678D01*
X81765002Y-144328846D01*
X81764998Y-144328846D01*
X81538313Y-144348678D01*
X81538302Y-144348680D01*
X81318511Y-144407572D01*
X81318502Y-144407575D01*
X81112267Y-144503745D01*
X81112265Y-144503746D01*
X80925858Y-144634268D01*
X80764954Y-144795172D01*
X80747725Y-144819778D01*
X80693147Y-144863402D01*
X80623648Y-144870594D01*
X80561294Y-144839071D01*
X80525882Y-144778840D01*
X80522861Y-144761905D01*
X80519091Y-144726830D01*
X80468797Y-144591985D01*
X80468793Y-144591978D01*
X80382547Y-144476769D01*
X80382544Y-144476766D01*
X80267335Y-144390520D01*
X80267328Y-144390516D01*
X80132482Y-144340222D01*
X80132483Y-144340222D01*
X80072883Y-144333815D01*
X80072881Y-144333814D01*
X80072873Y-144333814D01*
X80072864Y-144333814D01*
X78377129Y-144333814D01*
X78377123Y-144333815D01*
X78317516Y-144340222D01*
X78182671Y-144390516D01*
X78182664Y-144390520D01*
X78067455Y-144476766D01*
X78067452Y-144476769D01*
X77981206Y-144591978D01*
X77981202Y-144591985D01*
X77930908Y-144726831D01*
X77924501Y-144786430D01*
X77924500Y-144786449D01*
X72600500Y-144786449D01*
X72600500Y-142884297D01*
X126499500Y-142884297D01*
X126499500Y-144184315D01*
X126499501Y-144184332D01*
X126510000Y-144287110D01*
X126510001Y-144287113D01*
X126565185Y-144453645D01*
X126565187Y-144453650D01*
X126596354Y-144504179D01*
X126657288Y-144602970D01*
X126781344Y-144727026D01*
X126892347Y-144795493D01*
X126936558Y-144822762D01*
X126983283Y-144874710D01*
X126994506Y-144943672D01*
X126966663Y-145007755D01*
X126959144Y-145015982D01*
X126820271Y-145154855D01*
X126695379Y-145326756D01*
X126598904Y-145516096D01*
X126533242Y-145718184D01*
X126533242Y-145718187D01*
X126522769Y-145784314D01*
X127566988Y-145784314D01*
X127534075Y-145841321D01*
X127500000Y-145968488D01*
X127500000Y-146100140D01*
X127534075Y-146227307D01*
X127566988Y-146284314D01*
X126522769Y-146284314D01*
X126533242Y-146350440D01*
X126533242Y-146350443D01*
X126598904Y-146552531D01*
X126695379Y-146741871D01*
X126820272Y-146913773D01*
X126820276Y-146913778D01*
X126970535Y-147064037D01*
X126970540Y-147064041D01*
X127142442Y-147188934D01*
X127331782Y-147285409D01*
X127533870Y-147351071D01*
X127743754Y-147384314D01*
X127750000Y-147384314D01*
X127750000Y-146467326D01*
X127807007Y-146500239D01*
X127934174Y-146534314D01*
X128065826Y-146534314D01*
X128192993Y-146500239D01*
X128250000Y-146467326D01*
X128250000Y-147384314D01*
X128256246Y-147384314D01*
X128466127Y-147351071D01*
X128466130Y-147351071D01*
X128668217Y-147285409D01*
X128857557Y-147188934D01*
X129029459Y-147064041D01*
X129029464Y-147064037D01*
X129179723Y-146913778D01*
X129179727Y-146913773D01*
X129304620Y-146741871D01*
X129401095Y-146552531D01*
X129466757Y-146350443D01*
X129466757Y-146350440D01*
X129477231Y-146284314D01*
X128433012Y-146284314D01*
X128465925Y-146227307D01*
X128500000Y-146100140D01*
X128500000Y-145968488D01*
X128465925Y-145841321D01*
X128433012Y-145784314D01*
X129477231Y-145784314D01*
X129466757Y-145718187D01*
X129466757Y-145718184D01*
X129401095Y-145516096D01*
X129304620Y-145326756D01*
X129179727Y-145154854D01*
X129179723Y-145154849D01*
X129040856Y-145015982D01*
X129007371Y-144954659D01*
X129012355Y-144884967D01*
X129054227Y-144829034D01*
X129063441Y-144822762D01*
X129069331Y-144819128D01*
X129069334Y-144819128D01*
X129218656Y-144727026D01*
X129342712Y-144602970D01*
X129434814Y-144453648D01*
X129489999Y-144287111D01*
X129500500Y-144184323D01*
X129500499Y-142884306D01*
X129489999Y-142781517D01*
X129434814Y-142614980D01*
X129342712Y-142465658D01*
X129218656Y-142341602D01*
X129069334Y-142249500D01*
X128902797Y-142194315D01*
X128902795Y-142194314D01*
X128800010Y-142183814D01*
X127199998Y-142183814D01*
X127199981Y-142183815D01*
X127097203Y-142194314D01*
X127097200Y-142194315D01*
X126930668Y-142249499D01*
X126930663Y-142249501D01*
X126781342Y-142341603D01*
X126657289Y-142465656D01*
X126565187Y-142614977D01*
X126565186Y-142614980D01*
X126510001Y-142781517D01*
X126510001Y-142781518D01*
X126510000Y-142781518D01*
X126499500Y-142884297D01*
X72600500Y-142884297D01*
X72600500Y-140714311D01*
X108332677Y-140714311D01*
X108332677Y-140714316D01*
X108351929Y-140934376D01*
X108351930Y-140934384D01*
X108409104Y-141147759D01*
X108409105Y-141147761D01*
X108409106Y-141147764D01*
X108502466Y-141347976D01*
X108502468Y-141347980D01*
X108629170Y-141528929D01*
X108629175Y-141528935D01*
X108785378Y-141685138D01*
X108785384Y-141685143D01*
X108966333Y-141811845D01*
X108966335Y-141811846D01*
X108966338Y-141811848D01*
X109166550Y-141905208D01*
X109379932Y-141962384D01*
X109537123Y-141976136D01*
X109599998Y-141981637D01*
X109600000Y-141981637D01*
X109600002Y-141981637D01*
X109655017Y-141976823D01*
X109820068Y-141962384D01*
X110033450Y-141905208D01*
X110233662Y-141811848D01*
X110414620Y-141685140D01*
X110570826Y-141528934D01*
X110697534Y-141347976D01*
X110790894Y-141147764D01*
X110848070Y-140934382D01*
X110867323Y-140714314D01*
X110867323Y-140714311D01*
X121032677Y-140714311D01*
X121032677Y-140714316D01*
X121051929Y-140934376D01*
X121051930Y-140934384D01*
X121109104Y-141147759D01*
X121109105Y-141147761D01*
X121109106Y-141147764D01*
X121202466Y-141347976D01*
X121202468Y-141347980D01*
X121329170Y-141528929D01*
X121329175Y-141528935D01*
X121485378Y-141685138D01*
X121485384Y-141685143D01*
X121666333Y-141811845D01*
X121666335Y-141811846D01*
X121666338Y-141811848D01*
X121866550Y-141905208D01*
X122079932Y-141962384D01*
X122237123Y-141976136D01*
X122299998Y-141981637D01*
X122300000Y-141981637D01*
X122300002Y-141981637D01*
X122355017Y-141976823D01*
X122520068Y-141962384D01*
X122733450Y-141905208D01*
X122933662Y-141811848D01*
X123114620Y-141685140D01*
X123270826Y-141528934D01*
X123397534Y-141347976D01*
X123490894Y-141147764D01*
X123548070Y-140934382D01*
X123567323Y-140714314D01*
X123548070Y-140494246D01*
X123490894Y-140280864D01*
X123397534Y-140080653D01*
X123270826Y-139899694D01*
X123114620Y-139743488D01*
X123114616Y-139743485D01*
X123114615Y-139743484D01*
X122933666Y-139616782D01*
X122933662Y-139616780D01*
X122933660Y-139616779D01*
X122733450Y-139523420D01*
X122733447Y-139523419D01*
X122733445Y-139523418D01*
X122520070Y-139466244D01*
X122520062Y-139466243D01*
X122300002Y-139446991D01*
X122299998Y-139446991D01*
X122079937Y-139466243D01*
X122079929Y-139466244D01*
X121866554Y-139523418D01*
X121866548Y-139523421D01*
X121666340Y-139616779D01*
X121666338Y-139616780D01*
X121485377Y-139743489D01*
X121329175Y-139899691D01*
X121202466Y-140080652D01*
X121202465Y-140080654D01*
X121109107Y-140280862D01*
X121109104Y-140280868D01*
X121051930Y-140494243D01*
X121051929Y-140494251D01*
X121032677Y-140714311D01*
X110867323Y-140714311D01*
X110848070Y-140494246D01*
X110790894Y-140280864D01*
X110697534Y-140080653D01*
X110570826Y-139899694D01*
X110414620Y-139743488D01*
X110414616Y-139743485D01*
X110414615Y-139743484D01*
X110233666Y-139616782D01*
X110233662Y-139616780D01*
X110233660Y-139616779D01*
X110033450Y-139523420D01*
X110033447Y-139523419D01*
X110033445Y-139523418D01*
X109820070Y-139466244D01*
X109820062Y-139466243D01*
X109600002Y-139446991D01*
X109599998Y-139446991D01*
X109379937Y-139466243D01*
X109379929Y-139466244D01*
X109166554Y-139523418D01*
X109166548Y-139523421D01*
X108966340Y-139616779D01*
X108966338Y-139616780D01*
X108785377Y-139743489D01*
X108629175Y-139899691D01*
X108502466Y-140080652D01*
X108502465Y-140080654D01*
X108409107Y-140280862D01*
X108409104Y-140280868D01*
X108351930Y-140494243D01*
X108351929Y-140494251D01*
X108332677Y-140714311D01*
X72600500Y-140714311D01*
X72600500Y-138014312D01*
X77919532Y-138014312D01*
X77919532Y-138014315D01*
X77939364Y-138241000D01*
X77939366Y-138241011D01*
X77998258Y-138460802D01*
X77998261Y-138460811D01*
X78094431Y-138667046D01*
X78094432Y-138667048D01*
X78224954Y-138853455D01*
X78385858Y-139014359D01*
X78385861Y-139014361D01*
X78572266Y-139144882D01*
X78778504Y-139241053D01*
X78998308Y-139299949D01*
X79160230Y-139314115D01*
X79224998Y-139319782D01*
X79225000Y-139319782D01*
X79225002Y-139319782D01*
X79281673Y-139314823D01*
X79451692Y-139299949D01*
X79671496Y-139241053D01*
X79877734Y-139144882D01*
X80064139Y-139014361D01*
X80225047Y-138853453D01*
X80355568Y-138667048D01*
X80382618Y-138609038D01*
X80428790Y-138556599D01*
X80495983Y-138537447D01*
X80562865Y-138557662D01*
X80607382Y-138609039D01*
X80634429Y-138667042D01*
X80634432Y-138667048D01*
X80764954Y-138853455D01*
X80925858Y-139014359D01*
X80925861Y-139014361D01*
X81112266Y-139144882D01*
X81318504Y-139241053D01*
X81538308Y-139299949D01*
X81700230Y-139314115D01*
X81764998Y-139319782D01*
X81765000Y-139319782D01*
X81765002Y-139319782D01*
X81821673Y-139314823D01*
X81991692Y-139299949D01*
X82211496Y-139241053D01*
X82417734Y-139144882D01*
X82604139Y-139014361D01*
X82765047Y-138853453D01*
X82895568Y-138667048D01*
X82922618Y-138609038D01*
X82968790Y-138556599D01*
X83035983Y-138537447D01*
X83102865Y-138557662D01*
X83147382Y-138609039D01*
X83174429Y-138667042D01*
X83174432Y-138667048D01*
X83304954Y-138853455D01*
X83465858Y-139014359D01*
X83465861Y-139014361D01*
X83652266Y-139144882D01*
X83858504Y-139241053D01*
X84078308Y-139299949D01*
X84240230Y-139314115D01*
X84304998Y-139319782D01*
X84305000Y-139319782D01*
X84305002Y-139319782D01*
X84361673Y-139314823D01*
X84531692Y-139299949D01*
X84751496Y-139241053D01*
X84957734Y-139144882D01*
X85144139Y-139014361D01*
X85305047Y-138853453D01*
X85435568Y-138667048D01*
X85462618Y-138609038D01*
X85508790Y-138556599D01*
X85575983Y-138537447D01*
X85642865Y-138557662D01*
X85687382Y-138609039D01*
X85714429Y-138667042D01*
X85714432Y-138667048D01*
X85844954Y-138853455D01*
X86005858Y-139014359D01*
X86005861Y-139014361D01*
X86192266Y-139144882D01*
X86398504Y-139241053D01*
X86618308Y-139299949D01*
X86780230Y-139314115D01*
X86844998Y-139319782D01*
X86845000Y-139319782D01*
X86845002Y-139319782D01*
X86901673Y-139314823D01*
X87071692Y-139299949D01*
X87291496Y-139241053D01*
X87497734Y-139144882D01*
X87684139Y-139014361D01*
X87845047Y-138853453D01*
X87975568Y-138667048D01*
X88002618Y-138609038D01*
X88048790Y-138556599D01*
X88115983Y-138537447D01*
X88182865Y-138557662D01*
X88227382Y-138609039D01*
X88254429Y-138667042D01*
X88254432Y-138667048D01*
X88384954Y-138853455D01*
X88545858Y-139014359D01*
X88545861Y-139014361D01*
X88732266Y-139144882D01*
X88938504Y-139241053D01*
X89158308Y-139299949D01*
X89320230Y-139314115D01*
X89384998Y-139319782D01*
X89385000Y-139319782D01*
X89385002Y-139319782D01*
X89441673Y-139314823D01*
X89611692Y-139299949D01*
X89831496Y-139241053D01*
X90037734Y-139144882D01*
X90224139Y-139014361D01*
X90385047Y-138853453D01*
X90515568Y-138667048D01*
X90542618Y-138609038D01*
X90588790Y-138556599D01*
X90655983Y-138537447D01*
X90722865Y-138557662D01*
X90767382Y-138609039D01*
X90794429Y-138667042D01*
X90794432Y-138667048D01*
X90924954Y-138853455D01*
X91085858Y-139014359D01*
X91085861Y-139014361D01*
X91272266Y-139144882D01*
X91478504Y-139241053D01*
X91698308Y-139299949D01*
X91860230Y-139314115D01*
X91924998Y-139319782D01*
X91925000Y-139319782D01*
X91925002Y-139319782D01*
X91981673Y-139314823D01*
X92151692Y-139299949D01*
X92371496Y-139241053D01*
X92577734Y-139144882D01*
X92764139Y-139014361D01*
X92925047Y-138853453D01*
X93055568Y-138667048D01*
X93082618Y-138609038D01*
X93128790Y-138556599D01*
X93195983Y-138537447D01*
X93262865Y-138557662D01*
X93307382Y-138609039D01*
X93334429Y-138667042D01*
X93334432Y-138667048D01*
X93464954Y-138853455D01*
X93625858Y-139014359D01*
X93625861Y-139014361D01*
X93812266Y-139144882D01*
X94018504Y-139241053D01*
X94238308Y-139299949D01*
X94400230Y-139314115D01*
X94464998Y-139319782D01*
X94465000Y-139319782D01*
X94465002Y-139319782D01*
X94521673Y-139314823D01*
X94691692Y-139299949D01*
X94911496Y-139241053D01*
X95117734Y-139144882D01*
X95304139Y-139014361D01*
X95465047Y-138853453D01*
X95595568Y-138667048D01*
X95622618Y-138609038D01*
X95668790Y-138556599D01*
X95735983Y-138537447D01*
X95802865Y-138557662D01*
X95847382Y-138609039D01*
X95874429Y-138667042D01*
X95874432Y-138667048D01*
X96004954Y-138853455D01*
X96165858Y-139014359D01*
X96165861Y-139014361D01*
X96352266Y-139144882D01*
X96558504Y-139241053D01*
X96778308Y-139299949D01*
X96940230Y-139314115D01*
X97004998Y-139319782D01*
X97005000Y-139319782D01*
X97005002Y-139319782D01*
X97061673Y-139314823D01*
X97231692Y-139299949D01*
X97451496Y-139241053D01*
X97657734Y-139144882D01*
X97844139Y-139014361D01*
X98005047Y-138853453D01*
X98135568Y-138667048D01*
X98231739Y-138460810D01*
X98290635Y-138241006D01*
X98310468Y-138014314D01*
X98290635Y-137787622D01*
X98231739Y-137567818D01*
X98135568Y-137361580D01*
X98005047Y-137175175D01*
X98005045Y-137175172D01*
X97844141Y-137014268D01*
X97657734Y-136883746D01*
X97657732Y-136883745D01*
X97451497Y-136787575D01*
X97451488Y-136787572D01*
X97417961Y-136778589D01*
X97358300Y-136742224D01*
X97327771Y-136679377D01*
X97336066Y-136610002D01*
X97380551Y-136556124D01*
X97447103Y-136534849D01*
X97450054Y-136534814D01*
X107395501Y-136534814D01*
X107462540Y-136554499D01*
X107508295Y-136607303D01*
X107519501Y-136658814D01*
X107519501Y-136782190D01*
X107525908Y-136841797D01*
X107576202Y-136976642D01*
X107576206Y-136976649D01*
X107662452Y-137091858D01*
X107662455Y-137091861D01*
X107777664Y-137178107D01*
X107777671Y-137178111D01*
X107912517Y-137228405D01*
X107912516Y-137228405D01*
X107919444Y-137229149D01*
X107972127Y-137234814D01*
X110267872Y-137234813D01*
X110327483Y-137228405D01*
X110462331Y-137178110D01*
X110577546Y-137091860D01*
X110663796Y-136976645D01*
X110714091Y-136841797D01*
X110720500Y-136782187D01*
X110720499Y-135634314D01*
X117674551Y-135634314D01*
X117694317Y-135885465D01*
X117753126Y-136130424D01*
X117849533Y-136363173D01*
X117981160Y-136577967D01*
X117981161Y-136577970D01*
X117981164Y-136577973D01*
X118144776Y-136769538D01*
X118278495Y-136883745D01*
X118336343Y-136933152D01*
X118336346Y-136933153D01*
X118551140Y-137064780D01*
X118783889Y-137161187D01*
X119028852Y-137219997D01*
X119280000Y-137239763D01*
X119531148Y-137219997D01*
X119776111Y-137161187D01*
X120008859Y-137064780D01*
X120223659Y-136933150D01*
X120415224Y-136769538D01*
X120578836Y-136577973D01*
X120710466Y-136363173D01*
X120806873Y-136130425D01*
X120865683Y-135885462D01*
X120885449Y-135634314D01*
X120865683Y-135383166D01*
X120806873Y-135138203D01*
X120710466Y-134905454D01*
X120578839Y-134690660D01*
X120578838Y-134690657D01*
X120494719Y-134592167D01*
X120415224Y-134499090D01*
X120288571Y-134390918D01*
X120223656Y-134335475D01*
X120223653Y-134335474D01*
X120008859Y-134203847D01*
X119776110Y-134107440D01*
X119531151Y-134048631D01*
X119280000Y-134028865D01*
X119028848Y-134048631D01*
X118783889Y-134107440D01*
X118551140Y-134203847D01*
X118336346Y-134335474D01*
X118336343Y-134335475D01*
X118144776Y-134499090D01*
X117981161Y-134690657D01*
X117981160Y-134690660D01*
X117849533Y-134905454D01*
X117753126Y-135138203D01*
X117694317Y-135383162D01*
X117674551Y-135634314D01*
X110720499Y-135634314D01*
X110720499Y-134486442D01*
X110714091Y-134426831D01*
X110701149Y-134392133D01*
X110663797Y-134291985D01*
X110663793Y-134291978D01*
X110577547Y-134176769D01*
X110577544Y-134176766D01*
X110462335Y-134090520D01*
X110462328Y-134090516D01*
X110327482Y-134040222D01*
X110327483Y-134040222D01*
X110267883Y-134033815D01*
X110267881Y-134033814D01*
X110267873Y-134033814D01*
X110267864Y-134033814D01*
X107972129Y-134033814D01*
X107972123Y-134033815D01*
X107912516Y-134040222D01*
X107777671Y-134090516D01*
X107777664Y-134090520D01*
X107662455Y-134176766D01*
X107662452Y-134176769D01*
X107576206Y-134291978D01*
X107576202Y-134291985D01*
X107525908Y-134426831D01*
X107519501Y-134486430D01*
X107519501Y-134486437D01*
X107519500Y-134486449D01*
X107519500Y-134609814D01*
X107499815Y-134676853D01*
X107447011Y-134722608D01*
X107395500Y-134733814D01*
X94150168Y-134733814D01*
X94083129Y-134714129D01*
X94037374Y-134661325D01*
X94027430Y-134592167D01*
X94049850Y-134536929D01*
X94104661Y-134461485D01*
X94155051Y-134392130D01*
X94251557Y-134202726D01*
X94317246Y-134000557D01*
X94350500Y-133790601D01*
X94350500Y-133278027D01*
X94317246Y-133068071D01*
X94251557Y-132865902D01*
X94155051Y-132676498D01*
X94155049Y-132676495D01*
X94155048Y-132676493D01*
X94030109Y-132504527D01*
X93879786Y-132354204D01*
X93707820Y-132229265D01*
X93518414Y-132132758D01*
X93518413Y-132132757D01*
X93518412Y-132132757D01*
X93316243Y-132067068D01*
X93316241Y-132067067D01*
X93316240Y-132067067D01*
X93154957Y-132041522D01*
X93106287Y-132033814D01*
X92893713Y-132033814D01*
X92845042Y-132041522D01*
X92683760Y-132067067D01*
X92481585Y-132132758D01*
X92292179Y-132229265D01*
X92120215Y-132354203D01*
X91981398Y-132493020D01*
X91920075Y-132526504D01*
X91850383Y-132521520D01*
X91794450Y-132479648D01*
X91788178Y-132470434D01*
X91692712Y-132315658D01*
X91568657Y-132191603D01*
X91568656Y-132191602D01*
X91419334Y-132099500D01*
X91252797Y-132044315D01*
X91252795Y-132044314D01*
X91150010Y-132033814D01*
X89849998Y-132033814D01*
X89849981Y-132033815D01*
X89747203Y-132044314D01*
X89747200Y-132044315D01*
X89580668Y-132099499D01*
X89580663Y-132099501D01*
X89431342Y-132191603D01*
X89307289Y-132315656D01*
X89215187Y-132464977D01*
X89215185Y-132464982D01*
X89210325Y-132479648D01*
X89160001Y-132631517D01*
X89160001Y-132631518D01*
X89160000Y-132631518D01*
X89149500Y-132734297D01*
X89149500Y-134334315D01*
X89149501Y-134334332D01*
X89160000Y-134437110D01*
X89176344Y-134486430D01*
X89204305Y-134570811D01*
X89206707Y-134640638D01*
X89170976Y-134700680D01*
X89108455Y-134731873D01*
X89086599Y-134733814D01*
X81516306Y-134733814D01*
X81342340Y-134768418D01*
X81342332Y-134768420D01*
X81178459Y-134836297D01*
X81178446Y-134836304D01*
X81030966Y-134934848D01*
X81030964Y-134934851D01*
X79291945Y-136673867D01*
X79230622Y-136707352D01*
X79215072Y-136709714D01*
X78998312Y-136728678D01*
X78998302Y-136728680D01*
X78778511Y-136787572D01*
X78778502Y-136787575D01*
X78572267Y-136883745D01*
X78572265Y-136883746D01*
X78385858Y-137014268D01*
X78224954Y-137175172D01*
X78094432Y-137361579D01*
X78094431Y-137361581D01*
X77998261Y-137567816D01*
X77998258Y-137567825D01*
X77939366Y-137787616D01*
X77939364Y-137787627D01*
X77919532Y-138014312D01*
X72600500Y-138014312D01*
X72600500Y-133558814D01*
X72620185Y-133491775D01*
X72672989Y-133446020D01*
X72724500Y-133434814D01*
X87170187Y-133434814D01*
X87177816Y-133434314D01*
X87600000Y-133434314D01*
X87600000Y-133012130D01*
X87600500Y-133004500D01*
X87600500Y-120328027D01*
X88799500Y-120328027D01*
X88799500Y-120540601D01*
X88832754Y-120750557D01*
X88870907Y-120867980D01*
X88898444Y-120952728D01*
X88994951Y-121142134D01*
X89119890Y-121314100D01*
X89258705Y-121452915D01*
X89292190Y-121514238D01*
X89287206Y-121583930D01*
X89245334Y-121639863D01*
X89236121Y-121646135D01*
X89081342Y-121741603D01*
X88957289Y-121865656D01*
X88865187Y-122014977D01*
X88865186Y-122014980D01*
X88810001Y-122181517D01*
X88810001Y-122181518D01*
X88810000Y-122181518D01*
X88799500Y-122284297D01*
X88799500Y-123584315D01*
X88799501Y-123584332D01*
X88810000Y-123687110D01*
X88810001Y-123687113D01*
X88829229Y-123745138D01*
X88865186Y-123853648D01*
X88957288Y-124002970D01*
X89081344Y-124127026D01*
X89230666Y-124219128D01*
X89397203Y-124274313D01*
X89499991Y-124284814D01*
X91100008Y-124284813D01*
X91202797Y-124274313D01*
X91369334Y-124219128D01*
X91518656Y-124127026D01*
X91642712Y-124002970D01*
X91734814Y-123853648D01*
X91789999Y-123687111D01*
X91800500Y-123584323D01*
X91800499Y-122284306D01*
X91789999Y-122181517D01*
X91734814Y-122014980D01*
X91642712Y-121865658D01*
X91518656Y-121741602D01*
X91369334Y-121649500D01*
X91369333Y-121649499D01*
X91363878Y-121646135D01*
X91317154Y-121594187D01*
X91305931Y-121525224D01*
X91333775Y-121461142D01*
X91341272Y-121452937D01*
X91480104Y-121314106D01*
X91605051Y-121142130D01*
X91701557Y-120952726D01*
X91767246Y-120750557D01*
X91800500Y-120540601D01*
X91800500Y-120328027D01*
X91767246Y-120118071D01*
X91701557Y-119915902D01*
X91605051Y-119726498D01*
X91605049Y-119726495D01*
X91605048Y-119726493D01*
X91480109Y-119554527D01*
X91329786Y-119404204D01*
X91157820Y-119279265D01*
X90968414Y-119182758D01*
X90968413Y-119182757D01*
X90968412Y-119182757D01*
X90766243Y-119117068D01*
X90766241Y-119117067D01*
X90766240Y-119117067D01*
X90604957Y-119091522D01*
X90556287Y-119083814D01*
X90043713Y-119083814D01*
X89995042Y-119091522D01*
X89833760Y-119117067D01*
X89631585Y-119182758D01*
X89442179Y-119279265D01*
X89270213Y-119404204D01*
X89119890Y-119554527D01*
X88994951Y-119726493D01*
X88898444Y-119915899D01*
X88832753Y-120118074D01*
X88814343Y-120234311D01*
X88799500Y-120328027D01*
X87600500Y-120328027D01*
X87600500Y-107534311D01*
X95592677Y-107534311D01*
X95592677Y-107534316D01*
X95611929Y-107754376D01*
X95611930Y-107754384D01*
X95669104Y-107967759D01*
X95669105Y-107967761D01*
X95669106Y-107967764D01*
X95762466Y-108167976D01*
X95762468Y-108167980D01*
X95889170Y-108348929D01*
X95889175Y-108348935D01*
X96045378Y-108505138D01*
X96045384Y-108505143D01*
X96226333Y-108631845D01*
X96226335Y-108631846D01*
X96226338Y-108631848D01*
X96345748Y-108687529D01*
X96355189Y-108691932D01*
X96407628Y-108738104D01*
X96426780Y-108805298D01*
X96406564Y-108872179D01*
X96355189Y-108916696D01*
X96226340Y-108976779D01*
X96226338Y-108976780D01*
X96045377Y-109103489D01*
X95889175Y-109259691D01*
X95762466Y-109440652D01*
X95762465Y-109440654D01*
X95669107Y-109640862D01*
X95669104Y-109640868D01*
X95611930Y-109854243D01*
X95611929Y-109854251D01*
X95592677Y-110074311D01*
X95592677Y-110074316D01*
X95611929Y-110294376D01*
X95611930Y-110294384D01*
X95669104Y-110507759D01*
X95669105Y-110507761D01*
X95669106Y-110507764D01*
X95762346Y-110707719D01*
X95762466Y-110707976D01*
X95762468Y-110707980D01*
X95889170Y-110888929D01*
X95889175Y-110888935D01*
X96045378Y-111045138D01*
X96045384Y-111045143D01*
X96226333Y-111171845D01*
X96226335Y-111171846D01*
X96226338Y-111171848D01*
X96345748Y-111227529D01*
X96355189Y-111231932D01*
X96407628Y-111278104D01*
X96426780Y-111345298D01*
X96406564Y-111412179D01*
X96355189Y-111456696D01*
X96226340Y-111516779D01*
X96226338Y-111516780D01*
X96045377Y-111643489D01*
X95889175Y-111799691D01*
X95762466Y-111980652D01*
X95762465Y-111980654D01*
X95669107Y-112180862D01*
X95669104Y-112180868D01*
X95611930Y-112394243D01*
X95611929Y-112394251D01*
X95592677Y-112614311D01*
X95592677Y-112614316D01*
X95611929Y-112834376D01*
X95611930Y-112834384D01*
X95669104Y-113047759D01*
X95669105Y-113047761D01*
X95669106Y-113047764D01*
X95762466Y-113247976D01*
X95762468Y-113247980D01*
X95889170Y-113428929D01*
X95889175Y-113428935D01*
X96045378Y-113585138D01*
X96045384Y-113585143D01*
X96226333Y-113711845D01*
X96226335Y-113711846D01*
X96226338Y-113711848D01*
X96345748Y-113767529D01*
X96355189Y-113771932D01*
X96407628Y-113818104D01*
X96426780Y-113885298D01*
X96406564Y-113952179D01*
X96355189Y-113996696D01*
X96226340Y-114056779D01*
X96226338Y-114056780D01*
X96045377Y-114183489D01*
X95889175Y-114339691D01*
X95762466Y-114520652D01*
X95762465Y-114520654D01*
X95669107Y-114720862D01*
X95669104Y-114720868D01*
X95611930Y-114934243D01*
X95611929Y-114934251D01*
X95592677Y-115154311D01*
X95592677Y-115154316D01*
X95611929Y-115374376D01*
X95611930Y-115374384D01*
X95669104Y-115587759D01*
X95669105Y-115587761D01*
X95669106Y-115587764D01*
X95762466Y-115787976D01*
X95762468Y-115787980D01*
X95889170Y-115968929D01*
X95889175Y-115968935D01*
X96045378Y-116125138D01*
X96045384Y-116125143D01*
X96226333Y-116251845D01*
X96226335Y-116251846D01*
X96226338Y-116251848D01*
X96345748Y-116307529D01*
X96355189Y-116311932D01*
X96407628Y-116358104D01*
X96426780Y-116425298D01*
X96406564Y-116492179D01*
X96355189Y-116536696D01*
X96226340Y-116596779D01*
X96226338Y-116596780D01*
X96045377Y-116723489D01*
X95889175Y-116879691D01*
X95762466Y-117060652D01*
X95762465Y-117060654D01*
X95669107Y-117260862D01*
X95669104Y-117260868D01*
X95611930Y-117474243D01*
X95611929Y-117474251D01*
X95592677Y-117694311D01*
X95592677Y-117694316D01*
X95611929Y-117914376D01*
X95611930Y-117914384D01*
X95669104Y-118127759D01*
X95669105Y-118127761D01*
X95669106Y-118127764D01*
X95762466Y-118327976D01*
X95762468Y-118327980D01*
X95889170Y-118508929D01*
X95889175Y-118508935D01*
X96045378Y-118665138D01*
X96045384Y-118665143D01*
X96226333Y-118791845D01*
X96226335Y-118791846D01*
X96226338Y-118791848D01*
X96345748Y-118847529D01*
X96355189Y-118851932D01*
X96407628Y-118898104D01*
X96426780Y-118965298D01*
X96406564Y-119032179D01*
X96355189Y-119076696D01*
X96226340Y-119136779D01*
X96226338Y-119136780D01*
X96045377Y-119263489D01*
X95889175Y-119419691D01*
X95762466Y-119600652D01*
X95762465Y-119600654D01*
X95669107Y-119800862D01*
X95669104Y-119800868D01*
X95611930Y-120014243D01*
X95611929Y-120014251D01*
X95592677Y-120234311D01*
X95592677Y-120234316D01*
X95611929Y-120454376D01*
X95611930Y-120454384D01*
X95669104Y-120667759D01*
X95669105Y-120667761D01*
X95669106Y-120667764D01*
X95707711Y-120750553D01*
X95762466Y-120867976D01*
X95762468Y-120867980D01*
X95889170Y-121048929D01*
X95889175Y-121048935D01*
X96045378Y-121205138D01*
X96045384Y-121205143D01*
X96226333Y-121331845D01*
X96226335Y-121331846D01*
X96226338Y-121331848D01*
X96345748Y-121387529D01*
X96355189Y-121391932D01*
X96407628Y-121438104D01*
X96426780Y-121505298D01*
X96406564Y-121572179D01*
X96355189Y-121616696D01*
X96226340Y-121676779D01*
X96226338Y-121676780D01*
X96045377Y-121803489D01*
X95889175Y-121959691D01*
X95762466Y-122140652D01*
X95762465Y-122140654D01*
X95669107Y-122340862D01*
X95669104Y-122340868D01*
X95611930Y-122554243D01*
X95611929Y-122554251D01*
X95592677Y-122774311D01*
X95592677Y-122774316D01*
X95611929Y-122994376D01*
X95611930Y-122994384D01*
X95669104Y-123207759D01*
X95669105Y-123207761D01*
X95669106Y-123207764D01*
X95762466Y-123407976D01*
X95762468Y-123407980D01*
X95889170Y-123588929D01*
X95889175Y-123588935D01*
X96045378Y-123745138D01*
X96045384Y-123745143D01*
X96226333Y-123871845D01*
X96226335Y-123871846D01*
X96226338Y-123871848D01*
X96345748Y-123927529D01*
X96355189Y-123931932D01*
X96407628Y-123978104D01*
X96426780Y-124045298D01*
X96406564Y-124112179D01*
X96355189Y-124156696D01*
X96226340Y-124216779D01*
X96226338Y-124216780D01*
X96045377Y-124343489D01*
X95889175Y-124499691D01*
X95762466Y-124680652D01*
X95762465Y-124680654D01*
X95669107Y-124880862D01*
X95669104Y-124880868D01*
X95611930Y-125094243D01*
X95611929Y-125094251D01*
X95592677Y-125314311D01*
X95592677Y-125314316D01*
X95611929Y-125534376D01*
X95611930Y-125534384D01*
X95669104Y-125747759D01*
X95669105Y-125747761D01*
X95669106Y-125747764D01*
X95762466Y-125947976D01*
X95762468Y-125947980D01*
X95889170Y-126128929D01*
X95889175Y-126128935D01*
X96045378Y-126285138D01*
X96045384Y-126285143D01*
X96226333Y-126411845D01*
X96226335Y-126411846D01*
X96226338Y-126411848D01*
X96426550Y-126505208D01*
X96639932Y-126562384D01*
X96797123Y-126576136D01*
X96859998Y-126581637D01*
X96860000Y-126581637D01*
X96860002Y-126581637D01*
X96915017Y-126576823D01*
X97080068Y-126562384D01*
X97293450Y-126505208D01*
X97493662Y-126411848D01*
X97674620Y-126285140D01*
X97830826Y-126128934D01*
X97957534Y-125947976D01*
X98050894Y-125747764D01*
X98108070Y-125534382D01*
X98127323Y-125314314D01*
X98108070Y-125094246D01*
X98050894Y-124880864D01*
X97957534Y-124680653D01*
X97830826Y-124499694D01*
X97674620Y-124343488D01*
X97674616Y-124343485D01*
X97674615Y-124343484D01*
X97493666Y-124216782D01*
X97493658Y-124216778D01*
X97364811Y-124156696D01*
X97312371Y-124110524D01*
X97293219Y-124043331D01*
X97313435Y-123976449D01*
X97364811Y-123931932D01*
X97370802Y-123929138D01*
X97493662Y-123871848D01*
X97674620Y-123745140D01*
X97830826Y-123588934D01*
X97957534Y-123407976D01*
X98050894Y-123207764D01*
X98108070Y-122994382D01*
X98127323Y-122774314D01*
X98108070Y-122554246D01*
X98050894Y-122340864D01*
X97957534Y-122140653D01*
X97869539Y-122014982D01*
X97830827Y-121959695D01*
X97830823Y-121959691D01*
X97674620Y-121803488D01*
X97674616Y-121803485D01*
X97674615Y-121803484D01*
X97493666Y-121676782D01*
X97493658Y-121676778D01*
X97364811Y-121616696D01*
X97312371Y-121570524D01*
X97293219Y-121503331D01*
X97313435Y-121436449D01*
X97364811Y-121391932D01*
X97370802Y-121389138D01*
X97493662Y-121331848D01*
X97674620Y-121205140D01*
X97830826Y-121048934D01*
X97957534Y-120867976D01*
X98050894Y-120667764D01*
X98108070Y-120454382D01*
X98127323Y-120234314D01*
X98108070Y-120014246D01*
X98050894Y-119800864D01*
X97957534Y-119600653D01*
X97830826Y-119419694D01*
X97674620Y-119263488D01*
X97674616Y-119263485D01*
X97674615Y-119263484D01*
X97493666Y-119136782D01*
X97493658Y-119136778D01*
X97364811Y-119076696D01*
X97312371Y-119030524D01*
X97293219Y-118963331D01*
X97313435Y-118896449D01*
X97364811Y-118851932D01*
X97370802Y-118849138D01*
X97493662Y-118791848D01*
X97674620Y-118665140D01*
X97830826Y-118508934D01*
X97957534Y-118327976D01*
X98050894Y-118127764D01*
X98108070Y-117914382D01*
X98127323Y-117694314D01*
X98108070Y-117474246D01*
X98050894Y-117260864D01*
X97957534Y-117060653D01*
X97830826Y-116879694D01*
X97674620Y-116723488D01*
X97674616Y-116723485D01*
X97674615Y-116723484D01*
X97493666Y-116596782D01*
X97493658Y-116596778D01*
X97364811Y-116536696D01*
X97312371Y-116490524D01*
X97293219Y-116423331D01*
X97313435Y-116356449D01*
X97364811Y-116311932D01*
X97370802Y-116309138D01*
X97493662Y-116251848D01*
X97674620Y-116125140D01*
X97830826Y-115968934D01*
X97957534Y-115787976D01*
X98050894Y-115587764D01*
X98108070Y-115374382D01*
X98127323Y-115154314D01*
X98108070Y-114934246D01*
X98050894Y-114720864D01*
X97957534Y-114520653D01*
X97830826Y-114339694D01*
X97674620Y-114183488D01*
X97674616Y-114183485D01*
X97674615Y-114183484D01*
X97493666Y-114056782D01*
X97493658Y-114056778D01*
X97364811Y-113996696D01*
X97312371Y-113950524D01*
X97293219Y-113883331D01*
X97313435Y-113816449D01*
X97364811Y-113771932D01*
X97370802Y-113769138D01*
X97493662Y-113711848D01*
X97674620Y-113585140D01*
X97830826Y-113428934D01*
X97957534Y-113247976D01*
X98050894Y-113047764D01*
X98108070Y-112834382D01*
X98127323Y-112614314D01*
X98108070Y-112394246D01*
X98050894Y-112180864D01*
X97957534Y-111980653D01*
X97830826Y-111799694D01*
X97674620Y-111643488D01*
X97674616Y-111643485D01*
X97674615Y-111643484D01*
X97493666Y-111516782D01*
X97493658Y-111516778D01*
X97364811Y-111456696D01*
X97312371Y-111410524D01*
X97293219Y-111343331D01*
X97313435Y-111276449D01*
X97364811Y-111231932D01*
X97370802Y-111229138D01*
X97493662Y-111171848D01*
X97674620Y-111045140D01*
X97830826Y-110888934D01*
X97957534Y-110707976D01*
X98050894Y-110507764D01*
X98108070Y-110294382D01*
X98127323Y-110074314D01*
X98108070Y-109854246D01*
X98050894Y-109640864D01*
X97957534Y-109440653D01*
X97830826Y-109259694D01*
X97674620Y-109103488D01*
X97674616Y-109103485D01*
X97674615Y-109103484D01*
X97493666Y-108976782D01*
X97493658Y-108976778D01*
X97364811Y-108916696D01*
X97312371Y-108870524D01*
X97293219Y-108803331D01*
X97313435Y-108736449D01*
X97364811Y-108691932D01*
X97370802Y-108689138D01*
X97493662Y-108631848D01*
X97674620Y-108505140D01*
X97830826Y-108348934D01*
X97957534Y-108167976D01*
X98050894Y-107967764D01*
X98108070Y-107754382D01*
X98127323Y-107534314D01*
X98127323Y-107534311D01*
X110832677Y-107534311D01*
X110832677Y-107534316D01*
X110851929Y-107754376D01*
X110851930Y-107754384D01*
X110909104Y-107967759D01*
X110909105Y-107967761D01*
X110909106Y-107967764D01*
X111002466Y-108167976D01*
X111002468Y-108167980D01*
X111129170Y-108348929D01*
X111129175Y-108348935D01*
X111285378Y-108505138D01*
X111285384Y-108505143D01*
X111466333Y-108631845D01*
X111466335Y-108631846D01*
X111466338Y-108631848D01*
X111595189Y-108691932D01*
X111595781Y-108692208D01*
X111648220Y-108738380D01*
X111667372Y-108805574D01*
X111647156Y-108872455D01*
X111595781Y-108916972D01*
X111466590Y-108977215D01*
X111401811Y-109022572D01*
X112072554Y-109693314D01*
X112049840Y-109693314D01*
X111952939Y-109719278D01*
X111866060Y-109769438D01*
X111795124Y-109840374D01*
X111744964Y-109927253D01*
X111719000Y-110024154D01*
X111719000Y-110046867D01*
X111048258Y-109376125D01*
X111002901Y-109440904D01*
X110909579Y-109641034D01*
X110909575Y-109641043D01*
X110852426Y-109854327D01*
X110852424Y-109854337D01*
X110833179Y-110074313D01*
X110833179Y-110074314D01*
X110852424Y-110294290D01*
X110852426Y-110294300D01*
X110909575Y-110507584D01*
X110909580Y-110507598D01*
X111002898Y-110707719D01*
X111002901Y-110707725D01*
X111048258Y-110772501D01*
X111048258Y-110772502D01*
X111719000Y-110101760D01*
X111719000Y-110124474D01*
X111744964Y-110221375D01*
X111795124Y-110308254D01*
X111866060Y-110379190D01*
X111952939Y-110429350D01*
X112049840Y-110455314D01*
X112072553Y-110455314D01*
X111401810Y-111126054D01*
X111466589Y-111171412D01*
X111595781Y-111231656D01*
X111648220Y-111277828D01*
X111667372Y-111345022D01*
X111647156Y-111411903D01*
X111595781Y-111456420D01*
X111466340Y-111516779D01*
X111466338Y-111516780D01*
X111285377Y-111643489D01*
X111129175Y-111799691D01*
X111002466Y-111980652D01*
X111002465Y-111980654D01*
X110909107Y-112180862D01*
X110909104Y-112180868D01*
X110851930Y-112394243D01*
X110851929Y-112394251D01*
X110832677Y-112614311D01*
X110832677Y-112614316D01*
X110851929Y-112834376D01*
X110851930Y-112834384D01*
X110909104Y-113047759D01*
X110909105Y-113047761D01*
X110909106Y-113047764D01*
X111002466Y-113247976D01*
X111002468Y-113247980D01*
X111129170Y-113428929D01*
X111129175Y-113428935D01*
X111285378Y-113585138D01*
X111285384Y-113585143D01*
X111466333Y-113711845D01*
X111466335Y-113711846D01*
X111466338Y-113711848D01*
X111585748Y-113767529D01*
X111595189Y-113771932D01*
X111647628Y-113818104D01*
X111666780Y-113885298D01*
X111646564Y-113952179D01*
X111595189Y-113996696D01*
X111466340Y-114056779D01*
X111466338Y-114056780D01*
X111285377Y-114183489D01*
X111129175Y-114339691D01*
X111002466Y-114520652D01*
X111002465Y-114520654D01*
X110909107Y-114720862D01*
X110909104Y-114720868D01*
X110851930Y-114934243D01*
X110851929Y-114934251D01*
X110832677Y-115154311D01*
X110832677Y-115154316D01*
X110851929Y-115374376D01*
X110851930Y-115374384D01*
X110909104Y-115587759D01*
X110909105Y-115587761D01*
X110909106Y-115587764D01*
X111002466Y-115787976D01*
X111002468Y-115787980D01*
X111129170Y-115968929D01*
X111129175Y-115968935D01*
X111285378Y-116125138D01*
X111285384Y-116125143D01*
X111466333Y-116251845D01*
X111466335Y-116251846D01*
X111466338Y-116251848D01*
X111585748Y-116307529D01*
X111595189Y-116311932D01*
X111647628Y-116358104D01*
X111666780Y-116425298D01*
X111646564Y-116492179D01*
X111595189Y-116536696D01*
X111466340Y-116596779D01*
X111466338Y-116596780D01*
X111285377Y-116723489D01*
X111129175Y-116879691D01*
X111002466Y-117060652D01*
X111002465Y-117060654D01*
X110909107Y-117260862D01*
X110909104Y-117260868D01*
X110851930Y-117474243D01*
X110851929Y-117474251D01*
X110832677Y-117694311D01*
X110832677Y-117694316D01*
X110851929Y-117914376D01*
X110851930Y-117914384D01*
X110909104Y-118127759D01*
X110909105Y-118127761D01*
X110909106Y-118127764D01*
X111002466Y-118327976D01*
X111002468Y-118327980D01*
X111129170Y-118508929D01*
X111129175Y-118508935D01*
X111285378Y-118665138D01*
X111285384Y-118665143D01*
X111466333Y-118791845D01*
X111466335Y-118791846D01*
X111466338Y-118791848D01*
X111585748Y-118847529D01*
X111595189Y-118851932D01*
X111647628Y-118898104D01*
X111666780Y-118965298D01*
X111646564Y-119032179D01*
X111595189Y-119076696D01*
X111466340Y-119136779D01*
X111466338Y-119136780D01*
X111285377Y-119263489D01*
X111129175Y-119419691D01*
X111002466Y-119600652D01*
X111002465Y-119600654D01*
X110909107Y-119800862D01*
X110909104Y-119800868D01*
X110851930Y-120014243D01*
X110851929Y-120014251D01*
X110832677Y-120234311D01*
X110832677Y-120234316D01*
X110851929Y-120454376D01*
X110851930Y-120454384D01*
X110909104Y-120667759D01*
X110909105Y-120667761D01*
X110909106Y-120667764D01*
X110947711Y-120750553D01*
X111002466Y-120867976D01*
X111002468Y-120867980D01*
X111129170Y-121048929D01*
X111129175Y-121048935D01*
X111285378Y-121205138D01*
X111285384Y-121205143D01*
X111466333Y-121331845D01*
X111466335Y-121331846D01*
X111466338Y-121331848D01*
X111585748Y-121387529D01*
X111595189Y-121391932D01*
X111647628Y-121438104D01*
X111666780Y-121505298D01*
X111646564Y-121572179D01*
X111595189Y-121616696D01*
X111466340Y-121676779D01*
X111466338Y-121676780D01*
X111285377Y-121803489D01*
X111129175Y-121959691D01*
X111002466Y-122140652D01*
X111002465Y-122140654D01*
X110909107Y-122340862D01*
X110909104Y-122340868D01*
X110851930Y-122554243D01*
X110851929Y-122554251D01*
X110832677Y-122774311D01*
X110832677Y-122774316D01*
X110851929Y-122994376D01*
X110851930Y-122994384D01*
X110909104Y-123207759D01*
X110909105Y-123207761D01*
X110909106Y-123207764D01*
X111002466Y-123407976D01*
X111002468Y-123407980D01*
X111129170Y-123588929D01*
X111129175Y-123588935D01*
X111285378Y-123745138D01*
X111285384Y-123745143D01*
X111466333Y-123871845D01*
X111466335Y-123871846D01*
X111466338Y-123871848D01*
X111585748Y-123927529D01*
X111595189Y-123931932D01*
X111647628Y-123978104D01*
X111666780Y-124045298D01*
X111646564Y-124112179D01*
X111595189Y-124156696D01*
X111466340Y-124216779D01*
X111466338Y-124216780D01*
X111285377Y-124343489D01*
X111129175Y-124499691D01*
X111002466Y-124680652D01*
X111002465Y-124680654D01*
X110909107Y-124880862D01*
X110909104Y-124880868D01*
X110851930Y-125094243D01*
X110851929Y-125094251D01*
X110832677Y-125314311D01*
X110832677Y-125314316D01*
X110851929Y-125534376D01*
X110851930Y-125534384D01*
X110909104Y-125747759D01*
X110909105Y-125747761D01*
X110909106Y-125747764D01*
X111002466Y-125947976D01*
X111002468Y-125947980D01*
X111129170Y-126128929D01*
X111129175Y-126128935D01*
X111285378Y-126285138D01*
X111285384Y-126285143D01*
X111466333Y-126411845D01*
X111466335Y-126411846D01*
X111466338Y-126411848D01*
X111666550Y-126505208D01*
X111879932Y-126562384D01*
X112037123Y-126576136D01*
X112099998Y-126581637D01*
X112100000Y-126581637D01*
X112100002Y-126581637D01*
X112155017Y-126576823D01*
X112320068Y-126562384D01*
X112533450Y-126505208D01*
X112733662Y-126411848D01*
X112914620Y-126285140D01*
X113070826Y-126128934D01*
X113197534Y-125947976D01*
X113290894Y-125747764D01*
X113348070Y-125534382D01*
X113367323Y-125314314D01*
X113348070Y-125094246D01*
X113290894Y-124880864D01*
X113197534Y-124680653D01*
X113070826Y-124499694D01*
X112914620Y-124343488D01*
X112914616Y-124343485D01*
X112914615Y-124343484D01*
X112733666Y-124216782D01*
X112733658Y-124216778D01*
X112604811Y-124156696D01*
X112552371Y-124110524D01*
X112533219Y-124043331D01*
X112553435Y-123976449D01*
X112604811Y-123931932D01*
X112610802Y-123929138D01*
X112733662Y-123871848D01*
X112914620Y-123745140D01*
X113070826Y-123588934D01*
X113197534Y-123407976D01*
X113290894Y-123207764D01*
X113348070Y-122994382D01*
X113367323Y-122774314D01*
X113348070Y-122554246D01*
X113290894Y-122340864D01*
X113197534Y-122140653D01*
X113109539Y-122014982D01*
X113070827Y-121959695D01*
X113070823Y-121959691D01*
X112914620Y-121803488D01*
X112914616Y-121803485D01*
X112914615Y-121803484D01*
X112733666Y-121676782D01*
X112733658Y-121676778D01*
X112604811Y-121616696D01*
X112552371Y-121570524D01*
X112533219Y-121503331D01*
X112553435Y-121436449D01*
X112604811Y-121391932D01*
X112610802Y-121389138D01*
X112733662Y-121331848D01*
X112914620Y-121205140D01*
X113070826Y-121048934D01*
X113197534Y-120867976D01*
X113290894Y-120667764D01*
X113348070Y-120454382D01*
X113367323Y-120234314D01*
X113348070Y-120014246D01*
X113290894Y-119800864D01*
X113197534Y-119600653D01*
X113070826Y-119419694D01*
X112914620Y-119263488D01*
X112914616Y-119263485D01*
X112914615Y-119263484D01*
X112733666Y-119136782D01*
X112733658Y-119136778D01*
X112604811Y-119076696D01*
X112552371Y-119030524D01*
X112533219Y-118963331D01*
X112553435Y-118896449D01*
X112604811Y-118851932D01*
X112610802Y-118849138D01*
X112733662Y-118791848D01*
X112914620Y-118665140D01*
X113070826Y-118508934D01*
X113197534Y-118327976D01*
X113290894Y-118127764D01*
X113348070Y-117914382D01*
X113367323Y-117694314D01*
X113348070Y-117474246D01*
X113290894Y-117260864D01*
X113197534Y-117060653D01*
X113070826Y-116879694D01*
X112914620Y-116723488D01*
X112914616Y-116723485D01*
X112914615Y-116723484D01*
X112733666Y-116596782D01*
X112733658Y-116596778D01*
X112604811Y-116536696D01*
X112552371Y-116490524D01*
X112533219Y-116423331D01*
X112553435Y-116356449D01*
X112604811Y-116311932D01*
X112610802Y-116309138D01*
X112733662Y-116251848D01*
X112914620Y-116125140D01*
X113070826Y-115968934D01*
X113197534Y-115787976D01*
X113290894Y-115587764D01*
X113348070Y-115374382D01*
X113367323Y-115154314D01*
X113348070Y-114934246D01*
X113290894Y-114720864D01*
X113197534Y-114520653D01*
X113070826Y-114339694D01*
X112914620Y-114183488D01*
X112914616Y-114183485D01*
X112914615Y-114183484D01*
X112733666Y-114056782D01*
X112733658Y-114056778D01*
X112604811Y-113996696D01*
X112552371Y-113950524D01*
X112533219Y-113883331D01*
X112553435Y-113816449D01*
X112604811Y-113771932D01*
X112610802Y-113769138D01*
X112733662Y-113711848D01*
X112914620Y-113585140D01*
X113070826Y-113428934D01*
X113197534Y-113247976D01*
X113290894Y-113047764D01*
X113348070Y-112834382D01*
X113367323Y-112614314D01*
X113348070Y-112394246D01*
X113290894Y-112180864D01*
X113197534Y-111980653D01*
X113070826Y-111799694D01*
X112914620Y-111643488D01*
X112914616Y-111643485D01*
X112914615Y-111643484D01*
X112733666Y-111516782D01*
X112733662Y-111516780D01*
X112604218Y-111456419D01*
X112551779Y-111410246D01*
X112532627Y-111343053D01*
X112552843Y-111276172D01*
X112604219Y-111231654D01*
X112733416Y-111171409D01*
X112733417Y-111171408D01*
X112798188Y-111126055D01*
X112127448Y-110455314D01*
X112150160Y-110455314D01*
X112247061Y-110429350D01*
X112333940Y-110379190D01*
X112404876Y-110308254D01*
X112455036Y-110221375D01*
X112481000Y-110124474D01*
X112481000Y-110101761D01*
X113151741Y-110772502D01*
X113197094Y-110707731D01*
X113197100Y-110707721D01*
X113290419Y-110507598D01*
X113290424Y-110507584D01*
X113347573Y-110294300D01*
X113347575Y-110294290D01*
X113366821Y-110074314D01*
X113366821Y-110074313D01*
X113347575Y-109854337D01*
X113347573Y-109854327D01*
X113290424Y-109641043D01*
X113290420Y-109641034D01*
X113197096Y-109440900D01*
X113151741Y-109376125D01*
X113151740Y-109376124D01*
X112481000Y-110046865D01*
X112481000Y-110024154D01*
X112455036Y-109927253D01*
X112404876Y-109840374D01*
X112333940Y-109769438D01*
X112247061Y-109719278D01*
X112150160Y-109693314D01*
X112127447Y-109693314D01*
X112798188Y-109022572D01*
X112733411Y-108977215D01*
X112733405Y-108977212D01*
X112604219Y-108916972D01*
X112551779Y-108870800D01*
X112532627Y-108803607D01*
X112552843Y-108736725D01*
X112604219Y-108692208D01*
X112604811Y-108691932D01*
X112733662Y-108631848D01*
X112914620Y-108505140D01*
X113070826Y-108348934D01*
X113197534Y-108167976D01*
X113290894Y-107967764D01*
X113348070Y-107754382D01*
X113367323Y-107534314D01*
X113348070Y-107314246D01*
X113290894Y-107100864D01*
X113197534Y-106900653D01*
X113070826Y-106719694D01*
X112914620Y-106563488D01*
X112914616Y-106563485D01*
X112914615Y-106563484D01*
X112733666Y-106436782D01*
X112733662Y-106436780D01*
X112733660Y-106436779D01*
X112533450Y-106343420D01*
X112533447Y-106343419D01*
X112533445Y-106343418D01*
X112320070Y-106286244D01*
X112320062Y-106286243D01*
X112100002Y-106266991D01*
X112099998Y-106266991D01*
X111879937Y-106286243D01*
X111879929Y-106286244D01*
X111666554Y-106343418D01*
X111666548Y-106343421D01*
X111466340Y-106436779D01*
X111466338Y-106436780D01*
X111285377Y-106563489D01*
X111129175Y-106719691D01*
X111002466Y-106900652D01*
X111002465Y-106900654D01*
X110909107Y-107100862D01*
X110909104Y-107100868D01*
X110851930Y-107314243D01*
X110851929Y-107314251D01*
X110832677Y-107534311D01*
X98127323Y-107534311D01*
X98108070Y-107314246D01*
X98050894Y-107100864D01*
X97957534Y-106900653D01*
X97830826Y-106719694D01*
X97674620Y-106563488D01*
X97674616Y-106563485D01*
X97674615Y-106563484D01*
X97493666Y-106436782D01*
X97493662Y-106436780D01*
X97493660Y-106436779D01*
X97293450Y-106343420D01*
X97293447Y-106343419D01*
X97293445Y-106343418D01*
X97080070Y-106286244D01*
X97080062Y-106286243D01*
X96860002Y-106266991D01*
X96859998Y-106266991D01*
X96639937Y-106286243D01*
X96639929Y-106286244D01*
X96426554Y-106343418D01*
X96426548Y-106343421D01*
X96226340Y-106436779D01*
X96226338Y-106436780D01*
X96045377Y-106563489D01*
X95889175Y-106719691D01*
X95762466Y-106900652D01*
X95762465Y-106900654D01*
X95669107Y-107100862D01*
X95669104Y-107100868D01*
X95611930Y-107314243D01*
X95611929Y-107314251D01*
X95592677Y-107534311D01*
X87600500Y-107534311D01*
X87600500Y-103558814D01*
X87620185Y-103491775D01*
X87672989Y-103446020D01*
X87724500Y-103434814D01*
X116475500Y-103434814D01*
X116542539Y-103454499D01*
G37*
%TD.AperFunction*%
%TD*%
M02*
