%TF.GenerationSoftware,KiCad,Pcbnew,8.0.8*%
%TF.CreationDate,2025-02-19T10:09:38+01:00*%
%TF.ProjectId,Robot,526f626f-742e-46b6-9963-61645f706362,rev?*%
%TF.SameCoordinates,Original*%
%TF.FileFunction,Copper,L1,Top*%
%TF.FilePolarity,Positive*%
%FSLAX46Y46*%
G04 Gerber Fmt 4.6, Leading zero omitted, Abs format (unit mm)*
G04 Created by KiCad (PCBNEW 8.0.8) date 2025-02-19 10:09:38*
%MOMM*%
%LPD*%
G01*
G04 APERTURE LIST*
G04 Aperture macros list*
%AMRoundRect*
0 Rectangle with rounded corners*
0 $1 Rounding radius*
0 $2 $3 $4 $5 $6 $7 $8 $9 X,Y pos of 4 corners*
0 Add a 4 corners polygon primitive as box body*
4,1,4,$2,$3,$4,$5,$6,$7,$8,$9,$2,$3,0*
0 Add four circle primitives for the rounded corners*
1,1,$1+$1,$2,$3*
1,1,$1+$1,$4,$5*
1,1,$1+$1,$6,$7*
1,1,$1+$1,$8,$9*
0 Add four rect primitives between the rounded corners*
20,1,$1+$1,$2,$3,$4,$5,0*
20,1,$1+$1,$4,$5,$6,$7,0*
20,1,$1+$1,$6,$7,$8,$9,0*
20,1,$1+$1,$8,$9,$2,$3,0*%
G04 Aperture macros list end*
%TA.AperFunction,ComponentPad*%
%ADD10R,1.600000X1.600000*%
%TD*%
%TA.AperFunction,ComponentPad*%
%ADD11O,1.600000X1.600000*%
%TD*%
%TA.AperFunction,ComponentPad*%
%ADD12C,1.524000*%
%TD*%
%TA.AperFunction,ComponentPad*%
%ADD13RoundRect,0.250000X0.600000X0.750000X-0.600000X0.750000X-0.600000X-0.750000X0.600000X-0.750000X0*%
%TD*%
%TA.AperFunction,ComponentPad*%
%ADD14O,1.700000X2.000000*%
%TD*%
%TA.AperFunction,ComponentPad*%
%ADD15R,2.200000X2.200000*%
%TD*%
%TA.AperFunction,ComponentPad*%
%ADD16O,2.200000X2.200000*%
%TD*%
%TA.AperFunction,ComponentPad*%
%ADD17RoundRect,0.250000X-0.600000X-0.750000X0.600000X-0.750000X0.600000X0.750000X-0.600000X0.750000X0*%
%TD*%
%TA.AperFunction,ComponentPad*%
%ADD18RoundRect,0.250000X-0.750000X0.600000X-0.750000X-0.600000X0.750000X-0.600000X0.750000X0.600000X0*%
%TD*%
%TA.AperFunction,ComponentPad*%
%ADD19O,2.000000X1.700000*%
%TD*%
%TA.AperFunction,ComponentPad*%
%ADD20RoundRect,0.250000X0.750000X-0.600000X0.750000X0.600000X-0.750000X0.600000X-0.750000X-0.600000X0*%
%TD*%
%TA.AperFunction,ComponentPad*%
%ADD21O,2.200000X3.500000*%
%TD*%
%TA.AperFunction,ComponentPad*%
%ADD22R,1.500000X2.500000*%
%TD*%
%TA.AperFunction,ComponentPad*%
%ADD23O,1.500000X2.500000*%
%TD*%
%TA.AperFunction,Conductor*%
%ADD24C,0.800000*%
%TD*%
G04 APERTURE END LIST*
D10*
%TO.P,U2,1,EN1\u002C2*%
%TO.N,Net-(U1-GPIO2)*%
X79225000Y-145634314D03*
D11*
%TO.P,U2,2,1A*%
%TO.N,Net-(U1-GPIO1)*%
X81765000Y-145634314D03*
%TO.P,U2,3,1Y*%
%TO.N,Net-(J4-Pin_2)*%
X84305000Y-145634314D03*
%TO.P,U2,4,GND*%
%TO.N,GND*%
X86845000Y-145634314D03*
%TO.P,U2,5,GND*%
X89385000Y-145634314D03*
%TO.P,U2,6,2Y*%
%TO.N,Net-(J4-Pin_1)*%
X91925000Y-145634314D03*
%TO.P,U2,7,2A*%
%TO.N,Net-(U1-GPIO0)*%
X94465000Y-145634314D03*
%TO.P,U2,8,VCC2*%
%TO.N,Net-(SW1A-B)*%
X97005000Y-145634314D03*
%TO.P,U2,9,EN3\u002C4*%
%TO.N,Net-(U1-GPIO5)*%
X97005000Y-138014314D03*
%TO.P,U2,10,3A*%
%TO.N,Net-(U1-GPIO6)*%
X94465000Y-138014314D03*
%TO.P,U2,11,3Y*%
%TO.N,Net-(J3-Pin_2)*%
X91925000Y-138014314D03*
%TO.P,U2,12,GND*%
%TO.N,unconnected-(U2-GND-Pad12)*%
X89385000Y-138014314D03*
%TO.P,U2,13,GND*%
%TO.N,unconnected-(U2-GND-Pad13)*%
X86845000Y-138014314D03*
%TO.P,U2,14,4Y*%
%TO.N,Net-(J3-Pin_1)*%
X84305000Y-138014314D03*
%TO.P,U2,15,4A*%
%TO.N,Net-(U1-GPIO7)*%
X81765000Y-138014314D03*
%TO.P,U2,16,VCC1*%
%TO.N,Net-(D1-K)*%
X79225000Y-138014314D03*
%TD*%
D12*
%TO.P,U1,1,5V*%
%TO.N,Net-(D1-K)*%
X112100000Y-107534314D03*
%TO.P,U1,2,GND*%
%TO.N,GND*%
X112100000Y-110074314D03*
%TO.P,U1,3,3.3V*%
%TO.N,unconnected-(U1-3.3V-Pad3)*%
X112100000Y-112614314D03*
%TO.P,U1,4,GPIO4*%
%TO.N,unconnected-(U1-GPIO4-Pad4)*%
X112100000Y-115154314D03*
%TO.P,U1,5,GPIO3*%
%TO.N,unconnected-(U1-GPIO3-Pad5)*%
X112100000Y-117694314D03*
%TO.P,U1,6,GPIO2*%
%TO.N,Net-(U1-GPIO2)*%
X112100000Y-120234314D03*
%TO.P,U1,7,GPIO1*%
%TO.N,Net-(U1-GPIO1)*%
X112100000Y-122774314D03*
%TO.P,U1,8,GPIO0*%
%TO.N,Net-(U1-GPIO0)*%
X112100000Y-125314314D03*
%TO.P,U1,9,GPIO21*%
%TO.N,Net-(J2-Pin_1)*%
X96860000Y-125314314D03*
%TO.P,U1,10,GPIO20*%
%TO.N,Net-(J2-Pin_2)*%
X96860000Y-122774314D03*
%TO.P,U1,11,GPIO10*%
%TO.N,unconnected-(U1-GPIO10-Pad11)*%
X96860000Y-120234314D03*
%TO.P,U1,12,GPIO9*%
%TO.N,unconnected-(U1-GPIO9-Pad12)*%
X96860000Y-117694314D03*
%TO.P,U1,13,GPIO8*%
%TO.N,unconnected-(U1-GPIO8-Pad13)*%
X96860000Y-115154314D03*
%TO.P,U1,14,GPIO7*%
%TO.N,Net-(U1-GPIO7)*%
X96860000Y-112614314D03*
%TO.P,U1,15,GPIO6*%
%TO.N,Net-(U1-GPIO6)*%
X96860000Y-110074314D03*
%TO.P,U1,16,GPIO5*%
%TO.N,Net-(U1-GPIO5)*%
X96860000Y-107534314D03*
%TD*%
D13*
%TO.P,Motor1,1,Pin_1*%
%TO.N,Net-(J4-Pin_1)*%
X84800000Y-149734314D03*
D14*
%TO.P,Motor1,2,Pin_2*%
%TO.N,Net-(J4-Pin_2)*%
X82300000Y-149734314D03*
%TD*%
D15*
%TO.P,D1,1,K*%
%TO.N,Net-(D1-K)*%
X109120000Y-135634314D03*
D16*
%TO.P,D1,2,A*%
%TO.N,Net-(D1-A)*%
X119280000Y-135634314D03*
%TD*%
D17*
%TO.P,Motor2,1,Pin_1*%
%TO.N,Net-(J3-Pin_1)*%
X90500000Y-133534314D03*
D14*
%TO.P,Motor2,2,Pin_2*%
%TO.N,Net-(J3-Pin_2)*%
X93000000Y-133534314D03*
%TD*%
D18*
%TO.P,J5,1,Pin_1*%
%TO.N,Net-(J5-Pin_1)*%
X128000000Y-143534314D03*
D19*
%TO.P,J5,2,Pin_2*%
%TO.N,GND*%
X128000000Y-146034314D03*
%TD*%
D20*
%TO.P,UART,1,Pin_1*%
%TO.N,Net-(J2-Pin_1)*%
X90300000Y-122934314D03*
D19*
%TO.P,UART,2,Pin_2*%
%TO.N,Net-(J2-Pin_2)*%
X90300000Y-120434314D03*
%TD*%
D12*
%TO.P,U4,1,+VIN*%
%TO.N,Net-(J5-Pin_1)*%
X122300000Y-140714314D03*
%TO.P,U4,2,GND*%
%TO.N,GND*%
X122300000Y-148334314D03*
%TO.P,U4,3,+VOUT*%
%TO.N,Net-(D1-A)*%
X109600000Y-140714314D03*
%TO.P,U4,4,GND*%
%TO.N,GND*%
X109600000Y-148334314D03*
%TD*%
D21*
%TO.P,SW1,*%
%TO.N,*%
X104700000Y-149334314D03*
X96500000Y-149334314D03*
D22*
%TO.P,SW1,1,A*%
%TO.N,Net-(J5-Pin_1)*%
X102600000Y-149334314D03*
D23*
%TO.P,SW1,2,B*%
%TO.N,Net-(SW1A-B)*%
X100600000Y-149334314D03*
%TO.P,SW1,3,C*%
%TO.N,unconnected-(SW1A-C-Pad3)*%
X98600000Y-149334314D03*
%TD*%
D24*
%TO.N,GND*%
X122300000Y-148234314D02*
X122400000Y-148334314D01*
%TO.N,Net-(J3-Pin_2)*%
X93000000Y-133534314D02*
X93000000Y-136939314D01*
X93000000Y-136939314D02*
X91925000Y-138014314D01*
%TO.N,Net-(J2-Pin_2)*%
X90300000Y-120434314D02*
X94520000Y-120434314D01*
X94520000Y-120434314D02*
X96860000Y-122774314D01*
%TO.N,Net-(J2-Pin_1)*%
X90300000Y-122934314D02*
X94480000Y-122934314D01*
X94480000Y-122934314D02*
X96860000Y-125314314D01*
%TO.N,Net-(J3-Pin_1)*%
X85705000Y-136614314D02*
X87420000Y-136614314D01*
X84305000Y-138014314D02*
X85705000Y-136614314D01*
X87420000Y-136614314D02*
X90500000Y-133534314D01*
%TO.N,Net-(J4-Pin_1)*%
X87000000Y-149734314D02*
X84800000Y-149734314D01*
X89625000Y-147934314D02*
X88800000Y-147934314D01*
X91925000Y-145634314D02*
X89625000Y-147934314D01*
X88800000Y-147934314D02*
X87000000Y-149734314D01*
%TO.N,Net-(D1-K)*%
X115200000Y-130434314D02*
X110000000Y-135634314D01*
X113400000Y-107534314D02*
X115200000Y-109334314D01*
X112100000Y-107534314D02*
X113400000Y-107534314D01*
X109120000Y-134714314D02*
X109120000Y-135634314D01*
X115200000Y-109334314D02*
X115200000Y-130434314D01*
X110000000Y-135634314D02*
X109120000Y-135634314D01*
%TO.N,Net-(J5-Pin_1)*%
X125180000Y-140714314D02*
X128000000Y-143534314D01*
X103650000Y-146234314D02*
X110100000Y-146234314D01*
X112100000Y-144234314D02*
X121700000Y-144234314D01*
X122300000Y-143634314D02*
X122300000Y-140714314D01*
X102600000Y-147284314D02*
X103650000Y-146234314D01*
X110100000Y-146234314D02*
X112100000Y-144234314D01*
X121700000Y-144234314D02*
X122300000Y-143634314D01*
X102600000Y-149334314D02*
X102600000Y-147284314D01*
X122300000Y-140714314D02*
X125180000Y-140714314D01*
%TO.N,Net-(J4-Pin_2)*%
X84305000Y-145634314D02*
X82300000Y-147639314D01*
X82300000Y-147639314D02*
X82300000Y-149734314D01*
%TO.N,Net-(D1-A)*%
X113000000Y-140734314D02*
X112980000Y-140714314D01*
X119280000Y-135634314D02*
X114180000Y-140734314D01*
X114180000Y-140734314D02*
X113000000Y-140734314D01*
X112980000Y-140714314D02*
X109600000Y-140714314D01*
%TO.N,Net-(SW1A-B)*%
X98136370Y-145634314D02*
X100600000Y-148097944D01*
X97005000Y-145634314D02*
X98136370Y-145634314D01*
X100600000Y-148097944D02*
X100600000Y-149334314D01*
%TO.N,Net-(U1-GPIO1)*%
X105600000Y-130934314D02*
X105600000Y-142434314D01*
X81765000Y-145634314D02*
X84965000Y-142434314D01*
X109200000Y-127334314D02*
X109200000Y-125674314D01*
X84965000Y-142434314D02*
X105600000Y-142434314D01*
X105600000Y-130934314D02*
X109200000Y-127334314D01*
X109200000Y-125674314D02*
X112100000Y-122774314D01*
%TO.N,Net-(U1-GPIO0)*%
X112100000Y-131334314D02*
X110400000Y-133034314D01*
X110400000Y-133034314D02*
X108320000Y-133034314D01*
X108320000Y-133034314D02*
X107000000Y-134354314D01*
X107000000Y-134354314D02*
X107000000Y-143934314D01*
X107000000Y-143934314D02*
X96165000Y-143934314D01*
X96165000Y-143934314D02*
X94465000Y-145634314D01*
X112100000Y-125314314D02*
X112100000Y-131334314D01*
%TO.N,Net-(U1-GPIO5)*%
X96860000Y-107534314D02*
X102700000Y-113374314D01*
X102700000Y-139234314D02*
X98400000Y-139234314D01*
X98100000Y-139109314D02*
X97005000Y-138014314D01*
X98400000Y-139234314D02*
X98100000Y-139534314D01*
X102700000Y-113374314D02*
X102700000Y-139234314D01*
X98100000Y-139534314D02*
X98100000Y-139109314D01*
%TO.N,Net-(U1-GPIO2)*%
X104200000Y-128134314D02*
X112100000Y-120234314D01*
X84125000Y-140734314D02*
X104200000Y-140734314D01*
X79225000Y-145634314D02*
X84125000Y-140734314D01*
X104200000Y-128134314D02*
X104200000Y-140734314D01*
%TO.N,Net-(U1-GPIO7)*%
X96860000Y-112614314D02*
X100000000Y-115754314D01*
X100000000Y-115754314D02*
X100000000Y-130134314D01*
X83400000Y-135034314D02*
X81765000Y-136669314D01*
X81765000Y-136669314D02*
X81765000Y-138014314D01*
X86640990Y-134834314D02*
X83400000Y-134834314D01*
X91340990Y-130134314D02*
X86640990Y-134834314D01*
X83400000Y-134834314D02*
X83400000Y-135034314D01*
X100000000Y-130134314D02*
X91340990Y-130134314D01*
%TO.N,Net-(U1-GPIO6)*%
X101180000Y-136614314D02*
X101200000Y-136634314D01*
X96860000Y-110074314D02*
X101700000Y-114914314D01*
X101700000Y-136534314D02*
X101260000Y-136534314D01*
X94465000Y-138014314D02*
X95865000Y-136614314D01*
X95865000Y-136614314D02*
X101180000Y-136614314D01*
X101700000Y-114914314D02*
X101700000Y-136534314D01*
X101260000Y-136534314D02*
X101180000Y-136614314D01*
%TD*%
M02*
