M48
; DRILL file {KiCad 8.0.8} date 2025-02-19T10:09:49+0100
; FORMAT={-:-/ absolute / inch / decimal}
; #@! TF.CreationDate,2025-02-19T10:09:49+01:00
; #@! TF.GenerationSoftware,Kicad,Pcbnew,8.0.8
; #@! TF.FileFunction,Plated,1,2,PTH
FMAT,2
INCH
; #@! TA.AperFunction,Plated,PTH,ComponentDrill
T1C0.0300
; #@! TA.AperFunction,Plated,PTH,ComponentDrill
T2C0.0315
; #@! TA.AperFunction,Plated,PTH,ComponentDrill
T3C0.0394
; #@! TA.AperFunction,Plated,PTH,ComponentDrill
T4C0.0433
; #@! TA.AperFunction,Plated,PTH,ComponentDrill
T5C0.0591
%
G90
G05
T1
X3.8134Y-4.2336
X3.8134Y-4.3336
X3.8134Y-4.4336
X3.8134Y-4.5336
X3.8134Y-4.6336
X3.8134Y-4.7336
X3.8134Y-4.8336
X3.8134Y-4.9336
X4.315Y-5.5399
X4.315Y-5.8399
X4.4134Y-4.2336
X4.4134Y-4.3336
X4.4134Y-4.4336
X4.4134Y-4.5336
X4.4134Y-4.6336
X4.4134Y-4.7336
X4.4134Y-4.8336
X4.4134Y-4.9336
X4.815Y-5.5399
X4.815Y-5.8399
T2
X3.1191Y-5.4336
X3.1191Y-5.7336
X3.2191Y-5.4336
X3.2191Y-5.7336
X3.3191Y-5.4336
X3.3191Y-5.7336
X3.4191Y-5.4336
X3.4191Y-5.7336
X3.5191Y-5.4336
X3.5191Y-5.7336
X3.6191Y-5.4336
X3.6191Y-5.7336
X3.7191Y-5.4336
X3.7191Y-5.7336
X3.8191Y-5.4336
X3.8191Y-5.7336
X3.8819Y-5.8793
X3.9606Y-5.8793
X4.0394Y-5.8793
T3
X3.2402Y-5.8951
X3.3386Y-5.8951
X3.5551Y-4.7415
X3.5551Y-4.8399
X3.563Y-5.2573
X3.6614Y-5.2573
X5.0394Y-5.651
X5.0394Y-5.7494
T4
X4.2961Y-5.3399
X4.6961Y-5.3399
T5
X3.7992Y-5.8793
X4.122Y-5.8793
M30
