%TF.GenerationSoftware,KiCad,Pcbnew,9.0.0*%
%TF.CreationDate,2025-03-09T11:13:04+01:00*%
%TF.ProjectId,telecommande,74656c65-636f-46d6-9d61-6e64652e6b69,rev?*%
%TF.SameCoordinates,Original*%
%TF.FileFunction,Legend,Top*%
%TF.FilePolarity,Positive*%
%FSLAX46Y46*%
G04 Gerber Fmt 4.6, Leading zero omitted, Abs format (unit mm)*
G04 Created by KiCad (PCBNEW 9.0.0) date 2025-03-09 11:13:04*
%MOMM*%
%LPD*%
G01*
G04 APERTURE LIST*
%ADD10C,0.150000*%
%ADD11C,0.100000*%
%ADD12C,0.200000*%
G04 APERTURE END LIST*
D10*
X117636779Y-81188866D02*
X118398684Y-81188866D01*
X118017731Y-81569819D02*
X118017731Y-80807914D01*
X118732017Y-80569819D02*
X119065350Y-81569819D01*
X119065350Y-81569819D02*
X119398683Y-80569819D01*
X120160588Y-81522200D02*
X120065350Y-81569819D01*
X120065350Y-81569819D02*
X119874874Y-81569819D01*
X119874874Y-81569819D02*
X119779636Y-81522200D01*
X119779636Y-81522200D02*
X119732017Y-81474580D01*
X119732017Y-81474580D02*
X119684398Y-81379342D01*
X119684398Y-81379342D02*
X119684398Y-81093628D01*
X119684398Y-81093628D02*
X119732017Y-80998390D01*
X119732017Y-80998390D02*
X119779636Y-80950771D01*
X119779636Y-80950771D02*
X119874874Y-80903152D01*
X119874874Y-80903152D02*
X120065350Y-80903152D01*
X120065350Y-80903152D02*
X120160588Y-80950771D01*
X121017731Y-81522200D02*
X120922493Y-81569819D01*
X120922493Y-81569819D02*
X120732017Y-81569819D01*
X120732017Y-81569819D02*
X120636779Y-81522200D01*
X120636779Y-81522200D02*
X120589160Y-81474580D01*
X120589160Y-81474580D02*
X120541541Y-81379342D01*
X120541541Y-81379342D02*
X120541541Y-81093628D01*
X120541541Y-81093628D02*
X120589160Y-80998390D01*
X120589160Y-80998390D02*
X120636779Y-80950771D01*
X120636779Y-80950771D02*
X120732017Y-80903152D01*
X120732017Y-80903152D02*
X120922493Y-80903152D01*
X120922493Y-80903152D02*
X121017731Y-80950771D01*
X123410588Y-80617438D02*
X123315350Y-80569819D01*
X123315350Y-80569819D02*
X123172493Y-80569819D01*
X123172493Y-80569819D02*
X123029636Y-80617438D01*
X123029636Y-80617438D02*
X122934398Y-80712676D01*
X122934398Y-80712676D02*
X122886779Y-80807914D01*
X122886779Y-80807914D02*
X122839160Y-80998390D01*
X122839160Y-80998390D02*
X122839160Y-81141247D01*
X122839160Y-81141247D02*
X122886779Y-81331723D01*
X122886779Y-81331723D02*
X122934398Y-81426961D01*
X122934398Y-81426961D02*
X123029636Y-81522200D01*
X123029636Y-81522200D02*
X123172493Y-81569819D01*
X123172493Y-81569819D02*
X123267731Y-81569819D01*
X123267731Y-81569819D02*
X123410588Y-81522200D01*
X123410588Y-81522200D02*
X123458207Y-81474580D01*
X123458207Y-81474580D02*
X123458207Y-81141247D01*
X123458207Y-81141247D02*
X123267731Y-81141247D01*
X123886779Y-81569819D02*
X123886779Y-80569819D01*
X123886779Y-80569819D02*
X124458207Y-81569819D01*
X124458207Y-81569819D02*
X124458207Y-80569819D01*
X124934398Y-81569819D02*
X124934398Y-80569819D01*
X124934398Y-80569819D02*
X125172493Y-80569819D01*
X125172493Y-80569819D02*
X125315350Y-80617438D01*
X125315350Y-80617438D02*
X125410588Y-80712676D01*
X125410588Y-80712676D02*
X125458207Y-80807914D01*
X125458207Y-80807914D02*
X125505826Y-80998390D01*
X125505826Y-80998390D02*
X125505826Y-81141247D01*
X125505826Y-81141247D02*
X125458207Y-81331723D01*
X125458207Y-81331723D02*
X125410588Y-81426961D01*
X125410588Y-81426961D02*
X125315350Y-81522200D01*
X125315350Y-81522200D02*
X125172493Y-81569819D01*
X125172493Y-81569819D02*
X124934398Y-81569819D01*
D11*
X87661027Y-104272419D02*
X87994360Y-105272419D01*
X87994360Y-105272419D02*
X88327693Y-104272419D01*
X89232455Y-105177180D02*
X89184836Y-105224800D01*
X89184836Y-105224800D02*
X89041979Y-105272419D01*
X89041979Y-105272419D02*
X88946741Y-105272419D01*
X88946741Y-105272419D02*
X88803884Y-105224800D01*
X88803884Y-105224800D02*
X88708646Y-105129561D01*
X88708646Y-105129561D02*
X88661027Y-105034323D01*
X88661027Y-105034323D02*
X88613408Y-104843847D01*
X88613408Y-104843847D02*
X88613408Y-104700990D01*
X88613408Y-104700990D02*
X88661027Y-104510514D01*
X88661027Y-104510514D02*
X88708646Y-104415276D01*
X88708646Y-104415276D02*
X88803884Y-104320038D01*
X88803884Y-104320038D02*
X88946741Y-104272419D01*
X88946741Y-104272419D02*
X89041979Y-104272419D01*
X89041979Y-104272419D02*
X89184836Y-104320038D01*
X89184836Y-104320038D02*
X89232455Y-104367657D01*
X90232455Y-105177180D02*
X90184836Y-105224800D01*
X90184836Y-105224800D02*
X90041979Y-105272419D01*
X90041979Y-105272419D02*
X89946741Y-105272419D01*
X89946741Y-105272419D02*
X89803884Y-105224800D01*
X89803884Y-105224800D02*
X89708646Y-105129561D01*
X89708646Y-105129561D02*
X89661027Y-105034323D01*
X89661027Y-105034323D02*
X89613408Y-104843847D01*
X89613408Y-104843847D02*
X89613408Y-104700990D01*
X89613408Y-104700990D02*
X89661027Y-104510514D01*
X89661027Y-104510514D02*
X89708646Y-104415276D01*
X89708646Y-104415276D02*
X89803884Y-104320038D01*
X89803884Y-104320038D02*
X89946741Y-104272419D01*
X89946741Y-104272419D02*
X90041979Y-104272419D01*
X90041979Y-104272419D02*
X90184836Y-104320038D01*
X90184836Y-104320038D02*
X90232455Y-104367657D01*
X88127693Y-106820038D02*
X88032455Y-106772419D01*
X88032455Y-106772419D02*
X87889598Y-106772419D01*
X87889598Y-106772419D02*
X87746741Y-106820038D01*
X87746741Y-106820038D02*
X87651503Y-106915276D01*
X87651503Y-106915276D02*
X87603884Y-107010514D01*
X87603884Y-107010514D02*
X87556265Y-107200990D01*
X87556265Y-107200990D02*
X87556265Y-107343847D01*
X87556265Y-107343847D02*
X87603884Y-107534323D01*
X87603884Y-107534323D02*
X87651503Y-107629561D01*
X87651503Y-107629561D02*
X87746741Y-107724800D01*
X87746741Y-107724800D02*
X87889598Y-107772419D01*
X87889598Y-107772419D02*
X87984836Y-107772419D01*
X87984836Y-107772419D02*
X88127693Y-107724800D01*
X88127693Y-107724800D02*
X88175312Y-107677180D01*
X88175312Y-107677180D02*
X88175312Y-107343847D01*
X88175312Y-107343847D02*
X87984836Y-107343847D01*
X88603884Y-107772419D02*
X88603884Y-106772419D01*
X88603884Y-106772419D02*
X89175312Y-107772419D01*
X89175312Y-107772419D02*
X89175312Y-106772419D01*
X89651503Y-107772419D02*
X89651503Y-106772419D01*
X89651503Y-106772419D02*
X89889598Y-106772419D01*
X89889598Y-106772419D02*
X90032455Y-106820038D01*
X90032455Y-106820038D02*
X90127693Y-106915276D01*
X90127693Y-106915276D02*
X90175312Y-107010514D01*
X90175312Y-107010514D02*
X90222931Y-107200990D01*
X90222931Y-107200990D02*
X90222931Y-107343847D01*
X90222931Y-107343847D02*
X90175312Y-107534323D01*
X90175312Y-107534323D02*
X90127693Y-107629561D01*
X90127693Y-107629561D02*
X90032455Y-107724800D01*
X90032455Y-107724800D02*
X89889598Y-107772419D01*
X89889598Y-107772419D02*
X89651503Y-107772419D01*
X87803884Y-102872419D02*
X87803884Y-101872419D01*
X87803884Y-101872419D02*
X88041979Y-101872419D01*
X88041979Y-101872419D02*
X88184836Y-101920038D01*
X88184836Y-101920038D02*
X88280074Y-102015276D01*
X88280074Y-102015276D02*
X88327693Y-102110514D01*
X88327693Y-102110514D02*
X88375312Y-102300990D01*
X88375312Y-102300990D02*
X88375312Y-102443847D01*
X88375312Y-102443847D02*
X88327693Y-102634323D01*
X88327693Y-102634323D02*
X88280074Y-102729561D01*
X88280074Y-102729561D02*
X88184836Y-102824800D01*
X88184836Y-102824800D02*
X88041979Y-102872419D01*
X88041979Y-102872419D02*
X87803884Y-102872419D01*
X88803884Y-102872419D02*
X88803884Y-101872419D01*
X89280074Y-102872419D02*
X89280074Y-101872419D01*
X89280074Y-101872419D02*
X89851502Y-102872419D01*
X89851502Y-102872419D02*
X89851502Y-101872419D01*
X80903884Y-102672419D02*
X80903884Y-101672419D01*
X80903884Y-101672419D02*
X81141979Y-101672419D01*
X81141979Y-101672419D02*
X81284836Y-101720038D01*
X81284836Y-101720038D02*
X81380074Y-101815276D01*
X81380074Y-101815276D02*
X81427693Y-101910514D01*
X81427693Y-101910514D02*
X81475312Y-102100990D01*
X81475312Y-102100990D02*
X81475312Y-102243847D01*
X81475312Y-102243847D02*
X81427693Y-102434323D01*
X81427693Y-102434323D02*
X81380074Y-102529561D01*
X81380074Y-102529561D02*
X81284836Y-102624800D01*
X81284836Y-102624800D02*
X81141979Y-102672419D01*
X81141979Y-102672419D02*
X80903884Y-102672419D01*
X81903884Y-102672419D02*
X81903884Y-101672419D01*
X82380074Y-102672419D02*
X82380074Y-101672419D01*
X82380074Y-101672419D02*
X82951502Y-102672419D01*
X82951502Y-102672419D02*
X82951502Y-101672419D01*
X81227693Y-106620038D02*
X81132455Y-106572419D01*
X81132455Y-106572419D02*
X80989598Y-106572419D01*
X80989598Y-106572419D02*
X80846741Y-106620038D01*
X80846741Y-106620038D02*
X80751503Y-106715276D01*
X80751503Y-106715276D02*
X80703884Y-106810514D01*
X80703884Y-106810514D02*
X80656265Y-107000990D01*
X80656265Y-107000990D02*
X80656265Y-107143847D01*
X80656265Y-107143847D02*
X80703884Y-107334323D01*
X80703884Y-107334323D02*
X80751503Y-107429561D01*
X80751503Y-107429561D02*
X80846741Y-107524800D01*
X80846741Y-107524800D02*
X80989598Y-107572419D01*
X80989598Y-107572419D02*
X81084836Y-107572419D01*
X81084836Y-107572419D02*
X81227693Y-107524800D01*
X81227693Y-107524800D02*
X81275312Y-107477180D01*
X81275312Y-107477180D02*
X81275312Y-107143847D01*
X81275312Y-107143847D02*
X81084836Y-107143847D01*
X81703884Y-107572419D02*
X81703884Y-106572419D01*
X81703884Y-106572419D02*
X82275312Y-107572419D01*
X82275312Y-107572419D02*
X82275312Y-106572419D01*
X82751503Y-107572419D02*
X82751503Y-106572419D01*
X82751503Y-106572419D02*
X82989598Y-106572419D01*
X82989598Y-106572419D02*
X83132455Y-106620038D01*
X83132455Y-106620038D02*
X83227693Y-106715276D01*
X83227693Y-106715276D02*
X83275312Y-106810514D01*
X83275312Y-106810514D02*
X83322931Y-107000990D01*
X83322931Y-107000990D02*
X83322931Y-107143847D01*
X83322931Y-107143847D02*
X83275312Y-107334323D01*
X83275312Y-107334323D02*
X83227693Y-107429561D01*
X83227693Y-107429561D02*
X83132455Y-107524800D01*
X83132455Y-107524800D02*
X82989598Y-107572419D01*
X82989598Y-107572419D02*
X82751503Y-107572419D01*
X80761027Y-104072419D02*
X81094360Y-105072419D01*
X81094360Y-105072419D02*
X81427693Y-104072419D01*
X82332455Y-104977180D02*
X82284836Y-105024800D01*
X82284836Y-105024800D02*
X82141979Y-105072419D01*
X82141979Y-105072419D02*
X82046741Y-105072419D01*
X82046741Y-105072419D02*
X81903884Y-105024800D01*
X81903884Y-105024800D02*
X81808646Y-104929561D01*
X81808646Y-104929561D02*
X81761027Y-104834323D01*
X81761027Y-104834323D02*
X81713408Y-104643847D01*
X81713408Y-104643847D02*
X81713408Y-104500990D01*
X81713408Y-104500990D02*
X81761027Y-104310514D01*
X81761027Y-104310514D02*
X81808646Y-104215276D01*
X81808646Y-104215276D02*
X81903884Y-104120038D01*
X81903884Y-104120038D02*
X82046741Y-104072419D01*
X82046741Y-104072419D02*
X82141979Y-104072419D01*
X82141979Y-104072419D02*
X82284836Y-104120038D01*
X82284836Y-104120038D02*
X82332455Y-104167657D01*
X83332455Y-104977180D02*
X83284836Y-105024800D01*
X83284836Y-105024800D02*
X83141979Y-105072419D01*
X83141979Y-105072419D02*
X83046741Y-105072419D01*
X83046741Y-105072419D02*
X82903884Y-105024800D01*
X82903884Y-105024800D02*
X82808646Y-104929561D01*
X82808646Y-104929561D02*
X82761027Y-104834323D01*
X82761027Y-104834323D02*
X82713408Y-104643847D01*
X82713408Y-104643847D02*
X82713408Y-104500990D01*
X82713408Y-104500990D02*
X82761027Y-104310514D01*
X82761027Y-104310514D02*
X82808646Y-104215276D01*
X82808646Y-104215276D02*
X82903884Y-104120038D01*
X82903884Y-104120038D02*
X83046741Y-104072419D01*
X83046741Y-104072419D02*
X83141979Y-104072419D01*
X83141979Y-104072419D02*
X83284836Y-104120038D01*
X83284836Y-104120038D02*
X83332455Y-104167657D01*
X120904761Y-89257419D02*
X120571428Y-88781228D01*
X120333333Y-89257419D02*
X120333333Y-88257419D01*
X120333333Y-88257419D02*
X120714285Y-88257419D01*
X120714285Y-88257419D02*
X120809523Y-88305038D01*
X120809523Y-88305038D02*
X120857142Y-88352657D01*
X120857142Y-88352657D02*
X120904761Y-88447895D01*
X120904761Y-88447895D02*
X120904761Y-88590752D01*
X120904761Y-88590752D02*
X120857142Y-88685990D01*
X120857142Y-88685990D02*
X120809523Y-88733609D01*
X120809523Y-88733609D02*
X120714285Y-88781228D01*
X120714285Y-88781228D02*
X120333333Y-88781228D01*
X121190476Y-88257419D02*
X121523809Y-89257419D01*
X121523809Y-89257419D02*
X121857142Y-88257419D01*
X122142857Y-88352657D02*
X122190476Y-88305038D01*
X122190476Y-88305038D02*
X122285714Y-88257419D01*
X122285714Y-88257419D02*
X122523809Y-88257419D01*
X122523809Y-88257419D02*
X122619047Y-88305038D01*
X122619047Y-88305038D02*
X122666666Y-88352657D01*
X122666666Y-88352657D02*
X122714285Y-88447895D01*
X122714285Y-88447895D02*
X122714285Y-88543133D01*
X122714285Y-88543133D02*
X122666666Y-88685990D01*
X122666666Y-88685990D02*
X122095238Y-89257419D01*
X122095238Y-89257419D02*
X122714285Y-89257419D01*
X121104761Y-100107419D02*
X120771428Y-99631228D01*
X120533333Y-100107419D02*
X120533333Y-99107419D01*
X120533333Y-99107419D02*
X120914285Y-99107419D01*
X120914285Y-99107419D02*
X121009523Y-99155038D01*
X121009523Y-99155038D02*
X121057142Y-99202657D01*
X121057142Y-99202657D02*
X121104761Y-99297895D01*
X121104761Y-99297895D02*
X121104761Y-99440752D01*
X121104761Y-99440752D02*
X121057142Y-99535990D01*
X121057142Y-99535990D02*
X121009523Y-99583609D01*
X121009523Y-99583609D02*
X120914285Y-99631228D01*
X120914285Y-99631228D02*
X120533333Y-99631228D01*
X121390476Y-99107419D02*
X121723809Y-100107419D01*
X121723809Y-100107419D02*
X122057142Y-99107419D01*
X122914285Y-100107419D02*
X122342857Y-100107419D01*
X122628571Y-100107419D02*
X122628571Y-99107419D01*
X122628571Y-99107419D02*
X122533333Y-99250276D01*
X122533333Y-99250276D02*
X122438095Y-99345514D01*
X122438095Y-99345514D02*
X122342857Y-99393133D01*
X87332693Y-85385038D02*
X87237455Y-85337419D01*
X87237455Y-85337419D02*
X87094598Y-85337419D01*
X87094598Y-85337419D02*
X86951741Y-85385038D01*
X86951741Y-85385038D02*
X86856503Y-85480276D01*
X86856503Y-85480276D02*
X86808884Y-85575514D01*
X86808884Y-85575514D02*
X86761265Y-85765990D01*
X86761265Y-85765990D02*
X86761265Y-85908847D01*
X86761265Y-85908847D02*
X86808884Y-86099323D01*
X86808884Y-86099323D02*
X86856503Y-86194561D01*
X86856503Y-86194561D02*
X86951741Y-86289800D01*
X86951741Y-86289800D02*
X87094598Y-86337419D01*
X87094598Y-86337419D02*
X87189836Y-86337419D01*
X87189836Y-86337419D02*
X87332693Y-86289800D01*
X87332693Y-86289800D02*
X87380312Y-86242180D01*
X87380312Y-86242180D02*
X87380312Y-85908847D01*
X87380312Y-85908847D02*
X87189836Y-85908847D01*
X87808884Y-86337419D02*
X87808884Y-85337419D01*
X87808884Y-85337419D02*
X88189836Y-85337419D01*
X88189836Y-85337419D02*
X88285074Y-85385038D01*
X88285074Y-85385038D02*
X88332693Y-85432657D01*
X88332693Y-85432657D02*
X88380312Y-85527895D01*
X88380312Y-85527895D02*
X88380312Y-85670752D01*
X88380312Y-85670752D02*
X88332693Y-85765990D01*
X88332693Y-85765990D02*
X88285074Y-85813609D01*
X88285074Y-85813609D02*
X88189836Y-85861228D01*
X88189836Y-85861228D02*
X87808884Y-85861228D01*
X88808884Y-86337419D02*
X88808884Y-85337419D01*
X89475550Y-85337419D02*
X89666026Y-85337419D01*
X89666026Y-85337419D02*
X89761264Y-85385038D01*
X89761264Y-85385038D02*
X89856502Y-85480276D01*
X89856502Y-85480276D02*
X89904121Y-85670752D01*
X89904121Y-85670752D02*
X89904121Y-86004085D01*
X89904121Y-86004085D02*
X89856502Y-86194561D01*
X89856502Y-86194561D02*
X89761264Y-86289800D01*
X89761264Y-86289800D02*
X89666026Y-86337419D01*
X89666026Y-86337419D02*
X89475550Y-86337419D01*
X89475550Y-86337419D02*
X89380312Y-86289800D01*
X89380312Y-86289800D02*
X89285074Y-86194561D01*
X89285074Y-86194561D02*
X89237455Y-86004085D01*
X89237455Y-86004085D02*
X89237455Y-85670752D01*
X89237455Y-85670752D02*
X89285074Y-85480276D01*
X89285074Y-85480276D02*
X89380312Y-85385038D01*
X89380312Y-85385038D02*
X89475550Y-85337419D01*
X90761264Y-85670752D02*
X90761264Y-86337419D01*
X90523169Y-85289800D02*
X90285074Y-86004085D01*
X90285074Y-86004085D02*
X90904121Y-86004085D01*
X79077693Y-93005038D02*
X78982455Y-92957419D01*
X78982455Y-92957419D02*
X78839598Y-92957419D01*
X78839598Y-92957419D02*
X78696741Y-93005038D01*
X78696741Y-93005038D02*
X78601503Y-93100276D01*
X78601503Y-93100276D02*
X78553884Y-93195514D01*
X78553884Y-93195514D02*
X78506265Y-93385990D01*
X78506265Y-93385990D02*
X78506265Y-93528847D01*
X78506265Y-93528847D02*
X78553884Y-93719323D01*
X78553884Y-93719323D02*
X78601503Y-93814561D01*
X78601503Y-93814561D02*
X78696741Y-93909800D01*
X78696741Y-93909800D02*
X78839598Y-93957419D01*
X78839598Y-93957419D02*
X78934836Y-93957419D01*
X78934836Y-93957419D02*
X79077693Y-93909800D01*
X79077693Y-93909800D02*
X79125312Y-93862180D01*
X79125312Y-93862180D02*
X79125312Y-93528847D01*
X79125312Y-93528847D02*
X78934836Y-93528847D01*
X79553884Y-93957419D02*
X79553884Y-92957419D01*
X79553884Y-92957419D02*
X79934836Y-92957419D01*
X79934836Y-92957419D02*
X80030074Y-93005038D01*
X80030074Y-93005038D02*
X80077693Y-93052657D01*
X80077693Y-93052657D02*
X80125312Y-93147895D01*
X80125312Y-93147895D02*
X80125312Y-93290752D01*
X80125312Y-93290752D02*
X80077693Y-93385990D01*
X80077693Y-93385990D02*
X80030074Y-93433609D01*
X80030074Y-93433609D02*
X79934836Y-93481228D01*
X79934836Y-93481228D02*
X79553884Y-93481228D01*
X80553884Y-93957419D02*
X80553884Y-92957419D01*
X81220550Y-92957419D02*
X81411026Y-92957419D01*
X81411026Y-92957419D02*
X81506264Y-93005038D01*
X81506264Y-93005038D02*
X81601502Y-93100276D01*
X81601502Y-93100276D02*
X81649121Y-93290752D01*
X81649121Y-93290752D02*
X81649121Y-93624085D01*
X81649121Y-93624085D02*
X81601502Y-93814561D01*
X81601502Y-93814561D02*
X81506264Y-93909800D01*
X81506264Y-93909800D02*
X81411026Y-93957419D01*
X81411026Y-93957419D02*
X81220550Y-93957419D01*
X81220550Y-93957419D02*
X81125312Y-93909800D01*
X81125312Y-93909800D02*
X81030074Y-93814561D01*
X81030074Y-93814561D02*
X80982455Y-93624085D01*
X80982455Y-93624085D02*
X80982455Y-93290752D01*
X80982455Y-93290752D02*
X81030074Y-93100276D01*
X81030074Y-93100276D02*
X81125312Y-93005038D01*
X81125312Y-93005038D02*
X81220550Y-92957419D01*
X82030074Y-93052657D02*
X82077693Y-93005038D01*
X82077693Y-93005038D02*
X82172931Y-92957419D01*
X82172931Y-92957419D02*
X82411026Y-92957419D01*
X82411026Y-92957419D02*
X82506264Y-93005038D01*
X82506264Y-93005038D02*
X82553883Y-93052657D01*
X82553883Y-93052657D02*
X82601502Y-93147895D01*
X82601502Y-93147895D02*
X82601502Y-93243133D01*
X82601502Y-93243133D02*
X82553883Y-93385990D01*
X82553883Y-93385990D02*
X81982455Y-93957419D01*
X81982455Y-93957419D02*
X82601502Y-93957419D01*
X83220550Y-92957419D02*
X83315788Y-92957419D01*
X83315788Y-92957419D02*
X83411026Y-93005038D01*
X83411026Y-93005038D02*
X83458645Y-93052657D01*
X83458645Y-93052657D02*
X83506264Y-93147895D01*
X83506264Y-93147895D02*
X83553883Y-93338371D01*
X83553883Y-93338371D02*
X83553883Y-93576466D01*
X83553883Y-93576466D02*
X83506264Y-93766942D01*
X83506264Y-93766942D02*
X83458645Y-93862180D01*
X83458645Y-93862180D02*
X83411026Y-93909800D01*
X83411026Y-93909800D02*
X83315788Y-93957419D01*
X83315788Y-93957419D02*
X83220550Y-93957419D01*
X83220550Y-93957419D02*
X83125312Y-93909800D01*
X83125312Y-93909800D02*
X83077693Y-93862180D01*
X83077693Y-93862180D02*
X83030074Y-93766942D01*
X83030074Y-93766942D02*
X82982455Y-93576466D01*
X82982455Y-93576466D02*
X82982455Y-93338371D01*
X82982455Y-93338371D02*
X83030074Y-93147895D01*
X83030074Y-93147895D02*
X83077693Y-93052657D01*
X83077693Y-93052657D02*
X83125312Y-93005038D01*
X83125312Y-93005038D02*
X83220550Y-92957419D01*
X79077693Y-87925038D02*
X78982455Y-87877419D01*
X78982455Y-87877419D02*
X78839598Y-87877419D01*
X78839598Y-87877419D02*
X78696741Y-87925038D01*
X78696741Y-87925038D02*
X78601503Y-88020276D01*
X78601503Y-88020276D02*
X78553884Y-88115514D01*
X78553884Y-88115514D02*
X78506265Y-88305990D01*
X78506265Y-88305990D02*
X78506265Y-88448847D01*
X78506265Y-88448847D02*
X78553884Y-88639323D01*
X78553884Y-88639323D02*
X78601503Y-88734561D01*
X78601503Y-88734561D02*
X78696741Y-88829800D01*
X78696741Y-88829800D02*
X78839598Y-88877419D01*
X78839598Y-88877419D02*
X78934836Y-88877419D01*
X78934836Y-88877419D02*
X79077693Y-88829800D01*
X79077693Y-88829800D02*
X79125312Y-88782180D01*
X79125312Y-88782180D02*
X79125312Y-88448847D01*
X79125312Y-88448847D02*
X78934836Y-88448847D01*
X79553884Y-88877419D02*
X79553884Y-87877419D01*
X79553884Y-87877419D02*
X79934836Y-87877419D01*
X79934836Y-87877419D02*
X80030074Y-87925038D01*
X80030074Y-87925038D02*
X80077693Y-87972657D01*
X80077693Y-87972657D02*
X80125312Y-88067895D01*
X80125312Y-88067895D02*
X80125312Y-88210752D01*
X80125312Y-88210752D02*
X80077693Y-88305990D01*
X80077693Y-88305990D02*
X80030074Y-88353609D01*
X80030074Y-88353609D02*
X79934836Y-88401228D01*
X79934836Y-88401228D02*
X79553884Y-88401228D01*
X80553884Y-88877419D02*
X80553884Y-87877419D01*
X81220550Y-87877419D02*
X81411026Y-87877419D01*
X81411026Y-87877419D02*
X81506264Y-87925038D01*
X81506264Y-87925038D02*
X81601502Y-88020276D01*
X81601502Y-88020276D02*
X81649121Y-88210752D01*
X81649121Y-88210752D02*
X81649121Y-88544085D01*
X81649121Y-88544085D02*
X81601502Y-88734561D01*
X81601502Y-88734561D02*
X81506264Y-88829800D01*
X81506264Y-88829800D02*
X81411026Y-88877419D01*
X81411026Y-88877419D02*
X81220550Y-88877419D01*
X81220550Y-88877419D02*
X81125312Y-88829800D01*
X81125312Y-88829800D02*
X81030074Y-88734561D01*
X81030074Y-88734561D02*
X80982455Y-88544085D01*
X80982455Y-88544085D02*
X80982455Y-88210752D01*
X80982455Y-88210752D02*
X81030074Y-88020276D01*
X81030074Y-88020276D02*
X81125312Y-87925038D01*
X81125312Y-87925038D02*
X81220550Y-87877419D01*
X82125312Y-88877419D02*
X82315788Y-88877419D01*
X82315788Y-88877419D02*
X82411026Y-88829800D01*
X82411026Y-88829800D02*
X82458645Y-88782180D01*
X82458645Y-88782180D02*
X82553883Y-88639323D01*
X82553883Y-88639323D02*
X82601502Y-88448847D01*
X82601502Y-88448847D02*
X82601502Y-88067895D01*
X82601502Y-88067895D02*
X82553883Y-87972657D01*
X82553883Y-87972657D02*
X82506264Y-87925038D01*
X82506264Y-87925038D02*
X82411026Y-87877419D01*
X82411026Y-87877419D02*
X82220550Y-87877419D01*
X82220550Y-87877419D02*
X82125312Y-87925038D01*
X82125312Y-87925038D02*
X82077693Y-87972657D01*
X82077693Y-87972657D02*
X82030074Y-88067895D01*
X82030074Y-88067895D02*
X82030074Y-88305990D01*
X82030074Y-88305990D02*
X82077693Y-88401228D01*
X82077693Y-88401228D02*
X82125312Y-88448847D01*
X82125312Y-88448847D02*
X82220550Y-88496466D01*
X82220550Y-88496466D02*
X82411026Y-88496466D01*
X82411026Y-88496466D02*
X82506264Y-88448847D01*
X82506264Y-88448847D02*
X82553883Y-88401228D01*
X82553883Y-88401228D02*
X82601502Y-88305990D01*
X87332693Y-93005038D02*
X87237455Y-92957419D01*
X87237455Y-92957419D02*
X87094598Y-92957419D01*
X87094598Y-92957419D02*
X86951741Y-93005038D01*
X86951741Y-93005038D02*
X86856503Y-93100276D01*
X86856503Y-93100276D02*
X86808884Y-93195514D01*
X86808884Y-93195514D02*
X86761265Y-93385990D01*
X86761265Y-93385990D02*
X86761265Y-93528847D01*
X86761265Y-93528847D02*
X86808884Y-93719323D01*
X86808884Y-93719323D02*
X86856503Y-93814561D01*
X86856503Y-93814561D02*
X86951741Y-93909800D01*
X86951741Y-93909800D02*
X87094598Y-93957419D01*
X87094598Y-93957419D02*
X87189836Y-93957419D01*
X87189836Y-93957419D02*
X87332693Y-93909800D01*
X87332693Y-93909800D02*
X87380312Y-93862180D01*
X87380312Y-93862180D02*
X87380312Y-93528847D01*
X87380312Y-93528847D02*
X87189836Y-93528847D01*
X87808884Y-93957419D02*
X87808884Y-92957419D01*
X87808884Y-92957419D02*
X88189836Y-92957419D01*
X88189836Y-92957419D02*
X88285074Y-93005038D01*
X88285074Y-93005038D02*
X88332693Y-93052657D01*
X88332693Y-93052657D02*
X88380312Y-93147895D01*
X88380312Y-93147895D02*
X88380312Y-93290752D01*
X88380312Y-93290752D02*
X88332693Y-93385990D01*
X88332693Y-93385990D02*
X88285074Y-93433609D01*
X88285074Y-93433609D02*
X88189836Y-93481228D01*
X88189836Y-93481228D02*
X87808884Y-93481228D01*
X88808884Y-93957419D02*
X88808884Y-92957419D01*
X89475550Y-92957419D02*
X89666026Y-92957419D01*
X89666026Y-92957419D02*
X89761264Y-93005038D01*
X89761264Y-93005038D02*
X89856502Y-93100276D01*
X89856502Y-93100276D02*
X89904121Y-93290752D01*
X89904121Y-93290752D02*
X89904121Y-93624085D01*
X89904121Y-93624085D02*
X89856502Y-93814561D01*
X89856502Y-93814561D02*
X89761264Y-93909800D01*
X89761264Y-93909800D02*
X89666026Y-93957419D01*
X89666026Y-93957419D02*
X89475550Y-93957419D01*
X89475550Y-93957419D02*
X89380312Y-93909800D01*
X89380312Y-93909800D02*
X89285074Y-93814561D01*
X89285074Y-93814561D02*
X89237455Y-93624085D01*
X89237455Y-93624085D02*
X89237455Y-93290752D01*
X89237455Y-93290752D02*
X89285074Y-93100276D01*
X89285074Y-93100276D02*
X89380312Y-93005038D01*
X89380312Y-93005038D02*
X89475550Y-92957419D01*
X90856502Y-93957419D02*
X90285074Y-93957419D01*
X90570788Y-93957419D02*
X90570788Y-92957419D01*
X90570788Y-92957419D02*
X90475550Y-93100276D01*
X90475550Y-93100276D02*
X90380312Y-93195514D01*
X90380312Y-93195514D02*
X90285074Y-93243133D01*
X87332693Y-90465038D02*
X87237455Y-90417419D01*
X87237455Y-90417419D02*
X87094598Y-90417419D01*
X87094598Y-90417419D02*
X86951741Y-90465038D01*
X86951741Y-90465038D02*
X86856503Y-90560276D01*
X86856503Y-90560276D02*
X86808884Y-90655514D01*
X86808884Y-90655514D02*
X86761265Y-90845990D01*
X86761265Y-90845990D02*
X86761265Y-90988847D01*
X86761265Y-90988847D02*
X86808884Y-91179323D01*
X86808884Y-91179323D02*
X86856503Y-91274561D01*
X86856503Y-91274561D02*
X86951741Y-91369800D01*
X86951741Y-91369800D02*
X87094598Y-91417419D01*
X87094598Y-91417419D02*
X87189836Y-91417419D01*
X87189836Y-91417419D02*
X87332693Y-91369800D01*
X87332693Y-91369800D02*
X87380312Y-91322180D01*
X87380312Y-91322180D02*
X87380312Y-90988847D01*
X87380312Y-90988847D02*
X87189836Y-90988847D01*
X87808884Y-91417419D02*
X87808884Y-90417419D01*
X87808884Y-90417419D02*
X88189836Y-90417419D01*
X88189836Y-90417419D02*
X88285074Y-90465038D01*
X88285074Y-90465038D02*
X88332693Y-90512657D01*
X88332693Y-90512657D02*
X88380312Y-90607895D01*
X88380312Y-90607895D02*
X88380312Y-90750752D01*
X88380312Y-90750752D02*
X88332693Y-90845990D01*
X88332693Y-90845990D02*
X88285074Y-90893609D01*
X88285074Y-90893609D02*
X88189836Y-90941228D01*
X88189836Y-90941228D02*
X87808884Y-90941228D01*
X88808884Y-91417419D02*
X88808884Y-90417419D01*
X89475550Y-90417419D02*
X89666026Y-90417419D01*
X89666026Y-90417419D02*
X89761264Y-90465038D01*
X89761264Y-90465038D02*
X89856502Y-90560276D01*
X89856502Y-90560276D02*
X89904121Y-90750752D01*
X89904121Y-90750752D02*
X89904121Y-91084085D01*
X89904121Y-91084085D02*
X89856502Y-91274561D01*
X89856502Y-91274561D02*
X89761264Y-91369800D01*
X89761264Y-91369800D02*
X89666026Y-91417419D01*
X89666026Y-91417419D02*
X89475550Y-91417419D01*
X89475550Y-91417419D02*
X89380312Y-91369800D01*
X89380312Y-91369800D02*
X89285074Y-91274561D01*
X89285074Y-91274561D02*
X89237455Y-91084085D01*
X89237455Y-91084085D02*
X89237455Y-90750752D01*
X89237455Y-90750752D02*
X89285074Y-90560276D01*
X89285074Y-90560276D02*
X89380312Y-90465038D01*
X89380312Y-90465038D02*
X89475550Y-90417419D01*
X90285074Y-90512657D02*
X90332693Y-90465038D01*
X90332693Y-90465038D02*
X90427931Y-90417419D01*
X90427931Y-90417419D02*
X90666026Y-90417419D01*
X90666026Y-90417419D02*
X90761264Y-90465038D01*
X90761264Y-90465038D02*
X90808883Y-90512657D01*
X90808883Y-90512657D02*
X90856502Y-90607895D01*
X90856502Y-90607895D02*
X90856502Y-90703133D01*
X90856502Y-90703133D02*
X90808883Y-90845990D01*
X90808883Y-90845990D02*
X90237455Y-91417419D01*
X90237455Y-91417419D02*
X90856502Y-91417419D01*
X79077693Y-77765038D02*
X78982455Y-77717419D01*
X78982455Y-77717419D02*
X78839598Y-77717419D01*
X78839598Y-77717419D02*
X78696741Y-77765038D01*
X78696741Y-77765038D02*
X78601503Y-77860276D01*
X78601503Y-77860276D02*
X78553884Y-77955514D01*
X78553884Y-77955514D02*
X78506265Y-78145990D01*
X78506265Y-78145990D02*
X78506265Y-78288847D01*
X78506265Y-78288847D02*
X78553884Y-78479323D01*
X78553884Y-78479323D02*
X78601503Y-78574561D01*
X78601503Y-78574561D02*
X78696741Y-78669800D01*
X78696741Y-78669800D02*
X78839598Y-78717419D01*
X78839598Y-78717419D02*
X78934836Y-78717419D01*
X78934836Y-78717419D02*
X79077693Y-78669800D01*
X79077693Y-78669800D02*
X79125312Y-78622180D01*
X79125312Y-78622180D02*
X79125312Y-78288847D01*
X79125312Y-78288847D02*
X78934836Y-78288847D01*
X79553884Y-78717419D02*
X79553884Y-77717419D01*
X79553884Y-77717419D02*
X79934836Y-77717419D01*
X79934836Y-77717419D02*
X80030074Y-77765038D01*
X80030074Y-77765038D02*
X80077693Y-77812657D01*
X80077693Y-77812657D02*
X80125312Y-77907895D01*
X80125312Y-77907895D02*
X80125312Y-78050752D01*
X80125312Y-78050752D02*
X80077693Y-78145990D01*
X80077693Y-78145990D02*
X80030074Y-78193609D01*
X80030074Y-78193609D02*
X79934836Y-78241228D01*
X79934836Y-78241228D02*
X79553884Y-78241228D01*
X80553884Y-78717419D02*
X80553884Y-77717419D01*
X81220550Y-77717419D02*
X81411026Y-77717419D01*
X81411026Y-77717419D02*
X81506264Y-77765038D01*
X81506264Y-77765038D02*
X81601502Y-77860276D01*
X81601502Y-77860276D02*
X81649121Y-78050752D01*
X81649121Y-78050752D02*
X81649121Y-78384085D01*
X81649121Y-78384085D02*
X81601502Y-78574561D01*
X81601502Y-78574561D02*
X81506264Y-78669800D01*
X81506264Y-78669800D02*
X81411026Y-78717419D01*
X81411026Y-78717419D02*
X81220550Y-78717419D01*
X81220550Y-78717419D02*
X81125312Y-78669800D01*
X81125312Y-78669800D02*
X81030074Y-78574561D01*
X81030074Y-78574561D02*
X80982455Y-78384085D01*
X80982455Y-78384085D02*
X80982455Y-78050752D01*
X80982455Y-78050752D02*
X81030074Y-77860276D01*
X81030074Y-77860276D02*
X81125312Y-77765038D01*
X81125312Y-77765038D02*
X81220550Y-77717419D01*
X82553883Y-77717419D02*
X82077693Y-77717419D01*
X82077693Y-77717419D02*
X82030074Y-78193609D01*
X82030074Y-78193609D02*
X82077693Y-78145990D01*
X82077693Y-78145990D02*
X82172931Y-78098371D01*
X82172931Y-78098371D02*
X82411026Y-78098371D01*
X82411026Y-78098371D02*
X82506264Y-78145990D01*
X82506264Y-78145990D02*
X82553883Y-78193609D01*
X82553883Y-78193609D02*
X82601502Y-78288847D01*
X82601502Y-78288847D02*
X82601502Y-78526942D01*
X82601502Y-78526942D02*
X82553883Y-78622180D01*
X82553883Y-78622180D02*
X82506264Y-78669800D01*
X82506264Y-78669800D02*
X82411026Y-78717419D01*
X82411026Y-78717419D02*
X82172931Y-78717419D01*
X82172931Y-78717419D02*
X82077693Y-78669800D01*
X82077693Y-78669800D02*
X82030074Y-78622180D01*
X79077693Y-95545038D02*
X78982455Y-95497419D01*
X78982455Y-95497419D02*
X78839598Y-95497419D01*
X78839598Y-95497419D02*
X78696741Y-95545038D01*
X78696741Y-95545038D02*
X78601503Y-95640276D01*
X78601503Y-95640276D02*
X78553884Y-95735514D01*
X78553884Y-95735514D02*
X78506265Y-95925990D01*
X78506265Y-95925990D02*
X78506265Y-96068847D01*
X78506265Y-96068847D02*
X78553884Y-96259323D01*
X78553884Y-96259323D02*
X78601503Y-96354561D01*
X78601503Y-96354561D02*
X78696741Y-96449800D01*
X78696741Y-96449800D02*
X78839598Y-96497419D01*
X78839598Y-96497419D02*
X78934836Y-96497419D01*
X78934836Y-96497419D02*
X79077693Y-96449800D01*
X79077693Y-96449800D02*
X79125312Y-96402180D01*
X79125312Y-96402180D02*
X79125312Y-96068847D01*
X79125312Y-96068847D02*
X78934836Y-96068847D01*
X79553884Y-96497419D02*
X79553884Y-95497419D01*
X79553884Y-95497419D02*
X79934836Y-95497419D01*
X79934836Y-95497419D02*
X80030074Y-95545038D01*
X80030074Y-95545038D02*
X80077693Y-95592657D01*
X80077693Y-95592657D02*
X80125312Y-95687895D01*
X80125312Y-95687895D02*
X80125312Y-95830752D01*
X80125312Y-95830752D02*
X80077693Y-95925990D01*
X80077693Y-95925990D02*
X80030074Y-95973609D01*
X80030074Y-95973609D02*
X79934836Y-96021228D01*
X79934836Y-96021228D02*
X79553884Y-96021228D01*
X80553884Y-96497419D02*
X80553884Y-95497419D01*
X81220550Y-95497419D02*
X81411026Y-95497419D01*
X81411026Y-95497419D02*
X81506264Y-95545038D01*
X81506264Y-95545038D02*
X81601502Y-95640276D01*
X81601502Y-95640276D02*
X81649121Y-95830752D01*
X81649121Y-95830752D02*
X81649121Y-96164085D01*
X81649121Y-96164085D02*
X81601502Y-96354561D01*
X81601502Y-96354561D02*
X81506264Y-96449800D01*
X81506264Y-96449800D02*
X81411026Y-96497419D01*
X81411026Y-96497419D02*
X81220550Y-96497419D01*
X81220550Y-96497419D02*
X81125312Y-96449800D01*
X81125312Y-96449800D02*
X81030074Y-96354561D01*
X81030074Y-96354561D02*
X80982455Y-96164085D01*
X80982455Y-96164085D02*
X80982455Y-95830752D01*
X80982455Y-95830752D02*
X81030074Y-95640276D01*
X81030074Y-95640276D02*
X81125312Y-95545038D01*
X81125312Y-95545038D02*
X81220550Y-95497419D01*
X82030074Y-95592657D02*
X82077693Y-95545038D01*
X82077693Y-95545038D02*
X82172931Y-95497419D01*
X82172931Y-95497419D02*
X82411026Y-95497419D01*
X82411026Y-95497419D02*
X82506264Y-95545038D01*
X82506264Y-95545038D02*
X82553883Y-95592657D01*
X82553883Y-95592657D02*
X82601502Y-95687895D01*
X82601502Y-95687895D02*
X82601502Y-95783133D01*
X82601502Y-95783133D02*
X82553883Y-95925990D01*
X82553883Y-95925990D02*
X81982455Y-96497419D01*
X81982455Y-96497419D02*
X82601502Y-96497419D01*
X83553883Y-96497419D02*
X82982455Y-96497419D01*
X83268169Y-96497419D02*
X83268169Y-95497419D01*
X83268169Y-95497419D02*
X83172931Y-95640276D01*
X83172931Y-95640276D02*
X83077693Y-95735514D01*
X83077693Y-95735514D02*
X82982455Y-95783133D01*
X87332693Y-87925038D02*
X87237455Y-87877419D01*
X87237455Y-87877419D02*
X87094598Y-87877419D01*
X87094598Y-87877419D02*
X86951741Y-87925038D01*
X86951741Y-87925038D02*
X86856503Y-88020276D01*
X86856503Y-88020276D02*
X86808884Y-88115514D01*
X86808884Y-88115514D02*
X86761265Y-88305990D01*
X86761265Y-88305990D02*
X86761265Y-88448847D01*
X86761265Y-88448847D02*
X86808884Y-88639323D01*
X86808884Y-88639323D02*
X86856503Y-88734561D01*
X86856503Y-88734561D02*
X86951741Y-88829800D01*
X86951741Y-88829800D02*
X87094598Y-88877419D01*
X87094598Y-88877419D02*
X87189836Y-88877419D01*
X87189836Y-88877419D02*
X87332693Y-88829800D01*
X87332693Y-88829800D02*
X87380312Y-88782180D01*
X87380312Y-88782180D02*
X87380312Y-88448847D01*
X87380312Y-88448847D02*
X87189836Y-88448847D01*
X87808884Y-88877419D02*
X87808884Y-87877419D01*
X87808884Y-87877419D02*
X88189836Y-87877419D01*
X88189836Y-87877419D02*
X88285074Y-87925038D01*
X88285074Y-87925038D02*
X88332693Y-87972657D01*
X88332693Y-87972657D02*
X88380312Y-88067895D01*
X88380312Y-88067895D02*
X88380312Y-88210752D01*
X88380312Y-88210752D02*
X88332693Y-88305990D01*
X88332693Y-88305990D02*
X88285074Y-88353609D01*
X88285074Y-88353609D02*
X88189836Y-88401228D01*
X88189836Y-88401228D02*
X87808884Y-88401228D01*
X88808884Y-88877419D02*
X88808884Y-87877419D01*
X89475550Y-87877419D02*
X89666026Y-87877419D01*
X89666026Y-87877419D02*
X89761264Y-87925038D01*
X89761264Y-87925038D02*
X89856502Y-88020276D01*
X89856502Y-88020276D02*
X89904121Y-88210752D01*
X89904121Y-88210752D02*
X89904121Y-88544085D01*
X89904121Y-88544085D02*
X89856502Y-88734561D01*
X89856502Y-88734561D02*
X89761264Y-88829800D01*
X89761264Y-88829800D02*
X89666026Y-88877419D01*
X89666026Y-88877419D02*
X89475550Y-88877419D01*
X89475550Y-88877419D02*
X89380312Y-88829800D01*
X89380312Y-88829800D02*
X89285074Y-88734561D01*
X89285074Y-88734561D02*
X89237455Y-88544085D01*
X89237455Y-88544085D02*
X89237455Y-88210752D01*
X89237455Y-88210752D02*
X89285074Y-88020276D01*
X89285074Y-88020276D02*
X89380312Y-87925038D01*
X89380312Y-87925038D02*
X89475550Y-87877419D01*
X90237455Y-87877419D02*
X90856502Y-87877419D01*
X90856502Y-87877419D02*
X90523169Y-88258371D01*
X90523169Y-88258371D02*
X90666026Y-88258371D01*
X90666026Y-88258371D02*
X90761264Y-88305990D01*
X90761264Y-88305990D02*
X90808883Y-88353609D01*
X90808883Y-88353609D02*
X90856502Y-88448847D01*
X90856502Y-88448847D02*
X90856502Y-88686942D01*
X90856502Y-88686942D02*
X90808883Y-88782180D01*
X90808883Y-88782180D02*
X90761264Y-88829800D01*
X90761264Y-88829800D02*
X90666026Y-88877419D01*
X90666026Y-88877419D02*
X90380312Y-88877419D01*
X90380312Y-88877419D02*
X90285074Y-88829800D01*
X90285074Y-88829800D02*
X90237455Y-88782180D01*
X79077693Y-80305038D02*
X78982455Y-80257419D01*
X78982455Y-80257419D02*
X78839598Y-80257419D01*
X78839598Y-80257419D02*
X78696741Y-80305038D01*
X78696741Y-80305038D02*
X78601503Y-80400276D01*
X78601503Y-80400276D02*
X78553884Y-80495514D01*
X78553884Y-80495514D02*
X78506265Y-80685990D01*
X78506265Y-80685990D02*
X78506265Y-80828847D01*
X78506265Y-80828847D02*
X78553884Y-81019323D01*
X78553884Y-81019323D02*
X78601503Y-81114561D01*
X78601503Y-81114561D02*
X78696741Y-81209800D01*
X78696741Y-81209800D02*
X78839598Y-81257419D01*
X78839598Y-81257419D02*
X78934836Y-81257419D01*
X78934836Y-81257419D02*
X79077693Y-81209800D01*
X79077693Y-81209800D02*
X79125312Y-81162180D01*
X79125312Y-81162180D02*
X79125312Y-80828847D01*
X79125312Y-80828847D02*
X78934836Y-80828847D01*
X79553884Y-81257419D02*
X79553884Y-80257419D01*
X79553884Y-80257419D02*
X79934836Y-80257419D01*
X79934836Y-80257419D02*
X80030074Y-80305038D01*
X80030074Y-80305038D02*
X80077693Y-80352657D01*
X80077693Y-80352657D02*
X80125312Y-80447895D01*
X80125312Y-80447895D02*
X80125312Y-80590752D01*
X80125312Y-80590752D02*
X80077693Y-80685990D01*
X80077693Y-80685990D02*
X80030074Y-80733609D01*
X80030074Y-80733609D02*
X79934836Y-80781228D01*
X79934836Y-80781228D02*
X79553884Y-80781228D01*
X80553884Y-81257419D02*
X80553884Y-80257419D01*
X81220550Y-80257419D02*
X81411026Y-80257419D01*
X81411026Y-80257419D02*
X81506264Y-80305038D01*
X81506264Y-80305038D02*
X81601502Y-80400276D01*
X81601502Y-80400276D02*
X81649121Y-80590752D01*
X81649121Y-80590752D02*
X81649121Y-80924085D01*
X81649121Y-80924085D02*
X81601502Y-81114561D01*
X81601502Y-81114561D02*
X81506264Y-81209800D01*
X81506264Y-81209800D02*
X81411026Y-81257419D01*
X81411026Y-81257419D02*
X81220550Y-81257419D01*
X81220550Y-81257419D02*
X81125312Y-81209800D01*
X81125312Y-81209800D02*
X81030074Y-81114561D01*
X81030074Y-81114561D02*
X80982455Y-80924085D01*
X80982455Y-80924085D02*
X80982455Y-80590752D01*
X80982455Y-80590752D02*
X81030074Y-80400276D01*
X81030074Y-80400276D02*
X81125312Y-80305038D01*
X81125312Y-80305038D02*
X81220550Y-80257419D01*
X82506264Y-80257419D02*
X82315788Y-80257419D01*
X82315788Y-80257419D02*
X82220550Y-80305038D01*
X82220550Y-80305038D02*
X82172931Y-80352657D01*
X82172931Y-80352657D02*
X82077693Y-80495514D01*
X82077693Y-80495514D02*
X82030074Y-80685990D01*
X82030074Y-80685990D02*
X82030074Y-81066942D01*
X82030074Y-81066942D02*
X82077693Y-81162180D01*
X82077693Y-81162180D02*
X82125312Y-81209800D01*
X82125312Y-81209800D02*
X82220550Y-81257419D01*
X82220550Y-81257419D02*
X82411026Y-81257419D01*
X82411026Y-81257419D02*
X82506264Y-81209800D01*
X82506264Y-81209800D02*
X82553883Y-81162180D01*
X82553883Y-81162180D02*
X82601502Y-81066942D01*
X82601502Y-81066942D02*
X82601502Y-80828847D01*
X82601502Y-80828847D02*
X82553883Y-80733609D01*
X82553883Y-80733609D02*
X82506264Y-80685990D01*
X82506264Y-80685990D02*
X82411026Y-80638371D01*
X82411026Y-80638371D02*
X82220550Y-80638371D01*
X82220550Y-80638371D02*
X82125312Y-80685990D01*
X82125312Y-80685990D02*
X82077693Y-80733609D01*
X82077693Y-80733609D02*
X82030074Y-80828847D01*
X87332693Y-95545038D02*
X87237455Y-95497419D01*
X87237455Y-95497419D02*
X87094598Y-95497419D01*
X87094598Y-95497419D02*
X86951741Y-95545038D01*
X86951741Y-95545038D02*
X86856503Y-95640276D01*
X86856503Y-95640276D02*
X86808884Y-95735514D01*
X86808884Y-95735514D02*
X86761265Y-95925990D01*
X86761265Y-95925990D02*
X86761265Y-96068847D01*
X86761265Y-96068847D02*
X86808884Y-96259323D01*
X86808884Y-96259323D02*
X86856503Y-96354561D01*
X86856503Y-96354561D02*
X86951741Y-96449800D01*
X86951741Y-96449800D02*
X87094598Y-96497419D01*
X87094598Y-96497419D02*
X87189836Y-96497419D01*
X87189836Y-96497419D02*
X87332693Y-96449800D01*
X87332693Y-96449800D02*
X87380312Y-96402180D01*
X87380312Y-96402180D02*
X87380312Y-96068847D01*
X87380312Y-96068847D02*
X87189836Y-96068847D01*
X87808884Y-96497419D02*
X87808884Y-95497419D01*
X87808884Y-95497419D02*
X88189836Y-95497419D01*
X88189836Y-95497419D02*
X88285074Y-95545038D01*
X88285074Y-95545038D02*
X88332693Y-95592657D01*
X88332693Y-95592657D02*
X88380312Y-95687895D01*
X88380312Y-95687895D02*
X88380312Y-95830752D01*
X88380312Y-95830752D02*
X88332693Y-95925990D01*
X88332693Y-95925990D02*
X88285074Y-95973609D01*
X88285074Y-95973609D02*
X88189836Y-96021228D01*
X88189836Y-96021228D02*
X87808884Y-96021228D01*
X88808884Y-96497419D02*
X88808884Y-95497419D01*
X89475550Y-95497419D02*
X89666026Y-95497419D01*
X89666026Y-95497419D02*
X89761264Y-95545038D01*
X89761264Y-95545038D02*
X89856502Y-95640276D01*
X89856502Y-95640276D02*
X89904121Y-95830752D01*
X89904121Y-95830752D02*
X89904121Y-96164085D01*
X89904121Y-96164085D02*
X89856502Y-96354561D01*
X89856502Y-96354561D02*
X89761264Y-96449800D01*
X89761264Y-96449800D02*
X89666026Y-96497419D01*
X89666026Y-96497419D02*
X89475550Y-96497419D01*
X89475550Y-96497419D02*
X89380312Y-96449800D01*
X89380312Y-96449800D02*
X89285074Y-96354561D01*
X89285074Y-96354561D02*
X89237455Y-96164085D01*
X89237455Y-96164085D02*
X89237455Y-95830752D01*
X89237455Y-95830752D02*
X89285074Y-95640276D01*
X89285074Y-95640276D02*
X89380312Y-95545038D01*
X89380312Y-95545038D02*
X89475550Y-95497419D01*
X90523169Y-95497419D02*
X90618407Y-95497419D01*
X90618407Y-95497419D02*
X90713645Y-95545038D01*
X90713645Y-95545038D02*
X90761264Y-95592657D01*
X90761264Y-95592657D02*
X90808883Y-95687895D01*
X90808883Y-95687895D02*
X90856502Y-95878371D01*
X90856502Y-95878371D02*
X90856502Y-96116466D01*
X90856502Y-96116466D02*
X90808883Y-96306942D01*
X90808883Y-96306942D02*
X90761264Y-96402180D01*
X90761264Y-96402180D02*
X90713645Y-96449800D01*
X90713645Y-96449800D02*
X90618407Y-96497419D01*
X90618407Y-96497419D02*
X90523169Y-96497419D01*
X90523169Y-96497419D02*
X90427931Y-96449800D01*
X90427931Y-96449800D02*
X90380312Y-96402180D01*
X90380312Y-96402180D02*
X90332693Y-96306942D01*
X90332693Y-96306942D02*
X90285074Y-96116466D01*
X90285074Y-96116466D02*
X90285074Y-95878371D01*
X90285074Y-95878371D02*
X90332693Y-95687895D01*
X90332693Y-95687895D02*
X90380312Y-95592657D01*
X90380312Y-95592657D02*
X90427931Y-95545038D01*
X90427931Y-95545038D02*
X90523169Y-95497419D01*
X89825074Y-77717419D02*
X89348884Y-77717419D01*
X89348884Y-77717419D02*
X89301265Y-78193609D01*
X89301265Y-78193609D02*
X89348884Y-78145990D01*
X89348884Y-78145990D02*
X89444122Y-78098371D01*
X89444122Y-78098371D02*
X89682217Y-78098371D01*
X89682217Y-78098371D02*
X89777455Y-78145990D01*
X89777455Y-78145990D02*
X89825074Y-78193609D01*
X89825074Y-78193609D02*
X89872693Y-78288847D01*
X89872693Y-78288847D02*
X89872693Y-78526942D01*
X89872693Y-78526942D02*
X89825074Y-78622180D01*
X89825074Y-78622180D02*
X89777455Y-78669800D01*
X89777455Y-78669800D02*
X89682217Y-78717419D01*
X89682217Y-78717419D02*
X89444122Y-78717419D01*
X89444122Y-78717419D02*
X89348884Y-78669800D01*
X89348884Y-78669800D02*
X89301265Y-78622180D01*
X90158408Y-77717419D02*
X90491741Y-78717419D01*
X90491741Y-78717419D02*
X90825074Y-77717419D01*
X79077693Y-82845038D02*
X78982455Y-82797419D01*
X78982455Y-82797419D02*
X78839598Y-82797419D01*
X78839598Y-82797419D02*
X78696741Y-82845038D01*
X78696741Y-82845038D02*
X78601503Y-82940276D01*
X78601503Y-82940276D02*
X78553884Y-83035514D01*
X78553884Y-83035514D02*
X78506265Y-83225990D01*
X78506265Y-83225990D02*
X78506265Y-83368847D01*
X78506265Y-83368847D02*
X78553884Y-83559323D01*
X78553884Y-83559323D02*
X78601503Y-83654561D01*
X78601503Y-83654561D02*
X78696741Y-83749800D01*
X78696741Y-83749800D02*
X78839598Y-83797419D01*
X78839598Y-83797419D02*
X78934836Y-83797419D01*
X78934836Y-83797419D02*
X79077693Y-83749800D01*
X79077693Y-83749800D02*
X79125312Y-83702180D01*
X79125312Y-83702180D02*
X79125312Y-83368847D01*
X79125312Y-83368847D02*
X78934836Y-83368847D01*
X79553884Y-83797419D02*
X79553884Y-82797419D01*
X79553884Y-82797419D02*
X79934836Y-82797419D01*
X79934836Y-82797419D02*
X80030074Y-82845038D01*
X80030074Y-82845038D02*
X80077693Y-82892657D01*
X80077693Y-82892657D02*
X80125312Y-82987895D01*
X80125312Y-82987895D02*
X80125312Y-83130752D01*
X80125312Y-83130752D02*
X80077693Y-83225990D01*
X80077693Y-83225990D02*
X80030074Y-83273609D01*
X80030074Y-83273609D02*
X79934836Y-83321228D01*
X79934836Y-83321228D02*
X79553884Y-83321228D01*
X80553884Y-83797419D02*
X80553884Y-82797419D01*
X81220550Y-82797419D02*
X81411026Y-82797419D01*
X81411026Y-82797419D02*
X81506264Y-82845038D01*
X81506264Y-82845038D02*
X81601502Y-82940276D01*
X81601502Y-82940276D02*
X81649121Y-83130752D01*
X81649121Y-83130752D02*
X81649121Y-83464085D01*
X81649121Y-83464085D02*
X81601502Y-83654561D01*
X81601502Y-83654561D02*
X81506264Y-83749800D01*
X81506264Y-83749800D02*
X81411026Y-83797419D01*
X81411026Y-83797419D02*
X81220550Y-83797419D01*
X81220550Y-83797419D02*
X81125312Y-83749800D01*
X81125312Y-83749800D02*
X81030074Y-83654561D01*
X81030074Y-83654561D02*
X80982455Y-83464085D01*
X80982455Y-83464085D02*
X80982455Y-83130752D01*
X80982455Y-83130752D02*
X81030074Y-82940276D01*
X81030074Y-82940276D02*
X81125312Y-82845038D01*
X81125312Y-82845038D02*
X81220550Y-82797419D01*
X81982455Y-82797419D02*
X82649121Y-82797419D01*
X82649121Y-82797419D02*
X82220550Y-83797419D01*
X79077693Y-90465038D02*
X78982455Y-90417419D01*
X78982455Y-90417419D02*
X78839598Y-90417419D01*
X78839598Y-90417419D02*
X78696741Y-90465038D01*
X78696741Y-90465038D02*
X78601503Y-90560276D01*
X78601503Y-90560276D02*
X78553884Y-90655514D01*
X78553884Y-90655514D02*
X78506265Y-90845990D01*
X78506265Y-90845990D02*
X78506265Y-90988847D01*
X78506265Y-90988847D02*
X78553884Y-91179323D01*
X78553884Y-91179323D02*
X78601503Y-91274561D01*
X78601503Y-91274561D02*
X78696741Y-91369800D01*
X78696741Y-91369800D02*
X78839598Y-91417419D01*
X78839598Y-91417419D02*
X78934836Y-91417419D01*
X78934836Y-91417419D02*
X79077693Y-91369800D01*
X79077693Y-91369800D02*
X79125312Y-91322180D01*
X79125312Y-91322180D02*
X79125312Y-90988847D01*
X79125312Y-90988847D02*
X78934836Y-90988847D01*
X79553884Y-91417419D02*
X79553884Y-90417419D01*
X79553884Y-90417419D02*
X79934836Y-90417419D01*
X79934836Y-90417419D02*
X80030074Y-90465038D01*
X80030074Y-90465038D02*
X80077693Y-90512657D01*
X80077693Y-90512657D02*
X80125312Y-90607895D01*
X80125312Y-90607895D02*
X80125312Y-90750752D01*
X80125312Y-90750752D02*
X80077693Y-90845990D01*
X80077693Y-90845990D02*
X80030074Y-90893609D01*
X80030074Y-90893609D02*
X79934836Y-90941228D01*
X79934836Y-90941228D02*
X79553884Y-90941228D01*
X80553884Y-91417419D02*
X80553884Y-90417419D01*
X81220550Y-90417419D02*
X81411026Y-90417419D01*
X81411026Y-90417419D02*
X81506264Y-90465038D01*
X81506264Y-90465038D02*
X81601502Y-90560276D01*
X81601502Y-90560276D02*
X81649121Y-90750752D01*
X81649121Y-90750752D02*
X81649121Y-91084085D01*
X81649121Y-91084085D02*
X81601502Y-91274561D01*
X81601502Y-91274561D02*
X81506264Y-91369800D01*
X81506264Y-91369800D02*
X81411026Y-91417419D01*
X81411026Y-91417419D02*
X81220550Y-91417419D01*
X81220550Y-91417419D02*
X81125312Y-91369800D01*
X81125312Y-91369800D02*
X81030074Y-91274561D01*
X81030074Y-91274561D02*
X80982455Y-91084085D01*
X80982455Y-91084085D02*
X80982455Y-90750752D01*
X80982455Y-90750752D02*
X81030074Y-90560276D01*
X81030074Y-90560276D02*
X81125312Y-90465038D01*
X81125312Y-90465038D02*
X81220550Y-90417419D01*
X82601502Y-91417419D02*
X82030074Y-91417419D01*
X82315788Y-91417419D02*
X82315788Y-90417419D01*
X82315788Y-90417419D02*
X82220550Y-90560276D01*
X82220550Y-90560276D02*
X82125312Y-90655514D01*
X82125312Y-90655514D02*
X82030074Y-90703133D01*
X83220550Y-90417419D02*
X83315788Y-90417419D01*
X83315788Y-90417419D02*
X83411026Y-90465038D01*
X83411026Y-90465038D02*
X83458645Y-90512657D01*
X83458645Y-90512657D02*
X83506264Y-90607895D01*
X83506264Y-90607895D02*
X83553883Y-90798371D01*
X83553883Y-90798371D02*
X83553883Y-91036466D01*
X83553883Y-91036466D02*
X83506264Y-91226942D01*
X83506264Y-91226942D02*
X83458645Y-91322180D01*
X83458645Y-91322180D02*
X83411026Y-91369800D01*
X83411026Y-91369800D02*
X83315788Y-91417419D01*
X83315788Y-91417419D02*
X83220550Y-91417419D01*
X83220550Y-91417419D02*
X83125312Y-91369800D01*
X83125312Y-91369800D02*
X83077693Y-91322180D01*
X83077693Y-91322180D02*
X83030074Y-91226942D01*
X83030074Y-91226942D02*
X82982455Y-91036466D01*
X82982455Y-91036466D02*
X82982455Y-90798371D01*
X82982455Y-90798371D02*
X83030074Y-90607895D01*
X83030074Y-90607895D02*
X83077693Y-90512657D01*
X83077693Y-90512657D02*
X83125312Y-90465038D01*
X83125312Y-90465038D02*
X83220550Y-90417419D01*
X79077693Y-85385038D02*
X78982455Y-85337419D01*
X78982455Y-85337419D02*
X78839598Y-85337419D01*
X78839598Y-85337419D02*
X78696741Y-85385038D01*
X78696741Y-85385038D02*
X78601503Y-85480276D01*
X78601503Y-85480276D02*
X78553884Y-85575514D01*
X78553884Y-85575514D02*
X78506265Y-85765990D01*
X78506265Y-85765990D02*
X78506265Y-85908847D01*
X78506265Y-85908847D02*
X78553884Y-86099323D01*
X78553884Y-86099323D02*
X78601503Y-86194561D01*
X78601503Y-86194561D02*
X78696741Y-86289800D01*
X78696741Y-86289800D02*
X78839598Y-86337419D01*
X78839598Y-86337419D02*
X78934836Y-86337419D01*
X78934836Y-86337419D02*
X79077693Y-86289800D01*
X79077693Y-86289800D02*
X79125312Y-86242180D01*
X79125312Y-86242180D02*
X79125312Y-85908847D01*
X79125312Y-85908847D02*
X78934836Y-85908847D01*
X79553884Y-86337419D02*
X79553884Y-85337419D01*
X79553884Y-85337419D02*
X79934836Y-85337419D01*
X79934836Y-85337419D02*
X80030074Y-85385038D01*
X80030074Y-85385038D02*
X80077693Y-85432657D01*
X80077693Y-85432657D02*
X80125312Y-85527895D01*
X80125312Y-85527895D02*
X80125312Y-85670752D01*
X80125312Y-85670752D02*
X80077693Y-85765990D01*
X80077693Y-85765990D02*
X80030074Y-85813609D01*
X80030074Y-85813609D02*
X79934836Y-85861228D01*
X79934836Y-85861228D02*
X79553884Y-85861228D01*
X80553884Y-86337419D02*
X80553884Y-85337419D01*
X81220550Y-85337419D02*
X81411026Y-85337419D01*
X81411026Y-85337419D02*
X81506264Y-85385038D01*
X81506264Y-85385038D02*
X81601502Y-85480276D01*
X81601502Y-85480276D02*
X81649121Y-85670752D01*
X81649121Y-85670752D02*
X81649121Y-86004085D01*
X81649121Y-86004085D02*
X81601502Y-86194561D01*
X81601502Y-86194561D02*
X81506264Y-86289800D01*
X81506264Y-86289800D02*
X81411026Y-86337419D01*
X81411026Y-86337419D02*
X81220550Y-86337419D01*
X81220550Y-86337419D02*
X81125312Y-86289800D01*
X81125312Y-86289800D02*
X81030074Y-86194561D01*
X81030074Y-86194561D02*
X80982455Y-86004085D01*
X80982455Y-86004085D02*
X80982455Y-85670752D01*
X80982455Y-85670752D02*
X81030074Y-85480276D01*
X81030074Y-85480276D02*
X81125312Y-85385038D01*
X81125312Y-85385038D02*
X81220550Y-85337419D01*
X82220550Y-85765990D02*
X82125312Y-85718371D01*
X82125312Y-85718371D02*
X82077693Y-85670752D01*
X82077693Y-85670752D02*
X82030074Y-85575514D01*
X82030074Y-85575514D02*
X82030074Y-85527895D01*
X82030074Y-85527895D02*
X82077693Y-85432657D01*
X82077693Y-85432657D02*
X82125312Y-85385038D01*
X82125312Y-85385038D02*
X82220550Y-85337419D01*
X82220550Y-85337419D02*
X82411026Y-85337419D01*
X82411026Y-85337419D02*
X82506264Y-85385038D01*
X82506264Y-85385038D02*
X82553883Y-85432657D01*
X82553883Y-85432657D02*
X82601502Y-85527895D01*
X82601502Y-85527895D02*
X82601502Y-85575514D01*
X82601502Y-85575514D02*
X82553883Y-85670752D01*
X82553883Y-85670752D02*
X82506264Y-85718371D01*
X82506264Y-85718371D02*
X82411026Y-85765990D01*
X82411026Y-85765990D02*
X82220550Y-85765990D01*
X82220550Y-85765990D02*
X82125312Y-85813609D01*
X82125312Y-85813609D02*
X82077693Y-85861228D01*
X82077693Y-85861228D02*
X82030074Y-85956466D01*
X82030074Y-85956466D02*
X82030074Y-86146942D01*
X82030074Y-86146942D02*
X82077693Y-86242180D01*
X82077693Y-86242180D02*
X82125312Y-86289800D01*
X82125312Y-86289800D02*
X82220550Y-86337419D01*
X82220550Y-86337419D02*
X82411026Y-86337419D01*
X82411026Y-86337419D02*
X82506264Y-86289800D01*
X82506264Y-86289800D02*
X82553883Y-86242180D01*
X82553883Y-86242180D02*
X82601502Y-86146942D01*
X82601502Y-86146942D02*
X82601502Y-85956466D01*
X82601502Y-85956466D02*
X82553883Y-85861228D01*
X82553883Y-85861228D02*
X82506264Y-85813609D01*
X82506264Y-85813609D02*
X82411026Y-85765990D01*
X88602693Y-80305038D02*
X88507455Y-80257419D01*
X88507455Y-80257419D02*
X88364598Y-80257419D01*
X88364598Y-80257419D02*
X88221741Y-80305038D01*
X88221741Y-80305038D02*
X88126503Y-80400276D01*
X88126503Y-80400276D02*
X88078884Y-80495514D01*
X88078884Y-80495514D02*
X88031265Y-80685990D01*
X88031265Y-80685990D02*
X88031265Y-80828847D01*
X88031265Y-80828847D02*
X88078884Y-81019323D01*
X88078884Y-81019323D02*
X88126503Y-81114561D01*
X88126503Y-81114561D02*
X88221741Y-81209800D01*
X88221741Y-81209800D02*
X88364598Y-81257419D01*
X88364598Y-81257419D02*
X88459836Y-81257419D01*
X88459836Y-81257419D02*
X88602693Y-81209800D01*
X88602693Y-81209800D02*
X88650312Y-81162180D01*
X88650312Y-81162180D02*
X88650312Y-80828847D01*
X88650312Y-80828847D02*
X88459836Y-80828847D01*
X89078884Y-81257419D02*
X89078884Y-80257419D01*
X89078884Y-80257419D02*
X89650312Y-81257419D01*
X89650312Y-81257419D02*
X89650312Y-80257419D01*
X90126503Y-81257419D02*
X90126503Y-80257419D01*
X90126503Y-80257419D02*
X90364598Y-80257419D01*
X90364598Y-80257419D02*
X90507455Y-80305038D01*
X90507455Y-80305038D02*
X90602693Y-80400276D01*
X90602693Y-80400276D02*
X90650312Y-80495514D01*
X90650312Y-80495514D02*
X90697931Y-80685990D01*
X90697931Y-80685990D02*
X90697931Y-80828847D01*
X90697931Y-80828847D02*
X90650312Y-81019323D01*
X90650312Y-81019323D02*
X90602693Y-81114561D01*
X90602693Y-81114561D02*
X90507455Y-81209800D01*
X90507455Y-81209800D02*
X90364598Y-81257419D01*
X90364598Y-81257419D02*
X90126503Y-81257419D01*
X87983646Y-82797419D02*
X88602693Y-82797419D01*
X88602693Y-82797419D02*
X88269360Y-83178371D01*
X88269360Y-83178371D02*
X88412217Y-83178371D01*
X88412217Y-83178371D02*
X88507455Y-83225990D01*
X88507455Y-83225990D02*
X88555074Y-83273609D01*
X88555074Y-83273609D02*
X88602693Y-83368847D01*
X88602693Y-83368847D02*
X88602693Y-83606942D01*
X88602693Y-83606942D02*
X88555074Y-83702180D01*
X88555074Y-83702180D02*
X88507455Y-83749800D01*
X88507455Y-83749800D02*
X88412217Y-83797419D01*
X88412217Y-83797419D02*
X88126503Y-83797419D01*
X88126503Y-83797419D02*
X88031265Y-83749800D01*
X88031265Y-83749800D02*
X87983646Y-83702180D01*
X89031265Y-83702180D02*
X89078884Y-83749800D01*
X89078884Y-83749800D02*
X89031265Y-83797419D01*
X89031265Y-83797419D02*
X88983646Y-83749800D01*
X88983646Y-83749800D02*
X89031265Y-83702180D01*
X89031265Y-83702180D02*
X89031265Y-83797419D01*
X89412217Y-82797419D02*
X90031264Y-82797419D01*
X90031264Y-82797419D02*
X89697931Y-83178371D01*
X89697931Y-83178371D02*
X89840788Y-83178371D01*
X89840788Y-83178371D02*
X89936026Y-83225990D01*
X89936026Y-83225990D02*
X89983645Y-83273609D01*
X89983645Y-83273609D02*
X90031264Y-83368847D01*
X90031264Y-83368847D02*
X90031264Y-83606942D01*
X90031264Y-83606942D02*
X89983645Y-83702180D01*
X89983645Y-83702180D02*
X89936026Y-83749800D01*
X89936026Y-83749800D02*
X89840788Y-83797419D01*
X89840788Y-83797419D02*
X89555074Y-83797419D01*
X89555074Y-83797419D02*
X89459836Y-83749800D01*
X89459836Y-83749800D02*
X89412217Y-83702180D01*
X90316979Y-82797419D02*
X90650312Y-83797419D01*
X90650312Y-83797419D02*
X90983645Y-82797419D01*
%TO.C,D1*%
X84600000Y-101540000D02*
X87300000Y-101540000D01*
X84600000Y-108200000D02*
X84600000Y-101540000D01*
X87300000Y-101540000D02*
X87300000Y-108200000D01*
X87300000Y-108200000D02*
X84650000Y-108200000D01*
%TO.C,D2*%
X77700000Y-101340000D02*
X80400000Y-101340000D01*
X77700000Y-108000000D02*
X77700000Y-101340000D01*
X80400000Y-101340000D02*
X80400000Y-108000000D01*
X80400000Y-108000000D02*
X77750000Y-108000000D01*
%TO.C,SW1*%
D12*
X112028000Y-80132000D02*
X121172000Y-80132000D01*
X121172000Y-76068000D01*
X112028000Y-76068000D01*
X112028000Y-80132000D01*
D11*
%TO.C,RV2*%
X117640000Y-89300000D02*
X117640000Y-84710000D01*
X125160000Y-84710000D02*
X125160000Y-89310000D01*
X125170000Y-84710000D02*
X117650000Y-84710000D01*
X125170212Y-89300000D02*
G75*
G02*
X117629788Y-89300000I-3770212J0D01*
G01*
%TO.C,RV1*%
X117840000Y-100150000D02*
X117840000Y-95560000D01*
X125360000Y-95560000D02*
X125360000Y-100160000D01*
X125370000Y-95560000D02*
X117850000Y-95560000D01*
X125370212Y-100150000D02*
G75*
G02*
X117829788Y-100150000I-3770212J0D01*
G01*
%TO.C,U1*%
X75710000Y-76178000D02*
X93490000Y-76178000D01*
X93490000Y-99038000D01*
X75710000Y-99038000D01*
X75710000Y-76178000D01*
X80155000Y-74908000D02*
X89045000Y-74908000D01*
X89045000Y-76178000D01*
X80155000Y-76178000D01*
X80155000Y-74908000D01*
%TO.C,U2*%
X116350000Y-81890000D02*
X98370000Y-81890000D01*
X98370000Y-103720000D01*
X116350000Y-103720000D01*
X116350000Y-81890000D01*
%TO.C,D3*%
X98910000Y-78190000D02*
X100800000Y-78190000D01*
X105800000Y-78190000D02*
X107520000Y-78190000D01*
X105800000Y-76890000D02*
X100800000Y-76890000D01*
X100800000Y-79490000D01*
X105800000Y-79490000D01*
X105800000Y-76890000D01*
%TD*%
M02*
