%TF.GenerationSoftware,KiCad,Pcbnew,9.0.0*%
%TF.CreationDate,2025-03-09T11:13:04+01:00*%
%TF.ProjectId,telecommande,74656c65-636f-46d6-9d61-6e64652e6b69,rev?*%
%TF.SameCoordinates,Original*%
%TF.FileFunction,Soldermask,Bot*%
%TF.FilePolarity,Negative*%
%FSLAX46Y46*%
G04 Gerber Fmt 4.6, Leading zero omitted, Abs format (unit mm)*
G04 Created by KiCad (PCBNEW 9.0.0) date 2025-03-09 11:13:04*
%MOMM*%
%LPD*%
G01*
G04 APERTURE LIST*
%ADD10C,1.500000*%
%ADD11C,2.540000*%
%ADD12C,2.000000*%
G04 APERTURE END LIST*
D10*
%TO.C,D1*%
X86000000Y-102900000D03*
X86000000Y-104900000D03*
X86000000Y-106900000D03*
%TD*%
%TO.C,D2*%
X79100000Y-102700000D03*
X79100000Y-104700000D03*
X79100000Y-106700000D03*
%TD*%
D11*
%TO.C,J1*%
X124000000Y-78000000D03*
%TD*%
D12*
%TO.C,SW1*%
X114060000Y-78100000D03*
X116600000Y-78100000D03*
X119140000Y-78100000D03*
%TD*%
%TO.C,RV2*%
X124000000Y-85900000D03*
X118800000Y-85900000D03*
X121400000Y-91800000D03*
%TD*%
%TO.C,RV1*%
X124200000Y-96750000D03*
X119000000Y-96750000D03*
X121600000Y-102650000D03*
%TD*%
%TO.C,U1*%
X92220000Y-78210000D03*
X92220000Y-80750000D03*
X92220000Y-83290000D03*
X92220000Y-90910000D03*
X92220000Y-93450000D03*
X92220000Y-95990000D03*
X76980000Y-78210000D03*
X76980000Y-80750000D03*
%TD*%
%TO.C,U2*%
X99560000Y-90870000D03*
X99560000Y-93370000D03*
X99560000Y-95870000D03*
X106100000Y-102600000D03*
X108600000Y-102600000D03*
X111100000Y-102600000D03*
X111700000Y-87770000D03*
X105500000Y-87770000D03*
X111700000Y-82970000D03*
X105500000Y-82970000D03*
X102100000Y-98370000D03*
X115100000Y-98370000D03*
X102100000Y-88370000D03*
X115100000Y-88370000D03*
%TD*%
D11*
%TO.C,D3*%
X109300000Y-78190000D03*
X97300000Y-78190000D03*
%TD*%
M02*
