%TF.GenerationSoftware,KiCad,Pcbnew,9.0.0*%
%TF.CreationDate,2025-03-19T09:33:47+01:00*%
%TF.ProjectId,telecommande,74656c65-636f-46d6-9d61-6e64652e6b69,rev?*%
%TF.SameCoordinates,Original*%
%TF.FileFunction,Copper,L1,Top*%
%TF.FilePolarity,Positive*%
%FSLAX46Y46*%
G04 Gerber Fmt 4.6, Leading zero omitted, Abs format (unit mm)*
G04 Created by KiCad (PCBNEW 9.0.0) date 2025-03-19 09:33:47*
%MOMM*%
%LPD*%
G01*
G04 APERTURE LIST*
%TA.AperFunction,ComponentPad*%
%ADD10C,2.540000*%
%TD*%
%TA.AperFunction,ComponentPad*%
%ADD11C,1.500000*%
%TD*%
%TA.AperFunction,ComponentPad*%
%ADD12C,2.000000*%
%TD*%
%TA.AperFunction,Conductor*%
%ADD13C,0.800000*%
%TD*%
%TA.AperFunction,Conductor*%
%ADD14C,0.250000*%
%TD*%
%TA.AperFunction,Conductor*%
%ADD15C,1.000000*%
%TD*%
%TA.AperFunction,Conductor*%
%ADD16C,0.600000*%
%TD*%
G04 APERTURE END LIST*
D10*
%TO.P,DH2,1,DH*%
%TO.N,GND*%
X125500000Y-77500000D03*
%TD*%
%TO.P,DH4,1,DH*%
%TO.N,GND*%
X125500000Y-109500000D03*
%TD*%
%TO.P,DH3,1,DH*%
%TO.N,GND*%
X75500000Y-109500000D03*
%TD*%
%TO.P,DH1,1,DH*%
%TO.N,GND*%
X75500000Y-77500000D03*
%TD*%
D11*
%TO.P,D1,1,DIN*%
%TO.N,Net-(D1-DIN)*%
X86000000Y-102900000D03*
%TO.P,D1,2,VCC*%
%TO.N,+5V*%
X86000000Y-104900000D03*
%TO.P,D1,3,GND*%
%TO.N,GND*%
X86000000Y-106900000D03*
%TD*%
%TO.P,D2,1,DIN*%
%TO.N,Net-(D2-DIN)*%
X79100000Y-102700000D03*
%TO.P,D2,2,VCC*%
%TO.N,+5V*%
X79100000Y-104700000D03*
%TO.P,D2,3,GND*%
%TO.N,GND*%
X79100000Y-106700000D03*
%TD*%
D10*
%TO.P,J1,1,Pin_1*%
%TO.N,GND*%
X119700000Y-82300000D03*
%TD*%
D12*
%TO.P,SW1,1,A*%
%TO.N,Net-(SW1-A)*%
X114060000Y-78100000D03*
%TO.P,SW1,2,B*%
%TO.N,+BATT*%
X116600000Y-78100000D03*
%TO.P,SW1,3,C*%
X119140000Y-78100000D03*
%TD*%
%TO.P,RV2,1*%
%TO.N,unconnected-(RV2-Pad1)*%
X124000000Y-85900000D03*
%TO.P,RV2,2*%
%TO.N,+3.3V*%
X118800000Y-85900000D03*
%TO.P,RV2,3*%
%TO.N,Net-(RV2-Pad3)*%
X121400000Y-91800000D03*
%TD*%
%TO.P,RV1,1*%
%TO.N,+3.3V*%
X124200000Y-96750000D03*
%TO.P,RV1,2*%
%TO.N,unconnected-(RV1-Pad2)*%
X119000000Y-96750000D03*
%TO.P,RV1,3*%
%TO.N,Net-(RV1-Pad3)*%
X121600000Y-102650000D03*
%TD*%
%TO.P,U1,1,5V*%
%TO.N,+5V*%
X94320000Y-78410000D03*
%TO.P,U1,2,GND*%
%TO.N,GND*%
X94320000Y-80950000D03*
%TO.P,U1,3,3.3V*%
%TO.N,+3.3V*%
X94320000Y-83490000D03*
%TO.P,U1,6,GPIO2*%
%TO.N,Net-(U1-GPIO2)*%
X94320000Y-91110000D03*
%TO.P,U1,7,GPIO1*%
%TO.N,Net-(U1-GPIO1)*%
X94320000Y-93650000D03*
%TO.P,U1,8,GPIO0*%
%TO.N,Net-(U1-GPIO0)*%
X94320000Y-96190000D03*
%TO.P,U1,9,GPIO5*%
%TO.N,Net-(D1-DIN)*%
X79080000Y-78410000D03*
%TO.P,U1,10,GPIO6*%
%TO.N,Net-(D2-DIN)*%
X79080000Y-80950000D03*
%TD*%
%TO.P,U2,1*%
%TO.N,Net-(RV2-Pad3)*%
X99560000Y-90870000D03*
%TO.P,U2,2*%
%TO.N,Net-(U1-GPIO1)*%
X99560000Y-93370000D03*
%TO.P,U2,3*%
%TO.N,GND*%
X99560000Y-95870000D03*
%TO.P,U2,4*%
X106100000Y-102600000D03*
%TO.P,U2,5*%
%TO.N,Net-(U1-GPIO0)*%
X108600000Y-102600000D03*
%TO.P,U2,6*%
%TO.N,Net-(RV1-Pad3)*%
X111100000Y-102600000D03*
%TO.P,U2,7*%
%TO.N,GND*%
X111700000Y-87770000D03*
%TO.P,U2,8*%
X105500000Y-87770000D03*
%TO.P,U2,9*%
%TO.N,Net-(U1-GPIO2)*%
X111700000Y-82970000D03*
%TO.P,U2,10*%
X105500000Y-82970000D03*
%TO.P,U2,11,G1*%
%TO.N,GND*%
X102100000Y-98370000D03*
%TO.P,U2,12,G2*%
X115100000Y-98370000D03*
%TO.P,U2,13,G3*%
X102100000Y-88370000D03*
%TO.P,U2,14,G4*%
X115100000Y-88370000D03*
%TD*%
D10*
%TO.P,D3,1*%
%TO.N,Net-(SW1-A)*%
X110000000Y-78190000D03*
%TO.P,D3,2*%
%TO.N,+5V*%
X98000000Y-78190000D03*
%TD*%
D13*
%TO.N,Net-(SW1-A)*%
X113970000Y-78190000D02*
X114060000Y-78100000D01*
X110000000Y-78190000D02*
X113970000Y-78190000D01*
%TO.N,+5V*%
X97780000Y-78410000D02*
X98000000Y-78190000D01*
X94320000Y-78410000D02*
X97780000Y-78410000D01*
D14*
%TO.N,Net-(U1-GPIO2)*%
X102460000Y-82970000D02*
X105500000Y-82970000D01*
X94320000Y-91110000D02*
X102460000Y-82970000D01*
%TO.N,Net-(U1-GPIO0)*%
X105200000Y-106000000D02*
X108600000Y-102600000D01*
X104000000Y-106000000D02*
X105200000Y-106000000D01*
X94320000Y-96320000D02*
X104000000Y-106000000D01*
X94320000Y-96190000D02*
X94320000Y-96320000D01*
%TO.N,Net-(U1-GPIO1)*%
X99280000Y-93650000D02*
X99560000Y-93370000D01*
X94320000Y-93650000D02*
X99280000Y-93650000D01*
%TO.N,+3.3V*%
X113900000Y-81000000D02*
X118800000Y-85900000D01*
X97000000Y-81000000D02*
X113900000Y-81000000D01*
X94510000Y-83490000D02*
X97000000Y-81000000D01*
X94320000Y-83490000D02*
X94510000Y-83490000D01*
D13*
%TO.N,+5V*%
X90000000Y-82730000D02*
X94320000Y-78410000D01*
X86000000Y-104900000D02*
X90000000Y-100900000D01*
X90000000Y-100900000D02*
X90000000Y-82730000D01*
D14*
%TO.N,Net-(D1-DIN)*%
X79080000Y-78410000D02*
X86000000Y-85330000D01*
X86000000Y-85330000D02*
X86000000Y-102900000D01*
%TO.N,Net-(D2-DIN)*%
X79080000Y-102680000D02*
X79100000Y-102700000D01*
X79080000Y-80950000D02*
X79080000Y-102680000D01*
D15*
%TO.N,Net-(SW1-A)*%
X109400000Y-78100000D02*
X109300000Y-78200000D01*
D14*
%TO.N,Net-(RV1-Pad3)*%
X122150000Y-102600000D02*
X122200000Y-102650000D01*
X111150000Y-102650000D02*
X111100000Y-102600000D01*
X121600000Y-102650000D02*
X111150000Y-102650000D01*
%TO.N,+3.3V*%
X118800000Y-85900000D02*
X124200000Y-91300000D01*
X124200000Y-91300000D02*
X124200000Y-96750000D01*
%TO.N,Net-(RV2-Pad3)*%
X121400000Y-91800000D02*
X100300000Y-91800000D01*
X100300000Y-91800000D02*
X99400000Y-90900000D01*
%TO.N,Net-(U1-GPIO2)*%
X105500000Y-82970000D02*
X111700000Y-82970000D01*
%TO.N,Net-(U1-GPIO1)*%
X99350000Y-93450000D02*
X99400000Y-93400000D01*
D16*
%TO.N,+5V*%
X85800000Y-104900000D02*
X85600000Y-104700000D01*
X86000000Y-104900000D02*
X85800000Y-104900000D01*
X85600000Y-104700000D02*
X79100000Y-104700000D01*
D15*
%TO.N,+BATT*%
X116600000Y-78100000D02*
X119140000Y-78100000D01*
%TD*%
M02*
