M48
; DRILL file {KiCad 9.0.0} date 2025-03-09T11:13:26+0100
; FORMAT={-:-/ absolute / inch / decimal}
; #@! TF.CreationDate,2025-03-09T11:13:26+01:00
; #@! TF.GenerationSoftware,Kicad,Pcbnew,9.0.0
; #@! TF.FileFunction,Plated,1,2,PTH
FMAT,2
INCH
; #@! TA.AperFunction,Plated,PTH,ComponentDrill
T1C0.0315
; #@! TA.AperFunction,Plated,PTH,ComponentDrill
T2C0.0354
; #@! TA.AperFunction,Plated,PTH,ComponentDrill
T3C0.0394
; #@! TA.AperFunction,Plated,PTH,ComponentDrill
T4C0.0433
%
G90
G05
T1
X3.0307Y-3.0791
X3.0307Y-3.1791
X3.1142Y-4.0433
X3.1142Y-4.122
X3.1142Y-4.2008
X3.3858Y-4.0512
X3.3858Y-4.1299
X3.3858Y-4.2087
X3.6307Y-3.0791
X3.6307Y-3.1791
X3.6307Y-3.2791
X3.6307Y-3.5791
X3.6307Y-3.6791
X3.6307Y-3.7791
X3.9197Y-3.5776
X3.9197Y-3.676
X3.9197Y-3.7744
X4.1535Y-3.2665
X4.1535Y-3.4555
X4.1772Y-4.0394
X4.2756Y-4.0394
X4.374Y-4.0394
X4.3976Y-3.2665
X4.3976Y-3.4555
X4.4906Y-3.0748
X4.5906Y-3.0748
X4.6906Y-3.0748
X4.8819Y-3.0709
T2
X4.6772Y-3.3819
X4.685Y-3.8091
X4.7795Y-3.6142
X4.7874Y-4.0413
X4.8819Y-3.3819
X4.8898Y-3.8091
T3
X3.8307Y-3.0783
X4.3031Y-3.0783
T4
X4.0197Y-3.4791
X4.0197Y-3.8728
X4.5315Y-3.4791
X4.5315Y-3.8728
M30
