M48
; DRILL file {KiCad 9.0.0} date 2025-03-19T09:33:57+0100
; FORMAT={-:-/ absolute / inch / decimal}
; #@! TF.CreationDate,2025-03-19T09:33:57+01:00
; #@! TF.GenerationSoftware,Kicad,Pcbnew,9.0.0
; #@! TF.FileFunction,Plated,1,2,PTH
FMAT,2
INCH
; #@! TA.AperFunction,Plated,PTH,ComponentDrill
T1C0.0315
; #@! TA.AperFunction,Plated,PTH,ComponentDrill
T2C0.0354
; #@! TA.AperFunction,Plated,PTH,ComponentDrill
T3C0.0394
; #@! TA.AperFunction,Plated,PTH,ComponentDrill
T4C0.0433
; #@! TA.AperFunction,Plated,PTH,ComponentDrill
T5C0.0787
%
G90
G05
T1
X3.1134Y-3.087
X3.1134Y-3.187
X3.1142Y-4.0433
X3.1142Y-4.122
X3.1142Y-4.2008
X3.3858Y-4.0512
X3.3858Y-4.1299
X3.3858Y-4.2087
X3.7134Y-3.087
X3.7134Y-3.187
X3.7134Y-3.287
X3.7134Y-3.587
X3.7134Y-3.687
X3.7134Y-3.787
X3.9197Y-3.5776
X3.9197Y-3.676
X3.9197Y-3.7744
X4.1535Y-3.2665
X4.1535Y-3.4555
X4.1772Y-4.0394
X4.2756Y-4.0394
X4.374Y-4.0394
X4.3976Y-3.2665
X4.3976Y-3.4555
X4.4906Y-3.0748
X4.5906Y-3.0748
X4.6906Y-3.0748
X4.7126Y-3.2402
T2
X4.6772Y-3.3819
X4.685Y-3.8091
X4.7795Y-3.6142
X4.7874Y-4.0413
X4.8819Y-3.3819
X4.8898Y-3.8091
T3
X3.8583Y-3.0783
X4.3307Y-3.0783
T4
X4.0197Y-3.4791
X4.0197Y-3.8728
X4.5315Y-3.4791
X4.5315Y-3.8728
T5
X2.9724Y-3.0512
X2.9724Y-4.311
X4.9409Y-3.0512
X4.9409Y-4.311
M30
