%TF.GenerationSoftware,KiCad,Pcbnew,9.0.0*%
%TF.CreationDate,2025-03-19T09:33:47+01:00*%
%TF.ProjectId,telecommande,74656c65-636f-46d6-9d61-6e64652e6b69,rev?*%
%TF.SameCoordinates,Original*%
%TF.FileFunction,Legend,Top*%
%TF.FilePolarity,Positive*%
%FSLAX46Y46*%
G04 Gerber Fmt 4.6, Leading zero omitted, Abs format (unit mm)*
G04 Created by KiCad (PCBNEW 9.0.0) date 2025-03-19 09:33:47*
%MOMM*%
%LPD*%
G01*
G04 APERTURE LIST*
%ADD10C,0.150000*%
%ADD11C,0.100000*%
%ADD12C,0.200000*%
G04 APERTURE END LIST*
D10*
X121508779Y-79620866D02*
X122270684Y-79620866D01*
X121889731Y-80001819D02*
X121889731Y-79239914D01*
X122604017Y-79001819D02*
X122937350Y-80001819D01*
X122937350Y-80001819D02*
X123270683Y-79001819D01*
X124032588Y-79954200D02*
X123937350Y-80001819D01*
X123937350Y-80001819D02*
X123746874Y-80001819D01*
X123746874Y-80001819D02*
X123651636Y-79954200D01*
X123651636Y-79954200D02*
X123604017Y-79906580D01*
X123604017Y-79906580D02*
X123556398Y-79811342D01*
X123556398Y-79811342D02*
X123556398Y-79525628D01*
X123556398Y-79525628D02*
X123604017Y-79430390D01*
X123604017Y-79430390D02*
X123651636Y-79382771D01*
X123651636Y-79382771D02*
X123746874Y-79335152D01*
X123746874Y-79335152D02*
X123937350Y-79335152D01*
X123937350Y-79335152D02*
X124032588Y-79382771D01*
X124889731Y-79954200D02*
X124794493Y-80001819D01*
X124794493Y-80001819D02*
X124604017Y-80001819D01*
X124604017Y-80001819D02*
X124508779Y-79954200D01*
X124508779Y-79954200D02*
X124461160Y-79906580D01*
X124461160Y-79906580D02*
X124413541Y-79811342D01*
X124413541Y-79811342D02*
X124413541Y-79525628D01*
X124413541Y-79525628D02*
X124461160Y-79430390D01*
X124461160Y-79430390D02*
X124508779Y-79382771D01*
X124508779Y-79382771D02*
X124604017Y-79335152D01*
X124604017Y-79335152D02*
X124794493Y-79335152D01*
X124794493Y-79335152D02*
X124889731Y-79382771D01*
X122260588Y-81817438D02*
X122165350Y-81769819D01*
X122165350Y-81769819D02*
X122022493Y-81769819D01*
X122022493Y-81769819D02*
X121879636Y-81817438D01*
X121879636Y-81817438D02*
X121784398Y-81912676D01*
X121784398Y-81912676D02*
X121736779Y-82007914D01*
X121736779Y-82007914D02*
X121689160Y-82198390D01*
X121689160Y-82198390D02*
X121689160Y-82341247D01*
X121689160Y-82341247D02*
X121736779Y-82531723D01*
X121736779Y-82531723D02*
X121784398Y-82626961D01*
X121784398Y-82626961D02*
X121879636Y-82722200D01*
X121879636Y-82722200D02*
X122022493Y-82769819D01*
X122022493Y-82769819D02*
X122117731Y-82769819D01*
X122117731Y-82769819D02*
X122260588Y-82722200D01*
X122260588Y-82722200D02*
X122308207Y-82674580D01*
X122308207Y-82674580D02*
X122308207Y-82341247D01*
X122308207Y-82341247D02*
X122117731Y-82341247D01*
X122736779Y-82769819D02*
X122736779Y-81769819D01*
X122736779Y-81769819D02*
X123308207Y-82769819D01*
X123308207Y-82769819D02*
X123308207Y-81769819D01*
X123784398Y-82769819D02*
X123784398Y-81769819D01*
X123784398Y-81769819D02*
X124022493Y-81769819D01*
X124022493Y-81769819D02*
X124165350Y-81817438D01*
X124165350Y-81817438D02*
X124260588Y-81912676D01*
X124260588Y-81912676D02*
X124308207Y-82007914D01*
X124308207Y-82007914D02*
X124355826Y-82198390D01*
X124355826Y-82198390D02*
X124355826Y-82341247D01*
X124355826Y-82341247D02*
X124308207Y-82531723D01*
X124308207Y-82531723D02*
X124260588Y-82626961D01*
X124260588Y-82626961D02*
X124165350Y-82722200D01*
X124165350Y-82722200D02*
X124022493Y-82769819D01*
X124022493Y-82769819D02*
X123784398Y-82769819D01*
D11*
X87661027Y-104272419D02*
X87994360Y-105272419D01*
X87994360Y-105272419D02*
X88327693Y-104272419D01*
X89232455Y-105177180D02*
X89184836Y-105224800D01*
X89184836Y-105224800D02*
X89041979Y-105272419D01*
X89041979Y-105272419D02*
X88946741Y-105272419D01*
X88946741Y-105272419D02*
X88803884Y-105224800D01*
X88803884Y-105224800D02*
X88708646Y-105129561D01*
X88708646Y-105129561D02*
X88661027Y-105034323D01*
X88661027Y-105034323D02*
X88613408Y-104843847D01*
X88613408Y-104843847D02*
X88613408Y-104700990D01*
X88613408Y-104700990D02*
X88661027Y-104510514D01*
X88661027Y-104510514D02*
X88708646Y-104415276D01*
X88708646Y-104415276D02*
X88803884Y-104320038D01*
X88803884Y-104320038D02*
X88946741Y-104272419D01*
X88946741Y-104272419D02*
X89041979Y-104272419D01*
X89041979Y-104272419D02*
X89184836Y-104320038D01*
X89184836Y-104320038D02*
X89232455Y-104367657D01*
X90232455Y-105177180D02*
X90184836Y-105224800D01*
X90184836Y-105224800D02*
X90041979Y-105272419D01*
X90041979Y-105272419D02*
X89946741Y-105272419D01*
X89946741Y-105272419D02*
X89803884Y-105224800D01*
X89803884Y-105224800D02*
X89708646Y-105129561D01*
X89708646Y-105129561D02*
X89661027Y-105034323D01*
X89661027Y-105034323D02*
X89613408Y-104843847D01*
X89613408Y-104843847D02*
X89613408Y-104700990D01*
X89613408Y-104700990D02*
X89661027Y-104510514D01*
X89661027Y-104510514D02*
X89708646Y-104415276D01*
X89708646Y-104415276D02*
X89803884Y-104320038D01*
X89803884Y-104320038D02*
X89946741Y-104272419D01*
X89946741Y-104272419D02*
X90041979Y-104272419D01*
X90041979Y-104272419D02*
X90184836Y-104320038D01*
X90184836Y-104320038D02*
X90232455Y-104367657D01*
X88127693Y-106820038D02*
X88032455Y-106772419D01*
X88032455Y-106772419D02*
X87889598Y-106772419D01*
X87889598Y-106772419D02*
X87746741Y-106820038D01*
X87746741Y-106820038D02*
X87651503Y-106915276D01*
X87651503Y-106915276D02*
X87603884Y-107010514D01*
X87603884Y-107010514D02*
X87556265Y-107200990D01*
X87556265Y-107200990D02*
X87556265Y-107343847D01*
X87556265Y-107343847D02*
X87603884Y-107534323D01*
X87603884Y-107534323D02*
X87651503Y-107629561D01*
X87651503Y-107629561D02*
X87746741Y-107724800D01*
X87746741Y-107724800D02*
X87889598Y-107772419D01*
X87889598Y-107772419D02*
X87984836Y-107772419D01*
X87984836Y-107772419D02*
X88127693Y-107724800D01*
X88127693Y-107724800D02*
X88175312Y-107677180D01*
X88175312Y-107677180D02*
X88175312Y-107343847D01*
X88175312Y-107343847D02*
X87984836Y-107343847D01*
X88603884Y-107772419D02*
X88603884Y-106772419D01*
X88603884Y-106772419D02*
X89175312Y-107772419D01*
X89175312Y-107772419D02*
X89175312Y-106772419D01*
X89651503Y-107772419D02*
X89651503Y-106772419D01*
X89651503Y-106772419D02*
X89889598Y-106772419D01*
X89889598Y-106772419D02*
X90032455Y-106820038D01*
X90032455Y-106820038D02*
X90127693Y-106915276D01*
X90127693Y-106915276D02*
X90175312Y-107010514D01*
X90175312Y-107010514D02*
X90222931Y-107200990D01*
X90222931Y-107200990D02*
X90222931Y-107343847D01*
X90222931Y-107343847D02*
X90175312Y-107534323D01*
X90175312Y-107534323D02*
X90127693Y-107629561D01*
X90127693Y-107629561D02*
X90032455Y-107724800D01*
X90032455Y-107724800D02*
X89889598Y-107772419D01*
X89889598Y-107772419D02*
X89651503Y-107772419D01*
X87803884Y-102872419D02*
X87803884Y-101872419D01*
X87803884Y-101872419D02*
X88041979Y-101872419D01*
X88041979Y-101872419D02*
X88184836Y-101920038D01*
X88184836Y-101920038D02*
X88280074Y-102015276D01*
X88280074Y-102015276D02*
X88327693Y-102110514D01*
X88327693Y-102110514D02*
X88375312Y-102300990D01*
X88375312Y-102300990D02*
X88375312Y-102443847D01*
X88375312Y-102443847D02*
X88327693Y-102634323D01*
X88327693Y-102634323D02*
X88280074Y-102729561D01*
X88280074Y-102729561D02*
X88184836Y-102824800D01*
X88184836Y-102824800D02*
X88041979Y-102872419D01*
X88041979Y-102872419D02*
X87803884Y-102872419D01*
X88803884Y-102872419D02*
X88803884Y-101872419D01*
X89280074Y-102872419D02*
X89280074Y-101872419D01*
X89280074Y-101872419D02*
X89851502Y-102872419D01*
X89851502Y-102872419D02*
X89851502Y-101872419D01*
X80903884Y-102672419D02*
X80903884Y-101672419D01*
X80903884Y-101672419D02*
X81141979Y-101672419D01*
X81141979Y-101672419D02*
X81284836Y-101720038D01*
X81284836Y-101720038D02*
X81380074Y-101815276D01*
X81380074Y-101815276D02*
X81427693Y-101910514D01*
X81427693Y-101910514D02*
X81475312Y-102100990D01*
X81475312Y-102100990D02*
X81475312Y-102243847D01*
X81475312Y-102243847D02*
X81427693Y-102434323D01*
X81427693Y-102434323D02*
X81380074Y-102529561D01*
X81380074Y-102529561D02*
X81284836Y-102624800D01*
X81284836Y-102624800D02*
X81141979Y-102672419D01*
X81141979Y-102672419D02*
X80903884Y-102672419D01*
X81903884Y-102672419D02*
X81903884Y-101672419D01*
X82380074Y-102672419D02*
X82380074Y-101672419D01*
X82380074Y-101672419D02*
X82951502Y-102672419D01*
X82951502Y-102672419D02*
X82951502Y-101672419D01*
X81227693Y-106620038D02*
X81132455Y-106572419D01*
X81132455Y-106572419D02*
X80989598Y-106572419D01*
X80989598Y-106572419D02*
X80846741Y-106620038D01*
X80846741Y-106620038D02*
X80751503Y-106715276D01*
X80751503Y-106715276D02*
X80703884Y-106810514D01*
X80703884Y-106810514D02*
X80656265Y-107000990D01*
X80656265Y-107000990D02*
X80656265Y-107143847D01*
X80656265Y-107143847D02*
X80703884Y-107334323D01*
X80703884Y-107334323D02*
X80751503Y-107429561D01*
X80751503Y-107429561D02*
X80846741Y-107524800D01*
X80846741Y-107524800D02*
X80989598Y-107572419D01*
X80989598Y-107572419D02*
X81084836Y-107572419D01*
X81084836Y-107572419D02*
X81227693Y-107524800D01*
X81227693Y-107524800D02*
X81275312Y-107477180D01*
X81275312Y-107477180D02*
X81275312Y-107143847D01*
X81275312Y-107143847D02*
X81084836Y-107143847D01*
X81703884Y-107572419D02*
X81703884Y-106572419D01*
X81703884Y-106572419D02*
X82275312Y-107572419D01*
X82275312Y-107572419D02*
X82275312Y-106572419D01*
X82751503Y-107572419D02*
X82751503Y-106572419D01*
X82751503Y-106572419D02*
X82989598Y-106572419D01*
X82989598Y-106572419D02*
X83132455Y-106620038D01*
X83132455Y-106620038D02*
X83227693Y-106715276D01*
X83227693Y-106715276D02*
X83275312Y-106810514D01*
X83275312Y-106810514D02*
X83322931Y-107000990D01*
X83322931Y-107000990D02*
X83322931Y-107143847D01*
X83322931Y-107143847D02*
X83275312Y-107334323D01*
X83275312Y-107334323D02*
X83227693Y-107429561D01*
X83227693Y-107429561D02*
X83132455Y-107524800D01*
X83132455Y-107524800D02*
X82989598Y-107572419D01*
X82989598Y-107572419D02*
X82751503Y-107572419D01*
X80761027Y-104072419D02*
X81094360Y-105072419D01*
X81094360Y-105072419D02*
X81427693Y-104072419D01*
X82332455Y-104977180D02*
X82284836Y-105024800D01*
X82284836Y-105024800D02*
X82141979Y-105072419D01*
X82141979Y-105072419D02*
X82046741Y-105072419D01*
X82046741Y-105072419D02*
X81903884Y-105024800D01*
X81903884Y-105024800D02*
X81808646Y-104929561D01*
X81808646Y-104929561D02*
X81761027Y-104834323D01*
X81761027Y-104834323D02*
X81713408Y-104643847D01*
X81713408Y-104643847D02*
X81713408Y-104500990D01*
X81713408Y-104500990D02*
X81761027Y-104310514D01*
X81761027Y-104310514D02*
X81808646Y-104215276D01*
X81808646Y-104215276D02*
X81903884Y-104120038D01*
X81903884Y-104120038D02*
X82046741Y-104072419D01*
X82046741Y-104072419D02*
X82141979Y-104072419D01*
X82141979Y-104072419D02*
X82284836Y-104120038D01*
X82284836Y-104120038D02*
X82332455Y-104167657D01*
X83332455Y-104977180D02*
X83284836Y-105024800D01*
X83284836Y-105024800D02*
X83141979Y-105072419D01*
X83141979Y-105072419D02*
X83046741Y-105072419D01*
X83046741Y-105072419D02*
X82903884Y-105024800D01*
X82903884Y-105024800D02*
X82808646Y-104929561D01*
X82808646Y-104929561D02*
X82761027Y-104834323D01*
X82761027Y-104834323D02*
X82713408Y-104643847D01*
X82713408Y-104643847D02*
X82713408Y-104500990D01*
X82713408Y-104500990D02*
X82761027Y-104310514D01*
X82761027Y-104310514D02*
X82808646Y-104215276D01*
X82808646Y-104215276D02*
X82903884Y-104120038D01*
X82903884Y-104120038D02*
X83046741Y-104072419D01*
X83046741Y-104072419D02*
X83141979Y-104072419D01*
X83141979Y-104072419D02*
X83284836Y-104120038D01*
X83284836Y-104120038D02*
X83332455Y-104167657D01*
X120904761Y-89257419D02*
X120571428Y-88781228D01*
X120333333Y-89257419D02*
X120333333Y-88257419D01*
X120333333Y-88257419D02*
X120714285Y-88257419D01*
X120714285Y-88257419D02*
X120809523Y-88305038D01*
X120809523Y-88305038D02*
X120857142Y-88352657D01*
X120857142Y-88352657D02*
X120904761Y-88447895D01*
X120904761Y-88447895D02*
X120904761Y-88590752D01*
X120904761Y-88590752D02*
X120857142Y-88685990D01*
X120857142Y-88685990D02*
X120809523Y-88733609D01*
X120809523Y-88733609D02*
X120714285Y-88781228D01*
X120714285Y-88781228D02*
X120333333Y-88781228D01*
X121190476Y-88257419D02*
X121523809Y-89257419D01*
X121523809Y-89257419D02*
X121857142Y-88257419D01*
X122142857Y-88352657D02*
X122190476Y-88305038D01*
X122190476Y-88305038D02*
X122285714Y-88257419D01*
X122285714Y-88257419D02*
X122523809Y-88257419D01*
X122523809Y-88257419D02*
X122619047Y-88305038D01*
X122619047Y-88305038D02*
X122666666Y-88352657D01*
X122666666Y-88352657D02*
X122714285Y-88447895D01*
X122714285Y-88447895D02*
X122714285Y-88543133D01*
X122714285Y-88543133D02*
X122666666Y-88685990D01*
X122666666Y-88685990D02*
X122095238Y-89257419D01*
X122095238Y-89257419D02*
X122714285Y-89257419D01*
X121104761Y-100107419D02*
X120771428Y-99631228D01*
X120533333Y-100107419D02*
X120533333Y-99107419D01*
X120533333Y-99107419D02*
X120914285Y-99107419D01*
X120914285Y-99107419D02*
X121009523Y-99155038D01*
X121009523Y-99155038D02*
X121057142Y-99202657D01*
X121057142Y-99202657D02*
X121104761Y-99297895D01*
X121104761Y-99297895D02*
X121104761Y-99440752D01*
X121104761Y-99440752D02*
X121057142Y-99535990D01*
X121057142Y-99535990D02*
X121009523Y-99583609D01*
X121009523Y-99583609D02*
X120914285Y-99631228D01*
X120914285Y-99631228D02*
X120533333Y-99631228D01*
X121390476Y-99107419D02*
X121723809Y-100107419D01*
X121723809Y-100107419D02*
X122057142Y-99107419D01*
X122914285Y-100107419D02*
X122342857Y-100107419D01*
X122628571Y-100107419D02*
X122628571Y-99107419D01*
X122628571Y-99107419D02*
X122533333Y-99250276D01*
X122533333Y-99250276D02*
X122438095Y-99345514D01*
X122438095Y-99345514D02*
X122342857Y-99393133D01*
X89432693Y-85585038D02*
X89337455Y-85537419D01*
X89337455Y-85537419D02*
X89194598Y-85537419D01*
X89194598Y-85537419D02*
X89051741Y-85585038D01*
X89051741Y-85585038D02*
X88956503Y-85680276D01*
X88956503Y-85680276D02*
X88908884Y-85775514D01*
X88908884Y-85775514D02*
X88861265Y-85965990D01*
X88861265Y-85965990D02*
X88861265Y-86108847D01*
X88861265Y-86108847D02*
X88908884Y-86299323D01*
X88908884Y-86299323D02*
X88956503Y-86394561D01*
X88956503Y-86394561D02*
X89051741Y-86489800D01*
X89051741Y-86489800D02*
X89194598Y-86537419D01*
X89194598Y-86537419D02*
X89289836Y-86537419D01*
X89289836Y-86537419D02*
X89432693Y-86489800D01*
X89432693Y-86489800D02*
X89480312Y-86442180D01*
X89480312Y-86442180D02*
X89480312Y-86108847D01*
X89480312Y-86108847D02*
X89289836Y-86108847D01*
X89908884Y-86537419D02*
X89908884Y-85537419D01*
X89908884Y-85537419D02*
X90289836Y-85537419D01*
X90289836Y-85537419D02*
X90385074Y-85585038D01*
X90385074Y-85585038D02*
X90432693Y-85632657D01*
X90432693Y-85632657D02*
X90480312Y-85727895D01*
X90480312Y-85727895D02*
X90480312Y-85870752D01*
X90480312Y-85870752D02*
X90432693Y-85965990D01*
X90432693Y-85965990D02*
X90385074Y-86013609D01*
X90385074Y-86013609D02*
X90289836Y-86061228D01*
X90289836Y-86061228D02*
X89908884Y-86061228D01*
X90908884Y-86537419D02*
X90908884Y-85537419D01*
X91575550Y-85537419D02*
X91766026Y-85537419D01*
X91766026Y-85537419D02*
X91861264Y-85585038D01*
X91861264Y-85585038D02*
X91956502Y-85680276D01*
X91956502Y-85680276D02*
X92004121Y-85870752D01*
X92004121Y-85870752D02*
X92004121Y-86204085D01*
X92004121Y-86204085D02*
X91956502Y-86394561D01*
X91956502Y-86394561D02*
X91861264Y-86489800D01*
X91861264Y-86489800D02*
X91766026Y-86537419D01*
X91766026Y-86537419D02*
X91575550Y-86537419D01*
X91575550Y-86537419D02*
X91480312Y-86489800D01*
X91480312Y-86489800D02*
X91385074Y-86394561D01*
X91385074Y-86394561D02*
X91337455Y-86204085D01*
X91337455Y-86204085D02*
X91337455Y-85870752D01*
X91337455Y-85870752D02*
X91385074Y-85680276D01*
X91385074Y-85680276D02*
X91480312Y-85585038D01*
X91480312Y-85585038D02*
X91575550Y-85537419D01*
X92861264Y-85870752D02*
X92861264Y-86537419D01*
X92623169Y-85489800D02*
X92385074Y-86204085D01*
X92385074Y-86204085D02*
X93004121Y-86204085D01*
X81177693Y-93205038D02*
X81082455Y-93157419D01*
X81082455Y-93157419D02*
X80939598Y-93157419D01*
X80939598Y-93157419D02*
X80796741Y-93205038D01*
X80796741Y-93205038D02*
X80701503Y-93300276D01*
X80701503Y-93300276D02*
X80653884Y-93395514D01*
X80653884Y-93395514D02*
X80606265Y-93585990D01*
X80606265Y-93585990D02*
X80606265Y-93728847D01*
X80606265Y-93728847D02*
X80653884Y-93919323D01*
X80653884Y-93919323D02*
X80701503Y-94014561D01*
X80701503Y-94014561D02*
X80796741Y-94109800D01*
X80796741Y-94109800D02*
X80939598Y-94157419D01*
X80939598Y-94157419D02*
X81034836Y-94157419D01*
X81034836Y-94157419D02*
X81177693Y-94109800D01*
X81177693Y-94109800D02*
X81225312Y-94062180D01*
X81225312Y-94062180D02*
X81225312Y-93728847D01*
X81225312Y-93728847D02*
X81034836Y-93728847D01*
X81653884Y-94157419D02*
X81653884Y-93157419D01*
X81653884Y-93157419D02*
X82034836Y-93157419D01*
X82034836Y-93157419D02*
X82130074Y-93205038D01*
X82130074Y-93205038D02*
X82177693Y-93252657D01*
X82177693Y-93252657D02*
X82225312Y-93347895D01*
X82225312Y-93347895D02*
X82225312Y-93490752D01*
X82225312Y-93490752D02*
X82177693Y-93585990D01*
X82177693Y-93585990D02*
X82130074Y-93633609D01*
X82130074Y-93633609D02*
X82034836Y-93681228D01*
X82034836Y-93681228D02*
X81653884Y-93681228D01*
X82653884Y-94157419D02*
X82653884Y-93157419D01*
X83320550Y-93157419D02*
X83511026Y-93157419D01*
X83511026Y-93157419D02*
X83606264Y-93205038D01*
X83606264Y-93205038D02*
X83701502Y-93300276D01*
X83701502Y-93300276D02*
X83749121Y-93490752D01*
X83749121Y-93490752D02*
X83749121Y-93824085D01*
X83749121Y-93824085D02*
X83701502Y-94014561D01*
X83701502Y-94014561D02*
X83606264Y-94109800D01*
X83606264Y-94109800D02*
X83511026Y-94157419D01*
X83511026Y-94157419D02*
X83320550Y-94157419D01*
X83320550Y-94157419D02*
X83225312Y-94109800D01*
X83225312Y-94109800D02*
X83130074Y-94014561D01*
X83130074Y-94014561D02*
X83082455Y-93824085D01*
X83082455Y-93824085D02*
X83082455Y-93490752D01*
X83082455Y-93490752D02*
X83130074Y-93300276D01*
X83130074Y-93300276D02*
X83225312Y-93205038D01*
X83225312Y-93205038D02*
X83320550Y-93157419D01*
X84130074Y-93252657D02*
X84177693Y-93205038D01*
X84177693Y-93205038D02*
X84272931Y-93157419D01*
X84272931Y-93157419D02*
X84511026Y-93157419D01*
X84511026Y-93157419D02*
X84606264Y-93205038D01*
X84606264Y-93205038D02*
X84653883Y-93252657D01*
X84653883Y-93252657D02*
X84701502Y-93347895D01*
X84701502Y-93347895D02*
X84701502Y-93443133D01*
X84701502Y-93443133D02*
X84653883Y-93585990D01*
X84653883Y-93585990D02*
X84082455Y-94157419D01*
X84082455Y-94157419D02*
X84701502Y-94157419D01*
X85320550Y-93157419D02*
X85415788Y-93157419D01*
X85415788Y-93157419D02*
X85511026Y-93205038D01*
X85511026Y-93205038D02*
X85558645Y-93252657D01*
X85558645Y-93252657D02*
X85606264Y-93347895D01*
X85606264Y-93347895D02*
X85653883Y-93538371D01*
X85653883Y-93538371D02*
X85653883Y-93776466D01*
X85653883Y-93776466D02*
X85606264Y-93966942D01*
X85606264Y-93966942D02*
X85558645Y-94062180D01*
X85558645Y-94062180D02*
X85511026Y-94109800D01*
X85511026Y-94109800D02*
X85415788Y-94157419D01*
X85415788Y-94157419D02*
X85320550Y-94157419D01*
X85320550Y-94157419D02*
X85225312Y-94109800D01*
X85225312Y-94109800D02*
X85177693Y-94062180D01*
X85177693Y-94062180D02*
X85130074Y-93966942D01*
X85130074Y-93966942D02*
X85082455Y-93776466D01*
X85082455Y-93776466D02*
X85082455Y-93538371D01*
X85082455Y-93538371D02*
X85130074Y-93347895D01*
X85130074Y-93347895D02*
X85177693Y-93252657D01*
X85177693Y-93252657D02*
X85225312Y-93205038D01*
X85225312Y-93205038D02*
X85320550Y-93157419D01*
X81177693Y-88125038D02*
X81082455Y-88077419D01*
X81082455Y-88077419D02*
X80939598Y-88077419D01*
X80939598Y-88077419D02*
X80796741Y-88125038D01*
X80796741Y-88125038D02*
X80701503Y-88220276D01*
X80701503Y-88220276D02*
X80653884Y-88315514D01*
X80653884Y-88315514D02*
X80606265Y-88505990D01*
X80606265Y-88505990D02*
X80606265Y-88648847D01*
X80606265Y-88648847D02*
X80653884Y-88839323D01*
X80653884Y-88839323D02*
X80701503Y-88934561D01*
X80701503Y-88934561D02*
X80796741Y-89029800D01*
X80796741Y-89029800D02*
X80939598Y-89077419D01*
X80939598Y-89077419D02*
X81034836Y-89077419D01*
X81034836Y-89077419D02*
X81177693Y-89029800D01*
X81177693Y-89029800D02*
X81225312Y-88982180D01*
X81225312Y-88982180D02*
X81225312Y-88648847D01*
X81225312Y-88648847D02*
X81034836Y-88648847D01*
X81653884Y-89077419D02*
X81653884Y-88077419D01*
X81653884Y-88077419D02*
X82034836Y-88077419D01*
X82034836Y-88077419D02*
X82130074Y-88125038D01*
X82130074Y-88125038D02*
X82177693Y-88172657D01*
X82177693Y-88172657D02*
X82225312Y-88267895D01*
X82225312Y-88267895D02*
X82225312Y-88410752D01*
X82225312Y-88410752D02*
X82177693Y-88505990D01*
X82177693Y-88505990D02*
X82130074Y-88553609D01*
X82130074Y-88553609D02*
X82034836Y-88601228D01*
X82034836Y-88601228D02*
X81653884Y-88601228D01*
X82653884Y-89077419D02*
X82653884Y-88077419D01*
X83320550Y-88077419D02*
X83511026Y-88077419D01*
X83511026Y-88077419D02*
X83606264Y-88125038D01*
X83606264Y-88125038D02*
X83701502Y-88220276D01*
X83701502Y-88220276D02*
X83749121Y-88410752D01*
X83749121Y-88410752D02*
X83749121Y-88744085D01*
X83749121Y-88744085D02*
X83701502Y-88934561D01*
X83701502Y-88934561D02*
X83606264Y-89029800D01*
X83606264Y-89029800D02*
X83511026Y-89077419D01*
X83511026Y-89077419D02*
X83320550Y-89077419D01*
X83320550Y-89077419D02*
X83225312Y-89029800D01*
X83225312Y-89029800D02*
X83130074Y-88934561D01*
X83130074Y-88934561D02*
X83082455Y-88744085D01*
X83082455Y-88744085D02*
X83082455Y-88410752D01*
X83082455Y-88410752D02*
X83130074Y-88220276D01*
X83130074Y-88220276D02*
X83225312Y-88125038D01*
X83225312Y-88125038D02*
X83320550Y-88077419D01*
X84225312Y-89077419D02*
X84415788Y-89077419D01*
X84415788Y-89077419D02*
X84511026Y-89029800D01*
X84511026Y-89029800D02*
X84558645Y-88982180D01*
X84558645Y-88982180D02*
X84653883Y-88839323D01*
X84653883Y-88839323D02*
X84701502Y-88648847D01*
X84701502Y-88648847D02*
X84701502Y-88267895D01*
X84701502Y-88267895D02*
X84653883Y-88172657D01*
X84653883Y-88172657D02*
X84606264Y-88125038D01*
X84606264Y-88125038D02*
X84511026Y-88077419D01*
X84511026Y-88077419D02*
X84320550Y-88077419D01*
X84320550Y-88077419D02*
X84225312Y-88125038D01*
X84225312Y-88125038D02*
X84177693Y-88172657D01*
X84177693Y-88172657D02*
X84130074Y-88267895D01*
X84130074Y-88267895D02*
X84130074Y-88505990D01*
X84130074Y-88505990D02*
X84177693Y-88601228D01*
X84177693Y-88601228D02*
X84225312Y-88648847D01*
X84225312Y-88648847D02*
X84320550Y-88696466D01*
X84320550Y-88696466D02*
X84511026Y-88696466D01*
X84511026Y-88696466D02*
X84606264Y-88648847D01*
X84606264Y-88648847D02*
X84653883Y-88601228D01*
X84653883Y-88601228D02*
X84701502Y-88505990D01*
X89432693Y-93205038D02*
X89337455Y-93157419D01*
X89337455Y-93157419D02*
X89194598Y-93157419D01*
X89194598Y-93157419D02*
X89051741Y-93205038D01*
X89051741Y-93205038D02*
X88956503Y-93300276D01*
X88956503Y-93300276D02*
X88908884Y-93395514D01*
X88908884Y-93395514D02*
X88861265Y-93585990D01*
X88861265Y-93585990D02*
X88861265Y-93728847D01*
X88861265Y-93728847D02*
X88908884Y-93919323D01*
X88908884Y-93919323D02*
X88956503Y-94014561D01*
X88956503Y-94014561D02*
X89051741Y-94109800D01*
X89051741Y-94109800D02*
X89194598Y-94157419D01*
X89194598Y-94157419D02*
X89289836Y-94157419D01*
X89289836Y-94157419D02*
X89432693Y-94109800D01*
X89432693Y-94109800D02*
X89480312Y-94062180D01*
X89480312Y-94062180D02*
X89480312Y-93728847D01*
X89480312Y-93728847D02*
X89289836Y-93728847D01*
X89908884Y-94157419D02*
X89908884Y-93157419D01*
X89908884Y-93157419D02*
X90289836Y-93157419D01*
X90289836Y-93157419D02*
X90385074Y-93205038D01*
X90385074Y-93205038D02*
X90432693Y-93252657D01*
X90432693Y-93252657D02*
X90480312Y-93347895D01*
X90480312Y-93347895D02*
X90480312Y-93490752D01*
X90480312Y-93490752D02*
X90432693Y-93585990D01*
X90432693Y-93585990D02*
X90385074Y-93633609D01*
X90385074Y-93633609D02*
X90289836Y-93681228D01*
X90289836Y-93681228D02*
X89908884Y-93681228D01*
X90908884Y-94157419D02*
X90908884Y-93157419D01*
X91575550Y-93157419D02*
X91766026Y-93157419D01*
X91766026Y-93157419D02*
X91861264Y-93205038D01*
X91861264Y-93205038D02*
X91956502Y-93300276D01*
X91956502Y-93300276D02*
X92004121Y-93490752D01*
X92004121Y-93490752D02*
X92004121Y-93824085D01*
X92004121Y-93824085D02*
X91956502Y-94014561D01*
X91956502Y-94014561D02*
X91861264Y-94109800D01*
X91861264Y-94109800D02*
X91766026Y-94157419D01*
X91766026Y-94157419D02*
X91575550Y-94157419D01*
X91575550Y-94157419D02*
X91480312Y-94109800D01*
X91480312Y-94109800D02*
X91385074Y-94014561D01*
X91385074Y-94014561D02*
X91337455Y-93824085D01*
X91337455Y-93824085D02*
X91337455Y-93490752D01*
X91337455Y-93490752D02*
X91385074Y-93300276D01*
X91385074Y-93300276D02*
X91480312Y-93205038D01*
X91480312Y-93205038D02*
X91575550Y-93157419D01*
X92956502Y-94157419D02*
X92385074Y-94157419D01*
X92670788Y-94157419D02*
X92670788Y-93157419D01*
X92670788Y-93157419D02*
X92575550Y-93300276D01*
X92575550Y-93300276D02*
X92480312Y-93395514D01*
X92480312Y-93395514D02*
X92385074Y-93443133D01*
X89432693Y-90665038D02*
X89337455Y-90617419D01*
X89337455Y-90617419D02*
X89194598Y-90617419D01*
X89194598Y-90617419D02*
X89051741Y-90665038D01*
X89051741Y-90665038D02*
X88956503Y-90760276D01*
X88956503Y-90760276D02*
X88908884Y-90855514D01*
X88908884Y-90855514D02*
X88861265Y-91045990D01*
X88861265Y-91045990D02*
X88861265Y-91188847D01*
X88861265Y-91188847D02*
X88908884Y-91379323D01*
X88908884Y-91379323D02*
X88956503Y-91474561D01*
X88956503Y-91474561D02*
X89051741Y-91569800D01*
X89051741Y-91569800D02*
X89194598Y-91617419D01*
X89194598Y-91617419D02*
X89289836Y-91617419D01*
X89289836Y-91617419D02*
X89432693Y-91569800D01*
X89432693Y-91569800D02*
X89480312Y-91522180D01*
X89480312Y-91522180D02*
X89480312Y-91188847D01*
X89480312Y-91188847D02*
X89289836Y-91188847D01*
X89908884Y-91617419D02*
X89908884Y-90617419D01*
X89908884Y-90617419D02*
X90289836Y-90617419D01*
X90289836Y-90617419D02*
X90385074Y-90665038D01*
X90385074Y-90665038D02*
X90432693Y-90712657D01*
X90432693Y-90712657D02*
X90480312Y-90807895D01*
X90480312Y-90807895D02*
X90480312Y-90950752D01*
X90480312Y-90950752D02*
X90432693Y-91045990D01*
X90432693Y-91045990D02*
X90385074Y-91093609D01*
X90385074Y-91093609D02*
X90289836Y-91141228D01*
X90289836Y-91141228D02*
X89908884Y-91141228D01*
X90908884Y-91617419D02*
X90908884Y-90617419D01*
X91575550Y-90617419D02*
X91766026Y-90617419D01*
X91766026Y-90617419D02*
X91861264Y-90665038D01*
X91861264Y-90665038D02*
X91956502Y-90760276D01*
X91956502Y-90760276D02*
X92004121Y-90950752D01*
X92004121Y-90950752D02*
X92004121Y-91284085D01*
X92004121Y-91284085D02*
X91956502Y-91474561D01*
X91956502Y-91474561D02*
X91861264Y-91569800D01*
X91861264Y-91569800D02*
X91766026Y-91617419D01*
X91766026Y-91617419D02*
X91575550Y-91617419D01*
X91575550Y-91617419D02*
X91480312Y-91569800D01*
X91480312Y-91569800D02*
X91385074Y-91474561D01*
X91385074Y-91474561D02*
X91337455Y-91284085D01*
X91337455Y-91284085D02*
X91337455Y-90950752D01*
X91337455Y-90950752D02*
X91385074Y-90760276D01*
X91385074Y-90760276D02*
X91480312Y-90665038D01*
X91480312Y-90665038D02*
X91575550Y-90617419D01*
X92385074Y-90712657D02*
X92432693Y-90665038D01*
X92432693Y-90665038D02*
X92527931Y-90617419D01*
X92527931Y-90617419D02*
X92766026Y-90617419D01*
X92766026Y-90617419D02*
X92861264Y-90665038D01*
X92861264Y-90665038D02*
X92908883Y-90712657D01*
X92908883Y-90712657D02*
X92956502Y-90807895D01*
X92956502Y-90807895D02*
X92956502Y-90903133D01*
X92956502Y-90903133D02*
X92908883Y-91045990D01*
X92908883Y-91045990D02*
X92337455Y-91617419D01*
X92337455Y-91617419D02*
X92956502Y-91617419D01*
X81177693Y-77965038D02*
X81082455Y-77917419D01*
X81082455Y-77917419D02*
X80939598Y-77917419D01*
X80939598Y-77917419D02*
X80796741Y-77965038D01*
X80796741Y-77965038D02*
X80701503Y-78060276D01*
X80701503Y-78060276D02*
X80653884Y-78155514D01*
X80653884Y-78155514D02*
X80606265Y-78345990D01*
X80606265Y-78345990D02*
X80606265Y-78488847D01*
X80606265Y-78488847D02*
X80653884Y-78679323D01*
X80653884Y-78679323D02*
X80701503Y-78774561D01*
X80701503Y-78774561D02*
X80796741Y-78869800D01*
X80796741Y-78869800D02*
X80939598Y-78917419D01*
X80939598Y-78917419D02*
X81034836Y-78917419D01*
X81034836Y-78917419D02*
X81177693Y-78869800D01*
X81177693Y-78869800D02*
X81225312Y-78822180D01*
X81225312Y-78822180D02*
X81225312Y-78488847D01*
X81225312Y-78488847D02*
X81034836Y-78488847D01*
X81653884Y-78917419D02*
X81653884Y-77917419D01*
X81653884Y-77917419D02*
X82034836Y-77917419D01*
X82034836Y-77917419D02*
X82130074Y-77965038D01*
X82130074Y-77965038D02*
X82177693Y-78012657D01*
X82177693Y-78012657D02*
X82225312Y-78107895D01*
X82225312Y-78107895D02*
X82225312Y-78250752D01*
X82225312Y-78250752D02*
X82177693Y-78345990D01*
X82177693Y-78345990D02*
X82130074Y-78393609D01*
X82130074Y-78393609D02*
X82034836Y-78441228D01*
X82034836Y-78441228D02*
X81653884Y-78441228D01*
X82653884Y-78917419D02*
X82653884Y-77917419D01*
X83320550Y-77917419D02*
X83511026Y-77917419D01*
X83511026Y-77917419D02*
X83606264Y-77965038D01*
X83606264Y-77965038D02*
X83701502Y-78060276D01*
X83701502Y-78060276D02*
X83749121Y-78250752D01*
X83749121Y-78250752D02*
X83749121Y-78584085D01*
X83749121Y-78584085D02*
X83701502Y-78774561D01*
X83701502Y-78774561D02*
X83606264Y-78869800D01*
X83606264Y-78869800D02*
X83511026Y-78917419D01*
X83511026Y-78917419D02*
X83320550Y-78917419D01*
X83320550Y-78917419D02*
X83225312Y-78869800D01*
X83225312Y-78869800D02*
X83130074Y-78774561D01*
X83130074Y-78774561D02*
X83082455Y-78584085D01*
X83082455Y-78584085D02*
X83082455Y-78250752D01*
X83082455Y-78250752D02*
X83130074Y-78060276D01*
X83130074Y-78060276D02*
X83225312Y-77965038D01*
X83225312Y-77965038D02*
X83320550Y-77917419D01*
X84653883Y-77917419D02*
X84177693Y-77917419D01*
X84177693Y-77917419D02*
X84130074Y-78393609D01*
X84130074Y-78393609D02*
X84177693Y-78345990D01*
X84177693Y-78345990D02*
X84272931Y-78298371D01*
X84272931Y-78298371D02*
X84511026Y-78298371D01*
X84511026Y-78298371D02*
X84606264Y-78345990D01*
X84606264Y-78345990D02*
X84653883Y-78393609D01*
X84653883Y-78393609D02*
X84701502Y-78488847D01*
X84701502Y-78488847D02*
X84701502Y-78726942D01*
X84701502Y-78726942D02*
X84653883Y-78822180D01*
X84653883Y-78822180D02*
X84606264Y-78869800D01*
X84606264Y-78869800D02*
X84511026Y-78917419D01*
X84511026Y-78917419D02*
X84272931Y-78917419D01*
X84272931Y-78917419D02*
X84177693Y-78869800D01*
X84177693Y-78869800D02*
X84130074Y-78822180D01*
X81177693Y-95745038D02*
X81082455Y-95697419D01*
X81082455Y-95697419D02*
X80939598Y-95697419D01*
X80939598Y-95697419D02*
X80796741Y-95745038D01*
X80796741Y-95745038D02*
X80701503Y-95840276D01*
X80701503Y-95840276D02*
X80653884Y-95935514D01*
X80653884Y-95935514D02*
X80606265Y-96125990D01*
X80606265Y-96125990D02*
X80606265Y-96268847D01*
X80606265Y-96268847D02*
X80653884Y-96459323D01*
X80653884Y-96459323D02*
X80701503Y-96554561D01*
X80701503Y-96554561D02*
X80796741Y-96649800D01*
X80796741Y-96649800D02*
X80939598Y-96697419D01*
X80939598Y-96697419D02*
X81034836Y-96697419D01*
X81034836Y-96697419D02*
X81177693Y-96649800D01*
X81177693Y-96649800D02*
X81225312Y-96602180D01*
X81225312Y-96602180D02*
X81225312Y-96268847D01*
X81225312Y-96268847D02*
X81034836Y-96268847D01*
X81653884Y-96697419D02*
X81653884Y-95697419D01*
X81653884Y-95697419D02*
X82034836Y-95697419D01*
X82034836Y-95697419D02*
X82130074Y-95745038D01*
X82130074Y-95745038D02*
X82177693Y-95792657D01*
X82177693Y-95792657D02*
X82225312Y-95887895D01*
X82225312Y-95887895D02*
X82225312Y-96030752D01*
X82225312Y-96030752D02*
X82177693Y-96125990D01*
X82177693Y-96125990D02*
X82130074Y-96173609D01*
X82130074Y-96173609D02*
X82034836Y-96221228D01*
X82034836Y-96221228D02*
X81653884Y-96221228D01*
X82653884Y-96697419D02*
X82653884Y-95697419D01*
X83320550Y-95697419D02*
X83511026Y-95697419D01*
X83511026Y-95697419D02*
X83606264Y-95745038D01*
X83606264Y-95745038D02*
X83701502Y-95840276D01*
X83701502Y-95840276D02*
X83749121Y-96030752D01*
X83749121Y-96030752D02*
X83749121Y-96364085D01*
X83749121Y-96364085D02*
X83701502Y-96554561D01*
X83701502Y-96554561D02*
X83606264Y-96649800D01*
X83606264Y-96649800D02*
X83511026Y-96697419D01*
X83511026Y-96697419D02*
X83320550Y-96697419D01*
X83320550Y-96697419D02*
X83225312Y-96649800D01*
X83225312Y-96649800D02*
X83130074Y-96554561D01*
X83130074Y-96554561D02*
X83082455Y-96364085D01*
X83082455Y-96364085D02*
X83082455Y-96030752D01*
X83082455Y-96030752D02*
X83130074Y-95840276D01*
X83130074Y-95840276D02*
X83225312Y-95745038D01*
X83225312Y-95745038D02*
X83320550Y-95697419D01*
X84130074Y-95792657D02*
X84177693Y-95745038D01*
X84177693Y-95745038D02*
X84272931Y-95697419D01*
X84272931Y-95697419D02*
X84511026Y-95697419D01*
X84511026Y-95697419D02*
X84606264Y-95745038D01*
X84606264Y-95745038D02*
X84653883Y-95792657D01*
X84653883Y-95792657D02*
X84701502Y-95887895D01*
X84701502Y-95887895D02*
X84701502Y-95983133D01*
X84701502Y-95983133D02*
X84653883Y-96125990D01*
X84653883Y-96125990D02*
X84082455Y-96697419D01*
X84082455Y-96697419D02*
X84701502Y-96697419D01*
X85653883Y-96697419D02*
X85082455Y-96697419D01*
X85368169Y-96697419D02*
X85368169Y-95697419D01*
X85368169Y-95697419D02*
X85272931Y-95840276D01*
X85272931Y-95840276D02*
X85177693Y-95935514D01*
X85177693Y-95935514D02*
X85082455Y-95983133D01*
X89432693Y-88125038D02*
X89337455Y-88077419D01*
X89337455Y-88077419D02*
X89194598Y-88077419D01*
X89194598Y-88077419D02*
X89051741Y-88125038D01*
X89051741Y-88125038D02*
X88956503Y-88220276D01*
X88956503Y-88220276D02*
X88908884Y-88315514D01*
X88908884Y-88315514D02*
X88861265Y-88505990D01*
X88861265Y-88505990D02*
X88861265Y-88648847D01*
X88861265Y-88648847D02*
X88908884Y-88839323D01*
X88908884Y-88839323D02*
X88956503Y-88934561D01*
X88956503Y-88934561D02*
X89051741Y-89029800D01*
X89051741Y-89029800D02*
X89194598Y-89077419D01*
X89194598Y-89077419D02*
X89289836Y-89077419D01*
X89289836Y-89077419D02*
X89432693Y-89029800D01*
X89432693Y-89029800D02*
X89480312Y-88982180D01*
X89480312Y-88982180D02*
X89480312Y-88648847D01*
X89480312Y-88648847D02*
X89289836Y-88648847D01*
X89908884Y-89077419D02*
X89908884Y-88077419D01*
X89908884Y-88077419D02*
X90289836Y-88077419D01*
X90289836Y-88077419D02*
X90385074Y-88125038D01*
X90385074Y-88125038D02*
X90432693Y-88172657D01*
X90432693Y-88172657D02*
X90480312Y-88267895D01*
X90480312Y-88267895D02*
X90480312Y-88410752D01*
X90480312Y-88410752D02*
X90432693Y-88505990D01*
X90432693Y-88505990D02*
X90385074Y-88553609D01*
X90385074Y-88553609D02*
X90289836Y-88601228D01*
X90289836Y-88601228D02*
X89908884Y-88601228D01*
X90908884Y-89077419D02*
X90908884Y-88077419D01*
X91575550Y-88077419D02*
X91766026Y-88077419D01*
X91766026Y-88077419D02*
X91861264Y-88125038D01*
X91861264Y-88125038D02*
X91956502Y-88220276D01*
X91956502Y-88220276D02*
X92004121Y-88410752D01*
X92004121Y-88410752D02*
X92004121Y-88744085D01*
X92004121Y-88744085D02*
X91956502Y-88934561D01*
X91956502Y-88934561D02*
X91861264Y-89029800D01*
X91861264Y-89029800D02*
X91766026Y-89077419D01*
X91766026Y-89077419D02*
X91575550Y-89077419D01*
X91575550Y-89077419D02*
X91480312Y-89029800D01*
X91480312Y-89029800D02*
X91385074Y-88934561D01*
X91385074Y-88934561D02*
X91337455Y-88744085D01*
X91337455Y-88744085D02*
X91337455Y-88410752D01*
X91337455Y-88410752D02*
X91385074Y-88220276D01*
X91385074Y-88220276D02*
X91480312Y-88125038D01*
X91480312Y-88125038D02*
X91575550Y-88077419D01*
X92337455Y-88077419D02*
X92956502Y-88077419D01*
X92956502Y-88077419D02*
X92623169Y-88458371D01*
X92623169Y-88458371D02*
X92766026Y-88458371D01*
X92766026Y-88458371D02*
X92861264Y-88505990D01*
X92861264Y-88505990D02*
X92908883Y-88553609D01*
X92908883Y-88553609D02*
X92956502Y-88648847D01*
X92956502Y-88648847D02*
X92956502Y-88886942D01*
X92956502Y-88886942D02*
X92908883Y-88982180D01*
X92908883Y-88982180D02*
X92861264Y-89029800D01*
X92861264Y-89029800D02*
X92766026Y-89077419D01*
X92766026Y-89077419D02*
X92480312Y-89077419D01*
X92480312Y-89077419D02*
X92385074Y-89029800D01*
X92385074Y-89029800D02*
X92337455Y-88982180D01*
X81177693Y-80505038D02*
X81082455Y-80457419D01*
X81082455Y-80457419D02*
X80939598Y-80457419D01*
X80939598Y-80457419D02*
X80796741Y-80505038D01*
X80796741Y-80505038D02*
X80701503Y-80600276D01*
X80701503Y-80600276D02*
X80653884Y-80695514D01*
X80653884Y-80695514D02*
X80606265Y-80885990D01*
X80606265Y-80885990D02*
X80606265Y-81028847D01*
X80606265Y-81028847D02*
X80653884Y-81219323D01*
X80653884Y-81219323D02*
X80701503Y-81314561D01*
X80701503Y-81314561D02*
X80796741Y-81409800D01*
X80796741Y-81409800D02*
X80939598Y-81457419D01*
X80939598Y-81457419D02*
X81034836Y-81457419D01*
X81034836Y-81457419D02*
X81177693Y-81409800D01*
X81177693Y-81409800D02*
X81225312Y-81362180D01*
X81225312Y-81362180D02*
X81225312Y-81028847D01*
X81225312Y-81028847D02*
X81034836Y-81028847D01*
X81653884Y-81457419D02*
X81653884Y-80457419D01*
X81653884Y-80457419D02*
X82034836Y-80457419D01*
X82034836Y-80457419D02*
X82130074Y-80505038D01*
X82130074Y-80505038D02*
X82177693Y-80552657D01*
X82177693Y-80552657D02*
X82225312Y-80647895D01*
X82225312Y-80647895D02*
X82225312Y-80790752D01*
X82225312Y-80790752D02*
X82177693Y-80885990D01*
X82177693Y-80885990D02*
X82130074Y-80933609D01*
X82130074Y-80933609D02*
X82034836Y-80981228D01*
X82034836Y-80981228D02*
X81653884Y-80981228D01*
X82653884Y-81457419D02*
X82653884Y-80457419D01*
X83320550Y-80457419D02*
X83511026Y-80457419D01*
X83511026Y-80457419D02*
X83606264Y-80505038D01*
X83606264Y-80505038D02*
X83701502Y-80600276D01*
X83701502Y-80600276D02*
X83749121Y-80790752D01*
X83749121Y-80790752D02*
X83749121Y-81124085D01*
X83749121Y-81124085D02*
X83701502Y-81314561D01*
X83701502Y-81314561D02*
X83606264Y-81409800D01*
X83606264Y-81409800D02*
X83511026Y-81457419D01*
X83511026Y-81457419D02*
X83320550Y-81457419D01*
X83320550Y-81457419D02*
X83225312Y-81409800D01*
X83225312Y-81409800D02*
X83130074Y-81314561D01*
X83130074Y-81314561D02*
X83082455Y-81124085D01*
X83082455Y-81124085D02*
X83082455Y-80790752D01*
X83082455Y-80790752D02*
X83130074Y-80600276D01*
X83130074Y-80600276D02*
X83225312Y-80505038D01*
X83225312Y-80505038D02*
X83320550Y-80457419D01*
X84606264Y-80457419D02*
X84415788Y-80457419D01*
X84415788Y-80457419D02*
X84320550Y-80505038D01*
X84320550Y-80505038D02*
X84272931Y-80552657D01*
X84272931Y-80552657D02*
X84177693Y-80695514D01*
X84177693Y-80695514D02*
X84130074Y-80885990D01*
X84130074Y-80885990D02*
X84130074Y-81266942D01*
X84130074Y-81266942D02*
X84177693Y-81362180D01*
X84177693Y-81362180D02*
X84225312Y-81409800D01*
X84225312Y-81409800D02*
X84320550Y-81457419D01*
X84320550Y-81457419D02*
X84511026Y-81457419D01*
X84511026Y-81457419D02*
X84606264Y-81409800D01*
X84606264Y-81409800D02*
X84653883Y-81362180D01*
X84653883Y-81362180D02*
X84701502Y-81266942D01*
X84701502Y-81266942D02*
X84701502Y-81028847D01*
X84701502Y-81028847D02*
X84653883Y-80933609D01*
X84653883Y-80933609D02*
X84606264Y-80885990D01*
X84606264Y-80885990D02*
X84511026Y-80838371D01*
X84511026Y-80838371D02*
X84320550Y-80838371D01*
X84320550Y-80838371D02*
X84225312Y-80885990D01*
X84225312Y-80885990D02*
X84177693Y-80933609D01*
X84177693Y-80933609D02*
X84130074Y-81028847D01*
X89432693Y-95745038D02*
X89337455Y-95697419D01*
X89337455Y-95697419D02*
X89194598Y-95697419D01*
X89194598Y-95697419D02*
X89051741Y-95745038D01*
X89051741Y-95745038D02*
X88956503Y-95840276D01*
X88956503Y-95840276D02*
X88908884Y-95935514D01*
X88908884Y-95935514D02*
X88861265Y-96125990D01*
X88861265Y-96125990D02*
X88861265Y-96268847D01*
X88861265Y-96268847D02*
X88908884Y-96459323D01*
X88908884Y-96459323D02*
X88956503Y-96554561D01*
X88956503Y-96554561D02*
X89051741Y-96649800D01*
X89051741Y-96649800D02*
X89194598Y-96697419D01*
X89194598Y-96697419D02*
X89289836Y-96697419D01*
X89289836Y-96697419D02*
X89432693Y-96649800D01*
X89432693Y-96649800D02*
X89480312Y-96602180D01*
X89480312Y-96602180D02*
X89480312Y-96268847D01*
X89480312Y-96268847D02*
X89289836Y-96268847D01*
X89908884Y-96697419D02*
X89908884Y-95697419D01*
X89908884Y-95697419D02*
X90289836Y-95697419D01*
X90289836Y-95697419D02*
X90385074Y-95745038D01*
X90385074Y-95745038D02*
X90432693Y-95792657D01*
X90432693Y-95792657D02*
X90480312Y-95887895D01*
X90480312Y-95887895D02*
X90480312Y-96030752D01*
X90480312Y-96030752D02*
X90432693Y-96125990D01*
X90432693Y-96125990D02*
X90385074Y-96173609D01*
X90385074Y-96173609D02*
X90289836Y-96221228D01*
X90289836Y-96221228D02*
X89908884Y-96221228D01*
X90908884Y-96697419D02*
X90908884Y-95697419D01*
X91575550Y-95697419D02*
X91766026Y-95697419D01*
X91766026Y-95697419D02*
X91861264Y-95745038D01*
X91861264Y-95745038D02*
X91956502Y-95840276D01*
X91956502Y-95840276D02*
X92004121Y-96030752D01*
X92004121Y-96030752D02*
X92004121Y-96364085D01*
X92004121Y-96364085D02*
X91956502Y-96554561D01*
X91956502Y-96554561D02*
X91861264Y-96649800D01*
X91861264Y-96649800D02*
X91766026Y-96697419D01*
X91766026Y-96697419D02*
X91575550Y-96697419D01*
X91575550Y-96697419D02*
X91480312Y-96649800D01*
X91480312Y-96649800D02*
X91385074Y-96554561D01*
X91385074Y-96554561D02*
X91337455Y-96364085D01*
X91337455Y-96364085D02*
X91337455Y-96030752D01*
X91337455Y-96030752D02*
X91385074Y-95840276D01*
X91385074Y-95840276D02*
X91480312Y-95745038D01*
X91480312Y-95745038D02*
X91575550Y-95697419D01*
X92623169Y-95697419D02*
X92718407Y-95697419D01*
X92718407Y-95697419D02*
X92813645Y-95745038D01*
X92813645Y-95745038D02*
X92861264Y-95792657D01*
X92861264Y-95792657D02*
X92908883Y-95887895D01*
X92908883Y-95887895D02*
X92956502Y-96078371D01*
X92956502Y-96078371D02*
X92956502Y-96316466D01*
X92956502Y-96316466D02*
X92908883Y-96506942D01*
X92908883Y-96506942D02*
X92861264Y-96602180D01*
X92861264Y-96602180D02*
X92813645Y-96649800D01*
X92813645Y-96649800D02*
X92718407Y-96697419D01*
X92718407Y-96697419D02*
X92623169Y-96697419D01*
X92623169Y-96697419D02*
X92527931Y-96649800D01*
X92527931Y-96649800D02*
X92480312Y-96602180D01*
X92480312Y-96602180D02*
X92432693Y-96506942D01*
X92432693Y-96506942D02*
X92385074Y-96316466D01*
X92385074Y-96316466D02*
X92385074Y-96078371D01*
X92385074Y-96078371D02*
X92432693Y-95887895D01*
X92432693Y-95887895D02*
X92480312Y-95792657D01*
X92480312Y-95792657D02*
X92527931Y-95745038D01*
X92527931Y-95745038D02*
X92623169Y-95697419D01*
X91780074Y-77872419D02*
X91303884Y-77872419D01*
X91303884Y-77872419D02*
X91256265Y-78348609D01*
X91256265Y-78348609D02*
X91303884Y-78300990D01*
X91303884Y-78300990D02*
X91399122Y-78253371D01*
X91399122Y-78253371D02*
X91637217Y-78253371D01*
X91637217Y-78253371D02*
X91732455Y-78300990D01*
X91732455Y-78300990D02*
X91780074Y-78348609D01*
X91780074Y-78348609D02*
X91827693Y-78443847D01*
X91827693Y-78443847D02*
X91827693Y-78681942D01*
X91827693Y-78681942D02*
X91780074Y-78777180D01*
X91780074Y-78777180D02*
X91732455Y-78824800D01*
X91732455Y-78824800D02*
X91637217Y-78872419D01*
X91637217Y-78872419D02*
X91399122Y-78872419D01*
X91399122Y-78872419D02*
X91303884Y-78824800D01*
X91303884Y-78824800D02*
X91256265Y-78777180D01*
X92113408Y-77872419D02*
X92446741Y-78872419D01*
X92446741Y-78872419D02*
X92780074Y-77872419D01*
X81177693Y-83045038D02*
X81082455Y-82997419D01*
X81082455Y-82997419D02*
X80939598Y-82997419D01*
X80939598Y-82997419D02*
X80796741Y-83045038D01*
X80796741Y-83045038D02*
X80701503Y-83140276D01*
X80701503Y-83140276D02*
X80653884Y-83235514D01*
X80653884Y-83235514D02*
X80606265Y-83425990D01*
X80606265Y-83425990D02*
X80606265Y-83568847D01*
X80606265Y-83568847D02*
X80653884Y-83759323D01*
X80653884Y-83759323D02*
X80701503Y-83854561D01*
X80701503Y-83854561D02*
X80796741Y-83949800D01*
X80796741Y-83949800D02*
X80939598Y-83997419D01*
X80939598Y-83997419D02*
X81034836Y-83997419D01*
X81034836Y-83997419D02*
X81177693Y-83949800D01*
X81177693Y-83949800D02*
X81225312Y-83902180D01*
X81225312Y-83902180D02*
X81225312Y-83568847D01*
X81225312Y-83568847D02*
X81034836Y-83568847D01*
X81653884Y-83997419D02*
X81653884Y-82997419D01*
X81653884Y-82997419D02*
X82034836Y-82997419D01*
X82034836Y-82997419D02*
X82130074Y-83045038D01*
X82130074Y-83045038D02*
X82177693Y-83092657D01*
X82177693Y-83092657D02*
X82225312Y-83187895D01*
X82225312Y-83187895D02*
X82225312Y-83330752D01*
X82225312Y-83330752D02*
X82177693Y-83425990D01*
X82177693Y-83425990D02*
X82130074Y-83473609D01*
X82130074Y-83473609D02*
X82034836Y-83521228D01*
X82034836Y-83521228D02*
X81653884Y-83521228D01*
X82653884Y-83997419D02*
X82653884Y-82997419D01*
X83320550Y-82997419D02*
X83511026Y-82997419D01*
X83511026Y-82997419D02*
X83606264Y-83045038D01*
X83606264Y-83045038D02*
X83701502Y-83140276D01*
X83701502Y-83140276D02*
X83749121Y-83330752D01*
X83749121Y-83330752D02*
X83749121Y-83664085D01*
X83749121Y-83664085D02*
X83701502Y-83854561D01*
X83701502Y-83854561D02*
X83606264Y-83949800D01*
X83606264Y-83949800D02*
X83511026Y-83997419D01*
X83511026Y-83997419D02*
X83320550Y-83997419D01*
X83320550Y-83997419D02*
X83225312Y-83949800D01*
X83225312Y-83949800D02*
X83130074Y-83854561D01*
X83130074Y-83854561D02*
X83082455Y-83664085D01*
X83082455Y-83664085D02*
X83082455Y-83330752D01*
X83082455Y-83330752D02*
X83130074Y-83140276D01*
X83130074Y-83140276D02*
X83225312Y-83045038D01*
X83225312Y-83045038D02*
X83320550Y-82997419D01*
X84082455Y-82997419D02*
X84749121Y-82997419D01*
X84749121Y-82997419D02*
X84320550Y-83997419D01*
X81177693Y-90665038D02*
X81082455Y-90617419D01*
X81082455Y-90617419D02*
X80939598Y-90617419D01*
X80939598Y-90617419D02*
X80796741Y-90665038D01*
X80796741Y-90665038D02*
X80701503Y-90760276D01*
X80701503Y-90760276D02*
X80653884Y-90855514D01*
X80653884Y-90855514D02*
X80606265Y-91045990D01*
X80606265Y-91045990D02*
X80606265Y-91188847D01*
X80606265Y-91188847D02*
X80653884Y-91379323D01*
X80653884Y-91379323D02*
X80701503Y-91474561D01*
X80701503Y-91474561D02*
X80796741Y-91569800D01*
X80796741Y-91569800D02*
X80939598Y-91617419D01*
X80939598Y-91617419D02*
X81034836Y-91617419D01*
X81034836Y-91617419D02*
X81177693Y-91569800D01*
X81177693Y-91569800D02*
X81225312Y-91522180D01*
X81225312Y-91522180D02*
X81225312Y-91188847D01*
X81225312Y-91188847D02*
X81034836Y-91188847D01*
X81653884Y-91617419D02*
X81653884Y-90617419D01*
X81653884Y-90617419D02*
X82034836Y-90617419D01*
X82034836Y-90617419D02*
X82130074Y-90665038D01*
X82130074Y-90665038D02*
X82177693Y-90712657D01*
X82177693Y-90712657D02*
X82225312Y-90807895D01*
X82225312Y-90807895D02*
X82225312Y-90950752D01*
X82225312Y-90950752D02*
X82177693Y-91045990D01*
X82177693Y-91045990D02*
X82130074Y-91093609D01*
X82130074Y-91093609D02*
X82034836Y-91141228D01*
X82034836Y-91141228D02*
X81653884Y-91141228D01*
X82653884Y-91617419D02*
X82653884Y-90617419D01*
X83320550Y-90617419D02*
X83511026Y-90617419D01*
X83511026Y-90617419D02*
X83606264Y-90665038D01*
X83606264Y-90665038D02*
X83701502Y-90760276D01*
X83701502Y-90760276D02*
X83749121Y-90950752D01*
X83749121Y-90950752D02*
X83749121Y-91284085D01*
X83749121Y-91284085D02*
X83701502Y-91474561D01*
X83701502Y-91474561D02*
X83606264Y-91569800D01*
X83606264Y-91569800D02*
X83511026Y-91617419D01*
X83511026Y-91617419D02*
X83320550Y-91617419D01*
X83320550Y-91617419D02*
X83225312Y-91569800D01*
X83225312Y-91569800D02*
X83130074Y-91474561D01*
X83130074Y-91474561D02*
X83082455Y-91284085D01*
X83082455Y-91284085D02*
X83082455Y-90950752D01*
X83082455Y-90950752D02*
X83130074Y-90760276D01*
X83130074Y-90760276D02*
X83225312Y-90665038D01*
X83225312Y-90665038D02*
X83320550Y-90617419D01*
X84701502Y-91617419D02*
X84130074Y-91617419D01*
X84415788Y-91617419D02*
X84415788Y-90617419D01*
X84415788Y-90617419D02*
X84320550Y-90760276D01*
X84320550Y-90760276D02*
X84225312Y-90855514D01*
X84225312Y-90855514D02*
X84130074Y-90903133D01*
X85320550Y-90617419D02*
X85415788Y-90617419D01*
X85415788Y-90617419D02*
X85511026Y-90665038D01*
X85511026Y-90665038D02*
X85558645Y-90712657D01*
X85558645Y-90712657D02*
X85606264Y-90807895D01*
X85606264Y-90807895D02*
X85653883Y-90998371D01*
X85653883Y-90998371D02*
X85653883Y-91236466D01*
X85653883Y-91236466D02*
X85606264Y-91426942D01*
X85606264Y-91426942D02*
X85558645Y-91522180D01*
X85558645Y-91522180D02*
X85511026Y-91569800D01*
X85511026Y-91569800D02*
X85415788Y-91617419D01*
X85415788Y-91617419D02*
X85320550Y-91617419D01*
X85320550Y-91617419D02*
X85225312Y-91569800D01*
X85225312Y-91569800D02*
X85177693Y-91522180D01*
X85177693Y-91522180D02*
X85130074Y-91426942D01*
X85130074Y-91426942D02*
X85082455Y-91236466D01*
X85082455Y-91236466D02*
X85082455Y-90998371D01*
X85082455Y-90998371D02*
X85130074Y-90807895D01*
X85130074Y-90807895D02*
X85177693Y-90712657D01*
X85177693Y-90712657D02*
X85225312Y-90665038D01*
X85225312Y-90665038D02*
X85320550Y-90617419D01*
X81177693Y-85585038D02*
X81082455Y-85537419D01*
X81082455Y-85537419D02*
X80939598Y-85537419D01*
X80939598Y-85537419D02*
X80796741Y-85585038D01*
X80796741Y-85585038D02*
X80701503Y-85680276D01*
X80701503Y-85680276D02*
X80653884Y-85775514D01*
X80653884Y-85775514D02*
X80606265Y-85965990D01*
X80606265Y-85965990D02*
X80606265Y-86108847D01*
X80606265Y-86108847D02*
X80653884Y-86299323D01*
X80653884Y-86299323D02*
X80701503Y-86394561D01*
X80701503Y-86394561D02*
X80796741Y-86489800D01*
X80796741Y-86489800D02*
X80939598Y-86537419D01*
X80939598Y-86537419D02*
X81034836Y-86537419D01*
X81034836Y-86537419D02*
X81177693Y-86489800D01*
X81177693Y-86489800D02*
X81225312Y-86442180D01*
X81225312Y-86442180D02*
X81225312Y-86108847D01*
X81225312Y-86108847D02*
X81034836Y-86108847D01*
X81653884Y-86537419D02*
X81653884Y-85537419D01*
X81653884Y-85537419D02*
X82034836Y-85537419D01*
X82034836Y-85537419D02*
X82130074Y-85585038D01*
X82130074Y-85585038D02*
X82177693Y-85632657D01*
X82177693Y-85632657D02*
X82225312Y-85727895D01*
X82225312Y-85727895D02*
X82225312Y-85870752D01*
X82225312Y-85870752D02*
X82177693Y-85965990D01*
X82177693Y-85965990D02*
X82130074Y-86013609D01*
X82130074Y-86013609D02*
X82034836Y-86061228D01*
X82034836Y-86061228D02*
X81653884Y-86061228D01*
X82653884Y-86537419D02*
X82653884Y-85537419D01*
X83320550Y-85537419D02*
X83511026Y-85537419D01*
X83511026Y-85537419D02*
X83606264Y-85585038D01*
X83606264Y-85585038D02*
X83701502Y-85680276D01*
X83701502Y-85680276D02*
X83749121Y-85870752D01*
X83749121Y-85870752D02*
X83749121Y-86204085D01*
X83749121Y-86204085D02*
X83701502Y-86394561D01*
X83701502Y-86394561D02*
X83606264Y-86489800D01*
X83606264Y-86489800D02*
X83511026Y-86537419D01*
X83511026Y-86537419D02*
X83320550Y-86537419D01*
X83320550Y-86537419D02*
X83225312Y-86489800D01*
X83225312Y-86489800D02*
X83130074Y-86394561D01*
X83130074Y-86394561D02*
X83082455Y-86204085D01*
X83082455Y-86204085D02*
X83082455Y-85870752D01*
X83082455Y-85870752D02*
X83130074Y-85680276D01*
X83130074Y-85680276D02*
X83225312Y-85585038D01*
X83225312Y-85585038D02*
X83320550Y-85537419D01*
X84320550Y-85965990D02*
X84225312Y-85918371D01*
X84225312Y-85918371D02*
X84177693Y-85870752D01*
X84177693Y-85870752D02*
X84130074Y-85775514D01*
X84130074Y-85775514D02*
X84130074Y-85727895D01*
X84130074Y-85727895D02*
X84177693Y-85632657D01*
X84177693Y-85632657D02*
X84225312Y-85585038D01*
X84225312Y-85585038D02*
X84320550Y-85537419D01*
X84320550Y-85537419D02*
X84511026Y-85537419D01*
X84511026Y-85537419D02*
X84606264Y-85585038D01*
X84606264Y-85585038D02*
X84653883Y-85632657D01*
X84653883Y-85632657D02*
X84701502Y-85727895D01*
X84701502Y-85727895D02*
X84701502Y-85775514D01*
X84701502Y-85775514D02*
X84653883Y-85870752D01*
X84653883Y-85870752D02*
X84606264Y-85918371D01*
X84606264Y-85918371D02*
X84511026Y-85965990D01*
X84511026Y-85965990D02*
X84320550Y-85965990D01*
X84320550Y-85965990D02*
X84225312Y-86013609D01*
X84225312Y-86013609D02*
X84177693Y-86061228D01*
X84177693Y-86061228D02*
X84130074Y-86156466D01*
X84130074Y-86156466D02*
X84130074Y-86346942D01*
X84130074Y-86346942D02*
X84177693Y-86442180D01*
X84177693Y-86442180D02*
X84225312Y-86489800D01*
X84225312Y-86489800D02*
X84320550Y-86537419D01*
X84320550Y-86537419D02*
X84511026Y-86537419D01*
X84511026Y-86537419D02*
X84606264Y-86489800D01*
X84606264Y-86489800D02*
X84653883Y-86442180D01*
X84653883Y-86442180D02*
X84701502Y-86346942D01*
X84701502Y-86346942D02*
X84701502Y-86156466D01*
X84701502Y-86156466D02*
X84653883Y-86061228D01*
X84653883Y-86061228D02*
X84606264Y-86013609D01*
X84606264Y-86013609D02*
X84511026Y-85965990D01*
X90702693Y-80505038D02*
X90607455Y-80457419D01*
X90607455Y-80457419D02*
X90464598Y-80457419D01*
X90464598Y-80457419D02*
X90321741Y-80505038D01*
X90321741Y-80505038D02*
X90226503Y-80600276D01*
X90226503Y-80600276D02*
X90178884Y-80695514D01*
X90178884Y-80695514D02*
X90131265Y-80885990D01*
X90131265Y-80885990D02*
X90131265Y-81028847D01*
X90131265Y-81028847D02*
X90178884Y-81219323D01*
X90178884Y-81219323D02*
X90226503Y-81314561D01*
X90226503Y-81314561D02*
X90321741Y-81409800D01*
X90321741Y-81409800D02*
X90464598Y-81457419D01*
X90464598Y-81457419D02*
X90559836Y-81457419D01*
X90559836Y-81457419D02*
X90702693Y-81409800D01*
X90702693Y-81409800D02*
X90750312Y-81362180D01*
X90750312Y-81362180D02*
X90750312Y-81028847D01*
X90750312Y-81028847D02*
X90559836Y-81028847D01*
X91178884Y-81457419D02*
X91178884Y-80457419D01*
X91178884Y-80457419D02*
X91750312Y-81457419D01*
X91750312Y-81457419D02*
X91750312Y-80457419D01*
X92226503Y-81457419D02*
X92226503Y-80457419D01*
X92226503Y-80457419D02*
X92464598Y-80457419D01*
X92464598Y-80457419D02*
X92607455Y-80505038D01*
X92607455Y-80505038D02*
X92702693Y-80600276D01*
X92702693Y-80600276D02*
X92750312Y-80695514D01*
X92750312Y-80695514D02*
X92797931Y-80885990D01*
X92797931Y-80885990D02*
X92797931Y-81028847D01*
X92797931Y-81028847D02*
X92750312Y-81219323D01*
X92750312Y-81219323D02*
X92702693Y-81314561D01*
X92702693Y-81314561D02*
X92607455Y-81409800D01*
X92607455Y-81409800D02*
X92464598Y-81457419D01*
X92464598Y-81457419D02*
X92226503Y-81457419D01*
X90083646Y-82997419D02*
X90702693Y-82997419D01*
X90702693Y-82997419D02*
X90369360Y-83378371D01*
X90369360Y-83378371D02*
X90512217Y-83378371D01*
X90512217Y-83378371D02*
X90607455Y-83425990D01*
X90607455Y-83425990D02*
X90655074Y-83473609D01*
X90655074Y-83473609D02*
X90702693Y-83568847D01*
X90702693Y-83568847D02*
X90702693Y-83806942D01*
X90702693Y-83806942D02*
X90655074Y-83902180D01*
X90655074Y-83902180D02*
X90607455Y-83949800D01*
X90607455Y-83949800D02*
X90512217Y-83997419D01*
X90512217Y-83997419D02*
X90226503Y-83997419D01*
X90226503Y-83997419D02*
X90131265Y-83949800D01*
X90131265Y-83949800D02*
X90083646Y-83902180D01*
X91131265Y-83902180D02*
X91178884Y-83949800D01*
X91178884Y-83949800D02*
X91131265Y-83997419D01*
X91131265Y-83997419D02*
X91083646Y-83949800D01*
X91083646Y-83949800D02*
X91131265Y-83902180D01*
X91131265Y-83902180D02*
X91131265Y-83997419D01*
X91512217Y-82997419D02*
X92131264Y-82997419D01*
X92131264Y-82997419D02*
X91797931Y-83378371D01*
X91797931Y-83378371D02*
X91940788Y-83378371D01*
X91940788Y-83378371D02*
X92036026Y-83425990D01*
X92036026Y-83425990D02*
X92083645Y-83473609D01*
X92083645Y-83473609D02*
X92131264Y-83568847D01*
X92131264Y-83568847D02*
X92131264Y-83806942D01*
X92131264Y-83806942D02*
X92083645Y-83902180D01*
X92083645Y-83902180D02*
X92036026Y-83949800D01*
X92036026Y-83949800D02*
X91940788Y-83997419D01*
X91940788Y-83997419D02*
X91655074Y-83997419D01*
X91655074Y-83997419D02*
X91559836Y-83949800D01*
X91559836Y-83949800D02*
X91512217Y-83902180D01*
X92416979Y-82997419D02*
X92750312Y-83997419D01*
X92750312Y-83997419D02*
X93083645Y-82997419D01*
D10*
X102885714Y-92824819D02*
X102885714Y-93539104D01*
X102885714Y-93539104D02*
X102838095Y-93681961D01*
X102838095Y-93681961D02*
X102742857Y-93777200D01*
X102742857Y-93777200D02*
X102600000Y-93824819D01*
X102600000Y-93824819D02*
X102504762Y-93824819D01*
X103552381Y-92824819D02*
X103742857Y-92824819D01*
X103742857Y-92824819D02*
X103838095Y-92872438D01*
X103838095Y-92872438D02*
X103933333Y-92967676D01*
X103933333Y-92967676D02*
X103980952Y-93158152D01*
X103980952Y-93158152D02*
X103980952Y-93491485D01*
X103980952Y-93491485D02*
X103933333Y-93681961D01*
X103933333Y-93681961D02*
X103838095Y-93777200D01*
X103838095Y-93777200D02*
X103742857Y-93824819D01*
X103742857Y-93824819D02*
X103552381Y-93824819D01*
X103552381Y-93824819D02*
X103457143Y-93777200D01*
X103457143Y-93777200D02*
X103361905Y-93681961D01*
X103361905Y-93681961D02*
X103314286Y-93491485D01*
X103314286Y-93491485D02*
X103314286Y-93158152D01*
X103314286Y-93158152D02*
X103361905Y-92967676D01*
X103361905Y-92967676D02*
X103457143Y-92872438D01*
X103457143Y-92872438D02*
X103552381Y-92824819D01*
X104600000Y-93348628D02*
X104600000Y-93824819D01*
X104266667Y-92824819D02*
X104600000Y-93348628D01*
X104600000Y-93348628D02*
X104933333Y-92824819D01*
X105219048Y-93777200D02*
X105361905Y-93824819D01*
X105361905Y-93824819D02*
X105600000Y-93824819D01*
X105600000Y-93824819D02*
X105695238Y-93777200D01*
X105695238Y-93777200D02*
X105742857Y-93729580D01*
X105742857Y-93729580D02*
X105790476Y-93634342D01*
X105790476Y-93634342D02*
X105790476Y-93539104D01*
X105790476Y-93539104D02*
X105742857Y-93443866D01*
X105742857Y-93443866D02*
X105695238Y-93396247D01*
X105695238Y-93396247D02*
X105600000Y-93348628D01*
X105600000Y-93348628D02*
X105409524Y-93301009D01*
X105409524Y-93301009D02*
X105314286Y-93253390D01*
X105314286Y-93253390D02*
X105266667Y-93205771D01*
X105266667Y-93205771D02*
X105219048Y-93110533D01*
X105219048Y-93110533D02*
X105219048Y-93015295D01*
X105219048Y-93015295D02*
X105266667Y-92920057D01*
X105266667Y-92920057D02*
X105314286Y-92872438D01*
X105314286Y-92872438D02*
X105409524Y-92824819D01*
X105409524Y-92824819D02*
X105647619Y-92824819D01*
X105647619Y-92824819D02*
X105790476Y-92872438D01*
X106076191Y-92824819D02*
X106647619Y-92824819D01*
X106361905Y-93824819D02*
X106361905Y-92824819D01*
X106980953Y-93824819D02*
X106980953Y-92824819D01*
X108028571Y-93729580D02*
X107980952Y-93777200D01*
X107980952Y-93777200D02*
X107838095Y-93824819D01*
X107838095Y-93824819D02*
X107742857Y-93824819D01*
X107742857Y-93824819D02*
X107600000Y-93777200D01*
X107600000Y-93777200D02*
X107504762Y-93681961D01*
X107504762Y-93681961D02*
X107457143Y-93586723D01*
X107457143Y-93586723D02*
X107409524Y-93396247D01*
X107409524Y-93396247D02*
X107409524Y-93253390D01*
X107409524Y-93253390D02*
X107457143Y-93062914D01*
X107457143Y-93062914D02*
X107504762Y-92967676D01*
X107504762Y-92967676D02*
X107600000Y-92872438D01*
X107600000Y-92872438D02*
X107742857Y-92824819D01*
X107742857Y-92824819D02*
X107838095Y-92824819D01*
X107838095Y-92824819D02*
X107980952Y-92872438D01*
X107980952Y-92872438D02*
X108028571Y-92920057D01*
X108457143Y-93824819D02*
X108457143Y-92824819D01*
X109028571Y-93824819D02*
X108600000Y-93253390D01*
X109028571Y-92824819D02*
X108457143Y-93396247D01*
X110361905Y-93253390D02*
X110266667Y-93205771D01*
X110266667Y-93205771D02*
X110219048Y-93158152D01*
X110219048Y-93158152D02*
X110171429Y-93062914D01*
X110171429Y-93062914D02*
X110171429Y-93015295D01*
X110171429Y-93015295D02*
X110219048Y-92920057D01*
X110219048Y-92920057D02*
X110266667Y-92872438D01*
X110266667Y-92872438D02*
X110361905Y-92824819D01*
X110361905Y-92824819D02*
X110552381Y-92824819D01*
X110552381Y-92824819D02*
X110647619Y-92872438D01*
X110647619Y-92872438D02*
X110695238Y-92920057D01*
X110695238Y-92920057D02*
X110742857Y-93015295D01*
X110742857Y-93015295D02*
X110742857Y-93062914D01*
X110742857Y-93062914D02*
X110695238Y-93158152D01*
X110695238Y-93158152D02*
X110647619Y-93205771D01*
X110647619Y-93205771D02*
X110552381Y-93253390D01*
X110552381Y-93253390D02*
X110361905Y-93253390D01*
X110361905Y-93253390D02*
X110266667Y-93301009D01*
X110266667Y-93301009D02*
X110219048Y-93348628D01*
X110219048Y-93348628D02*
X110171429Y-93443866D01*
X110171429Y-93443866D02*
X110171429Y-93634342D01*
X110171429Y-93634342D02*
X110219048Y-93729580D01*
X110219048Y-93729580D02*
X110266667Y-93777200D01*
X110266667Y-93777200D02*
X110361905Y-93824819D01*
X110361905Y-93824819D02*
X110552381Y-93824819D01*
X110552381Y-93824819D02*
X110647619Y-93777200D01*
X110647619Y-93777200D02*
X110695238Y-93729580D01*
X110695238Y-93729580D02*
X110742857Y-93634342D01*
X110742857Y-93634342D02*
X110742857Y-93443866D01*
X110742857Y-93443866D02*
X110695238Y-93348628D01*
X110695238Y-93348628D02*
X110647619Y-93301009D01*
X110647619Y-93301009D02*
X110552381Y-93253390D01*
X111361905Y-92824819D02*
X111457143Y-92824819D01*
X111457143Y-92824819D02*
X111552381Y-92872438D01*
X111552381Y-92872438D02*
X111600000Y-92920057D01*
X111600000Y-92920057D02*
X111647619Y-93015295D01*
X111647619Y-93015295D02*
X111695238Y-93205771D01*
X111695238Y-93205771D02*
X111695238Y-93443866D01*
X111695238Y-93443866D02*
X111647619Y-93634342D01*
X111647619Y-93634342D02*
X111600000Y-93729580D01*
X111600000Y-93729580D02*
X111552381Y-93777200D01*
X111552381Y-93777200D02*
X111457143Y-93824819D01*
X111457143Y-93824819D02*
X111361905Y-93824819D01*
X111361905Y-93824819D02*
X111266667Y-93777200D01*
X111266667Y-93777200D02*
X111219048Y-93729580D01*
X111219048Y-93729580D02*
X111171429Y-93634342D01*
X111171429Y-93634342D02*
X111123810Y-93443866D01*
X111123810Y-93443866D02*
X111123810Y-93205771D01*
X111123810Y-93205771D02*
X111171429Y-93015295D01*
X111171429Y-93015295D02*
X111219048Y-92920057D01*
X111219048Y-92920057D02*
X111266667Y-92872438D01*
X111266667Y-92872438D02*
X111361905Y-92824819D01*
X112076191Y-92920057D02*
X112123810Y-92872438D01*
X112123810Y-92872438D02*
X112219048Y-92824819D01*
X112219048Y-92824819D02*
X112457143Y-92824819D01*
X112457143Y-92824819D02*
X112552381Y-92872438D01*
X112552381Y-92872438D02*
X112600000Y-92920057D01*
X112600000Y-92920057D02*
X112647619Y-93015295D01*
X112647619Y-93015295D02*
X112647619Y-93110533D01*
X112647619Y-93110533D02*
X112600000Y-93253390D01*
X112600000Y-93253390D02*
X112028572Y-93824819D01*
X112028572Y-93824819D02*
X112647619Y-93824819D01*
X101777142Y-80834819D02*
X101205714Y-80834819D01*
X101491428Y-80834819D02*
X101491428Y-79834819D01*
X101491428Y-79834819D02*
X101396190Y-79977676D01*
X101396190Y-79977676D02*
X101300952Y-80072914D01*
X101300952Y-80072914D02*
X101205714Y-80120533D01*
X102205714Y-80834819D02*
X102205714Y-79834819D01*
X102205714Y-79834819D02*
X102777142Y-80834819D01*
X102777142Y-80834819D02*
X102777142Y-79834819D01*
X103729523Y-79834819D02*
X103253333Y-79834819D01*
X103253333Y-79834819D02*
X103205714Y-80311009D01*
X103205714Y-80311009D02*
X103253333Y-80263390D01*
X103253333Y-80263390D02*
X103348571Y-80215771D01*
X103348571Y-80215771D02*
X103586666Y-80215771D01*
X103586666Y-80215771D02*
X103681904Y-80263390D01*
X103681904Y-80263390D02*
X103729523Y-80311009D01*
X103729523Y-80311009D02*
X103777142Y-80406247D01*
X103777142Y-80406247D02*
X103777142Y-80644342D01*
X103777142Y-80644342D02*
X103729523Y-80739580D01*
X103729523Y-80739580D02*
X103681904Y-80787200D01*
X103681904Y-80787200D02*
X103586666Y-80834819D01*
X103586666Y-80834819D02*
X103348571Y-80834819D01*
X103348571Y-80834819D02*
X103253333Y-80787200D01*
X103253333Y-80787200D02*
X103205714Y-80739580D01*
X104348571Y-80263390D02*
X104253333Y-80215771D01*
X104253333Y-80215771D02*
X104205714Y-80168152D01*
X104205714Y-80168152D02*
X104158095Y-80072914D01*
X104158095Y-80072914D02*
X104158095Y-80025295D01*
X104158095Y-80025295D02*
X104205714Y-79930057D01*
X104205714Y-79930057D02*
X104253333Y-79882438D01*
X104253333Y-79882438D02*
X104348571Y-79834819D01*
X104348571Y-79834819D02*
X104539047Y-79834819D01*
X104539047Y-79834819D02*
X104634285Y-79882438D01*
X104634285Y-79882438D02*
X104681904Y-79930057D01*
X104681904Y-79930057D02*
X104729523Y-80025295D01*
X104729523Y-80025295D02*
X104729523Y-80072914D01*
X104729523Y-80072914D02*
X104681904Y-80168152D01*
X104681904Y-80168152D02*
X104634285Y-80215771D01*
X104634285Y-80215771D02*
X104539047Y-80263390D01*
X104539047Y-80263390D02*
X104348571Y-80263390D01*
X104348571Y-80263390D02*
X104253333Y-80311009D01*
X104253333Y-80311009D02*
X104205714Y-80358628D01*
X104205714Y-80358628D02*
X104158095Y-80453866D01*
X104158095Y-80453866D02*
X104158095Y-80644342D01*
X104158095Y-80644342D02*
X104205714Y-80739580D01*
X104205714Y-80739580D02*
X104253333Y-80787200D01*
X104253333Y-80787200D02*
X104348571Y-80834819D01*
X104348571Y-80834819D02*
X104539047Y-80834819D01*
X104539047Y-80834819D02*
X104634285Y-80787200D01*
X104634285Y-80787200D02*
X104681904Y-80739580D01*
X104681904Y-80739580D02*
X104729523Y-80644342D01*
X104729523Y-80644342D02*
X104729523Y-80453866D01*
X104729523Y-80453866D02*
X104681904Y-80358628D01*
X104681904Y-80358628D02*
X104634285Y-80311009D01*
X104634285Y-80311009D02*
X104539047Y-80263390D01*
X105681904Y-80834819D02*
X105110476Y-80834819D01*
X105396190Y-80834819D02*
X105396190Y-79834819D01*
X105396190Y-79834819D02*
X105300952Y-79977676D01*
X105300952Y-79977676D02*
X105205714Y-80072914D01*
X105205714Y-80072914D02*
X105110476Y-80120533D01*
X106253333Y-80263390D02*
X106158095Y-80215771D01*
X106158095Y-80215771D02*
X106110476Y-80168152D01*
X106110476Y-80168152D02*
X106062857Y-80072914D01*
X106062857Y-80072914D02*
X106062857Y-80025295D01*
X106062857Y-80025295D02*
X106110476Y-79930057D01*
X106110476Y-79930057D02*
X106158095Y-79882438D01*
X106158095Y-79882438D02*
X106253333Y-79834819D01*
X106253333Y-79834819D02*
X106443809Y-79834819D01*
X106443809Y-79834819D02*
X106539047Y-79882438D01*
X106539047Y-79882438D02*
X106586666Y-79930057D01*
X106586666Y-79930057D02*
X106634285Y-80025295D01*
X106634285Y-80025295D02*
X106634285Y-80072914D01*
X106634285Y-80072914D02*
X106586666Y-80168152D01*
X106586666Y-80168152D02*
X106539047Y-80215771D01*
X106539047Y-80215771D02*
X106443809Y-80263390D01*
X106443809Y-80263390D02*
X106253333Y-80263390D01*
X106253333Y-80263390D02*
X106158095Y-80311009D01*
X106158095Y-80311009D02*
X106110476Y-80358628D01*
X106110476Y-80358628D02*
X106062857Y-80453866D01*
X106062857Y-80453866D02*
X106062857Y-80644342D01*
X106062857Y-80644342D02*
X106110476Y-80739580D01*
X106110476Y-80739580D02*
X106158095Y-80787200D01*
X106158095Y-80787200D02*
X106253333Y-80834819D01*
X106253333Y-80834819D02*
X106443809Y-80834819D01*
X106443809Y-80834819D02*
X106539047Y-80787200D01*
X106539047Y-80787200D02*
X106586666Y-80739580D01*
X106586666Y-80739580D02*
X106634285Y-80644342D01*
X106634285Y-80644342D02*
X106634285Y-80453866D01*
X106634285Y-80453866D02*
X106586666Y-80358628D01*
X106586666Y-80358628D02*
X106539047Y-80311009D01*
X106539047Y-80311009D02*
X106443809Y-80263390D01*
D11*
%TO.C,D1*%
X84600000Y-101540000D02*
X87300000Y-101540000D01*
X84600000Y-108200000D02*
X84600000Y-101540000D01*
X87300000Y-101540000D02*
X87300000Y-108200000D01*
X87300000Y-108200000D02*
X84650000Y-108200000D01*
%TO.C,D2*%
X77700000Y-101340000D02*
X80400000Y-101340000D01*
X77700000Y-108000000D02*
X77700000Y-101340000D01*
X80400000Y-101340000D02*
X80400000Y-108000000D01*
X80400000Y-108000000D02*
X77750000Y-108000000D01*
%TO.C,SW1*%
D12*
X112028000Y-80132000D02*
X121172000Y-80132000D01*
X121172000Y-76068000D01*
X112028000Y-76068000D01*
X112028000Y-80132000D01*
D11*
%TO.C,RV2*%
X117640000Y-89300000D02*
X117640000Y-84710000D01*
X125160000Y-84710000D02*
X125160000Y-89310000D01*
X125170000Y-84710000D02*
X117650000Y-84710000D01*
X125170212Y-89300000D02*
G75*
G02*
X117629788Y-89300000I-3770212J0D01*
G01*
%TO.C,RV1*%
X117840000Y-100150000D02*
X117840000Y-95560000D01*
X125360000Y-95560000D02*
X125360000Y-100160000D01*
X125370000Y-95560000D02*
X117850000Y-95560000D01*
X125370212Y-100150000D02*
G75*
G02*
X117829788Y-100150000I-3770212J0D01*
G01*
%TO.C,U1*%
X77810000Y-76378000D02*
X95590000Y-76378000D01*
X95590000Y-99238000D01*
X77810000Y-99238000D01*
X77810000Y-76378000D01*
X82255000Y-75108000D02*
X91145000Y-75108000D01*
X91145000Y-76378000D01*
X82255000Y-76378000D01*
X82255000Y-75108000D01*
%TO.C,U2*%
X116350000Y-81890000D02*
X98370000Y-81890000D01*
X98370000Y-103720000D01*
X116350000Y-103720000D01*
X116350000Y-81890000D01*
%TO.C,D3*%
X99610000Y-78190000D02*
X101500000Y-78190000D01*
X106500000Y-78190000D02*
X108220000Y-78190000D01*
X106500000Y-76890000D02*
X101500000Y-76890000D01*
X101500000Y-79490000D01*
X106500000Y-79490000D01*
X106500000Y-76890000D01*
%TD*%
M02*
